<svg width="25" height="25" viewBox="0 0 25 25" fill="none" xmlns="http://www.w3.org/2000/svg">
<g clip-path="url(#clip0_87_128)">
<path d="M12.4995 0.5C5.87295 0.5 0.5 5.87295 0.5 12.4995C0.5 19.126 5.87295 24.5 12.4995 24.5C19.126 24.5 24.5 19.126 24.5 12.4995C24.5 5.87295 19.126 0.5 12.4995 0.5ZM14.9975 19.0976C14.3799 19.3414 13.8882 19.5263 13.5194 19.6543C13.1058 19.7894 12.6725 19.8543 12.2374 19.8463C11.4897 19.8463 10.9076 19.6634 10.4931 19.2987C10.0787 18.934 9.87245 18.4718 9.87245 17.91C9.87245 17.6916 9.88768 17.4681 9.91816 17.2406C9.95583 16.9814 10.0057 16.7241 10.0675 16.4695L10.8406 13.7389C10.9086 13.4768 10.9676 13.2279 11.0143 12.9963C11.061 12.7626 11.0834 12.5483 11.0834 12.3532C11.0834 12.0058 11.0112 11.762 10.868 11.6248C10.7227 11.4877 10.4495 11.4206 10.0421 11.4206C9.84298 11.4206 9.63778 11.4501 9.42749 11.5121C9.21924 11.5761 9.03841 11.634 8.8901 11.6909L9.09429 10.8497C9.60019 10.6435 10.0848 10.4667 10.547 10.3204C10.9697 10.179 11.4118 10.1043 11.8575 10.099C12.6001 10.099 13.173 10.2798 13.5763 10.6374C13.9776 10.996 14.1797 11.4623 14.1797 12.0352C14.1797 12.1541 14.1655 12.3634 14.1381 12.662C14.1143 12.9411 14.0625 13.2171 13.9837 13.4859L13.2147 16.2084C13.1457 16.4547 13.0891 16.7042 13.045 16.9561C13.0031 17.1658 12.9783 17.3784 12.9709 17.5921C12.9709 17.9537 13.0511 18.2006 13.2137 18.3316C13.3742 18.4627 13.6556 18.5287 14.0538 18.5287C14.2417 18.5287 14.452 18.4952 14.6897 18.4302C14.9254 18.3651 15.0961 18.3072 15.2037 18.2575L14.9975 19.0976ZM14.8614 8.04692C14.5117 8.37666 14.0467 8.55611 13.5662 8.54673C13.0623 8.54673 12.6275 8.38013 12.2658 8.04692C12.0939 7.89564 11.9565 7.70909 11.863 7.49996C11.7696 7.29083 11.7223 7.06403 11.7244 6.83498C11.7244 6.3626 11.9072 5.95625 12.2658 5.62C12.6163 5.28764 13.0833 5.10631 13.5662 5.11511C14.071 5.11511 14.5038 5.28273 14.8614 5.62C15.22 5.95625 15.3998 6.3626 15.3998 6.83498C15.3998 7.3094 15.22 7.71371 14.8614 8.04692Z" fill="url(#paint0_linear_87_128)"/>
</g>
<defs>
<linearGradient id="paint0_linear_87_128" x1="24.5" y1="0.5" x2="0.5" y2="0.5" gradientUnits="userSpaceOnUse">
<stop stop-color="#FF8911"/>
<stop offset="1" stop-color="#F83600"/>
</linearGradient>
<clipPath id="clip0_87_128">
<rect width="24" height="24" fill="white" transform="translate(0.5 0.5)"/>
</clipPath>
</defs>
</svg>
