<svg width="24" height="25" viewBox="0 0 24 25" fill="none" xmlns="http://www.w3.org/2000/svg">
<g clip-path="url(#clip0_414_315)">
<path d="M17.5 8.5C19.709 8.5 21.5 10.291 21.5 12.5C21.5 14.709 19.709 16.5 17.5 16.5C15.291 16.5 13.5 14.709 13.5 12.5C13.5 10.291 15.291 8.5 17.5 8.5ZM12 8.5C14.209 8.5 16 6.709 16 4.5C16 2.291 14.209 0.5 12 0.5C9.79103 0.5 8.00003 2.291 8.00003 4.5C8.00003 6.709 9.79103 8.5 12 8.5ZM6.50003 16.5C8.70903 16.5 10.5 14.709 10.5 12.5C10.5 10.291 8.70903 8.5 6.50003 8.5C4.29103 8.5 2.50003 10.291 2.50003 12.5C2.50003 14.709 4.29103 16.5 6.50003 16.5ZM23.954 22.631C23.188 19.61 20.432 17.5 17.25 17.5C15.168 17.5 13.28 18.415 12 19.888C10.721 18.416 8.83303 17.5 6.75003 17.5C3.56903 17.5 0.81203 19.61 0.04603 22.631C-0.15797 23.434 0.32803 24.25 1.13103 24.454C1.93503 24.659 2.75103 24.172 2.95403 23.369C3.17703 22.489 3.71203 21.753 4.42403 21.245L5.84003 23.059C6.31103 23.648 7.20703 23.648 7.67903 23.059L9.10703 21.265C9.80403 21.773 10.326 22.502 10.546 23.37C10.549 23.383 10.819 24.502 12.001 24.502C13.183 24.502 13.451 23.384 13.454 23.37C13.677 22.49 14.212 21.755 14.924 21.246L16.34 23.06C16.811 23.649 17.707 23.649 18.179 23.06L19.607 21.266C20.305 21.774 20.826 22.503 21.046 23.371C21.249 24.174 22.07 24.66 22.868 24.456C23.672 24.252 24.157 23.436 23.954 22.633V22.631Z" fill="url(#paint0_linear_414_315)"/>
</g>
<defs>
<linearGradient id="paint0_linear_414_315" x1="24.0002" y1="0.5" x2="-0.000488281" y2="0.5" gradientUnits="userSpaceOnUse">
<stop stop-color="#FF8911"/>
<stop offset="1" stop-color="#F83600"/>
</linearGradient>
<clipPath id="clip0_414_315">
<rect width="24" height="24" fill="white" transform="translate(0 0.5)"/>
</clipPath>
</defs>
</svg>
