<svg width="24" height="25" viewBox="0 0 24 25" fill="none" xmlns="http://www.w3.org/2000/svg">
<g clip-path="url(#clip0_175_200)">
<path d="M16 0.8C16.7058 1.04198 17.348 1.43982 17.879 1.964L19.535 3.622C20.0598 4.15229 20.458 4.79426 20.7 5.5H16V0.8ZM14 12.5H10C9.73478 12.5 9.48043 12.6054 9.29289 12.7929C9.10536 12.9804 9 13.2348 9 13.5C9 13.7652 9.10536 14.0196 9.29289 14.2071C9.48043 14.3946 9.73478 14.5 10 14.5H14C14.2652 14.5 14.5196 14.3946 14.7071 14.2071C14.8946 14.0196 15 13.7652 15 13.5C15 13.2348 14.8946 12.9804 14.7071 12.7929C14.5196 12.6054 14.2652 12.5 14 12.5ZM16 7.5C15.4696 7.5 14.9609 7.28929 14.5858 6.91421C14.2107 6.53914 14 6.03043 14 5.5V0.5H8C6.67441 0.501588 5.40356 1.02888 4.46622 1.96622C3.52888 2.90356 3.00159 4.17441 3 5.5V19.5C3.00159 20.8256 3.52888 22.0964 4.46622 23.0338C5.40356 23.9711 6.67441 24.4984 8 24.5H16C17.3256 24.4984 18.5964 23.9711 19.5338 23.0338C20.4711 22.0964 20.9984 20.8256 21 19.5V7.5H16ZM16 20.5H8C7.73478 20.5 7.48043 20.3946 7.29289 20.2071C7.10536 20.0196 7 19.7652 7 19.5C7 19.2348 7.10536 18.9804 7.29289 18.7929C7.48043 18.6054 7.73478 18.5 8 18.5H16C16.2652 18.5 16.5196 18.6054 16.7071 18.7929C16.8946 18.9804 17 19.2348 17 19.5C17 19.7652 16.8946 20.0196 16.7071 20.2071C16.5196 20.3946 16.2652 20.5 16 20.5ZM14 16.5H10C9.20435 16.5 8.44129 16.1839 7.87868 15.6213C7.31607 15.0587 7 14.2956 7 13.5C7 12.7044 7.31607 11.9413 7.87868 11.3787C8.44129 10.8161 9.20435 10.5 10 10.5H14C14.7956 10.5 15.5587 10.8161 16.1213 11.3787C16.6839 11.9413 17 12.7044 17 13.5C17 14.2956 16.6839 15.0587 16.1213 15.6213C15.5587 16.1839 14.7956 16.5 14 16.5Z" fill="url(#paint0_linear_175_200)"/>
</g>
<defs>
<linearGradient id="paint0_linear_175_200" x1="21" y1="0.5" x2="3" y2="0.5" gradientUnits="userSpaceOnUse">
<stop stop-color="#FF8911"/>
<stop offset="1" stop-color="#F83600"/>
</linearGradient>
<clipPath id="clip0_175_200">
<rect width="24" height="24" fill="white" transform="translate(0 0.5)"/>
</clipPath>
</defs>
</svg>
