<svg width="25" height="25" viewBox="0 0 25 25" fill="none" xmlns="http://www.w3.org/2000/svg">
<g clip-path="url(#clip0_152_19)">
<path d="M5.01965 16.613L11.5007 19.7416L11.5071 13.0766L5.01965 9.50272V16.613ZM13.4294 13.0776L13.4269 19.7439L19.9425 16.6122V9.5L13.4294 13.0776ZM6.14894 7.91466L12.4657 11.3919L18.804 7.91466L12.4657 4.8721L6.14894 7.91466Z" fill="url(#paint0_linear_152_19)"/>
<path d="M12.4793 2.04508C14.7833 2.04508 17.0075 2.8119 18.8132 4.19231H17.8913V5.83333H20.847C21.3268 5.83333 21.7142 5.41467 21.667 4.93682L21.3717 1.95687L19.7317 2.11564L19.8213 3.01836C17.7359 1.3999 15.1544 0.5 12.4793 0.5C5.94397 0.5 0.501099 5.96067 0.501099 12.4926C0.501099 14.3241 0.902996 16.0825 1.69556 17.7189L3.08597 17.0454C2.39592 15.6206 2.04602 14.0888 2.04602 12.4926C2.04602 6.73179 6.72633 2.04508 12.4793 2.04508ZM23.3045 7.28108L21.9141 7.95462C22.6042 9.37938 22.954 10.9112 22.954 12.5074C22.954 18.2682 18.2737 22.9549 12.5208 22.9549C10.2167 22.9549 7.99253 22.1881 6.18684 20.8077H7.12218V19.1667H4.15305C3.67325 19.1667 3.28587 19.5837 3.3331 20.0615L3.62843 23.0398L5.26838 22.8844L5.17889 21.9817C7.26418 23.6001 9.84561 24.5 12.5208 24.5C19.0561 24.5 24.4989 19.0393 24.4989 12.5074C24.4989 10.676 24.097 8.91759 23.3045 7.28108Z" fill="url(#paint1_linear_152_19)"/>
</g>
<defs>
<linearGradient id="paint0_linear_152_19" x1="19.9425" y1="4.8721" x2="5.01965" y2="4.8721" gradientUnits="userSpaceOnUse">
<stop stop-color="#FF8911"/>
<stop offset="1" stop-color="#F83600"/>
</linearGradient>
<linearGradient id="paint1_linear_152_19" x1="24.4989" y1="0.5" x2="0.501099" y2="0.5" gradientUnits="userSpaceOnUse">
<stop stop-color="#FF8911"/>
<stop offset="1" stop-color="#F83600"/>
</linearGradient>
<clipPath id="clip0_152_19">
<rect width="24" height="24" fill="white" transform="translate(0.5 0.5)"/>
</clipPath>
</defs>
</svg>
