<svg width="24" height="25" viewBox="0 0 24 25" fill="none" xmlns="http://www.w3.org/2000/svg">
<g clip-path="url(#clip0_118_27)">
<path d="M23.9374 9.23761C23.8607 8.99978 23.7156 8.78979 23.5204 8.63383C23.3251 8.47787 23.0882 8.38283 22.8393 8.36055L15.9123 7.73152L13.1731 1.32027C12.9711 0.850426 12.5112 0.546387 12.0001 0.546387C11.4891 0.546387 11.0291 0.850473 10.8271 1.32144L8.08796 7.73157L1.1598 8.36055C0.911176 8.38333 0.674703 8.47857 0.479701 8.63448C0.284698 8.79038 0.139741 9.00009 0.0628033 9.23761C-0.0952164 9.72362 0.0507092 10.2566 0.435797 10.5927L5.67187 15.1846L4.12786 21.9859C4.01489 22.486 4.20896 23.0029 4.6239 23.3029C4.84689 23.464 5.10785 23.546 5.37097 23.546C5.59785 23.546 5.82286 23.4849 6.02489 23.364L12.0001 19.7928L17.9732 23.364C18.4102 23.627 18.9612 23.603 19.3752 23.3029C19.5779 23.1561 19.733 22.9531 19.8212 22.7189C19.9094 22.4848 19.9268 22.2299 19.8713 21.9859L18.3273 15.1846L23.5633 10.5936C23.7517 10.4291 23.8876 10.2129 23.9541 9.97179C24.0206 9.73072 24.0148 9.47542 23.9374 9.23761Z" fill="url(#paint0_linear_118_27)"/>
</g>
<defs>
<linearGradient id="paint0_linear_118_27" x1="24" y1="0.546387" x2="0" y2="0.546387" gradientUnits="userSpaceOnUse">
<stop stop-color="#FF8911"/>
<stop offset="1" stop-color="#F83600"/>
</linearGradient>
<clipPath id="clip0_118_27">
<rect width="24" height="23.9537" fill="white" transform="translate(0 0.523193)"/>
</clipPath>
</defs>
</svg>
