<svg width="24" height="25" viewBox="0 0 24 25" fill="none" xmlns="http://www.w3.org/2000/svg">
<g clip-path="url(#clip0_118_24)">
<path d="M12 0.5C5.383 0.5 0 5.883 0 12.5C0 19.117 5.383 24.5 12 24.5C18.617 24.5 24 19.117 24 12.5C24 5.883 18.617 0.5 12 0.5ZM18.989 10.544L17.902 16.877C17.8721 17.0513 17.7815 17.2094 17.6462 17.3234C17.511 17.4374 17.3399 17.5 17.163 17.5H6.837C6.66014 17.5 6.48898 17.4374 6.35376 17.3234C6.21853 17.2094 6.12795 17.0513 6.098 16.877L5.011 10.544C4.98764 10.408 5.00228 10.2681 5.0533 10.1398C5.10432 10.0116 5.18975 9.8999 5.30018 9.81708C5.41061 9.73426 5.54175 9.68352 5.67917 9.67045C5.81658 9.65738 5.95494 9.68248 6.079 9.743L8.973 11.152L11.345 6.885C11.609 6.408 12.392 6.408 12.656 6.885L15.028 11.152L17.922 9.743C18.046 9.68236 18.1843 9.65717 18.3218 9.6702C18.4592 9.68323 18.5903 9.73399 18.7007 9.81686C18.8111 9.89972 18.8964 10.0115 18.9473 10.1398C18.9982 10.2681 19.0126 10.408 18.989 10.544Z" fill="url(#paint0_linear_118_24)"/>
</g>
<defs>
<linearGradient id="paint0_linear_118_24" x1="24" y1="0.5" x2="0" y2="0.5" gradientUnits="userSpaceOnUse">
<stop stop-color="#FF8911"/>
<stop offset="1" stop-color="#F83600"/>
</linearGradient>
<clipPath id="clip0_118_24">
<rect width="24" height="24" fill="white" transform="translate(0 0.5)"/>
</clipPath>
</defs>
</svg>
