<svg width="89" height="161" viewBox="0 0 89 161" fill="none" xmlns="http://www.w3.org/2000/svg">
<path d="M15.8696 1.52588e-05L15.8696 145.911L88.9998 145.911L88.9998 1.61309e-05L15.8696 1.52588e-05Z" fill="#FDD600"/>
<path d="M8.91321 154.664C8.16962 152.869 6.11156 152.016 4.31641 152.76C2.52126 153.503 1.66881 155.561 2.4124 157.357C3.15599 159.152 5.21405 160.004 7.0092 159.261C8.80434 158.517 9.6568 156.459 8.91321 154.664Z" fill="#0C2D57"/>
<path d="M21.3561 152.541C19.4382 152.23 17.631 153.532 17.3198 155.45C17.0085 157.368 18.311 159.175 20.2289 159.487C22.1469 159.798 23.954 158.495 24.2653 156.578C24.5765 154.66 23.2741 152.852 21.3561 152.541Z" fill="#0C2D57"/>
<path d="M39.4425 156.033C39.4425 154.09 37.8674 152.515 35.9244 152.515C33.9814 152.515 32.4063 154.09 32.4063 156.033C32.4063 157.976 33.9814 159.551 35.9244 159.551C37.8674 159.551 39.4425 157.976 39.4425 156.033Z" fill="#0C2D57"/>
<path d="M54.296 154.663C53.5524 152.868 51.4944 152.016 49.6992 152.759C47.9041 153.503 47.0516 155.561 47.7952 157.356C48.5388 159.151 50.5969 160.004 52.392 159.26C54.1872 158.517 55.0396 156.459 54.296 154.663Z" fill="#0C2D57"/>
<path d="M66.7394 152.541C64.8215 152.229 63.0143 153.532 62.7031 155.45C62.3918 157.368 63.6943 159.175 65.6122 159.486C67.5302 159.797 69.3373 158.495 69.6486 156.577C69.9598 154.659 68.6574 152.852 66.7394 152.541Z" fill="#0C2D57"/>
<path d="M8.16053 134.673C6.78662 133.299 4.55908 133.299 3.18518 134.673C1.81127 136.047 1.81127 138.274 3.18518 139.648C4.55908 141.022 6.78662 141.022 8.16053 139.648C9.53443 138.274 9.53443 136.047 8.16053 134.673Z" fill="#0C2D57"/>
<path d="M21.6628 133.709C19.7719 133.262 17.877 134.433 17.4305 136.324C16.984 138.215 18.1549 140.11 20.0459 140.556C21.9368 141.003 23.8317 139.832 24.2782 137.941C24.7247 136.05 23.5538 134.155 21.6628 133.709Z" fill="#0C2D57"/>
<path d="M39.4425 137.153C39.4425 135.21 37.8674 133.635 35.9244 133.635C33.9814 133.635 32.4063 135.21 32.4063 137.153C32.4063 139.096 33.9814 140.671 35.9244 140.671C37.8674 140.671 39.4425 139.096 39.4425 137.153Z" fill="#0C2D57"/>
<path d="M53.5419 134.673C52.168 133.299 49.9404 133.299 48.5665 134.673C47.1926 136.047 47.1926 138.275 48.5665 139.648C49.9404 141.022 52.168 141.022 53.5419 139.648C54.9158 138.275 54.9158 136.047 53.5419 134.673Z" fill="#0C2D57"/>
<path d="M67.0471 133.71C65.1561 133.264 63.2613 134.435 62.8148 136.326C62.3683 138.217 63.5392 140.112 65.4302 140.558C67.3211 141.005 69.216 139.834 69.6625 137.943C70.109 136.052 68.938 134.157 67.0471 133.71Z" fill="#0C2D57"/>
<path d="M8.16101 115.793C6.78711 114.419 4.55957 114.419 3.18567 115.793C1.81176 117.166 1.81176 119.394 3.18567 120.768C4.55957 122.142 6.78711 122.142 8.16101 120.768C9.53492 119.394 9.53492 117.166 8.16101 115.793Z" fill="#0C2D57"/>
<path d="M21.6638 114.828C19.7728 114.381 17.878 115.552 17.4315 117.443C16.985 119.334 18.1559 121.229 20.0469 121.675C21.9378 122.122 23.8327 120.951 24.2792 119.06C24.7257 117.169 23.5547 115.274 21.6638 114.828Z" fill="#0C2D57"/>
<path d="M39.4425 118.273C39.4425 116.329 37.8674 114.754 35.9244 114.754C33.9814 114.754 32.4063 116.329 32.4063 118.273C32.4063 120.216 33.9814 121.791 35.9244 121.791C37.8674 121.791 39.4425 120.216 39.4425 118.273Z" fill="#0C2D57"/>
<path d="M53.5424 115.794C52.1685 114.42 49.9409 114.42 48.567 115.794C47.1931 117.167 47.1931 119.395 48.567 120.769C49.9409 122.143 52.1685 122.143 53.5424 120.769C54.9163 119.395 54.9163 117.167 53.5424 115.794Z" fill="#0C2D57"/>
<path d="M67.0476 114.83C65.1566 114.384 63.2618 115.554 62.8153 117.445C62.3688 119.336 63.5397 121.231 65.4306 121.678C67.3216 122.124 69.2165 120.953 69.663 119.062C70.1095 117.171 68.9385 115.277 67.0476 114.83Z" fill="#0C2D57"/>
<path d="M8.16101 96.9127C6.78711 95.5388 4.55957 95.5388 3.18567 96.9127C1.81176 98.2866 1.81176 100.514 3.18567 101.888C4.55957 103.262 6.78711 103.262 8.16101 101.888C9.53492 100.514 9.53492 98.2866 8.16101 96.9127Z" fill="#0C2D57"/>
<path d="M21.6643 95.9458C19.7733 95.4993 17.8785 96.6702 17.432 98.5611C16.9855 100.452 18.1564 102.347 20.0473 102.793C21.9383 103.24 23.8332 102.069 24.2797 100.178C24.7262 98.2871 23.5552 96.3923 21.6643 95.9458Z" fill="#0C2D57"/>
<path d="M39.4425 99.3925C39.4425 97.4495 37.8674 95.8744 35.9244 95.8744C33.9814 95.8744 32.4063 97.4495 32.4063 99.3925C32.4063 101.336 33.9814 102.911 35.9244 102.911C37.8674 102.911 39.4425 101.336 39.4425 99.3925Z" fill="#0C2D57"/>
<path d="M53.5424 96.9142C52.1685 95.5403 49.9409 95.5403 48.567 96.9142C47.1931 98.2881 47.1931 100.516 48.567 101.89C49.9409 103.263 52.1685 103.263 53.5424 101.89C54.9163 100.516 54.9163 98.2881 53.5424 96.9142Z" fill="#0C2D57"/>
<path d="M67.0486 95.9492C65.1576 95.5027 63.2627 96.6736 62.8162 98.5646C62.3697 100.456 63.5407 102.35 65.4316 102.797C67.3226 103.243 69.2174 102.072 69.6639 100.181C70.1104 98.2906 68.9395 96.3957 67.0486 95.9492Z" fill="#0C2D57"/>
<path d="M8.16101 78.0337C6.78711 76.6598 4.55957 76.6598 3.18567 78.0337C1.81176 79.4076 1.81176 81.6351 3.18567 83.009C4.55957 84.3829 6.78711 84.3829 8.16101 83.009C9.53492 81.6351 9.53492 79.4076 8.16101 78.0337Z" fill="#0C2D57"/>
<path d="M21.6653 77.0664C19.7743 76.6199 17.8794 77.7908 17.4329 79.6817C16.9864 81.5727 18.1574 83.4676 20.0483 83.9141C21.9393 84.3606 23.8341 83.1896 24.2806 81.2987C24.7271 79.4077 23.5562 77.5129 21.6653 77.0664Z" fill="#0C2D57"/>
<path d="M39.4425 80.5125C39.4425 78.5695 37.8674 76.9944 35.9244 76.9944C33.9814 76.9944 32.4063 78.5695 32.4063 80.5125C32.4063 82.4555 33.9814 84.0306 35.9244 84.0306C37.8674 84.0306 39.4425 82.4555 39.4425 80.5125Z" fill="#0C2D57"/>
<path d="M53.5424 78.0337C52.1685 76.6598 49.9409 76.6598 48.567 78.0337C47.1931 79.4076 47.1931 81.6351 48.567 83.009C49.9409 84.3829 52.1685 84.3829 53.5424 83.009C54.9163 81.6351 54.9163 79.4076 53.5424 78.0337Z" fill="#0C2D57"/>
<path d="M67.0495 77.0682C65.1586 76.6217 63.2637 77.7926 62.8172 79.6836C62.3707 81.5745 63.5417 83.4694 65.4326 83.9159C67.3235 84.3624 69.2184 83.1915 69.6649 81.3005C70.1114 79.4096 68.9405 77.5147 67.0495 77.0682Z" fill="#0C2D57"/>
<path d="M8.16101 59.1537C6.78711 57.7798 4.55957 57.7798 3.18567 59.1537C1.81176 60.5276 1.81176 62.7551 3.18567 64.129C4.55957 65.5029 6.78711 65.5029 8.16101 64.129C9.53492 62.7551 9.53492 60.5276 8.16101 59.1537Z" fill="#0C2D57"/>
<path d="M21.6662 58.1855C19.7753 57.739 17.8804 58.9099 17.4339 60.8009C16.9874 62.6918 18.1584 64.5867 20.0493 65.0332C21.9402 65.4797 23.8351 64.3088 24.2816 62.4178C24.7281 60.5269 23.5572 58.632 21.6662 58.1855Z" fill="#0C2D57"/>
<path d="M39.4425 61.6331C39.4425 59.6901 37.8674 58.115 35.9244 58.115C33.9814 58.115 32.4063 59.6901 32.4063 61.6331C32.4063 63.5761 33.9814 65.1512 35.9244 65.1512C37.8674 65.1512 39.4425 63.5761 39.4425 61.6331Z" fill="#0C2D57"/>
<path d="M53.5424 59.1547C52.1685 57.7807 49.9409 57.7807 48.567 59.1547C47.1931 60.5286 47.1931 62.7561 48.567 64.13C49.9409 65.5039 52.1685 65.5039 53.5424 64.13C54.9163 62.7561 54.9163 60.5286 53.5424 59.1547Z" fill="#0C2D57"/>
<path d="M67.05 58.1878C65.1591 57.7413 63.2642 58.9123 62.8177 60.8032C62.3712 62.6941 63.5421 64.589 65.4331 65.0355C67.324 65.482 69.2189 64.3111 69.6654 62.4201C70.1119 60.5292 68.941 58.6343 67.05 58.1878Z" fill="#0C2D57"/>
<path d="M8.16101 40.2743C6.78711 38.9004 4.55957 38.9004 3.18567 40.2743C1.81176 41.6482 1.81176 43.8757 3.18567 45.2496C4.55957 46.6235 6.78711 46.6235 8.16101 45.2496C9.53492 43.8757 9.53492 41.6482 8.16101 40.2743Z" fill="#0C2D57"/>
<path d="M21.6672 39.3042C19.7763 38.8577 17.8814 40.0286 17.4349 41.9195C16.9884 43.8105 18.1593 45.7054 20.0503 46.1519C21.9412 46.5984 23.8361 45.4274 24.2826 43.5365C24.7291 41.6455 23.5581 39.7507 21.6672 39.3042Z" fill="#0C2D57"/>
<path d="M39.4425 42.7531C39.4425 40.8101 37.8674 39.235 35.9244 39.235C33.9814 39.235 32.4063 40.8101 32.4063 42.7531C32.4063 44.6961 33.9814 46.2712 35.9244 46.2712C37.8674 46.2712 39.4425 44.6961 39.4425 42.7531Z" fill="#0C2D57"/>
<path d="M53.5424 40.2748C52.1685 38.9009 49.9409 38.9009 48.567 40.2748C47.1931 41.6487 47.1931 43.8762 48.567 45.2501C49.9409 46.624 52.1685 46.624 53.5424 45.2501C54.9163 43.8762 54.9163 41.6487 53.5424 40.2748Z" fill="#0C2D57"/>
<path d="M67.051 39.3073C65.1601 38.8608 63.2652 40.0318 62.8187 41.9227C62.3722 43.8137 63.5431 45.7085 65.4341 46.155C67.325 46.6015 69.2199 45.4306 69.6664 43.5397C70.1129 41.6487 68.9419 39.7538 67.051 39.3073Z" fill="#0C2D57"/>
<path d="M8.1615 21.394C6.7876 20.0201 4.56006 20.0201 3.18615 21.394C1.81225 22.7679 1.81225 24.9955 3.18615 26.3694C4.56006 27.7433 6.7876 27.7433 8.1615 26.3694C9.53541 24.9955 9.53541 22.7679 8.1615 21.394Z" fill="#0C2D57"/>
<path d="M21.6682 20.4237C19.7772 19.9772 17.8824 21.1481 17.4359 23.039C16.9894 24.93 18.1603 26.8249 20.0512 27.2714C21.9422 27.7179 23.8371 26.5469 24.2836 24.656C24.7301 22.765 23.5591 20.8702 21.6682 20.4237Z" fill="#0C2D57"/>
<path d="M39.4425 23.8737C39.4425 21.9307 37.8674 20.3556 35.9244 20.3556C33.9814 20.3556 32.4063 21.9307 32.4063 23.8737C32.4063 25.8167 33.9814 27.3918 35.9244 27.3918C37.8674 27.3918 39.4425 25.8167 39.4425 23.8737Z" fill="#0C2D57"/>
<path d="M53.5429 21.3948C52.1689 20.0209 49.9414 20.0209 48.5675 21.3948C47.1936 22.7687 47.1936 24.9962 48.5675 26.3701C49.9414 27.744 52.1689 27.744 53.5429 26.3701C54.9168 24.9962 54.9168 22.7687 53.5429 21.3948Z" fill="#0C2D57"/>
<path d="M67.0525 20.4261C65.1615 19.9796 63.2666 21.1505 62.8201 23.0415C62.3736 24.9324 63.5446 26.8273 65.4355 27.2738C67.3265 27.7203 69.2213 26.5494 69.6678 24.6584C70.1143 22.7675 68.9434 20.8726 67.0525 20.4261Z" fill="#0C2D57"/>
</svg>
