<svg width="80" height="80" viewBox="0 0 80 80" fill="none" xmlns="http://www.w3.org/2000/svg">
<g clip-path="url(#clip0_376_137)">
<path d="M77.5812 20.2891C75.4812 12.5594 67.4422 4.51875 59.7109 2.41875C54.9703 1.2375 48.6203 0.0203125 40 0C31.3797 0.0203125 25.0297 1.2375 20.2891 2.41875C12.5594 4.51875 4.51875 12.5578 2.41875 20.2891C1.2375 25.0297 0.0203125 31.3797 0 40C0.0203125 48.6203 1.2375 54.9703 2.41875 59.7109C4.51875 67.4422 12.5594 75.4812 20.2891 77.5812C25.0297 78.7625 31.3828 79.9797 40 80C48.6188 79.9797 54.9703 78.7625 59.7109 77.5812C67.4422 75.4812 75.4812 67.4422 77.5812 59.7109C78.7625 54.9703 79.9797 48.6172 80 40C79.9797 31.3797 78.7625 25.0297 77.5812 20.2891Z" fill="#DFF8FF"/>
<path d="M30.6468 23.4798C27.5218 23.636 24.7093 23.8626 23.3031 24.0501C18.5937 24.7016 14.5734 28.5626 13.9922 33.0688C13.9922 33.0688 13.7875 34.7204 13.7109 36.1391L13.4812 40.7594C13.4609 41.9485 13.4625 43.2298 13.4937 44.6141C13.6109 49.7063 14.0453 53.4376 14.4968 56.1766C15.2781 60.7079 19.3203 64.7266 23.8718 65.5063C26.6281 66.0048 34.8797 66.6001 40.0015 66.5563C45.1234 66.6079 53.375 66.0048 56.1312 65.5063C60.6812 64.7251 64.725 60.7016 65.5062 56.1766C65.9578 53.4391 66.3922 49.7079 66.5093 44.6141C66.5406 43.2251 66.5422 41.9391 66.5218 40.7469L66.2906 36.1298C66.2624 35.1045 66.169 34.0822 66.0109 33.0688C65.4297 28.5626 61.4172 24.7001 56.7062 24.0501C55.3 23.8626 52.4875 23.636 49.3625 23.4798L44.4828 23.2923C42.8812 23.2516 41.3437 23.2313 40.0093 23.2313C38.675 23.2313 37.1375 23.2516 35.5359 23.2923L30.6468 23.4798Z" fill="url(#paint0_linear_376_137)"/>
<path d="M49.3531 23.4797C49.2859 21.761 49.1703 20.2516 49.0406 19.2313C48.844 17.8067 48.2007 16.4812 47.2031 15.4454C46.2462 14.4273 44.9708 13.766 43.5875 13.5704C42.3947 13.4641 41.1973 13.4197 40 13.4376C38.8052 13.4209 37.6103 13.4663 36.4203 13.5735C35.0364 13.7691 33.7606 14.4305 32.8031 15.4485C31.8064 16.4843 31.1632 17.809 30.9656 19.2329C30.8296 20.2547 30.714 21.7579 30.6531 23.4829L35.5328 23.2954C35.575 21.7907 35.6546 20.4579 35.75 19.6313C35.7835 19.3441 35.9109 19.0761 36.1125 18.8688C36.3103 18.6639 36.5721 18.5327 36.8546 18.4969C36.8546 18.4969 38.2359 18.4188 39.914 18.4188C41.7515 18.4188 43.1562 18.4969 43.1562 18.4969C43.4396 18.5315 43.7023 18.6629 43.9 18.8688C44.1015 19.0761 44.2289 19.3441 44.2625 19.6313C44.3578 20.4579 44.4375 21.7907 44.4796 23.2954L49.3531 23.4797Z" fill="url(#paint1_linear_376_137)"/>
<path d="M38.2249 42.9094C39.0171 43.0534 39.8286 43.056 40.6218 42.9172L66.4062 38.4375L66.2905 36.125C66.2623 35.0998 66.1689 34.0774 66.0108 33.0641C65.4296 28.5578 61.4171 24.6953 56.7062 24.0453C55.2999 23.8578 52.4874 23.6313 49.3624 23.475L44.4827 23.2875C42.8812 23.2469 41.3437 23.2266 40.0093 23.2266C38.6749 23.2266 37.1374 23.2469 35.5358 23.2875L30.6562 23.475C27.5312 23.6313 24.7187 23.8578 23.3124 24.0453C18.5937 24.7016 14.5733 28.5625 13.9921 33.0688C13.9921 33.0688 13.7874 34.7203 13.7108 36.1391L13.5952 38.4828L38.2249 42.9094Z" fill="url(#paint2_linear_376_137)"/>
</g>
<defs>
<linearGradient id="paint0_linear_376_137" x1="60.0672" y1="64.4079" x2="19.9328" y2="24.2735" gradientUnits="userSpaceOnUse">
<stop stop-color="#1EB4EB"/>
<stop offset="0.54" stop-color="#1EB4EB"/>
<stop offset="1" stop-color="#92F4FE"/>
</linearGradient>
<linearGradient id="paint1_linear_376_137" x1="46.1468" y1="26.686" x2="33.8531" y2="14.3938" gradientUnits="userSpaceOnUse">
<stop stop-color="#34344F"/>
<stop offset="0.54" stop-color="#353551"/>
<stop offset="1" stop-color="#666684"/>
</linearGradient>
<linearGradient id="paint2_linear_376_137" x1="67.4827" y1="62.0266" x2="37.164" y2="31.7078" gradientUnits="userSpaceOnUse">
<stop stop-color="#5FD9F9"/>
<stop offset="0.52" stop-color="#5BD7F8"/>
<stop offset="1" stop-color="#B0F0FF"/>
</linearGradient>
<clipPath id="clip0_376_137">
<rect width="80" height="80" fill="white"/>
</clipPath>
</defs>
</svg>
