<svg width="80" height="80" viewBox="0 0 80 80" fill="none" xmlns="http://www.w3.org/2000/svg">
<g clip-path="url(#clip0_376_223)">
<path d="M70.6667 9.33333C65 3.33333 55 0.333333 40 0C25 0.333333 15 3.33333 9.33333 9.33333C3.33333 15 0.333333 25 0 40C0.333333 55 3.33333 65 9.33333 70.6667C15 76.6667 25 79.6667 40 80C55 79.6667 65 76.6667 70.6667 70.6667C76.6667 64.6667 79.6667 55 80 40C79.6667 25 76.6667 15 70.6667 9.33333Z" fill="url(#paint0_linear_376_223)"/>
<path d="M56.9999 63.6666H22.9999C21.6666 63.6666 20.6666 62.6666 20.6666 61.3333V39.6666H13.3333L38.3333 16.6666C39.3333 16 40.6666 16 41.3333 16.6666L66.6666 39.3333H59.3333V61C59.3333 62.6666 58.3333 63.6666 56.9999 63.6666ZM25.3333 59H54.3333V35.3333L39.6666 22L24.9999 35.3333V59H25.3333ZM39.9999 49.3333C36.6666 49.3333 33.9999 46.6666 33.9999 43.3333C33.9999 40 36.6666 37.3333 39.9999 37.3333C43.3333 37.3333 45.9999 40 45.9999 43.3333C45.9999 46.6666 43.3333 49.3333 39.9999 49.3333Z" fill="white"/>
</g>
<defs>
<linearGradient id="paint0_linear_376_223" x1="40" y1="0.303333" x2="40" y2="79.9167" gradientUnits="userSpaceOnUse">
<stop offset="0.00970556" stop-color="#9D6CFF"/>
<stop offset="1" stop-color="#7734FF"/>
</linearGradient>
<clipPath id="clip0_376_223">
<rect width="80" height="80" fill="white"/>
</clipPath>
</defs>
</svg>
