<svg width="80" height="80" viewBox="0 0 80 80" fill="none" xmlns="http://www.w3.org/2000/svg">
<g clip-path="url(#clip0_772_1497)">
<path d="M71.5375 27.875C70.3798 26.9702 69.4293 25.8279 68.75 24.525C68.5054 23.0156 68.595 21.471 69.0125 20C69.5 17.5 69.9875 15 68.625 13.0875C67.2625 11.175 64.6375 10.875 62.125 10.5875C60.6029 10.541 59.1094 10.1613 57.75 9.47499C56.7003 8.41074 55.8943 7.13127 55.3875 5.72499C54.3125 3.33749 53.2 0.937488 50.9375 0.199988C48.675 -0.537512 46.5 0.749988 44.325 1.94999C43.0293 2.83662 41.5515 3.42178 40 3.66249C38.4485 3.42178 36.9707 2.83662 35.675 1.94999C33.4875 0.749988 31.25 -0.500012 29.0625 0.199988C26.875 0.899988 25.6875 3.33749 24.6125 5.64999C24.1057 7.05627 23.2997 8.33574 22.25 9.39999C20.8885 10.0807 19.3963 10.4601 17.875 10.5125C15.375 10.8125 12.7625 11.1375 11.375 13.0125C9.9875 14.8875 10.5 17.5 10.9875 20C11.405 21.471 11.4946 23.0156 11.25 24.525C10.5707 25.8279 9.62024 26.9702 8.4625 27.875C6.575 29.625 4.625 31.4375 4.625 33.8625C4.625 36.2875 6.575 38.1 8.4625 39.85C9.62024 40.7548 10.5707 41.8971 11.25 43.2C11.4902 44.7193 11.392 46.273 10.9625 47.75C10.475 50.25 9.9875 52.75 11.35 54.6625C12.3986 55.8854 13.8735 56.6631 15.475 56.8375L9.125 68.675C8.9154 69.0582 8.80623 69.4883 8.80768 69.9251C8.80913 70.362 8.92114 70.7913 9.13328 71.1732C9.34542 71.555 9.65078 71.8769 10.0209 72.1089C10.391 72.341 10.8139 72.4755 11.25 72.5L20.0875 72.8L25.2625 79.05C25.5047 79.3425 25.8083 79.5782 26.1518 79.7402C26.4953 79.9022 26.8702 79.9867 27.25 79.9875H27.5C27.9199 79.9541 28.3246 79.8151 28.6764 79.5834C29.0282 79.3518 29.3158 79.035 29.5125 78.6625L37.0125 65.0375C37.9228 64.493 38.9438 64.1598 40 64.0625C41.0476 64.1635 42.0596 64.4966 42.9625 65.0375L50.4625 78.6625C50.6598 79.0407 50.9506 79.3622 51.3072 79.5963C51.6639 79.8305 52.0745 79.9694 52.5 80H52.75C53.1298 79.9992 53.5047 79.9147 53.8482 79.7527C54.1917 79.5907 54.4953 79.355 54.7375 79.0625L59.9125 72.8125L68.75 72.5C69.1799 72.4775 69.5974 72.3482 69.9647 72.1237C70.3319 71.8992 70.6374 71.5866 70.8534 71.2142C71.0694 70.8418 71.189 70.4215 71.2015 69.9912C71.214 69.5609 71.119 69.1343 70.925 68.75L64.55 56.9125C66.1515 56.7381 67.6264 55.9604 68.675 54.7375C70.0375 52.85 69.55 50.3 69.0625 47.825C68.6134 46.3262 68.5066 44.7456 68.75 43.2C69.4365 41.8946 70.3957 40.7521 71.5625 39.85C73.45 38.1 75.4 36.2875 75.4 33.8625C75.4 31.4375 73.425 29.625 71.5375 27.875ZM27.5 77.5C27.4858 77.5207 27.4673 77.5382 27.4457 77.5511C27.4241 77.5641 27.4 77.5722 27.375 77.575C27.356 77.586 27.3344 77.5917 27.3125 77.5917C27.2906 77.5917 27.269 77.586 27.25 77.575L21.725 70.8625C21.6146 70.733 21.479 70.6274 21.3264 70.5522C21.1738 70.477 21.0074 70.4337 20.8375 70.425L11.3875 70C11.3666 70.0121 11.3429 70.0184 11.3188 70.0184C11.2946 70.0184 11.2709 70.0121 11.25 70C11.2368 69.9772 11.2299 69.9513 11.2299 69.925C11.2299 69.8987 11.2368 69.8728 11.25 69.85L18.0375 57.225C19.5002 57.2758 20.934 57.647 22.2375 58.3125C23.2856 59.378 24.0915 60.6571 24.6 62.0625C25.675 64.375 26.7875 66.7625 29.05 67.5C29.4769 67.6436 29.9246 67.7154 30.375 67.7125C31.3363 67.6788 32.2806 67.4491 33.15 67.0375L27.5 77.5ZM68.75 70C68.7383 70.0229 68.7204 70.0422 68.6983 70.0554C68.6762 70.0687 68.6508 70.0755 68.625 70.075L59.2375 70.4C59.0676 70.4087 58.9012 70.452 58.7486 70.5272C58.596 70.6024 58.4604 70.708 58.35 70.8375L52.8125 77.5C52.7935 77.511 52.7719 77.5167 52.75 77.5167C52.7281 77.5167 52.7065 77.511 52.6875 77.5C52.6625 77.4972 52.6384 77.4891 52.6168 77.4761C52.5952 77.4632 52.5767 77.4457 52.5625 77.425L46.8375 66.975C48.1006 67.6288 49.5605 67.7934 50.9375 67.4375C53.2 66.7 54.3125 64.3125 55.3875 62C55.896 60.5946 56.7019 59.3155 57.75 58.25C59.0535 57.5845 60.4873 57.2133 61.95 57.1625L68.75 69.825C68.7683 69.8505 68.7782 69.8811 68.7782 69.9125C68.7782 69.9439 68.7683 69.9745 68.75 70ZM69.9 38.0875C68.3984 39.2522 67.2053 40.7672 66.425 42.5C66.0244 44.4094 66.0973 46.3878 66.6375 48.2625C67.0125 50.225 67.4125 52.25 66.6375 53.2625C65.8625 54.275 64.2625 54.5125 62.4875 54.7125L61.8125 54.7875C59.8794 54.8536 57.9916 55.3899 56.3125 56.35C54.8978 57.6413 53.8207 59.2592 53.175 61.0625C52.3125 62.9 51.4375 64.8125 50.175 65.225C48.9125 65.6375 47.2125 64.6125 45.4875 63.6625C43.8531 62.5457 41.9681 61.85 40 61.6375C38.0287 61.8443 36.1392 62.5357 34.5 63.65C32.775 64.6 30.9875 65.5875 29.8125 65.2125C28.6375 64.8375 27.675 62.8875 26.8125 61.05C26.1668 59.2467 25.0897 57.6288 23.675 56.3375C21.9959 55.3774 20.1081 54.8411 18.175 54.775L17.5 54.6875C15.725 54.4625 14.025 54.1625 13.35 53.225C12.675 52.2875 13 50.175 13.35 48.225C13.8881 46.3631 13.9654 44.3983 13.575 42.5C12.7948 40.7777 11.6063 39.2716 10.1125 38.1125C8.6 36.725 7.05 35.275 7.05 33.9125C7.05 32.55 8.6 31.1 10.1125 29.7C11.6058 28.5454 12.7944 27.0436 13.575 25.325C13.9756 23.4156 13.9027 21.4372 13.3625 19.5625C12.9875 17.6 12.5875 15.5625 13.3625 14.5625C14.1375 13.5625 16.2 13.3125 18.2 13.0125C20.133 12.9568 22.0223 12.4243 23.7 11.4625C25.112 10.1689 26.1887 8.5517 26.8375 6.74999C27.7 4.89999 28.575 2.99999 29.8375 2.58749C30.0229 2.52622 30.2173 2.49664 30.4125 2.49999C31.8718 2.72735 33.2655 3.26437 34.5 4.07499C36.142 5.1838 38.0301 5.87466 40 6.08749C41.9699 5.87466 43.858 5.1838 45.5 4.07499C47.225 3.11249 49.0125 2.12499 50.1875 2.49999C51.3625 2.87499 52.325 4.81249 53.1875 6.66249C53.8363 8.4642 54.913 10.0814 56.325 11.375C58.0027 12.3368 59.892 12.8693 61.825 12.925C63.825 13.175 65.9 13.425 66.6625 14.475C67.425 15.525 67.0125 17.5375 66.6625 19.475C66.1223 21.3497 66.0494 23.3281 66.45 25.2375C67.2306 26.9561 68.4192 28.4579 69.9125 29.6125C71.425 31.0125 72.975 32.45 72.975 33.825C72.975 35.2 71.4 36.675 69.8875 38.0625L69.9 38.0875Z" fill="url(#paint0_linear_772_1497)"/>
<path d="M40 10.6124C35.4016 10.6124 30.9064 11.976 27.083 14.5308C23.2596 17.0855 20.2795 20.7167 18.5198 24.965C16.7601 29.2134 16.2996 33.8882 17.1968 38.3983C18.0939 42.9083 20.3082 47.0511 23.5598 50.3027C26.8113 53.5542 30.9541 55.7686 35.4642 56.6657C39.9742 57.5628 44.649 57.1024 48.8974 55.3426C53.1458 53.5829 56.7769 50.6029 59.3317 46.7794C61.8864 42.956 63.25 38.4608 63.25 33.8624C63.2434 27.6982 60.7917 21.7883 56.4329 17.4295C52.0741 13.0707 46.1643 10.619 40 10.6124ZM40 54.6874C35.8812 54.6874 31.8549 53.4661 28.4303 51.1778C25.0056 48.8895 22.3364 45.6371 20.7602 41.8318C19.184 38.0265 18.7716 33.8393 19.5752 29.7997C20.3787 25.76 22.3621 22.0494 25.2745 19.1369C28.1869 16.2245 31.8976 14.2411 35.9373 13.4376C39.9769 12.634 44.1641 13.0464 47.9694 14.6226C51.7747 16.1988 55.0271 18.868 57.3154 22.2927C59.6036 25.7173 60.825 29.7436 60.825 33.8624C60.8217 39.3845 58.6266 44.6795 54.7219 48.5843C50.8171 52.489 45.5221 54.6841 40 54.6874Z" fill="url(#paint1_linear_772_1497)"/>
<path d="M52.6874 28.5999L44.6749 27.4999L41.0874 20.2374C40.9784 20.0451 40.8203 19.8851 40.6292 19.7737C40.4382 19.6624 40.221 19.6038 39.9999 19.6038C39.7788 19.6038 39.5616 19.6624 39.3706 19.7737C39.1795 19.8851 39.0214 20.0451 38.9124 20.2374L35.3249 27.4999L27.3124 28.6624C27.0977 28.7086 26.8989 28.8106 26.7361 28.958C26.5733 29.1054 26.4523 29.2931 26.3851 29.5022C26.3179 29.7113 26.307 29.9344 26.3535 30.1491C26.4 30.3638 26.5022 30.5624 26.6499 30.7249L32.4999 36.3124L31.1374 44.2999C31.1178 44.5178 31.1556 44.7369 31.2472 44.9355C31.3388 45.1341 31.4809 45.3052 31.6592 45.4317C31.8376 45.5582 32.0461 45.6357 32.2638 45.6565C32.4815 45.6772 32.7008 45.6405 32.8999 45.5499L40.0624 41.7999L47.2249 45.5499C47.4 45.6367 47.5921 45.6836 47.7874 45.6874C47.9662 45.689 48.1432 45.6521 48.3065 45.5794C48.4698 45.5067 48.6156 45.3998 48.7341 45.2659C48.8526 45.132 48.941 44.9743 48.9933 44.8033C49.0456 44.6324 49.0606 44.4522 49.0374 44.2749L47.6749 36.2874L53.4624 30.6374C53.6101 30.4749 53.7123 30.2763 53.7588 30.0616C53.8053 29.8469 53.7944 29.6238 53.7272 29.4147C53.6601 29.2056 53.539 29.0179 53.3762 28.8705C53.2134 28.7231 53.0146 28.6211 52.7999 28.5749L52.6874 28.5999ZM45.4124 34.9999C45.2737 35.139 45.1697 35.3088 45.1089 35.4956C45.0481 35.6824 45.0322 35.8809 45.0624 36.0749L46.1249 42.2624L40.5624 39.3374C40.3879 39.2495 40.1953 39.2037 39.9999 39.2037C39.8045 39.2037 39.6119 39.2495 39.4374 39.3374L33.8749 42.2874L34.9999 36.0999C35.0301 35.9059 35.0142 35.7074 34.9534 35.5206C34.8926 35.3338 34.7886 35.164 34.6499 35.0249L30.1624 30.6374L36.4124 29.7374C36.6058 29.7062 36.7891 29.63 36.9476 29.5149C37.1061 29.3999 37.2353 29.2491 37.3249 29.0749L39.9999 23.4499L42.7749 29.0749C42.8645 29.2491 42.9937 29.3999 43.1522 29.5149C43.3107 29.63 43.494 29.7062 43.6874 29.7374L49.9374 30.6374L45.4124 34.9999Z" fill="url(#paint2_linear_772_1497)"/>
</g>
<defs>
<linearGradient id="paint0_linear_772_1497" x1="75.4" y1="-0.0164795" x2="4.625" y2="-0.0164795" gradientUnits="userSpaceOnUse">
<stop stop-color="#FF8911"/>
<stop offset="1" stop-color="#F83600"/>
</linearGradient>
<linearGradient id="paint1_linear_772_1497" x1="63.25" y1="10.6124" x2="16.75" y2="10.6124" gradientUnits="userSpaceOnUse">
<stop stop-color="#FF8911"/>
<stop offset="1" stop-color="#F83600"/>
</linearGradient>
<linearGradient id="paint2_linear_772_1497" x1="53.7871" y1="19.6038" x2="26.3252" y2="19.6038" gradientUnits="userSpaceOnUse">
<stop stop-color="#FF8911"/>
<stop offset="1" stop-color="#F83600"/>
</linearGradient>
<clipPath id="clip0_772_1497">
<rect width="80" height="80" fill="white"/>
</clipPath>
</defs>
</svg>
