<svg width="80" height="80" viewBox="0 0 80 80" fill="none" xmlns="http://www.w3.org/2000/svg">
<g clip-path="url(#clip0_772_1487)">
<path d="M78.3368 2.7862C78.2671 2.51573 78.1261 2.26889 77.9286 2.07139C77.7311 1.87388 77.4843 1.73294 77.2138 1.66323C64.452 -1.62786 51.0316 -0.00130165 39.4251 6.24198C36.8941 7.60296 34.4792 9.16953 32.2048 10.9259C25.7448 8.62182 18.559 10.2118 13.6665 15.1043L3.88805 24.8821C3.2782 25.4924 3.2782 26.4818 3.88805 27.0923L14.7682 37.9718C14.7682 37.9723 14.7688 37.9723 14.7688 37.9729L16.172 39.3756L14.881 48.8604C14.8484 49.0991 14.8714 49.3421 14.9483 49.5703C15.0252 49.7986 15.1538 50.006 15.3241 50.1764L16.4607 51.3128L7.12586 60.7037C6.51742 61.3159 6.52039 62.3053 7.13258 62.9131C7.74477 63.5217 8.73414 63.5187 9.34211 62.907L18.6702 53.5223L26.4784 61.3312L13.3216 74.4299C12.7101 75.039 12.7076 76.0284 13.3162 76.64C13.4614 76.7859 13.634 76.9017 13.8241 76.9807C14.0142 77.0597 14.2181 77.1003 14.424 77.1001C14.8224 77.1001 15.221 76.9482 15.5262 76.6448L28.6884 63.5406L29.8237 64.6765C29.9941 64.8467 30.2015 64.9753 30.4298 65.0521C30.658 65.129 30.901 65.1521 31.1396 65.1196L40.6245 63.8287L42.0276 65.2318C42.0276 65.2318 42.0276 65.2325 42.0282 65.2325L52.9079 76.1126C53.0528 76.2579 53.225 76.373 53.4146 76.4515C53.6042 76.5299 53.8074 76.5701 54.0126 76.5698C54.2179 76.5702 54.4212 76.53 54.6109 76.4516C54.8006 76.3731 54.9729 76.2579 55.1179 76.1126L64.8957 66.3342C69.7884 61.4417 71.3788 54.256 69.0741 47.796C70.8304 45.5214 72.3969 43.1065 73.758 40.5756C80.0018 28.9684 81.6279 15.5481 78.3368 2.7862ZM15.2227 34.0074L7.20305 25.9874L15.876 17.3145C19.446 13.7439 24.4973 12.3059 29.3038 13.3398C23.0429 18.9434 18.2015 26.0059 15.223 34.0074H15.2227ZM31.4857 61.9184L18.0818 48.5143L18.9479 42.1515L37.8485 61.0521L31.4857 61.9184ZM62.6862 64.1242L54.0126 72.7971L45.993 64.7771C53.9948 61.7987 61.0566 56.9573 66.6602 50.6964C67.6941 55.5029 66.2562 60.5535 62.6862 64.1242ZM43.7337 62.2679L43.5474 62.332L17.6679 36.4526L17.732 36.2664C25.9095 12.4987 51.1688 -1.32693 75.5335 4.46635C81.3263 28.8304 67.5021 54.0906 43.7337 62.2679Z" fill="url(#paint0_linear_772_1487)"/>
<path d="M60.9107 17.1753L40.4029 22.6703C40.138 22.7415 39.8965 22.8811 39.7026 23.0751C39.5087 23.2691 39.3693 23.5107 39.2983 23.7756C39.2273 24.0405 39.2273 24.3194 39.2982 24.5844C39.3691 24.8493 39.5084 25.091 39.7022 25.285L42.7491 28.3313L36.6096 34.4703C35.9997 35.0807 35.9997 36.07 36.6096 36.6803C37.2199 37.29 38.2093 37.29 38.8196 36.6803L46.0633 29.4361C46.6736 28.8263 46.6736 27.8369 46.0633 27.2266L43.8258 24.9891L59.1058 20.8949L55.0116 36.1744L52.7741 33.9369C52.4811 33.6438 52.0838 33.4797 51.6694 33.4797C51.255 33.4797 50.8569 33.6438 50.5639 33.9367L38.0957 46.4057C37.4854 47.016 37.4854 48.0053 38.0957 48.6158C38.2406 48.761 38.4128 48.8762 38.6024 48.9546C38.792 49.033 38.9952 49.0732 39.2004 49.0728C39.4055 49.0732 39.6088 49.0331 39.7984 48.9546C39.988 48.8762 40.1602 48.761 40.3052 48.6158L51.6688 37.2517L54.715 40.2978C54.909 40.4917 55.1506 40.6312 55.4156 40.7022C55.6805 40.7733 55.9594 40.7734 56.2244 40.7025C56.4893 40.6316 56.7309 40.4922 56.9248 40.2983C57.1188 40.1043 57.2582 39.8628 57.3291 39.5978L62.8241 19.0894C62.8952 18.8245 62.8953 18.5455 62.8244 18.2805C62.7535 18.0155 62.614 17.7739 62.4201 17.5799C62.2261 17.3858 61.9845 17.2463 61.7196 17.1753C61.4546 17.1043 61.1756 17.1043 60.9107 17.1753ZM14.9982 65.0019C14.3885 64.3914 13.3991 64.3914 12.7888 65.0019L0.457852 77.3328C-0.152617 77.9425 -0.152617 78.9319 0.457852 79.5422C0.763008 79.8474 1.16254 80 1.56254 80C1.96254 80 2.3627 79.8474 2.66723 79.5422L14.9982 67.2113C15.6086 66.6016 15.6086 65.6122 14.9982 65.0019ZM3.93316 67.6685C4.34395 67.6685 4.74676 67.5032 5.03785 67.2107C5.32848 66.9202 5.49566 66.5185 5.49566 66.106C5.49422 65.6921 5.32974 65.2954 5.03785 65.0019C4.74428 64.7097 4.34737 64.545 3.93316 64.5435C3.52066 64.5435 3.11895 64.7107 2.82848 65.0019C2.53659 65.2954 2.37211 65.6921 2.37066 66.106C2.37066 66.5185 2.53785 66.9202 2.82848 67.2107C3.12166 67.5034 3.51888 67.668 3.93316 67.6685ZM31.4735 39.6063L31.46 39.618C30.8172 40.1947 30.7643 41.1828 31.341 41.825C31.4874 41.9885 31.6667 42.1193 31.8672 42.2087C32.0677 42.2981 32.2848 42.3441 32.5043 42.3438C32.8896 42.3442 33.2614 42.2015 33.5474 41.9433L33.5608 41.9318C34.203 41.355 34.2566 40.3675 33.6799 39.7255C33.103 39.0827 32.1155 39.0296 31.4735 39.6063Z" fill="url(#paint1_linear_772_1487)"/>
</g>
<defs>
<linearGradient id="paint0_linear_772_1487" x1="80.0003" y1="-0.00012207" x2="3.43066" y2="-0.00012207" gradientUnits="userSpaceOnUse">
<stop stop-color="#FF8911"/>
<stop offset="1" stop-color="#F83600"/>
</linearGradient>
<linearGradient id="paint1_linear_772_1487" x1="62.8775" y1="17.1221" x2="0" y2="17.1221" gradientUnits="userSpaceOnUse">
<stop stop-color="#FF8911"/>
<stop offset="1" stop-color="#F83600"/>
</linearGradient>
<clipPath id="clip0_772_1487">
<rect width="80" height="80.0002" fill="white"/>
</clipPath>
</defs>
</svg>
