<svg width="80" height="80" viewBox="0 0 80 80" fill="none" xmlns="http://www.w3.org/2000/svg">
<path d="M47.4383 26.5488C45.595 24.7057 42.5964 24.7057 40.7531 26.5488L32.1048 35.1971L29.4658 32.558C28.5756 31.6678 27.3886 31.1777 26.1231 31.1777C24.8578 31.1777 23.6708 31.668 22.7806 32.558H22.7805C20.9375 34.401 20.9375 37.3999 22.7805 39.2428L28.1888 44.651C29.4367 45.8991 30.892 46.5324 32.283 46.5324C33.4616 46.5324 34.5942 46.0775 35.5153 45.1564L47.4381 33.2336C49.2812 31.3906 49.2812 28.3917 47.4383 26.5488ZM45.6705 31.4661L33.7477 43.3889C32.1511 44.9855 30.1767 43.1033 29.9567 42.8835L24.5486 37.4753C23.6802 36.6071 23.6802 35.1942 24.5486 34.326C24.9667 33.908 25.5258 33.6778 26.1234 33.6778C26.7209 33.6778 27.2802 33.908 27.698 34.3258L31.2209 37.8488C31.337 37.9649 31.4748 38.057 31.6265 38.1198C31.7781 38.1826 31.9407 38.215 32.1048 38.215C32.269 38.215 32.4316 38.1826 32.5832 38.1198C32.7349 38.057 32.8727 37.9649 32.9888 37.8488L42.5209 28.3167C42.9388 27.8988 43.4981 27.6688 44.0956 27.6688C44.6931 27.6688 45.2523 27.8989 45.6705 28.3169C46.0883 28.7349 46.3184 29.2939 46.3184 29.8916C46.3186 30.4888 46.0884 31.0481 45.6705 31.4661ZM75.9752 46.9644H66.3573V45.0299C66.3581 44.1027 66.0665 43.1988 65.5239 42.4469L68.168 41.4292C68.4037 41.3385 68.6064 41.1785 68.7494 40.9702C68.8924 40.762 68.9689 40.5153 68.9689 40.2627V31.4363C68.9689 31.1837 68.8923 30.937 68.7493 30.7287C68.6063 30.5205 68.4036 30.3604 68.1678 30.2697L63.3714 28.4236C62.7001 25.862 61.6813 23.4044 60.3434 21.1191L62.4309 16.4191C62.5335 16.1882 62.5637 15.9317 62.5175 15.6834C62.4714 15.435 62.3511 15.2065 62.1725 15.0278L55.9312 8.78643C55.7526 8.6078 55.5241 8.48747 55.2757 8.44131C55.0274 8.39515 54.7709 8.42531 54.54 8.52784L49.838 10.6161C47.5534 9.27874 45.0966 8.26018 42.5359 7.58877L40.6891 2.79081C40.5983 2.55507 40.4383 2.35235 40.23 2.20937C40.0218 2.0664 39.7751 1.98987 39.5225 1.98987H30.6964C30.4438 1.98987 30.1971 2.0664 29.9889 2.20937C29.7806 2.35235 29.6206 2.55507 29.5298 2.79081L27.683 7.58877C25.1223 8.26015 22.6655 9.27871 20.3809 10.6161L15.6789 8.52784C15.448 8.4254 15.1915 8.39528 14.9432 8.44144C14.6949 8.4876 14.4663 8.60787 14.2877 8.78643L8.04641 15.0277C7.8678 15.2063 7.7475 15.4349 7.70137 15.6832C7.65523 15.9316 7.68543 16.1881 7.78797 16.4189L9.87594 21.1202C8.53829 23.4049 7.51962 25.862 6.84828 28.423L2.05094 30.2697C1.8152 30.3605 1.61249 30.5206 1.46952 30.7288C1.32654 30.9371 1.25001 31.1838 1.25 31.4364V40.2627C1.25 40.5153 1.32653 40.762 1.4695 40.9702C1.61248 41.1785 1.8152 41.3385 2.05094 41.4292L6.84766 43.2755C7.51895 45.837 8.53768 48.2946 9.87547 50.5799L7.78797 55.28C7.68543 55.5109 7.65523 55.7674 7.70137 56.0157C7.7475 56.2641 7.8678 56.4926 8.04641 56.6713L14.2877 62.9125C14.4662 63.0912 14.6948 63.2116 14.9432 63.2577C15.1915 63.3038 15.4481 63.2736 15.6789 63.171L20.3808 61.0827C22.6654 62.4201 25.1222 63.4387 27.683 64.11L29.5297 68.908C29.6204 69.1437 29.7805 69.3465 29.9887 69.4894C30.197 69.6324 30.4436 69.7089 30.6962 69.7089H37.4016V73.7846C37.4016 76.1146 39.2972 78.0102 41.6272 78.0102H72.7117C75.0417 78.0102 76.9375 76.1146 76.9375 73.7846V60.9692C78.1395 59.8205 78.7498 58.4858 78.7498 56.993V49.7391C78.75 48.2091 77.5052 46.9644 75.9752 46.9644ZM76.25 49.7391V56.993C76.25 57.9055 75.8192 58.6841 74.8947 59.4432C74.6616 59.6346 74.3916 59.8275 74.0928 60.0166C72.0472 61.3108 67.4948 62.266 61.8025 62.6107C61.0605 60.7792 59.2642 59.4835 57.1698 59.4835C55.0745 59.4835 53.2773 60.7803 52.5361 62.613C46.8512 62.271 42.2992 61.315 40.2469 60.0166C39.9491 59.828 39.6791 59.635 39.445 59.443C38.5203 58.6839 38.0897 57.9053 38.0897 56.993V49.7391C38.0897 49.5902 38.2155 49.4644 38.3644 49.4644H45.3034V53.1724C45.3034 54.9157 46.7217 56.3339 48.465 56.3339H65.8747C67.618 56.3339 69.0362 54.9157 69.0362 53.1724V49.4644H75.9752C76.1241 49.4644 76.25 49.5902 76.25 49.7391ZM59.6669 64.4808C59.6669 65.8577 58.5467 66.9778 57.1698 66.9778C55.793 66.9778 54.6727 65.8577 54.6727 64.4808C54.6727 63.1039 55.793 61.9836 57.1698 61.9836C58.5467 61.9836 59.6669 63.1038 59.6669 64.4808ZM35.5895 49.7391V54.298C35.4294 54.3021 35.2691 54.3085 35.1095 54.3085C24.9311 54.3085 16.6503 46.0278 16.6503 35.8494C16.6503 25.671 24.9311 17.3903 35.1095 17.3903C45.288 17.3903 53.5686 25.6711 53.5686 35.8494C53.5686 37.4619 53.3591 39.0539 52.9502 40.5955H52.4167C49.9717 40.5955 47.9823 42.5847 47.9823 45.0297V46.9642H38.3642C36.8342 46.9644 35.5895 48.2091 35.5895 49.7391ZM61.0384 46.9644H53.3011V45.9146H61.0384V46.9644ZM66.5362 49.4644V53.1724C66.5362 53.531 66.2333 53.8339 65.8747 53.8339H48.465C48.1064 53.8339 47.8034 53.531 47.8034 53.1724V49.4644H66.5362ZM63.5384 46.9644V45.0299C63.5384 44.1391 62.8138 43.4146 61.9231 43.4146H52.4166C51.5258 43.4146 50.8011 44.1392 50.8011 45.0299V46.9644H50.4822V45.0299C50.4822 43.9633 51.35 43.0957 52.4166 43.0957H61.9231C62.9897 43.0957 63.8573 43.9633 63.8573 45.0299V46.9644H63.5384ZM31.5547 67.2089L29.7828 62.606C29.7099 62.4165 29.5919 62.2477 29.4391 62.114C29.2863 61.9804 29.1033 61.886 28.9058 61.8389C26.1561 61.1847 23.5286 60.0954 21.1225 58.6122C20.9496 58.5057 20.7534 58.443 20.5508 58.4294C20.3482 58.4158 20.1454 58.4518 19.9598 58.5342L15.4488 60.5378L10.4212 55.5103L12.4241 51.001C12.5065 50.8154 12.5424 50.6125 12.5288 50.4099C12.5152 50.2073 12.4524 50.0111 12.3459 49.8382C10.8623 47.4315 9.77284 44.8033 9.11875 42.0528C9.07181 41.8553 8.97745 41.6722 8.84383 41.5194C8.71021 41.3665 8.54135 41.2486 8.35187 41.1756L3.75 39.4044V32.2946L8.35234 30.523C8.54183 30.4501 8.7107 30.3321 8.84433 30.1793C8.97795 30.0264 9.07231 29.8433 9.11922 29.6458C9.77354 26.8959 10.8629 24.2682 12.3462 21.8621C12.4527 21.6892 12.5155 21.4929 12.5291 21.2903C12.5427 21.0877 12.5068 20.8848 12.4244 20.6992L10.4211 16.1886L15.4484 11.1611L19.9597 13.1647C20.1453 13.2471 20.3481 13.283 20.5507 13.2694C20.7533 13.2558 20.9495 13.1931 21.1223 13.0866C23.5283 11.6034 26.1558 10.5141 28.9055 9.85987C29.103 9.81284 29.286 9.71843 29.4388 9.58479C29.5916 9.45114 29.7096 9.28229 29.7825 9.09284L31.5544 4.48987H38.6641L40.4359 9.09284C40.5089 9.28228 40.6268 9.45112 40.7796 9.58475C40.9325 9.71839 41.1155 9.81282 41.313 9.85987C44.0626 10.5141 46.6901 11.6034 49.0961 13.0866C49.269 13.193 49.4652 13.2557 49.6678 13.2694C49.8703 13.283 50.0732 13.2471 50.2588 13.1647L54.77 11.1611L59.7975 16.1886L57.7947 20.6978C57.7123 20.8834 57.6763 21.0863 57.6899 21.2889C57.7036 21.4915 57.7663 21.6878 57.8728 21.8606C59.3565 24.2672 60.4459 26.8955 61.0998 29.646C61.1469 29.8435 61.2413 30.0266 61.3749 30.1794C61.5085 30.3323 61.6774 30.4503 61.8669 30.5233L66.4686 32.2944V39.4042L63.0177 40.7325C62.6599 40.6413 62.292 40.5953 61.9228 40.5955H55.5267C55.887 39.0392 56.0686 37.4469 56.0681 35.8494C56.0681 24.2925 46.6659 14.8903 35.1091 14.8903C23.5522 14.8903 14.1503 24.2925 14.1503 35.8494C14.1503 47.4063 23.5527 56.8085 35.1095 56.8085C35.2691 56.8085 35.4292 56.8064 35.5895 56.8028V56.993C35.5895 58.4855 36.1997 59.82 37.4017 60.9689V67.2089H31.5547ZM72.7119 75.5102H41.6273C40.6758 75.5102 39.9017 74.7361 39.9017 73.7846V62.6714C43.2345 64.2663 48.5694 64.8703 52.212 65.0983C52.5175 67.5633 54.6236 69.4778 57.1697 69.4778C59.7172 69.4778 61.8241 67.5613 62.1277 65.0944C65.3955 64.8838 71.0122 64.2941 74.4375 62.6682V73.7846C74.4377 74.7361 73.6634 75.5102 72.7119 75.5102Z" fill="url(#paint0_linear_772_1453)"/>
<defs>
<linearGradient id="paint0_linear_772_1453" x1="78.7498" y1="1.98987" x2="1.25" y2="1.98987" gradientUnits="userSpaceOnUse">
<stop stop-color="#FF8911"/>
<stop offset="1" stop-color="#F83600"/>
</linearGradient>
</defs>
</svg>
