<svg width="80" height="80" viewBox="0 0 80 80" fill="none" xmlns="http://www.w3.org/2000/svg">
<g clip-path="url(#clip0_772_1461)">
<path d="M22.84 11.0706L22.4947 14.8191C22.4303 15.5163 22.7301 16.1783 23.2965 16.59C23.8629 17.0016 24.5854 17.0822 25.229 16.8056L28.6872 15.3188L32.1454 16.8058C32.3983 16.9144 32.6631 16.9678 32.9259 16.9678C33.3323 16.9678 33.7337 16.84 34.0778 16.59C34.6442 16.1783 34.944 15.5163 34.8797 14.8191L34.5344 11.0706L37.0172 8.24109C37.479 7.71469 37.6254 7.00266 37.409 6.33672C37.1926 5.67063 36.6556 5.18109 35.9726 5.02672L32.3009 4.19672L30.3772 0.96125C30.0192 0.359375 29.3875 0 28.6872 0C27.9868 0 27.3551 0.359375 26.9972 0.96125L25.0734 4.19688L21.4017 5.02672C20.7186 5.18094 20.1817 5.67078 19.9653 6.33672C19.7489 7.00266 19.8953 7.71453 20.3573 8.24109L22.84 11.0706ZM25.7486 6.44719C26.2726 6.32875 26.7306 5.99594 27.0051 5.53422L28.6873 2.70516L30.3695 5.53437C30.644 5.99609 31.102 6.32875 31.6261 6.44719L34.8365 7.17297L32.6656 9.64688C32.3111 10.0509 32.1362 10.5894 32.1856 11.1241L32.4876 14.4017L29.4636 13.1016C29.2168 12.9955 28.9522 12.9425 28.6873 12.9425C28.4225 12.9425 28.1575 12.9955 27.9106 13.1017L24.8867 14.4017L25.1887 11.1241C25.2379 10.5891 25.0631 10.0506 24.7087 9.64703L22.5378 7.17266L25.7486 6.44719Z" fill="url(#paint0_linear_772_1461)"/>
<path d="M5.09765 16.8175L7.84625 15.636L10.5948 16.8175C10.8292 16.9185 11.0745 16.968 11.3183 16.968C11.6948 16.968 12.067 16.8494 12.3859 16.6177C12.9111 16.2363 13.1891 15.6225 13.1294 14.9761L12.8547 11.9969L14.8281 9.74801C15.2561 9.26004 15.3919 8.6002 15.1914 7.98286C14.9908 7.36567 14.4931 6.91176 13.86 6.76864L10.9417 6.10911L9.41266 3.53754C9.08094 2.97973 8.49531 2.64661 7.84625 2.64661C7.19719 2.64661 6.61172 2.97973 6.27984 3.53754L4.75094 6.10926L1.8325 6.76879C1.19937 6.91192 0.701717 7.36583 0.501092 7.98301C0.300467 8.60036 0.436248 9.2602 0.864529 9.74833L2.83781 11.9969L2.56328 14.9761C2.50375 15.6225 2.78172 16.2361 3.30687 16.6177C3.83187 16.9993 4.50156 17.0738 5.09765 16.8175ZM3.20453 8.86145L5.48625 8.34583C5.97172 8.23598 6.39609 7.9277 6.65078 7.49973L7.84609 5.48911L9.04187 7.50004C9.2964 7.92786 9.72078 8.23614 10.2064 8.34583L12.488 8.86145L10.945 10.6197C10.6167 10.994 10.4547 11.4929 10.5002 11.9889L10.7148 14.318L8.56578 13.3941C8.10844 13.1975 7.58375 13.1974 7.12641 13.3943L4.9775 14.3182L5.19219 11.9891C5.23781 11.4935 5.07594 10.9946 4.74734 10.6196L3.20453 8.86145Z" fill="url(#paint1_linear_772_1461)"/>
<path d="M43.4939 11.9969L43.2194 14.9761C43.1598 15.6225 43.4378 16.2361 43.963 16.6177C44.4881 16.9993 45.1577 17.0738 45.7539 16.8174L48.5025 15.6358L51.2511 16.8175C51.4853 16.9183 51.7308 16.9679 51.9745 16.9679C52.3511 16.9679 52.7233 16.8493 53.0422 16.6175C53.5673 16.2361 53.8453 15.6224 53.7856 14.976L53.5111 11.9969L55.4845 9.74801C55.9125 9.26004 56.0483 8.6002 55.8478 7.98286C55.6472 7.36567 55.1495 6.91176 54.5164 6.76864L51.598 6.10911L50.0687 3.53754C49.737 2.97973 49.1514 2.64661 48.5023 2.64661C47.8533 2.64661 47.2678 2.97973 46.9361 3.53754L45.4072 6.10926L42.4887 6.76879C41.8556 6.91192 41.358 7.36582 41.1573 7.98301C40.9567 8.60036 41.0925 9.2602 41.5208 9.74817L43.4939 11.9969ZM46.1425 8.34582C46.628 8.23598 47.0523 7.9277 47.307 7.49973L48.5023 5.48911L49.698 7.50004C49.9525 7.92786 50.377 8.23614 50.8625 8.34582L53.1441 8.86145L51.6011 10.6197C51.2728 10.9939 51.1108 11.4929 51.1562 11.9889L51.3709 14.3182L49.2219 13.3941C48.7645 13.1975 48.2398 13.1974 47.7825 13.3943L45.6336 14.3182L45.8483 11.9891C45.8941 11.4933 45.7319 10.9943 45.4033 10.6197L43.8605 8.86145L46.1425 8.34582Z" fill="url(#paint2_linear_772_1461)"/>
<path d="M79.5906 62.632C79.5906 61.3528 79.0434 60.1992 78.1707 59.3928C79.0434 58.5864 79.5906 57.4326 79.5906 56.1536C79.5906 53.7214 77.6116 51.7425 75.1812 51.7425L63.4081 51.7245C62.5138 51.7231 61.7863 50.9944 61.7863 50.1001V41.735C61.7863 39.5944 60.7051 37.6348 58.894 36.4934C58.0257 35.9459 56.9766 35.8406 56.0156 36.2044C55.0534 36.5684 54.3359 37.3433 54.0468 38.33L49.3682 54.3055C48.7688 56.3523 46.8607 57.7817 44.7279 57.7817H42.6998V57.1128C42.6998 55.7578 41.5974 54.6555 40.2424 54.6555H32.4918C31.1368 54.6555 30.0345 55.7578 30.0345 57.1128V64.6381H10.0152C8.98258 64.6381 8.01868 64.1769 7.37086 63.3725C6.72305 62.5683 6.47774 61.5283 6.69774 60.5192C7.65305 56.1389 10.1021 52.1775 13.5937 49.3653C17.0854 46.553 21.4774 45.0042 25.9609 45.0042H28.1921C34.6849 45.0042 40.8604 47.8109 45.1351 52.7047C45.5609 53.1923 46.301 53.242 46.7887 52.8164C47.2762 52.3906 47.326 51.6503 46.9002 51.163C43.5448 47.3216 39.1281 44.6462 34.279 43.4197C38.1132 41.277 40.7129 37.1791 40.7129 32.4834C40.7129 25.5794 35.0962 19.9626 28.1923 19.9626C25.3246 19.9626 22.5221 20.9569 20.3007 22.7622C19.7984 23.1703 19.7221 23.9084 20.1304 24.4108C20.5387 24.9128 21.2768 24.9892 21.7788 24.5811C23.5837 23.1142 25.8613 22.3064 28.1923 22.3064C33.8038 22.3064 38.3691 26.8719 38.3691 32.4834C38.3691 38.095 33.8038 42.6605 28.1923 42.6605C22.5806 42.6605 18.0152 38.095 18.0152 32.4834C18.0152 30.9416 18.3509 29.4611 19.0127 28.0831C19.293 27.4998 19.0473 26.7997 18.4638 26.5194C17.8804 26.2392 17.1804 26.485 16.9001 27.0684C16.0848 28.7655 15.6713 30.5873 15.6713 32.4834C15.6713 36.9589 18.033 40.8911 21.5741 43.1053C18.1346 43.8062 14.8785 45.3211 12.1235 47.5398C8.2168 50.6866 5.47649 55.1186 4.40774 60.0197C4.03586 61.7251 4.45039 63.483 5.54539 64.8423C6.64024 66.2019 8.26946 66.9816 10.0151 66.9816H30.0343V76.8734C30.0343 78.2284 31.1366 79.3308 32.4916 79.3308H40.2423C41.5973 79.3308 42.6996 78.2284 42.6996 76.8734V76.8364H46.4771C49.0268 76.8364 51.434 77.3211 53.632 78.2767C56.1848 79.3867 58.8904 79.9494 61.6691 79.9494L75.1793 80C77.6116 80 79.5904 78.0211 79.5904 75.5889C79.5904 74.3098 79.0432 73.1562 78.1705 72.3498C79.0432 71.5434 79.5904 70.3897 79.5904 69.1106C79.5904 67.8316 79.0432 66.6778 78.1705 65.8714C79.0432 65.0647 79.5906 63.9109 79.5906 62.632ZM40.3559 76.8736C40.3559 76.9361 40.3049 76.9872 40.2423 76.9872H32.4916C32.429 76.9872 32.3781 76.9362 32.3781 76.8736V57.1126C32.3781 57.0501 32.429 56.9991 32.4916 56.9991H40.2423C40.3049 56.9991 40.3559 57.05 40.3559 57.1126V76.8736ZM71.3324 60.5645H75.1795C76.3195 60.5645 77.2468 61.492 77.2468 62.6319C77.2468 63.7717 76.3193 64.6991 75.1795 64.6991H71.3324C70.6852 64.6991 70.1606 65.2236 70.1606 65.8709C70.1606 66.5183 70.6852 67.0428 71.3324 67.0428H75.1795C76.3195 67.0428 77.2468 67.9703 77.2468 69.1102C77.2468 70.25 76.3193 71.1775 75.1795 71.1775H71.3324C70.6852 71.1775 70.1606 71.702 70.1606 72.3494C70.1606 72.9967 70.6852 73.5212 71.3324 73.5212H75.1795C76.3195 73.5212 77.2468 74.4487 77.2468 75.5884C77.2468 76.7284 76.3193 77.6558 75.1837 77.6558L61.6734 77.6053C59.2137 77.6053 56.8226 77.1078 54.5663 76.127C52.0718 75.0423 49.3502 74.4923 46.4771 74.4923H42.6996V60.125H44.7277C47.8943 60.125 50.7273 58.0027 51.6173 54.9639L56.2959 38.9883C56.3763 38.7133 56.5765 38.4973 56.8449 38.3958C57.1121 38.2948 57.4034 38.3237 57.6443 38.4756C58.7704 39.1853 59.4426 40.4036 59.4426 41.7344V50.0995C59.4426 52.2841 61.2199 54.0641 63.4045 54.0676L75.1793 54.0856C76.3193 54.0856 77.2466 55.0131 77.2466 56.153C77.2466 57.2928 76.3191 58.2203 75.1793 58.2203H71.3323C70.6851 58.2203 70.1604 58.7448 70.1604 59.3922C70.1604 60.0395 70.6851 60.5645 71.3324 60.5645Z" fill="url(#paint3_linear_772_1461)"/>
</g>
<defs>
<linearGradient id="paint0_linear_772_1461" x1="37.5071" y1="0" x2="19.8672" y2="0" gradientUnits="userSpaceOnUse">
<stop stop-color="#FF8911"/>
<stop offset="1" stop-color="#F83600"/>
</linearGradient>
<linearGradient id="paint1_linear_772_1461" x1="15.2822" y1="2.64661" x2="0.410156" y2="2.64661" gradientUnits="userSpaceOnUse">
<stop stop-color="#FF8911"/>
<stop offset="1" stop-color="#F83600"/>
</linearGradient>
<linearGradient id="paint2_linear_772_1461" x1="55.9387" y1="2.64661" x2="41.0664" y2="2.64661" gradientUnits="userSpaceOnUse">
<stop stop-color="#FF8911"/>
<stop offset="1" stop-color="#F83600"/>
</linearGradient>
<linearGradient id="paint3_linear_772_1461" x1="79.5906" y1="19.9626" x2="4.27441" y2="19.9626" gradientUnits="userSpaceOnUse">
<stop stop-color="#FF8911"/>
<stop offset="1" stop-color="#F83600"/>
</linearGradient>
<clipPath id="clip0_772_1461">
<rect width="80" height="80" fill="white"/>
</clipPath>
</defs>
</svg>
