<svg width="173" height="60" viewBox="0 0 173 60" fill="none" xmlns="http://www.w3.org/2000/svg">
<path d="M6.66814 4.9401C7.01288 3.28554 5.9395 1.66716 4.27065 1.32537C2.6018 0.983574 0.96945 2.04779 0.624705 3.70236C0.279961 5.35693 1.35337 6.97531 3.02222 7.3171C4.69107 7.6589 6.32339 6.59467 6.66814 4.9401Z" fill="#CED5DD"/>
<path d="M6.66814 18.0937C7.01288 16.4392 5.9395 14.8208 4.27065 14.479C2.6018 14.1372 0.96945 15.2014 0.624705 16.856C0.279961 18.5106 1.35337 20.1289 3.02222 20.4707C4.69107 20.8125 6.32339 19.7483 6.66814 18.0937Z" fill="#CED5DD"/>
<path d="M6.66765 31.2473C7.0124 29.5928 5.93901 27.9744 4.27016 27.6326C2.60131 27.2908 0.968961 28.355 0.624217 30.0096C0.279473 31.6642 1.35288 33.2825 3.02173 33.6243C4.69058 33.9661 6.32291 32.9019 6.66765 31.2473Z" fill="#CED5DD"/>
<path d="M3.6752 46.8456C5.37932 46.8456 6.7608 45.476 6.7608 43.7864C6.7608 42.0969 5.37932 40.7272 3.6752 40.7272C1.97108 40.7272 0.5896 42.0969 0.5896 43.7864C0.5896 45.476 1.97108 46.8456 3.6752 46.8456Z" fill="#CED5DD"/>
<path d="M3.6752 60C5.37932 60 6.7608 58.6304 6.7608 56.9408C6.7608 55.2513 5.37932 53.8816 3.6752 53.8816C1.97108 53.8816 0.5896 55.2513 0.5896 56.9408C0.5896 58.6304 1.97108 60 3.6752 60Z" fill="#CED5DD"/>
<path d="M23.3199 4.32361C23.3199 6.01296 21.9386 7.38278 20.2343 7.38278C18.53 7.38278 17.1487 6.01335 17.1487 4.32361C17.1487 2.63426 18.53 1.26442 20.2343 1.26442C21.9386 1.26442 23.3199 2.63426 23.3199 4.32361Z" fill="#CED5DD"/>
<path d="M23.3199 17.478C23.3199 19.1674 21.9386 20.5372 20.2343 20.5372C18.53 20.5372 17.1487 19.1677 17.1487 17.478C17.1487 15.7883 18.53 14.4188 20.2343 14.4188C21.9386 14.4188 23.3199 15.7883 23.3199 17.478Z" fill="#CED5DD"/>
<path d="M23.3199 30.632C23.3199 32.3214 21.9386 33.6912 20.2343 33.6912C18.53 33.6912 17.1487 32.3218 17.1487 30.632C17.1487 28.9427 18.53 27.5728 20.2343 27.5728C21.9386 27.5728 23.3199 28.9427 23.3199 30.632Z" fill="#CED5DD"/>
<path d="M23.3199 43.7864C23.3199 45.4758 21.9386 46.8456 20.2343 46.8456C18.53 46.8456 17.1487 45.4762 17.1487 43.7864C17.1487 42.0967 18.53 40.7272 20.2343 40.7272C21.9386 40.7272 23.3199 42.0967 23.3199 43.7864Z" fill="#CED5DD"/>
<path d="M23.3199 56.9408C23.3199 58.6302 21.9386 60 20.2343 60C18.53 60 17.1487 58.6306 17.1487 56.9408C17.1487 55.2511 18.53 53.8816 20.2343 53.8816C21.9386 53.8816 23.3199 55.2511 23.3199 56.9408Z" fill="#CED5DD"/>
<path d="M39.413 5.97383C40.315 4.54043 39.8742 2.65347 38.4284 1.7592C36.9826 0.864925 35.0794 1.30198 34.1774 2.73539C33.2754 4.16879 33.7162 6.05572 35.162 6.94999C36.6078 7.84427 38.511 7.40724 39.413 5.97383Z" fill="#CED5DD"/>
<path d="M39.4128 19.1284C40.3147 17.695 39.8739 15.8081 38.4282 14.9138C36.9824 14.0195 35.0791 14.4566 34.1771 15.89C33.2751 17.3234 33.716 19.2103 35.1618 20.1046C36.6075 20.9989 38.5108 20.5618 39.4128 19.1284Z" fill="#CED5DD"/>
<path d="M39.4118 32.2828C40.3138 30.8494 39.873 28.9624 38.4272 28.0682C36.9814 27.1739 35.0781 27.6109 34.1762 29.0443C33.2742 30.4778 33.715 32.3647 35.1608 33.259C36.6066 34.1532 38.5098 33.7162 39.4118 32.2828Z" fill="#CED5DD"/>
<path d="M36.7931 46.8456C38.4972 46.8456 39.8787 45.476 39.8787 43.7864C39.8787 42.0969 38.4972 40.7272 36.7931 40.7272C35.0889 40.7272 33.7075 42.0969 33.7075 43.7864C33.7075 45.476 35.0889 46.8456 36.7931 46.8456Z" fill="#CED5DD"/>
<path d="M36.7931 60C38.4972 60 39.8787 58.6304 39.8787 56.9408C39.8787 55.2513 38.4972 53.8816 36.7931 53.8816C35.0889 53.8816 33.7075 55.2513 33.7075 56.9408C33.7075 58.6304 35.0889 60 36.7931 60Z" fill="#CED5DD"/>
<path d="M56.4108 4.80998C56.6838 3.14224 55.5415 1.57084 53.8594 1.30017C52.1772 1.02951 50.5923 2.16208 50.3193 3.82982C50.0463 5.49756 51.1886 7.06892 52.8707 7.33959C54.5529 7.61025 56.1378 6.47773 56.4108 4.80998Z" fill="#CED5DD"/>
<path d="M56.4108 17.9645C56.6838 16.2967 55.5415 14.7253 53.8594 14.4547C52.1772 14.184 50.5923 15.3166 50.3193 16.9843C50.0463 18.6521 51.1886 20.2234 52.8707 20.4941C54.5529 20.7647 56.1378 19.6322 56.4108 17.9645Z" fill="#CED5DD"/>
<path d="M56.4108 31.1189C56.6838 29.4512 55.5415 27.8798 53.8594 27.6091C52.1772 27.3384 50.5923 28.471 50.3193 30.1388C50.0463 31.8065 51.1886 33.3779 52.8707 33.6485C54.5529 33.9192 56.1378 32.7867 56.4108 31.1189Z" fill="#CED5DD"/>
<path d="M53.3524 46.8456C55.0565 46.8456 56.438 45.476 56.438 43.7864C56.438 42.0969 55.0565 40.7272 53.3524 40.7272C51.6483 40.7272 50.2668 42.0969 50.2668 43.7864C50.2668 45.476 51.6483 46.8456 53.3524 46.8456Z" fill="#CED5DD"/>
<path d="M53.3524 60C55.0565 60 56.438 58.6304 56.438 56.9408C56.438 55.2513 55.0565 53.8816 53.3524 53.8816C51.6483 53.8816 50.2668 55.2513 50.2668 56.9408C50.2668 58.6304 51.6483 60 53.3524 60Z" fill="#CED5DD"/>
<path d="M72.9324 5.06469C73.324 3.42043 72.297 1.77274 70.6386 1.38449C68.9801 0.99623 67.3182 2.01443 66.9266 3.65869C66.535 5.30295 67.562 6.95064 69.2204 7.3389C70.8789 7.72715 72.5408 6.70895 72.9324 5.06469Z" fill="#CED5DD"/>
<path d="M72.9319 18.2196C73.3235 16.5753 72.2965 14.9276 70.6381 14.5394C68.9796 14.1511 67.3177 15.1693 66.9261 16.8136C66.5345 18.4579 67.5615 20.1055 69.2199 20.4938C70.8784 20.8821 72.5403 19.8639 72.9319 18.2196Z" fill="#CED5DD"/>
<path d="M72.9309 31.3744C73.3225 29.7302 72.2956 28.0825 70.6371 27.6942C68.9787 27.306 67.3167 28.3242 66.9251 29.9684C66.5335 31.6127 67.5605 33.2604 69.219 33.6486C70.8774 34.0369 72.5393 33.0187 72.9309 31.3744Z" fill="#CED5DD"/>
<path d="M69.9115 46.8456C71.6157 46.8456 72.9971 45.476 72.9971 43.7864C72.9971 42.0969 71.6157 40.7272 69.9115 40.7272C68.2074 40.7272 66.8259 42.0969 66.8259 43.7864C66.8259 45.476 68.2074 46.8456 69.9115 46.8456Z" fill="#CED5DD"/>
<path d="M69.9115 60C71.6157 60 72.9971 58.6304 72.9971 56.9408C72.9971 55.2513 71.6157 53.8816 69.9115 53.8816C68.2074 53.8816 66.8259 55.2513 66.8259 56.9408C66.8259 58.6304 68.2074 60 69.9115 60Z" fill="#CED5DD"/>
<path d="M88.647 6.48945C89.852 5.29477 89.852 3.35783 88.647 2.16315C87.4421 0.968482 85.4884 0.968482 84.2834 2.16315C83.0784 3.35783 83.0784 5.29479 84.2834 6.48946C85.4884 7.68414 87.442 7.68412 88.647 6.48945Z" fill="#CED5DD"/>
<path d="M88.647 19.6437C89.852 18.449 89.852 16.5121 88.647 15.3174C87.4421 14.1227 85.4884 14.1227 84.2834 15.3174C83.0784 16.5121 83.0784 18.449 84.2834 19.6437C85.4884 20.8384 87.442 20.8384 88.647 19.6437Z" fill="#CED5DD"/>
<path d="M88.6465 32.7977C89.8515 31.603 89.8515 29.6661 88.6466 28.4714C87.4416 27.2767 85.4879 27.2767 84.2829 28.4714C83.0779 29.6661 83.0779 31.603 84.2829 32.7977C85.4879 33.9924 87.4416 33.9924 88.6465 32.7977Z" fill="#CED5DD"/>
<path d="M86.4709 46.8456C88.175 46.8456 89.5565 45.476 89.5565 43.7864C89.5565 42.0969 88.175 40.7272 86.4709 40.7272C84.7667 40.7272 83.3853 42.0969 83.3853 43.7864C83.3853 45.476 84.7667 46.8456 86.4709 46.8456Z" fill="#CED5DD"/>
<path d="M86.4709 60C88.175 60 89.5565 58.6304 89.5565 56.9408C89.5565 55.2513 88.175 53.8816 86.4709 53.8816C84.7667 53.8816 83.3853 55.2513 83.3853 56.9408C83.3853 58.6304 84.7667 60 86.4709 60Z" fill="#CED5DD"/>
<path d="M106.089 4.80905C106.362 3.14131 105.22 1.56991 103.538 1.29924C101.855 1.02858 100.27 2.16115 99.9975 3.82889C99.7245 5.49663 100.867 7.06804 102.549 7.3387C104.231 7.60936 105.816 6.47679 106.089 4.80905Z" fill="#CED5DD"/>
<path d="M106.089 17.9635C106.362 16.2958 105.22 14.7244 103.538 14.4537C101.855 14.183 100.27 15.3156 99.9975 16.9834C99.7245 18.6511 100.867 20.2225 102.549 20.4932C104.231 20.7638 105.816 19.6313 106.089 17.9635Z" fill="#CED5DD"/>
<path d="M106.089 31.118C106.362 29.4503 105.22 27.8789 103.538 27.6082C101.855 27.3376 100.27 28.4701 99.9975 30.1379C99.7245 31.8056 100.867 33.377 102.549 33.6477C104.231 33.9183 105.816 32.7858 106.089 31.118Z" fill="#CED5DD"/>
<path d="M103.03 46.8456C104.734 46.8456 106.115 45.476 106.115 43.7864C106.115 42.0969 104.734 40.7272 103.03 40.7272C101.326 40.7272 99.9441 42.0969 99.9441 43.7864C99.9441 45.476 101.326 46.8456 103.03 46.8456Z" fill="#CED5DD"/>
<path d="M103.03 60C104.734 60 106.115 58.6304 106.115 56.9408C106.115 55.2513 104.734 53.8816 103.03 53.8816C101.326 53.8816 99.9441 55.2513 99.9441 56.9408C99.9441 58.6304 101.326 60 103.03 60Z" fill="#CED5DD"/>
<path d="M122.612 5.06718C123.003 3.42292 121.976 1.77523 120.318 1.38697C118.659 0.998717 116.997 2.01692 116.606 3.66118C116.214 5.30544 117.241 6.95308 118.9 7.34134C120.558 7.72959 122.22 6.71143 122.612 5.06718Z" fill="#CED5DD"/>
<path d="M122.611 18.2221C123.003 16.5778 121.976 14.9302 120.317 14.5419C118.659 14.1536 116.997 15.1718 116.605 16.8161C116.214 18.4604 117.241 20.108 118.899 20.4963C120.558 20.8845 122.219 19.8664 122.611 18.2221Z" fill="#CED5DD"/>
<path d="M122.61 31.3769C123.002 29.7326 121.975 28.0849 120.317 27.6967C118.658 27.3084 116.996 28.3266 116.605 29.9709C116.213 31.6151 117.24 33.2628 118.898 33.651C120.557 34.0393 122.219 33.0211 122.61 31.3769Z" fill="#CED5DD"/>
<path d="M119.589 46.8456C121.293 46.8456 122.674 45.476 122.674 43.7864C122.674 42.0969 121.293 40.7272 119.589 40.7272C117.885 40.7272 116.503 42.0969 116.503 43.7864C116.503 45.476 117.885 46.8456 119.589 46.8456Z" fill="#CED5DD"/>
<path d="M119.589 60C121.293 60 122.674 58.6304 122.674 56.9408C122.674 55.2513 121.293 53.8816 119.589 53.8816C117.885 53.8816 116.503 55.2513 116.503 56.9408C116.503 58.6304 117.885 60 119.589 60Z" fill="#CED5DD"/>
<path d="M138.324 6.4898C139.529 5.29512 139.529 3.35821 138.324 2.16354C137.119 0.968866 135.165 0.968833 133.96 2.16351C132.755 3.35818 132.755 5.29514 133.96 6.48981C135.165 7.68449 137.119 7.68447 138.324 6.4898Z" fill="#CED5DD"/>
<path d="M138.324 19.6441C139.529 18.4495 139.529 16.5125 138.324 15.3179C137.119 14.1232 135.165 14.1232 133.96 15.3178C132.755 16.5125 132.755 18.4495 133.96 19.6441C135.165 20.8388 137.119 20.8388 138.324 19.6441Z" fill="#CED5DD"/>
<path d="M138.323 32.7981C139.528 31.6034 139.528 29.6665 138.323 28.4718C137.118 27.2772 135.165 27.2771 133.96 28.4718C132.755 29.6665 132.755 31.6034 133.96 32.7981C135.165 33.9928 137.118 33.9928 138.323 32.7981Z" fill="#CED5DD"/>
<path d="M136.148 46.8456C137.852 46.8456 139.233 45.476 139.233 43.7864C139.233 42.0969 137.852 40.7272 136.148 40.7272C134.443 40.7272 133.062 42.0969 133.062 43.7864C133.062 45.476 134.443 46.8456 136.148 46.8456Z" fill="#CED5DD"/>
<path d="M136.148 60C137.852 60 139.233 58.6304 139.233 56.9408C139.233 55.2513 137.852 53.8816 136.148 53.8816C134.443 53.8816 133.062 55.2513 133.062 56.9408C133.062 58.6304 134.443 60 136.148 60Z" fill="#CED5DD"/>
<path d="M155.767 4.80849C156.04 3.14074 154.898 1.56939 153.216 1.29873C151.533 1.02806 149.948 2.16058 149.675 3.82832C149.402 5.49607 150.545 7.06747 152.227 7.33814C153.909 7.6088 155.494 6.47623 155.767 4.80849Z" fill="#CED5DD"/>
<path d="M155.767 17.963C156.04 16.2952 154.898 14.7239 153.216 14.4532C151.534 14.1825 149.949 15.3151 149.676 16.9828C149.403 18.6505 150.545 20.222 152.227 20.4926C153.909 20.7633 155.494 19.6307 155.767 17.963Z" fill="#CED5DD"/>
<path d="M155.767 31.1174C156.04 29.4497 154.898 27.8783 153.216 27.6077C151.534 27.337 149.949 28.4695 149.676 30.1373C149.403 31.805 150.545 33.3764 152.227 33.6471C153.909 33.9178 155.494 32.7852 155.767 31.1174Z" fill="#CED5DD"/>
<path d="M152.707 46.8456C154.411 46.8456 155.792 45.476 155.792 43.7864C155.792 42.0969 154.411 40.7272 152.707 40.7272C151.003 40.7272 149.621 42.0969 149.621 43.7864C149.621 45.476 151.003 46.8456 152.707 46.8456Z" fill="#CED5DD"/>
<path d="M152.707 60C154.411 60 155.792 58.6304 155.792 56.9408C155.792 55.2513 154.411 53.8816 152.707 53.8816C151.003 53.8816 149.621 55.2513 149.621 56.9408C149.621 58.6304 151.003 60 152.707 60Z" fill="#CED5DD"/>
<path d="M172.291 5.06965C172.683 3.42539 171.656 1.7777 169.997 1.38945C168.339 1.00119 166.677 2.01939 166.285 3.66365C165.894 5.30791 166.921 6.9556 168.579 7.34386C170.238 7.73211 171.899 6.71391 172.291 5.06965Z" fill="#CED5DD"/>
<path d="M172.291 18.2246C172.682 16.5803 171.655 14.9326 169.997 14.5444C168.338 14.1561 166.676 15.1743 166.285 16.8186C165.893 18.4628 166.92 20.1105 168.579 20.4988C170.237 20.887 171.899 19.8688 172.291 18.2246Z" fill="#CED5DD"/>
<path d="M172.29 31.3794C172.681 29.7351 171.654 28.0874 169.996 27.6992C168.337 27.3109 166.675 28.3291 166.284 29.9734C165.892 31.6176 166.919 33.2653 168.578 33.6536C170.236 34.0419 171.898 33.0236 172.29 31.3794Z" fill="#CED5DD"/>
<path d="M169.266 46.8456C170.97 46.8456 172.351 45.476 172.351 43.7864C172.351 42.0969 170.97 40.7272 169.266 40.7272C167.561 40.7272 166.18 42.0969 166.18 43.7864C166.18 45.476 167.561 46.8456 169.266 46.8456Z" fill="#CED5DD"/>
<path d="M169.266 60C170.97 60 172.351 58.6304 172.351 56.9408C172.351 55.2513 170.97 53.8816 169.266 53.8816C167.561 53.8816 166.18 55.2513 166.18 56.9408C166.18 58.6304 167.561 60 169.266 60Z" fill="#CED5DD"/>
</svg>
