<svg width="64" height="64" viewBox="0 0 64 64" fill="none" xmlns="http://www.w3.org/2000/svg">
<rect width="64" height="64" rx="16" fill="#0866FF"/>
<path d="M28.9397 33.6531C28.8392 33.6531 26.7314 33.6538 25.7592 33.6528C25.2588 33.6525 25.0802 33.4727 25.0802 32.969C25.0796 31.6752 25.0792 30.3815 25.0802 29.0877C25.0805 28.5904 25.2693 28.4007 25.7634 28.4003C26.7356 28.3997 28.8319 28.4 28.9397 28.4C28.9397 28.3114 28.9394 26.4435 28.9397 25.5834C28.9404 24.3117 29.1672 23.0944 29.8133 21.9799C30.4748 20.8391 31.4373 20.0576 32.6709 19.6058C33.461 19.3162 34.2812 19.2007 35.1196 19.2C36.1685 19.1994 37.2175 19.2003 38.2668 19.2023C38.7176 19.2029 38.9176 19.4023 38.9186 19.8563C38.9205 21.0733 38.9205 22.2903 38.9186 23.5069C38.918 23.9658 38.7263 24.1501 38.2652 24.1552C37.4053 24.1645 36.5448 24.1587 35.686 24.1933C34.8184 24.1933 34.3621 24.617 34.3621 25.5149C34.3413 26.4647 34.3535 27.4154 34.3535 28.3997C34.4348 28.3997 36.9036 28.3994 38.0575 28.3997C38.5816 28.3997 38.7608 28.5799 38.7608 29.1069C38.7608 30.3936 38.7605 31.6807 38.7596 32.9674C38.7592 33.4867 38.5909 33.6525 38.0636 33.6528C36.9096 33.6535 34.4504 33.6531 34.3429 33.6531V44.0675C34.3429 44.6227 34.1682 44.7997 33.6204 44.7997C32.2847 44.7997 30.9487 44.8 29.613 44.7997C29.1288 44.7997 28.94 44.6115 28.94 44.1274C28.9397 40.7357 28.9397 33.7722 28.9397 33.6531Z" fill="white"/>
</svg>
