<svg width="64" height="64" viewBox="0 0 64 64" fill="none" xmlns="http://www.w3.org/2000/svg">
<rect width="64" height="64" rx="16" fill="url(#paint0_linear_549_492)"/>
<path d="M44.9339 26.6441C44.873 25.2626 44.6496 24.3129 44.3295 23.4899C43.9993 22.6163 43.4912 21.8342 42.8257 21.184C42.1754 20.5237 41.388 20.0107 40.5244 19.6857C39.6965 19.3657 38.7515 19.1423 37.3697 19.0813C35.9777 19.0153 35.5357 19 32.0051 19C28.4744 19 28.0325 19.0153 26.6456 19.0762C25.2638 19.1371 24.3139 19.3607 23.4909 19.6805C22.617 20.0107 21.8347 20.5186 21.1844 21.184C20.524 21.8342 20.0111 22.6215 19.6858 23.4849C19.3657 24.3129 19.1423 25.2575 19.0814 26.6389C19.0153 28.0307 19 28.4726 19 32.0026C19 35.5326 19.0153 35.9744 19.0762 37.3611C19.1371 38.7425 19.3608 39.6923 19.6809 40.5153C20.0111 41.3889 20.524 42.171 21.1844 42.8211C21.8347 43.4814 22.6222 43.9945 23.4858 44.3195C24.3139 44.6395 25.2586 44.8629 26.6406 44.9238C28.0273 44.9849 28.4694 45 32.0001 45C35.5308 45 35.9727 44.9849 37.3596 44.9238C38.7414 44.8629 39.6913 44.6395 40.5142 44.3195C42.2619 43.6439 43.6437 42.2624 44.3193 40.5153C44.6392 39.6873 44.8629 38.7425 44.9238 37.3611C44.9847 35.9744 45 35.5326 45 32.0026C45 28.4726 44.9948 28.0307 44.9339 26.6441ZM42.5921 37.2595C42.5361 38.5293 42.3228 39.2149 42.145 39.6721C41.7081 40.8048 40.8089 41.7037 39.676 42.1406C39.2188 42.3184 38.528 42.5317 37.263 42.5874C35.8913 42.6485 35.48 42.6636 32.0102 42.6636C28.5405 42.6636 28.1239 42.6485 26.7573 42.5874C25.4873 42.5317 24.8014 42.3184 24.3442 42.1406C23.7805 41.9323 23.2673 41.6021 22.8508 41.1704C22.4189 40.7488 22.0887 40.2409 21.8804 39.6772C21.7026 39.2201 21.4892 38.5293 21.4335 37.2646C21.3724 35.8933 21.3573 35.4818 21.3573 32.0127C21.3573 28.5436 21.3724 28.1272 21.4335 26.761C21.4892 25.4912 21.7026 24.8055 21.8804 24.3484C22.0887 23.7845 22.4189 23.2716 22.8559 22.855C23.2774 22.4233 23.7854 22.0931 24.3494 21.885C24.8066 21.7072 25.4976 21.4939 26.7624 21.438C28.1341 21.3771 28.5456 21.3618 32.0152 21.3618C35.4901 21.3618 35.9015 21.3771 37.2681 21.438C38.5382 21.4939 39.224 21.7072 39.6812 21.885C40.2449 22.0931 40.7581 22.4233 41.1746 22.855C41.6065 23.2766 41.9367 23.7845 42.145 24.3484C42.3228 24.8055 42.5361 25.4961 42.5921 26.761C42.653 28.1323 42.6683 28.5436 42.6683 32.0127C42.6683 35.4818 42.653 35.8881 42.5921 37.2595Z" fill="white"/>
<path d="M32 25C28.1355 25 25 28.1353 25 32C25 35.8647 28.1355 39 32 39C35.8647 39 39 35.8647 39 32C39 28.1353 35.8647 25 32 25ZM32 36.5407C29.4929 36.5407 27.4593 34.5073 27.4593 32C27.4593 29.4927 29.4929 27.4593 32 27.4593C34.5073 27.4593 36.5407 29.4927 36.5407 32C36.5407 34.5073 34.5073 36.5407 32 36.5407Z" fill="white"/>
<path d="M41 25C41 26.1045 40.1045 27 38.9999 27C37.8955 27 37 26.1045 37 25C37 23.8953 37.8955 23 38.9999 23C40.1045 23 41 23.8953 41 25Z" fill="white"/>
<defs>
<linearGradient id="paint0_linear_549_492" x1="9.37263" y1="9.37263" x2="54.6274" y2="54.6274" gradientUnits="userSpaceOnUse">
<stop stop-color="#FAE100"/>
<stop offset="0.15" stop-color="#FCB720"/>
<stop offset="0.3" stop-color="#FF7950"/>
<stop offset="0.5" stop-color="#FF1C74"/>
<stop offset="1" stop-color="#6C1CD1"/>
</linearGradient>
</defs>
</svg>
