<svg width="64" height="64" viewBox="0 0 64 64" fill="none" xmlns="http://www.w3.org/2000/svg">
<rect width="64" height="64" rx="16" fill="#0B69C7"/>
<path d="M21.5204 18C19.3917 18 18 19.5125 18 21.5004C18 23.4444 19.3503 25 21.4387 25H21.4791C23.6494 25 25 23.4444 25 21.5004C24.9594 19.5125 23.6494 18 21.5204 18Z" fill="white"/>
<path d="M19 27H25V45H19V27Z" fill="white"/>
<path d="M39.2113 27C36.0301 27 33.897 29.9633 33.897 29.9633V27.4128H28V45H33.8967V35.1786C33.8967 34.6528 33.9351 34.1279 34.0909 33.7519C34.5172 32.702 35.4873 31.6143 37.1164 31.6143C39.2502 31.6143 40.1036 33.2271 40.1036 35.5914V45H46V34.9158C46 29.5138 43.0907 27 39.2113 27Z" fill="white"/>
</svg>
