<svg width="64" height="64" viewBox="0 0 64 64" fill="none" xmlns="http://www.w3.org/2000/svg">
<rect width="64" height="64" rx="16" fill="#0D0D0D"/>
<path d="M42.9883 25.7489C41.557 25.7489 40.2363 25.2747 39.1758 24.4748C37.9595 23.5578 37.0856 22.2127 36.777 20.6623C36.7006 20.2792 36.6594 19.8839 36.6555 19.4788H32.5667V30.6514L32.5618 36.7711C32.5618 38.4072 31.4964 39.7944 30.0195 40.2823C29.5909 40.4239 29.128 40.491 28.646 40.4645C28.0307 40.4307 27.4542 40.2451 26.953 39.9453C25.8866 39.3075 25.1636 38.1505 25.144 36.8269C25.1132 34.7583 26.7855 33.0717 28.8527 33.0717C29.2607 33.0717 29.6526 33.1383 30.0195 33.2593V30.2056V29.1078C29.6325 29.0505 29.2387 29.0206 28.8404 29.0206C26.5778 29.0206 24.4617 29.9612 22.949 31.6555C21.8057 32.936 21.1199 34.5697 21.0141 36.2827C20.8754 38.5331 21.6989 40.6722 23.2958 42.2505C23.5304 42.4822 23.7768 42.6973 24.0345 42.8957C25.4036 43.9493 27.0775 44.5205 28.8404 44.5205C29.2387 44.5205 29.6325 44.4911 30.0195 44.4338C31.6664 44.1899 33.1859 43.436 34.3851 42.2505C35.8585 40.7942 36.6727 38.8608 36.6815 36.8029L36.6604 27.6642C37.3634 28.2065 38.1319 28.6552 38.9568 29.0035C40.2398 29.5448 41.6001 29.8191 43.0001 29.8186V26.8496V25.7479C43.0011 25.7489 42.9893 25.7489 42.9883 25.7489Z" fill="white"/>
</svg>
