<svg width="24" height="25" viewBox="0 0 24 25" fill="none" xmlns="http://www.w3.org/2000/svg">
<g clip-path="url(#clip0_540_212)">
<path d="M20 11.5V19.5C20 22.257 17.757 24.5 15 24.5H5C2.243 24.5 0 22.257 0 19.5V9.5C0 6.743 2.243 4.5 5 4.5H13C13.552 4.5 14 4.948 14 5.5C14 6.052 13.552 6.5 13 6.5H5C3.346 6.5 2 7.846 2 9.5V19.5C2 21.154 3.346 22.5 5 22.5H15C16.654 22.5 18 21.154 18 19.5V11.5C18 10.948 18.448 10.5 19 10.5C19.552 10.5 20 10.948 20 11.5ZM21 0.5H14C13.448 0.5 13 0.948 13 1.5C13 2.052 13.448 2.5 14 2.5H20.586L8.293 14.793C7.902 15.184 7.902 15.816 8.293 16.207C8.488 16.402 8.744 16.5 9 16.5C9.256 16.5 9.512 16.402 9.707 16.207L22 3.914V10.5C22 11.052 22.448 11.5 23 11.5C23.552 11.5 24 11.052 24 10.5V3.5C24 1.846 22.654 0.5 21 0.5Z" fill="url(#paint0_linear_540_212)"/>
</g>
<defs>
<linearGradient id="paint0_linear_540_212" x1="24" y1="0.5" x2="0" y2="0.5" gradientUnits="userSpaceOnUse">
<stop stop-color="#FF8911"/>
<stop offset="1" stop-color="#F83600"/>
</linearGradient>
<clipPath id="clip0_540_212">
<rect width="24" height="24" fill="white" transform="translate(0 0.5)"/>
</clipPath>
</defs>
</svg>
