<svg width="177" height="97" viewBox="0 0 177 97" fill="none" xmlns="http://www.w3.org/2000/svg">
<path d="M0.000213623 80.3331L160.283 80.3331L160.283 4.57764e-05L0.0002066 5.97888e-05L0.000213623 80.3331Z" fill="#FDD600"/>
<path d="M169.898 87.975C167.926 88.7919 166.989 91.0526 167.806 93.0246C168.623 94.9966 170.884 95.933 172.856 95.1161C174.828 94.2993 175.764 92.0386 174.947 90.0666C174.13 88.0946 171.87 87.1582 169.898 87.975Z" fill="#0C2D57"/>
<path d="M167.566 74.3059C167.224 76.4128 168.655 78.3979 170.762 78.7399C172.869 79.0818 174.854 77.651 175.196 75.5442C175.538 73.4373 174.107 71.4522 172 71.1103C169.893 70.7683 167.908 72.1991 167.566 74.3059Z" fill="#0C2D57"/>
<path d="M171.402 54.4387C169.268 54.4387 167.537 56.169 167.537 58.3034C167.537 60.4378 169.268 62.168 171.402 62.168C173.536 62.168 175.267 60.4378 175.267 58.3034C175.267 56.169 173.536 54.4387 171.402 54.4387Z" fill="#0C2D57"/>
<path d="M169.897 38.1219C167.925 38.9388 166.989 41.1995 167.806 43.1715C168.623 45.1435 170.883 46.0799 172.855 45.263C174.827 44.4462 175.764 42.1855 174.947 40.2135C174.13 38.2415 171.869 37.3051 169.897 38.1219Z" fill="#0C2D57"/>
<path d="M167.566 24.4528C167.224 26.5597 168.655 28.5448 170.761 28.8867C172.868 29.2287 174.853 27.7979 175.195 25.6911C175.537 23.5842 174.107 21.5991 172 21.2571C169.893 20.9152 167.908 22.346 167.566 24.4528Z" fill="#0C2D57"/>
<path d="M147.938 88.8019C146.428 90.3111 146.428 92.758 147.938 94.2673C149.447 95.7765 151.894 95.7765 153.403 94.2673C154.912 92.758 154.912 90.3111 153.403 88.8019C151.894 87.2927 149.447 87.2927 147.938 88.8019Z" fill="#0C2D57"/>
<path d="M146.878 73.97C146.388 76.0472 147.674 78.1287 149.751 78.6191C151.828 79.1096 153.91 77.8233 154.4 75.7462C154.891 73.669 153.605 71.5875 151.527 71.097C149.45 70.6065 147.369 71.8928 146.878 73.97Z" fill="#0C2D57"/>
<path d="M150.662 54.4387C148.528 54.4387 146.798 56.169 146.798 58.3034C146.798 60.4378 148.528 62.168 150.662 62.168C152.797 62.168 154.527 60.4378 154.527 58.3034C154.527 56.169 152.797 54.4387 150.662 54.4387Z" fill="#0C2D57"/>
<path d="M147.938 38.9502C146.429 40.4594 146.429 42.9063 147.938 44.4156C149.447 45.9248 151.894 45.9248 153.404 44.4156C154.913 42.9063 154.913 40.4594 153.404 38.9502C151.894 37.441 149.447 37.441 147.938 38.9502Z" fill="#0C2D57"/>
<path d="M146.881 24.1154C146.39 26.1926 147.677 28.2741 149.754 28.7646C151.831 29.2551 153.912 27.9688 154.403 25.8916C154.893 23.8144 153.607 21.7329 151.53 21.2424C149.453 20.7519 147.371 22.0382 146.881 24.1154Z" fill="#0C2D57"/>
<path d="M127.198 88.8017C125.689 90.3109 125.689 92.7579 127.198 94.2671C128.707 95.7763 131.154 95.7763 132.663 94.2671C134.173 92.7579 134.173 90.3109 132.663 88.8017C131.154 87.2925 128.707 87.2925 127.198 88.8017Z" fill="#0C2D57"/>
<path d="M126.138 73.9689C125.648 76.0461 126.934 78.1276 129.011 78.6181C131.088 79.1085 133.17 77.8223 133.66 75.7451C134.151 73.6679 132.864 71.5864 130.787 71.0959C128.71 70.6054 126.629 71.8917 126.138 73.9689Z" fill="#0C2D57"/>
<path d="M129.922 54.4387C127.788 54.4387 126.057 56.169 126.057 58.3034C126.057 60.4378 127.788 62.168 129.922 62.168C132.056 62.168 133.787 60.4378 133.787 58.3034C133.787 56.169 132.056 54.4387 129.922 54.4387Z" fill="#0C2D57"/>
<path d="M127.199 38.95C125.69 40.4592 125.69 42.9061 127.199 44.4154C128.708 45.9246 131.155 45.9246 132.664 44.4154C134.174 42.9061 134.174 40.4592 132.664 38.95C131.155 37.4407 128.708 37.4407 127.199 38.95Z" fill="#0C2D57"/>
<path d="M126.141 24.1144C125.65 26.1916 126.936 28.2731 129.014 28.7636C131.091 29.2541 133.172 27.9678 133.663 25.8906C134.153 23.8134 132.867 21.7319 130.79 21.2414C128.713 20.751 126.631 22.0372 126.141 24.1144Z" fill="#0C2D57"/>
<path d="M106.459 88.8017C104.949 90.3109 104.949 92.7578 106.459 94.267C107.968 95.7763 110.415 95.7763 111.924 94.267C113.433 92.7578 113.433 90.3109 111.924 88.8017C110.415 87.2924 107.968 87.2924 106.459 88.8017Z" fill="#0C2D57"/>
<path d="M105.396 73.9679C104.906 76.0451 106.192 78.1266 108.269 78.6171C110.347 79.1076 112.428 77.8213 112.919 75.7441C113.409 73.667 112.123 71.5854 110.046 71.095C107.968 70.6045 105.887 71.8908 105.396 73.9679Z" fill="#0C2D57"/>
<path d="M109.183 54.4387C107.048 54.4387 105.318 56.169 105.318 58.3034C105.318 60.4378 107.048 62.168 109.183 62.168C111.317 62.168 113.047 60.4378 113.047 58.3034C113.047 56.169 111.317 54.4387 109.183 54.4387Z" fill="#0C2D57"/>
<path d="M106.46 38.9499C104.951 40.4591 104.951 42.9061 106.46 44.4153C107.969 45.9245 110.416 45.9245 111.926 44.4153C113.435 42.9061 113.435 40.4591 111.926 38.9499C110.416 37.4407 107.969 37.4407 106.46 38.9499Z" fill="#0C2D57"/>
<path d="M105.4 24.1134C104.909 26.1905 106.196 28.272 108.273 28.7625C110.35 29.253 112.431 27.9667 112.922 25.8895C113.412 23.8124 112.126 21.7308 110.049 21.2404C107.972 20.7499 105.89 22.0362 105.4 24.1134Z" fill="#0C2D57"/>
<path d="M85.7199 88.8015C84.2107 90.3108 84.2107 92.7577 85.7199 94.2669C87.2291 95.7761 89.676 95.7761 91.1853 94.2669C92.6945 92.7577 92.6945 90.3108 91.1853 88.8015C89.676 87.2923 87.2291 87.2923 85.7199 88.8015Z" fill="#0C2D57"/>
<path d="M84.6576 73.9669C84.1671 76.0441 85.4534 78.1256 87.5306 78.6161C89.6078 79.1066 91.6893 77.8203 92.1798 75.7431C92.6703 73.6659 91.384 71.5844 89.3068 71.0939C87.2296 70.6034 85.1481 71.8897 84.6576 73.9669Z" fill="#0C2D57"/>
<path d="M88.443 54.4387C86.3086 54.4387 84.5783 56.169 84.5783 58.3034C84.5783 60.4378 86.3086 62.168 88.443 62.168C90.5774 62.168 92.3076 60.4378 92.3076 58.3034C92.3076 56.169 90.5774 54.4387 88.443 54.4387Z" fill="#0C2D57"/>
<path d="M85.7199 38.9497C84.2107 40.459 84.2107 42.9059 85.7199 44.4151C87.2291 45.9244 89.676 45.9244 91.1853 44.4151C92.6945 42.9059 92.6945 40.459 91.1853 38.9497C89.676 37.4405 87.2291 37.4405 85.7199 38.9497Z" fill="#0C2D57"/>
<path d="M84.6596 24.1124C84.1691 26.1896 85.4554 28.2711 87.5325 28.7616C89.6097 29.2521 91.6912 27.9658 92.1817 25.8886C92.6722 23.8114 91.3859 21.7299 89.3087 21.2394C87.2316 20.7489 85.15 22.0352 84.6596 24.1124Z" fill="#0C2D57"/>
<path d="M64.9806 88.8015C63.4714 90.3108 63.4714 92.7577 64.9806 94.2669C66.4898 95.7762 68.9368 95.7762 70.446 94.2669C71.9552 92.7577 71.9552 90.3108 70.446 88.8015C68.9368 87.2923 66.4898 87.2923 64.9806 88.8015Z" fill="#0C2D57"/>
<path d="M63.9169 73.966C63.4264 76.0432 64.7127 78.1247 66.7899 78.6152C68.8671 79.1056 70.9486 77.8194 71.4391 75.7422C71.9295 73.665 70.6433 71.5835 68.5661 71.093C66.4889 70.6025 64.4074 71.8888 63.9169 73.966Z" fill="#0C2D57"/>
<path d="M67.7042 54.4389C65.5698 54.4389 63.8395 56.1691 63.8395 58.3035C63.8395 60.4379 65.5698 62.1682 67.7042 62.1682C69.8386 62.1682 71.5688 60.4379 71.5688 58.3035C71.5688 56.1691 69.8386 54.4389 67.7042 54.4389Z" fill="#0C2D57"/>
<path d="M64.9816 38.9498C63.4724 40.4591 63.4724 42.906 64.9816 44.4152C66.4908 45.9244 68.9378 45.9244 70.447 44.4152C71.9562 42.906 71.9562 40.4591 70.447 38.9498C68.9378 37.4406 66.4908 37.4406 64.9816 38.9498Z" fill="#0C2D57"/>
<path d="M63.9193 24.1117C63.4288 26.1889 64.7151 28.2704 66.7923 28.7609C68.8695 29.2514 70.951 27.9651 71.4415 25.8879C71.932 23.8108 70.6457 21.7292 68.5685 21.2388C66.4913 20.7483 64.4098 22.0346 63.9193 24.1117Z" fill="#0C2D57"/>
<path d="M44.2414 88.8014C42.7321 90.3106 42.7321 92.7576 44.2414 94.2668C45.7506 95.776 48.1975 95.776 49.7068 94.2668C51.216 92.7576 51.216 90.3106 49.7068 88.8014C48.1975 87.2922 45.7506 87.2922 44.2414 88.8014Z" fill="#0C2D57"/>
<path d="M43.1757 73.9651C42.6852 76.0422 43.9715 78.1237 46.0487 78.6142C48.1258 79.1047 50.2074 77.8184 50.6978 75.7412C51.1883 73.6641 49.902 71.5825 47.8249 71.0921C45.7477 70.6016 43.6662 71.8879 43.1757 73.9651Z" fill="#0C2D57"/>
<path d="M46.9644 54.4389C44.8301 54.4389 43.0998 56.1691 43.0998 58.3035C43.0998 60.4379 44.8301 62.1682 46.9644 62.1682C49.0988 62.1682 50.8291 60.4379 50.8291 58.3035C50.8291 56.1691 49.0988 54.4389 46.9644 54.4389Z" fill="#0C2D57"/>
<path d="M44.2419 38.9498C42.7326 40.459 42.7326 42.906 44.2419 44.4152C45.7511 45.9244 48.198 45.9244 49.7072 44.4152C51.2165 42.906 51.2165 40.459 49.7072 38.9498C48.198 37.4406 45.7511 37.4406 44.2419 38.9498Z" fill="#0C2D57"/>
<path d="M43.1796 24.1107C42.6891 26.1879 43.9754 28.2694 46.0526 28.7599C48.1298 29.2504 50.2113 27.9641 50.7017 25.8869C51.1922 23.8097 49.9059 21.7282 47.8288 21.2378C45.7516 20.7473 43.6701 22.0336 43.1796 24.1107Z" fill="#0C2D57"/>
<path d="M23.5016 88.801C21.9924 90.3102 21.9924 92.7571 23.5016 94.2664C25.0108 95.7756 27.4578 95.7756 28.967 94.2664C30.4762 92.7571 30.4762 90.3102 28.967 88.801C27.4578 87.2918 25.0108 87.2918 23.5016 88.801Z" fill="#0C2D57"/>
<path d="M22.4359 73.9637C21.9454 76.0409 23.2317 78.1224 25.3089 78.6129C27.3861 79.1034 29.4676 77.8171 29.9581 75.7399C30.4486 73.6627 29.1623 71.5812 27.0851 71.0907C25.0079 70.6003 22.9264 71.8865 22.4359 73.9637Z" fill="#0C2D57"/>
<path d="M26.2252 54.4389C24.0908 54.4389 22.3605 56.1691 22.3605 58.3035C22.3605 60.4379 24.0908 62.1682 26.2252 62.1682C28.3596 62.1682 30.0898 60.4379 30.0898 58.3035C30.0898 56.1691 28.3596 54.4389 26.2252 54.4389Z" fill="#0C2D57"/>
<path d="M23.5026 38.9494C21.9934 40.4586 21.9934 42.9055 23.5026 44.4148C25.0118 45.924 27.4588 45.924 28.968 44.4147C30.4772 42.9055 30.4772 40.4586 28.968 38.9494C27.4588 37.4401 25.0118 37.4401 23.5026 38.9494Z" fill="#0C2D57"/>
<path d="M22.4384 24.1093C21.9479 26.1865 23.2342 28.268 25.3114 28.7585C27.3885 29.249 29.4701 27.9627 29.9605 25.8855C30.451 23.8083 29.1647 21.7268 27.0876 21.2363C25.0104 20.7459 22.9289 22.0321 22.4384 24.1093Z" fill="#0C2D57"/>
</svg>
