<svg width="48" height="195" viewBox="0 0 48 195" fill="none" xmlns="http://www.w3.org/2000/svg">
<path d="M48 4.66212L39.9245 -3.52989e-07L39.9245 9.3247L48 4.66212Z" fill="#CED5DD"/>
<path d="M48 25.2462L39.9245 20.584L39.9245 29.9083L48 25.2462Z" fill="#CED5DD"/>
<path d="M48 45.8297L39.9245 41.1676L39.9245 50.4923L48 45.8297Z" fill="#CED5DD"/>
<path d="M48 66.4138L39.9245 61.7513L39.9245 71.076L48 66.4138Z" fill="#CED5DD"/>
<path d="M48 86.9975L39.9245 82.3353L39.9245 91.6596L48 86.9975Z" fill="#CED5DD"/>
<path d="M48 107.581L39.9245 102.919L39.9245 112.244L48 107.581Z" fill="#CED5DD"/>
<path d="M48 128.165L39.9245 123.503L39.9245 132.827L48 128.165Z" fill="#CED5DD"/>
<path d="M48 148.749L39.9245 144.087L39.9245 153.411L48 148.749Z" fill="#CED5DD"/>
<path d="M48 169.333L39.9245 164.67L39.9245 173.995L48 169.333Z" fill="#CED5DD"/>
<path d="M48 189.916L39.9245 185.254L39.9245 194.579L48 189.916Z" fill="#CED5DD"/>
<path d="M34.6919 4.66212L26.6165 -3.52987e-07L26.6165 9.3247L34.6919 4.66212Z" fill="#CED5DD"/>
<path d="M34.6919 25.2462L26.6165 20.584L26.6165 29.9083L34.6919 25.2462Z" fill="#CED5DD"/>
<path d="M34.6919 45.8297L26.6165 41.1676L26.6165 50.4923L34.6919 45.8297Z" fill="#CED5DD"/>
<path d="M34.6919 66.4138L26.6165 61.7513L26.6165 71.076L34.6919 66.4138Z" fill="#CED5DD"/>
<path d="M34.6919 86.9975L26.6165 82.3352L26.6165 91.6596L34.6919 86.9975Z" fill="#CED5DD"/>
<path d="M34.6919 107.581L26.6165 102.919L26.6165 112.244L34.6919 107.581Z" fill="#CED5DD"/>
<path d="M34.6919 128.165L26.6165 123.503L26.6165 132.827L34.6919 128.165Z" fill="#CED5DD"/>
<path d="M34.6919 148.749L26.6165 144.087L26.6165 153.411L34.6919 148.749Z" fill="#CED5DD"/>
<path d="M34.6919 169.333L26.6165 164.67L26.6165 173.995L34.6919 169.333Z" fill="#CED5DD"/>
<path d="M34.6919 189.916L26.6165 185.254L26.6165 194.579L34.6919 189.916Z" fill="#CED5DD"/>
<path d="M21.3833 4.66212L13.3079 -3.52987e-07L13.3079 9.3247L21.3833 4.66212Z" fill="#CED5DD"/>
<path d="M21.3833 25.2462L13.3079 20.584L13.3079 29.9083L21.3833 25.2462Z" fill="#CED5DD"/>
<path d="M21.3833 45.8297L13.3079 41.1676L13.3079 50.4923L21.3833 45.8297Z" fill="#CED5DD"/>
<path d="M21.3833 66.4138L13.3079 61.7513L13.3079 71.076L21.3833 66.4138Z" fill="#CED5DD"/>
<path d="M21.3833 86.9975L13.3079 82.3352L13.3079 91.6596L21.3833 86.9975Z" fill="#CED5DD"/>
<path d="M21.3833 107.581L13.3079 102.919L13.3079 112.244L21.3833 107.581Z" fill="#CED5DD"/>
<path d="M21.3833 128.165L13.3079 123.503L13.3079 132.827L21.3833 128.165Z" fill="#CED5DD"/>
<path d="M21.3833 148.749L13.3079 144.087L13.3079 153.411L21.3833 148.749Z" fill="#CED5DD"/>
<path d="M21.3833 169.333L13.3079 164.67L13.3079 173.995L21.3833 169.333Z" fill="#CED5DD"/>
<path d="M21.3833 189.916L13.3079 185.254L13.3079 194.579L21.3833 189.916Z" fill="#CED5DD"/>
<path d="M8.07568 4.66212L0.000271797 -3.52987e-07L0.00027139 9.3247L8.07568 4.66212Z" fill="#CED5DD"/>
<path d="M8.07568 25.2462L0.000271797 20.584L0.00027139 29.9083L8.07568 25.2462Z" fill="#CED5DD"/>
<path d="M8.07568 45.8297L0.000271797 41.1676L0.00027139 50.4923L8.07568 45.8297Z" fill="#CED5DD"/>
<path d="M8.07568 66.4138L0.000271797 61.7513L0.00027139 71.076L8.07568 66.4138Z" fill="#CED5DD"/>
<path d="M8.07568 86.9975L0.000271797 82.3352L0.00027139 91.6596L8.07568 86.9975Z" fill="#CED5DD"/>
<path d="M8.07568 107.581L0.000271797 102.919L0.00027139 112.244L8.07568 107.581Z" fill="#CED5DD"/>
<path d="M8.07568 128.165L0.000271797 123.503L0.00027139 132.827L8.07568 128.165Z" fill="#CED5DD"/>
<path d="M8.07568 148.749L0.000271797 144.087L0.00027139 153.411L8.07568 148.749Z" fill="#CED5DD"/>
<path d="M8.07568 169.333L0.000271797 164.67L0.00027139 173.995L8.07568 169.333Z" fill="#CED5DD"/>
<path d="M8.07568 189.916L0.000271797 185.254L0.00027139 194.579L8.07568 189.916Z" fill="#CED5DD"/>
</svg>
