<svg width="16" height="16" viewBox="0 0 16 16" fill="none" xmlns="http://www.w3.org/2000/svg">
<g clip-path="url(#clip0_734_231)">
<path d="M10 0H2C1.46957 0 0.960859 0.210714 0.585786 0.585786C0.210714 0.960859 0 1.46957 0 2L0 7.33333H10V0Z" fill="white"/>
<path d="M13.9997 0H11.333V7.33333H15.9997V2C15.9997 1.46957 15.7889 0.960859 15.4139 0.585786C15.0388 0.210714 14.5301 0 13.9997 0V0Z" fill="white"/>
<path d="M4.66667 8.66687H0V14.0002C0 14.5306 0.210714 15.0393 0.585786 15.4144C0.960859 15.7895 1.46957 16.0002 2 16.0002H4.66667V8.66687Z" fill="white"/>
<path d="M16 8.66687H6V16.0002H14C14.5304 16.0002 15.0391 15.7895 15.4142 15.4144C15.7893 15.0393 16 14.5306 16 14.0002V8.66687Z" fill="white"/>
</g>
<defs>
<clipPath id="clip0_734_231">
<rect width="16" height="16" fill="white"/>
</clipPath>
</defs>
</svg>
