<svg width="88" height="160" viewBox="0 0 88 160" fill="none" xmlns="http://www.w3.org/2000/svg">
<path d="M72.8799 160L72.8799 14.6399L0.000411987 14.6399L0.000405633 160L72.8799 160Z" fill="#FDD600"/>
<path d="M79.8125 5.92073C80.5535 7.7091 82.6045 8.55833 84.3935 7.81755C86.1825 7.07677 87.032 5.02649 86.291 3.23812C85.55 1.44976 83.4989 0.600522 81.71 1.3413C79.921 2.08208 79.0714 4.13236 79.8125 5.92073Z" fill="#0C2D57"/>
<path d="M67.4117 8.0353C69.3231 8.34539 71.124 7.04785 71.4342 5.13715C71.7444 3.22645 70.4464 1.42614 68.5351 1.11604C66.6237 0.805947 64.8227 2.10349 64.5125 4.01419C64.2023 5.92489 65.5003 7.72521 67.4117 8.0353Z" fill="#0C2D57"/>
<path d="M49.3873 4.55636C49.3873 6.49203 50.957 8.0612 52.8933 8.0612C54.8297 8.0612 56.3994 6.49203 56.3994 4.55636C56.3994 2.62069 54.8297 1.05151 52.8933 1.05151C50.957 1.05151 49.3873 2.62069 49.3873 4.55636Z" fill="#0C2D57"/>
<path d="M34.5849 5.9211C35.326 7.70946 37.377 8.5587 39.166 7.81792C40.955 7.07714 41.8045 5.02686 41.0635 3.23849C40.3224 1.45012 38.2714 0.600888 36.4824 1.34167C34.6934 2.08245 33.8439 4.13273 34.5849 5.9211Z" fill="#0C2D57"/>
<path d="M22.1842 8.03579C24.0956 8.34588 25.8965 7.04833 26.2067 5.13763C26.5169 3.22693 25.2189 1.42662 23.3075 1.11653C21.3962 0.806435 19.5952 2.10398 19.285 4.01468C18.9748 5.92538 20.2728 7.72569 22.1842 8.03579Z" fill="#0C2D57"/>
<path d="M80.5619 25.8363C81.9311 27.205 84.151 27.205 85.5202 25.8363C86.8894 24.4676 86.8894 22.2485 85.5202 20.8798C84.151 19.5111 81.9311 19.5111 80.5619 20.8798C79.1927 22.2485 79.1927 24.4676 80.5619 25.8363Z" fill="#0C2D57"/>
<path d="M67.1064 26.7967C68.9908 27.2415 70.8792 26.075 71.3242 24.1912C71.7692 22.3074 70.6022 20.4197 68.7178 19.9748C66.8333 19.53 64.9449 20.6966 64.5 22.5803C64.055 24.4641 65.2219 26.3519 67.1064 26.7967Z" fill="#0C2D57"/>
<path d="M49.3873 23.3656C49.3873 25.3012 50.957 26.8704 52.8933 26.8704C54.8297 26.8704 56.3994 25.3012 56.3994 23.3656C56.3994 21.4299 54.8297 19.8607 52.8933 19.8607C50.957 19.8607 49.3873 21.4299 49.3873 23.3656Z" fill="#0C2D57"/>
<path d="M35.3363 25.8358C36.7055 27.2045 38.9254 27.2045 40.2946 25.8358C41.6638 24.4671 41.6638 22.248 40.2946 20.8793C38.9254 19.5106 36.7055 19.5106 35.3363 20.8793C33.9671 22.248 33.9671 24.4671 35.3363 25.8358Z" fill="#0C2D57"/>
<path d="M21.8779 26.7948C23.7623 27.2397 25.6507 26.0731 26.0957 24.1893C26.5407 22.3055 25.3737 20.4178 23.4893 19.973C21.6048 19.5282 19.7164 20.6947 19.2715 22.5785C18.8265 24.4623 19.9934 26.35 21.8779 26.7948Z" fill="#0C2D57"/>
<path d="M80.5619 44.6449C81.9311 46.0136 84.151 46.0136 85.5202 44.6449C86.8894 43.2762 86.8894 41.0571 85.5202 39.6884C84.151 38.3196 81.9311 38.3196 80.5619 39.6884C79.1927 41.0571 79.1927 43.2762 80.5619 44.6449Z" fill="#0C2D57"/>
<path d="M67.1054 45.6062C68.9899 46.0511 70.8782 44.8845 71.3232 43.0007C71.7682 41.1169 70.6013 39.2292 68.7168 38.7844C66.8323 38.3396 64.944 39.5061 64.499 41.3899C64.054 43.2737 65.221 45.1614 67.1054 45.6062Z" fill="#0C2D57"/>
<path d="M49.3873 42.1745C49.3873 44.1102 50.957 45.6794 52.8933 45.6794C54.8297 45.6794 56.3994 44.1102 56.3994 42.1745C56.3994 40.2388 54.8297 38.6697 52.8933 38.6697C50.957 38.6697 49.3873 40.2388 49.3873 42.1745Z" fill="#0C2D57"/>
<path d="M35.3363 44.644C36.7055 46.0128 38.9254 46.0128 40.2946 44.644C41.6638 43.2753 41.6638 41.0562 40.2946 39.6875C38.9254 38.3188 36.7055 38.3188 35.3363 39.6875C33.9671 41.0562 33.9671 43.2753 35.3363 44.644Z" fill="#0C2D57"/>
<path d="M21.8769 45.6039C23.7614 46.0487 25.6497 44.8822 26.0947 42.9984C26.5397 41.1146 25.3727 39.2269 23.4883 38.7821C21.6038 38.3373 19.7154 39.5038 19.2705 41.3876C18.8255 43.2714 19.9924 45.1591 21.8769 45.6039Z" fill="#0C2D57"/>
<path d="M80.5619 63.4536C81.9311 64.8223 84.151 64.8223 85.5202 63.4536C86.8894 62.0849 86.8894 59.8658 85.5202 58.4971C84.151 57.1284 81.9311 57.1284 80.5619 58.4971C79.1927 59.8658 79.1927 62.0849 80.5619 63.4536Z" fill="#0C2D57"/>
<path d="M67.1044 64.4168C68.9889 64.8616 70.8773 63.6951 71.3222 61.8113C71.7672 59.9275 70.6003 58.0398 68.7158 57.595C66.8314 57.1501 64.943 58.3167 64.498 60.2005C64.053 62.0843 65.22 63.972 67.1044 64.4168Z" fill="#0C2D57"/>
<path d="M49.3873 60.9831C49.3873 62.9188 50.957 64.488 52.8933 64.488C54.8297 64.488 56.3994 62.9188 56.3994 60.9831C56.3994 59.0474 54.8297 57.4783 52.8933 57.4783C50.957 57.4783 49.3873 59.0474 49.3873 60.9831Z" fill="#0C2D57"/>
<path d="M35.3363 63.4522C36.7055 64.8209 38.9254 64.8209 40.2946 63.4522C41.6638 62.0834 41.6638 59.8643 40.2946 58.4956C38.9254 57.1269 36.7055 57.1269 35.3363 58.4956C33.9671 59.8643 33.9671 62.0834 35.3363 63.4522Z" fill="#0C2D57"/>
<path d="M21.8759 64.4135C23.7604 64.8583 25.6488 63.6918 26.0937 61.808C26.5387 59.9242 25.3718 58.0365 23.4873 57.5917C21.6029 57.1469 19.7145 58.3134 19.2695 60.1972C18.8245 62.081 19.9915 63.9687 21.8759 64.4135Z" fill="#0C2D57"/>
<path d="M80.5619 82.2612C81.9311 83.63 84.151 83.63 85.5202 82.2612C86.8894 80.8925 86.8894 78.6734 85.5202 77.3047C84.151 75.936 81.9311 75.936 80.5619 77.3047C79.1927 78.6734 79.1927 80.8925 80.5619 82.2612Z" fill="#0C2D57"/>
<path d="M67.1035 83.2249C68.9879 83.6697 70.8763 82.5032 71.3213 80.6194C71.7662 78.7356 70.5993 76.8479 68.7148 76.4031C66.8304 75.9583 64.942 77.1248 64.497 79.0086C64.0521 80.8924 65.219 82.7801 67.1035 83.2249Z" fill="#0C2D57"/>
<path d="M49.3873 79.7917C49.3873 81.7274 50.957 83.2965 52.8933 83.2965C54.8297 83.2965 56.3994 81.7274 56.3994 79.7917C56.3994 77.856 54.8297 76.2869 52.8933 76.2869C50.957 76.2869 49.3873 77.856 49.3873 79.7917Z" fill="#0C2D57"/>
<path d="M35.3363 82.2612C36.7055 83.63 38.9254 83.63 40.2946 82.2612C41.6638 80.8925 41.6638 78.6734 40.2946 77.3047C38.9254 75.936 36.7055 75.936 35.3363 77.3047C33.9671 78.6734 33.9671 80.8925 35.3363 82.2612Z" fill="#0C2D57"/>
<path d="M21.8749 83.2229C23.7594 83.6678 25.6478 82.5012 26.0928 80.6174C26.5377 78.7336 25.3708 76.8459 23.4863 76.4011C21.6019 75.9563 19.7135 77.1228 19.2685 79.0066C18.8235 80.8904 19.9905 82.7781 21.8749 83.2229Z" fill="#0C2D57"/>
<path d="M80.5619 101.07C81.9311 102.439 84.151 102.439 85.5202 101.07C86.8894 99.7011 86.8894 97.482 85.5202 96.1133C84.151 94.7446 81.9311 94.7446 80.5619 96.1133C79.1927 97.482 79.1927 99.7011 80.5619 101.07Z" fill="#0C2D57"/>
<path d="M67.1025 102.034C68.9869 102.479 70.8753 101.313 71.3203 99.429C71.7653 97.5452 70.5983 95.6575 68.7139 95.2126C66.8294 94.7678 64.941 95.9343 64.4961 97.8181C64.0511 99.7019 65.218 101.59 67.1025 102.034Z" fill="#0C2D57"/>
<path d="M49.3873 98.5998C49.3873 100.535 50.957 102.105 52.8933 102.105C54.8297 102.105 56.3994 100.535 56.3994 98.5998C56.3994 96.6641 54.8297 95.095 52.8933 95.095C50.957 95.095 49.3873 96.6641 49.3873 98.5998Z" fill="#0C2D57"/>
<path d="M35.3363 101.069C36.7055 102.438 38.9254 102.438 40.2946 101.069C41.6638 99.7001 41.6638 97.481 40.2946 96.1123C38.9254 94.7436 36.7055 94.7436 35.3363 96.1123C33.9671 97.481 33.9671 99.7001 35.3363 101.069Z" fill="#0C2D57"/>
<path d="M21.874 102.032C23.7584 102.477 25.6468 101.31 26.0918 99.4265C26.5368 97.5427 25.3698 95.655 23.4854 95.2102C21.6009 94.7654 19.7125 95.9319 19.2675 97.8157C18.8226 99.6995 19.9895 101.587 21.874 102.032Z" fill="#0C2D57"/>
<path d="M80.5619 119.878C81.9311 121.247 84.151 121.247 85.5202 119.878C86.8894 118.509 86.8894 116.29 85.5202 114.921C84.151 113.553 81.9311 113.553 80.5619 114.921C79.1927 116.29 79.1927 118.509 80.5619 119.878Z" fill="#0C2D57"/>
<path d="M67.1015 120.844C68.986 121.289 70.8743 120.123 71.3193 118.239C71.7643 116.355 70.5974 114.467 68.7129 114.023C66.8284 113.578 64.9401 114.744 64.4951 116.628C64.0501 118.512 65.217 120.4 67.1015 120.844Z" fill="#0C2D57"/>
<path d="M49.3873 117.409C49.3873 119.344 50.957 120.913 52.8933 120.913C54.8297 120.913 56.3994 119.344 56.3994 117.409C56.3994 115.473 54.8297 113.904 52.8933 113.904C50.957 113.904 49.3873 115.473 49.3873 117.409Z" fill="#0C2D57"/>
<path d="M35.3363 119.877C36.7055 121.246 38.9254 121.246 40.2946 119.877C41.6638 118.509 41.6638 116.29 40.2946 114.921C38.9254 113.552 36.7055 113.552 35.3363 114.921C33.9671 116.29 33.9671 118.509 35.3363 119.877Z" fill="#0C2D57"/>
<path d="M21.874 120.841C23.7584 121.286 25.6468 120.119 26.0918 118.236C26.5368 116.352 25.3698 114.464 23.4854 114.019C21.6009 113.574 19.7125 114.741 19.2675 116.625C18.8226 118.509 19.9895 120.396 21.874 120.841Z" fill="#0C2D57"/>
<path d="M80.5609 138.687C81.9301 140.055 84.15 140.055 85.5192 138.687C86.8884 137.318 86.8884 135.099 85.5192 133.73C84.15 132.362 81.9301 132.362 80.5609 133.73C79.1917 135.099 79.1917 137.318 80.5609 138.687Z" fill="#0C2D57"/>
<path d="M67.1005 139.653C68.985 140.098 70.8734 138.932 71.3183 137.048C71.7633 135.164 70.5964 133.276 68.7119 132.832C66.8275 132.387 64.9391 133.553 64.4941 135.437C64.0491 137.321 65.2161 139.209 67.1005 139.653Z" fill="#0C2D57"/>
<path d="M49.3873 136.217C49.3873 138.152 50.957 139.721 52.8933 139.721C54.8297 139.721 56.3994 138.152 56.3994 136.217C56.3994 134.281 54.8297 132.712 52.8933 132.712C50.957 132.712 49.3873 134.281 49.3873 136.217Z" fill="#0C2D57"/>
<path d="M35.3353 138.686C36.7045 140.055 38.9244 140.055 40.2936 138.686C41.6628 137.317 41.6628 135.098 40.2936 133.73C38.9244 132.361 36.7045 132.361 35.3353 133.73C33.9661 135.098 33.9661 137.317 35.3353 138.686Z" fill="#0C2D57"/>
<path d="M21.872 139.651C23.7565 140.096 25.6448 138.929 26.0898 137.046C26.5348 135.162 25.3679 133.274 23.4834 132.829C21.5989 132.385 19.7106 133.551 19.2656 135.435C18.8206 137.319 19.9876 139.206 21.872 139.651Z" fill="#0C2D57"/>
</svg>
