<svg width="81" height="144" viewBox="0 0 81 144" fill="none" xmlns="http://www.w3.org/2000/svg">
<path d="M13.1606 0L13.1606 134.64L80.6414 134.64L80.6414 -2.94968e-06L13.1606 0Z" fill="#FDD600"/>
<path d="M7.58094 138.516C6.8948 136.859 4.99573 136.073 3.33925 136.759C1.68278 137.445 0.896178 139.344 1.58233 141C2.26847 142.657 4.16754 143.444 5.82402 142.757C7.48049 142.071 8.26709 140.172 7.58094 138.516Z" fill="#0C2D57"/>
<path d="M19.0632 136.557C17.2934 136.27 15.6259 137.472 15.3386 139.242C15.0514 141.011 16.2533 142.679 18.0231 142.966C19.7928 143.253 21.4604 142.052 21.7476 140.282C22.0348 138.512 20.833 136.844 19.0632 136.557Z" fill="#0C2D57"/>
<path d="M35.752 139.779C35.752 137.986 34.2985 136.533 32.5056 136.533C30.7127 136.533 29.2593 137.986 29.2593 139.779C29.2593 141.572 30.7127 143.025 32.5056 143.025C34.2985 143.025 35.752 141.572 35.752 139.779Z" fill="#0C2D57"/>
<path d="M49.4584 138.515C48.7722 136.859 46.8732 136.072 45.2167 136.758C43.5602 137.444 42.7736 139.343 43.4598 141C44.1459 142.656 46.045 143.443 47.7015 142.757C49.3579 142.071 50.1445 140.172 49.4584 138.515Z" fill="#0C2D57"/>
<path d="M60.9406 136.557C59.1708 136.27 57.5033 137.471 57.2161 139.241C56.9289 141.011 58.1307 142.678 59.9005 142.966C61.6703 143.253 63.3378 142.051 63.625 140.281C63.9123 138.512 62.7104 136.844 60.9406 136.557Z" fill="#0C2D57"/>
<path d="M6.88632 120.069C5.61855 118.801 3.56309 118.801 2.29532 120.069C1.02755 121.336 1.02755 123.392 2.29532 124.66C3.56309 125.927 5.61855 125.927 6.88632 124.66C8.15409 123.392 8.15409 121.336 6.88632 120.069Z" fill="#0C2D57"/>
<path d="M19.3454 119.179C17.6005 118.767 15.852 119.848 15.44 121.592C15.028 123.337 16.1085 125.086 17.8533 125.498C19.5982 125.91 21.3467 124.829 21.7587 123.084C22.1707 121.34 21.0902 119.591 19.3454 119.179Z" fill="#0C2D57"/>
<path d="M35.752 122.357C35.752 120.564 34.2985 119.111 32.5056 119.111C30.7127 119.111 29.2593 120.564 29.2593 122.357C29.2593 124.15 30.7127 125.604 32.5056 125.604C34.2985 125.604 35.752 124.15 35.752 122.357Z" fill="#0C2D57"/>
<path d="M48.7628 120.069C47.495 118.801 45.4396 118.801 44.1718 120.069C42.904 121.337 42.904 123.392 44.1718 124.66C45.4396 125.928 47.495 125.928 48.7628 124.66C50.0306 123.392 50.0306 121.337 48.7628 120.069Z" fill="#0C2D57"/>
<path d="M61.2238 119.181C59.4789 118.769 57.7304 119.849 57.3184 121.594C56.9064 123.339 57.9869 125.088 59.7318 125.5C61.4766 125.912 63.2251 124.831 63.6371 123.086C64.0491 121.342 62.9686 119.593 61.2238 119.181Z" fill="#0C2D57"/>
<path d="M6.88681 102.647C5.61904 101.38 3.56358 101.38 2.29581 102.647C1.02804 103.915 1.02804 105.971 2.29581 107.238C3.56358 108.506 5.61904 108.506 6.88681 107.238C8.15458 105.971 8.15458 103.915 6.88681 102.647Z" fill="#0C2D57"/>
<path d="M19.3463 101.757C17.6015 101.345 15.853 102.425 15.441 104.17C15.029 105.915 16.1095 107.664 17.8543 108.076C19.5992 108.488 21.3477 107.407 21.7597 105.662C22.1717 103.917 21.0912 102.169 19.3463 101.757Z" fill="#0C2D57"/>
<path d="M35.752 104.936C35.752 103.143 34.2985 101.689 32.5056 101.689C30.7127 101.689 29.2593 103.143 29.2593 104.936C29.2593 106.728 30.7127 108.182 32.5056 108.182C34.2985 108.182 35.752 106.728 35.752 104.936Z" fill="#0C2D57"/>
<path d="M48.7628 102.648C47.495 101.381 45.4396 101.381 44.1718 102.648C42.904 103.916 42.904 105.972 44.1718 107.239C45.4396 108.507 47.495 108.507 48.7628 107.239C50.0306 105.972 50.0306 103.916 48.7628 102.648Z" fill="#0C2D57"/>
<path d="M61.2248 101.759C59.4799 101.347 57.7314 102.428 57.3194 104.173C56.9074 105.917 57.9879 107.666 59.7327 108.078C61.4776 108.49 63.2261 107.409 63.6381 105.665C64.0501 103.92 62.9696 102.171 61.2248 101.759Z" fill="#0C2D57"/>
<path d="M6.88681 85.2262C5.61904 83.9584 3.56358 83.9584 2.29581 85.2262C1.02804 86.4939 1.02804 88.5494 2.29581 89.8172C3.56358 91.0849 5.61904 91.0849 6.88681 89.8172C8.15458 88.5494 8.15458 86.4939 6.88681 85.2262Z" fill="#0C2D57"/>
<path d="M19.3473 84.3341C17.6025 83.9221 15.854 85.0026 15.442 86.7475C15.0299 88.4923 16.1104 90.2408 17.8553 90.6529C19.6002 91.0649 21.3486 89.9844 21.7607 88.2395C22.1727 86.4946 21.0922 84.7462 19.3473 84.3341Z" fill="#0C2D57"/>
<path d="M35.752 87.5143C35.752 85.7214 34.2985 84.2679 32.5056 84.2679C30.7127 84.2679 29.2593 85.7214 29.2593 87.5143C29.2593 89.3072 30.7127 90.7606 32.5056 90.7606C34.2985 90.7606 35.752 89.3072 35.752 87.5143Z" fill="#0C2D57"/>
<path d="M48.7628 85.2272C47.495 83.9594 45.4396 83.9594 44.1718 85.2272C42.904 86.4949 42.904 88.5504 44.1718 89.8181C45.4396 91.0859 47.495 91.0859 48.7628 89.8181C50.0306 88.5504 50.0306 86.4949 48.7628 85.2272Z" fill="#0C2D57"/>
<path d="M61.2257 84.337C59.4809 83.925 57.7324 85.0055 57.3204 86.7504C56.9084 88.4952 57.9888 90.2437 59.7337 90.6557C61.4786 91.0677 63.2271 89.9872 63.6391 88.2424C64.0511 86.4975 62.9706 84.749 61.2257 84.337Z" fill="#0C2D57"/>
<path d="M6.88681 67.8054C5.61904 66.5376 3.56358 66.5376 2.29581 67.8054C1.02804 69.0732 1.02804 71.1286 2.29581 72.3964C3.56358 73.6642 5.61904 73.6642 6.88681 72.3964C8.15458 71.1286 8.15458 69.0732 6.88681 67.8054Z" fill="#0C2D57"/>
<path d="M19.3483 66.9124C17.6034 66.5004 15.8549 67.5809 15.4429 69.3257C15.0309 71.0706 16.1114 72.8191 17.8563 73.2311C19.6011 73.6431 21.3496 72.5626 21.7616 70.8178C22.1736 69.0729 21.0932 67.3244 19.3483 66.9124Z" fill="#0C2D57"/>
<path d="M35.752 70.093C35.752 68.3001 34.2985 66.8466 32.5056 66.8466C30.7127 66.8466 29.2593 68.3001 29.2593 70.093C29.2593 71.8859 30.7127 73.3394 32.5056 73.3394C34.2985 73.3394 35.752 71.8859 35.752 70.093Z" fill="#0C2D57"/>
<path d="M48.7628 67.8054C47.495 66.5376 45.4396 66.5376 44.1718 67.8054C42.904 69.0732 42.904 71.1286 44.1718 72.3964C45.4396 73.6642 47.495 73.6642 48.7628 72.3964C50.0306 71.1286 50.0306 69.0732 48.7628 67.8054Z" fill="#0C2D57"/>
<path d="M61.2262 66.9143C59.4814 66.5023 57.7329 67.5828 57.3209 69.3277C56.9088 71.0725 57.9893 72.821 59.7342 73.2331C61.4791 73.6451 63.2276 72.5646 63.6396 70.8197C64.0516 69.0748 62.9711 67.3264 61.2262 66.9143Z" fill="#0C2D57"/>
<path d="M6.88681 50.3836C5.61904 49.1159 3.56358 49.1159 2.29581 50.3836C1.02804 51.6514 1.02804 53.7069 2.29581 54.9746C3.56358 56.2424 5.61904 56.2424 6.88681 54.9746C8.15458 53.7069 8.15458 51.6514 6.88681 50.3836Z" fill="#0C2D57"/>
<path d="M19.3488 49.4901C17.6039 49.0781 15.8554 50.1586 15.4434 51.9035C15.0314 53.6484 16.1119 55.3968 17.8568 55.8089C19.6016 56.2209 21.3501 55.1404 21.7621 53.3955C22.1741 51.6507 21.0936 49.9022 19.3488 49.4901Z" fill="#0C2D57"/>
<path d="M35.752 52.6712C35.752 50.8783 34.2985 49.4249 32.5056 49.4249C30.7127 49.4249 29.2593 50.8783 29.2593 52.6712C29.2593 54.4642 30.7127 55.9176 32.5056 55.9176C34.2985 55.9176 35.752 54.4642 35.752 52.6712Z" fill="#0C2D57"/>
<path d="M48.7628 50.3841C47.495 49.1164 45.4396 49.1164 44.1718 50.3841C42.904 51.6519 42.904 53.7074 44.1718 54.9751C45.4396 56.2429 47.495 56.2429 48.7628 54.9751C50.0306 53.7074 50.0306 51.6519 48.7628 50.3841Z" fill="#0C2D57"/>
<path d="M61.2272 49.4921C59.4823 49.0801 57.7338 50.1606 57.3218 51.9054C56.9098 53.6503 57.9903 55.3988 59.7352 55.8108C61.48 56.2228 63.2285 55.1423 63.6405 53.3975C64.0526 51.6526 62.9721 49.9041 61.2272 49.4921Z" fill="#0C2D57"/>
<path d="M6.88681 32.9624C5.61904 31.6946 3.56358 31.6946 2.29581 32.9624C1.02804 34.2301 1.02804 36.2856 2.29581 37.5534C3.56358 38.8211 5.61904 38.8211 6.88681 37.5534C8.15458 36.2856 8.15458 34.2301 6.88681 32.9624Z" fill="#0C2D57"/>
<path d="M19.3498 32.0675C17.6049 31.6555 15.8564 32.736 15.4444 34.4808C15.0324 36.2257 16.1129 37.9742 17.8577 38.3862C19.6026 38.7982 21.3511 37.7177 21.7631 35.9728C22.1751 34.228 21.0946 32.4795 19.3498 32.0675Z" fill="#0C2D57"/>
<path d="M35.752 35.25C35.752 33.4571 34.2985 32.0036 32.5056 32.0036C30.7127 32.0036 29.2593 33.4571 29.2593 35.25C29.2593 37.0429 30.7127 38.4963 32.5056 38.4963C34.2985 38.4963 35.752 37.0429 35.752 35.25Z" fill="#0C2D57"/>
<path d="M48.7633 32.9628C47.4955 31.695 45.44 31.695 44.1723 32.9628C42.9045 34.2306 42.9045 36.286 44.1723 37.5538C45.44 38.8216 47.4955 38.8216 48.7633 37.5538C50.031 36.286 50.031 34.2306 48.7633 32.9628Z" fill="#0C2D57"/>
<path d="M61.2282 32.0703C59.4833 31.6583 57.7348 32.7388 57.3228 34.4837C56.9108 36.2286 57.9913 37.977 59.7362 38.3891C61.481 38.8011 63.2295 37.7206 63.6415 35.9757C64.0535 34.2309 62.973 32.4824 61.2282 32.0703Z" fill="#0C2D57"/>
<path d="M6.8873 15.5411C5.61953 14.2733 3.56407 14.2733 2.2963 15.5411C1.02853 16.8088 1.02853 18.8643 2.2963 20.1321C3.56407 21.3998 5.61953 21.3998 6.8873 20.1321C8.15506 18.8643 8.15506 16.8088 6.8873 15.5411Z" fill="#0C2D57"/>
<path d="M19.3507 14.6457C17.6059 14.2337 15.8574 15.3142 15.4454 17.0591C15.0334 18.8039 16.1138 20.5524 17.8587 20.9644C19.6036 21.3764 21.3521 20.296 21.7641 18.5511C22.1761 16.8062 21.0956 15.0577 19.3507 14.6457Z" fill="#0C2D57"/>
<path d="M35.752 17.8287C35.752 16.0358 34.2985 14.5824 32.5056 14.5824C30.7127 14.5824 29.2593 16.0358 29.2593 17.8287C29.2593 19.6216 30.7127 21.0751 32.5056 21.0751C34.2985 21.0751 35.752 19.6216 35.752 17.8287Z" fill="#0C2D57"/>
<path d="M48.7633 15.5415C47.4955 14.2738 45.44 14.2738 44.1723 15.5415C42.9045 16.8093 42.9045 18.8648 44.1723 20.1325C45.44 21.4003 47.4955 21.4003 48.7633 20.1325C50.031 18.8648 50.031 16.8093 48.7633 15.5415Z" fill="#0C2D57"/>
<path d="M61.2292 14.6476C59.4843 14.2356 57.7358 15.3161 57.3238 17.061C56.9118 18.8058 57.9923 20.5543 59.7371 20.9663C61.482 21.3783 63.2305 20.2978 63.6425 18.553C64.0545 16.8081 62.974 15.0596 61.2292 14.6476Z" fill="#0C2D57"/>
</svg>
