<svg width="240" height="183" viewBox="0 0 240 183" fill="none" xmlns="http://www.w3.org/2000/svg">
<path d="M193.449 136.876C218.647 111.678 218.647 70.8235 193.449 45.6253C168.251 20.4271 127.396 20.4271 102.198 45.6253C76.9999 70.8235 76.9999 111.678 102.198 136.876C127.396 162.074 168.251 162.074 193.449 136.876Z" fill="#FDD600"/>
<mask id="mask0_526_1174" style="mask-type:luminance" maskUnits="userSpaceOnUse" x="0" y="15" width="153" height="153">
<path d="M150.576 91.7673C150.576 132.934 117.204 166.305 76.0381 166.305C34.8719 166.305 1.5 132.934 1.5 91.7673C1.5 50.601 34.8719 17.2291 76.0381 17.2291C117.204 17.2291 150.576 50.601 150.576 91.7673Z" fill="white" stroke="white" stroke-width="3"/>
</mask>
<g mask="url(#mask0_526_1174)">
<path d="M70.6309 -29.8866L216.426 115.908" stroke="#0C2D57" stroke-width="3" stroke-miterlimit="10"/>
<path d="M62.8774 -22.1328L208.672 123.662" stroke="#0C2D57" stroke-width="3" stroke-miterlimit="10"/>
<path d="M55.123 -14.3793L200.918 131.416" stroke="#0C2D57" stroke-width="3" stroke-miterlimit="10"/>
<path d="M47.3696 -6.62561L193.165 139.17" stroke="#0C2D57" stroke-width="3" stroke-miterlimit="10"/>
<path d="M39.6162 1.12805L185.411 146.923" stroke="#0C2D57" stroke-width="3" stroke-miterlimit="10"/>
<path d="M31.8623 8.88208L177.657 154.677" stroke="#0C2D57" stroke-width="3" stroke-miterlimit="10"/>
<path d="M24.1089 16.6357L169.904 162.431" stroke="#0C2D57" stroke-width="3" stroke-miterlimit="10"/>
<path d="M16.355 24.3894L162.15 170.184" stroke="#0C2D57" stroke-width="3" stroke-miterlimit="10"/>
<path d="M8.60107 32.1431L154.396 177.938" stroke="#0C2D57" stroke-width="3" stroke-miterlimit="10"/>
<path d="M0.847656 39.8967L146.643 185.692" stroke="#0C2D57" stroke-width="3" stroke-miterlimit="10"/>
<path d="M-6.90625 47.6506L138.889 193.445" stroke="#0C2D57" stroke-width="3" stroke-miterlimit="10"/>
<path d="M-14.6597 55.4043L131.135 201.199" stroke="#0C2D57" stroke-width="3" stroke-miterlimit="10"/>
<path d="M-22.4136 63.158L123.381 208.953" stroke="#0C2D57" stroke-width="3" stroke-miterlimit="10"/>
<path d="M-30.1675 70.9116L115.628 216.707" stroke="#0C2D57" stroke-width="3" stroke-miterlimit="10"/>
<path d="M-37.9214 78.6653L107.874 224.46" stroke="#0C2D57" stroke-width="3" stroke-miterlimit="10"/>
<path d="M-45.6748 86.4193L100.12 232.214" stroke="#0C2D57" stroke-width="3" stroke-miterlimit="10"/>
</g>
</svg>
