<svg width="148" height="52" viewBox="0 0 148 52" fill="none" xmlns="http://www.w3.org/2000/svg">
<path d="M5.7046 4.28141C5.99952 2.84745 5.08125 1.44486 3.65357 1.14864C2.22589 0.852414 0.829425 1.77474 0.5345 3.2087C0.239574 4.64265 1.15786 6.04525 2.58555 6.34147C4.01323 6.63769 5.40967 5.71537 5.7046 4.28141Z" fill="#CED5DD"/>
<path d="M5.7046 15.6812C5.99952 14.2473 5.08125 12.8447 3.65357 12.5485C2.22589 12.2523 0.829425 13.1746 0.5345 14.6085C0.239574 16.0425 1.15786 17.4451 2.58555 17.7413C4.01323 18.0375 5.40967 17.1152 5.7046 15.6812Z" fill="#CED5DD"/>
<path d="M5.70411 27.0809C5.99903 25.647 5.08076 24.2444 3.65308 23.9481C2.2254 23.6519 0.828936 24.5742 0.534011 26.0082C0.239086 27.4422 1.15737 28.8448 2.58506 29.141C4.01274 29.4372 5.40918 28.5149 5.70411 27.0809Z" fill="#CED5DD"/>
<path d="M3.14409 40.5996C4.60196 40.5996 5.78379 39.4126 5.78379 37.9483C5.78379 36.484 4.60196 35.297 3.14409 35.297C1.68623 35.297 0.504395 36.484 0.504395 37.9483C0.504395 39.4126 1.68623 40.5996 3.14409 40.5996Z" fill="#CED5DD"/>
<path d="M3.14409 52C4.60196 52 5.78379 50.813 5.78379 49.3487C5.78379 47.8845 4.60196 46.6974 3.14409 46.6974C1.68623 46.6974 0.504395 47.8845 0.504395 49.3487C0.504395 50.813 1.68623 52 3.14409 52Z" fill="#CED5DD"/>
<path d="M19.9498 3.74706C19.9498 5.21117 18.7681 6.39834 17.3101 6.39834C15.8521 6.39834 14.6704 5.2115 14.6704 3.74706C14.6704 2.28296 15.8521 1.09576 17.3101 1.09576C18.7681 1.09576 19.9498 2.28296 19.9498 3.74706Z" fill="#CED5DD"/>
<path d="M19.9498 15.1476C19.9498 16.6117 18.7681 17.7989 17.3101 17.7989C15.8521 17.7989 14.6704 16.6121 14.6704 15.1476C14.6704 13.6832 15.8521 12.4963 17.3101 12.4963C18.7681 12.4963 19.9498 13.6832 19.9498 15.1476Z" fill="#CED5DD"/>
<path d="M19.9498 26.5478C19.9498 28.0119 18.7681 29.1991 17.3101 29.1991C15.8521 29.1991 14.6704 28.0122 14.6704 26.5478C14.6704 25.0837 15.8521 23.8965 17.3101 23.8965C18.7681 23.8965 19.9498 25.0837 19.9498 26.5478Z" fill="#CED5DD"/>
<path d="M19.9498 37.9483C19.9498 39.4124 18.7681 40.5996 17.3101 40.5996C15.8521 40.5996 14.6704 39.4127 14.6704 37.9483C14.6704 36.4839 15.8521 35.297 17.3101 35.297C18.7681 35.297 19.9498 36.4839 19.9498 37.9483Z" fill="#CED5DD"/>
<path d="M19.9498 49.3487C19.9498 50.8129 18.7681 52 17.3101 52C15.8521 52 14.6704 50.8132 14.6704 49.3487C14.6704 47.8843 15.8521 46.6974 17.3101 46.6974C18.7681 46.6974 19.9498 47.8843 19.9498 49.3487Z" fill="#CED5DD"/>
<path d="M33.7175 5.17738C34.4892 3.9351 34.112 2.29973 32.8752 1.5247C31.6383 0.749661 30.0101 1.12844 29.2385 2.37073C28.4668 3.61301 28.844 5.24835 30.0808 6.02339C31.3177 6.79843 32.9459 6.41967 33.7175 5.17738Z" fill="#CED5DD"/>
<path d="M33.7175 16.5779C34.4892 15.3356 34.112 13.7002 32.8752 12.9252C31.6383 12.1502 30.0101 12.529 29.2385 13.7712C28.4668 15.0135 28.844 16.6489 30.0808 17.4239C31.3177 18.1989 32.9459 17.8202 33.7175 16.5779Z" fill="#CED5DD"/>
<path d="M33.7165 27.9784C34.4882 26.7361 34.1111 25.1008 32.8742 24.3257C31.6374 23.5507 30.0091 23.9295 29.2375 25.1718C28.4659 26.414 28.843 28.0494 30.0799 28.8244C31.3167 29.5995 32.9449 29.2207 33.7165 27.9784Z" fill="#CED5DD"/>
<path d="M31.4761 40.5996C32.9339 40.5996 34.1158 39.4126 34.1158 37.9483C34.1158 36.484 32.9339 35.297 31.4761 35.297C30.0182 35.297 28.8364 36.484 28.8364 37.9483C28.8364 39.4126 30.0182 40.5996 31.4761 40.5996Z" fill="#CED5DD"/>
<path d="M31.4761 52C32.9339 52 34.1158 50.813 34.1158 49.3487C34.1158 47.8845 32.9339 46.6974 31.4761 46.6974C30.0182 46.6974 28.8364 47.8845 28.8364 49.3487C28.8364 50.813 30.0182 52 31.4761 52Z" fill="#CED5DD"/>
<path d="M48.2591 4.16869C48.4927 2.72332 47.5155 1.36144 46.0764 1.12686C44.6373 0.892285 43.2814 1.87384 43.0479 3.31922C42.8143 4.7646 43.7916 6.12644 45.2306 6.36102C46.6697 6.59559 48.0256 5.61407 48.2591 4.16869Z" fill="#CED5DD"/>
<path d="M48.2591 15.5692C48.4927 14.1238 47.5155 12.7619 46.0764 12.5274C44.6373 12.2928 43.2814 13.2744 43.0479 14.7197C42.8143 16.1651 43.7916 17.527 45.2306 17.7615C46.6697 17.9961 48.0256 17.0146 48.2591 15.5692Z" fill="#CED5DD"/>
<path d="M48.2591 26.9697C48.4927 25.5243 47.5155 24.1625 46.0764 23.9279C44.6373 23.6933 43.2814 24.6749 43.0479 26.1202C42.8143 27.5656 43.7916 28.9275 45.2306 29.162C46.6697 29.3966 48.0256 28.4151 48.2591 26.9697Z" fill="#CED5DD"/>
<path d="M45.6426 40.5996C47.1005 40.5996 48.2823 39.4126 48.2823 37.9483C48.2823 36.484 47.1005 35.297 45.6426 35.297C44.1847 35.297 43.0029 36.484 43.0029 37.9483C43.0029 39.4126 44.1847 40.5996 45.6426 40.5996Z" fill="#CED5DD"/>
<path d="M45.6426 52C47.1005 52 48.2823 50.813 48.2823 49.3487C48.2823 47.8845 47.1005 46.6974 45.6426 46.6974C44.1847 46.6974 43.0029 47.8845 43.0029 49.3487C43.0029 50.813 44.1847 52 45.6426 52Z" fill="#CED5DD"/>
<path d="M62.3929 4.38939C62.7279 2.96436 61.8494 1.53637 60.4306 1.19988C59.0118 0.863388 57.5901 1.74583 57.255 3.17085C56.92 4.59588 57.7986 6.02388 59.2174 6.36037C60.6362 6.69686 62.0579 5.81441 62.3929 4.38939Z" fill="#CED5DD"/>
<path d="M62.3924 15.7903C62.7275 14.3652 61.8489 12.9372 60.4301 12.6008C59.0113 12.2643 57.5896 13.1467 57.2546 14.5717C56.9195 15.9968 57.7981 17.4248 59.2169 17.7612C60.6357 18.0977 62.0574 17.2153 62.3924 15.7903Z" fill="#CED5DD"/>
<path d="M62.392 27.1911C62.727 25.7661 61.8484 24.3381 60.4296 24.0016C59.0108 23.6651 57.5891 24.5476 57.2541 25.9726C56.919 27.3976 57.7976 28.8256 59.2164 29.1621C60.6352 29.4986 62.0569 28.6162 62.392 27.1911Z" fill="#CED5DD"/>
<path d="M59.8086 40.5996C61.2665 40.5996 62.4483 39.4126 62.4483 37.9483C62.4483 36.484 61.2665 35.297 59.8086 35.297C58.3508 35.297 57.1689 36.484 57.1689 37.9483C57.1689 39.4126 58.3508 40.5996 59.8086 40.5996Z" fill="#CED5DD"/>
<path d="M59.8086 52C61.2665 52 62.4483 50.813 62.4483 49.3487C62.4483 47.8845 61.2665 46.6974 59.8086 46.6974C58.3508 46.6974 57.1689 47.8845 57.1689 49.3487C57.1689 50.813 58.3508 52 59.8086 52Z" fill="#CED5DD"/>
<path d="M75.8364 5.62423C76.8673 4.58885 76.8673 2.91016 75.8364 1.87478C74.8056 0.839394 73.1342 0.839394 72.1033 1.87478C71.0725 2.91016 71.0725 4.58886 72.1033 5.62425C73.1342 6.65963 74.8055 6.65962 75.8364 5.62423Z" fill="#CED5DD"/>
<path d="M75.8364 17.0246C76.8673 15.9892 76.8673 14.3106 75.8364 13.2752C74.8056 12.2398 73.1342 12.2398 72.1033 13.2752C71.0725 14.3106 71.0725 15.9893 72.1033 17.0246C73.1342 18.06 74.8055 18.06 75.8364 17.0246Z" fill="#CED5DD"/>
<path d="M75.8359 28.4246C76.8668 27.3893 76.8668 25.7106 75.8359 24.6752C74.8051 23.6398 73.1337 23.6398 72.1029 24.6752C71.072 25.7106 71.072 27.3893 72.1029 28.4247C73.1337 29.46 74.8051 29.46 75.8359 28.4246Z" fill="#CED5DD"/>
<path d="M73.9747 40.5996C75.4325 40.5996 76.6144 39.4126 76.6144 37.9483C76.6144 36.484 75.4325 35.297 73.9747 35.297C72.5168 35.297 71.335 36.484 71.335 37.9483C71.335 39.4126 72.5168 40.5996 73.9747 40.5996Z" fill="#CED5DD"/>
<path d="M73.9747 52C75.4325 52 76.6144 50.813 76.6144 49.3487C76.6144 47.8845 75.4325 46.6974 73.9747 46.6974C72.5168 46.6974 71.335 47.8845 71.335 49.3487C71.335 50.813 72.5168 52 73.9747 52Z" fill="#CED5DD"/>
<path d="M90.7577 4.16792C90.9912 2.72254 90.014 1.36066 88.5749 1.12609C87.1359 0.891512 85.78 1.87307 85.5464 3.31845C85.3129 4.76383 86.2901 6.12571 87.7292 6.36029C89.1682 6.59486 90.5241 5.6133 90.7577 4.16792Z" fill="#CED5DD"/>
<path d="M90.7582 15.5684C90.9917 14.123 90.0145 12.7611 88.5754 12.5265C87.1364 12.292 85.7805 13.2735 85.5469 14.7189C85.3134 16.1643 86.2906 17.5262 87.7297 17.7607C89.1687 17.9953 90.5246 17.0138 90.7582 15.5684Z" fill="#CED5DD"/>
<path d="M90.7582 26.9689C90.9917 25.5235 90.0145 24.1616 88.5754 23.9271C87.1364 23.6925 85.7805 24.674 85.5469 26.1194C85.3134 27.5648 86.2906 28.9267 87.7297 29.1612C89.1687 29.3958 90.5246 28.4143 90.7582 26.9689Z" fill="#CED5DD"/>
<path d="M88.1412 40.5996C89.599 40.5996 90.7809 39.4126 90.7809 37.9483C90.7809 36.484 89.599 35.297 88.1412 35.297C86.6833 35.297 85.5015 36.484 85.5015 37.9483C85.5015 39.4126 86.6833 40.5996 88.1412 40.5996Z" fill="#CED5DD"/>
<path d="M88.1412 52C89.599 52 90.7809 50.813 90.7809 49.3487C90.7809 47.8845 89.599 46.6974 88.1412 46.6974C86.6833 46.6974 85.5015 47.8845 85.5015 49.3487C85.5015 50.813 86.6833 52 88.1412 52Z" fill="#CED5DD"/>
<path d="M104.893 4.39156C105.228 2.96654 104.35 1.53854 102.931 1.20205C101.512 0.865563 100.091 1.748 99.7555 3.17303C99.4205 4.59805 100.299 6.02602 101.718 6.3625C103.137 6.69899 104.558 5.81659 104.893 4.39156Z" fill="#CED5DD"/>
<path d="M104.893 15.7924C105.228 14.3674 104.349 12.9394 102.931 12.6029C101.512 12.2664 100.09 13.1489 99.755 14.5739C99.42 15.9989 100.299 17.4269 101.717 17.7634C103.136 18.0999 104.558 17.2175 104.893 15.7924Z" fill="#CED5DD"/>
<path d="M104.892 27.1933C105.227 25.7682 104.348 24.3402 102.93 24.0037C101.511 23.6673 100.089 24.5497 99.7541 25.9747C99.419 27.3998 100.298 28.8277 101.716 29.1642C103.135 29.5007 104.557 28.6183 104.892 27.1933Z" fill="#CED5DD"/>
<path d="M102.307 40.5996C103.765 40.5996 104.947 39.4126 104.947 37.9483C104.947 36.484 103.765 35.297 102.307 35.297C100.849 35.297 99.6675 36.484 99.6675 37.9483C99.6675 39.4126 100.849 40.5996 102.307 40.5996Z" fill="#CED5DD"/>
<path d="M102.307 52C103.765 52 104.947 50.813 104.947 49.3487C104.947 47.8845 103.765 46.6974 102.307 46.6974C100.849 46.6974 99.6675 47.8845 99.6675 49.3487C99.6675 50.813 100.849 52 102.307 52Z" fill="#CED5DD"/>
<path d="M118.334 5.62448C119.365 4.58909 119.365 2.91043 118.334 1.87505C117.304 0.839667 115.632 0.839638 114.601 1.87502C113.571 2.91041 113.571 4.58911 114.601 5.62449C115.632 6.65987 117.304 6.65986 118.334 5.62448Z" fill="#CED5DD"/>
<path d="M118.334 17.0249C119.365 15.9895 119.365 14.3109 118.334 13.2755C117.304 12.2401 115.632 12.2401 114.601 13.2755C113.571 14.3109 113.571 15.9896 114.601 17.0249C115.632 18.0603 117.304 18.0603 118.334 17.0249Z" fill="#CED5DD"/>
<path d="M118.334 28.425C119.365 27.3896 119.365 25.711 118.334 24.6756C117.304 23.6402 115.632 23.6402 114.601 24.6756C113.571 25.7109 113.571 27.3896 114.601 28.425C115.632 29.4604 117.304 29.4604 118.334 28.425Z" fill="#CED5DD"/>
<path d="M116.473 40.5996C117.931 40.5996 119.112 39.4126 119.112 37.9483C119.112 36.484 117.931 35.297 116.473 35.297C115.015 35.297 113.833 36.484 113.833 37.9483C113.833 39.4126 115.015 40.5996 116.473 40.5996Z" fill="#CED5DD"/>
<path d="M116.473 52C117.931 52 119.112 50.813 119.112 49.3487C119.112 47.8845 117.931 46.6974 116.473 46.6974C115.015 46.6974 113.833 47.8845 113.833 49.3487C113.833 50.813 115.015 52 116.473 52Z" fill="#CED5DD"/>
<path d="M133.257 4.16737C133.491 2.72199 132.514 1.36015 131.074 1.12558C129.635 0.891003 128.279 1.87252 128.046 3.3179C127.812 4.76328 128.79 6.12516 130.229 6.35974C131.668 6.59431 133.024 5.61275 133.257 4.16737Z" fill="#CED5DD"/>
<path d="M133.257 15.5679C133.491 14.1225 132.514 12.7607 131.074 12.5261C129.635 12.2915 128.279 13.273 128.046 14.7184C127.812 16.1638 128.79 17.5257 130.229 17.7602C131.668 17.9948 133.024 17.0133 133.257 15.5679Z" fill="#CED5DD"/>
<path d="M133.257 26.9684C133.491 25.523 132.514 24.1612 131.074 23.9266C129.635 23.692 128.279 24.6735 128.046 26.1189C127.812 27.5643 128.79 28.9262 130.229 29.1608C131.668 29.3953 133.024 28.4138 133.257 26.9684Z" fill="#CED5DD"/>
<path d="M130.639 40.5996C132.097 40.5996 133.278 39.4126 133.278 37.9483C133.278 36.484 132.097 35.297 130.639 35.297C129.181 35.297 127.999 36.484 127.999 37.9483C127.999 39.4126 129.181 40.5996 130.639 40.5996Z" fill="#CED5DD"/>
<path d="M130.639 52C132.097 52 133.278 50.813 133.278 49.3487C133.278 47.8845 132.097 46.6974 130.639 46.6974C129.181 46.6974 127.999 47.8845 127.999 49.3487C127.999 50.813 129.181 52 130.639 52Z" fill="#CED5DD"/>
<path d="M147.393 4.39366C147.728 2.96863 146.85 1.54064 145.431 1.20415C144.012 0.86766 142.591 1.7501 142.256 3.17513C141.921 4.60015 142.799 6.02815 144.218 6.36464C145.637 6.70113 147.058 5.81868 147.393 4.39366Z" fill="#CED5DD"/>
<path d="M147.392 15.7945C147.727 14.3695 146.849 12.9415 145.43 12.605C144.011 12.2685 142.59 13.151 142.255 14.576C141.92 16.001 142.798 17.429 144.217 17.7655C145.636 18.102 147.057 17.2196 147.392 15.7945Z" fill="#CED5DD"/>
<path d="M147.392 27.1954C147.727 25.7704 146.848 24.3424 145.43 24.0059C144.011 23.6694 142.589 24.5519 142.254 25.9769C141.919 27.4019 142.798 28.8299 144.216 29.1664C145.635 29.5029 147.057 28.6204 147.392 27.1954Z" fill="#CED5DD"/>
<path d="M144.805 40.5996C146.263 40.5996 147.444 39.4126 147.444 37.9483C147.444 36.484 146.263 35.297 144.805 35.297C143.347 35.297 142.165 36.484 142.165 37.9483C142.165 39.4126 143.347 40.5996 144.805 40.5996Z" fill="#CED5DD"/>
<path d="M144.805 52C146.263 52 147.444 50.813 147.444 49.3487C147.444 47.8845 146.263 46.6974 144.805 46.6974C143.347 46.6974 142.165 47.8845 142.165 49.3487C142.165 50.813 143.347 52 144.805 52Z" fill="#CED5DD"/>
</svg>
