<svg width="88" height="160" viewBox="0 0 88 160" fill="none" xmlns="http://www.w3.org/2000/svg">
<path d="M15.1201 1.52588e-05L15.1201 145.36L87.9996 145.36L87.9996 1.61279e-05L15.1201 1.52588e-05Z" fill="#FDD600"/>
<path d="M8.18802 154.079C7.44698 152.291 5.39598 151.442 3.60698 152.182C1.81799 152.923 0.968451 154.974 1.70949 156.762C2.45054 158.55 4.50154 159.399 6.29054 158.659C8.07953 157.918 8.92907 155.868 8.18802 154.079Z" fill="#0C2D57"/>
<path d="M20.5883 151.965C18.6769 151.655 16.876 152.952 16.5658 154.863C16.2556 156.774 17.5536 158.574 19.4649 158.884C21.3763 159.194 23.1773 157.897 23.4875 155.986C23.7977 154.075 22.4997 152.275 20.5883 151.965Z" fill="#0C2D57"/>
<path d="M38.6123 155.444C38.6123 153.508 37.0425 151.939 35.1062 151.939C33.1698 151.939 31.6001 153.508 31.6001 155.444C31.6001 157.379 33.1698 158.948 35.1062 158.948C37.0425 158.948 38.6123 157.379 38.6123 155.444Z" fill="#0C2D57"/>
<path d="M53.4151 154.079C52.674 152.291 50.623 151.441 48.834 152.182C47.045 152.923 46.1955 154.973 46.9365 156.762C47.6776 158.55 49.7286 159.399 51.5176 158.658C53.3066 157.918 54.1561 155.867 53.4151 154.079Z" fill="#0C2D57"/>
<path d="M65.8158 151.964C63.9044 151.654 62.1035 152.952 61.7933 154.862C61.4831 156.773 62.7811 158.573 64.6925 158.883C66.6038 159.194 68.4048 157.896 68.715 155.985C69.0252 154.075 67.7272 152.274 65.8158 151.964Z" fill="#0C2D57"/>
<path d="M7.43764 134.164C6.06845 132.795 3.84854 132.795 2.47935 134.164C1.11015 135.532 1.11015 137.752 2.47935 139.12C3.84854 140.489 6.06845 140.489 7.43764 139.12C8.80684 137.752 8.80684 135.532 7.43764 134.164Z" fill="#0C2D57"/>
<path d="M20.8936 133.203C19.0092 132.759 17.1208 133.925 16.6758 135.809C16.2308 137.693 17.3978 139.58 19.2822 140.025C21.1667 140.47 23.0551 139.303 23.5 137.42C23.945 135.536 22.7781 133.648 20.8936 133.203Z" fill="#0C2D57"/>
<path d="M38.6123 136.634C38.6123 134.699 37.0425 133.13 35.1062 133.13C33.1698 133.13 31.6001 134.699 31.6001 136.634C31.6001 138.57 33.1698 140.139 35.1062 140.139C37.0425 140.139 38.6123 138.57 38.6123 136.634Z" fill="#0C2D57"/>
<path d="M52.6637 134.164C51.2945 132.795 49.0746 132.795 47.7054 134.164C46.3362 135.533 46.3362 137.752 47.7054 139.121C49.0746 140.489 51.2945 140.489 52.6637 139.121C54.0329 137.752 54.0329 135.533 52.6637 134.164Z" fill="#0C2D57"/>
<path d="M66.1221 133.205C64.2377 132.76 62.3493 133.927 61.9043 135.811C61.4593 137.694 62.6263 139.582 64.5107 140.027C66.3952 140.472 68.2836 139.305 68.7285 137.421C69.1735 135.538 68.0066 133.65 66.1221 133.205Z" fill="#0C2D57"/>
<path d="M7.43813 115.355C6.06894 113.986 3.84903 113.986 2.47984 115.355C1.11064 116.724 1.11064 118.943 2.47984 120.312C3.84903 121.68 6.06894 121.68 7.43813 120.312C8.80733 118.943 8.80733 116.724 7.43813 115.355Z" fill="#0C2D57"/>
<path d="M20.8946 114.394C19.0101 113.949 17.1218 115.115 16.6768 116.999C16.2318 118.883 17.3987 120.771 19.2832 121.216C21.1677 121.66 23.056 120.494 23.501 118.61C23.946 116.726 22.779 114.839 20.8946 114.394Z" fill="#0C2D57"/>
<path d="M38.6123 117.825C38.6123 115.89 37.0425 114.321 35.1062 114.321C33.1698 114.321 31.6001 115.89 31.6001 117.825C31.6001 119.761 33.1698 121.33 35.1062 121.33C37.0425 121.33 38.6123 119.761 38.6123 117.825Z" fill="#0C2D57"/>
<path d="M52.6637 115.356C51.2945 113.987 49.0746 113.987 47.7054 115.356C46.3362 116.725 46.3362 118.944 47.7054 120.312C49.0746 121.681 51.2945 121.681 52.6637 120.312C54.0329 118.944 54.0329 116.725 52.6637 115.356Z" fill="#0C2D57"/>
<path d="M66.1231 114.396C64.2386 113.951 62.3503 115.118 61.9053 117.002C61.4603 118.885 62.6273 120.773 64.5117 121.218C66.3962 121.663 68.2846 120.496 68.7295 118.612C69.1745 116.729 68.0076 114.841 66.1231 114.396Z" fill="#0C2D57"/>
<path d="M7.43813 96.5464C6.06894 95.1777 3.84903 95.1777 2.47984 96.5464C1.11064 97.9151 1.11064 100.134 2.47984 101.503C3.84903 102.872 6.06894 102.872 7.43813 101.503C8.80733 100.134 8.80733 97.9151 7.43813 96.5464Z" fill="#0C2D57"/>
<path d="M20.8951 95.5832C19.0106 95.1384 17.1222 96.3049 16.6773 98.1887C16.2323 100.073 17.3992 101.96 19.2837 102.405C21.1681 102.85 23.0565 101.683 23.5015 99.7995C23.9465 97.9157 22.7795 96.028 20.8951 95.5832Z" fill="#0C2D57"/>
<path d="M38.6123 99.0169C38.6123 97.0812 37.0425 95.512 35.1062 95.512C33.1698 95.512 31.6001 97.0812 31.6001 99.0169C31.6001 100.953 33.1698 102.522 35.1062 102.522C37.0425 102.522 38.6123 100.953 38.6123 99.0169Z" fill="#0C2D57"/>
<path d="M52.6637 96.5478C51.2945 95.1791 49.0746 95.1791 47.7054 96.5478C46.3362 97.9166 46.3362 100.136 47.7054 101.504C49.0746 102.873 51.2945 102.873 52.6637 101.504C54.0329 100.136 54.0329 97.9166 52.6637 96.5478Z" fill="#0C2D57"/>
<path d="M66.1241 95.5865C64.2396 95.1417 62.3512 96.3082 61.9063 98.192C61.4613 100.076 62.6282 101.964 64.5127 102.408C66.3971 102.853 68.2855 101.687 68.7305 99.8028C69.1755 97.919 68.0085 96.0313 66.1241 95.5865Z" fill="#0C2D57"/>
<path d="M7.43813 77.7388C6.06894 76.37 3.84903 76.37 2.47984 77.7388C1.11064 79.1075 1.11064 81.3266 2.47984 82.6953C3.84903 84.064 6.06894 84.064 7.43813 82.6953C8.80733 81.3266 8.80733 79.1075 7.43813 77.7388Z" fill="#0C2D57"/>
<path d="M20.8961 76.7751C19.0116 76.3303 17.1232 77.4968 16.6782 79.3806C16.2333 81.2644 17.4002 83.1521 19.2847 83.5969C21.1691 84.0417 23.0575 82.8752 23.5025 80.9914C23.9474 79.1076 22.7805 77.2199 20.8961 76.7751Z" fill="#0C2D57"/>
<path d="M38.6123 80.2083C38.6123 78.2726 37.0425 76.7035 35.1062 76.7035C33.1698 76.7035 31.6001 78.2726 31.6001 80.2083C31.6001 82.144 33.1698 83.7131 35.1062 83.7131C37.0425 83.7131 38.6123 82.144 38.6123 80.2083Z" fill="#0C2D57"/>
<path d="M52.6637 77.7388C51.2945 76.37 49.0746 76.37 47.7054 77.7388C46.3362 79.1075 46.3362 81.3266 47.7054 82.6953C49.0746 84.064 51.2945 84.064 52.6637 82.6953C54.0329 81.3266 54.0329 79.1075 52.6637 77.7388Z" fill="#0C2D57"/>
<path d="M66.1251 76.7771C64.2406 76.3322 62.3522 77.4988 61.9072 79.3826C61.4623 81.2664 62.6292 83.1541 64.5137 83.5989C66.3981 84.0437 68.2865 82.8772 68.7315 80.9934C69.1765 79.1096 68.0095 77.2219 66.1251 76.7771Z" fill="#0C2D57"/>
<path d="M7.43813 58.9302C6.06894 57.5615 3.84903 57.5615 2.47984 58.9302C1.11064 60.2989 1.11064 62.518 2.47984 63.8867C3.84903 65.2554 6.06894 65.2554 7.43813 63.8867C8.80733 62.518 8.80733 60.2989 7.43813 58.9302Z" fill="#0C2D57"/>
<path d="M20.897 57.9655C19.0126 57.5207 17.1242 58.6872 16.6792 60.571C16.2342 62.4548 17.4012 64.3425 19.2856 64.7874C21.1701 65.2322 23.0585 64.0657 23.5035 62.1819C23.9484 60.2981 22.7815 58.4104 20.897 57.9655Z" fill="#0C2D57"/>
<path d="M38.6123 61.4002C38.6123 59.4645 37.0425 57.8953 35.1062 57.8953C33.1698 57.8953 31.6001 59.4645 31.6001 61.4002C31.6001 63.3359 33.1698 64.905 35.1062 64.905C37.0425 64.905 38.6123 63.3359 38.6123 61.4002Z" fill="#0C2D57"/>
<path d="M52.6637 58.9311C51.2945 57.5624 49.0746 57.5624 47.7054 58.9311C46.3362 60.2999 46.3362 62.519 47.7054 63.8877C49.0746 65.2564 51.2945 65.2564 52.6637 63.8877C54.0329 62.519 54.0329 60.2999 52.6637 58.9311Z" fill="#0C2D57"/>
<path d="M66.126 57.968C64.2416 57.5232 62.3532 58.6897 61.9082 60.5735C61.4632 62.4573 62.6302 64.345 64.5146 64.7898C66.3991 65.2346 68.2875 64.0681 68.7325 62.1843C69.1774 60.3005 68.0105 58.4128 66.126 57.968Z" fill="#0C2D57"/>
<path d="M7.43813 40.1221C6.06894 38.7534 3.84903 38.7534 2.47984 40.1221C1.11064 41.4908 1.11064 43.7099 2.47984 45.0786C3.84903 46.4473 6.06894 46.4473 7.43813 45.0786C8.80733 43.7099 8.80733 41.4908 7.43813 40.1221Z" fill="#0C2D57"/>
<path d="M20.898 39.1556C19.0135 38.7108 17.1252 39.8773 16.6802 41.7611C16.2352 43.6449 17.4022 45.5326 19.2866 45.9774C21.1711 46.4222 23.0595 45.2557 23.5044 43.3719C23.9494 41.4881 22.7825 39.6004 20.898 39.1556Z" fill="#0C2D57"/>
<path d="M38.6123 42.5915C38.6123 40.6558 37.0425 39.0866 35.1062 39.0866C33.1698 39.0866 31.6001 40.6558 31.6001 42.5915C31.6001 44.5271 33.1698 46.0963 35.1062 46.0963C37.0425 46.0963 38.6123 44.5271 38.6123 42.5915Z" fill="#0C2D57"/>
<path d="M52.6637 40.1226C51.2945 38.7538 49.0746 38.7538 47.7054 40.1226C46.3362 41.4913 46.3362 43.7104 47.7054 45.0791C49.0746 46.4478 51.2945 46.4478 52.6637 45.0791C54.0329 43.7104 54.0329 41.4913 52.6637 40.1226Z" fill="#0C2D57"/>
<path d="M66.126 39.1589C64.2416 38.7141 62.3532 39.8806 61.9082 41.7644C61.4632 43.6482 62.6302 45.5359 64.5146 45.9807C66.3991 46.4255 68.2875 45.259 68.7325 43.3752C69.1774 41.4914 68.0105 39.6037 66.126 39.1589Z" fill="#0C2D57"/>
<path d="M7.43862 21.3132C6.06942 19.9445 3.84952 19.9445 2.48032 21.3132C1.11113 22.6819 1.11113 24.9011 2.48032 26.2698C3.84952 27.6385 6.06943 27.6385 7.43862 26.2698C8.80782 24.9011 8.80782 22.6819 7.43862 21.3132Z" fill="#0C2D57"/>
<path d="M20.899 20.3465C19.0145 19.9017 17.1261 21.0682 16.6812 22.952C16.2362 24.8358 17.4031 26.7235 19.2876 27.1683C21.1721 27.6132 23.0604 26.4466 23.5054 24.5628C23.9504 22.679 22.7834 20.7913 20.899 20.3465Z" fill="#0C2D57"/>
<path d="M38.6123 23.7834C38.6123 21.8477 37.0425 20.2785 35.1062 20.2785C33.1698 20.2785 31.6001 21.8477 31.6001 23.7834C31.6001 25.719 33.1698 27.2882 35.1062 27.2882C37.0425 27.2882 38.6123 25.719 38.6123 23.7834Z" fill="#0C2D57"/>
<path d="M52.6647 21.3138C51.2955 19.9451 49.0756 19.9451 47.7064 21.3138C46.3372 22.6825 46.3372 24.9017 47.7064 26.2704C49.0756 27.6391 51.2955 27.6391 52.6647 26.2704C54.0339 24.9017 54.0339 22.6825 52.6647 21.3138Z" fill="#0C2D57"/>
<path d="M66.128 20.3488C64.2435 19.904 62.3552 21.0705 61.9102 22.9543C61.4652 24.8381 62.6321 26.7258 64.5166 27.1707C66.4011 27.6155 68.2894 26.449 68.7344 24.5652C69.1794 22.6814 68.0124 20.7937 66.128 20.3488Z" fill="#0C2D57"/>
</svg>
