<svg width="96" height="175" viewBox="0 0 96 175" fill="none" xmlns="http://www.w3.org/2000/svg">
<path d="M16.4951 0.392975L16.4951 159.024L96 159.024L96 0.392976L16.4951 0.392975Z" fill="#FDD600"/>
<path d="M8.93186 168.539C8.12345 166.587 5.88599 165.66 3.93436 166.469C1.98272 167.277 1.05596 169.515 1.86437 171.466C2.67278 173.418 4.91024 174.345 6.86187 173.536C8.8135 172.728 9.74027 170.49 8.93186 168.539Z" fill="#0C2D57"/>
<path d="M22.4598 166.231C20.3746 165.893 18.41 167.309 18.0716 169.394C17.7332 171.479 19.1492 173.444 21.2343 173.782C23.3194 174.12 25.2841 172.704 25.6225 170.619C25.9609 168.534 24.5449 166.569 22.4598 166.231Z" fill="#0C2D57"/>
<path d="M42.1228 170.028C42.1228 167.915 40.4103 166.203 38.298 166.203C36.1856 166.203 34.4731 167.915 34.4731 170.028C34.4731 172.14 36.1856 173.852 38.298 173.852C40.4103 173.852 42.1228 172.14 42.1228 170.028Z" fill="#0C2D57"/>
<path d="M58.2707 168.538C57.4623 166.587 55.2249 165.66 53.2732 166.468C51.3216 167.277 50.3948 169.514 51.2032 171.466C52.0116 173.417 54.2491 174.344 56.2007 173.536C58.1524 172.727 59.0791 170.49 58.2707 168.538Z" fill="#0C2D57"/>
<path d="M71.7991 166.231C69.714 165.892 67.7493 167.308 67.4109 169.393C67.0725 171.478 68.4885 173.443 70.5736 173.781C72.6588 174.12 74.6235 172.704 74.9619 170.619C75.3003 168.534 73.8843 166.569 71.7991 166.231Z" fill="#0C2D57"/>
<path d="M8.1137 146.805C6.62004 145.311 4.19832 145.311 2.70465 146.805C1.21099 148.299 1.21099 150.72 2.70465 152.214C4.19832 153.708 6.62004 153.708 8.1137 152.214C9.60737 150.72 9.60737 148.299 8.1137 146.805Z" fill="#0C2D57"/>
<path d="M22.7929 145.757C20.7371 145.271 18.6771 146.544 18.1917 148.6C17.7062 150.656 18.9792 152.716 21.035 153.202C23.0908 153.687 25.1508 152.414 25.6363 150.358C26.1217 148.302 24.8487 146.242 22.7929 145.757Z" fill="#0C2D57"/>
<path d="M42.1228 149.501C42.1228 147.389 40.4103 145.677 38.298 145.677C36.1856 145.677 34.4731 147.389 34.4731 149.501C34.4731 151.614 36.1856 153.326 38.298 153.326C40.4103 153.326 42.1228 151.614 42.1228 149.501Z" fill="#0C2D57"/>
<path d="M57.4511 146.805C55.9574 145.312 53.5357 145.312 52.0421 146.805C50.5484 148.299 50.5484 150.721 52.0421 152.214C53.5357 153.708 55.9574 153.708 57.4511 152.214C58.9448 150.721 58.9448 148.299 57.4511 146.805Z" fill="#0C2D57"/>
<path d="M72.1332 145.759C70.0775 145.274 68.0174 146.547 67.532 148.602C67.0466 150.658 68.3196 152.718 70.3753 153.204C72.4311 153.689 74.4912 152.416 74.9766 150.36C75.462 148.304 74.189 146.244 72.1332 145.759Z" fill="#0C2D57"/>
<path d="M8.11419 126.279C6.62053 124.786 4.19881 124.786 2.70514 126.279C1.21148 127.773 1.21148 130.195 2.70514 131.688C4.19881 133.182 6.62053 133.182 8.11419 131.688C9.60786 130.195 9.60786 127.773 8.11419 126.279Z" fill="#0C2D57"/>
<path d="M22.7939 125.23C20.7381 124.745 18.6781 126.018 18.1926 128.074C17.7072 130.129 18.9802 132.189 21.036 132.675C23.0918 133.16 25.1518 131.887 25.6372 129.831C26.1227 127.776 24.8497 125.716 22.7939 125.23Z" fill="#0C2D57"/>
<path d="M42.1228 128.975C42.1228 126.863 40.4103 125.15 38.298 125.15C36.1856 125.15 34.4731 126.863 34.4731 128.975C34.4731 131.088 36.1856 132.8 38.298 132.8C40.4103 132.8 42.1228 131.088 42.1228 128.975Z" fill="#0C2D57"/>
<path d="M57.4516 126.28C55.9579 124.787 53.5362 124.787 52.0425 126.28C50.5489 127.774 50.5489 130.196 52.0425 131.689C53.5362 133.183 55.9579 133.183 57.4516 131.689C58.9453 130.196 58.9453 127.774 57.4516 126.28Z" fill="#0C2D57"/>
<path d="M72.1342 125.233C70.0784 124.747 68.0184 126.02 67.533 128.076C67.0475 130.132 68.3206 132.192 70.3763 132.677C72.4321 133.163 74.4921 131.89 74.9776 129.834C75.463 127.778 74.19 125.718 72.1342 125.233Z" fill="#0C2D57"/>
<path d="M8.11419 105.753C6.62053 104.26 4.19881 104.26 2.70514 105.753C1.21148 107.247 1.21148 109.669 2.70514 111.163C4.19881 112.656 6.62053 112.656 8.11419 111.163C9.60786 109.669 9.60786 107.247 8.11419 105.753Z" fill="#0C2D57"/>
<path d="M22.7949 104.702C20.7391 104.217 18.679 105.49 18.1936 107.546C17.7082 109.602 18.9812 111.662 21.037 112.147C23.0927 112.632 25.1528 111.359 25.6382 109.304C26.1236 107.248 24.8506 105.188 22.7949 104.702Z" fill="#0C2D57"/>
<path d="M42.1228 108.449C42.1228 106.337 40.4103 104.625 38.298 104.625C36.1856 104.625 34.4731 106.337 34.4731 108.449C34.4731 110.562 36.1856 112.274 38.298 112.274C40.4103 112.274 42.1228 110.562 42.1228 108.449Z" fill="#0C2D57"/>
<path d="M57.4516 105.755C55.9579 104.261 53.5362 104.261 52.0425 105.755C50.5489 107.249 50.5489 109.67 52.0425 111.164C53.5362 112.658 55.9579 112.658 57.4516 111.164C58.9453 109.67 58.9453 107.249 57.4516 105.755Z" fill="#0C2D57"/>
<path d="M72.1352 104.706C70.0794 104.22 68.0194 105.494 67.5339 107.549C67.0485 109.605 68.3215 111.665 70.3773 112.151C72.4331 112.636 74.4931 111.363 74.9786 109.307C75.464 107.251 74.191 105.191 72.1352 104.706Z" fill="#0C2D57"/>
<path d="M8.11419 85.2288C6.62053 83.7351 4.19881 83.7351 2.70514 85.2288C1.21148 86.7224 1.21148 89.1442 2.70514 90.6378C4.19881 92.1315 6.62053 92.1315 8.11419 90.6378C9.60786 89.1442 9.60786 86.7224 8.11419 85.2288Z" fill="#0C2D57"/>
<path d="M22.7958 84.1772C20.7401 83.6917 18.68 84.9648 18.1946 87.0205C17.7092 89.0763 18.9822 91.1364 21.0379 91.6218C23.0937 92.1072 25.1538 90.8342 25.6392 88.7784C26.1246 86.7227 24.8516 84.6626 22.7958 84.1772Z" fill="#0C2D57"/>
<path d="M42.1228 87.9237C42.1228 85.8113 40.4103 84.0989 38.298 84.0989C36.1856 84.0989 34.4731 85.8113 34.4731 87.9237C34.4731 90.0361 36.1856 91.7485 38.298 91.7485C40.4103 91.7485 42.1228 90.0361 42.1228 87.9237Z" fill="#0C2D57"/>
<path d="M57.4516 85.2288C55.9579 83.7351 53.5362 83.7351 52.0425 85.2288C50.5489 86.7224 50.5489 89.1442 52.0425 90.6378C53.5362 92.1315 55.9579 92.1315 57.4516 90.6378C58.9453 89.1442 58.9453 86.7224 57.4516 85.2288Z" fill="#0C2D57"/>
<path d="M72.1362 84.1793C70.0804 83.6938 68.0203 84.9668 67.5349 87.0226C67.0495 89.0784 68.3225 91.1384 70.3783 91.6239C72.4341 92.1093 74.4941 90.8363 74.9795 88.7805C75.465 86.7247 74.1919 84.6647 72.1362 84.1793Z" fill="#0C2D57"/>
<path d="M8.11419 64.7031C6.62053 63.2094 4.19881 63.2094 2.70514 64.7031C1.21148 66.1967 1.21148 68.6185 2.70514 70.1121C4.19881 71.6058 6.62053 71.6058 8.11419 70.1121C9.60786 68.6185 9.60786 66.1967 8.11419 64.7031Z" fill="#0C2D57"/>
<path d="M22.7968 63.6504C20.741 63.165 18.681 64.438 18.1956 66.4938C17.7101 68.5496 18.9831 70.6096 21.0389 71.0951C23.0947 71.5805 25.1547 70.3075 25.6402 68.2517C26.1256 66.1959 24.8526 64.1359 22.7968 63.6504Z" fill="#0C2D57"/>
<path d="M42.1228 67.3985C42.1228 65.2861 40.4103 63.5737 38.298 63.5737C36.1856 63.5737 34.4731 65.2861 34.4731 67.3985C34.4731 69.5109 36.1856 71.2233 38.298 71.2233C40.4103 71.2233 42.1228 69.5109 42.1228 67.3985Z" fill="#0C2D57"/>
<path d="M57.4516 64.7041C55.9579 63.2104 53.5362 63.2104 52.0425 64.7041C50.5489 66.1978 50.5489 68.6195 52.0425 70.1132C53.5362 71.6068 55.9579 71.6068 57.4516 70.1132C58.9453 68.6195 58.9453 66.1978 57.4516 64.7041Z" fill="#0C2D57"/>
<path d="M72.1367 63.653C70.0809 63.1676 68.0208 64.4406 67.5354 66.4964C67.05 68.5521 68.323 70.6122 70.3788 71.0976C72.4345 71.583 74.4946 70.31 74.98 68.2543C75.4654 66.1985 74.1924 64.1384 72.1367 63.653Z" fill="#0C2D57"/>
<path d="M8.11419 44.1779C6.62053 42.6842 4.19881 42.6842 2.70514 44.1779C1.21148 45.6715 1.21148 48.0933 2.70514 49.5869C4.19881 51.0806 6.62053 51.0806 8.11419 49.5869C9.60786 48.0933 9.60786 45.6715 8.11419 44.1779Z" fill="#0C2D57"/>
<path d="M22.7978 43.1232C20.742 42.6377 18.682 43.9108 18.1965 45.9665C17.7111 48.0223 18.9841 50.0823 21.0399 50.5678C23.0957 51.0532 25.1557 49.7802 25.6411 47.7244C26.1266 45.6686 24.8536 43.6086 22.7978 43.1232Z" fill="#0C2D57"/>
<path d="M42.1228 46.8728C42.1228 44.7604 40.4103 43.048 38.298 43.048C36.1856 43.048 34.4731 44.7604 34.4731 46.8728C34.4731 48.9852 36.1856 50.6976 38.298 50.6976C40.4103 50.6976 42.1228 48.9852 42.1228 46.8728Z" fill="#0C2D57"/>
<path d="M57.4516 44.1784C55.9579 42.6847 53.5362 42.6847 52.0425 44.1784C50.5489 45.672 50.5489 48.0937 52.0425 49.5874C53.5362 51.0811 55.9579 51.0811 57.4516 49.5874C58.9453 48.0937 58.9453 45.672 57.4516 44.1784Z" fill="#0C2D57"/>
<path d="M72.1376 43.1268C70.0819 42.6413 68.0218 43.9144 67.5364 45.9701C67.051 48.0259 68.324 50.0859 70.3797 50.5714C72.4355 51.0568 74.4956 49.7838 74.981 47.728C75.4664 45.6722 74.1934 43.6122 72.1376 43.1268Z" fill="#0C2D57"/>
<path d="M8.11468 23.6519C6.62101 22.1582 4.1993 22.1582 2.70563 23.6519C1.21196 25.1455 1.21196 27.5672 2.70563 29.0609C4.1993 30.5546 6.62101 30.5546 8.11468 29.0609C9.60835 27.5672 9.60835 25.1455 8.11468 23.6519Z" fill="#0C2D57"/>
<path d="M22.7988 22.597C20.743 22.1115 18.6829 23.3846 18.1975 25.4403C17.7121 27.4961 18.9851 29.5562 21.0409 30.0416C23.0966 30.527 25.1567 29.254 25.6421 27.1982C26.1276 25.1425 24.8545 23.0824 22.7988 22.597Z" fill="#0C2D57"/>
<path d="M42.1228 26.3476C42.1228 24.2352 40.4103 22.5228 38.298 22.5228C36.1856 22.5228 34.4731 24.2352 34.4731 26.3476C34.4731 28.46 36.1856 30.1724 38.298 30.1724C40.4103 30.1724 42.1228 28.46 42.1228 26.3476Z" fill="#0C2D57"/>
<path d="M57.4521 23.6527C55.9584 22.159 53.5367 22.159 52.043 23.6527C50.5494 25.1463 50.5494 27.568 52.043 29.0617C53.5367 30.5554 55.9584 30.5554 57.4521 29.0617C58.9458 27.568 58.9458 25.1463 57.4521 23.6527Z" fill="#0C2D57"/>
<path d="M72.1391 22.5995C70.0833 22.1141 68.0233 23.3871 67.5378 25.4429C67.0524 27.4987 68.3254 29.5587 70.3812 30.0442C72.437 30.5296 74.497 29.2566 74.9825 27.2008C75.4679 25.145 74.1949 23.085 72.1391 22.5995Z" fill="#0C2D57"/>
</svg>
