<svg width="40" height="40" viewBox="0 0 40 40" fill="none" xmlns="http://www.w3.org/2000/svg">
<g clip-path="url(#clip0_846_478)">
<path d="M38.7906 10.1453C37.7414 6.27969 33.7211 2.25937 29.8555 1.21016C27.4859 0.61875 24.3102 0.0101562 20 0C15.6906 0.0109375 12.5148 0.61875 10.1453 1.21016C6.27969 2.26016 2.25938 6.27969 1.21016 10.1453C0.61875 12.5148 0.0109375 15.6906 0 20C0.0109375 24.3102 0.61875 27.4859 1.21016 29.8555C2.25938 33.7211 6.27969 37.7406 10.1453 38.7906C12.5148 39.382 15.6922 39.9898 20 40.0008C24.3102 39.9898 27.4859 39.382 29.8555 38.7906C33.7211 37.7406 37.7414 33.7211 38.7906 29.8555C39.382 27.4859 39.9898 24.3086 40.0008 20C39.9898 15.6906 39.382 12.5148 38.7906 10.1453Z" fill="#FFF1E4"/>
<path d="M20.0123 6.72266H19.9881C18.5444 6.72266 17.1149 7.00702 15.7811 7.55952C14.4473 8.11202 13.2354 8.92182 12.2146 9.9427C11.1938 10.9636 10.3841 12.1755 9.83168 13.5093C9.27928 14.8432 8.99501 16.2727 8.99512 17.7164C8.99512 24.5047 16.092 31.6789 19.5475 33.1852C19.6921 33.2482 19.8482 33.2807 20.0061 33.2807C20.1639 33.2807 20.32 33.2482 20.4646 33.1852C23.9193 31.6812 31.0053 24.507 31.0053 17.7164C31.0054 16.2727 30.7211 14.8432 30.1687 13.5093C29.6163 12.1755 28.8066 10.9636 27.7858 9.9427C26.765 8.92182 25.5531 8.11202 24.2193 7.55952C22.8855 7.00702 21.456 6.72266 20.0123 6.72266Z" fill="url(#paint0_linear_846_478)"/>
<path d="M19.9998 21.3984C19.2308 21.3983 18.4791 21.1701 17.8398 20.7428C17.2005 20.3154 16.7022 19.7081 16.4081 18.9976C16.1139 18.2871 16.037 17.5053 16.1871 16.7511C16.3372 15.9969 16.7076 15.3042 17.2514 14.7604C17.7953 14.2167 18.4881 13.8465 19.2423 13.6965C19.9965 13.5466 20.7783 13.6236 21.4887 13.9179C22.1992 14.2122 22.8064 14.7106 23.2336 15.35C23.6608 15.9894 23.8889 16.7412 23.8889 17.5102C23.8889 18.0208 23.7883 18.5265 23.5928 18.9983C23.3974 19.4701 23.1109 19.8988 22.7497 20.2599C22.3886 20.6209 21.9599 20.9073 21.488 21.1027C21.0162 21.298 20.5105 21.3985 19.9998 21.3984Z" fill="url(#paint1_linear_846_478)"/>
</g>
<defs>
<linearGradient id="paint0_linear_846_478" x1="31.0053" y1="6.72266" x2="8.99512" y2="6.72266" gradientUnits="userSpaceOnUse">
<stop stop-color="#FF8911"/>
<stop offset="1" stop-color="#F83600"/>
</linearGradient>
<linearGradient id="paint1_linear_846_478" x1="22.7498" y1="20.2602" x2="17.2506" y2="14.7609" gradientUnits="userSpaceOnUse">
<stop stop-color="#FFD2D2"/>
<stop offset="0.57" stop-color="white"/>
<stop offset="1" stop-color="white"/>
</linearGradient>
<clipPath id="clip0_846_478">
<rect width="40" height="40" fill="white"/>
</clipPath>
</defs>
</svg>
