<svg width="32" height="32" viewBox="0 0 32 32" fill="none" xmlns="http://www.w3.org/2000/svg">
<g clip-path="url(#clip0_4_2)">
<mask id="mask0_4_2" style="mask-type:luminance" maskUnits="userSpaceOnUse" x="0" y="0" width="32" height="32">
<path d="M32 0H0V32H32V0Z" fill="white"/>
</mask>
<g mask="url(#mask0_4_2)">
<path d="M2.2684 14.3304C3.09192 9.65925 6.38944 5.83497 10.754 4.25922L10.5491 4.61431C10.4798 4.73197 10.4344 4.86219 10.4157 4.99747C10.3969 5.13275 10.4052 5.2704 10.4399 5.40247C10.4747 5.53455 10.5352 5.65844 10.6181 5.76699C10.701 5.87553 10.8045 5.96659 10.9228 6.03491C11.041 6.10322 11.1716 6.14744 11.3071 6.16501C11.4425 6.18257 11.5801 6.17314 11.7119 6.13726C11.8436 6.10137 11.967 6.03975 12.0748 5.95594C12.1826 5.87212 12.2728 5.76779 12.3401 5.64894L13.7659 3.18046C13.8339 3.06286 13.878 2.93302 13.8958 2.79836C13.9136 2.6637 13.9047 2.52685 13.8696 2.39564C13.8344 2.26443 13.7738 2.14143 13.6911 2.03366C13.6084 1.9259 13.5053 1.83548 13.3877 1.76757L10.9185 0.341581C10.6811 0.206065 10.3997 0.170066 10.1358 0.241453C9.87188 0.31284 9.64698 0.485806 9.51026 0.722536C9.37353 0.959266 9.33609 1.2405 9.40613 1.50476C9.47617 1.76901 9.64798 1.99478 9.88401 2.13272L10.1416 2.28151C5.04563 4.08575 1.19019 8.53305 0.231528 13.9711C-0.232356 16.5994 0.00386089 19.3081 0.91453 21.8046C1.00861 22.0622 1.20113 22.272 1.44979 22.3877C1.69844 22.5034 1.98287 22.5156 2.24054 22.4217C2.36814 22.3752 2.48532 22.304 2.58539 22.2121C2.68546 22.1203 2.76647 22.0097 2.82379 21.8865C2.8811 21.7634 2.9136 21.6302 2.91943 21.4945C2.92526 21.3588 2.90431 21.2233 2.85777 21.0957C2.07148 18.9405 1.86767 16.6012 2.2684 14.3304ZM26.7031 24.9179C26.5992 24.8305 26.479 24.7644 26.3495 24.7235C26.22 24.6825 26.0837 24.6674 25.9484 24.6792C25.8131 24.6909 25.6814 24.7291 25.5609 24.7918C25.4404 24.8544 25.3333 24.9401 25.246 25.0441C22.2373 28.6232 17.5122 30.3433 12.9129 29.5315C10.6805 29.1378 8.59744 28.1697 6.86394 26.7471H7.19668C7.47098 26.7471 7.73404 26.6382 7.92799 26.4442C8.12195 26.2502 8.23091 25.9872 8.23091 25.7129C8.23091 25.4386 8.12195 25.1755 7.92799 24.9816C7.73404 24.7876 7.47098 24.6787 7.19668 24.6787H4.4433C4.30698 24.6656 4.16942 24.6798 4.03865 24.7205C3.90788 24.7611 3.78654 24.8275 3.6817 24.9156C3.475 25.0886 3.34435 25.3358 3.31779 25.6041L3.31738 25.6069C3.31455 25.6365 3.31303 25.6671 3.31283 25.6969C3.31269 25.7021 3.312 25.7071 3.312 25.7123L3.3109 28.5627C3.31084 28.6985 3.33754 28.833 3.38946 28.9585C3.44139 29.084 3.51752 29.198 3.61352 29.2941C3.70952 29.3902 3.8235 29.4664 3.94896 29.5184C4.07441 29.5704 4.20889 29.5972 4.34471 29.5973C4.61893 29.5973 4.88234 29.4884 5.07628 29.2945C5.27022 29.1007 5.37924 28.8377 5.37934 28.5635L5.37948 28.2033C7.41966 29.9283 9.8956 31.0997 12.5537 31.5684C13.4184 31.7209 14.2948 31.7976 15.1729 31.7976C19.6161 31.7976 23.9176 29.8388 26.8293 26.3751C27.0058 26.1651 27.0917 25.8936 27.068 25.6204C27.0443 25.3471 26.9131 25.0944 26.7031 24.9179ZM31.8613 19.6475C31.7241 19.41 31.4982 19.2367 31.2333 19.1657C30.9684 19.0947 30.6861 19.1318 30.4485 19.269L30.1083 19.4654C30.1224 19.3923 30.139 19.3196 30.1518 19.2464C30.8563 15.2499 29.9626 11.2186 27.6352 7.89473C25.3077 4.57087 21.8253 2.35253 17.8295 1.64856C17.6957 1.62499 17.5586 1.628 17.426 1.65741C17.2935 1.68682 17.168 1.74207 17.0567 1.81999C16.9455 1.89791 16.8507 1.99698 16.7777 2.11154C16.7048 2.2261 16.6551 2.35391 16.6316 2.48767C16.584 2.75779 16.6456 3.03576 16.8029 3.26044C16.9603 3.48511 17.2004 3.63809 17.4705 3.68571C20.9222 4.29383 23.9306 6.21005 25.941 9.08133C27.9474 11.9467 28.72 15.4208 28.1185 18.8662L27.9669 18.6038C27.8298 18.3662 27.604 18.1928 27.339 18.1218C27.0741 18.0507 26.7918 18.0879 26.5542 18.225C26.3166 18.3621 26.1432 18.588 26.0722 18.8529C26.0012 19.1178 26.0383 19.4001 26.1754 19.6377L27.6007 22.1073C27.7378 22.3449 27.9637 22.5182 28.2287 22.5892C28.4937 22.6603 28.776 22.6231 29.0136 22.486L31.4828 21.0604C31.7203 20.9232 31.8936 20.6973 31.9646 20.4323C32.0356 20.1674 31.9984 19.8851 31.8613 19.6475Z" fill="#0C2D57"/>
</g>
</g>
<defs>
<clipPath id="clip0_4_2">
<rect width="32" height="32" fill="white"/>
</clipPath>
</defs>
</svg>
