<svg width="32" height="32" viewBox="0 0 32 32" fill="none" xmlns="http://www.w3.org/2000/svg">
<path d="M16.4 22.2L19.333 20L16.4 17.8C16.2949 17.7212 16.2064 17.6225 16.1395 17.5095C16.0726 17.3965 16.0286 17.2714 16.01 17.1414C15.9915 17.0114 15.9987 16.879 16.0313 16.7518C16.0639 16.6246 16.1212 16.5051 16.2 16.4C16.2788 16.2949 16.3775 16.2064 16.4905 16.1395C16.6035 16.0726 16.7286 16.0286 16.8586 16.01C16.9886 15.9915 17.121 15.9987 17.2482 16.0313C17.3754 16.0639 17.4949 16.1212 17.6 16.2L21.6 19.2C21.7244 19.293 21.8254 19.4138 21.8949 19.5526C21.9645 19.6915 22.0007 19.8447 22.0007 20C22.0007 20.1553 21.9645 20.3085 21.8949 20.4474C21.8254 20.5862 21.7244 20.707 21.6 20.8L17.6 23.8C17.495 23.879 17.3755 23.9366 17.2483 23.9693C17.121 24.0021 16.9885 24.0094 16.8585 23.9908C16.7284 23.9722 16.6033 23.9281 16.4903 23.861C16.3773 23.794 16.2786 23.7053 16.2 23.6C16.1211 23.495 16.0636 23.3755 16.031 23.2482C15.9983 23.121 15.9911 22.9886 16.0096 22.8585C16.0282 22.7285 16.0723 22.6034 16.1392 22.4904C16.2062 22.3774 16.2948 22.2787 16.4 22.2ZM9.2 23.6C9.27846 23.7055 9.37703 23.7944 9.49002 23.8616C9.60301 23.9288 9.72819 23.973 9.85834 23.9916C9.98849 24.0102 10.121 24.0028 10.2483 23.97C10.3756 23.9371 10.4951 23.8793 10.6 23.8L14.6 20.8C14.7244 20.707 14.8254 20.5862 14.8949 20.4474C14.9645 20.3085 15.0007 20.1553 15.0007 20C15.0007 19.8447 14.9645 19.6915 14.8949 19.5526C14.8254 19.4138 14.7244 19.293 14.6 19.2L10.6 16.2C10.4949 16.1212 10.3754 16.0639 10.2482 16.0313C10.121 15.9987 9.98858 15.9915 9.85858 16.01C9.59603 16.0476 9.35913 16.1878 9.2 16.4C9.04087 16.6122 8.97254 16.8789 9.01005 17.1414C9.04756 17.404 9.18783 17.6409 9.4 17.8L12.333 20L9.4 22.2C9.29483 22.2787 9.20622 22.3774 9.13924 22.4904C9.07226 22.6034 9.02822 22.7285 9.00964 22.8585C8.99106 22.9886 8.99831 23.121 9.03098 23.2482C9.06364 23.3755 9.12108 23.495 9.2 23.6ZM30 7V27C30 28.654 28.654 30 27 30H5C3.346 30 2 28.654 2 27V7C2 5.346 3.346 4 5 4H6V3C6 2.73478 6.10536 2.48043 6.29289 2.29289C6.48043 2.10536 6.73478 2 7 2C7.26522 2 7.51957 2.10536 7.70711 2.29289C7.89464 2.48043 8 2.73478 8 3V4H15V3C15 2.73478 15.1054 2.48043 15.2929 2.29289C15.4804 2.10536 15.7348 2 16 2C16.2652 2 16.5196 2.10536 16.7071 2.29289C16.8946 2.48043 17 2.73478 17 3V4H24V3C24 2.73478 24.1054 2.48043 24.2929 2.29289C24.4804 2.10536 24.7348 2 25 2C25.2652 2 25.5196 2.10536 25.7071 2.29289C25.8946 2.48043 26 2.73478 26 3V4H27C28.654 4 30 5.346 30 7ZM4 7V10H28V7C28 6.448 27.551 6 27 6H26V7C26 7.26522 25.8946 7.51957 25.7071 7.70711C25.5196 7.89464 25.2652 8 25 8C24.7348 8 24.4804 7.89464 24.2929 7.70711C24.1054 7.51957 24 7.26522 24 7V6H17V7C17 7.26522 16.8946 7.51957 16.7071 7.70711C16.5196 7.89464 16.2652 8 16 8C15.7348 8 15.4804 7.89464 15.2929 7.70711C15.1054 7.51957 15 7.26522 15 7V6H8V7C8 7.26522 7.89464 7.51957 7.70711 7.70711C7.51957 7.89464 7.26522 8 7 8C6.73478 8 6.48043 7.89464 6.29289 7.70711C6.10536 7.51957 6 7.26522 6 7V6H5C4.449 6 4 6.448 4 7ZM28 12H4V27C4 27.552 4.449 28 5 28H27C27.551 28 28 27.552 28 27V12Z" fill="#0C2D57"/>
</svg>
