<svg width="33" height="32" viewBox="0 0 33 32" fill="none" xmlns="http://www.w3.org/2000/svg">
<path d="M32 16.0004C32 20.1409 30.3877 24.0335 27.46 26.9611C24.533 29.8881 20.6406 31.5 16.5 31.5C15.9823 31.5 15.5625 31.0802 15.5625 30.5625C15.5625 30.0448 15.9823 29.625 16.5 29.625C20.1398 29.625 23.5613 28.2081 26.1342 25.6353C28.7077 23.0619 30.125 19.6402 30.125 16.0005C30.125 12.3608 28.7077 8.93913 26.1342 6.36575C20.822 1.05362 12.1782 1.05356 6.86575 6.36575C1.55375 11.6776 1.55381 20.3219 6.86587 25.6354C6.90656 25.6761 6.948 25.7161 6.98925 25.7564V25.3451C6.98925 24.8273 7.409 24.4076 7.92675 24.4076C8.4445 24.4076 8.86425 24.8273 8.86425 25.3451V28.0221C8.86425 28.5398 8.4445 28.9596 7.92675 28.9596H5.24969C4.73194 28.9596 4.31219 28.5398 4.31219 28.0221C4.31219 27.5043 4.73194 27.0846 5.24969 27.0846H5.66581C5.62381 27.0435 5.5815 27.0027 5.54 26.9612C2.61231 24.0326 1 20.1398 1 15.9998C1 11.8597 2.61231 7.96737 5.54 5.03981C8.46762 2.11231 12.36 0.5 16.5 0.5C20.64 0.5 24.5324 2.11225 27.46 5.03981C30.3877 7.96737 32 11.8599 32 16.0004ZM14.6308 23.4062C13.9847 23.4062 13.3356 23.1854 12.8078 22.7337C12.7348 22.6707 12.6648 22.6043 12.5979 22.5348L8.44775 18.2998C7.92325 17.7676 7.63681 17.0604 7.64306 16.3102C7.64937 15.5611 7.94675 14.8588 8.48063 14.3326C9.0105 13.8117 9.70862 13.526 10.4494 13.526L10.4734 13.5261C11.2231 13.5323 11.9253 13.83 12.4506 14.3644L14.4989 16.4534L20.4188 9.57187C20.9066 9.00269 21.5869 8.65738 22.3347 8.59956C23.0826 8.542 23.8074 8.7785 24.376 9.26606C24.9451 9.75288 25.2911 10.4329 25.3493 11.1804C25.4076 11.9279 25.1712 12.6535 24.6836 13.2234L16.766 22.4272C16.2114 23.0739 15.4233 23.4062 14.6308 23.4062ZM15.3437 21.2055L23.2606 12.0026C23.34 11.9099 23.4002 11.8024 23.4379 11.6863C23.4755 11.5703 23.4899 11.4479 23.48 11.3263C23.4708 11.2041 23.4374 11.085 23.3819 10.9758C23.3263 10.8666 23.2496 10.7695 23.1563 10.6902C23.0637 10.6103 22.9562 10.5497 22.84 10.5117C22.7237 10.4737 22.6011 10.4592 22.4792 10.469C22.3569 10.4781 22.2375 10.5114 22.1281 10.567C22.0187 10.6225 21.9214 10.6992 21.8419 10.7927L21.8402 10.7946L15.2548 18.4499C15.1701 18.5483 15.066 18.628 14.9489 18.684C14.8318 18.7401 14.7044 18.7712 14.5747 18.7754C14.4449 18.7796 14.3157 18.7569 14.1953 18.7086C14.0748 18.6603 13.9656 18.5875 13.8748 18.4949L11.1127 15.6779C11.0272 15.5908 10.9254 15.5215 10.813 15.4739C10.7006 15.4264 10.5799 15.4016 10.4579 15.4009H10.4499C10.2037 15.4009 9.97188 15.4959 9.79594 15.6689C9.70856 15.7546 9.63901 15.8568 9.59131 15.9696C9.54361 16.0823 9.51869 16.2034 9.518 16.3258C9.51661 16.448 9.53949 16.5692 9.58534 16.6825C9.63119 16.7957 9.69907 16.8988 9.78506 16.9856L13.9399 21.2253L13.9453 21.2309C13.9752 21.2618 14.0036 21.2889 14.0297 21.3115C14.4174 21.6432 15.0083 21.5968 15.3438 21.2055H15.3437Z" fill="#0C2D57"/>
</svg>
