<svg width="56" height="56" viewBox="0 0 56 56" fill="none" xmlns="http://www.w3.org/2000/svg">
<path d="M46.8101 8.92078H44.0767C43.6686 8.92078 43.4103 9.17923 43.4103 9.46481H43.4102V18.3043C43.4102 18.6715 43.8454 18.8619 44.2941 18.8619C44.7293 18.8619 45.1781 18.6716 45.1781 18.3043V15.1493H46.7013C48.4964 15.1493 49.8972 14.2925 49.8972 12.0622V11.9807C49.8972 9.75038 48.5372 8.92078 46.8101 8.92078ZM48.1291 12.1983C48.1291 13.259 47.5852 13.7622 46.7012 13.7622H45.1781V10.4712H46.7012C47.5852 10.4712 48.1291 10.9744 48.1291 12.0351V12.1983Z" fill="url(#paint0_linear_1263_558)"/>
<path d="M32.0541 12.3765C29.4725 9.79481 26.0401 8.37305 22.389 8.37305C18.738 8.37305 15.3056 9.79481 12.7239 12.3765C12.4123 12.688 12.4123 13.1931 12.7239 13.5047C13.0354 13.8162 13.5405 13.8162 13.852 13.5047C16.1324 11.2244 19.1641 9.9686 22.3889 9.9686C25.6137 9.9686 28.6456 11.2244 30.9258 13.5047C31.0817 13.6604 31.2859 13.7383 31.49 13.7383C31.6941 13.7383 31.8983 13.6604 32.0541 13.5047C32.3656 13.1932 32.3656 12.688 32.0541 12.3765Z" fill="url(#paint1_linear_1263_558)"/>
<path d="M28.7628 15.6677C25.2481 12.1531 19.5295 12.1531 16.015 15.6677C15.7033 15.9792 15.7033 16.4844 16.015 16.7959C16.3265 17.1074 16.8317 17.1074 17.1432 16.7959C20.0357 13.9035 24.7421 13.9035 27.6346 16.7959C27.7903 16.9517 27.9944 17.0295 28.1986 17.0295C28.4027 17.0295 28.6069 16.9517 28.7628 16.7959C29.0743 16.4844 29.0743 15.9792 28.7628 15.6677Z" fill="url(#paint2_linear_1263_558)"/>
<path d="M25.5249 18.9068C23.7963 17.1782 20.9837 17.1782 19.2552 18.9068C18.9436 19.2183 18.9436 19.7234 19.2552 20.035C19.5667 20.3466 20.0719 20.3465 20.3834 20.035C21.4899 18.9285 23.2902 18.9285 24.3968 20.035C24.5525 20.1908 24.7567 20.2686 24.9608 20.2686C25.1649 20.2686 25.3691 20.1907 25.5249 20.035C25.8365 19.7234 25.8365 19.2184 25.5249 18.9068Z" fill="url(#paint3_linear_1263_558)"/>
<path d="M39.2564 34.4442C38.9112 34.2542 38.5707 34.0462 38.2443 33.8257L32.9675 30.2609C31.366 29.179 29.4979 28.6072 27.5653 28.6072H17.88C15.3092 28.6072 12.8903 29.6065 11.0687 31.4211C10.1325 32.3539 9.06588 33.1342 7.89853 33.7403C7.20815 34.0989 6.7793 34.8045 6.7793 35.5818C6.7793 36.7265 7.71051 37.6577 8.85523 37.6577H12.1572C12.5978 37.6577 12.955 37.3005 12.955 36.8599C12.955 36.4194 12.5978 36.0621 12.1572 36.0621H8.85523C8.59032 36.0621 8.37474 35.8466 8.37474 35.5817C8.37474 35.4022 8.47395 35.2392 8.63374 35.1563C9.94525 34.4753 11.1435 33.5988 12.1948 32.5513C13.7151 31.0367 15.7341 30.2026 17.8799 30.2026H20.0483V36.0621H17.3979C16.9574 36.0621 16.6001 36.4194 16.6001 36.8599C16.6001 37.3005 16.9574 37.6577 17.3979 37.6577H39.2726C39.9284 37.6577 40.462 37.1242 40.462 36.4684C40.462 35.6286 40 34.8529 39.2564 34.4442ZM21.6441 36.0623V30.2027H27.5654C29.1786 30.2027 30.7378 30.68 32.0745 31.583L37.3512 35.1478C37.7176 35.3953 38.0999 35.6289 38.4878 35.8422C38.5882 35.8974 38.6723 35.9733 38.7355 36.0623H21.6441Z" fill="url(#paint4_linear_1263_558)"/>
<path d="M23.6214 38.8704H21.1572C20.7166 38.8704 20.3594 39.2276 20.3594 39.6681C20.3594 40.1087 20.7166 40.4659 21.1572 40.4659H23.6214C24.0619 40.4659 24.4191 40.1087 24.4191 39.6681C24.4191 39.2276 24.0619 38.8704 23.6214 38.8704Z" fill="url(#paint5_linear_1263_558)"/>
<path d="M55.3117 38.2008L55.0597 37.7826C54.11 36.2066 52.5303 35.0969 50.7257 34.7379L48.6661 34.3283V23.8888H53.9961C55.0936 23.8888 55.9863 22.996 55.9863 21.8987V6.36188C55.9863 5.26442 55.0935 4.3717 53.9961 4.3717H38.4594C37.3619 4.3717 36.4692 5.26453 36.4692 6.36188V12.2555C36.4692 12.6961 36.8263 13.0533 37.267 13.0533C37.7076 13.0533 38.0648 12.6961 38.0648 12.2555V6.36188C38.0648 6.14423 38.2418 5.96715 38.4595 5.96715H53.9964C54.214 5.96715 54.3911 6.14423 54.3911 6.36188V21.8988C54.3911 22.1164 54.214 22.2935 53.9964 22.2935H38.4594C38.2417 22.2935 38.0646 22.1164 38.0646 21.8988V17.4419C38.0646 17.0013 37.7075 16.6441 37.2669 16.6441C36.8262 16.6441 36.4691 17.0013 36.4691 17.4419V21.8988C36.4691 22.9962 37.3619 23.8889 38.4593 23.8889H44.5034V33.5007L43.4447 33.2901C41.9834 32.9995 40.5588 32.1176 39.6143 31.4794L34.3376 27.9148C32.33 26.5587 29.9884 25.8418 27.5658 25.8418H17.8807C14.6579 25.8418 11.6258 27.0945 9.34278 29.3689C7.89816 30.8082 6.07969 31.7898 4.08394 32.2079L2.93857 32.4477C1.23582 32.8043 0 34.3259 0 36.0656V43.7918C0 44.7134 0.544138 45.5509 1.38643 45.9252L4.56398 47.3374C4.75615 48.3423 5.24024 49.3018 6.01659 50.0781C7.04832 51.1099 8.40358 51.6258 9.75895 51.6258C11.1143 51.6258 12.4695 51.1099 13.5013 50.0781C14.1649 49.4146 14.6138 48.6169 14.8505 47.7718H41.345C41.5818 48.6169 42.0308 49.4146 42.6944 50.0781C43.694 51.0777 45.0229 51.6283 46.4367 51.6283C47.8504 51.6283 49.1795 51.0778 50.1792 50.0781C50.8428 49.4146 51.2916 48.6169 51.5284 47.7718H53.0419C54.673 47.7718 56 46.4447 56 44.8136V40.6758C55.9998 39.8036 55.7618 38.9478 55.3117 38.2008ZM46.099 23.8888H47.0707V34.011L46.099 33.8177V23.8888ZM12.373 48.95C11.6748 49.6483 10.7464 50.0329 9.75884 50.0329C8.77129 50.0329 7.84292 49.6483 7.14467 48.95C6.02457 47.8299 5.77541 46.1643 6.39601 44.8008C6.40104 44.7899 6.40585 44.7788 6.41088 44.7679C6.4298 44.7274 6.44982 44.6874 6.47027 44.6476C6.4799 44.6288 6.48952 44.6101 6.49958 44.5915C6.51807 44.5569 6.53732 44.5226 6.55701 44.4884C6.57057 44.4649 6.58446 44.4416 6.59857 44.4184C6.61683 44.3884 6.63532 44.3584 6.65457 44.3288C6.67196 44.302 6.6899 44.2755 6.70805 44.2491C6.72599 44.223 6.74382 44.1967 6.76241 44.171C6.78374 44.1416 6.80594 44.1127 6.82825 44.0839C6.84564 44.0613 6.8626 44.0386 6.88054 44.0164C6.90679 43.9839 6.93424 43.9522 6.96158 43.9205C6.97722 43.9024 6.99221 43.8839 7.00817 43.8661C7.04886 43.8209 7.09075 43.7766 7.13385 43.7332C7.13757 43.7295 7.14096 43.7256 7.14467 43.7218C7.15288 43.7136 7.16152 43.706 7.16983 43.6979C7.20636 43.662 7.24311 43.6266 7.28063 43.5926C7.29036 43.5837 7.30064 43.5755 7.31049 43.5667C7.34789 43.5336 7.38552 43.5007 7.42402 43.4693C7.42763 43.4663 7.43145 43.4636 7.43506 43.4606C8.78726 42.3664 10.7375 42.3677 12.0881 43.465C12.0896 43.4663 12.0912 43.4674 12.0929 43.4687C12.1341 43.5023 12.1745 43.5375 12.2146 43.5732C12.2218 43.5795 12.2293 43.5856 12.2364 43.592C12.2828 43.6339 12.3283 43.6771 12.3729 43.7217C12.421 43.7698 12.4674 43.8194 12.5125 43.8696C12.5322 43.8917 12.551 43.9143 12.5701 43.9368C12.5935 43.9641 12.617 43.9916 12.6395 44.0194C12.6648 44.0508 12.6892 44.0828 12.7133 44.1147C12.7268 44.1325 12.7403 44.1505 12.7534 44.1685C12.7826 44.2088 12.811 44.2495 12.8385 44.2907C12.8432 44.2977 12.8478 44.3048 12.8524 44.3118C13.7908 45.7452 13.6311 47.6918 12.373 48.95ZM49.0508 48.95C48.3524 49.6483 47.424 50.0329 46.4365 50.0329C45.449 50.0329 44.5207 49.6483 43.8225 48.95C42.5641 47.6918 42.4044 45.7448 43.343 44.3116C43.3474 44.3047 43.3519 44.2978 43.3565 44.291C43.384 44.2497 43.4125 44.2089 43.4418 44.1684C43.4548 44.1505 43.4682 44.1328 43.4816 44.1151C43.5058 44.083 43.5303 44.0509 43.5558 44.0193C43.5782 43.9917 43.6014 43.9645 43.6247 43.9374C43.6441 43.9148 43.663 43.8918 43.683 43.8696C43.7281 43.8194 43.7744 43.77 43.8226 43.7218C44.5208 43.0236 45.4491 42.639 46.4366 42.639C47.4242 42.639 48.3525 43.0236 49.0508 43.7218C49.0989 43.77 49.1453 43.8195 49.1903 43.8697C49.2102 43.8918 49.2289 43.9146 49.2482 43.9371C49.2716 43.9643 49.295 43.9917 49.3174 44.0194C49.3428 44.0509 49.3672 44.0829 49.3914 44.1149C49.4048 44.1328 49.4183 44.1506 49.4314 44.1686C49.4606 44.209 49.4891 44.2496 49.5165 44.2908C49.5212 44.2978 49.5258 44.3048 49.5304 44.3118C50.4686 45.745 50.3089 47.6919 49.0508 48.95ZM54.4046 44.8136H54.4043C54.4043 45.565 53.793 46.1763 53.0416 46.1763H51.7283C51.697 45.0192 51.2886 43.9153 50.5536 43.0102C50.5487 43.0041 50.544 42.9978 50.5389 42.9916C50.4934 42.9362 50.4463 42.8818 50.3984 42.8278C50.3861 42.814 50.3745 42.7998 50.3622 42.786C50.3114 42.7301 50.2589 42.6753 50.2056 42.6213C50.1965 42.6121 50.1882 42.6025 50.179 42.5934C49.4917 41.9062 48.6487 41.4312 47.7296 41.2015C47.3118 41.0971 46.8784 41.0434 46.4365 41.0434C46.0831 41.0434 45.735 41.0778 45.3959 41.145C44.3788 41.3467 43.4439 41.8438 42.6941 42.5934C42.6852 42.6024 42.677 42.6118 42.6681 42.6209C42.6145 42.6752 42.5618 42.7301 42.5109 42.7862C42.4989 42.7995 42.4878 42.8133 42.4759 42.8266C42.4276 42.8811 42.3799 42.936 42.3341 42.992C42.3295 42.9976 42.3252 43.0033 42.3206 43.009C41.5851 43.9142 41.1762 45.0188 41.1449 46.1764H15.0505C15.0191 45.0174 14.6094 43.9115 13.872 43.0055C13.8686 43.0013 13.8653 42.997 13.8619 42.9927C13.8138 42.9339 13.7638 42.8763 13.7129 42.8192C13.7035 42.8087 13.6948 42.7978 13.6853 42.7873C13.6257 42.7216 13.5644 42.6569 13.5011 42.5935C13.2432 42.3356 12.9649 42.1099 12.6717 41.9164C11.7917 41.336 10.7753 41.0459 9.75884 41.0459C8.40358 41.0459 7.04821 41.5618 6.01648 42.5935C5.95752 42.6525 5.90054 42.713 5.84476 42.7742C5.82824 42.7924 5.81238 42.8109 5.79609 42.8291C5.75671 42.8736 5.71799 42.9186 5.68026 42.9641C5.66352 42.9843 5.64679 43.0047 5.63038 43.0252C5.59134 43.0739 5.55327 43.1231 5.51609 43.1729C5.50449 43.1884 5.49257 43.2036 5.48131 43.2193C5.38134 43.3561 5.28859 43.4972 5.20284 43.6419C5.20043 43.6459 5.19814 43.6501 5.19573 43.6541C5.15384 43.7253 5.1137 43.7975 5.07531 43.8705C5.07421 43.8726 5.07312 43.8747 5.07192 43.8768C4.79378 44.4061 4.60675 44.9785 4.521 45.5723L2.03459 44.4672C1.76793 44.3487 1.59567 44.0835 1.59567 43.7918V36.0656C1.59567 35.0768 2.29818 34.2119 3.26603 34.0091L4.4114 33.7693C6.71046 33.2877 8.8052 32.1569 10.4692 30.4991C12.4511 28.5246 15.0833 27.4372 17.881 27.4372H27.5661C29.6693 27.4372 31.702 28.0595 33.4448 29.2367L38.7214 32.8013C39.7803 33.5167 41.3897 34.5079 43.1337 34.8548L50.4148 36.3027C51.78 36.5743 52.9749 37.4138 53.6934 38.6059L53.9454 39.0242C54.2458 39.5226 54.4046 40.0938 54.4046 40.6758V44.8136Z" fill="url(#paint6_linear_1263_558)"/>
<path d="M11.4706 44.6233C11.013 44.1658 10.4049 43.9139 9.75793 43.9139C9.11098 43.9139 8.50275 44.1659 8.04534 44.6233C7.58794 45.0807 7.33594 45.689 7.33594 46.3359C7.33594 46.9829 7.58794 47.5911 8.04534 48.0485C8.50275 48.5059 9.11098 48.7579 9.75804 48.7579C10.405 48.7579 11.0132 48.506 11.4706 48.0485C12.415 47.1042 12.415 45.5677 11.4706 44.6233ZM10.3423 46.9203C10.1862 47.0764 9.97865 47.1624 9.75793 47.1624C9.5371 47.1624 9.32962 47.0764 9.17354 46.9202C9.01746 46.7641 8.93138 46.5566 8.93138 46.3358C8.93138 46.115 9.01735 45.9075 9.17354 45.7514C9.32962 45.5954 9.5371 45.5093 9.75793 45.5093C9.97865 45.5093 10.1862 45.5952 10.3423 45.7514C10.6645 46.0738 10.6645 46.5981 10.3423 46.9203Z" fill="url(#paint7_linear_1263_558)"/>
<path d="M48.1492 44.6235C47.6918 44.1659 47.0836 43.9139 46.4365 43.9139C45.7895 43.9139 45.1814 44.1658 44.7238 44.6233C43.7796 45.5677 43.7796 47.1042 44.7238 48.0485C45.1813 48.506 45.7895 48.7579 46.4365 48.7579C47.0836 48.7579 47.6917 48.506 48.1491 48.0486C48.6066 47.5912 48.8585 46.983 48.8585 46.336C48.8585 45.6891 48.6066 45.0809 48.1492 44.6235ZM47.0209 46.9204C46.8648 47.0765 46.6573 47.1625 46.4365 47.1625C46.2158 47.1625 46.0082 47.0765 45.8521 46.9204C45.5299 46.5982 45.5299 46.0739 45.8521 45.7517C46.0082 45.5956 46.2158 45.5095 46.4365 45.5095C46.6573 45.5095 46.8648 45.5955 47.021 45.7517C47.1771 45.9077 47.263 46.1152 47.263 46.336C47.263 46.5566 47.1772 46.7642 47.0209 46.9204Z" fill="url(#paint8_linear_1263_558)"/>
<defs>
<linearGradient id="paint0_linear_1263_558" x1="49.8972" y1="8.92078" x2="43.4102" y2="8.92078" gradientUnits="userSpaceOnUse">
<stop stop-color="#FF8911"/>
<stop offset="1" stop-color="#F83600"/>
</linearGradient>
<linearGradient id="paint1_linear_1263_558" x1="32.2878" y1="8.37305" x2="12.4902" y2="8.37305" gradientUnits="userSpaceOnUse">
<stop stop-color="#FF8911"/>
<stop offset="1" stop-color="#F83600"/>
</linearGradient>
<linearGradient id="paint2_linear_1263_558" x1="28.9964" y1="13.0317" x2="15.7812" y2="13.0317" gradientUnits="userSpaceOnUse">
<stop stop-color="#FF8911"/>
<stop offset="1" stop-color="#F83600"/>
</linearGradient>
<linearGradient id="paint3_linear_1263_558" x1="25.7586" y1="17.6104" x2="19.0215" y2="17.6104" gradientUnits="userSpaceOnUse">
<stop stop-color="#FF8911"/>
<stop offset="1" stop-color="#F83600"/>
</linearGradient>
<linearGradient id="paint4_linear_1263_558" x1="40.462" y1="28.6072" x2="6.7793" y2="28.6072" gradientUnits="userSpaceOnUse">
<stop stop-color="#FF8911"/>
<stop offset="1" stop-color="#F83600"/>
</linearGradient>
<linearGradient id="paint5_linear_1263_558" x1="24.4191" y1="38.8704" x2="20.3594" y2="38.8704" gradientUnits="userSpaceOnUse">
<stop stop-color="#FF8911"/>
<stop offset="1" stop-color="#F83600"/>
</linearGradient>
<linearGradient id="paint6_linear_1263_558" x1="56" y1="4.3717" x2="0" y2="4.3717" gradientUnits="userSpaceOnUse">
<stop stop-color="#FF8911"/>
<stop offset="1" stop-color="#F83600"/>
</linearGradient>
<linearGradient id="paint7_linear_1263_558" x1="12.1789" y1="43.9139" x2="7.33594" y2="43.9139" gradientUnits="userSpaceOnUse">
<stop stop-color="#FF8911"/>
<stop offset="1" stop-color="#F83600"/>
</linearGradient>
<linearGradient id="paint8_linear_1263_558" x1="48.8585" y1="43.9139" x2="44.0156" y2="43.9139" gradientUnits="userSpaceOnUse">
<stop stop-color="#FF8911"/>
<stop offset="1" stop-color="#F83600"/>
</linearGradient>
</defs>
</svg>
