<svg width="56" height="56" viewBox="0 0 56 56" fill="none" xmlns="http://www.w3.org/2000/svg">
<path d="M48.1806 39.4891C48.1741 39.4785 48.1678 39.4678 48.1613 39.457C48.1143 39.3801 48.0661 39.3039 48.0167 39.2282C47.9896 39.1864 47.9623 39.1448 47.9345 39.1034C47.9007 39.0532 47.8666 39.0032 47.8317 38.9536C47.7867 38.8892 47.7409 38.8255 47.6944 38.7623C47.6805 38.7435 47.6676 38.7242 47.6537 38.7055C47.6438 38.6923 47.6333 38.6797 47.6233 38.6665C47.5673 38.5922 47.5101 38.519 47.452 38.4466C47.4317 38.4212 47.4116 38.3958 47.3911 38.3707C47.3332 38.3001 47.2741 38.2305 47.2142 38.1616C47.1893 38.1328 47.1647 38.1038 47.1395 38.0754C47.0897 38.0192 47.0385 37.9642 46.9873 37.9093C46.9491 37.8681 46.9113 37.8268 46.8725 37.7864C46.8434 37.7563 46.8133 37.7269 46.7838 37.6972C45.6511 36.5507 44.2553 35.7135 42.6838 35.2508C42.6569 35.2428 42.6296 35.2363 42.6019 35.2311C42.6016 35.2311 35.1866 33.8536 35.1863 33.8535C35.1732 33.8511 35.16 33.8505 35.1469 33.8484C34.8 33.792 34.4455 33.8384 34.1273 33.9778C33.8692 33.6608 33.6991 33.2254 33.6991 32.8231V31.4806C34.1678 31.1814 34.6229 30.8451 35.0621 30.4668C36.8997 28.8846 38.057 26.6008 38.3068 24.1093C39.656 24.047 40.7343 22.9298 40.7343 21.5655V19.6527C40.7343 18.8792 40.3877 18.1635 39.8042 17.6857V13.2886C42.4854 11.9673 43.0681 10.4267 43.0681 9.33975C43.0681 7.47469 41.331 5.14019 38.5347 3.24712C36.7432 2.03448 32.9925 0 28.0007 0C23.0088 0 19.2582 2.03448 17.4668 3.24712C14.6705 5.14008 12.9334 7.47458 12.9334 9.33975C12.9334 10.4267 13.516 11.9673 16.1973 13.2886V17.6857C15.6138 18.1635 15.2671 18.8792 15.2671 19.6527V21.5655C15.2671 22.9298 16.3455 24.047 17.6947 24.1093C17.9443 26.6008 19.1017 28.8847 20.9393 30.4668C21.3786 30.8451 21.8337 31.1814 22.3023 31.4806V32.8231C22.3023 33.2254 22.1323 33.6607 21.8741 33.9777C21.5439 33.833 21.1745 33.7866 20.8152 33.8535L13.3997 35.2311C13.372 35.2363 13.3446 35.2428 13.3177 35.2508C11.747 35.7132 10.3519 36.5498 9.21945 37.6954C9.18916 37.726 9.15853 37.756 9.12867 37.7869C9.09039 37.8266 9.05309 37.8675 9.01547 37.908C8.96373 37.9635 8.91211 38.0191 8.86158 38.0758C8.83675 38.1038 8.81247 38.1325 8.78786 38.1608C8.7277 38.2301 8.66831 38.3 8.61023 38.3709C8.58978 38.3959 8.56988 38.4212 8.54964 38.4464C8.49145 38.519 8.43414 38.5922 8.37814 38.6665C8.36819 38.6797 8.35769 38.6922 8.34773 38.7055C8.33373 38.7242 8.32083 38.7435 8.30705 38.7623C8.26056 38.8255 8.21473 38.8892 8.16978 38.9536C8.13489 39.0033 8.10066 39.0534 8.06686 39.1036C8.03919 39.1449 8.01195 39.1863 7.98494 39.228C7.93561 39.3038 7.88727 39.3801 7.84013 39.457C7.83367 39.4676 7.82722 39.4784 7.82088 39.489C6.91427 40.9829 6.4375 42.6793 6.4375 44.4487V45.4488C6.4375 45.9021 6.80489 46.2693 7.25803 46.2693C7.71117 46.2693 8.07856 45.902 8.07856 45.4488V44.4487C8.07856 43.6489 8.19713 42.8675 8.4255 42.1209C8.90839 42.5049 9.49442 42.7094 10.1035 42.7094C10.2009 42.7094 10.299 42.7042 10.3971 42.6935C11.1156 42.6165 11.7611 42.2643 12.2147 41.7017L13.1076 40.5943C13.5612 40.0318 13.7686 39.3262 13.6916 38.6077C13.6303 38.0368 13.3947 37.5122 13.0185 37.0931C13.2543 36.9972 13.4951 36.9107 13.742 36.8366L18.4737 35.9577L22.2283 41.2117C22.6041 41.7374 23.1925 42.0272 23.8029 42.0272C24.0589 42.0272 24.3188 41.9763 24.5684 41.8703L24.8183 41.7641L25.911 43.0344L24.335 54.3588H14.0238V47.7052C14.0238 47.252 13.6564 46.8847 13.2032 46.8847C12.7501 46.8847 12.3827 47.252 12.3827 47.7052V54.3588H9.10034C8.53695 54.3588 8.07878 53.9005 8.07878 53.3373V49.267C8.07878 48.8137 7.71139 48.4465 7.25825 48.4465C6.80511 48.4465 6.43772 48.8138 6.43772 49.267V53.3373C6.43772 54.8054 7.6322 56 9.10045 56H46.9013C48.3696 56 49.5641 54.8054 49.5641 53.3373V44.4489C49.5638 42.6794 49.0872 40.983 48.1806 39.4891ZM11.83 39.5644L10.9371 40.672C10.7587 40.8932 10.5048 41.0317 10.2222 41.0621C9.94002 41.0923 9.66209 41.0109 9.44083 40.8324L9.09838 40.5564C9.17188 40.4253 9.24888 40.2967 9.32916 40.1706C9.33003 40.1692 9.33113 40.1678 9.332 40.1662C9.40091 40.0582 9.47342 39.9529 9.54725 39.8487C9.56967 39.8172 9.59198 39.7857 9.61484 39.7544C9.68069 39.6643 9.74839 39.5758 9.81784 39.4888C9.83578 39.4662 9.85339 39.4434 9.87155 39.421C9.94997 39.3249 10.0309 39.2311 10.1137 39.1389C10.1379 39.1118 10.1625 39.0854 10.187 39.0588C10.269 38.9699 10.3524 38.8823 10.4384 38.7973C10.4458 38.79 10.453 38.7824 10.4604 38.7751C10.7777 38.4639 11.1217 38.1789 11.49 37.9232L11.6698 38.0682C11.891 38.2466 12.0296 38.5004 12.0599 38.7831C12.09 39.0656 12.0085 39.343 11.83 39.5644ZM44.3318 38.068L44.5116 37.9229C44.88 38.1787 45.2238 38.4637 45.5411 38.7749C45.5486 38.7822 45.5557 38.7897 45.5631 38.7971C45.6492 38.8822 45.7325 38.9698 45.8146 39.0586C45.8391 39.0852 45.8637 39.1116 45.8879 39.1386C45.9707 39.2308 46.0516 39.3248 46.13 39.4208C46.1482 39.4431 46.1658 39.466 46.1837 39.4885C46.2532 39.5756 46.3209 39.6642 46.3867 39.7542C46.4096 39.7854 46.432 39.817 46.4543 39.8485C46.5281 39.9527 46.6007 40.058 46.6696 40.166C46.6705 40.1674 46.6715 40.1688 46.6724 40.1704C46.7528 40.2965 46.8298 40.4251 46.9032 40.5561L46.5607 40.8322C46.3394 41.0106 46.0617 41.092 45.7794 41.0619C45.4967 41.0316 45.2429 40.893 45.0644 40.6716L44.1714 39.5642C43.8031 39.1075 43.8751 38.4363 44.3318 38.068ZM34.5347 35.6614C34.5358 35.6606 34.5369 35.6597 34.538 35.6589L34.7527 35.4983C34.7909 35.4698 34.8398 35.4587 34.8864 35.4671L35.747 35.627L32.438 40.2575C32.3552 40.3735 32.2058 40.4155 32.0747 40.3598L29.6352 39.3235L34.5347 35.6614ZM28.0007 38.4962L23.2191 34.9222C23.6708 34.3292 23.9435 33.5744 23.9435 32.8231V32.3427C25.2092 32.873 26.5616 33.1502 27.9916 33.1662C27.9947 33.1662 27.9977 33.1662 28.0008 33.1662C28.0038 33.1662 28.0069 33.1662 28.01 33.1662C29.4399 33.1501 30.7924 32.8729 32.058 32.3427V32.8231C32.058 33.5745 32.3307 34.3292 32.7823 34.9222L28.0007 38.4962ZM29.598 41.0908L28.8505 41.9597H27.1512L26.4037 41.0908L28.0008 40.4123L29.598 41.0908ZM16.1973 11.4181C15.1427 10.768 14.5746 10.0498 14.5746 9.33964C14.5746 7.86045 16.5506 5.84905 18.3867 4.60611C20.0225 3.49891 23.4466 1.64117 28.0007 1.64117C32.5547 1.64117 35.9788 3.49891 37.6146 4.60622C39.4507 5.84916 41.4268 7.86056 41.4268 9.33975C41.4268 10.0498 40.8587 10.7681 39.8041 11.4182V9.926C39.8041 8.76717 39.0198 7.75731 37.8966 7.4702C35.7722 6.92727 31.5948 6.01639 27.4869 6.01475C27.4832 6.01475 27.4802 6.01475 27.4764 6.01475C23.9192 6.01475 20.3851 6.79798 18.0463 7.45533C16.9576 7.76136 16.1973 8.76477 16.1973 9.89538V11.4181ZM19.0431 14.299C19.0316 14.2917 19.0199 14.2845 19.0085 14.2772C18.9554 14.2431 18.9042 14.2089 18.8544 14.1746C18.8342 14.1606 18.8142 14.1466 18.7945 14.1325C18.7538 14.1036 18.7143 14.0745 18.676 14.0454C18.6497 14.0253 18.6242 14.0051 18.599 13.985C18.5688 13.961 18.5392 13.9369 18.5107 13.9127C18.4805 13.8869 18.4517 13.8612 18.4235 13.8354C18.4023 13.816 18.3808 13.7968 18.3607 13.7774C18.3285 13.7464 18.2985 13.7154 18.2692 13.6845C18.2552 13.6697 18.2406 13.6548 18.2273 13.64C18.2258 13.6384 18.2246 13.6368 18.2232 13.6352H31.9994C32.4526 13.6352 32.82 13.2678 32.82 12.8147C32.82 12.3615 32.4526 11.9942 31.9994 11.9942H17.8384V9.89548C17.8384 9.49692 18.1065 9.1432 18.4904 9.03536C20.7301 8.4058 24.1058 7.65592 27.4764 7.65592C27.4795 7.65592 27.4831 7.65592 27.4862 7.65592C31.4148 7.65756 35.4404 8.53639 37.4902 9.0603C37.8862 9.16147 38.1628 9.51748 38.1628 9.926V11.9941H35.9622C35.509 11.9941 35.1417 12.3615 35.1417 12.8146C35.1417 13.268 35.509 13.6352 35.9623 13.6352H37.7786C37.7772 13.6369 37.776 13.6385 37.7745 13.64C37.7612 13.6548 37.7465 13.6697 37.7325 13.6845C37.7032 13.7154 37.6733 13.7464 37.6411 13.7774C37.621 13.7968 37.5995 13.816 37.5783 13.8354C37.5501 13.8612 37.5213 13.8869 37.491 13.9127C37.4626 13.9369 37.433 13.961 37.4028 13.985C37.3776 14.0051 37.3521 14.0253 37.3258 14.0454C37.2875 14.0745 37.248 14.1036 37.2073 14.1325C37.1876 14.1465 37.1676 14.1606 37.1474 14.1746C37.0975 14.2089 37.0464 14.2431 36.9933 14.2772C36.9819 14.2845 36.9703 14.2917 36.9587 14.299C36.6177 14.5136 36.2113 14.7207 35.7469 14.9127C35.7372 14.9168 35.7285 14.9225 35.7189 14.9268C33.9608 15.6516 31.3189 16.1992 28.0009 16.1992C24.6829 16.1992 22.0409 15.6516 20.2828 14.9268C20.2733 14.9225 20.2646 14.9168 20.2548 14.9127C19.7904 14.7207 19.3841 14.5136 19.0431 14.299ZM19.1205 16.2059V17.8045C18.6693 17.5707 18.2128 17.4449 17.8385 17.3776V15.4708C18.1905 15.7209 18.6138 15.9679 19.1205 16.2059ZM36.8809 16.2058C37.3877 15.9679 37.8108 15.7209 38.1629 15.4708V17.3774C37.7886 17.4447 37.3321 17.5705 36.8809 17.8044V16.2058ZM22.0101 29.2231C20.3295 27.7762 19.337 25.6077 19.2869 23.2738C19.2774 22.8277 18.9128 22.4709 18.4666 22.4709H17.8137C17.3145 22.4709 16.9083 22.0648 16.9083 21.5655V19.6527C16.9083 19.3774 17.0324 19.1224 17.2412 18.9524C17.5305 18.978 18.0706 19.0647 18.5287 19.3557C18.5333 19.3586 18.5378 19.3615 18.5424 19.3644C18.607 19.4062 18.6698 19.4522 18.73 19.5027C18.737 19.5085 18.744 19.5144 18.7509 19.5204C18.7802 19.5456 18.809 19.5717 18.8369 19.5992C18.8613 19.6233 18.8868 19.6457 18.9128 19.6672C18.9205 19.6735 18.9282 19.6794 18.936 19.6855C18.9557 19.701 18.9757 19.7156 18.9962 19.7295C19.0042 19.735 19.0121 19.7405 19.0203 19.7458C19.0481 19.7637 19.0762 19.7807 19.1052 19.7959C19.1053 19.796 19.1055 19.7961 19.1056 19.7962C19.1351 19.8116 19.1651 19.8254 19.1957 19.8381C19.2041 19.8416 19.2126 19.8448 19.2211 19.8481C19.2443 19.8571 19.2676 19.8653 19.2912 19.8728C19.3001 19.8756 19.3089 19.8785 19.3178 19.881C19.3488 19.89 19.38 19.8978 19.4115 19.9041C19.412 19.9042 19.4124 19.9043 19.413 19.9044C19.4454 19.9107 19.4781 19.9152 19.5109 19.9187C19.5197 19.9197 19.5286 19.9202 19.5373 19.9209C19.5622 19.923 19.5871 19.9242 19.6122 19.9245C19.6178 19.9246 19.6234 19.9253 19.629 19.9253C19.6326 19.9253 19.6363 19.9247 19.6399 19.9247C19.6722 19.9244 19.7046 19.9231 19.737 19.92C19.7378 19.9199 19.7387 19.9199 19.7395 19.9199C19.7726 19.9166 19.8058 19.9115 19.8388 19.9052C19.8481 19.9034 19.8574 19.9012 19.8667 19.8993C19.8912 19.8939 19.9156 19.8878 19.94 19.8809C19.9496 19.8781 19.9592 19.8755 19.9688 19.8725C20.0012 19.8622 20.0334 19.851 20.0652 19.8378C20.4882 19.6611 20.7616 19.2512 20.7616 18.7931V16.8307C22.8745 17.4962 25.4725 17.8403 28.0007 17.8403C30.5289 17.8403 33.1269 17.4962 35.2398 16.8307V18.7931C35.2398 19.2512 35.5131 19.6612 35.9362 19.8378C35.9681 19.8511 36.0005 19.8624 36.033 19.8727C36.0421 19.8755 36.0513 19.878 36.0605 19.8808C36.0855 19.8879 36.1105 19.8942 36.1357 19.8996C36.1444 19.9014 36.1532 19.9035 36.162 19.9052C36.2284 19.9178 36.2953 19.9243 36.3621 19.9248C36.3655 19.9248 36.369 19.9254 36.3723 19.9254C36.3776 19.9254 36.3828 19.9247 36.3882 19.9246C36.4139 19.9243 36.4395 19.923 36.4651 19.9209C36.4734 19.9202 36.4817 19.9197 36.49 19.9188C36.5557 19.9119 36.6205 19.8993 36.684 19.8809C36.6926 19.8784 36.7011 19.8756 36.7098 19.8729C36.7336 19.8655 36.7571 19.857 36.7805 19.848C36.789 19.8447 36.7975 19.8415 36.8058 19.838C36.8363 19.8253 36.8665 19.8115 36.8959 19.7961C36.8961 19.796 36.8964 19.7959 36.8966 19.7958C36.9255 19.7806 36.9536 19.7636 36.9812 19.7458C36.9894 19.7405 36.9974 19.7349 37.0056 19.7294C37.026 19.7155 37.046 19.7008 37.0656 19.6855C37.0734 19.6794 37.0813 19.6734 37.089 19.667C37.115 19.6455 37.1405 19.6232 37.1648 19.5991C37.1923 19.5718 37.221 19.5461 37.25 19.521C37.2575 19.5145 37.2652 19.508 37.2728 19.5016C37.2997 19.479 37.327 19.4573 37.3549 19.4366C37.3575 19.4346 37.3599 19.4327 37.3625 19.4307C37.3927 19.4085 37.4234 19.3877 37.4545 19.3675C37.4628 19.362 37.4712 19.3568 37.4797 19.3514C37.5073 19.334 37.5353 19.3172 37.5634 19.3012C37.5675 19.2989 37.5715 19.2964 37.5757 19.2941C37.6077 19.2763 37.64 19.2594 37.6725 19.2433C37.6806 19.2393 37.6887 19.2355 37.6968 19.2315C37.7259 19.2175 37.7551 19.204 37.7843 19.1913C37.7883 19.1895 37.7922 19.1877 37.7963 19.1859C37.83 19.1715 37.8637 19.158 37.8972 19.1452C37.9033 19.1429 37.9092 19.1407 37.9152 19.1385C37.9471 19.1266 37.979 19.1154 38.0107 19.1049C38.0124 19.1043 38.0142 19.1037 38.0159 19.1031C38.0515 19.0914 38.0868 19.0806 38.1217 19.0705C38.123 19.0702 38.1243 19.0697 38.1256 19.0694C38.3755 18.9977 38.6046 18.9661 38.7603 18.9522C38.9692 19.1222 39.0934 19.3772 39.0934 19.6526V21.5654C39.0934 22.0647 38.6872 22.4708 38.188 22.4708H37.5351C37.0887 22.4708 36.7243 22.8275 36.7148 23.2737C36.6647 25.6076 35.6721 27.7761 33.9916 29.223C32.2489 30.7235 30.2336 31.498 28.001 31.5249C25.7682 31.4981 23.753 30.7238 22.0101 29.2231ZM23.9267 40.3598C23.7953 40.4154 23.646 40.3733 23.5633 40.2577L20.2543 35.6272L21.115 35.4673C21.1618 35.4587 21.2105 35.4699 21.2486 35.4984L21.4633 35.6589C21.4645 35.6597 21.4656 35.6606 21.4668 35.6615L26.3661 39.3235L23.9267 40.3598ZM25.9918 54.3588L27.4888 43.6009H28.5125L30.0096 54.3588H25.9918ZM46.9012 54.3588H43.6191V47.7052C43.6191 47.252 43.2517 46.8847 42.7986 46.8847C42.3454 46.8847 41.978 47.252 41.978 47.7052V54.3588H31.6667L30.0907 43.0344L31.1834 41.7641L31.4333 41.8703C31.6829 41.9763 31.9427 42.0272 32.1987 42.0272C32.8089 42.0272 33.3977 41.7375 33.7734 41.2116L37.5279 35.9577L42.2596 36.8366C42.5064 36.9107 42.7474 36.9972 42.9832 37.0931C42.1154 38.0626 42.051 39.5491 42.8936 40.5942L43.7867 41.7017C44.2402 42.2643 44.8857 42.6164 45.6041 42.6934C45.7024 42.704 45.8004 42.7093 45.8978 42.7093C46.5067 42.7093 47.0928 42.5047 47.5757 42.1208C47.8041 42.8673 47.9227 43.6488 47.9227 44.4486V53.3373H47.9228C47.9229 53.9005 47.4645 54.3588 46.9012 54.3588Z" fill="url(#paint0_linear_1263_640)"/>
<path d="M39.2009 46.8846H34.8796C34.1404 46.8846 33.5391 47.486 33.5391 48.2251V50.5274C33.5391 51.2665 34.1404 51.8679 34.8796 51.8679H39.2009C39.94 51.8679 40.5412 51.2665 40.5412 50.5274V48.2251C40.5412 47.4859 39.9399 46.8846 39.2009 46.8846ZM35.18 50.2266V48.5257H38.9V50.2266H35.18Z" fill="url(#paint1_linear_1263_640)"/>
<path d="M21.1207 46.8845H16.7994C16.0602 46.8845 15.459 47.4859 15.459 48.225V50.5273C15.459 51.2664 16.0603 51.8678 16.7994 51.8678H21.1207C21.8598 51.8678 22.4612 51.2664 22.4612 50.5273V48.225C22.4613 47.4859 21.8598 46.8845 21.1207 46.8845ZM20.8201 50.2266H17.1002V48.5257H20.8201V50.2266Z" fill="url(#paint2_linear_1263_640)"/>
<defs>
<linearGradient id="paint0_linear_1263_640" x1="49.5641" y1="0" x2="6.4375" y2="0" gradientUnits="userSpaceOnUse">
<stop stop-color="#FF8911"/>
<stop offset="1" stop-color="#F83600"/>
</linearGradient>
<linearGradient id="paint1_linear_1263_640" x1="40.5412" y1="46.8846" x2="33.5391" y2="46.8846" gradientUnits="userSpaceOnUse">
<stop stop-color="#FF8911"/>
<stop offset="1" stop-color="#F83600"/>
</linearGradient>
<linearGradient id="paint2_linear_1263_640" x1="22.4612" y1="46.8845" x2="15.459" y2="46.8845" gradientUnits="userSpaceOnUse">
<stop stop-color="#FF8911"/>
<stop offset="1" stop-color="#F83600"/>
</linearGradient>
</defs>
</svg>
