<svg width="56" height="56" viewBox="0 0 56 56" fill="none" xmlns="http://www.w3.org/2000/svg">
<g clip-path="url(#clip0_1263_673)">
<path d="M42 38.5C42.4832 38.5 42.875 38.1082 42.875 37.625C42.875 37.1418 42.4832 36.75 42 36.75C41.5168 36.75 41.125 37.1418 41.125 37.625C41.125 38.1082 41.5168 38.5 42 38.5Z" fill="url(#paint0_linear_1263_673)"/>
<path d="M47.223 14.602C47.1023 14.133 46.6263 13.8547 46.1573 13.972L44.4073 14.4217C43.94 14.5425 43.6583 15.0193 43.7773 15.4866C43.8788 15.8821 44.234 16.1437 44.6243 16.1437C44.6969 16.1437 44.7695 16.135 44.843 16.1166L46.593 15.6668C47.0603 15.547 47.342 15.0701 47.223 14.602Z" fill="url(#paint1_linear_1263_673)"/>
<path d="M55.1256 30.625H51.6256C51.1417 30.625 50.7506 31.017 50.7506 31.5V43.75C50.7506 44.2321 50.3586 44.625 49.8756 44.625H48.1256V42C48.1256 41.0349 47.3407 40.25 46.3756 40.25H45.4752C45.5741 40.1187 45.6817 39.9954 45.7666 39.8519C46.3616 38.8456 46.5287 37.6687 46.2382 36.5365C45.9827 35.5434 45.3938 34.7322 44.6335 34.1565C46.513 33.2885 47.5717 31.1797 47.0397 29.1034L46.8218 28.2564L47.6697 28.0385C49.7067 27.5144 51.4182 26.2299 52.4892 24.4186C53.5602 22.6074 53.8603 20.489 53.338 18.452L52.2495 14.2144L54.7922 13.5616C55.2595 13.4409 55.5412 12.964 55.4222 12.4967L54.7695 9.95398C52.967 2.94436 45.7972 -1.29327 38.7902 0.506607L25.2312 3.98911L24.5785 1.44723C24.4577 0.978232 23.98 0.701732 23.5127 0.817232L16.7323 2.55848C16.5075 2.61623 16.315 2.76061 16.1977 2.96098C16.0787 3.16048 16.0455 3.39848 16.1032 3.62423L16.756 6.16611L0.653346 10.3014C0.186096 10.4221 -0.0956537 10.899 0.0233463 11.3662L0.458221 13.062C0.927221 14.8881 2.30885 16.2374 3.98885 16.7615C4.06497 19.0199 4.44385 21.5416 5.09222 24.0677C6.01797 27.6701 7.39347 30.9409 8.96497 33.2762C10.8042 36.008 12.3792 36.7202 13.522 36.7202C13.7652 36.7202 13.9901 36.6879 14.1931 36.6362C14.285 36.6126 14.3786 36.5811 14.474 36.5452C14.5221 36.5409 14.5693 36.5391 14.6175 36.5269L23.5153 34.2414H23.5171L33.262 31.7389L33.479 32.5859C33.9856 34.5581 35.768 35.8732 37.7183 35.8732C37.819 35.8732 37.9213 35.861 38.022 35.854C37.6203 36.7526 37.5153 37.7457 37.763 38.7126C37.9108 39.2892 38.1786 39.8011 38.5172 40.2491H37.6256C36.6605 40.2491 35.8756 41.034 35.8756 41.9991V44.6241C35.8756 45.5892 36.6605 46.3741 37.6256 46.3741H38.5006V47.2491C38.5006 49.6615 40.4632 51.6241 42.8756 51.6241H49.0006V55.1241C49.0006 55.6071 49.3917 55.9991 49.8756 55.9991H55.1256C55.6095 55.9991 56.0006 55.6071 56.0006 55.1241V50.7491V31.5C56.0006 31.017 55.6095 30.625 55.1256 30.625ZM23.1006 2.72998L23.5355 4.42486L18.4508 5.73123L18.016 4.03636L23.1006 2.72998ZM15.4111 31.017C15.2125 33.2264 14.579 34.7305 13.7565 34.9414C12.9357 35.1557 11.6556 34.1399 10.4166 32.2997C8.9536 30.1254 7.66385 27.0471 6.78797 23.6329C6.19822 21.3369 5.85085 19.0584 5.75722 16.9995C6.11947 16.9846 6.48522 16.9347 6.8501 16.8411L7.48272 16.6784C7.53522 18.2271 7.76885 20.4207 8.48197 23.1971C9.6606 27.7839 11.226 30.4281 12.0546 31.5962C12.2208 31.8316 12.4886 31.9646 12.7677 31.9646C12.8403 31.9646 12.913 31.9559 12.9856 31.9375C13.3365 31.8474 13.5955 31.5499 13.6366 31.1902C13.8002 29.7684 13.8982 26.6989 12.7196 22.1086C12.1255 19.7977 11.338 17.6855 10.4428 15.918L12.178 15.4726C13.0652 17.297 13.8378 19.4311 14.4145 21.6737C15.293 25.088 15.6465 28.406 15.4111 31.017ZM9.27735 17.4982C9.83822 18.7241 10.4735 20.3962 11.0256 22.5444C11.569 24.6619 11.8262 26.4215 11.9286 27.818C11.345 26.5449 10.7211 24.8789 10.1777 22.7622C9.6291 20.6272 9.37885 18.8606 9.27735 17.4982ZM23.0805 32.5465L16.504 34.2352C16.805 33.4652 17.0386 32.4695 17.155 31.1727C17.407 28.3684 17.036 24.8404 16.1111 21.238C15.5388 19.0111 14.775 16.8875 13.9017 15.0299L21.4976 13.0786C22.3857 14.9056 23.161 17.0292 23.7385 19.278C25.6923 26.8914 24.673 32.137 23.0805 32.5465ZM33.6741 29.8261L25.8043 31.8474C26.976 28.8514 26.661 23.6232 25.4333 18.8431C24.8593 16.611 24.0955 14.4952 23.2213 12.6367L24.6485 12.2701C26.5175 11.7889 28.4285 12.9202 28.9088 14.7884C29.2571 16.1464 30.1146 17.2882 31.3221 18.0014C32.1428 18.4861 33.0563 18.7346 33.9856 18.7346C34.4231 18.7346 34.865 18.6795 35.3007 18.5675L41.3443 17.0152C41.8116 16.8945 42.0933 16.4176 41.9743 15.9504C41.8536 15.4822 41.3767 15.2014 40.9086 15.3204L34.865 16.8726C33.9593 17.1062 33.0187 16.9715 32.2128 16.4955C31.4078 16.0204 30.8373 15.2591 30.6046 14.3535C29.8836 11.5491 27.0145 9.85598 24.2127 10.5752L6.41435 15.1462C4.54447 15.6249 2.63435 14.4961 2.15397 12.6271L1.9361 11.7792L18.0378 7.64398L24.8191 5.90273C24.82 5.90273 24.8208 5.90186 24.8217 5.90186L39.226 2.20236C45.2967 0.639607 51.5127 4.31548 53.0728 10.3897L53.5086 12.0855L50.9667 12.7382H50.9658L49.3488 13.153C48.8807 13.2737 48.599 13.7506 48.7188 14.2187C48.8405 14.6877 49.3191 14.966 49.7846 14.8487L50.5537 14.651L51.6413 18.8886C52.4822 22.1594 50.5038 25.5045 47.2331 26.3445L45.54 26.7794C45.5391 26.7794 45.5382 26.7794 45.5373 26.7794C45.5365 26.7794 45.5365 26.7802 45.5356 26.7802L33.6741 29.8261ZM38.3702 34.0401C36.9685 34.398 35.5343 33.5519 35.1747 32.151L34.9577 31.304L45.1278 28.6921L45.3457 29.5391C45.7053 30.9417 44.8575 32.375 43.4557 32.7346L38.3702 34.0401ZM44.2598 38.9611C43.9037 39.5649 43.3323 39.9927 42.6533 40.1669C41.9761 40.3401 41.2682 40.2412 40.6653 39.8842C40.0616 39.5272 39.6328 38.9567 39.4587 38.2777C39.2846 37.5987 39.3843 36.8926 39.7413 36.2889C40.0975 35.6851 40.6688 35.2572 41.3478 35.0831C41.5657 35.0271 41.7862 34.9991 42.0058 34.9991C42.4687 34.9991 42.9272 35.1234 43.3367 35.3649C43.9405 35.7219 44.3692 36.2924 44.5433 36.9714C44.7166 37.6512 44.6168 38.3574 44.2598 38.9611ZM39.3756 44.625H37.6256V42H41.9962H42.0015H42.0085H46.3756L46.3765 44.625H39.3756ZM54.2506 54.25H50.7506V51.625H54.2506V54.25ZM54.2506 49.875H49.8756H42.8756C41.4283 49.875 40.2506 48.6972 40.2506 47.25V46.375H46.3756H49.8756C51.3228 46.375 52.5006 45.1972 52.5006 43.75V32.375H54.2506V49.875Z" fill="url(#paint2_linear_1263_673)"/>
</g>
<defs>
<linearGradient id="paint0_linear_1263_673" x1="42.875" y1="36.75" x2="41.125" y2="36.75" gradientUnits="userSpaceOnUse">
<stop stop-color="#FF8911"/>
<stop offset="1" stop-color="#F83600"/>
</linearGradient>
<linearGradient id="paint1_linear_1263_673" x1="47.2503" y1="13.9452" x2="43.75" y2="13.9452" gradientUnits="userSpaceOnUse">
<stop stop-color="#FF8911"/>
<stop offset="1" stop-color="#F83600"/>
</linearGradient>
<linearGradient id="paint2_linear_1263_673" x1="56.0006" y1="0.0926514" x2="-0.00390625" y2="0.0926514" gradientUnits="userSpaceOnUse">
<stop stop-color="#FF8911"/>
<stop offset="1" stop-color="#F83600"/>
</linearGradient>
<clipPath id="clip0_1263_673">
<rect width="56" height="56" fill="white"/>
</clipPath>
</defs>
</svg>
