<svg width="56" height="56" viewBox="0 0 56 56" fill="none" xmlns="http://www.w3.org/2000/svg">
<g clip-path="url(#clip0_1263_706)">
<path d="M16.1875 35.4375C16.1875 34.6587 15.9566 33.8975 15.5239 33.2499C15.0913 32.6024 14.4763 32.0977 13.7568 31.7997C13.0373 31.5017 12.2456 31.4237 11.4818 31.5757C10.718 31.7276 10.0164 32.1026 9.46577 32.6533C8.9151 33.2039 8.54009 33.9055 8.38816 34.6693C8.23623 35.4331 8.31421 36.2248 8.61223 36.9443C8.91025 37.6638 9.41493 38.2788 10.0624 38.7114C10.71 39.1441 11.4712 39.375 12.25 39.375C13.2939 39.3739 14.2948 38.9587 15.033 38.2205C15.7712 37.4823 16.1864 36.4814 16.1875 35.4375ZM10.0625 35.4375C10.0625 35.0049 10.1908 34.5819 10.4312 34.2222C10.6715 33.8625 11.0132 33.5821 11.4129 33.4165C11.8126 33.2509 12.2524 33.2076 12.6768 33.292C13.1011 33.3764 13.4909 33.5848 13.7968 33.8907C14.1027 34.1966 14.3111 34.5864 14.3955 35.0107C14.4799 35.4351 14.4366 35.8749 14.271 36.2746C14.1054 36.6743 13.825 37.016 13.4653 37.2563C13.1056 37.4967 12.6826 37.625 12.25 37.625C11.6701 37.6243 11.114 37.3936 10.704 36.9835C10.2939 36.5735 10.0632 36.0175 10.0625 35.4375Z" fill="url(#paint0_linear_1263_706)"/>
<path d="M26.6875 35.4375C26.6875 34.6587 26.4566 33.8975 26.0239 33.2499C25.5913 32.6024 24.9763 32.0977 24.2568 31.7997C23.5373 31.5017 22.7456 31.4237 21.9818 31.5757C21.218 31.7276 20.5164 32.1026 19.9658 32.6533C19.4151 33.2039 19.0401 33.9055 18.8882 34.6693C18.7362 35.4331 18.8142 36.2248 19.1122 36.9443C19.4102 37.6638 19.9149 38.2788 20.5624 38.7114C21.21 39.1441 21.9712 39.375 22.75 39.375C23.7939 39.3739 24.7948 38.9587 25.533 38.2205C26.2712 37.4823 26.6864 36.4814 26.6875 35.4375ZM20.5625 35.4375C20.5625 35.0049 20.6908 34.5819 20.9312 34.2222C21.1715 33.8625 21.5132 33.5821 21.9129 33.4165C22.3126 33.2509 22.7524 33.2076 23.1768 33.292C23.6011 33.3764 23.9909 33.5848 24.2968 33.8907C24.6027 34.1966 24.8111 34.5864 24.8955 35.0107C24.9799 35.4351 24.9366 35.8749 24.771 36.2746C24.6054 36.6743 24.325 37.016 23.9653 37.2563C23.6056 37.4967 23.1826 37.625 22.75 37.625C22.17 37.6243 21.614 37.3936 21.204 36.9835C20.7939 36.5735 20.5632 36.0175 20.5625 35.4375Z" fill="url(#paint1_linear_1263_706)"/>
<path d="M37.1875 35.4375C37.1875 34.6587 36.9566 33.8975 36.5239 33.2499C36.0913 32.6024 35.4763 32.0977 34.7568 31.7997C34.0373 31.5017 33.2456 31.4237 32.4818 31.5757C31.718 31.7276 31.0164 32.1026 30.4658 32.6533C29.9151 33.2039 29.5401 33.9055 29.3882 34.6693C29.2362 35.4331 29.3142 36.2248 29.6122 36.9443C29.9102 37.6638 30.4149 38.2788 31.0624 38.7114C31.71 39.1441 32.4712 39.375 33.25 39.375C34.2939 39.3739 35.2948 38.9587 36.033 38.2205C36.7712 37.4823 37.1864 36.4814 37.1875 35.4375ZM31.0625 35.4375C31.0625 35.0049 31.1908 34.5819 31.4312 34.2222C31.6715 33.8625 32.0132 33.5821 32.4129 33.4165C32.8126 33.2509 33.2524 33.2076 33.6768 33.292C34.1011 33.3764 34.4909 33.5848 34.7968 33.8907C35.1027 34.1966 35.3111 34.5864 35.3955 35.0107C35.4799 35.4351 35.4366 35.8749 35.271 36.2746C35.1054 36.6743 34.825 37.016 34.4653 37.2563C34.1056 37.4967 33.6826 37.625 33.25 37.625C32.67 37.6243 32.114 37.3936 31.704 36.9835C31.2939 36.5735 31.0632 36.0175 31.0625 35.4375Z" fill="url(#paint2_linear_1263_706)"/>
<path d="M47.6875 35.4375C47.6875 34.6587 47.4566 33.8975 47.0239 33.2499C46.5913 32.6024 45.9763 32.0977 45.2568 31.7997C44.5373 31.5017 43.7456 31.4237 42.9818 31.5757C42.218 31.7276 41.5164 32.1026 40.9658 32.6533C40.4151 33.2039 40.0401 33.9055 39.8882 34.6693C39.7362 35.4331 39.8142 36.2248 40.1122 36.9443C40.4102 37.6638 40.9149 38.2788 41.5624 38.7114C42.21 39.1441 42.9712 39.375 43.75 39.375C44.7939 39.3739 45.7948 38.9587 46.533 38.2205C47.2712 37.4823 47.6864 36.4814 47.6875 35.4375ZM41.5625 35.4375C41.5625 35.0049 41.6908 34.5819 41.9312 34.2222C42.1715 33.8625 42.5132 33.5821 42.9129 33.4165C43.3126 33.2509 43.7524 33.2076 44.1768 33.292C44.6011 33.3764 44.9909 33.5848 45.2968 33.8907C45.6027 34.1966 45.8111 34.5864 45.8955 35.0107C45.9799 35.4351 45.9366 35.8749 45.771 36.2746C45.6054 36.6743 45.325 37.016 44.9653 37.2563C44.6056 37.4967 44.1826 37.625 43.75 37.625C43.17 37.6243 42.614 37.3936 42.204 36.9835C41.7939 36.5735 41.5632 36.0175 41.5625 35.4375Z" fill="url(#paint3_linear_1263_706)"/>
<path d="M52.0845 44.8552C52.6333 44.1686 52.9339 43.3165 52.9375 42.4375C52.9375 41.3932 52.5227 40.3917 51.7842 39.6533C51.0458 38.9148 50.0443 38.5 49 38.5C47.9557 38.5 46.9542 38.9148 46.2158 39.6533C45.4773 40.3917 45.0625 41.3932 45.0625 42.4375C45.0661 43.3165 45.3667 44.1686 45.9155 44.8552C45.0504 45.1331 44.2934 45.6738 43.75 46.4021C43.2066 45.6738 42.4496 45.1331 41.5845 44.8552C42.1333 44.1686 42.4339 43.3165 42.4375 42.4375C42.4375 41.3932 42.0227 40.3917 41.2842 39.6533C40.5458 38.9148 39.5443 38.5 38.5 38.5C37.4557 38.5 36.4542 38.9148 35.7158 39.6533C34.9773 40.3917 34.5625 41.3932 34.5625 42.4375C34.5661 43.3165 34.8667 44.1686 35.4155 44.8552C34.5504 45.1331 33.7934 45.6738 33.25 46.4021C32.7066 45.6738 31.9496 45.1331 31.0845 44.8552C31.6333 44.1686 31.9339 43.3165 31.9375 42.4375C31.9375 41.3932 31.5227 40.3917 30.7842 39.6533C30.0458 38.9148 29.0443 38.5 28 38.5C26.9557 38.5 25.9542 38.9148 25.2158 39.6533C24.4773 40.3917 24.0625 41.3932 24.0625 42.4375C24.0661 43.3165 24.3667 44.1686 24.9155 44.8552C24.0504 45.1331 23.2934 45.6738 22.75 46.4021C22.2066 45.6738 21.4496 45.1331 20.5845 44.8552C21.1333 44.1686 21.4339 43.3165 21.4375 42.4375C21.4375 41.3932 21.0227 40.3917 20.2842 39.6533C19.5458 38.9148 18.5443 38.5 17.5 38.5C16.4557 38.5 15.4542 38.9148 14.7158 39.6533C13.9773 40.3917 13.5625 41.3932 13.5625 42.4375C13.5661 43.3165 13.8667 44.1686 14.4155 44.8552C13.5504 45.1331 12.7934 45.6738 12.25 46.4021C11.7066 45.6738 10.9496 45.1331 10.0845 44.8552C10.6333 44.1686 10.9339 43.3165 10.9375 42.4375C10.9375 41.3932 10.5227 40.3917 9.78423 39.6533C9.04581 38.9148 8.04429 38.5 7 38.5C5.95571 38.5 4.95419 38.9148 4.21577 39.6533C3.47734 40.3917 3.0625 41.3932 3.0625 42.4375C3.06611 43.3165 3.36672 44.1686 3.91555 44.8552C3.0355 45.1357 2.26706 45.688 1.72072 46.4328C1.17438 47.1775 0.87828 48.0763 0.875 49V54.25C0.875 54.4821 0.967187 54.7046 1.13128 54.8687C1.29538 55.0328 1.51794 55.125 1.75 55.125H54.25C54.4821 55.125 54.7046 55.0328 54.8687 54.8687C55.0328 54.7046 55.125 54.4821 55.125 54.25V49C55.1217 48.0763 54.8256 47.1775 54.2793 46.4328C53.7329 45.688 52.9645 45.1357 52.0845 44.8552ZM7 40.25C7.43265 40.25 7.85558 40.3783 8.21531 40.6187C8.57504 40.859 8.85542 41.2007 9.02099 41.6004C9.18655 42.0001 9.22987 42.4399 9.14547 42.8643C9.06106 43.2886 8.85272 43.6784 8.5468 43.9843C8.24087 44.2902 7.85109 44.4986 7.42676 44.583C7.00243 44.6674 6.56259 44.6241 6.16288 44.4585C5.76317 44.2929 5.42153 44.0125 5.18116 43.6528C4.94079 43.2931 4.8125 42.8701 4.8125 42.4375C4.81318 41.8575 5.04387 41.3015 5.45396 40.8915C5.86404 40.4814 6.42005 40.2507 7 40.25ZM11.375 53.375H2.625V49C2.62576 48.304 2.90257 47.6368 3.39468 47.1447C3.8868 46.6526 4.55404 46.3758 5.25 46.375H8.75C9.44596 46.3758 10.1132 46.6526 10.6053 47.1447C11.0974 47.6368 11.3742 48.304 11.375 49V53.375ZM17.5 40.25C17.9326 40.25 18.3556 40.3783 18.7153 40.6187C19.075 40.859 19.3554 41.2007 19.521 41.6004C19.6866 42.0001 19.7299 42.4399 19.6455 42.8643C19.5611 43.2886 19.3527 43.6784 19.0468 43.9843C18.7409 44.2902 18.3511 44.4986 17.9268 44.583C17.5024 44.6674 17.0626 44.6241 16.6629 44.4585C16.2632 44.2929 15.9215 44.0125 15.6812 43.6528C15.4408 43.2931 15.3125 42.8701 15.3125 42.4375C15.3132 41.8575 15.5439 41.3015 15.954 40.8915C16.364 40.4814 16.92 40.2507 17.5 40.25ZM21.875 53.375H13.125V49C13.1258 48.304 13.4026 47.6368 13.8947 47.1447C14.3868 46.6526 15.054 46.3758 15.75 46.375H19.25C19.946 46.3758 20.6132 46.6526 21.1053 47.1447C21.5974 47.6368 21.8742 48.304 21.875 49V53.375ZM28 40.25C28.4326 40.25 28.8556 40.3783 29.2153 40.6187C29.575 40.859 29.8554 41.2007 30.021 41.6004C30.1866 42.0001 30.2299 42.4399 30.1455 42.8643C30.0611 43.2886 29.8527 43.6784 29.5468 43.9843C29.2409 44.2902 28.8511 44.4986 28.4268 44.583C28.0024 44.6674 27.5626 44.6241 27.1629 44.4585C26.7632 44.2929 26.4215 44.0125 26.1812 43.6528C25.9408 43.2931 25.8125 42.8701 25.8125 42.4375C25.8132 41.8575 26.0439 41.3015 26.454 40.8915C26.864 40.4814 27.42 40.2507 28 40.25ZM32.375 53.375H23.625V49C23.6258 48.304 23.9026 47.6368 24.3947 47.1447C24.8868 46.6526 25.554 46.3758 26.25 46.375H29.75C30.446 46.3758 31.1132 46.6526 31.6053 47.1447C32.0974 47.6368 32.3742 48.304 32.375 49V53.375ZM38.5 40.25C38.9326 40.25 39.3556 40.3783 39.7153 40.6187C40.075 40.859 40.3554 41.2007 40.521 41.6004C40.6866 42.0001 40.7299 42.4399 40.6455 42.8643C40.5611 43.2886 40.3527 43.6784 40.0468 43.9843C39.7409 44.2902 39.3511 44.4986 38.9268 44.583C38.5024 44.6674 38.0626 44.6241 37.6629 44.4585C37.2632 44.2929 36.9215 44.0125 36.6812 43.6528C36.4408 43.2931 36.3125 42.8701 36.3125 42.4375C36.3132 41.8575 36.5439 41.3015 36.954 40.8915C37.364 40.4814 37.92 40.2507 38.5 40.25ZM42.875 53.375H34.125V49C34.1258 48.304 34.4026 47.6368 34.8947 47.1447C35.3868 46.6526 36.054 46.3758 36.75 46.375H40.25C40.946 46.3758 41.6132 46.6526 42.1053 47.1447C42.5974 47.6368 42.8742 48.304 42.875 49V53.375ZM49 40.25C49.4326 40.25 49.8556 40.3783 50.2153 40.6187C50.575 40.859 50.8554 41.2007 51.021 41.6004C51.1866 42.0001 51.2299 42.4399 51.1455 42.8643C51.0611 43.2886 50.8527 43.6784 50.5468 43.9843C50.2409 44.2902 49.8511 44.4986 49.4268 44.583C49.0024 44.6674 48.5626 44.6241 48.1629 44.4585C47.7632 44.2929 47.4215 44.0125 47.1812 43.6528C46.9408 43.2931 46.8125 42.8701 46.8125 42.4375C46.8132 41.8575 47.0439 41.3015 47.454 40.8915C47.864 40.4814 48.42 40.2507 49 40.25ZM53.375 53.375H44.625V49C44.6258 48.304 44.9026 47.6368 45.3947 47.1447C45.8868 46.6526 46.554 46.3758 47.25 46.375H50.75C51.446 46.3758 52.1132 46.6526 52.6053 47.1447C53.0974 47.6368 53.3742 48.304 53.375 49V53.375Z" fill="url(#paint4_linear_1263_706)"/>
<path d="M34.125 20.125H46.375C47.3029 20.1239 48.1926 19.7548 48.8487 19.0987C49.5048 18.4426 49.8739 17.5529 49.875 16.625V7.875C49.8739 6.94707 49.5048 6.05745 48.8487 5.4013C48.1926 4.74515 47.3029 4.37606 46.375 4.375H34.125C33.1971 4.37606 32.3074 4.74515 31.6513 5.4013C30.9952 6.05745 30.6261 6.94707 30.625 7.875V16.625C30.6261 17.5529 30.9952 18.4426 31.6513 19.0987C32.3074 19.7548 33.1971 20.1239 34.125 20.125ZM32.375 7.875C32.3755 7.41101 32.56 6.96616 32.8881 6.63807C33.2162 6.30999 33.661 6.12546 34.125 6.125H46.375C46.839 6.12546 47.2838 6.30999 47.6119 6.63807C47.94 6.96616 48.1245 7.41101 48.125 7.875V16.625C48.1245 17.089 47.94 17.5338 47.6119 17.8619C47.2838 18.19 46.839 18.3745 46.375 18.375H34.125C33.661 18.3745 33.2162 18.19 32.8881 17.8619C32.56 17.5338 32.3755 17.089 32.375 16.625V7.875Z" fill="url(#paint5_linear_1263_706)"/>
<path d="M35.875 7.875H34.125V9.625H35.875V7.875Z" fill="url(#paint6_linear_1263_706)"/>
<path d="M46.375 7.875H37.625V9.625H46.375V7.875Z" fill="url(#paint7_linear_1263_706)"/>
<path d="M35.875 11.375H34.125V13.125H35.875V11.375Z" fill="url(#paint8_linear_1263_706)"/>
<path d="M46.375 11.375H37.625V13.125H46.375V11.375Z" fill="url(#paint9_linear_1263_706)"/>
<path d="M35.875 14.875H34.125V16.625H35.875V14.875Z" fill="url(#paint10_linear_1263_706)"/>
<path d="M46.375 14.875H37.625V16.625H46.375V14.875Z" fill="url(#paint11_linear_1263_706)"/>
<path d="M21 23.625H52.5C52.7321 23.625 52.9546 23.5328 53.1187 23.3687C53.2828 23.2046 53.375 22.9821 53.375 22.75V1.75C53.375 1.51794 53.2828 1.29538 53.1187 1.13128C52.9546 0.967187 52.7321 0.875 52.5 0.875H3.5C3.26794 0.875 3.04538 0.967187 2.88128 1.13128C2.71719 1.29538 2.625 1.51794 2.625 1.75V22.75C2.625 22.9821 2.71719 23.2046 2.88128 23.3687C3.04538 23.5328 3.26794 23.625 3.5 23.625H7V27.125H0.875V28.875H55.125V27.125H21V23.625ZM19.25 27.125H8.75V19.25H19.25V27.125ZM15.75 13.125C16.214 13.1255 16.6588 13.31 16.9869 13.6381C17.315 13.9662 17.4995 14.411 17.5 14.875V17.5H10.5V14.875C10.5005 14.411 10.685 13.9662 11.0131 13.6381C11.3412 13.31 11.786 13.1255 12.25 13.125H15.75ZM12.25 9.625C12.25 9.27888 12.3526 8.94054 12.5449 8.65275C12.7372 8.36497 13.0105 8.14066 13.3303 8.00821C13.6501 7.87576 14.0019 7.8411 14.3414 7.90863C14.6809 7.97615 14.9927 8.14282 15.2374 8.38756C15.4822 8.63231 15.6489 8.94413 15.7164 9.28359C15.7839 9.62306 15.7492 9.97493 15.6168 10.2947C15.4843 10.6145 15.26 10.8878 14.9722 11.0801C14.6845 11.2724 14.3461 11.375 14 11.375C13.536 11.3745 13.0912 11.19 12.7631 10.8619C12.435 10.5338 12.2505 10.089 12.25 9.625ZM20.125 17.5H19.25V14.875C19.2476 14.1503 19.02 13.4443 18.5987 12.8548C18.1774 12.2652 17.5831 11.8212 16.8983 11.5843C17.2546 11.058 17.4609 10.4445 17.495 9.80982C17.529 9.17513 17.3896 8.54313 17.0917 7.98166C16.7938 7.42019 16.3486 6.95045 15.8039 6.62285C15.2592 6.29525 14.6356 6.12217 14 6.12217C13.3644 6.12217 12.7408 6.29525 12.1961 6.62285C11.6514 6.95045 11.2062 7.42019 10.9083 7.98166C10.6104 8.54313 10.471 9.17513 10.505 9.80982C10.5391 10.4445 10.7454 11.058 11.1017 11.5843C10.4169 11.8212 9.82265 12.2652 9.4013 12.8548C8.97996 13.4443 8.75235 14.1503 8.75 14.875V17.5H7.875C7.64294 17.5 7.42038 17.5922 7.25628 17.7563C7.09219 17.9204 7 18.1429 7 18.375V21.875H4.375V2.625H51.625V21.875H21V18.375C21 18.1429 20.9078 17.9204 20.7437 17.7563C20.5796 17.5922 20.3571 17.5 20.125 17.5Z" fill="url(#paint12_linear_1263_706)"/>
</g>
<defs>
<linearGradient id="paint0_linear_1263_706" x1="16.1875" y1="31.5" x2="8.3125" y2="31.5" gradientUnits="userSpaceOnUse">
<stop stop-color="#FF8911"/>
<stop offset="1" stop-color="#F83600"/>
</linearGradient>
<linearGradient id="paint1_linear_1263_706" x1="26.6875" y1="31.5" x2="18.8125" y2="31.5" gradientUnits="userSpaceOnUse">
<stop stop-color="#FF8911"/>
<stop offset="1" stop-color="#F83600"/>
</linearGradient>
<linearGradient id="paint2_linear_1263_706" x1="37.1875" y1="31.5" x2="29.3125" y2="31.5" gradientUnits="userSpaceOnUse">
<stop stop-color="#FF8911"/>
<stop offset="1" stop-color="#F83600"/>
</linearGradient>
<linearGradient id="paint3_linear_1263_706" x1="47.6875" y1="31.5" x2="39.8125" y2="31.5" gradientUnits="userSpaceOnUse">
<stop stop-color="#FF8911"/>
<stop offset="1" stop-color="#F83600"/>
</linearGradient>
<linearGradient id="paint4_linear_1263_706" x1="55.125" y1="38.5" x2="0.875" y2="38.5" gradientUnits="userSpaceOnUse">
<stop stop-color="#FF8911"/>
<stop offset="1" stop-color="#F83600"/>
</linearGradient>
<linearGradient id="paint5_linear_1263_706" x1="49.875" y1="4.375" x2="30.625" y2="4.375" gradientUnits="userSpaceOnUse">
<stop stop-color="#FF8911"/>
<stop offset="1" stop-color="#F83600"/>
</linearGradient>
<linearGradient id="paint6_linear_1263_706" x1="35.875" y1="7.875" x2="34.125" y2="7.875" gradientUnits="userSpaceOnUse">
<stop stop-color="#FF8911"/>
<stop offset="1" stop-color="#F83600"/>
</linearGradient>
<linearGradient id="paint7_linear_1263_706" x1="46.375" y1="7.875" x2="37.625" y2="7.875" gradientUnits="userSpaceOnUse">
<stop stop-color="#FF8911"/>
<stop offset="1" stop-color="#F83600"/>
</linearGradient>
<linearGradient id="paint8_linear_1263_706" x1="35.875" y1="11.375" x2="34.125" y2="11.375" gradientUnits="userSpaceOnUse">
<stop stop-color="#FF8911"/>
<stop offset="1" stop-color="#F83600"/>
</linearGradient>
<linearGradient id="paint9_linear_1263_706" x1="46.375" y1="11.375" x2="37.625" y2="11.375" gradientUnits="userSpaceOnUse">
<stop stop-color="#FF8911"/>
<stop offset="1" stop-color="#F83600"/>
</linearGradient>
<linearGradient id="paint10_linear_1263_706" x1="35.875" y1="14.875" x2="34.125" y2="14.875" gradientUnits="userSpaceOnUse">
<stop stop-color="#FF8911"/>
<stop offset="1" stop-color="#F83600"/>
</linearGradient>
<linearGradient id="paint11_linear_1263_706" x1="46.375" y1="14.875" x2="37.625" y2="14.875" gradientUnits="userSpaceOnUse">
<stop stop-color="#FF8911"/>
<stop offset="1" stop-color="#F83600"/>
</linearGradient>
<linearGradient id="paint12_linear_1263_706" x1="55.125" y1="0.875" x2="0.875" y2="0.875" gradientUnits="userSpaceOnUse">
<stop stop-color="#FF8911"/>
<stop offset="1" stop-color="#F83600"/>
</linearGradient>
<clipPath id="clip0_1263_706">
<rect width="56" height="56" fill="white"/>
</clipPath>
</defs>
</svg>
