<svg width="56" height="56" viewBox="0 0 56 56" fill="none" xmlns="http://www.w3.org/2000/svg">
<g clip-path="url(#clip0_1263_942)">
<path fill-rule="evenodd" clip-rule="evenodd" d="M45.1759 31.9572V6.77612C45.1759 3.03986 42.1361 0 38.3998 0C34.6631 0 31.6233 3.03986 31.6233 6.77612V31.9572C29.2068 33.4397 27.3299 35.6797 26.3015 38.327C26.0827 38.8901 26.3617 39.5241 26.9248 39.7429C27.4875 39.9612 28.1215 39.6822 28.3403 39.1191C29.2619 36.7479 31.002 34.7689 33.2408 33.5474C33.5924 33.356 33.8108 32.9877 33.8108 32.5873V6.77612C33.8108 4.24597 35.8692 2.1875 38.3998 2.1875C40.93 2.1875 42.9884 4.24597 42.9884 6.77612V32.5873C42.9884 32.9877 43.2072 33.356 43.5584 33.5474C47.0306 35.4418 49.1878 39.0734 49.1878 43.0245C49.1878 48.9731 44.3479 53.8125 38.3994 53.8125C33.9133 53.8125 29.9647 51.111 28.3403 46.9296C28.1215 46.3665 27.4879 46.0875 26.9248 46.3062C26.3617 46.525 26.0823 47.1586 26.3011 47.7217C27.2525 50.1702 28.9013 52.2488 31.0695 53.7322C33.2378 55.2156 35.7727 56 38.3998 56C45.5545 56 51.3753 50.1792 51.3753 43.0245C51.3753 38.4927 49.016 34.3104 45.1759 31.9572Z" fill="url(#paint0_linear_1263_942)"/>
<path fill-rule="evenodd" clip-rule="evenodd" d="M38.4008 9.55713C37.7966 9.55713 37.307 10.0468 37.307 10.6509V35.5533C33.6596 36.0853 30.8496 39.2324 30.8496 43.0246C30.8496 47.1881 34.2368 50.5757 38.4008 50.5757C42.5643 50.5757 45.9519 47.1881 45.9519 43.0246C45.9519 39.2324 43.1415 36.0853 39.4945 35.5533V10.6509C39.4945 10.0468 39.0049 9.55713 38.4008 9.55713ZM43.7644 43.0246C43.7644 45.982 41.3582 48.3882 38.4008 48.3882C35.4429 48.3882 33.0371 45.982 33.0371 43.0246C33.0371 40.0668 35.4429 37.6605 38.4008 37.6605C41.3582 37.6605 43.7644 40.0668 43.7644 43.0246Z" fill="url(#paint1_linear_1263_942)"/>
<path fill-rule="evenodd" clip-rule="evenodd" d="M49.3047 12.5769H54.9871C55.5912 12.5769 56.0808 12.0873 56.0808 11.4832C56.0808 10.879 55.5912 10.3894 54.9871 10.3894H49.3047C48.7006 10.3894 48.2109 10.879 48.2109 11.4832C48.2109 12.0873 48.7006 12.5769 49.3047 12.5769Z" fill="url(#paint2_linear_1263_942)"/>
<path fill-rule="evenodd" clip-rule="evenodd" d="M54.9871 15.4412H49.3047C48.7006 15.4412 48.2109 15.9308 48.2109 16.5349C48.2109 17.1386 48.7006 17.6287 49.3047 17.6287H54.9871C55.5912 17.6287 56.0808 17.1386 56.0808 16.5349C56.0808 15.9308 55.5912 15.4412 54.9871 15.4412Z" fill="url(#paint3_linear_1263_942)"/>
<path fill-rule="evenodd" clip-rule="evenodd" d="M54.9871 20.4924H49.3047C48.7006 20.4924 48.2109 20.9821 48.2109 21.5862C48.2109 22.1903 48.7006 22.6799 49.3047 22.6799H54.9871C55.5912 22.6799 56.0808 22.1903 56.0808 21.5862C56.0808 20.9821 55.5912 20.4924 54.9871 20.4924Z" fill="url(#paint4_linear_1263_942)"/>
<path fill-rule="evenodd" clip-rule="evenodd" d="M54.9871 25.5437H49.3047C48.7006 25.5437 48.2109 26.0338 48.2109 26.6375C48.2109 27.2416 48.7006 27.7312 49.3047 27.7312H54.9871C55.5912 27.7312 56.0808 27.2416 56.0808 26.6375C56.0808 26.0333 55.5912 25.5437 54.9871 25.5437Z" fill="url(#paint5_linear_1263_942)"/>
<path fill-rule="evenodd" clip-rule="evenodd" d="M14.9857 10.844C12.3542 10.844 9.86254 12.1198 8.32019 14.256C7.96685 14.7456 8.07708 15.4292 8.56671 15.783C9.05676 16.1363 9.74035 16.0261 10.0937 15.5364C11.2263 13.968 13.0549 13.0315 14.9857 13.0315C18.3096 13.0315 21.0141 15.736 21.0141 19.0604C21.0141 22.3848 18.3096 25.0892 14.9857 25.0892C13.0545 25.0892 11.2259 24.1527 10.0937 22.5843C9.74035 22.0947 9.05676 21.9844 8.56671 22.3378C8.07708 22.6915 7.96685 23.3751 8.32019 23.8647C9.86254 26.0014 12.3542 27.2767 14.9857 27.2767C19.5157 27.2767 23.2016 23.5909 23.2016 19.0604C23.2016 14.5298 19.5162 10.844 14.9857 10.844Z" fill="url(#paint6_linear_1263_942)"/>
<path fill-rule="evenodd" clip-rule="evenodd" d="M14.9863 8.95978C15.5905 8.95978 16.0801 8.47015 16.0801 7.86603V5.27734C16.0801 4.67365 15.5905 4.18359 14.9863 4.18359C14.3822 4.18359 13.8926 4.67365 13.8926 5.27734V7.86603C13.8926 8.47015 14.3822 8.95978 14.9863 8.95978Z" fill="url(#paint7_linear_1263_942)"/>
<path fill-rule="evenodd" clip-rule="evenodd" d="M6.29724 11.9181C6.51086 12.1317 6.79071 12.2385 7.07056 12.2385C7.3504 12.2385 7.63025 12.1317 7.84387 11.9181C8.27112 11.4913 8.27112 10.7987 7.84387 10.3715L6.01355 8.54114C5.5863 8.11389 4.89374 8.11389 4.46692 8.54114C4.03967 8.96796 4.03967 9.66052 4.46692 10.0878L6.29724 11.9181Z" fill="url(#paint8_linear_1263_942)"/>
<path fill-rule="evenodd" clip-rule="evenodd" d="M25.0859 19.0603C25.0859 19.6644 25.5756 20.1541 26.1797 20.1541H28.7684C29.3725 20.1541 29.8621 19.6644 29.8621 19.0603C29.8621 18.4562 29.3725 17.9666 28.7684 17.9666H26.1797C25.5756 17.9666 25.0859 18.4562 25.0859 19.0603Z" fill="url(#paint9_linear_1263_942)"/>
<path fill-rule="evenodd" clip-rule="evenodd" d="M22.9023 12.2385C23.1822 12.2385 23.462 12.1317 23.6757 11.9185L25.506 10.0878C25.9332 9.66095 25.9332 8.96838 25.506 8.54114C25.0792 8.11389 24.3866 8.11389 23.9594 8.54114L22.129 10.3715C21.7018 10.7987 21.7018 11.4913 22.129 11.9185C22.3422 12.1317 22.6225 12.2385 22.9023 12.2385Z" fill="url(#paint10_linear_1263_942)"/>
<path fill-rule="evenodd" clip-rule="evenodd" d="M4.88556 19.0603C4.88556 18.4562 4.39594 17.9666 3.79181 17.9666H1.20312C0.598999 17.9666 0.109375 18.4562 0.109375 19.0603C0.109375 19.6644 0.598999 20.1541 1.20312 20.1541H3.79181C4.39594 20.1541 4.88556 19.6644 4.88556 19.0603Z" fill="url(#paint11_linear_1263_942)"/>
<path fill-rule="evenodd" clip-rule="evenodd" d="M14.9863 29.1609C14.3822 29.1609 13.8926 29.6505 13.8926 30.2546V32.8433C13.8926 33.4474 14.3822 33.9371 14.9863 33.9371C15.5905 33.9371 16.0801 33.4474 16.0801 32.8433V30.2546C16.0801 29.6505 15.5905 29.1609 14.9863 29.1609Z" fill="url(#paint12_linear_1263_942)"/>
<path fill-rule="evenodd" clip-rule="evenodd" d="M25.506 28.0328L23.6757 26.2025C23.2484 25.7753 22.5558 25.7753 22.129 26.2025C21.7018 26.6298 21.7018 27.3223 22.129 27.7496L23.9594 29.5799C24.173 29.7931 24.4528 29.8999 24.7327 29.8999C25.0125 29.8999 25.2924 29.7931 25.506 29.5799C25.9332 29.1526 25.9332 28.4601 25.506 28.0328Z" fill="url(#paint13_linear_1263_942)"/>
<path fill-rule="evenodd" clip-rule="evenodd" d="M6.29724 26.2025L4.46692 28.0328C4.03967 28.4597 4.03967 29.1522 4.46692 29.5795C4.68011 29.7931 4.96039 29.8999 5.24023 29.8999C5.52008 29.8999 5.79993 29.7931 6.01355 29.5795L7.84387 27.7491C8.27112 27.3223 8.27112 26.6298 7.84387 26.2025C7.41663 25.7753 6.72449 25.7753 6.29724 26.2025Z" fill="url(#paint14_linear_1263_942)"/>
<path fill-rule="evenodd" clip-rule="evenodd" d="M27.6118 43.0245C27.6118 42.4221 27.1204 41.9308 26.518 41.9308C25.9156 41.9308 25.4238 42.4221 25.4238 43.0245C25.4238 43.627 25.9156 44.1183 26.518 44.1183C27.1204 44.1183 27.6118 43.627 27.6118 43.0245Z" fill="url(#paint15_linear_1263_942)"/>
<path fill-rule="evenodd" clip-rule="evenodd" d="M6.76953 19.0603C6.76953 19.6627 7.26086 20.1541 7.86328 20.1541C8.4657 20.1541 8.95703 19.6627 8.95703 19.0603C8.95703 18.4579 8.4657 17.9666 7.86328 17.9666C7.26086 17.9666 6.76953 18.4579 6.76953 19.0603Z" fill="url(#paint16_linear_1263_942)"/>
</g>
<defs>
<linearGradient id="paint0_linear_1263_942" x1="51.3753" y1="0" x2="26.2266" y2="0" gradientUnits="userSpaceOnUse">
<stop stop-color="#FF8911"/>
<stop offset="1" stop-color="#F83600"/>
</linearGradient>
<linearGradient id="paint1_linear_1263_942" x1="45.9519" y1="9.55713" x2="30.8496" y2="9.55713" gradientUnits="userSpaceOnUse">
<stop stop-color="#FF8911"/>
<stop offset="1" stop-color="#F83600"/>
</linearGradient>
<linearGradient id="paint2_linear_1263_942" x1="56.0808" y1="10.3894" x2="48.2109" y2="10.3894" gradientUnits="userSpaceOnUse">
<stop stop-color="#FF8911"/>
<stop offset="1" stop-color="#F83600"/>
</linearGradient>
<linearGradient id="paint3_linear_1263_942" x1="56.0808" y1="15.4412" x2="48.2109" y2="15.4412" gradientUnits="userSpaceOnUse">
<stop stop-color="#FF8911"/>
<stop offset="1" stop-color="#F83600"/>
</linearGradient>
<linearGradient id="paint4_linear_1263_942" x1="56.0808" y1="20.4924" x2="48.2109" y2="20.4924" gradientUnits="userSpaceOnUse">
<stop stop-color="#FF8911"/>
<stop offset="1" stop-color="#F83600"/>
</linearGradient>
<linearGradient id="paint5_linear_1263_942" x1="56.0808" y1="25.5437" x2="48.2109" y2="25.5437" gradientUnits="userSpaceOnUse">
<stop stop-color="#FF8911"/>
<stop offset="1" stop-color="#F83600"/>
</linearGradient>
<linearGradient id="paint6_linear_1263_942" x1="23.2016" y1="10.844" x2="8.11328" y2="10.844" gradientUnits="userSpaceOnUse">
<stop stop-color="#FF8911"/>
<stop offset="1" stop-color="#F83600"/>
</linearGradient>
<linearGradient id="paint7_linear_1263_942" x1="16.0801" y1="4.18359" x2="13.8926" y2="4.18359" gradientUnits="userSpaceOnUse">
<stop stop-color="#FF8911"/>
<stop offset="1" stop-color="#F83600"/>
</linearGradient>
<linearGradient id="paint8_linear_1263_942" x1="8.16431" y1="8.2207" x2="4.14648" y2="8.2207" gradientUnits="userSpaceOnUse">
<stop stop-color="#FF8911"/>
<stop offset="1" stop-color="#F83600"/>
</linearGradient>
<linearGradient id="paint9_linear_1263_942" x1="29.8621" y1="17.9666" x2="25.0859" y2="17.9666" gradientUnits="userSpaceOnUse">
<stop stop-color="#FF8911"/>
<stop offset="1" stop-color="#F83600"/>
</linearGradient>
<linearGradient id="paint10_linear_1263_942" x1="25.8264" y1="8.2207" x2="21.8086" y2="8.2207" gradientUnits="userSpaceOnUse">
<stop stop-color="#FF8911"/>
<stop offset="1" stop-color="#F83600"/>
</linearGradient>
<linearGradient id="paint11_linear_1263_942" x1="4.88556" y1="17.9666" x2="0.109375" y2="17.9666" gradientUnits="userSpaceOnUse">
<stop stop-color="#FF8911"/>
<stop offset="1" stop-color="#F83600"/>
</linearGradient>
<linearGradient id="paint12_linear_1263_942" x1="16.0801" y1="29.1609" x2="13.8926" y2="29.1609" gradientUnits="userSpaceOnUse">
<stop stop-color="#FF8911"/>
<stop offset="1" stop-color="#F83600"/>
</linearGradient>
<linearGradient id="paint13_linear_1263_942" x1="25.8264" y1="25.8821" x2="21.8086" y2="25.8821" gradientUnits="userSpaceOnUse">
<stop stop-color="#FF8911"/>
<stop offset="1" stop-color="#F83600"/>
</linearGradient>
<linearGradient id="paint14_linear_1263_942" x1="8.16431" y1="25.8821" x2="4.14648" y2="25.8821" gradientUnits="userSpaceOnUse">
<stop stop-color="#FF8911"/>
<stop offset="1" stop-color="#F83600"/>
</linearGradient>
<linearGradient id="paint15_linear_1263_942" x1="27.6118" y1="41.9308" x2="25.4238" y2="41.9308" gradientUnits="userSpaceOnUse">
<stop stop-color="#FF8911"/>
<stop offset="1" stop-color="#F83600"/>
</linearGradient>
<linearGradient id="paint16_linear_1263_942" x1="8.95703" y1="17.9666" x2="6.76953" y2="17.9666" gradientUnits="userSpaceOnUse">
<stop stop-color="#FF8911"/>
<stop offset="1" stop-color="#F83600"/>
</linearGradient>
<clipPath id="clip0_1263_942">
<rect width="56" height="56" fill="white"/>
</clipPath>
</defs>
</svg>
