<svg width="56" height="56" viewBox="0 0 56 56" fill="none" xmlns="http://www.w3.org/2000/svg">
<path d="M34 44C33.8022 44 33.6089 43.9414 33.4444 43.8315C33.28 43.7216 33.1518 43.5654 33.0761 43.3827C33.0004 43.2 32.9806 42.9989 33.0192 42.8049C33.0578 42.6109 33.153 42.4327 33.2929 42.2929C33.4327 42.153 33.6109 42.0578 33.8049 42.0192C33.9989 41.9806 34.2 42.0004 34.3827 42.0761C34.5654 42.1518 34.7216 42.28 34.8315 42.4444C34.9414 42.6089 35 42.8022 35 43C35 43.2652 34.8946 43.5196 34.7071 43.7071C34.5196 43.8946 34.2652 44 34 44Z" fill="url(#paint0_linear_1263_898)"/>
<path d="M53.9547 15H49.0453C48.768 15 48.5022 14.8946 48.3062 14.7071C48.1101 14.5196 48 14.2652 48 14C48 13.7348 48.1101 13.4804 48.3062 13.2929C48.5022 13.1054 48.768 13 49.0453 13H53.9547C54.232 13 54.4978 13.1054 54.6939 13.2929C54.8899 13.4804 55 13.7348 55 14C55 14.2652 54.8899 14.5196 54.6939 14.7071C54.4978 14.8946 54.232 15 53.9547 15Z" fill="url(#paint1_linear_1263_898)"/>
<path d="M53.9547 24H49.0453C48.768 24 48.5022 23.8946 48.3062 23.7071C48.1101 23.5196 48 23.2652 48 23C48 22.7348 48.1101 22.4804 48.3062 22.2929C48.5022 22.1054 48.768 22 49.0453 22H53.9547C54.232 22 54.4978 22.1054 54.6939 22.2929C54.8899 22.4804 55 22.7348 55 23C55 23.2652 54.8899 23.5196 54.6939 23.7071C54.4978 23.8946 54.232 24 53.9547 24Z" fill="url(#paint2_linear_1263_898)"/>
<path d="M53.9547 32H49.0453C48.768 32 48.5022 31.8946 48.3062 31.7071C48.1101 31.5196 48 31.2652 48 31C48 30.7348 48.1101 30.4804 48.3062 30.2929C48.5022 30.1054 48.768 30 49.0453 30H53.9547C54.232 30 54.4978 30.1054 54.6939 30.2929C54.8899 30.4804 55 30.7348 55 31C55 31.2652 54.8899 31.5196 54.6939 31.7071C54.4978 31.8946 54.232 32 53.9547 32Z" fill="url(#paint3_linear_1263_898)"/>
<path d="M51.8501 20H49.1499C48.8449 20 48.5525 19.8946 48.3368 19.7071C48.1212 19.5196 48 19.2652 48 19C48 18.7348 48.1212 18.4804 48.3368 18.2929C48.5525 18.1054 48.8449 18 49.1499 18H51.8501C52.1551 18 52.4475 18.1054 52.6632 18.2929C52.8788 18.4804 53 18.7348 53 19C53 19.2652 52.8788 19.5196 52.6632 19.7071C52.4475 19.8946 52.1551 20 51.8501 20Z" fill="url(#paint4_linear_1263_898)"/>
<path d="M51.8501 28H49.1499C48.8449 28 48.5525 27.8946 48.3368 27.7071C48.1212 27.5196 48 27.2652 48 27C48 26.7348 48.1212 26.4804 48.3368 26.2929C48.5525 26.1054 48.8449 26 49.1499 26H51.8501C52.1551 26 52.4475 26.1054 52.6632 26.2929C52.8788 26.4804 53 26.7348 53 27C53 27.2652 52.8788 27.5196 52.6632 27.7071C52.4475 27.8946 52.1551 28 51.8501 28Z" fill="url(#paint5_linear_1263_898)"/>
<path d="M41.9997 50C37.0372 50 33 45.9859 33 41.0525C33 40.7867 33.012 40.5264 33.0341 40.2719V40.2547C33.0468 40.1059 33.0648 39.9524 33.0875 39.7857C33.2789 38.4492 33.7723 37.1733 34.5306 36.0535C35.289 34.9338 36.2926 33.9994 37.4661 33.3205V19.6089C37.4661 19.6016 37.4661 19.5949 37.4661 19.5883V15.4852C37.4661 15.4785 37.4661 15.4719 37.4661 15.4646V10.5072C37.4652 9.53775 37.7818 8.59435 38.368 7.81964L38.376 7.80901C38.9455 7.05079 39.7408 6.49018 40.6489 6.20676C41.557 5.92333 42.5318 5.93149 43.435 6.23006C44.3382 6.52864 45.1238 7.10247 45.6804 7.87012C46.2371 8.63776 46.5364 9.56021 46.5359 10.5066V33.3198C47.8949 34.1083 49.0223 35.2372 49.8056 36.594C50.5888 37.9508 51.0007 39.488 51 41.0525C51 45.9859 46.9621 50 41.9997 50ZM35.1672 40.4214V40.4427C35.1492 40.6419 35.1398 40.8452 35.1398 41.0518C35.1401 42.2702 35.4686 43.4664 36.091 44.516C36.7135 45.5655 37.6072 46.4302 38.6795 47.0202C39.7517 47.6102 40.9632 47.904 42.1882 47.871C43.4133 47.838 44.607 47.4794 45.6455 46.8325C46.684 46.1857 47.5294 45.2741 48.0938 44.1926C48.6581 43.111 48.9209 41.8989 48.8548 40.6822C48.7887 39.4656 48.3962 38.2887 47.7179 37.2738C47.0397 36.259 46.1005 35.4433 44.998 34.9114C44.8177 34.8242 44.6657 34.6883 44.5594 34.5193C44.4531 34.3502 44.3967 34.1549 44.3967 33.9555V10.5072C44.3973 10.0063 44.2387 9.51802 43.9438 9.11195C43.6488 8.70588 43.2324 8.40275 42.754 8.24579C42.2756 8.08882 41.7596 8.08603 41.2795 8.2378C40.7993 8.38958 40.3797 8.68817 40.0803 9.09103L40.0749 9.09834C39.7702 9.50573 39.6062 10.0002 39.6073 10.5079V15.4453V15.4659V19.6095V19.6301V33.9562C39.6072 34.1541 39.5516 34.3481 39.4467 34.5162C39.3418 34.6844 39.1917 34.8201 39.0134 34.9081L38.9833 34.9233C37.9786 35.4116 37.1093 36.137 36.4512 37.036C35.7932 37.9351 35.3663 38.9806 35.208 40.0813C35.19 40.2015 35.1766 40.3145 35.1672 40.4214Z" fill="url(#paint6_linear_1263_898)"/>
<path d="M42.0007 46C41.0118 46.0001 40.045 45.707 39.2227 45.1577C38.4003 44.6084 37.7594 43.8275 37.3808 42.9139C37.0023 42.0003 36.9031 40.9949 37.096 40.025C37.2888 39.055 37.765 38.1641 38.4642 37.4647C39.1634 36.7654 40.0544 36.2891 41.0243 36.0961C41.9942 35.9031 42.9996 36.0021 43.9133 36.3805C44.8269 36.759 45.6079 37.3998 46.1573 38.2221C46.7067 39.0443 47 40.0111 47 41C46.9985 42.3255 46.4713 43.5962 45.5341 44.5336C44.5969 45.4709 43.3262 45.9983 42.0007 46ZM42.0007 38.328C41.4722 38.3278 40.9555 38.4844 40.516 38.7779C40.0765 39.0714 39.7339 39.4887 39.5316 39.9769C39.3292 40.4652 39.2762 41.0025 39.3792 41.5208C39.4822 42.0392 39.7367 42.5154 40.1103 42.8892C40.484 43.2629 40.9601 43.5175 41.4784 43.6207C41.9968 43.7238 42.5341 43.6709 43.0224 43.4687C43.5107 43.2665 43.928 42.924 44.2217 42.4846C44.5153 42.0452 44.6721 41.5285 44.6721 41C44.6711 40.2917 44.3894 39.6128 43.8886 39.1119C43.3879 38.611 42.709 38.3291 42.0007 38.328Z" fill="url(#paint7_linear_1263_898)"/>
<path d="M42 38C41.7348 38 41.4804 37.8899 41.2929 37.694C41.1054 37.4981 41 37.2324 41 36.9554V14.0446C41 13.7676 41.1054 13.5019 41.2929 13.306C41.4804 13.1101 41.7348 13 42 13C42.2652 13 42.5196 13.1101 42.7071 13.306C42.8946 13.5019 43 13.7676 43 14.0446V36.9554C43 37.2324 42.8946 37.4981 42.7071 37.694C42.5196 37.8899 42.2652 38 42 38Z" fill="url(#paint8_linear_1263_898)"/>
<path d="M17.5 45C17.1022 45 16.7206 44.8872 16.4393 44.6863C16.158 44.4855 16 44.2132 16 43.9291V31.0709C16 30.7868 16.158 30.5145 16.4393 30.3136C16.7206 30.1128 17.1022 30 17.5 30C17.8978 30 18.2794 30.1128 18.5607 30.3136C18.842 30.5145 19 30.7868 19 31.0709V43.9291C19 44.2132 18.842 44.4855 18.5607 44.6863C18.2794 44.8872 17.8978 45 17.5 45Z" fill="url(#paint9_linear_1263_898)"/>
<path d="M17.5 26C17.1022 26 16.7206 25.8872 16.4393 25.6864C16.158 25.4855 16 25.2132 16 24.9291V12.0709C16 11.7868 16.158 11.5145 16.4393 11.3136C16.7206 11.1128 17.1022 11 17.5 11C17.8978 11 18.2794 11.1128 18.5607 11.3136C18.842 11.5145 19 11.7868 19 12.0709V24.9291C19 25.2132 18.842 25.4855 18.5607 25.6864C18.2794 25.8872 17.8978 26 17.5 26Z" fill="url(#paint10_linear_1263_898)"/>
<path d="M17.4927 21C17.3138 20.9998 17.1376 20.9563 16.9795 20.8733C16.8214 20.7904 16.6862 20.6704 16.5855 20.5239L11.1847 12.7141C11.0243 12.476 10.9651 12.1847 11.02 11.9036C11.0749 11.6225 11.2394 11.3742 11.478 11.2124C11.7165 11.0506 12.0098 10.9884 12.2943 11.0393C12.5788 11.0903 12.8315 11.2502 12.9978 11.4844L17.4927 17.9855L21.987 11.4844C22.0677 11.3646 22.1716 11.2618 22.2927 11.182C22.4138 11.1023 22.5497 11.0471 22.6925 11.0198C22.8353 10.9924 22.9822 10.9934 23.1245 11.0227C23.2669 11.052 23.4021 11.109 23.522 11.1904C23.642 11.2718 23.7445 11.3759 23.8236 11.4968C23.9026 11.6178 23.9566 11.753 23.9825 11.8947C24.0083 12.0365 24.0055 12.1819 23.9742 12.3226C23.9429 12.4632 23.8837 12.5963 23.8001 12.7141L18.3993 20.5266C18.2984 20.6725 18.1631 20.7919 18.0052 20.8744C17.8472 20.9569 17.6713 21 17.4927 21Z" fill="url(#paint11_linear_1263_898)"/>
<path d="M22.905 44.989C22.726 44.9889 22.5498 44.9455 22.3916 44.8625C22.2334 44.7795 22.0981 44.6595 21.9974 44.5129L17.5051 38.0123L13.0121 44.5156C12.9315 44.6354 12.8276 44.7382 12.7065 44.8179C12.5855 44.8977 12.4496 44.9529 12.3069 44.9802C12.1642 45.0076 12.0174 45.0066 11.8751 44.9773C11.7327 44.948 11.5977 44.891 11.4777 44.8096C11.3578 44.7282 11.2554 44.6241 11.1764 44.5031C11.0974 44.3822 11.0434 44.247 11.0175 44.1052C10.9917 43.9635 10.9945 43.8181 11.0258 43.6774C11.057 43.5367 11.1162 43.4036 11.1998 43.2858L16.5983 35.4738C16.6991 35.3277 16.8344 35.2083 16.9924 35.1257C17.1503 35.0431 17.3262 35 17.5048 35C17.6834 35 17.8593 35.0431 18.0172 35.1257C18.1752 35.2083 18.3104 35.3277 18.4113 35.4738L23.8098 43.2858C23.9219 43.4491 23.9871 43.6397 23.9983 43.8369C24.0095 44.0342 23.9662 44.2308 23.8732 44.4055C23.7803 44.5803 23.641 44.7267 23.4704 44.829C23.2998 44.9313 23.1044 44.9857 22.905 44.9863V44.989Z" fill="url(#paint12_linear_1263_898)"/>
<path d="M6.65711 42C6.49816 42.0003 6.34167 41.9542 6.20191 41.8659C6.06214 41.7775 5.94353 41.6498 5.8569 41.4942C5.77027 41.3387 5.71837 41.1603 5.70593 40.9753C5.69348 40.7904 5.7209 40.6047 5.78567 40.4353L8.64284 32.971L1.88562 32.2206C1.75896 32.2102 1.63536 32.1704 1.52208 32.1034C1.40881 32.0365 1.30815 31.9437 1.22603 31.8307C1.1439 31.7177 1.08197 31.5866 1.04388 31.4452C1.00578 31.3038 0.99229 31.155 1.0042 31.0074C1.0161 30.8599 1.05317 30.7166 1.11321 30.586C1.17325 30.4554 1.25506 30.3401 1.35382 30.247C1.45259 30.1538 1.56631 30.0847 1.6883 30.0436C1.8103 30.0025 1.9381 29.9903 2.0642 30.0077L10.1381 30.904C10.2886 30.9207 10.4334 30.9791 10.5608 31.0741C10.6881 31.1692 10.7942 31.2983 10.8704 31.4507C10.9465 31.6031 10.9905 31.7745 10.9986 31.9506C11.0068 32.1268 10.9789 32.3027 10.9173 32.4638L7.52438 41.3406C7.44966 41.5364 7.32805 41.7028 7.17418 41.8198C7.0203 41.9368 6.84074 41.9994 6.65711 42Z" fill="url(#paint13_linear_1263_898)"/>
<path d="M33.0456 26C33.0152 26 32.986 26 32.9544 25.9951L24.8663 25.0954C24.7153 25.0791 24.5698 25.021 24.4419 24.9258C24.3139 24.8307 24.2073 24.7013 24.1307 24.5484C24.0541 24.3954 24.0098 24.2233 24.0014 24.0464C23.9931 23.8694 24.021 23.6927 24.0828 23.5309L27.4816 14.6273C27.5898 14.3673 27.7802 14.1666 28.0127 14.0675C28.2451 13.9684 28.5014 13.9787 28.7274 14.0963C28.9534 14.2138 29.1316 14.4294 29.2242 14.6975C29.3169 14.9656 29.3168 15.2652 29.224 15.5333L26.3689 23.0221L33.1351 23.7748C33.3793 23.8016 33.6054 23.9373 33.7663 24.1538C33.9271 24.3703 34.0105 24.6509 33.9989 24.9373C33.9874 25.2237 33.882 25.4939 33.7044 25.6918C33.5269 25.8897 33.291 26.0001 33.0456 26Z" fill="url(#paint14_linear_1263_898)"/>
<path d="M21.0017 27C20.7826 27.0004 20.5694 26.9285 20.3949 26.7953C20.2204 26.6621 20.0943 26.475 20.036 26.2628C19.9777 26.0506 19.9904 25.825 20.0722 25.6208C20.154 25.4165 20.3003 25.2449 20.4886 25.1324L30.4882 19.1416C30.716 19.0052 30.9884 18.9653 31.2455 19.0307C31.5026 19.0961 31.7233 19.2614 31.8591 19.4903C31.9948 19.7191 32.0345 19.9928 31.9694 20.251C31.9043 20.5093 31.7397 20.731 31.5119 20.8673L21.5123 26.8581C21.358 26.9508 21.1816 26.9999 21.0017 27Z" fill="url(#paint15_linear_1263_898)"/>
<path d="M4.0017 37C3.78255 37.0004 3.56935 36.9285 3.39488 36.7953C3.22041 36.6621 3.09433 36.475 3.03603 36.2628C2.97773 36.0506 2.99045 35.825 3.07222 35.6208C3.15399 35.4166 3.30029 35.245 3.48862 35.1324L13.4878 29.1417C13.7156 29.0053 13.988 28.9653 14.2452 29.0307C14.5023 29.096 14.7231 29.2613 14.8589 29.4901C14.9947 29.719 15.0345 29.9926 14.9695 30.2509C14.9044 30.5092 14.7399 30.731 14.5121 30.8674L4.51291 36.8581C4.3584 36.9509 4.18173 37 4.0017 37Z" fill="url(#paint16_linear_1263_898)"/>
<path d="M28.3676 42C28.1823 42.0006 28.0008 41.9386 27.8451 41.8215C27.6895 41.7044 27.5665 41.5372 27.4911 41.3404L24.0831 32.4599C24.0212 32.2987 23.9932 32.1226 24.0014 31.9463C24.0096 31.77 24.0538 31.5986 24.1304 31.4461C24.2069 31.2936 24.3136 31.1645 24.4416 31.0694C24.5695 30.9743 24.7151 30.9161 24.8663 30.8994L32.9763 30.0027C33.2255 29.9824 33.4716 30.0761 33.6621 30.2639C33.8526 30.4518 33.9724 30.7187 33.9958 31.0079C34.0192 31.297 33.9444 31.5853 33.7874 31.8111C33.6305 32.037 33.4037 32.1825 33.1557 32.2166L26.3712 32.9673L29.2364 40.4347C29.3014 40.6039 29.3289 40.7894 29.3165 40.9742C29.3042 41.159 29.2522 41.3373 29.1655 41.4929C29.0788 41.6484 28.96 41.7763 28.8199 41.8648C28.6798 41.9534 28.5229 41.9999 28.3635 42H28.3676Z" fill="url(#paint17_linear_1263_898)"/>
<path d="M1.95481 26C1.70936 26.0001 1.47332 25.8898 1.29571 25.692C1.11809 25.4942 1.01257 25.2242 1.00105 24.9379C0.989534 24.6517 1.07291 24.3713 1.23385 24.1549C1.3948 23.9386 1.62095 23.8029 1.86533 23.7761L8.6364 23.0239L5.77286 15.5423C5.6772 15.2737 5.67526 14.9722 5.76745 14.702C5.85965 14.4318 6.03868 14.2144 6.26631 14.0962C6.49394 13.978 6.75213 13.9684 6.98574 14.0694C7.21936 14.1704 7.40989 14.3741 7.51664 14.6369L10.9171 23.5351C10.9788 23.6966 11.0068 23.873 10.9986 24.0496C10.9904 24.2262 10.9464 24.398 10.8701 24.5507C10.7938 24.7035 10.6874 24.8329 10.5598 24.9282C10.4322 25.0235 10.287 25.0819 10.1362 25.0988L2.04549 25.9951C2.01447 25.9986 1.98404 26 1.95481 26Z" fill="url(#paint18_linear_1263_898)"/>
<path d="M13.9983 27C13.8183 26.9998 13.6417 26.9508 13.4871 26.8581L3.48793 20.8674C3.37513 20.7999 3.27668 20.7107 3.1982 20.6049C3.11972 20.4991 3.06275 20.3788 3.03054 20.2509C2.99833 20.123 2.99152 19.99 3.01049 19.8595C3.02945 19.7289 3.07383 19.6034 3.14109 19.4901C3.20834 19.3768 3.29716 19.2779 3.40246 19.1991C3.50777 19.1203 3.6275 19.063 3.75482 19.0307C3.88214 18.9983 4.01456 18.9915 4.14452 19.0105C4.27447 19.0296 4.39942 19.0742 4.51222 19.1417L14.5114 25.1324C14.6997 25.245 14.846 25.4166 14.9278 25.6208C15.0096 25.825 15.0223 26.0506 14.964 26.2628C14.9057 26.475 14.7796 26.6621 14.6051 26.7953C14.4306 26.9285 14.2174 27.0004 13.9983 27Z" fill="url(#paint19_linear_1263_898)"/>
<path d="M30.9977 37C30.8178 37 30.6414 36.951 30.4871 36.8581L20.4879 30.8674C20.3751 30.7999 20.2767 30.7107 20.1982 30.6049C20.1197 30.4991 20.0627 30.3788 20.0305 30.2509C19.9983 30.123 19.9915 29.99 20.0105 29.8595C20.0295 29.7289 20.0738 29.6034 20.1411 29.4901C20.2083 29.3768 20.2972 29.2779 20.4025 29.1991C20.5078 29.1203 20.6275 29.063 20.7548 29.0307C20.8821 28.9983 21.0146 28.9915 21.1445 29.0105C21.2745 29.0296 21.3994 29.0742 21.5122 29.1417L31.5114 35.1324C31.6998 35.245 31.8461 35.4166 31.9278 35.6209C32.0096 35.8252 32.0223 36.0509 31.9639 36.2631C31.9055 36.4753 31.7793 36.6624 31.6047 36.7955C31.4302 36.9287 31.2169 37.0005 30.9977 37Z" fill="url(#paint20_linear_1263_898)"/>
<path d="M17.5 32C16.61 32 15.74 31.7654 14.9999 31.3259C14.2599 30.8864 13.6831 30.2616 13.3425 29.5307C13.0019 28.7998 12.9128 27.9956 13.0865 27.2196C13.2601 26.4437 13.6887 25.731 14.318 25.1716C14.9474 24.6122 15.7492 24.2312 16.6221 24.0769C17.495 23.9225 18.3998 24.0017 19.2221 24.3045C20.0443 24.6072 20.7471 25.1199 21.2416 25.7777C21.7361 26.4355 22 27.2089 22 28C21.9986 29.0605 21.524 30.0772 20.6804 30.827C19.8368 31.5769 18.693 31.9987 17.5 32ZM17.5 25.8955C17.0317 25.8955 16.574 26.0189 16.1846 26.2501C15.7953 26.4814 15.4918 26.8101 15.3126 27.1946C15.1334 27.5792 15.0865 28.0023 15.1779 28.4106C15.2692 28.8188 15.4947 29.1938 15.8258 29.4881C16.157 29.7825 16.5788 29.9829 17.0381 30.0641C17.4974 30.1453 17.9734 30.1036 18.406 29.9443C18.8387 29.7851 19.2084 29.5153 19.4686 29.1692C19.7288 28.8231 19.8676 28.4162 19.8676 28C19.8669 27.442 19.6172 26.9071 19.1734 26.5126C18.7295 26.118 18.1277 25.8961 17.5 25.8955Z" fill="url(#paint21_linear_1263_898)"/>
<defs>
<linearGradient id="paint0_linear_1263_898" x1="35" y1="42" x2="33" y2="42" gradientUnits="userSpaceOnUse">
<stop stop-color="#FF8911"/>
<stop offset="1" stop-color="#F83600"/>
</linearGradient>
<linearGradient id="paint1_linear_1263_898" x1="55" y1="13" x2="48" y2="13" gradientUnits="userSpaceOnUse">
<stop stop-color="#FF8911"/>
<stop offset="1" stop-color="#F83600"/>
</linearGradient>
<linearGradient id="paint2_linear_1263_898" x1="55" y1="22" x2="48" y2="22" gradientUnits="userSpaceOnUse">
<stop stop-color="#FF8911"/>
<stop offset="1" stop-color="#F83600"/>
</linearGradient>
<linearGradient id="paint3_linear_1263_898" x1="55" y1="30" x2="48" y2="30" gradientUnits="userSpaceOnUse">
<stop stop-color="#FF8911"/>
<stop offset="1" stop-color="#F83600"/>
</linearGradient>
<linearGradient id="paint4_linear_1263_898" x1="53" y1="18" x2="48" y2="18" gradientUnits="userSpaceOnUse">
<stop stop-color="#FF8911"/>
<stop offset="1" stop-color="#F83600"/>
</linearGradient>
<linearGradient id="paint5_linear_1263_898" x1="53" y1="26" x2="48" y2="26" gradientUnits="userSpaceOnUse">
<stop stop-color="#FF8911"/>
<stop offset="1" stop-color="#F83600"/>
</linearGradient>
<linearGradient id="paint6_linear_1263_898" x1="51" y1="6" x2="33" y2="6" gradientUnits="userSpaceOnUse">
<stop stop-color="#FF8911"/>
<stop offset="1" stop-color="#F83600"/>
</linearGradient>
<linearGradient id="paint7_linear_1263_898" x1="47" y1="36" x2="37" y2="36" gradientUnits="userSpaceOnUse">
<stop stop-color="#FF8911"/>
<stop offset="1" stop-color="#F83600"/>
</linearGradient>
<linearGradient id="paint8_linear_1263_898" x1="43" y1="13" x2="41" y2="13" gradientUnits="userSpaceOnUse">
<stop stop-color="#FF8911"/>
<stop offset="1" stop-color="#F83600"/>
</linearGradient>
<linearGradient id="paint9_linear_1263_898" x1="19" y1="30" x2="16" y2="30" gradientUnits="userSpaceOnUse">
<stop stop-color="#FF8911"/>
<stop offset="1" stop-color="#F83600"/>
</linearGradient>
<linearGradient id="paint10_linear_1263_898" x1="19" y1="11" x2="16" y2="11" gradientUnits="userSpaceOnUse">
<stop stop-color="#FF8911"/>
<stop offset="1" stop-color="#F83600"/>
</linearGradient>
<linearGradient id="paint11_linear_1263_898" x1="24" y1="11" x2="11" y2="11" gradientUnits="userSpaceOnUse">
<stop stop-color="#FF8911"/>
<stop offset="1" stop-color="#F83600"/>
</linearGradient>
<linearGradient id="paint12_linear_1263_898" x1="24" y1="35" x2="11" y2="35" gradientUnits="userSpaceOnUse">
<stop stop-color="#FF8911"/>
<stop offset="1" stop-color="#F83600"/>
</linearGradient>
<linearGradient id="paint13_linear_1263_898" x1="11" y1="30" x2="1" y2="30" gradientUnits="userSpaceOnUse">
<stop stop-color="#FF8911"/>
<stop offset="1" stop-color="#F83600"/>
</linearGradient>
<linearGradient id="paint14_linear_1263_898" x1="34" y1="14" x2="24" y2="14" gradientUnits="userSpaceOnUse">
<stop stop-color="#FF8911"/>
<stop offset="1" stop-color="#F83600"/>
</linearGradient>
<linearGradient id="paint15_linear_1263_898" x1="32" y1="19" x2="20" y2="19" gradientUnits="userSpaceOnUse">
<stop stop-color="#FF8911"/>
<stop offset="1" stop-color="#F83600"/>
</linearGradient>
<linearGradient id="paint16_linear_1263_898" x1="15" y1="29" x2="3" y2="29" gradientUnits="userSpaceOnUse">
<stop stop-color="#FF8911"/>
<stop offset="1" stop-color="#F83600"/>
</linearGradient>
<linearGradient id="paint17_linear_1263_898" x1="34" y1="30" x2="24" y2="30" gradientUnits="userSpaceOnUse">
<stop stop-color="#FF8911"/>
<stop offset="1" stop-color="#F83600"/>
</linearGradient>
<linearGradient id="paint18_linear_1263_898" x1="11" y1="14" x2="1" y2="14" gradientUnits="userSpaceOnUse">
<stop stop-color="#FF8911"/>
<stop offset="1" stop-color="#F83600"/>
</linearGradient>
<linearGradient id="paint19_linear_1263_898" x1="15" y1="19" x2="3" y2="19" gradientUnits="userSpaceOnUse">
<stop stop-color="#FF8911"/>
<stop offset="1" stop-color="#F83600"/>
</linearGradient>
<linearGradient id="paint20_linear_1263_898" x1="32" y1="29" x2="20" y2="29" gradientUnits="userSpaceOnUse">
<stop stop-color="#FF8911"/>
<stop offset="1" stop-color="#F83600"/>
</linearGradient>
<linearGradient id="paint21_linear_1263_898" x1="22" y1="24" x2="13" y2="24" gradientUnits="userSpaceOnUse">
<stop stop-color="#FF8911"/>
<stop offset="1" stop-color="#F83600"/>
</linearGradient>
</defs>
</svg>
