<svg width="56" height="56" viewBox="0 0 56 56" fill="none" xmlns="http://www.w3.org/2000/svg">
<g clip-path="url(#clip0_1271_1157)">
<path d="M50.9505 45.4711H47.8758C47.873 45.4711 47.8712 45.4684 47.872 45.4659L49.7708 40.3573C49.7985 40.2825 49.8267 40.2089 49.8543 40.1364C50.0804 39.5448 50.3368 38.8742 50.0459 38.2348C49.8735 37.856 49.5488 37.577 49.0807 37.4054L46.0809 36.3054C46.0773 36.3041 46.0737 36.3033 46.0701 36.302C46.0659 36.3006 46.0621 36.2986 46.0579 36.2973L41.1654 34.6659C41.0905 34.6409 41.0435 34.6215 41.0156 34.6082C41.0147 34.6078 41.0142 34.6071 41.0139 34.6061C40.9896 34.5247 40.9592 34.3663 40.9357 34.2441L39.737 28.0619C39.737 28.0614 39.737 28.0609 39.737 28.0604L40.6329 23.5476C40.6334 23.5453 40.6358 23.5438 40.6381 23.5446L41.35 23.7873C41.3516 23.7879 41.3526 23.7894 41.3526 23.791V27.1376C41.3526 28.7642 42.6655 30.091 44.2769 30.0954H44.2922C45.0707 30.0954 45.8356 29.7784 46.3927 29.2242C46.952 28.668 47.2601 27.9334 47.2601 27.1562V21.5966C47.2601 21.5858 47.2599 21.5751 47.2594 21.5642C47.2116 20.3574 46.4098 19.2825 45.2621 18.8888L39.7803 17.0225C39.7795 17.0223 39.7787 17.0217 39.7783 17.0211L38.4323 15.0842C38.4311 15.0825 38.4315 15.0801 38.4333 15.0789C39.4529 14.3826 40.2509 13.3688 40.8103 12.0514C40.8182 12.0328 40.8249 12.0139 40.8313 11.9949C40.8321 11.9926 40.8333 11.9907 40.8341 11.9884C40.8347 11.9864 40.8353 11.9846 40.8359 11.9826C40.8365 11.9808 40.837 11.9791 40.8376 11.9774C41.6134 9.62675 41.7285 7.46704 41.1701 5.73136C40.5705 3.86707 39.2205 2.51661 37.2669 1.82613C36.3394 1.49724 35.4341 1.505 34.4755 1.51299C33.1155 1.52447 31.5721 1.53749 29.5349 0.524238C29.139 0.327145 28.6589 0.479395 28.4485 0.867895C27.489 2.63813 27.7023 4.29844 29.0101 5.53536C29.0115 5.53668 29.0117 5.53875 29.0106 5.54029C28.219 6.67341 27.7894 8.0196 27.7894 9.41205C27.7894 11.6758 29.11 13.8829 31.153 15.1535C31.1548 15.1546 31.1554 15.157 31.1542 15.1588L29.0577 18.4426C29.0569 18.4437 29.0557 18.4443 29.0544 18.4445L27.2989 18.4533C27.2976 18.4533 27.2964 18.4527 27.2956 18.4516L25.3094 15.5658C24.3882 14.2288 22.5481 13.8889 21.2067 14.8083C20.5513 15.2591 20.1128 15.941 19.9722 16.7285C19.8338 17.5039 20.005 18.2812 20.4541 18.9168L23.551 23.3015C23.5533 23.3048 23.5558 23.3083 23.5582 23.3116C24.4151 24.4866 25.1652 24.489 26.2104 24.4923H28.6943C28.6965 24.4923 28.6983 24.4941 28.6983 24.4963L28.7052 27.7133C28.7052 27.7144 28.7047 27.7154 28.704 27.7162L25.1868 31.1512C25.1866 31.1513 25.1865 31.1515 25.1862 31.1518C24.3293 31.9902 23.8948 33.0002 23.8948 34.1538V41.1845C23.8948 41.1863 23.8938 41.1878 23.892 41.1882C23.0978 41.3968 22.1448 41.8836 21.3705 42.6893C20.6219 43.468 20.1719 44.417 20.0429 45.468C20.0427 45.4699 20.041 45.4714 20.039 45.4714H16.5837C16.5815 45.4714 16.5797 45.4696 16.5797 45.4674V45.1291C16.5797 42.1178 14.302 39.6294 11.378 39.2901C11.376 39.2899 11.3746 39.2883 11.3746 39.2863V24.4228C11.3746 24.4198 11.3779 24.4179 11.3805 24.4194L12.8962 25.2793C13.3686 25.5472 13.8911 25.6744 14.4103 25.6744C15.4493 25.6743 16.4756 25.1646 17.0613 24.2516C17.4998 23.5736 17.6368 22.7748 17.4474 22.0024C17.2579 21.2298 16.7665 20.5847 16.064 20.1864L4.6373 13.7047C3.22242 12.9025 1.35266 13.3621 0.468469 14.7302C0.0303125 15.4098 -0.106516 16.2093 0.0834687 16.9812C0.273234 17.7524 0.764328 18.3964 1.4663 18.7945L5.18723 20.9055C5.18844 20.9062 5.1892 20.9075 5.1892 20.9089V28.9684C5.1892 29.4197 5.53691 29.8149 5.98797 29.8265C6.45084 29.8383 6.82983 29.4667 6.82983 29.0065V21.8442C6.82983 21.8412 6.83311 21.8392 6.83573 21.8408L9.73231 23.4841C9.73352 23.4848 9.73428 23.4861 9.73428 23.4875V39.2452C9.73428 39.2474 9.73253 39.2491 9.73034 39.2491H6.83366C6.83147 39.2491 6.82972 39.2474 6.82972 39.2452V33.0758C6.82972 32.6245 6.48202 32.2293 6.03095 32.2177C5.56808 32.2059 5.18909 32.5775 5.18909 33.0377V39.2451C5.18909 39.2473 5.18734 39.249 5.18516 39.249H2.36295C1.32553 39.249 0.484547 40.09 0.484547 41.1274V53.6846C0.484547 54.7215 1.32509 55.562 2.36186 55.562H15.7596H50.9505C53.7349 55.562 55.9999 53.2986 55.9999 50.5165C55.9999 47.7344 53.7348 45.4711 50.9505 45.4711ZM26.2088 22.8516C25.2723 22.8487 25.2513 22.8486 24.8874 22.3497L21.7941 17.9701C21.6 17.6954 21.5265 17.3568 21.5873 17.0166C21.65 16.6644 21.845 16.3601 22.1353 16.1606C22.7314 15.7519 23.5493 15.9027 23.9583 16.4959L26.1156 19.6305C26.3994 20.0387 26.7153 20.095 27.0185 20.095L28.685 20.0867C28.6872 20.0867 28.689 20.0885 28.689 20.0907L28.6949 22.8477C28.6949 22.8499 28.6931 22.8516 28.6909 22.8516H26.2088ZM1.67652 16.5892C1.59558 16.2601 1.65617 15.9156 1.84681 15.62C2.12375 15.1915 2.62272 14.9498 3.12059 14.9498C3.36548 14.9498 3.61016 15.0083 3.82803 15.1318L15.255 21.6134C15.255 21.6134 15.255 21.6134 15.2551 21.6135C15.5607 21.7867 15.7735 22.0637 15.8544 22.3933C15.935 22.7226 15.8746 23.0661 15.6824 23.3634C15.2719 24.0032 14.3665 24.2268 13.7059 23.8523L2.27567 17.3674C1.96997 17.1941 1.75723 16.9178 1.67652 16.5892ZM48.5227 38.9617C48.4875 39.1179 48.3909 39.3704 48.3221 39.5508C48.2925 39.6284 48.2622 39.7075 48.2329 39.7867L46.1209 45.4686C46.1204 45.4701 46.1189 45.4711 46.1172 45.4711H45.6266C45.5428 45.4711 45.3685 45.4711 45.1579 45.1648C44.5907 44.3398 44.5635 42.5721 44.7299 42.1266L44.7646 42.0398C44.7659 42.0365 44.7671 42.0331 44.7684 42.03L46.2725 38.127C46.2733 38.1251 46.2755 38.1241 46.2776 38.1247L48.5129 38.9443C48.5165 38.9509 48.519 38.9552 48.5227 38.9617ZM40.6468 36.2224L44.7204 37.5807C44.7225 37.5814 44.7236 37.5838 44.7228 37.5858L44.3869 38.4576L43.5233 40.6988C43.5225 40.7007 43.5203 40.7017 43.5184 40.7011L36.2778 38.2123C35.786 38.043 35.6593 37.8711 35.4888 37.5218L34.093 34.6322C34.0921 34.6303 34.0928 34.6281 34.0945 34.6271C35.3895 33.9243 37.37 32.8111 38.6214 30.9609C38.6234 30.9581 38.6278 30.9589 38.6284 30.9623L39.325 34.5553C39.4545 35.2294 39.577 35.8661 40.6468 36.2224ZM38.7134 18.4661C38.8253 18.4661 38.9388 18.4807 39.0517 18.5107C39.0598 18.5129 39.0654 18.5143 39.0713 18.5158C39.072 18.516 39.0727 18.5161 39.0735 18.5163C39.0766 18.5171 39.0796 18.5177 39.0839 18.5186C39.0964 18.522 39.1092 18.5268 39.1216 18.5312C39.1258 18.5327 39.1299 18.5341 39.1341 18.5356L44.7316 20.4412C45.2373 20.6148 45.5925 21.0853 45.6195 21.6149V27.1562C45.6195 27.4936 45.4832 27.8149 45.2358 28.061C44.9839 28.3115 44.6405 28.4548 44.2904 28.4548C44.2881 28.4548 44.2858 28.4548 44.2836 28.4548C43.5721 28.4528 42.9933 27.8619 42.9933 27.1375V23.5747C42.9933 23.5484 42.9949 23.5237 42.996 23.5008C43.0357 22.7419 42.5798 22.4722 42.3057 22.3793L38.2902 21.0108C38.29 21.0107 38.2897 21.0107 38.2895 21.0106C37.9596 20.8983 37.6926 20.6626 37.5376 20.347C37.3833 20.0328 37.3599 19.6797 37.4721 19.3515C37.656 18.8124 38.1656 18.4661 38.7134 18.4661ZM29.5881 2.35408C29.5888 2.35179 29.5914 2.35058 29.5936 2.35146C31.602 3.17757 33.1865 3.16455 34.4893 3.15329C35.3346 3.14639 36.064 3.14016 36.7196 3.37247C39.5949 4.38879 40.0388 6.86897 39.8273 8.96252C39.827 8.96591 39.8228 8.96722 39.8206 8.96471C39.6115 8.72889 39.3566 8.50675 39.0465 8.3136C39.0461 8.31338 39.0459 8.31305 39.0456 8.31283C38.1289 7.19622 36.8432 6.18188 35.1499 6.05314C33.767 5.94836 31.8506 5.5439 30.6194 4.72282C30.6188 4.72238 30.6181 4.72205 30.6175 4.72161C29.6292 4.06646 29.2958 3.31822 29.5881 2.35408ZM29.4301 9.41183C29.4301 8.35571 29.7561 7.33349 30.3586 6.47347C30.3609 6.47293 30.3624 6.47249 30.3647 6.47194C32.1616 7.40316 34.3405 7.63711 35.0259 7.68907C37.372 7.86724 38.7712 10.7661 39.165 11.7068C39.1655 11.7078 39.1653 11.7089 39.1649 11.7099C38.6273 12.827 37.8663 13.6209 36.8973 14.0728C36.2358 14.384 35.4524 14.5417 34.5688 14.5417C33.9495 14.5417 33.2902 14.391 32.6631 14.1063C31.0538 13.3728 29.4301 11.6368 29.4301 9.41183ZM32.6508 15.8634C32.6517 15.8619 32.6536 15.8612 32.6552 15.8619C33.2903 16.0722 33.9409 16.1825 34.5688 16.1825C35.4273 16.1825 36.2223 16.0595 36.9413 15.8186C36.943 15.818 36.9447 15.8186 36.9457 15.82L37.754 16.9832C37.7554 16.9853 37.7545 16.9881 37.7521 16.989C36.9178 17.2776 36.2223 17.9332 35.9196 18.8218C35.6659 19.5639 35.7174 20.3626 36.0652 21.0704C36.4136 21.7797 37.0157 22.3102 37.761 22.5639L39.0642 23.0081C39.066 23.0088 39.0671 23.0106 39.0668 23.0126L38.2284 27.2361C38.2281 27.238 38.2265 27.2393 38.2246 27.2393H30.349C30.3468 27.2393 30.345 27.2376 30.345 27.2354L30.3285 19.5022C30.3285 19.5015 30.3287 19.5007 30.3292 19.5001L32.6508 15.8634ZM25.5356 34.1535C25.5356 33.4484 25.7965 32.85 26.3333 32.3247L29.8593 28.8809C29.86 28.8801 29.861 28.8798 29.862 28.8798H37.8489C37.8516 28.8798 37.8536 28.8827 37.8526 28.8852C37.0316 31.1703 34.6647 32.4524 33.1818 33.2559C32.9735 33.3687 32.7768 33.4753 32.614 33.5686L29.9457 35.0594C28.8342 35.6808 28.6305 36.0061 28.663 37.1081C28.667 37.2437 28.6716 37.3974 28.6716 37.5821L28.6868 41.0639C28.6868 41.0661 28.685 41.0678 28.6828 41.0678H25.5396C25.5374 41.0678 25.5357 41.0661 25.5357 41.0639V34.1535H25.5356ZM22.5535 43.826C23.2862 43.0636 24.2767 42.7084 24.7153 42.7084H28.688C28.6902 42.7084 28.6919 42.7102 28.6919 42.7124L28.6979 45.4673C28.6979 45.4695 28.6962 45.4712 28.694 45.4712H21.7043C21.7018 45.4712 21.6999 45.4689 21.7003 45.4665C21.8142 44.8477 22.0997 44.2982 22.5535 43.826ZM2.12506 53.6837V41.1275C2.12506 40.9967 2.23214 40.8897 2.36284 40.8897H10.6951C13.0353 40.8897 14.9392 42.7914 14.9392 45.129V46.2916V53.9177C14.9392 53.9199 14.9375 53.9217 14.9353 53.9217H2.36295C2.23214 53.9216 2.12506 53.8145 2.12506 53.6837ZM50.9505 53.9216H16.5839C16.5817 53.9216 16.58 53.9198 16.58 53.9176V51.3409C16.58 51.3387 16.5817 51.3369 16.5839 51.3369H51.0095C51.4607 51.3369 51.8559 50.9892 51.8675 50.5381C51.8793 50.0753 51.5078 49.6963 51.0475 49.6963H16.5839C16.5817 49.6963 16.58 49.6945 16.58 49.6923V47.1156C16.58 47.1134 16.5817 47.1116 16.5839 47.1116H20.8271H29.52H35.2939C35.7452 47.1116 36.1404 46.7639 36.152 46.3129C36.1638 45.85 35.7922 45.471 35.332 45.471H30.3425C30.3403 45.471 30.3386 45.4693 30.3386 45.4671L30.3309 41.963V41.8879C30.3309 41.8874 30.3308 41.8868 30.3308 41.8863C30.3308 41.8863 30.3309 41.8851 30.3309 41.8844L30.3121 37.5784C30.3121 37.373 30.307 37.1992 30.3028 37.0595C30.3015 37.0128 30.3 36.9643 30.299 36.9179C30.2967 36.8169 30.3486 36.7231 30.4349 36.6707C30.5478 36.6021 30.6786 36.529 30.746 36.4914L32.6505 35.4273C32.6525 35.4262 32.655 35.427 32.656 35.4291L34.0129 38.2381C34.2961 38.8184 34.7016 39.4049 35.7443 39.7636L43.0384 42.2707C43.0402 42.2713 43.0413 42.2729 43.041 42.2748C42.9424 43.1593 43.028 44.4442 43.4655 45.4657C43.4666 45.4682 43.4648 45.471 43.462 45.471H39.2612C38.8099 45.471 38.4147 45.8187 38.4031 46.2698C38.3913 46.7327 38.7628 47.1116 39.2231 47.1116H45.6267H46.6902H50.9506C52.8302 47.1116 54.3594 48.6391 54.3594 50.5165C54.3593 52.3941 52.8301 53.9216 50.9505 53.9216Z" fill="url(#paint0_linear_1271_1157)"/>
<path d="M8.40396 48.6556H6.76848C6.3172 48.6556 5.92202 49.0033 5.91043 49.4544C5.89862 49.9173 6.27016 50.2963 6.73041 50.2963H8.36601C8.81729 50.2963 9.21246 49.9486 9.22406 49.4975C9.23587 49.0345 8.86421 48.6556 8.40396 48.6556Z" fill="url(#paint1_linear_1271_1157)"/>
<path d="M8.40507 44.7805H6.76652C6.31524 44.7805 5.92007 45.1282 5.90848 45.5793C5.89666 46.0422 6.26821 46.4211 6.72846 46.4211H8.36701C8.81829 46.4211 9.21346 46.0734 9.22505 45.6224C9.23698 45.1594 8.86532 44.7805 8.40507 44.7805Z" fill="url(#paint2_linear_1271_1157)"/>
</g>
<defs>
<linearGradient id="paint0_linear_1271_1157" x1="55.9999" y1="0.43811" x2="0" y2="0.43811" gradientUnits="userSpaceOnUse">
<stop stop-color="#FF8911"/>
<stop offset="1" stop-color="#F83600"/>
</linearGradient>
<linearGradient id="paint1_linear_1271_1157" x1="9.22433" y1="48.6556" x2="5.91016" y2="48.6556" gradientUnits="userSpaceOnUse">
<stop stop-color="#FF8911"/>
<stop offset="1" stop-color="#F83600"/>
</linearGradient>
<linearGradient id="paint2_linear_1271_1157" x1="9.22533" y1="44.7805" x2="5.9082" y2="44.7805" gradientUnits="userSpaceOnUse">
<stop stop-color="#FF8911"/>
<stop offset="1" stop-color="#F83600"/>
</linearGradient>
<clipPath id="clip0_1271_1157">
<rect width="56" height="56" fill="white"/>
</clipPath>
</defs>
</svg>
