<svg width="56" height="56" viewBox="0 0 56 56" fill="none" xmlns="http://www.w3.org/2000/svg">
<g clip-path="url(#clip0_1263_817)">
<path d="M7 14C8.85586 13.9979 10.6351 13.2597 11.9474 11.9474C13.2597 10.6351 13.9979 8.85586 14 7C13.9999 6.8013 13.9323 6.60854 13.8081 6.45342C13.6839 6.29829 13.5107 6.19005 13.3168 6.1465C13.1229 6.10295 12.92 6.12668 12.7414 6.21378C12.5628 6.30088 12.4192 6.44618 12.3342 6.62576C12.1484 7.01347 11.8982 7.36683 11.5942 7.67077C11.2096 8.05257 10.7463 8.3458 10.2367 8.52998C9.72701 8.71416 9.18329 8.78486 8.64348 8.73713C8.10368 8.6894 7.5808 8.52439 7.11137 8.25364C6.64195 7.98288 6.23729 7.61291 5.92567 7.16955C5.61405 6.7262 5.40298 6.22016 5.30721 5.68678C5.21143 5.1534 5.23326 4.60554 5.37116 4.08147C5.50906 3.55739 5.75972 3.06975 6.10562 2.65259C6.45152 2.23543 6.88432 1.89882 7.3738 1.66626C7.5536 1.58138 7.69913 1.4378 7.78642 1.25916C7.87372 1.08052 7.89757 0.877474 7.85404 0.683468C7.81052 0.489462 7.70222 0.316063 7.54699 0.19183C7.39175 0.0675977 7.19883 -6.01166e-05 7 4.00808e-08C5.14348 4.00808e-08 3.36301 0.737498 2.05025 2.05025C0.737498 3.36301 0 5.14348 0 7C0 8.85652 0.737498 10.637 2.05025 11.9497C3.36301 13.2625 5.14348 14 7 14ZM4.01993 2.67969C3.53308 3.70149 3.37485 4.84906 3.567 5.96448C3.75914 7.07991 4.29223 8.10839 5.0929 8.9084C5.89358 9.70841 6.92249 10.2406 8.03808 10.4319C9.15367 10.6231 10.3011 10.4639 11.3225 9.97622C10.8862 10.6106 10.3156 11.1412 9.65126 11.5304C8.98693 11.9196 8.24511 12.1578 7.4784 12.2283C6.7117 12.2988 5.93887 12.1997 5.21474 11.9381C4.4906 11.6765 3.83289 11.2588 3.28824 10.7146C2.74358 10.1704 2.32533 9.51299 2.06312 8.78907C1.80092 8.06515 1.7012 7.29241 1.77102 6.52564C1.84085 5.75888 2.07851 5.01686 2.46716 4.35221C2.85581 3.68756 3.38593 3.11656 4.01993 2.67969Z" fill="url(#paint0_linear_1263_817)"/>
<path d="M54.1248 20.7685C54.0642 13.7573 46.5677 9.42933 40.5439 5.95234C37.625 4.26735 34.8688 2.67538 33.99 1.28343C33.9061 1.16534 33.7951 1.06905 33.6664 1.00261C33.5377 0.93616 33.3949 0.901489 33.25 0.901489C33.1052 0.901489 32.9624 0.93616 32.8337 1.00261C32.7049 1.06905 32.594 1.16534 32.51 1.28343C31.6313 2.67538 28.875 4.26735 25.9561 5.95234C19.9324 9.42933 12.4359 13.7573 12.3752 20.7761C12.4165 23.3125 13.3202 25.7593 14.9374 27.7138C12.6424 30.1622 11.3682 33.3941 11.375 36.75V52.5C11.375 52.732 11.4672 52.9546 11.6313 53.1187C11.7954 53.2828 12.018 53.375 12.25 53.375H21.194C22.3594 54.4975 23.9145 55.1247 25.5325 55.125H48.401C48.9182 55.1234 49.4204 54.951 49.8295 54.6345C50.2385 54.318 50.5316 53.8752 50.663 53.375H54.25C54.4821 53.375 54.7047 53.2828 54.8687 53.1187C55.0328 52.9546 55.125 52.732 55.125 52.5V36.75C55.1318 33.3941 53.8577 30.1622 51.5626 27.7138C53.1811 25.757 54.0847 23.3074 54.1248 20.7685ZM21 48.8419C20.9971 47.9995 21.2304 47.1732 21.6733 46.4567C22.1162 45.7402 22.7511 45.1622 23.5059 44.7882L28.2117 42.4355C28.8731 42.6619 29.5851 42.6965 30.2653 42.5352C30.9455 42.3739 31.5662 42.0233 32.0555 41.5241L36.1805 37.3994C36.7548 36.8251 37.0774 36.0463 37.0774 35.2342C37.0774 34.422 36.7548 33.6432 36.1805 33.0689C35.6063 32.4946 34.8274 32.172 34.0153 32.172C33.2032 32.172 32.4243 32.4946 31.85 33.0689L30.0144 34.9045C30.4354 33.0488 31.4178 31.3678 32.8279 30.0901L36.5011 28.9887L37.1748 29.6625C38.1528 30.6352 38.9282 31.7922 39.456 33.0666C39.9839 34.3409 40.2538 35.7073 40.25 37.0867V42.875C40.2487 44.0349 39.7873 45.1469 38.9671 45.9671C38.1469 46.7872 37.0349 47.2486 35.875 47.25H28.875C28.643 47.25 28.4204 47.3422 28.2563 47.5063C28.0922 47.6704 28 47.8929 28 48.125C28 48.357 28.0922 48.5796 28.2563 48.7437C28.4204 48.9078 28.643 49 28.875 49H40.25V53.375H25.5325C24.3308 53.3735 23.1787 52.8954 22.329 52.0456C21.4793 51.1958 21.0013 50.0436 21 48.8419ZM22.26 34.6154C22.1318 34.4951 22.029 34.3502 21.9578 34.1894C21.8867 34.0286 21.8485 33.8551 21.8457 33.6792C21.8429 33.5034 21.8755 33.3288 21.9414 33.1657C22.0074 33.0027 22.1055 32.8546 22.2299 32.7303C22.3542 32.6059 22.5023 32.5078 22.6653 32.4417C22.8283 32.3757 23.0029 32.3431 23.1787 32.3459C23.3546 32.3487 23.5281 32.3867 23.6889 32.4579C23.8498 32.529 23.9947 32.6317 24.115 32.76L24.5271 33.172L22.6713 35.0273L22.26 34.6154ZM25.7649 34.4088L28.7567 37.4003C28.9208 37.5643 29.1433 37.6565 29.3754 37.6565C29.6074 37.6565 29.8299 37.5643 29.994 37.4003L33.0882 34.3061C33.336 34.0685 33.6671 33.9375 34.0103 33.9412C34.3536 33.9449 34.6818 34.0829 34.9246 34.3257C35.1673 34.5684 35.3052 34.8967 35.3088 35.24C35.3124 35.5833 35.1813 35.9143 34.9437 36.1621L30.8181 40.2867C30.6286 40.4763 30.4036 40.6267 30.1559 40.7292C29.9082 40.8318 29.6428 40.8846 29.3747 40.8846C29.1066 40.8846 28.8412 40.8318 28.5935 40.7292C28.3458 40.6267 28.1208 40.4763 27.9313 40.2867L23.9088 36.2646L25.7649 34.4088ZM29.75 20.125H38.5V21.875C38.5 24.1138 38.0428 24.9434 36.3738 25.7373C36.2245 25.8085 36.0985 25.9206 36.0102 26.0604C35.9219 26.2003 35.8751 26.3623 35.875 26.5277V27.3489L33.25 28.1364V27.037C33.2502 26.8351 33.1806 26.6394 33.0528 26.4831C32.9251 26.3267 32.7472 26.2195 32.5493 26.1795C31.7598 26.0163 31.0505 25.5863 30.5407 24.9618C30.031 24.3372 29.7517 23.5562 29.75 22.75V20.125ZM29.8385 18.375C30.0402 17.387 30.5771 16.4991 31.3582 15.8614C32.1393 15.2236 33.1167 14.8753 34.125 14.8753C35.1334 14.8753 36.1108 15.2236 36.8919 15.8614C37.673 16.4991 38.2098 17.387 38.4116 18.375H29.8385ZM48.401 53.375H42V49H42.7934C43.2129 48.9995 43.626 49.1028 43.9959 49.3008C44.3657 49.4988 44.6808 49.7853 44.913 50.1348C45.5058 51.0248 46.4094 51.6617 47.447 51.9206L48.5462 52.1941C48.6884 52.2294 48.8127 52.3155 48.8957 52.4361C48.9787 52.5568 49.0146 52.7037 48.9967 52.849C48.9789 52.9944 48.9084 53.1282 48.7987 53.2251C48.6889 53.3221 48.5474 53.3752 48.401 53.375ZM53.375 36.75V51.625H50.4474C50.2911 51.346 50.0795 51.102 49.8254 50.9079C49.5714 50.7138 49.2803 50.5737 48.9701 50.4962L47.8713 50.2228C47.2564 50.0689 46.721 49.6915 46.3695 49.164C45.9777 48.5746 45.4461 48.0914 44.8221 47.7574C44.1981 47.4234 43.5011 47.2491 42.7934 47.25H40.1577C40.7413 46.6806 41.2049 46.0002 41.5213 45.2488C41.8377 44.4974 42.0005 43.6903 42 42.875V37.0867C42.0044 35.4773 41.6896 33.8831 41.0737 32.3963C40.4578 30.9095 39.5531 29.5595 38.412 28.4247L37.625 27.6376V27.0601C39.7959 25.8387 40.25 24.153 40.25 21.875V19.25C40.25 17.6255 39.6047 16.0676 38.4561 14.9189C37.3074 13.7703 35.7495 13.125 34.125 13.125C32.5006 13.125 30.9427 13.7703 29.794 14.9189C28.6453 16.0676 28 17.6255 28 19.25V22.75C28.0027 23.8351 28.3403 24.8929 28.9667 25.7788C29.5932 26.6648 30.4779 27.3358 31.5 27.7V28.925C29.9101 30.4207 28.8012 32.3557 28.3146 34.4837L25.3528 31.5219C24.7694 30.9649 23.9938 30.6541 23.1872 30.6541C22.3805 30.6541 21.6049 30.9649 21.0216 31.5219C20.4474 32.0963 20.1248 32.8751 20.1248 33.6872C20.1248 34.4993 20.4474 35.2782 21.0216 35.8525L26.5026 41.3328L22.7226 43.2228C21.9859 43.5894 21.3286 44.0976 20.7883 44.7184C20.2481 45.3391 19.8355 46.0603 19.5741 46.8406C19.3128 47.621 19.2078 48.4452 19.2652 49.2661C19.3226 50.087 19.5412 50.8886 19.9086 51.625H13.125V36.75C13.1197 35.1833 13.4379 33.6324 14.0598 32.1944C14.6816 30.7564 15.5936 29.4622 16.7388 28.393C16.8657 28.2718 16.953 28.1149 16.989 27.9431C17.0251 27.7713 17.0083 27.5926 16.9408 27.4305C16.8872 27.2951 16.7998 27.1757 16.6871 27.0836C15.096 25.3646 14.1852 23.1251 14.1249 20.7836C14.1765 14.7731 21.1932 10.722 26.8308 7.46723C29.5035 5.92504 31.8763 4.55532 33.25 3.13852C34.6238 4.55532 36.9965 5.92504 39.6689 7.4674C45.3065 10.7224 52.3232 14.7737 52.3748 20.7762C52.3183 23.0941 51.4263 25.3135 49.863 27.0259C49.7539 27.0999 49.663 27.1976 49.597 27.3117C49.5309 27.4258 49.4915 27.5534 49.4817 27.6849C49.4719 27.8163 49.4919 27.9483 49.5402 28.0709C49.5886 28.1936 49.664 28.3037 49.7609 28.3931C50.9061 29.4623 51.8182 30.7564 52.4401 32.1944C53.062 33.6324 53.3803 35.1833 53.375 36.75Z" fill="url(#paint1_linear_1263_817)"/>
<path d="M7.875 30.625C8.35825 30.625 8.75 30.2332 8.75 29.75C8.75 29.2668 8.35825 28.875 7.875 28.875C7.39175 28.875 7 29.2668 7 29.75C7 30.2332 7.39175 30.625 7.875 30.625Z" fill="url(#paint2_linear_1263_817)"/>
<path d="M43.75 15.75C44.2332 15.75 44.625 15.3582 44.625 14.875C44.625 14.3918 44.2332 14 43.75 14C43.2668 14 42.875 14.3918 42.875 14.875C42.875 15.3582 43.2668 15.75 43.75 15.75Z" fill="url(#paint3_linear_1263_817)"/>
<path d="M48.125 35.875C48.6082 35.875 49 35.4832 49 35C49 34.5168 48.6082 34.125 48.125 34.125C47.6418 34.125 47.25 34.5168 47.25 35C47.25 35.4832 47.6418 35.875 48.125 35.875Z" fill="url(#paint4_linear_1263_817)"/>
<path d="M21 20.125C21.2321 20.125 21.4546 20.0328 21.6187 19.8687C21.7828 19.7046 21.875 19.4821 21.875 19.25V18.375C21.875 18.1429 21.7828 17.9204 21.6187 17.7563C21.4546 17.5922 21.2321 17.5 21 17.5C20.7679 17.5 20.5454 17.5922 20.3813 17.7563C20.2172 17.9204 20.125 18.1429 20.125 18.375V19.25C20.125 19.4821 20.2172 19.7046 20.3813 19.8687C20.5454 20.0328 20.7679 20.125 21 20.125Z" fill="url(#paint5_linear_1263_817)"/>
<path d="M21 21.875C20.7679 21.875 20.5454 21.9672 20.3813 22.1313C20.2172 22.2954 20.125 22.5179 20.125 22.75V23.625C20.125 23.8571 20.2172 24.0796 20.3813 24.2437C20.5454 24.4078 20.7679 24.5 21 24.5C21.2321 24.5 21.4546 24.4078 21.6187 24.2437C21.7828 24.0796 21.875 23.8571 21.875 23.625V22.75C21.875 22.5179 21.7828 22.2954 21.6187 22.1313C21.4546 21.9672 21.2321 21.875 21 21.875Z" fill="url(#paint6_linear_1263_817)"/>
<path d="M19.25 20.125H18.375C18.1429 20.125 17.9204 20.2172 17.7563 20.3813C17.5922 20.5454 17.5 20.7679 17.5 21C17.5 21.2321 17.5922 21.4546 17.7563 21.6187C17.9204 21.7828 18.1429 21.875 18.375 21.875H19.25C19.4821 21.875 19.7046 21.7828 19.8687 21.6187C20.0328 21.4546 20.125 21.2321 20.125 21C20.125 20.7679 20.0328 20.5454 19.8687 20.3813C19.7046 20.2172 19.4821 20.125 19.25 20.125Z" fill="url(#paint7_linear_1263_817)"/>
<path d="M23.625 20.125H22.75C22.5179 20.125 22.2954 20.2172 22.1313 20.3813C21.9672 20.5454 21.875 20.7679 21.875 21C21.875 21.2321 21.9672 21.4546 22.1313 21.6187C22.2954 21.7828 22.5179 21.875 22.75 21.875H23.625C23.8571 21.875 24.0796 21.7828 24.2437 21.6187C24.4078 21.4546 24.5 21.2321 24.5 21C24.5 20.7679 24.4078 20.5454 24.2437 20.3813C24.0796 20.2172 23.8571 20.125 23.625 20.125Z" fill="url(#paint8_linear_1263_817)"/>
<path d="M52.5 1.75C52.5 1.51794 52.4078 1.29538 52.2437 1.13128C52.0796 0.967187 51.8571 0.875 51.625 0.875C51.3929 0.875 51.1704 0.967187 51.0063 1.13128C50.8422 1.29538 50.75 1.51794 50.75 1.75V2.625C50.75 2.85706 50.8422 3.07962 51.0063 3.24372C51.1704 3.40781 51.3929 3.5 51.625 3.5C51.8571 3.5 52.0796 3.40781 52.2437 3.24372C52.4078 3.07962 52.5 2.85706 52.5 2.625V1.75Z" fill="url(#paint9_linear_1263_817)"/>
<path d="M51.625 7.875C51.8571 7.875 52.0796 7.78281 52.2437 7.61872C52.4078 7.45462 52.5 7.23206 52.5 7V6.125C52.5 5.89294 52.4078 5.67038 52.2437 5.50628C52.0796 5.34219 51.8571 5.25 51.625 5.25C51.3929 5.25 51.1704 5.34219 51.0063 5.50628C50.8422 5.67038 50.75 5.89294 50.75 6.125V7C50.75 7.23206 50.8422 7.45462 51.0063 7.61872C51.1704 7.78281 51.3929 7.875 51.625 7.875Z" fill="url(#paint10_linear_1263_817)"/>
<path d="M49.875 3.5H49C48.7679 3.5 48.5454 3.59219 48.3813 3.75628C48.2172 3.92038 48.125 4.14294 48.125 4.375C48.125 4.60706 48.2172 4.82962 48.3813 4.99372C48.5454 5.15781 48.7679 5.25 49 5.25H49.875C50.1071 5.25 50.3296 5.15781 50.4937 4.99372C50.6578 4.82962 50.75 4.60706 50.75 4.375C50.75 4.14294 50.6578 3.92038 50.4937 3.75628C50.3296 3.59219 50.1071 3.5 49.875 3.5Z" fill="url(#paint11_linear_1263_817)"/>
<path d="M54.25 3.5H53.375C53.1429 3.5 52.9204 3.59219 52.7563 3.75628C52.5922 3.92038 52.5 4.14294 52.5 4.375C52.5 4.60706 52.5922 4.82962 52.7563 4.99372C52.9204 5.15781 53.1429 5.25 53.375 5.25H54.25C54.4821 5.25 54.7046 5.15781 54.8687 4.99372C55.0328 4.82962 55.125 4.60706 55.125 4.375C55.125 4.14294 55.0328 3.92038 54.8687 3.75628C54.7046 3.59219 54.4821 3.5 54.25 3.5Z" fill="url(#paint12_linear_1263_817)"/>
<path d="M3.5 45.5V46.375C3.5 46.6071 3.59219 46.8296 3.75628 46.9937C3.92038 47.1578 4.14294 47.25 4.375 47.25C4.60706 47.25 4.82962 47.1578 4.99372 46.9937C5.15781 46.8296 5.25 46.6071 5.25 46.375V45.5C5.25 45.2679 5.15781 45.0454 4.99372 44.8813C4.82962 44.7172 4.60706 44.625 4.375 44.625C4.14294 44.625 3.92038 44.7172 3.75628 44.8813C3.59219 45.0454 3.5 45.2679 3.5 45.5Z" fill="url(#paint13_linear_1263_817)"/>
<path d="M4.375 49C4.14294 49 3.92038 49.0922 3.75628 49.2563C3.59219 49.4204 3.5 49.6429 3.5 49.875V50.75C3.5 50.9821 3.59219 51.2046 3.75628 51.3687C3.92038 51.5328 4.14294 51.625 4.375 51.625C4.60706 51.625 4.82962 51.5328 4.99372 51.3687C5.15781 51.2046 5.25 50.9821 5.25 50.75V49.875C5.25 49.6429 5.15781 49.4204 4.99372 49.2563C4.82962 49.0922 4.60706 49 4.375 49Z" fill="url(#paint14_linear_1263_817)"/>
<path d="M2.625 47.25H1.75C1.51794 47.25 1.29538 47.3422 1.13128 47.5063C0.967187 47.6704 0.875 47.8929 0.875 48.125C0.875 48.3571 0.967187 48.5796 1.13128 48.7437C1.29538 48.9078 1.51794 49 1.75 49H2.625C2.85706 49 3.07962 48.9078 3.24372 48.7437C3.40781 48.5796 3.5 48.3571 3.5 48.125C3.5 47.8929 3.40781 47.6704 3.24372 47.5063C3.07962 47.3422 2.85706 47.25 2.625 47.25Z" fill="url(#paint15_linear_1263_817)"/>
<path d="M7 47.25H6.125C5.89294 47.25 5.67038 47.3422 5.50628 47.5063C5.34219 47.6704 5.25 47.8929 5.25 48.125C5.25 48.3571 5.34219 48.5796 5.50628 48.7437C5.67038 48.9078 5.89294 49 6.125 49H7C7.23206 49 7.45462 48.9078 7.61872 48.7437C7.78281 48.5796 7.875 48.3571 7.875 48.125C7.875 47.8929 7.78281 47.6704 7.61872 47.5063C7.45462 47.3422 7.23206 47.25 7 47.25Z" fill="url(#paint16_linear_1263_817)"/>
</g>
<defs>
<linearGradient id="paint0_linear_1263_817" x1="14" y1="0" x2="0" y2="0" gradientUnits="userSpaceOnUse">
<stop stop-color="#FF8911"/>
<stop offset="1" stop-color="#F83600"/>
</linearGradient>
<linearGradient id="paint1_linear_1263_817" x1="55.1251" y1="0.901489" x2="11.375" y2="0.901489" gradientUnits="userSpaceOnUse">
<stop stop-color="#FF8911"/>
<stop offset="1" stop-color="#F83600"/>
</linearGradient>
<linearGradient id="paint2_linear_1263_817" x1="8.75" y1="28.875" x2="7" y2="28.875" gradientUnits="userSpaceOnUse">
<stop stop-color="#FF8911"/>
<stop offset="1" stop-color="#F83600"/>
</linearGradient>
<linearGradient id="paint3_linear_1263_817" x1="44.625" y1="14" x2="42.875" y2="14" gradientUnits="userSpaceOnUse">
<stop stop-color="#FF8911"/>
<stop offset="1" stop-color="#F83600"/>
</linearGradient>
<linearGradient id="paint4_linear_1263_817" x1="49" y1="34.125" x2="47.25" y2="34.125" gradientUnits="userSpaceOnUse">
<stop stop-color="#FF8911"/>
<stop offset="1" stop-color="#F83600"/>
</linearGradient>
<linearGradient id="paint5_linear_1263_817" x1="21.875" y1="17.5" x2="20.125" y2="17.5" gradientUnits="userSpaceOnUse">
<stop stop-color="#FF8911"/>
<stop offset="1" stop-color="#F83600"/>
</linearGradient>
<linearGradient id="paint6_linear_1263_817" x1="21.875" y1="21.875" x2="20.125" y2="21.875" gradientUnits="userSpaceOnUse">
<stop stop-color="#FF8911"/>
<stop offset="1" stop-color="#F83600"/>
</linearGradient>
<linearGradient id="paint7_linear_1263_817" x1="20.125" y1="20.125" x2="17.5" y2="20.125" gradientUnits="userSpaceOnUse">
<stop stop-color="#FF8911"/>
<stop offset="1" stop-color="#F83600"/>
</linearGradient>
<linearGradient id="paint8_linear_1263_817" x1="24.5" y1="20.125" x2="21.875" y2="20.125" gradientUnits="userSpaceOnUse">
<stop stop-color="#FF8911"/>
<stop offset="1" stop-color="#F83600"/>
</linearGradient>
<linearGradient id="paint9_linear_1263_817" x1="52.5" y1="0.875" x2="50.75" y2="0.875" gradientUnits="userSpaceOnUse">
<stop stop-color="#FF8911"/>
<stop offset="1" stop-color="#F83600"/>
</linearGradient>
<linearGradient id="paint10_linear_1263_817" x1="52.5" y1="5.25" x2="50.75" y2="5.25" gradientUnits="userSpaceOnUse">
<stop stop-color="#FF8911"/>
<stop offset="1" stop-color="#F83600"/>
</linearGradient>
<linearGradient id="paint11_linear_1263_817" x1="50.75" y1="3.5" x2="48.125" y2="3.5" gradientUnits="userSpaceOnUse">
<stop stop-color="#FF8911"/>
<stop offset="1" stop-color="#F83600"/>
</linearGradient>
<linearGradient id="paint12_linear_1263_817" x1="55.125" y1="3.5" x2="52.5" y2="3.5" gradientUnits="userSpaceOnUse">
<stop stop-color="#FF8911"/>
<stop offset="1" stop-color="#F83600"/>
</linearGradient>
<linearGradient id="paint13_linear_1263_817" x1="5.25" y1="44.625" x2="3.5" y2="44.625" gradientUnits="userSpaceOnUse">
<stop stop-color="#FF8911"/>
<stop offset="1" stop-color="#F83600"/>
</linearGradient>
<linearGradient id="paint14_linear_1263_817" x1="5.25" y1="49" x2="3.5" y2="49" gradientUnits="userSpaceOnUse">
<stop stop-color="#FF8911"/>
<stop offset="1" stop-color="#F83600"/>
</linearGradient>
<linearGradient id="paint15_linear_1263_817" x1="3.5" y1="47.25" x2="0.875" y2="47.25" gradientUnits="userSpaceOnUse">
<stop stop-color="#FF8911"/>
<stop offset="1" stop-color="#F83600"/>
</linearGradient>
<linearGradient id="paint16_linear_1263_817" x1="7.875" y1="47.25" x2="5.25" y2="47.25" gradientUnits="userSpaceOnUse">
<stop stop-color="#FF8911"/>
<stop offset="1" stop-color="#F83600"/>
</linearGradient>
<clipPath id="clip0_1263_817">
<rect width="56" height="56" fill="white"/>
</clipPath>
</defs>
</svg>
