<svg width="33" height="32" viewBox="0 0 33 32" fill="none" xmlns="http://www.w3.org/2000/svg">
<g clip-path="url(#clip0_1191_419)">
<path d="M30.4585 15.7182V5.66032C30.4585 3.21382 28.4681 1.22351 26.0217 1.22351H6.85075C4.40425 1.22351 2.41394 3.21389 2.41394 5.66032V15.8479C1.22894 17.0868 0.5 18.7654 0.5 20.611V28.2374C0.5 29.6374 1.63894 30.7764 3.03894 30.7764C4.43888 30.7764 5.57781 29.6374 5.57781 28.2374V27.4498H27.4223V28.2374C27.4223 29.6374 28.5612 30.7764 29.9611 30.7764C31.3611 30.7764 32.5 29.6374 32.5 28.2374V20.611C32.5 18.7001 31.7185 16.9683 30.4585 15.7182ZM6.85075 2.47351H26.0217C27.7789 2.47351 29.2085 3.90314 29.2085 5.66032V14.7345C28.8257 14.4988 28.4183 14.2994 27.9911 14.1413V12.0629C27.9911 10.2204 26.4921 8.72145 24.6496 8.72145H19.2166C18.0981 8.72145 17.1069 9.27439 16.5001 10.1207C15.8933 9.27439 14.9021 8.72145 13.7836 8.72145H8.35056C6.50806 8.72145 5.00906 10.2204 5.00906 12.0629V14.1413C4.534 14.3171 4.08344 14.5439 3.664 14.8149V5.66032C3.66394 3.90314 5.0935 2.47351 6.85075 2.47351ZM7.39581 13.7152C7.00863 13.7152 6.62887 13.7478 6.25894 13.8094V12.0629C6.25894 10.9097 7.19719 9.97145 8.35044 9.97145H13.7834C14.9367 9.97145 15.8749 10.9097 15.8749 12.0629V13.7153H7.39581V13.7152ZM17.125 12.0629C17.125 10.9096 18.0632 9.97139 19.2165 9.97139H24.6495C25.8027 9.97139 26.741 10.9096 26.741 12.0629V13.8094C26.371 13.7478 25.9913 13.7151 25.6041 13.7151H17.125V12.0629ZM7.39581 14.9652H25.6041C28.7172 14.9652 31.2499 17.4979 31.2499 20.611V22.4652H24.9814C24.6362 22.4652 24.3564 22.7451 24.3564 23.0902C24.3564 23.4353 24.6362 23.7152 24.9814 23.7152H31.25V26.1999H1.75V23.7152H18.7314C19.0766 23.7152 19.3564 23.4353 19.3564 23.0902C19.3564 22.7451 19.0766 22.4652 18.7314 22.4652H1.75V20.611C1.75 17.4979 4.28269 14.9652 7.39581 14.9652ZM4.32781 28.2374C4.32781 28.9481 3.74963 29.5264 3.03894 29.5264C2.32825 29.5264 1.75 28.9481 1.75 28.2374V27.4498H4.32781V28.2374ZM29.9611 29.5264C29.2504 29.5264 28.6722 28.9481 28.6722 28.2374V27.4498H31.25V28.2374C31.25 28.9481 30.6718 29.5264 29.9611 29.5264Z" fill="#0C2D57"/>
<path d="M21.8558 23.7155C22.2011 23.7155 22.4811 23.4355 22.4811 23.0902C22.4811 22.7448 22.2011 22.4648 21.8558 22.4648C21.5104 22.4648 21.2305 22.7448 21.2305 23.0902C21.2305 23.4355 21.5104 23.7155 21.8558 23.7155Z" fill="#0C2D57"/>
</g>
<defs>
<clipPath id="clip0_1191_419">
<rect width="32" height="32" fill="white" transform="translate(0.5)"/>
</clipPath>
</defs>
</svg>
