<svg width="32" height="32" viewBox="0 0 32 32" fill="none" xmlns="http://www.w3.org/2000/svg">
<g clip-path="url(#clip0_1191_449)">
<path d="M7.46727 5.86658C6.2891 5.86658 5.33398 6.82169 5.33398 7.99987C5.33398 9.17804 6.2891 10.1332 7.46727 10.1332C8.64545 10.1332 9.60056 9.17804 9.60056 7.99987C9.60056 6.82169 8.64545 5.86658 7.46727 5.86658ZM7.46727 9.06651C6.87815 9.06651 6.40063 8.58899 6.40063 7.99987C6.40063 7.41074 6.87815 6.93322 7.46727 6.93322C8.05639 6.93322 8.53392 7.41074 8.53392 7.99987C8.53392 8.58899 8.05633 9.06651 7.46727 9.06651Z" fill="#0C2D57"/>
<path d="M13.8656 7.46655C12.9819 7.46655 12.2656 8.18287 12.2656 9.06652C12.2656 9.95017 12.9819 10.6665 13.8656 10.6665C14.7492 10.6665 15.4656 9.95017 15.4656 9.06652C15.4656 8.18287 14.7492 7.46655 13.8656 7.46655ZM13.8656 9.59984C13.5711 9.59984 13.3323 9.36105 13.3323 9.06652C13.3323 8.77199 13.5711 8.5332 13.8656 8.5332C14.1601 8.5332 14.3989 8.77199 14.3989 9.06652C14.3989 9.36105 14.1601 9.59984 13.8656 9.59984Z" fill="#0C2D57"/>
<path d="M11.466 4.2666C11.0242 4.2666 10.666 4.62479 10.666 5.06658C10.666 5.50838 11.0242 5.86657 11.466 5.86657C11.9078 5.86657 12.266 5.50838 12.266 5.06658C12.266 4.62479 11.9078 4.2666 11.466 4.2666ZM11.466 5.33325C11.3187 5.33325 11.1993 5.21385 11.1993 5.06658C11.1993 4.91932 11.3187 4.79992 11.466 4.79992C11.6133 4.79992 11.7327 4.91932 11.7327 5.06658C11.7327 5.21385 11.6133 5.33325 11.466 5.33325Z" fill="#0C2D57"/>
<path d="M31.9829 18.7243C31.913 18.2867 31.6294 17.9128 31.2269 17.7276C31.3759 17.3465 31.4567 16.9421 31.4658 16.533C31.4644 15.4739 30.8365 14.5161 29.8658 14.0925V2.66661C29.8658 1.19391 28.6719 0 27.1992 0C25.7265 0 24.5326 1.19391 24.5326 2.66661V2.67888C23.0899 2.73821 21.932 3.89079 21.866 5.33322C21.866 5.62775 22.1048 5.86654 22.3993 5.86654H27.1992C27.4938 5.86654 27.7326 5.62775 27.7326 5.33322C27.69 4.09198 26.8122 3.0372 25.5993 2.77008V2.66661C25.5993 1.78296 26.3156 1.06664 27.1992 1.06664C28.0829 1.06664 28.7992 1.78296 28.7992 2.66661V13.8664C28.5603 13.8666 28.3227 13.9 28.0931 13.9656C27.4143 11.5578 24.9122 10.1563 22.5045 10.835C21.2161 11.1982 20.1543 12.1127 19.6042 13.3331C19.4019 13.3406 19.2005 13.3647 19.0021 13.4051C18.4627 12.0441 16.9223 11.3781 15.5614 11.9174C15.2211 12.0522 14.9126 12.2561 14.655 12.516C12.8856 10.7534 10.0225 10.7589 8.25983 12.5283C8.13423 12.6543 8.01617 12.7877 7.9063 12.9277C6.1534 12.4518 4.31258 13.3075 3.54639 14.9544C2.09529 14.7549 0.757184 15.7696 0.557788 17.2208C0.540455 17.3463 0.532255 17.4729 0.533122 17.5996V17.8727C-0.0536658 18.3102 -0.174597 19.1406 0.262994 19.7274C0.470057 20.005 0.777583 20.1906 1.11978 20.2444L1.4579 23.4614C1.79583 26.0628 3.45053 28.3064 5.83594 29.3978L5.62262 30.2426C5.43335 31.0004 5.89428 31.7682 6.65213 31.9575C7.23205 32.1023 7.84044 31.8669 8.1719 31.3695L8.87908 30.3087C9.30974 30.3666 9.74373 30.3968 10.1783 30.3994H21.8212C22.2557 30.3968 22.6897 30.3666 23.1204 30.3087L23.8281 31.37C24.2614 32.02 25.1395 32.1956 25.7895 31.7623C26.2878 31.4301 26.5228 30.8201 26.3763 30.2394L26.163 29.3957C28.5487 28.3052 30.2041 26.0625 30.5432 23.4614L30.8813 20.2444C31.6052 20.1288 32.0984 19.4482 31.9829 18.7243ZM25.7185 3.95918C26.078 4.14698 26.3714 4.44037 26.5592 4.7999H23.0393C23.547 3.82792 24.7465 3.45146 25.7185 3.95918ZM3.19973 15.9997C3.37213 16.0026 3.54286 16.0336 3.70532 16.0914C3.98438 16.1857 4.28698 16.0358 4.38124 15.7567C4.38264 15.7526 4.38397 15.7484 4.38531 15.7442C4.8191 14.3387 6.3102 13.5509 7.71577 13.9848C7.78324 14.0056 7.84984 14.0291 7.91537 14.0552C8.15116 14.1485 8.42016 14.0629 8.55855 13.8504C9.59393 12.2452 11.7346 11.7834 13.3397 12.8187C13.6936 13.0471 14.003 13.3381 14.2523 13.6776C14.4279 13.914 14.762 13.9634 14.9984 13.7878C15.0584 13.7433 15.1084 13.6866 15.1451 13.6216C15.5679 12.8534 16.5335 12.5735 17.3016 12.9963C17.7341 13.2344 18.0312 13.66 18.1056 14.148C18.1515 14.4389 18.4245 14.6376 18.7155 14.5916C18.7497 14.5862 18.7833 14.5775 18.8159 14.5656C19.1093 14.4566 19.4197 14.4004 19.7327 14.3997C19.7861 14.3997 19.8394 14.404 19.9242 14.4104C20.1626 14.4228 20.3813 14.2786 20.4639 14.0546C21.0947 12.2491 23.0697 11.2969 24.8751 11.9276C26.1207 12.3628 27.0108 13.4681 27.1704 14.7778C27.2061 15.0702 27.4721 15.2783 27.7644 15.2426C27.8394 15.2335 27.9116 15.2085 27.9763 15.1693C28.2235 15.016 28.5083 14.9342 28.7992 14.933C29.6828 14.933 30.3992 15.6493 30.3992 16.533C30.3926 16.906 30.296 17.272 30.1176 17.5996H1.59977C1.59977 16.716 2.31608 15.9997 3.19973 15.9997ZM7.28445 30.7775C7.22005 30.8745 7.11132 30.9328 6.99485 30.9327C6.80192 30.932 6.64613 30.775 6.64679 30.5821C6.64686 30.5547 6.65019 30.5274 6.65673 30.5007L6.82686 29.8228C7.12232 29.9295 7.42418 30.0244 7.73351 30.1018L7.28445 30.7775ZM25.2793 30.7988H25.2777C25.2127 30.8842 25.1113 30.9338 25.0041 30.9327C24.8879 30.933 24.7793 30.8748 24.715 30.778L24.266 30.1018C24.5764 30.0244 24.8782 29.9284 25.1726 29.8228L25.3422 30.4996C25.3695 30.6037 25.3461 30.7146 25.2793 30.7988ZM29.4824 23.3499C29.1229 26.761 25.8297 29.3327 21.8212 29.3327H10.1777C6.16927 29.3327 2.87601 26.761 2.51655 23.3499L2.19175 20.2662H29.8072L29.4824 23.3499ZM30.6658 19.1996H1.33311C1.18584 19.1996 1.06644 19.0802 1.06644 18.9329C1.06644 18.7857 1.18584 18.6663 1.33311 18.6663H30.6658C30.8131 18.6663 30.9325 18.7857 30.9325 18.9329C30.9325 19.0802 30.8131 19.1996 30.6658 19.1996Z" fill="#0C2D57"/>
<path d="M22.4005 6.93323C22.106 6.93323 21.8672 7.17202 21.8672 7.46655V9.06652C21.8672 9.36104 22.106 9.59984 22.4005 9.59984C22.695 9.59984 22.9338 9.36104 22.9338 9.06652V7.46655C22.9338 7.17202 22.695 6.93323 22.4005 6.93323Z" fill="#0C2D57"/>
<path d="M24.0001 6.3999C23.7056 6.3999 23.4668 6.6387 23.4668 6.93322V7.99987C23.4668 8.2944 23.7056 8.53319 24.0001 8.53319C24.2946 8.53319 24.5334 8.2944 24.5334 7.99987V6.93322C24.5334 6.6387 24.2946 6.3999 24.0001 6.3999Z" fill="#0C2D57"/>
<path d="M25.5997 6.93323C25.3052 6.93323 25.0664 7.17202 25.0664 7.46655V9.06652C25.0664 9.36104 25.3052 9.59984 25.5997 9.59984C25.8943 9.59984 26.1331 9.36104 26.1331 9.06652V7.46655C26.1331 7.17202 25.8943 6.93323 25.5997 6.93323Z" fill="#0C2D57"/>
<path d="M27.1993 6.3999C26.9048 6.3999 26.666 6.6387 26.666 6.93322V7.99987C26.666 8.2944 26.9048 8.53319 27.1993 8.53319C27.4939 8.53319 27.7327 8.2944 27.7327 7.99987V6.93322C27.7327 6.6387 27.4939 6.3999 27.1993 6.3999Z" fill="#0C2D57"/>
</g>
<defs>
<clipPath id="clip0_1191_449">
<rect width="32" height="32" fill="white"/>
</clipPath>
</defs>
</svg>
