<svg width="32" height="32" viewBox="0 0 32 32" fill="none" xmlns="http://www.w3.org/2000/svg">
<path d="M30.5 27H26.5V18H29.5V19.5C29.5 19.6326 29.5527 19.7598 29.6464 19.8536C29.7402 19.9473 29.8674 20 30 20C30.1326 20 30.2598 19.9473 30.3536 19.8536C30.4473 19.7598 30.5 19.6326 30.5 19.5V17.5C30.5 17.3674 30.4473 17.2402 30.3536 17.1464C30.2598 17.0527 30.1326 17 30 17H23.5V5H24.5C24.6326 5 24.7598 4.94732 24.8536 4.85355C24.9473 4.75979 25 4.63261 25 4.5V2.5C25 2.36739 24.9473 2.24021 24.8536 2.14645C24.7598 2.05268 24.6326 2 24.5 2H7.5C7.36739 2 7.24021 2.05268 7.14645 2.14645C7.05268 2.24021 7 2.36739 7 2.5V4.5C7 4.63261 7.05268 4.75979 7.14645 4.85355C7.24021 4.94732 7.36739 5 7.5 5H8.5V17H6.66288L7.48075 14.1375C7.50204 14.0631 7.50575 13.9847 7.49161 13.9086C7.47746 13.8325 7.44584 13.7608 7.39924 13.6989C7.35263 13.6371 7.29231 13.587 7.22303 13.5525C7.15375 13.518 7.0774 13.5 7 13.5H5.20706L6.60356 12.1036C6.64999 12.0571 6.68682 12.002 6.71195 11.9413C6.73708 11.8807 6.75001 11.8157 6.75001 11.75C6.75001 11.6843 6.73708 11.6193 6.71195 11.5587C6.68682 11.498 6.64999 11.4429 6.60356 11.3964C6.55713 11.35 6.50201 11.3132 6.44135 11.288C6.38068 11.2629 6.31566 11.25 6.25 11.25C6.18434 11.25 6.11932 11.2629 6.05865 11.288C5.99799 11.3132 5.94287 11.35 5.89644 11.3964L5.25 12.0429L3.85356 10.6464C3.75979 10.5527 3.63261 10.5 3.5 10.5C3.36739 10.5 3.24021 10.5527 3.14644 10.6464C3.05267 10.7402 2.99999 10.8674 2.99999 11C2.99999 11.1326 3.05267 11.2598 3.14644 11.3536L4.54294 12.75L3.79294 13.5H2.5C2.42259 13.5 2.34625 13.518 2.27697 13.5525C2.20769 13.587 2.14737 13.6371 2.10076 13.6989C2.05416 13.7608 2.02254 13.8325 2.00839 13.9086C1.99425 13.9847 1.99796 14.0631 2.01925 14.1375L2.83713 17H2C1.86739 17 1.74021 17.0527 1.64645 17.1464C1.55268 17.2402 1.5 17.3674 1.5 17.5V19.5C1.5 19.6326 1.55268 19.7598 1.64645 19.8536C1.74021 19.9473 1.86739 20 2 20C2.13261 20 2.25979 19.9473 2.35355 19.8536C2.44732 19.7598 2.5 19.6326 2.5 19.5V18H5.5V27H1.5C1.36739 27 1.24021 27.0527 1.14645 27.1464C1.05268 27.2402 1 27.3674 1 27.5V29.5C1 29.6326 1.05268 29.7598 1.14645 29.8536C1.24021 29.9473 1.36739 30 1.5 30H30.5C30.6326 30 30.7598 29.9473 30.8536 29.8536C30.9473 29.7598 31 29.6326 31 29.5V27.5C31 27.3674 30.9473 27.2402 30.8536 27.1464C30.7598 27.0527 30.6326 27 30.5 27ZM25.5 18V27H22.5V18H25.5ZM16.5 17V11.5H22.5V17H16.5ZM21.5 18V27H18.5V18H21.5ZM9.5 17V11.5H15.5V17H9.5ZM13.5 18V27H10.5V18H13.5ZM9.5 10.5V5H15.5V10.5H9.5ZM14.5 18H17.5V27H14.5V18ZM16.5 10.5V5H22.5V10.5H16.5ZM8 4V3H24V4H8ZM6.5 18H9.5V27H6.5V18ZM3.87719 17L3.16287 14.5H6.33712L5.62281 17H3.87719ZM30 29H2V28H30V29Z" fill="#0C2D57"/>
</svg>
