<svg width="33" height="32" viewBox="0 0 33 32" fill="none" xmlns="http://www.w3.org/2000/svg">
<g clip-path="url(#clip0_1191_478)">
<path d="M31.7358 8.18188L26.8926 6.65039C26.6443 6.57178 26.3799 6.70947 26.3013 6.95752C26.2229 7.20557 26.3604 7.47021 26.6084 7.54858L31.4517 9.08032C31.5151 9.10034 31.5579 9.15845 31.5579 9.2251V27.3145C31.5579 27.4788 31.4243 27.6123 31.2603 27.6123H28.8662V10.6172C28.8662 10.0457 28.4014 9.58081 27.8298 9.58081H5.05127C4.47974 9.58081 4.01489 10.0457 4.01489 10.6172V27.6123H1.73999C1.57568 27.6123 1.44214 27.4788 1.44214 27.3145V9.2251C1.44214 9.15869 1.48486 9.10034 1.54834 9.08032L16.3027 4.4104C16.4319 4.36963 16.5684 4.36963 16.6973 4.4104L24.5742 6.90479C24.8223 6.9834 25.0869 6.84595 25.1655 6.5979C25.2441 6.34985 25.1067 6.08496 24.8586 6.00659L16.9817 3.51221C16.6665 3.4126 16.3335 3.4126 16.0186 3.51221L1.26416 8.18213C0.807129 8.32666 0.5 8.74585 0.5 9.22534V27.3147C0.5 27.9983 1.05615 28.5544 1.73999 28.5544H31.26C31.9438 28.5544 32.5 27.9983 32.5 27.3147V9.22534C32.5 8.74585 32.1929 8.32666 31.7358 8.18188ZM9.15845 20.4329H17.2151C17.4753 20.4329 17.6863 20.2219 17.6863 19.9617C17.6863 19.7017 17.4753 19.4907 17.2151 19.4907H10.4607L10.9094 17.5706C11.0386 17.0168 11.5264 16.6301 12.095 16.6301H20.6853C21.2539 16.6301 21.7415 17.0168 21.8708 17.5706L22.3193 19.4907H19.3928C19.1326 19.4907 18.9216 19.7017 18.9216 19.9617C18.9216 20.2219 19.1326 20.4329 19.3928 20.4329H23.6843C23.9097 20.4329 24.0928 20.616 24.0928 20.8411V25.3418C24.0928 25.5669 23.9097 25.7502 23.6843 25.7502H9.15845C8.89868 25.7502 8.68726 25.5388 8.68726 25.2791V20.9041C8.68726 20.644 8.89868 20.4329 9.15845 20.4329ZM22.2144 27.6079H21.1516C21.0476 27.6079 20.9631 27.5234 20.9631 27.4194V26.6924H22.4341V27.3882C22.4341 27.5093 22.3354 27.6079 22.2144 27.6079ZM10.3459 26.6924H11.8169V27.3879C11.8169 27.5093 11.7183 27.6079 11.5972 27.6079H10.5344C10.4304 27.6079 10.3459 27.5234 10.3459 27.4194V26.6924ZM12.7593 27.3879V26.6924H20.021V27.4194C20.021 27.4854 20.0276 27.5493 20.0386 27.6123H12.7371C12.7512 27.5396 12.7593 27.4648 12.7593 27.3879ZM23.3542 27.6123C23.3684 27.5396 23.3765 27.4648 23.3765 27.3879V26.6924H23.6843C24.4292 26.6924 25.0349 26.0864 25.0349 25.3418V20.8411C25.0349 20.2114 24.6011 19.6824 24.0168 19.5337H24.9451C25.2053 19.5337 25.4163 19.3228 25.4163 19.0625C25.4163 18.8025 25.2053 18.5916 24.9451 18.5916H23.0769L22.7883 17.3562C22.5588 16.374 21.6938 15.6877 20.6853 15.6877H12.095C11.0862 15.6877 10.2214 16.374 9.99194 17.3562L9.70337 18.5916H7.83496C7.57471 18.5916 7.36377 18.8025 7.36377 19.0625C7.36377 19.3228 7.57471 19.5337 7.83496 19.5337H8.81201C8.19971 19.6887 7.74512 20.2441 7.74512 20.9038V25.2791C7.74512 26.0583 8.37915 26.6924 9.15845 26.6924H9.40381V27.4194C9.40381 27.4854 9.41064 27.5493 9.42139 27.6123H4.95703V14.3936H9.36865C9.62866 14.3936 9.8396 14.1826 9.8396 13.9224C9.8396 13.6621 9.62866 13.4512 9.36865 13.4512H4.95703V10.6172C4.95703 10.5652 4.99927 10.5229 5.05127 10.5229H27.8296C27.8816 10.5229 27.9238 10.5652 27.9238 10.6172V13.4512H11.614C11.3538 13.4512 11.1428 13.6621 11.1428 13.9224C11.1428 14.1826 11.3538 14.3936 11.614 14.3936H27.9238V27.6123H23.3542Z" fill="#0C2D57"/>
<path d="M10.9036 24.3684C11.825 24.3684 12.5747 23.6189 12.5747 22.6975C12.5747 21.7759 11.825 21.0264 10.9036 21.0264C9.98218 21.0264 9.23242 21.7759 9.23242 22.6975C9.23242 23.6189 9.98218 24.3684 10.9036 24.3684ZM10.9036 21.9685C11.3054 21.9685 11.6326 22.2954 11.6326 22.6975C11.6326 23.0994 11.3054 23.4263 10.9036 23.4263C10.5017 23.4263 10.1748 23.0994 10.1748 22.6975C10.1748 22.2954 10.5017 21.9685 10.9036 21.9685Z" fill="#0C2D57"/>
<path d="M21.8762 24.3684C22.7979 24.3684 23.5474 23.6189 23.5474 22.6975C23.5474 21.7759 22.7976 21.0264 21.8762 21.0264C20.9548 21.0264 20.2051 21.7759 20.2051 22.6975C20.2051 23.6189 20.9548 24.3684 21.8762 24.3684ZM21.8762 21.9685C22.2781 21.9685 22.6052 22.2954 22.6052 22.6975C22.6052 23.0994 22.2781 23.4263 21.8762 23.4263C21.4744 23.4263 21.1475 23.0994 21.1475 22.6975C21.1475 22.2954 21.4744 21.9685 21.8762 21.9685Z" fill="#0C2D57"/>
<path d="M13.7629 25.1265H19.0171C19.3809 25.1265 19.6765 24.8306 19.6765 24.4668V23.3281C19.6765 22.9644 19.3809 22.6685 19.0171 22.6685H13.7629C13.3994 22.6685 13.1035 22.9644 13.1035 23.3281V24.4668C13.1035 24.8303 13.3994 25.1265 13.7629 25.1265ZM14.0457 23.6108H18.7344V24.1841H14.0457V23.6108Z" fill="#0C2D57"/>
</g>
<defs>
<clipPath id="clip0_1191_478">
<rect width="32" height="32" fill="white" transform="translate(0.5)"/>
</clipPath>
</defs>
</svg>
