<svg width="32" height="32" viewBox="0 0 32 32" fill="none" xmlns="http://www.w3.org/2000/svg">
<g clip-path="url(#clip0_1191_489)">
<path d="M24.1504 15.9414C24.2658 15.9294 24.3717 15.872 24.4447 15.7818L25.746 14.1768C25.8982 13.9891 25.8694 13.7136 25.6817 13.5614L16.9407 6.47437C16.4021 6.02562 15.6167 6.02112 15.0727 6.46362L6.31831 13.5614C6.22819 13.6344 6.17075 13.7403 6.15869 13.8558C6.14663 13.9712 6.18088 14.0866 6.25394 14.1768L7.55531 15.7819C7.64181 15.8885 7.768 15.9438 7.89537 15.9438C7.99219 15.9438 8.08962 15.9119 8.17062 15.8462L9.09838 15.094V24.5609C9.09838 25.2803 9.68363 25.8656 10.403 25.8656H21.5969C22.3163 25.8656 22.9016 25.2803 22.9016 24.5609V15.0939L23.8294 15.8462C23.9196 15.9193 24.0351 15.9536 24.1504 15.9414ZM7.95956 14.8909L7.20919 13.9655L15.6243 7.14288C15.8454 6.96313 16.1639 6.96506 16.3818 7.14756C16.3836 7.14906 16.3854 7.1505 16.3872 7.152L24.7909 13.9655L24.0406 14.8909L16.2756 8.59531C16.1151 8.46512 15.8851 8.46512 15.7246 8.59531L7.95956 14.8909ZM9.97344 17.3108H11.9236V21.5827H9.97344V17.3108ZM17.63 24.9906H14.37V17.3108H17.63V24.9906ZM22.0266 21.5826H20.0764V17.3107H22.0266V21.5826ZM22.0266 16.4358H19.6389C19.3973 16.4358 19.2014 16.6317 19.2014 16.8733V22.0202C19.2014 22.2618 19.3973 22.4577 19.6389 22.4577H22.0266V24.5609C22.0266 24.7978 21.8339 24.9906 21.5969 24.9906H18.505V16.8733C18.505 16.6317 18.3091 16.4358 18.0675 16.4358H13.9325C13.6909 16.4358 13.495 16.6317 13.495 16.8733V24.9906H10.4031C10.1662 24.9906 9.97344 24.7978 9.97344 24.5609V22.4577H12.3611C12.6027 22.4577 12.7986 22.2618 12.7986 22.0202V16.8733C12.7986 16.6317 12.6027 16.4358 12.3611 16.4358H9.97344V14.3846L16.0001 9.4985L22.0266 14.3846V16.4358ZM14.3294 13.4199C14.3294 14.3411 15.0789 15.0906 16 15.0906C16.9212 15.0906 17.6706 14.3411 17.6706 13.4199C17.6706 12.4987 16.9212 11.7494 16 11.7494C15.0789 11.7493 14.3294 12.4987 14.3294 13.4199ZM16.7956 13.4199C16.7956 13.8587 16.4387 14.2156 16 14.2156C15.5613 14.2156 15.2044 13.8587 15.2044 13.4199C15.2044 12.9812 15.5613 12.6244 16 12.6244C16.4387 12.6244 16.7956 12.9812 16.7956 13.4199ZM8.08725 27.7853C8.08725 28.0269 7.89138 28.2228 7.64975 28.2228H5.67006C5.42844 28.2228 5.23256 28.0269 5.23256 27.7853C5.23256 27.5437 5.42844 27.3478 5.67006 27.3478H7.64975C7.89138 27.3478 8.08725 27.5438 8.08725 27.7853ZM22.0974 27.7853C22.0974 28.0269 21.9016 28.2228 21.6599 28.2228H19.6803C19.4386 28.2228 19.2428 28.0269 19.2428 27.7853C19.2428 27.5437 19.4386 27.3478 19.6803 27.3478H21.6599C21.9016 27.3478 22.0974 27.5438 22.0974 27.7853ZM12.7573 27.7853C12.7573 28.0269 12.5614 28.2228 12.3198 28.2228H10.3401C10.0985 28.2228 9.90263 28.0269 9.90263 27.7853C9.90263 27.5437 10.0985 27.3478 10.3401 27.3478H12.3198C12.5614 27.3478 12.7573 27.5438 12.7573 27.7853ZM15.0102 28.2228C14.7686 28.2228 14.5727 28.0269 14.5727 27.7853C14.5727 27.5437 14.7686 27.3478 15.0102 27.3478H16.9899C17.2315 27.3478 17.4274 27.5437 17.4274 27.7853C17.4274 28.0269 17.2315 28.2228 16.9899 28.2228H15.0102ZM26.7674 27.7853C26.7674 28.0269 26.5716 28.2228 26.3299 28.2228H24.3503C24.1086 28.2228 23.9128 28.0269 23.9128 27.7853C23.9128 27.5437 24.1086 27.3478 24.3503 27.3478H26.3299C26.5716 27.3478 26.7674 27.5438 26.7674 27.7853ZM31.4375 27.7853C31.4375 28.0269 31.2416 28.2228 31 28.2228H29.0203C28.7787 28.2228 28.5828 28.0269 28.5828 27.7853C28.5828 27.5437 28.7787 27.3478 29.0203 27.3478H31C31.2416 27.3478 31.4375 27.5438 31.4375 27.7853ZM3.41719 27.7853C3.41719 28.0269 3.22131 28.2228 2.97969 28.2228H1C0.758375 28.2228 0.5625 28.0269 0.5625 27.7853C0.5625 27.5437 0.758375 27.3478 1 27.3478H2.97969C3.22131 27.3478 3.41719 27.5438 3.41719 27.7853ZM28.1562 5.67006V7.64975C28.1562 7.89138 27.9604 8.08725 27.7188 8.08725C27.4771 8.08725 27.2812 7.89138 27.2812 7.64975V5.67006C27.2812 5.42844 27.4771 5.23256 27.7188 5.23256C27.9604 5.23256 28.1562 5.42844 28.1562 5.67006ZM28.1562 1V2.97969C28.1562 3.22131 27.9604 3.41719 27.7188 3.41719C27.4771 3.41719 27.2812 3.22131 27.2812 2.97969V1C27.2812 0.758375 27.4771 0.5625 27.7188 0.5625C27.9604 0.5625 28.1562 0.758375 28.1562 1ZM28.1562 10.3401V12.3197C28.1562 12.5614 27.9604 12.7572 27.7188 12.7572C27.4771 12.7572 27.2812 12.5614 27.2812 12.3197V10.3401C27.2812 10.0984 27.4771 9.90256 27.7188 9.90256C27.9604 9.90256 28.1562 10.0985 28.1562 10.3401ZM28.1562 19.6802V21.6599C28.1562 21.9015 27.9604 22.0974 27.7188 22.0974C27.4771 22.0974 27.2812 21.9015 27.2812 21.6599V19.6802C27.2812 19.4386 27.4771 19.2427 27.7188 19.2427C27.9604 19.2427 28.1562 19.4386 28.1562 19.6802ZM28.1562 29.0203V31C28.1562 31.2416 27.9604 31.4375 27.7188 31.4375C27.4771 31.4375 27.2812 31.2416 27.2812 31V29.0203C27.2812 28.7787 27.4771 28.5828 27.7188 28.5828C27.9604 28.5828 28.1562 28.7787 28.1562 29.0203ZM28.1562 24.3503V26.3299C28.1562 26.5715 27.9604 26.7674 27.7188 26.7674C27.4771 26.7674 27.2812 26.5715 27.2812 26.3299V24.3503C27.2812 24.1086 27.4771 23.9128 27.7188 23.9128C27.9604 23.9128 28.1562 24.1087 28.1562 24.3503ZM28.1562 15.0101V16.9898C28.1562 17.2314 27.9604 17.4273 27.7188 17.4273C27.4771 17.4273 27.2812 17.2314 27.2812 16.9898V15.0101C27.2812 14.7685 27.4771 14.5726 27.7188 14.5726C27.9604 14.5726 28.1562 14.7685 28.1562 15.0101ZM4.71075 19.6802V21.6599C4.71075 21.9015 4.51488 22.0974 4.27325 22.0974C4.03163 22.0974 3.83575 21.9015 3.83575 21.6599V19.6802C3.83575 19.4386 4.03163 19.2427 4.27325 19.2427C4.51488 19.2427 4.71075 19.4386 4.71075 19.6802ZM4.71075 24.3503V26.3299C4.71075 26.5715 4.51488 26.7674 4.27325 26.7674C4.03163 26.7674 3.83575 26.5715 3.83575 26.3299V24.3503C3.83575 24.1086 4.03163 23.9128 4.27325 23.9128C4.51488 23.9128 4.71075 24.1087 4.71075 24.3503ZM4.71075 29.0203V31C4.71075 31.2416 4.51488 31.4375 4.27325 31.4375C4.03163 31.4375 3.83575 31.2416 3.83575 31V29.0203C3.83575 28.7787 4.03163 28.5828 4.27325 28.5828C4.51488 28.5828 4.71075 28.7787 4.71075 29.0203ZM4.71075 15.0101V16.9898C4.71075 17.2314 4.51488 17.4273 4.27325 17.4273C4.03163 17.4273 3.83575 17.2314 3.83575 16.9898V15.0101C3.83575 14.7685 4.03163 14.5726 4.27325 14.5726C4.51488 14.5726 4.71075 14.7685 4.71075 15.0101ZM4.71075 1V2.97969C4.71075 3.22131 4.51488 3.41719 4.27325 3.41719C4.03163 3.41719 3.83575 3.22131 3.83575 2.97969V1C3.83575 0.758375 4.03163 0.5625 4.27325 0.5625C4.51488 0.5625 4.71075 0.758375 4.71075 1ZM4.71075 5.67006V7.64975C4.71075 7.89138 4.51488 8.08725 4.27325 8.08725C4.03163 8.08725 3.83575 7.89138 3.83575 7.64975V5.67006C3.83575 5.42844 4.03163 5.23256 4.27325 5.23256C4.51488 5.23256 4.71075 5.42844 4.71075 5.67006ZM4.71075 10.3401V12.3197C4.71075 12.5614 4.51488 12.7572 4.27325 12.7572C4.03163 12.7572 3.83575 12.5614 3.83575 12.3197V10.3401C3.83575 10.0984 4.03163 9.90256 4.27325 9.90256C4.51488 9.90256 4.71075 10.0985 4.71075 10.3401ZM9.90263 4.33075C9.90263 4.08912 10.0985 3.89325 10.3401 3.89325H12.3198C12.5614 3.89325 12.7573 4.08912 12.7573 4.33075C12.7573 4.57237 12.5614 4.76825 12.3198 4.76825H10.3401C10.0985 4.76825 9.90263 4.57231 9.90263 4.33075ZM14.5727 4.33075C14.5727 4.08912 14.7686 3.89325 15.0102 3.89325H16.9899C17.2315 3.89325 17.4274 4.08912 17.4274 4.33075C17.4274 4.57237 17.2315 4.76825 16.9899 4.76825H15.0102C14.7686 4.76825 14.5727 4.57231 14.5727 4.33075ZM28.5828 4.33075C28.5828 4.08912 28.7787 3.89325 29.0203 3.89325H31C31.2416 3.89325 31.4375 4.08912 31.4375 4.33075C31.4375 4.57237 31.2416 4.76825 31 4.76825H29.0203C28.7787 4.76825 28.5828 4.57231 28.5828 4.33075ZM19.2428 4.33075C19.2428 4.08912 19.4386 3.89325 19.6803 3.89325H21.6599C21.9016 3.89325 22.0974 4.08912 22.0974 4.33075C22.0974 4.57237 21.9016 4.76825 21.6599 4.76825H19.6803C19.4386 4.76825 19.2428 4.57231 19.2428 4.33075ZM5.23256 4.33075C5.23256 4.08912 5.42844 3.89325 5.67006 3.89325H7.64975C7.89138 3.89325 8.08725 4.08912 8.08725 4.33075C8.08725 4.57237 7.89138 4.76825 7.64975 4.76825H5.67006C5.42838 4.76825 5.23256 4.57231 5.23256 4.33075ZM3.41719 4.33075C3.41719 4.57237 3.22131 4.76825 2.97969 4.76825H1C0.758375 4.76825 0.5625 4.57237 0.5625 4.33075C0.5625 4.08912 0.758375 3.89325 1 3.89325H2.97969C3.22131 3.89325 3.41719 4.08912 3.41719 4.33075ZM26.7674 4.33075C26.7674 4.57237 26.5716 4.76825 26.3299 4.76825H24.3503C24.1086 4.76825 23.9128 4.57237 23.9128 4.33075C23.9128 4.08912 24.1086 3.89325 24.3503 3.89325H26.3299C26.5716 3.89325 26.7674 4.08912 26.7674 4.33075ZM18.505 29.4688V31C18.505 31.2416 18.3091 31.4375 18.0675 31.4375C17.8259 31.4375 17.63 31.2416 17.63 31V30.6719H14.37V31C14.37 31.2416 14.1741 31.4375 13.9325 31.4375C13.6909 31.4375 13.495 31.2416 13.495 31V29.4688C13.495 29.2271 13.6909 29.0312 13.9325 29.0312C14.1741 29.0312 14.37 29.2271 14.37 29.4688V29.7969H17.63V29.4688C17.63 29.2271 17.8259 29.0312 18.0675 29.0312C18.3091 29.0312 18.505 29.2272 18.505 29.4688Z" fill="#0C2D57"/>
</g>
<defs>
<clipPath id="clip0_1191_489">
<rect width="32" height="32" fill="white"/>
</clipPath>
</defs>
</svg>
