<svg width="28" height="28" viewBox="0 0 28 28" fill="none" xmlns="http://www.w3.org/2000/svg">
<g clip-path="url(#clip0_213_138)">
<path d="M27.4295 12.0749C26.9404 8.51026 25.0553 5.28591 22.1889 3.11117C19.3225 0.93643 15.7096 -0.0105671 12.145 0.478509C8.58033 0.967584 5.35598 2.85267 3.18124 5.71907C1.0065 8.58547 0.0595013 12.1984 0.548577 15.763C0.951511 18.7134 2.30732 21.4513 4.40965 23.5601C6.51199 25.6689 9.24573 27.0331 12.1948 27.4451C12.7983 27.5242 13.4062 27.5639 14.0148 27.5641C16.4737 27.5682 18.8865 26.8972 20.9903 25.6243C21.2885 25.4446 21.5032 25.1539 21.587 24.816C21.6709 24.4782 21.6171 24.1208 21.4375 23.8226C21.2578 23.5244 20.9671 23.3098 20.6292 23.2259C20.2914 23.1421 19.934 23.1959 19.6358 23.3755C18.1384 24.2743 16.4475 24.8015 14.7046 24.9129C12.9617 25.0243 11.2174 24.7167 9.61776 24.0158C8.01809 23.315 6.60951 22.2412 5.50984 20.8844C4.41018 19.5276 3.65141 17.9272 3.29701 16.2171C2.94261 14.507 3.00289 12.7368 3.47279 11.0548C3.9427 9.37271 4.80857 7.82763 5.99798 6.54878C7.18739 5.26994 8.66574 4.2945 10.3094 3.70409C11.953 3.11367 13.7142 2.92544 15.4455 3.15513C17.0535 3.36894 18.5939 3.93779 19.955 4.82046C21.3161 5.70313 22.4638 6.87752 23.315 8.25854C24.1661 9.63956 24.6994 11.1926 24.8762 12.8052C25.053 14.4178 24.8689 16.0495 24.3372 17.5821C24.1992 17.9507 23.95 18.2671 23.624 18.4876C23.298 18.708 22.9115 18.8216 22.5181 18.8124C21.9996 18.8117 21.5026 18.6054 21.136 18.2388C20.7694 17.8722 20.5631 17.3752 20.5625 16.8568V8.74988C20.5625 8.40179 20.4242 8.06795 20.178 7.82181C19.9319 7.57566 19.598 7.43738 19.25 7.43738C18.9019 7.43738 18.568 7.57566 18.3219 7.82181C18.0757 8.06795 17.9375 8.40179 17.9375 8.74988V8.76213C16.9425 8.01116 15.7541 7.55911 14.5116 7.45891C13.269 7.3587 12.0236 7.61447 10.9211 8.19629C9.81865 8.77811 8.90469 9.66191 8.2862 10.7443C7.66772 11.8266 7.37031 13.0627 7.42877 14.3079C7.48723 15.5532 7.89915 16.756 8.61632 17.7756C9.33349 18.7952 10.3262 19.5895 11.4784 20.0655C12.6305 20.5415 13.8944 20.6794 15.1221 20.4632C16.3498 20.247 17.4906 19.6857 18.4108 18.8448C18.7826 19.6192 19.3652 20.2732 20.0916 20.7317C20.8181 21.1903 21.659 21.4349 22.5181 21.4374C23.4572 21.4464 24.3758 21.1628 25.1463 20.6259C25.9169 20.089 26.5011 19.3255 26.8178 18.4414C27.5252 16.3981 27.7348 14.2155 27.4295 12.0749ZM14 17.9374C13.2212 17.9374 12.4599 17.7065 11.8124 17.2738C11.1649 16.8411 10.6602 16.2262 10.3622 15.5067C10.0642 14.7872 9.98618 13.9955 10.1381 13.2317C10.29 12.4679 10.665 11.7663 11.2157 11.2157C11.7664 10.665 12.468 10.29 13.2318 10.138C13.9956 9.98611 14.7873 10.0641 15.5068 10.3621C16.2263 10.6601 16.8412 11.1648 17.2739 11.8123C17.7065 12.4598 17.9375 13.2211 17.9375 13.9999C17.9363 15.0438 17.5211 16.0447 16.7829 16.7828C16.0447 17.521 15.0439 17.9362 14 17.9374Z" fill="url(#paint0_linear_213_138)"/>
</g>
<defs>
<linearGradient id="paint0_linear_213_138" x1="27.5657" y1="0.352539" x2="0.422607" y2="0.352539" gradientUnits="userSpaceOnUse">
<stop stop-color="#FF8911"/>
<stop offset="1" stop-color="#F83600"/>
</linearGradient>
<clipPath id="clip0_213_138">
<rect width="28" height="28" fill="white"/>
</clipPath>
</defs>
</svg>
