<svg width="28" height="28" viewBox="0 0 28 28" fill="none" xmlns="http://www.w3.org/2000/svg">
<g clip-path="url(#clip0_213_112)">
<path d="M26.5668 14.1363L25.2562 12.9979V23.7414C25.2562 25.5493 23.7854 27.0199 21.9778 27.0199H18.0392C18.3699 26.6811 18.7202 26.3047 19.0727 25.8977C19.3816 25.5412 19.6696 25.1866 19.9374 24.8343H21.9775C22.5802 24.8343 23.0704 24.3441 23.0704 23.7414V11.0999L14 3.22293L4.92935 11.0999V23.7414C4.92935 24.3441 5.41962 24.8343 6.02225 24.8343H8.06256C8.33023 25.1864 8.61819 25.5412 8.92731 25.8977C9.27979 26.3045 9.63013 26.6811 9.9606 27.0199H6.02225C4.21457 27.0199 2.74377 25.5493 2.74377 23.7414V12.9979L1.43298 14.1363L0 12.4861L14 0.328125L28 12.4861L26.5668 14.1363ZM14 16.5782C13.0947 16.5782 12.3607 17.312 12.3607 18.2173C12.3607 19.1227 13.0947 19.8567 14 19.8567C14.9053 19.8567 15.6393 19.1227 15.6393 18.2173C15.6393 17.312 14.9053 16.5782 14 16.5782ZM20.2824 18.5489C20.2824 20.2839 19.3196 22.2747 17.4207 24.4665C16.0764 26.0182 14.7458 27.1066 14.6898 27.1521L14 27.7137L13.31 27.1521C13.254 27.1066 11.9234 26.0182 10.579 24.4665C8.68015 22.2747 7.71735 20.2839 7.71735 18.5489V18.2216C7.71735 14.7573 10.5357 11.939 14 11.939C17.4641 11.939 20.2824 14.7573 20.2824 18.2216V18.5489ZM18.0969 18.2216C18.0969 15.9626 16.2589 14.1245 14 14.1245C11.7409 14.1245 9.90314 15.9626 9.90314 18.2216V18.5491C9.90314 19.7093 10.7299 21.3027 12.231 23.0354C12.8819 23.7867 13.5341 24.4222 14.003 24.8538C15.5674 23.4193 18.0966 20.6561 18.0966 18.5491V18.2216H18.0969Z" fill="url(#paint0_linear_213_112)"/>
</g>
<defs>
<linearGradient id="paint0_linear_213_112" x1="28" y1="0.328125" x2="0" y2="0.328125" gradientUnits="userSpaceOnUse">
<stop stop-color="#FF8911"/>
<stop offset="1" stop-color="#F83600"/>
</linearGradient>
<clipPath id="clip0_213_112">
<rect width="28" height="28" fill="white"/>
</clipPath>
</defs>
</svg>
