<svg width="28" height="28" viewBox="0 0 28 28" fill="none" xmlns="http://www.w3.org/2000/svg">
<g clip-path="url(#clip0_213_122)">
<path d="M14 0C6.28059 0 0 6.28064 0 14C0 21.7194 6.28059 28 14 28C17.7393 28 21.3011 26.4921 23.9454 23.8474C24.3848 23.4078 24.3352 22.6704 23.8896 22.2329L21.68 20.0559C22.1564 19.4033 22.2191 18.6094 21.8261 17.8552C21.2897 16.8255 20.4929 16.0013 19.4596 15.4068C19.061 15.1766 18.6843 15.0641 18.3092 15.0645C18.1632 15.0645 18.0158 15.0824 17.8725 15.1162C17.3956 15.2324 16.9372 15.4558 16.4712 15.7985C16.3253 15.908 16.145 15.9625 15.9376 15.9625C15.6846 15.9625 15.4109 15.8755 15.2233 15.7363C13.8622 14.7217 12.7081 13.5667 11.6936 12.2065C11.4949 11.9389 11.3361 11.3567 11.6304 10.9572C11.9746 10.4918 12.197 10.0342 12.3127 9.55644C12.4372 9.04164 12.342 8.52264 12.023 7.97123C11.4281 6.93601 10.6039 6.14024 9.5742 5.60336C9.24063 5.42954 8.89919 5.34061 8.55873 5.34061C7.99127 5.34061 7.45951 5.58827 7.02198 6.05416C6.6198 6.48247 6.26413 6.93606 5.85415 7.48473C5.47845 7.98723 5.50959 8.56756 5.53612 9.07911L5.53703 9.0897C5.58332 9.73959 5.82586 10.5075 6.27882 11.4374C7.04447 13.0125 8.13184 14.5081 9.60318 16.0092C9.90561 16.3181 11.1106 17.5235 11.42 17.8259C12.9219 19.2976 14.4174 20.3851 15.9918 21.1507C16.9221 21.6033 17.69 21.8459 18.3395 21.8925L18.3504 21.893C18.4841 21.8993 18.6268 21.9066 18.766 21.9066C19.0978 21.9066 19.5229 21.8664 19.9064 21.5982L21.3603 23.0307C19.2858 24.7276 16.7158 25.657 14.0002 25.657C7.57264 25.657 2.34328 20.4276 2.34328 14.0001C2.34328 7.57258 7.5727 2.34316 14.0002 2.34316C20.4276 2.34316 25.6571 7.57258 25.6571 14.0001C25.6571 14.6472 26.1816 15.1716 26.8286 15.1716C27.4758 15.1716 28.0002 14.6472 28.0002 14.0001C28 6.28064 21.7194 0 14 0Z" fill="url(#paint0_linear_213_122)"/>
</g>
<defs>
<linearGradient id="paint0_linear_213_122" x1="28.0002" y1="0" x2="0" y2="0" gradientUnits="userSpaceOnUse">
<stop stop-color="#FF8911"/>
<stop offset="1" stop-color="#F83600"/>
</linearGradient>
<clipPath id="clip0_213_122">
<rect width="28" height="28" fill="white"/>
</clipPath>
</defs>
</svg>
