<svg width="160" height="160" viewBox="0 0 160 160" fill="none" xmlns="http://www.w3.org/2000/svg">
<path d="M144.167 111.6C143.66 110.996 142.956 110.592 142.179 110.458C141.402 110.324 140.603 110.47 139.924 110.87C139.244 111.27 138.728 111.897 138.468 112.641C138.207 113.385 138.219 114.197 138.5 114.933C139.472 116.445 139.993 118.203 140 120C140 129 124.7 137.867 102.767 141.5C101.883 141.65 101.094 142.146 100.576 142.877C100.057 143.608 99.8497 144.516 100 145.4C100.15 146.284 100.646 147.072 101.377 147.591C102.108 148.11 103.016 148.317 103.9 148.167C130.267 143.667 146.667 132.933 146.667 120C146.638 117.021 145.772 114.11 144.167 111.6Z" fill="#59ACF9"/>
<path d="M91.4997 143.7L78.1664 137.033C77.6596 136.741 77.0848 136.587 76.4997 136.587C75.9146 136.587 75.3397 136.741 74.833 137.033C72.9997 138.333 73.333 140 73.333 143.333C41.5997 141.933 19.9997 130.5 19.9997 120C20.0318 118.248 20.5512 116.54 21.4997 115.067C21.8112 114.696 22.0381 114.261 22.1645 113.793C22.2909 113.326 22.3138 112.836 22.2317 112.358C22.1495 111.881 21.9643 111.427 21.6888 111.028C21.4133 110.63 21.0543 110.296 20.6367 110.05C20.2191 109.805 19.7529 109.653 19.2707 109.606C18.7885 109.559 18.3018 109.617 17.8445 109.778C17.3872 109.938 16.9704 110.196 16.623 110.534C16.2756 110.871 16.006 111.281 15.833 111.733C14.2513 114.205 13.3859 117.066 13.333 120C13.333 135.8 39.1997 148.4 73.333 150V153.333C73.3347 153.902 73.4817 154.46 73.7599 154.955C74.0381 155.451 74.4384 155.867 74.9226 156.164C75.4069 156.461 75.9591 156.63 76.5268 156.654C77.0945 156.677 77.6589 156.556 78.1664 156.3L91.4997 149.633C92.0457 149.354 92.5039 148.929 92.8239 148.405C93.1438 147.882 93.3131 147.28 93.3131 146.667C93.3131 146.053 93.1438 145.452 92.8239 144.928C92.5039 144.405 92.0457 143.98 91.4997 143.7Z" fill="#59ACF9"/>
<path d="M136.666 36.6667L79.9997 63.3333L23.333 36.6667L79.9997 10L136.666 36.6667Z" fill="url(#paint0_linear_707_750)"/>
<path d="M23.333 36.6667V100L79.9997 126.667V63.3334L23.333 36.6667Z" fill="url(#paint1_linear_707_750)"/>
<path d="M136.667 36.6667V100L80 126.667V63.3334L136.667 36.6667Z" fill="url(#paint2_linear_707_750)"/>
<path d="M79.9997 16.6667C83.6816 16.6667 86.6663 13.6819 86.6663 10C86.6663 6.31814 83.6816 3.33337 79.9997 3.33337C76.3178 3.33337 73.333 6.31814 73.333 10C73.333 13.6819 76.3178 16.6667 79.9997 16.6667Z" fill="url(#paint3_linear_707_750)"/>
<path d="M23.3327 43.3333C27.0146 43.3333 29.9993 40.3486 29.9993 36.6667C29.9993 32.9848 27.0146 30 23.3327 30C19.6508 30 16.666 32.9848 16.666 36.6667C16.666 40.3486 19.6508 43.3333 23.3327 43.3333Z" fill="url(#paint4_linear_707_750)"/>
<path d="M79.9997 70.0001C83.6816 70.0001 86.6663 67.0153 86.6663 63.3334C86.6663 59.6515 83.6816 56.6667 79.9997 56.6667C76.3178 56.6667 73.333 59.6515 73.333 63.3334C73.333 67.0153 76.3178 70.0001 79.9997 70.0001Z" fill="url(#paint5_linear_707_750)"/>
<path d="M136.667 43.3333C140.349 43.3333 143.333 40.3486 143.333 36.6667C143.333 32.9848 140.349 30 136.667 30C132.985 30 130 32.9848 130 36.6667C130 40.3486 132.985 43.3333 136.667 43.3333Z" fill="url(#paint6_linear_707_750)"/>
<path d="M79.9997 133.333C83.6816 133.333 86.6663 130.349 86.6663 126.667C86.6663 122.985 83.6816 120 79.9997 120C76.3178 120 73.333 122.985 73.333 126.667C73.333 130.349 76.3178 133.333 79.9997 133.333Z" fill="url(#paint7_linear_707_750)"/>
<path d="M136.667 106.667C140.349 106.667 143.333 103.682 143.333 100C143.333 96.3181 140.349 93.3334 136.667 93.3334C132.985 93.3334 130 96.3181 130 100C130 103.682 132.985 106.667 136.667 106.667Z" fill="url(#paint8_linear_707_750)"/>
<path d="M23.3327 106.667C27.0146 106.667 29.9993 103.682 29.9993 100C29.9993 96.3181 27.0146 93.3334 23.3327 93.3334C19.6508 93.3334 16.666 96.3181 16.666 100C16.666 103.682 19.6508 106.667 23.3327 106.667Z" fill="url(#paint9_linear_707_750)"/>
<defs>
<linearGradient id="paint0_linear_707_750" x1="136.666" y1="36.6667" x2="23.333" y2="36.6667" gradientUnits="userSpaceOnUse">
<stop stop-color="#54A5FF"/>
<stop offset="1" stop-color="#8AD3FE"/>
</linearGradient>
<linearGradient id="paint1_linear_707_750" x1="79.9997" y1="81.6667" x2="3.33301" y2="81.6667" gradientUnits="userSpaceOnUse">
<stop stop-color="#54A5FF"/>
<stop offset="1" stop-color="#8AD3FE"/>
</linearGradient>
<linearGradient id="paint2_linear_707_750" x1="108.333" y1="126.667" x2="108.333" y2="36.6667" gradientUnits="userSpaceOnUse">
<stop stop-color="#54A5FF"/>
<stop offset="1" stop-color="#8AD3FE"/>
</linearGradient>
<linearGradient id="paint3_linear_707_750" x1="73.333" y1="10" x2="86.6663" y2="10" gradientUnits="userSpaceOnUse">
<stop stop-color="#D3E6F5"/>
<stop offset="1" stop-color="#F0F7FC"/>
</linearGradient>
<linearGradient id="paint4_linear_707_750" x1="16.666" y1="36.6667" x2="29.9993" y2="36.6667" gradientUnits="userSpaceOnUse">
<stop stop-color="#D3E6F5"/>
<stop offset="1" stop-color="#F0F7FC"/>
</linearGradient>
<linearGradient id="paint5_linear_707_750" x1="-0.000323772" y1="63.3334" x2="3.33301" y2="63.3334" gradientUnits="userSpaceOnUse">
<stop stop-color="#D3E6F5"/>
<stop offset="1" stop-color="#F0F7FC"/>
</linearGradient>
<linearGradient id="paint6_linear_707_750" x1="130" y1="36.6667" x2="143.333" y2="36.6667" gradientUnits="userSpaceOnUse">
<stop stop-color="#D3E6F5"/>
<stop offset="1" stop-color="#F0F7FC"/>
</linearGradient>
<linearGradient id="paint7_linear_707_750" x1="-0.000323772" y1="126.667" x2="3.33301" y2="126.667" gradientUnits="userSpaceOnUse">
<stop stop-color="#D3E6F5"/>
<stop offset="1" stop-color="#F0F7FC"/>
</linearGradient>
<linearGradient id="paint8_linear_707_750" x1="130" y1="100" x2="143.333" y2="100" gradientUnits="userSpaceOnUse">
<stop stop-color="#D3E6F5"/>
<stop offset="1" stop-color="#F0F7FC"/>
</linearGradient>
<linearGradient id="paint9_linear_707_750" x1="16.666" y1="100" x2="29.9993" y2="100" gradientUnits="userSpaceOnUse">
<stop stop-color="#D3E6F5"/>
<stop offset="1" stop-color="#F0F7FC"/>
</linearGradient>
</defs>
</svg>
