<svg width="160" height="160" viewBox="0 0 160 160" fill="none" xmlns="http://www.w3.org/2000/svg">
<path d="M69.7926 15.2903C69.6013 11.24 67.042 7.39658 62.0185 4.49627C50.4829 -2.16373 30.3332 -1.32842 17.0129 6.36189C9.79945 10.5266 6.07633 15.8469 6.0032 20.9085L5.99414 20.9094V105.769L6.0032 105.768C6.14477 109.867 8.70383 113.762 13.782 116.694C25.3176 123.354 45.4673 122.519 58.7876 114.828C65.9941 110.667 69.7176 105.353 69.7973 100.296L69.8067 100.295V15.2891L69.7926 15.2903Z" fill="url(#paint0_linear_707_474)"/>
<path d="M13.7818 32.346C2.24618 25.6856 3.69305 14.0522 17.0131 6.36189C30.3334 -1.32842 50.4831 -2.16373 62.0187 4.49627C73.5543 11.1563 72.1077 22.7897 58.7874 30.4803C45.4671 38.1706 25.3174 39.006 13.7818 32.346Z" fill="url(#paint1_linear_707_474)"/>
<path d="M98.9804 15.9137L54.9067 41.3596C52.0223 43.0249 50.2451 46.1027 50.2451 49.4333V102.422C50.2451 105.753 52.022 108.831 54.9067 110.496L98.9801 135.942C101.864 137.607 105.419 137.607 108.303 135.942L152.376 110.496C155.261 108.831 157.038 105.753 157.038 102.422V49.4333C157.038 46.1027 155.261 43.0249 152.376 41.3596L108.303 15.9137C105.419 14.2483 101.865 14.2483 98.9804 15.9137Z" fill="#F7E041"/>
<path d="M54.9567 41.3309L54.9067 41.3597C52.0223 43.025 50.2451 46.1028 50.2451 49.4334V65.7603L96.9235 134.755L98.9801 135.942C101.864 137.607 105.419 137.607 108.303 135.942L114.392 132.426L54.9567 41.3309Z" fill="url(#paint2_linear_707_474)"/>
<path d="M151.943 46.9928L106.478 73.2418C104.723 74.2553 103.642 76.1281 103.642 78.1547V132.75C103.642 135.365 106.472 136.999 108.737 135.692L154.202 109.442C155.957 108.429 157.038 106.556 157.038 104.53V49.9343C157.038 47.3196 154.208 45.6853 151.943 46.9928Z" fill="url(#paint3_linear_707_474)"/>
<path d="M55.3407 46.9928L100.805 73.2418C102.56 74.2553 103.642 76.1281 103.642 78.1547V132.75C103.642 135.365 100.811 136.999 98.5464 135.692L53.0817 109.442C51.3264 108.429 50.2451 106.556 50.2451 104.53V49.9343C50.2454 47.3196 53.0761 45.6853 55.3407 46.9928Z" fill="url(#paint4_linear_707_474)"/>
<path d="M54.2879 41.7171L99.8975 15.3843C102.214 14.0465 105.069 14.0465 107.386 15.3843L152.996 41.7171C154.792 42.7543 154.792 45.3478 152.996 46.385L107.386 72.7178C105.069 74.0556 102.214 74.0556 99.8975 72.7178L54.2879 46.385C52.4913 45.3475 52.4913 42.7543 54.2879 41.7171Z" fill="url(#paint5_linear_707_474)"/>
<path d="M2.96289 141.557L2.97352 141.556C3.14289 146.457 6.20352 151.116 12.2766 154.623C26.0729 162.588 50.1707 161.589 66.101 152.391C74.7201 147.415 79.1726 141.06 79.2682 135.012L79.2791 135.011L41.121 53.9106L2.96289 141.557Z" fill="url(#paint6_linear_707_474)"/>
<defs>
<linearGradient id="paint0_linear_707_474" x1="5.99414" y1="60.595" x2="69.8063" y2="60.595" gradientUnits="userSpaceOnUse">
<stop stop-color="#AB2C37"/>
<stop offset="0.0559" stop-color="#B9313C"/>
<stop offset="0.1968" stop-color="#D83A48"/>
<stop offset="0.335" stop-color="#ED4150"/>
<stop offset="0.4678" stop-color="#FB4655"/>
<stop offset="0.5892" stop-color="#FF4757"/>
<stop offset="1" stop-color="#AB2C37"/>
</linearGradient>
<linearGradient id="paint1_linear_707_474" x1="1.34618" y1="-4.03717" x2="59.319" y2="31.58" gradientUnits="userSpaceOnUse">
<stop stop-color="#FF4757"/>
<stop offset="1" stop-color="#FF7A85"/>
</linearGradient>
<linearGradient id="paint2_linear_707_474" x1="82.3189" y1="134.623" x2="82.3189" y2="9.32468" gradientUnits="userSpaceOnUse">
<stop stop-color="#E37A34"/>
<stop offset="1" stop-color="#F7E041"/>
</linearGradient>
<linearGradient id="paint3_linear_707_474" x1="130.34" y1="163.423" x2="130.34" y2="81.2675" gradientUnits="userSpaceOnUse">
<stop stop-color="#E37A34"/>
<stop offset="1" stop-color="#F7E041"/>
</linearGradient>
<linearGradient id="paint4_linear_707_474" x1="76.9436" y1="134.623" x2="76.9436" y2="9.32433" gradientUnits="userSpaceOnUse">
<stop stop-color="#E37A34"/>
<stop offset="1" stop-color="#F7E041"/>
</linearGradient>
<linearGradient id="paint5_linear_707_474" x1="84.2" y1="60.2934" x2="139.568" y2="14.0371" gradientUnits="userSpaceOnUse">
<stop stop-color="#FFC538"/>
<stop offset="1" stop-color="#FCF3B3"/>
</linearGradient>
<linearGradient id="paint6_linear_707_474" x1="9.71633" y1="106.955" x2="52.9932" y2="106.955" gradientUnits="userSpaceOnUse">
<stop stop-color="#0072BC"/>
<stop offset="1" stop-color="#59ACF9"/>
</linearGradient>
</defs>
</svg>
