<svg width="160" height="160" viewBox="0 0 160 160" fill="none" xmlns="http://www.w3.org/2000/svg">
<path d="M76.6663 43.3334C100.599 43.3334 120 34.3791 120 23.3334C120 12.2877 100.599 3.33337 76.6663 3.33337C52.734 3.33337 33.333 12.2877 33.333 23.3334C33.333 34.3791 52.734 43.3334 76.6663 43.3334Z" fill="#8AD3FE"/>
<path d="M120 23.3334V126.667C120 137.7 100.6 146.667 76.6663 146.667C52.733 146.667 33.333 137.7 33.333 126.667V23.3334C33.333 34.3667 52.733 43.3334 76.6663 43.3334C100.6 43.3334 120 34.3667 120 23.3334Z" fill="url(#paint0_linear_707_722)"/>
<path d="M76.6663 146.667C100.599 146.667 120 137.712 120 126.667C120 115.621 100.599 106.667 76.6663 106.667C52.734 106.667 33.333 115.621 33.333 126.667C33.333 137.712 52.734 146.667 76.6663 146.667Z" fill="#54A5FF"/>
<path d="M148.433 139.5C119.667 157.5 121.4 156.667 120 156.667V93.3334C120.54 93.3251 121.074 93.4482 121.556 93.6921C122.038 93.936 122.453 94.2933 122.767 94.7334L149.433 134.733C149.696 135.107 149.879 135.531 149.971 135.978C150.063 136.425 150.062 136.887 149.968 137.334C149.874 137.781 149.69 138.204 149.426 138.576C149.162 138.949 148.824 139.263 148.433 139.5Z" fill="url(#paint1_linear_707_722)"/>
<path d="M120 93.3334V156.667C118.6 156.667 120.5 157.6 91.5664 139.5C91.19 139.263 90.8648 138.953 90.61 138.589C90.3552 138.224 90.176 137.812 90.0828 137.377C89.9896 136.943 89.9844 136.493 90.0674 136.057C90.1505 135.62 90.3201 135.204 90.5664 134.833L117.233 94.8334C117.535 94.3748 117.946 93.998 118.428 93.7363C118.911 93.4746 119.451 93.3362 120 93.3334Z" fill="url(#paint2_linear_707_722)"/>
<path d="M56.6667 63.3333L33.3333 76.6667L10 63.3333L33.3333 50L56.6667 63.3333Z" fill="url(#paint3_linear_707_722)"/>
<path d="M10 63.3334V90L33.3333 103.333V76.6667L10 63.3334Z" fill="url(#paint4_linear_707_722)"/>
<path d="M56.6663 63.3334V90L33.333 103.333V76.6667L56.6663 63.3334Z" fill="url(#paint5_linear_707_722)"/>
<path d="M136.666 76.6668C138.507 76.6668 140 75.1744 140 73.3335C140 71.4925 138.507 70.0001 136.666 70.0001C134.825 70.0001 133.333 71.4925 133.333 73.3335C133.333 75.1744 134.825 76.6668 136.666 76.6668Z" fill="#FFB369"/>
<path d="M26.6663 153.333C28.5073 153.333 29.9997 151.841 29.9997 150C29.9997 148.159 28.5073 146.667 26.6663 146.667C24.8254 146.667 23.333 148.159 23.333 150C23.333 151.841 24.8254 153.333 26.6663 153.333Z" fill="#FFB369"/>
<path d="M13.3333 33.3334C15.1743 33.3334 16.6667 31.841 16.6667 30.0001C16.6667 28.1591 15.1743 26.6667 13.3333 26.6667C11.4924 26.6667 10 28.1591 10 30.0001C10 31.841 11.4924 33.3334 13.3333 33.3334Z" fill="#FFB369"/>
<defs>
<linearGradient id="paint0_linear_707_722" x1="33.333" y1="85" x2="120" y2="85" gradientUnits="userSpaceOnUse">
<stop stop-color="#54A5FF"/>
<stop offset="1" stop-color="#8AD3FE"/>
</linearGradient>
<linearGradient id="paint1_linear_707_722" x1="120" y1="125.067" x2="150" y2="125.067" gradientUnits="userSpaceOnUse">
<stop stop-color="#FE9661"/>
<stop offset="1" stop-color="#FFB369"/>
</linearGradient>
<linearGradient id="paint2_linear_707_722" x1="89.9997" y1="125.067" x2="120" y2="125.067" gradientUnits="userSpaceOnUse">
<stop stop-color="#FE9661"/>
<stop offset="1" stop-color="#FFB369"/>
</linearGradient>
<linearGradient id="paint3_linear_707_722" x1="56.6667" y1="63.3333" x2="10" y2="63.3333" gradientUnits="userSpaceOnUse">
<stop stop-color="#D3E6F5"/>
<stop offset="1" stop-color="#F0F7FC"/>
</linearGradient>
<linearGradient id="paint4_linear_707_722" x1="33.3333" y1="83.3334" x2="10" y2="83.3334" gradientUnits="userSpaceOnUse">
<stop stop-color="#D3E6F5"/>
<stop offset="1" stop-color="#F0F7FC"/>
</linearGradient>
<linearGradient id="paint5_linear_707_722" x1="56.6663" y1="83.3334" x2="33.333" y2="83.3334" gradientUnits="userSpaceOnUse">
<stop stop-color="#D3E6F5"/>
<stop offset="1" stop-color="#F0F7FC"/>
</linearGradient>
</defs>
</svg>
