<svg width="116" height="40" viewBox="0 0 116 40" fill="none" xmlns="http://www.w3.org/2000/svg">
<path d="M4.47078 3.29337C4.70194 2.19033 3.98221 1.11141 2.86322 0.883548C1.74423 0.655686 0.649706 1.36517 0.418549 2.46821C0.187391 3.57125 0.90713 4.65017 2.02612 4.87804C3.14512 5.1059 4.23962 4.39642 4.47078 3.29337Z" fill="#CED5DD"/>
<path d="M4.47078 12.0624C4.70194 10.9594 3.98221 9.88045 2.86322 9.65259C1.74423 9.42473 0.649706 10.1342 0.418549 11.2373C0.187391 12.3403 0.90713 13.4192 2.02612 13.6471C3.14512 13.8749 4.23962 13.1655 4.47078 12.0624Z" fill="#CED5DD"/>
<path d="M4.47078 20.8315C4.70194 19.7284 3.98221 18.6495 2.86322 18.4216C1.74423 18.1938 0.649706 18.9033 0.418549 20.0063C0.187391 21.1093 0.90713 22.1883 2.02612 22.4161C3.14512 22.644 4.23962 21.9345 4.47078 20.8315Z" fill="#CED5DD"/>
<path d="M2.46446 31.2304C3.6071 31.2304 4.53341 30.3173 4.53341 29.191C4.53341 28.0646 3.6071 27.1515 2.46446 27.1515C1.32181 27.1515 0.395508 28.0646 0.395508 29.191C0.395508 30.3173 1.32181 31.2304 2.46446 31.2304Z" fill="#CED5DD"/>
<path d="M2.46446 39.9999C3.6071 39.9999 4.53341 39.0868 4.53341 37.9605C4.53341 36.8341 3.6071 35.921 2.46446 35.921C1.32181 35.921 0.395508 36.8341 0.395508 37.9605C0.395508 39.0868 1.32181 39.9999 2.46446 39.9999Z" fill="#CED5DD"/>
<path d="M15.6359 2.88236C15.6359 4.00859 14.7098 4.9218 13.567 4.9218C12.4242 4.9218 11.498 4.00885 11.498 2.88236C11.498 1.75612 12.4242 0.842896 13.567 0.842896C14.7098 0.842896 15.6359 1.75612 15.6359 2.88236Z" fill="#CED5DD"/>
<path d="M15.6359 11.652C15.6359 12.7782 14.7098 13.6915 13.567 13.6915C12.4242 13.6915 11.498 12.7785 11.498 11.652C11.498 10.5255 12.4242 9.61255 13.567 9.61255C14.7098 9.61255 15.6359 10.5255 15.6359 11.652Z" fill="#CED5DD"/>
<path d="M15.6359 20.4213C15.6359 21.5475 14.7098 22.4607 13.567 22.4607C12.4242 22.4607 11.498 21.5478 11.498 20.4213C11.498 19.2951 12.4242 18.3818 13.567 18.3818C14.7098 18.3818 15.6359 19.2951 15.6359 20.4213Z" fill="#CED5DD"/>
<path d="M15.6359 29.191C15.6359 30.3172 14.7098 31.2304 13.567 31.2304C12.4242 31.2304 11.498 30.3174 11.498 29.191C11.498 28.0645 12.4242 27.1515 13.567 27.1515C14.7098 27.1515 15.6359 28.0645 15.6359 29.191Z" fill="#CED5DD"/>
<path d="M15.6359 37.9605C15.6359 39.0867 14.7098 39.9999 13.567 39.9999C12.4242 39.9999 11.498 39.087 11.498 37.9605C11.498 36.834 12.4242 35.921 13.567 35.921C14.7098 35.921 15.6359 36.834 15.6359 37.9605Z" fill="#CED5DD"/>
<path d="M26.427 3.98255C27.0318 3.02694 26.7362 1.76897 25.7668 1.17279C24.7973 0.576606 23.5212 0.867977 22.9164 1.82358C22.3116 2.77918 22.6072 4.03714 23.5766 4.63332C24.546 5.2295 25.8221 4.93815 26.427 3.98255Z" fill="#CED5DD"/>
<path d="M26.426 12.7522C27.0308 11.7966 26.7352 10.5386 25.7658 9.94244C24.7964 9.34626 23.5202 9.63763 22.9154 10.5932C22.3106 11.5488 22.6062 12.8068 23.5756 13.403C24.545 13.9992 25.8212 13.7078 26.426 12.7522Z" fill="#CED5DD"/>
<path d="M26.426 21.5219C27.0308 20.5662 26.7352 19.3083 25.7658 18.7121C24.7964 18.1159 23.5202 18.4073 22.9154 19.3629C22.3106 20.3185 22.6062 21.5764 23.5756 22.1726C24.545 22.7688 25.8212 22.4775 26.426 21.5219Z" fill="#CED5DD"/>
<path d="M24.6705 31.2304C25.8131 31.2304 26.7394 30.3173 26.7394 29.191C26.7394 28.0646 25.8131 27.1515 24.6705 27.1515C23.5278 27.1515 22.6016 28.0646 22.6016 29.191C22.6016 30.3173 23.5278 31.2304 24.6705 31.2304Z" fill="#CED5DD"/>
<path d="M24.6705 39.9999C25.8131 39.9999 26.7394 39.0868 26.7394 37.9605C26.7394 36.8341 25.8131 35.921 24.6705 35.921C23.5278 35.921 22.6016 36.8341 22.6016 37.9605C22.6016 39.0868 23.5278 39.9999 24.6705 39.9999Z" fill="#CED5DD"/>
<path d="M37.8242 3.2066C38.0072 2.09477 37.2413 1.04717 36.1134 0.866732C34.9854 0.686289 33.9227 1.44133 33.7396 2.55316C33.5566 3.66499 34.3226 4.71256 35.4505 4.89301C36.5784 5.07345 37.6411 4.31843 37.8242 3.2066Z" fill="#CED5DD"/>
<path d="M37.8251 11.9764C38.0082 10.8645 37.2422 9.81695 36.1143 9.63651C34.9864 9.45606 33.9237 10.2111 33.7406 11.3229C33.5576 12.4348 34.3235 13.4823 35.4514 13.6628C36.5793 13.8432 37.6421 13.0882 37.8251 11.9764Z" fill="#CED5DD"/>
<path d="M37.8251 20.7459C38.0082 19.6341 37.2422 18.5865 36.1143 18.406C34.9864 18.2256 33.9237 18.9806 33.7406 20.0925C33.5576 21.2043 34.3235 22.2519 35.4514 22.4323C36.5793 22.6128 37.6421 21.8577 37.8251 20.7459Z" fill="#CED5DD"/>
<path d="M35.773 31.2304C36.9157 31.2304 37.842 30.3173 37.842 29.191C37.842 28.0646 36.9157 27.1515 35.773 27.1515C34.6304 27.1515 33.7041 28.0646 33.7041 29.191C33.7041 30.3173 34.6304 31.2304 35.773 31.2304Z" fill="#CED5DD"/>
<path d="M35.773 39.9999C36.9157 39.9999 37.842 39.0868 37.842 37.9605C37.842 36.8341 36.9157 35.921 35.773 35.921C34.6304 35.921 33.7041 36.8341 33.7041 37.9605C33.7041 39.0868 34.6304 39.9999 35.773 39.9999Z" fill="#CED5DD"/>
<path d="M48.9018 3.37648C49.1644 2.28031 48.4758 1.18185 47.3638 0.923011C46.2518 0.664174 45.1374 1.34297 44.8749 2.43915C44.6123 3.53532 45.3009 4.63378 46.4129 4.89262C47.5249 5.15146 48.6393 4.47265 48.9018 3.37648Z" fill="#CED5DD"/>
<path d="M48.9018 12.1464C49.1644 11.0502 48.4758 9.95175 47.3638 9.69291C46.2518 9.43407 45.1374 10.1129 44.8749 11.209C44.6123 12.3052 45.3009 13.4037 46.4129 13.6625C47.5249 13.9214 48.6393 13.2425 48.9018 12.1464Z" fill="#CED5DD"/>
<path d="M48.9009 20.9163C49.1635 19.8201 48.4749 18.7216 47.3628 18.4628C46.2508 18.204 45.1365 18.8828 44.8739 19.9789C44.6113 21.0751 45.2999 22.1736 46.4119 22.4324C47.524 22.6913 48.6383 22.0124 48.9009 20.9163Z" fill="#CED5DD"/>
<path d="M46.8766 31.2304C48.0192 31.2304 48.9455 30.3173 48.9455 29.191C48.9455 28.0646 48.0192 27.1515 46.8766 27.1515C45.7339 27.1515 44.8076 28.0646 44.8076 29.191C44.8076 30.3173 45.7339 31.2304 46.8766 31.2304Z" fill="#CED5DD"/>
<path d="M46.8766 39.9999C48.0192 39.9999 48.9455 39.0868 48.9455 37.9605C48.9455 36.8341 48.0192 35.921 46.8766 35.921C45.7339 35.921 44.8076 36.8341 44.8076 37.9605C44.8076 39.0868 45.7339 39.9999 46.8766 39.9999Z" fill="#CED5DD"/>
<path d="M59.4396 4.32637C60.2476 3.52992 60.2476 2.23862 59.4396 1.44217C58.6317 0.645725 57.3217 0.645725 56.5137 1.44217C55.7058 2.23862 55.7058 3.52993 56.5137 4.32638C57.3217 5.12283 58.6317 5.12282 59.4396 4.32637Z" fill="#CED5DD"/>
<path d="M59.4396 13.0959C60.2476 12.2995 60.2476 11.0082 59.4396 10.2117C58.6317 9.41526 57.3217 9.41526 56.5137 10.2117C55.7058 11.0082 55.7058 12.2995 56.5137 13.0959C57.3217 13.8924 58.6317 13.8923 59.4396 13.0959Z" fill="#CED5DD"/>
<path d="M59.4396 21.8651C60.2476 21.0686 60.2476 19.7773 59.4396 18.9809C58.6317 18.1844 57.3217 18.1844 56.5137 18.9809C55.7058 19.7773 55.7058 21.0686 56.5137 21.8651C57.3217 22.6615 58.6317 22.6615 59.4396 21.8651Z" fill="#CED5DD"/>
<path d="M57.9801 31.2304C59.1227 31.2304 60.049 30.3173 60.049 29.191C60.049 28.0646 59.1227 27.1515 57.9801 27.1515C56.8374 27.1515 55.9111 28.0646 55.9111 29.191C55.9111 30.3173 56.8374 31.2304 57.9801 31.2304Z" fill="#CED5DD"/>
<path d="M57.9801 39.9999C59.1227 39.9999 60.049 39.0868 60.049 37.9605C60.049 36.8341 59.1227 35.921 57.9801 35.921C56.8374 35.921 55.9111 36.8341 55.9111 37.9605C55.9111 39.0868 56.8374 39.9999 57.9801 39.9999Z" fill="#CED5DD"/>
<path d="M71.1347 3.20596C71.3178 2.09413 70.5518 1.04653 69.4239 0.866091C68.296 0.685648 67.2332 1.44069 67.0502 2.55252C66.8671 3.66435 67.6331 4.71195 68.761 4.8924C69.8889 5.07284 70.9517 4.31779 71.1347 3.20596Z" fill="#CED5DD"/>
<path d="M71.1357 11.9757C71.3187 10.8639 70.5528 9.81631 69.4249 9.63587C68.297 9.45542 67.2342 10.2105 67.0512 11.3223C66.8681 12.4341 67.6341 13.4817 68.762 13.6622C69.8899 13.8426 70.9526 13.0876 71.1357 11.9757Z" fill="#CED5DD"/>
<path d="M71.1347 20.7453C71.3178 19.6334 70.5518 18.5858 69.4239 18.4054C68.296 18.225 67.2332 18.98 67.0502 20.0918C66.8671 21.2037 67.6331 22.2513 68.761 22.4317C69.8889 22.6121 70.9517 21.8571 71.1347 20.7453Z" fill="#CED5DD"/>
<path d="M69.0826 31.2304C70.2253 31.2304 71.1516 30.3173 71.1516 29.191C71.1516 28.0646 70.2253 27.1515 69.0826 27.1515C67.94 27.1515 67.0137 28.0646 67.0137 29.191C67.0137 30.3173 67.94 31.2304 69.0826 31.2304Z" fill="#CED5DD"/>
<path d="M69.0826 39.9999C70.2253 39.9999 71.1516 39.0868 71.1516 37.9605C71.1516 36.8341 70.2253 35.921 69.0826 35.921C67.94 35.921 67.0137 36.8341 67.0137 37.9605C67.0137 39.0868 67.94 39.9999 69.0826 39.9999Z" fill="#CED5DD"/>
<path d="M82.2134 3.3781C82.4759 2.28192 81.7873 1.18347 80.6753 0.924628C79.5633 0.665791 78.449 1.34459 78.1864 2.44076C77.9238 3.53694 78.6124 4.63537 79.7244 4.89421C80.8365 5.15304 81.9508 4.47427 82.2134 3.3781Z" fill="#CED5DD"/>
<path d="M82.2134 12.148C82.4759 11.0518 81.7873 9.95336 80.6753 9.69453C79.5633 9.43569 78.449 10.1145 78.1864 11.2107C77.9238 12.3068 78.6124 13.4053 79.7244 13.6641C80.8365 13.9229 81.9508 13.2442 82.2134 12.148Z" fill="#CED5DD"/>
<path d="M82.2124 20.9179C82.475 19.8217 81.7864 18.7233 80.6743 18.4644C79.5623 18.2056 78.448 18.8844 78.1854 19.9806C77.9228 21.0767 78.6114 22.1752 79.7235 22.434C80.8355 22.6928 81.9498 22.0141 82.2124 20.9179Z" fill="#CED5DD"/>
<path d="M80.1861 31.2304C81.3288 31.2304 82.2551 30.3173 82.2551 29.191C82.2551 28.0646 81.3288 27.1515 80.1861 27.1515C79.0435 27.1515 78.1172 28.0646 78.1172 29.191C78.1172 30.3173 79.0435 31.2304 80.1861 31.2304Z" fill="#CED5DD"/>
<path d="M80.1861 39.9999C81.3288 39.9999 82.2551 39.0868 82.2551 37.9605C82.2551 36.8341 81.3288 35.921 80.1861 35.921C79.0435 35.921 78.1172 36.8341 78.1172 37.9605C78.1172 39.0868 79.0435 39.9999 80.1861 39.9999Z" fill="#CED5DD"/>
<path d="M92.7492 4.32649C93.5572 3.53004 93.5572 2.23877 92.7492 1.44232C91.9412 0.64587 90.6313 0.645848 89.8233 1.4423C89.0153 2.23875 89.0153 3.53005 89.8233 4.3265C90.6313 5.12295 91.9412 5.12294 92.7492 4.32649Z" fill="#CED5DD"/>
<path d="M92.7492 13.096C93.5572 12.2996 93.5572 11.0083 92.7492 10.2118C91.9412 9.4154 90.6313 9.41538 89.8233 10.2118C89.0153 11.0083 89.0153 12.2996 89.8233 13.096C90.6313 13.8925 91.9412 13.8925 92.7492 13.096Z" fill="#CED5DD"/>
<path d="M92.7482 21.8653C93.5562 21.0689 93.5562 19.7776 92.7482 18.9811C91.9403 18.1847 90.6303 18.1847 89.8223 18.9811C89.0144 19.7776 89.0144 21.0689 89.8223 21.8653C90.6303 22.6618 91.9403 22.6618 92.7482 21.8653Z" fill="#CED5DD"/>
<path d="M91.2897 31.2304C92.4323 31.2304 93.3586 30.3173 93.3586 29.191C93.3586 28.0646 92.4323 27.1515 91.2897 27.1515C90.147 27.1515 89.2207 28.0646 89.2207 29.191C89.2207 30.3173 90.147 31.2304 91.2897 31.2304Z" fill="#CED5DD"/>
<path d="M91.2897 39.9999C92.4323 39.9999 93.3586 39.0868 93.3586 37.9605C93.3586 36.8341 92.4323 35.921 91.2897 35.921C90.147 35.921 89.2207 36.8341 89.2207 37.9605C89.2207 39.0868 90.147 39.9999 91.2897 39.9999Z" fill="#CED5DD"/>
<path d="M104.444 3.2056C104.627 2.09377 103.861 1.0462 102.733 0.865755C101.606 0.685313 100.543 1.44033 100.36 2.55216C100.177 3.66398 100.943 4.71159 102.071 4.89203C103.198 5.07247 104.261 4.31743 104.444 3.2056Z" fill="#CED5DD"/>
<path d="M104.445 11.9754C104.628 10.8635 103.862 9.81597 102.734 9.63553C101.607 9.45509 100.544 10.2101 100.361 11.3219C100.178 12.4338 100.944 13.4814 102.072 13.6618C103.199 13.8422 104.262 13.0872 104.445 11.9754Z" fill="#CED5DD"/>
<path d="M104.444 20.745C104.627 19.6332 103.861 18.5856 102.733 18.4052C101.606 18.2247 100.543 18.9798 100.36 20.0916C100.177 21.2034 100.943 22.251 102.071 22.4315C103.198 22.6119 104.261 21.8569 104.444 20.745Z" fill="#CED5DD"/>
<path d="M102.392 31.2304C103.535 31.2304 104.461 30.3173 104.461 29.191C104.461 28.0646 103.535 27.1515 102.392 27.1515C101.25 27.1515 100.323 28.0646 100.323 29.191C100.323 30.3173 101.25 31.2304 102.392 31.2304Z" fill="#CED5DD"/>
<path d="M102.392 39.9999C103.535 39.9999 104.461 39.0868 104.461 37.9605C104.461 36.8341 103.535 35.921 102.392 35.921C101.25 35.921 100.323 36.8341 100.323 37.9605C100.323 39.0868 101.25 39.9999 102.392 39.9999Z" fill="#CED5DD"/>
<path d="M115.525 3.37965C115.787 2.28348 115.099 1.18502 113.987 0.926185C112.875 0.667348 111.76 1.34615 111.498 2.44232C111.235 3.53849 111.924 4.63695 113.036 4.89579C114.148 5.15463 115.262 4.47583 115.525 3.37965Z" fill="#CED5DD"/>
<path d="M115.524 12.1497C115.786 11.0535 115.098 9.95504 113.986 9.6962C112.874 9.43737 111.76 10.1162 111.497 11.2123C111.234 12.3085 111.923 13.407 113.035 13.6658C114.147 13.9246 115.261 13.2458 115.524 12.1497Z" fill="#CED5DD"/>
<path d="M115.523 20.9196C115.786 19.8234 115.097 18.7249 113.985 18.4661C112.873 18.2073 111.759 18.8861 111.496 19.9822C111.233 21.0784 111.922 22.1769 113.034 22.4357C114.146 22.6945 115.26 22.0157 115.523 20.9196Z" fill="#CED5DD"/>
<path d="M113.495 31.2304C114.637 31.2304 115.564 30.3173 115.564 29.191C115.564 28.0646 114.637 27.1515 113.495 27.1515C112.352 27.1515 111.426 28.0646 111.426 29.191C111.426 30.3173 112.352 31.2304 113.495 31.2304Z" fill="#CED5DD"/>
<path d="M113.495 39.9999C114.637 39.9999 115.564 39.0868 115.564 37.9605C115.564 36.8341 114.637 35.921 113.495 35.921C112.352 35.921 111.426 36.8341 111.426 37.9605C111.426 39.0868 112.352 39.9999 113.495 39.9999Z" fill="#CED5DD"/>
</svg>
