<svg width="92" height="180" viewBox="0 0 92 180" fill="none" xmlns="http://www.w3.org/2000/svg">
<path d="M15 0L15 145L92 145L92 -3.36578e-06L15 0Z" fill="#FDD600"/>
<path d="M8.63389 173.755C7.85248 171.868 5.68974 170.972 3.80327 171.754C1.91681 172.535 1.02099 174.698 1.80241 176.584C2.58382 178.471 4.74657 179.367 6.63303 178.585C8.51949 177.804 9.41531 175.641 8.63389 173.755Z" fill="#0C2D57"/>
<path d="M21.7102 171.524C19.6947 171.197 17.7956 172.566 17.4685 174.581C17.1414 176.597 18.5101 178.496 20.5257 178.823C22.5412 179.15 24.4402 177.781 24.7673 175.766C25.0944 173.75 23.7257 171.851 21.7102 171.524Z" fill="#0C2D57"/>
<path d="M40.716 175.193C40.716 173.151 39.0607 171.496 37.0189 171.496C34.977 171.496 33.3218 173.151 33.3218 175.193C33.3218 177.235 34.977 178.89 37.0189 178.89C39.0607 178.89 40.716 177.235 40.716 175.193Z" fill="#0C2D57"/>
<path d="M56.3253 173.754C55.5439 171.867 53.3811 170.971 51.4947 171.753C49.6082 172.534 48.7124 174.697 49.4938 176.583C50.2752 178.47 52.438 179.366 54.3244 178.584C56.2109 177.803 57.1067 175.64 56.3253 173.754Z" fill="#0C2D57"/>
<path d="M69.4018 171.523C67.3863 171.196 65.4873 172.565 65.1602 174.58C64.8331 176.596 66.2018 178.495 68.2173 178.822C70.2328 179.149 72.1319 177.781 72.459 175.765C72.7861 173.75 71.4174 171.85 69.4018 171.523Z" fill="#0C2D57"/>
<path d="M7.84273 152.747C6.39894 151.303 4.05809 151.303 2.6143 152.747C1.17051 154.191 1.17051 156.531 2.6143 157.975C4.05809 159.419 6.39894 159.419 7.84273 157.975C9.28652 156.531 9.28652 154.191 7.84273 152.747Z" fill="#0C2D57"/>
<path d="M22.0316 151.733C20.0445 151.264 18.0532 152.494 17.584 154.482C17.1148 156.469 18.3453 158.46 20.3324 158.929C22.3195 159.398 24.3108 158.168 24.78 156.181C25.2492 154.194 24.0187 152.202 22.0316 151.733Z" fill="#0C2D57"/>
<path d="M40.716 155.353C40.716 153.311 39.0607 151.656 37.0189 151.656C34.977 151.656 33.3218 153.311 33.3218 155.353C33.3218 157.394 34.977 159.05 37.0189 159.05C39.0607 159.05 40.716 157.394 40.716 155.353Z" fill="#0C2D57"/>
<path d="M55.5329 152.747C54.0891 151.303 51.7483 151.303 50.3045 152.747C48.8607 154.191 48.8607 156.532 50.3045 157.976C51.7483 159.419 54.0891 159.419 55.5329 157.976C56.9767 156.532 56.9767 154.191 55.5329 152.747Z" fill="#0C2D57"/>
<path d="M69.7247 151.736C67.7376 151.267 65.7463 152.497 65.2771 154.484C64.8079 156.471 66.0384 158.463 68.0255 158.932C70.0127 159.401 72.0039 158.17 72.4731 156.183C72.9423 154.196 71.7118 152.205 69.7247 151.736Z" fill="#0C2D57"/>
<path d="M7.84297 132.907C6.39918 131.463 4.05834 131.463 2.61455 132.907C1.17076 134.35 1.17076 136.691 2.61455 138.135C4.05834 139.579 6.39918 139.579 7.84297 138.135C9.28676 136.691 9.28676 134.35 7.84297 132.907Z" fill="#0C2D57"/>
<path d="M22.0326 131.892C20.0454 131.423 18.0542 132.653 17.585 134.641C17.1158 136.628 18.3463 138.619 20.3334 139.088C22.3205 139.557 24.3118 138.327 24.781 136.34C25.2502 134.353 24.0197 132.361 22.0326 131.892Z" fill="#0C2D57"/>
<path d="M40.716 135.512C40.716 133.471 39.0607 131.815 37.0189 131.815C34.977 131.815 33.3218 133.471 33.3218 135.512C33.3218 137.554 34.977 139.209 37.0189 139.209C39.0607 139.209 40.716 137.554 40.716 135.512Z" fill="#0C2D57"/>
<path d="M55.5332 132.907C54.0894 131.463 51.7485 131.463 50.3047 132.907C48.8609 134.351 48.8609 136.692 50.3047 138.135C51.7485 139.579 54.0894 139.579 55.5332 138.135C56.9769 136.692 56.9769 134.351 55.5332 132.907Z" fill="#0C2D57"/>
<path d="M69.7254 131.895C67.7383 131.425 65.7471 132.656 65.2778 134.643C64.8086 136.63 66.0391 138.621 68.0263 139.091C70.0134 139.56 72.0046 138.329 72.4739 136.342C72.9431 134.355 71.7126 132.364 69.7254 131.895Z" fill="#0C2D57"/>
<path d="M7.84297 113.066C6.39918 111.623 4.05834 111.623 2.61455 113.066C1.17076 114.51 1.17076 116.851 2.61455 118.295C4.05834 119.739 6.39918 119.739 7.84297 118.295C9.28676 116.851 9.28676 114.51 7.84297 113.066Z" fill="#0C2D57"/>
<path d="M22.0333 112.051C20.0462 111.582 18.0549 112.812 17.5857 114.799C17.1165 116.786 18.347 118.778 20.3341 119.247C22.3212 119.716 24.3125 118.486 24.7817 116.498C25.2509 114.511 24.0204 112.52 22.0333 112.051Z" fill="#0C2D57"/>
<path d="M40.716 115.672C40.716 113.63 39.0607 111.975 37.0189 111.975C34.977 111.975 33.3218 113.63 33.3218 115.672C33.3218 117.714 34.977 119.369 37.0189 119.369C39.0607 119.369 40.716 117.714 40.716 115.672Z" fill="#0C2D57"/>
<path d="M55.5334 113.067C54.0896 111.623 51.7488 111.623 50.305 113.067C48.8612 114.511 48.8612 116.851 50.305 118.295C51.7488 119.739 54.0896 119.739 55.5334 118.295C56.9772 116.851 56.9772 114.511 55.5334 113.067Z" fill="#0C2D57"/>
<path d="M69.7264 112.053C67.7393 111.584 65.748 112.815 65.2788 114.802C64.8096 116.789 66.0401 118.78 68.0272 119.249C70.0144 119.719 72.0056 118.488 72.4748 116.501C72.9441 114.514 71.7135 112.523 69.7264 112.053Z" fill="#0C2D57"/>
<path d="M7.84322 93.2263C6.39943 91.7825 4.05858 91.7825 2.61479 93.2263C1.171 94.6701 1.171 97.011 2.61479 98.4548C4.05858 99.8985 6.39943 99.8985 7.84322 98.4548C9.28701 97.011 9.28701 94.6701 7.84322 93.2263Z" fill="#0C2D57"/>
<path d="M22.0345 92.2095C20.0474 91.7403 18.0561 92.9708 17.5869 94.9579C17.1177 96.9451 18.3482 98.9363 20.3353 99.4055C22.3225 99.8748 24.3137 98.6442 24.7829 96.6571C25.2522 94.67 24.0216 92.6787 22.0345 92.2095Z" fill="#0C2D57"/>
<path d="M40.716 95.8316C40.716 93.7897 39.0607 92.1345 37.0189 92.1345C34.977 92.1345 33.3218 93.7897 33.3218 95.8316C33.3218 97.8734 34.977 99.5287 37.0189 99.5287C39.0607 99.5287 40.716 97.8734 40.716 95.8316Z" fill="#0C2D57"/>
<path d="M55.5334 93.2267C54.0896 91.7829 51.7488 91.7829 50.305 93.2267C48.8612 94.6705 48.8612 97.0113 50.305 98.4551C51.7488 99.8989 54.0896 99.8989 55.5334 98.4551C56.9772 97.0113 56.9772 94.6705 55.5334 93.2267Z" fill="#0C2D57"/>
<path d="M69.7274 92.212C67.7403 91.7427 65.749 92.9733 65.2798 94.9604C64.8106 96.9475 66.0411 98.9388 68.0282 99.408C70.0153 99.8772 72.0066 98.6467 72.4758 96.6596C72.945 94.6724 71.7145 92.6812 69.7274 92.212Z" fill="#0C2D57"/>
<path d="M7.84322 73.3859C6.39943 71.9421 4.05858 71.9421 2.61479 73.3859C1.171 74.8297 1.171 77.1705 2.61479 78.6143C4.05858 80.0581 6.39943 80.0581 7.84322 78.6143C9.28701 77.1705 9.28701 74.8297 7.84322 73.3859Z" fill="#0C2D57"/>
<path d="M22.0355 72.3683C20.0484 71.8991 18.0571 73.1296 17.5879 75.1167C17.1187 77.1039 18.3492 79.0951 20.3363 79.5643C22.3234 80.0336 24.3147 78.8031 24.7839 76.8159C25.2531 74.8288 24.0226 72.8375 22.0355 72.3683Z" fill="#0C2D57"/>
<path d="M40.716 75.9914C40.716 73.9495 39.0607 72.2943 37.0189 72.2943C34.977 72.2943 33.3218 73.9495 33.3218 75.9914C33.3218 78.0332 34.977 79.6885 37.0189 79.6885C39.0607 79.6885 40.716 78.0332 40.716 75.9914Z" fill="#0C2D57"/>
<path d="M55.5334 73.3865C54.0896 71.9427 51.7488 71.9427 50.305 73.3865C48.8612 74.8303 48.8612 77.1711 50.305 78.6149C51.7488 80.0587 54.0896 80.0587 55.5334 78.6149C56.9772 77.1711 56.9772 74.8303 55.5334 73.3865Z" fill="#0C2D57"/>
<path d="M69.7281 72.3708C67.741 71.9016 65.7497 73.1321 65.2805 75.1192C64.8113 77.1063 66.0418 79.0976 68.0289 79.5668C70.0161 80.036 72.0073 78.8055 72.4765 76.8184C72.9458 74.8312 71.7153 72.84 69.7281 72.3708Z" fill="#0C2D57"/>
<path d="M7.84322 53.5457C6.39943 52.1019 4.05858 52.1019 2.61479 53.5457C1.171 54.9895 1.171 57.3303 2.61479 58.7741C4.05858 60.2179 6.39943 60.2179 7.84322 58.7741C9.28701 57.3303 9.28701 54.9895 7.84322 53.5457Z" fill="#0C2D57"/>
<path d="M22.0365 52.5271C20.0494 52.0579 18.0581 53.2884 17.5889 55.2756C17.1197 57.2627 18.3502 59.2539 20.3373 59.7232C22.3244 60.1924 24.3157 58.9619 24.7849 56.9747C25.2541 54.9876 24.0236 52.9964 22.0365 52.5271Z" fill="#0C2D57"/>
<path d="M40.716 56.1509C40.716 54.1091 39.0607 52.4538 37.0189 52.4538C34.977 52.4538 33.3218 54.1091 33.3218 56.1509C33.3218 58.1928 34.977 59.848 37.0189 59.848C39.0607 59.848 40.716 58.1928 40.716 56.1509Z" fill="#0C2D57"/>
<path d="M55.5336 53.5462C54.0899 52.1024 51.749 52.1024 50.3052 53.5462C48.8614 54.9899 48.8614 57.3308 50.3052 58.7746C51.749 60.2184 54.0899 60.2184 55.5336 58.7746C56.9774 57.3308 56.9774 54.9899 55.5336 53.5462Z" fill="#0C2D57"/>
<path d="M69.7291 52.5296C67.742 52.0604 65.7507 53.2909 65.2815 55.278C64.8123 57.2651 66.0428 59.2564 68.0299 59.7256C70.017 60.1948 72.0083 58.9643 72.4775 56.9772C72.9467 54.9901 71.7162 52.9988 69.7291 52.5296Z" fill="#0C2D57"/>
<path d="M7.8437 33.7057C6.39991 32.2619 4.05907 32.2619 2.61528 33.7057C1.17149 35.1495 1.17149 37.4903 2.61528 38.9341C4.05907 40.3779 6.39992 40.3779 7.8437 38.9341C9.28749 37.4903 9.28749 35.1495 7.8437 33.7057Z" fill="#0C2D57"/>
<path d="M22.0377 32.686C20.0506 32.2167 18.0593 33.4473 17.5901 35.4344C17.1209 37.4215 18.3514 39.4128 20.3385 39.882C22.3256 40.3512 24.3169 39.1207 24.7861 37.1336C25.2553 35.1464 24.0248 33.1552 22.0377 32.686Z" fill="#0C2D57"/>
<path d="M40.716 36.311C40.716 34.2691 39.0607 32.6139 37.0189 32.6139C34.977 32.6139 33.3218 34.2691 33.3218 36.311C33.3218 38.3528 34.977 40.0081 37.0189 40.0081C39.0607 40.0081 40.716 38.3528 40.716 36.311Z" fill="#0C2D57"/>
<path d="M55.5339 33.7061C54.0901 32.2623 51.7493 32.2623 50.3055 33.7061C48.8617 35.1499 48.8617 37.4907 50.3055 38.9345C51.7493 40.3783 54.0901 40.3783 55.5339 38.9345C56.9777 37.4907 56.9777 35.1499 55.5339 33.7061Z" fill="#0C2D57"/>
<path d="M69.7306 32.6885C67.7434 32.2193 65.7522 33.4498 65.283 35.4369C64.8138 37.4241 66.0443 39.4153 68.0314 39.8845C70.0185 40.3538 72.0098 39.1232 72.479 37.1361C72.9482 35.149 71.7177 33.1577 69.7306 32.6885Z" fill="#0C2D57"/>
</svg>
