<svg width="36" height="89" viewBox="0 0 36 89" fill="none" xmlns="http://www.w3.org/2000/svg">
<path d="M-5.51735e-07 75.7328L0 88.355L12.6223 88.355L12.6223 75.7328L-5.51735e-07 75.7328Z" fill="#FDD600"/>
<path d="M-5.51735e-07 50.4885L0 63.1107L12.6223 63.1107L12.6223 50.4885L-5.51735e-07 50.4885Z" fill="#FDD600"/>
<path d="M-5.51738e-07 25.2439L0 37.8662L12.6223 37.8662L12.6223 25.2439L-5.51738e-07 25.2439Z" fill="#FDD600"/>
<path d="M-5.51738e-07 1.81198e-05L0 12.6223L12.6223 12.6223L12.6223 1.75681e-05L-5.51738e-07 1.81198e-05Z" fill="#FDD600"/>
<path d="M23.8933 76.8907L23.8933 87.197L34.1996 87.197L34.1996 76.8907L23.8933 76.8907Z" stroke="#1D1D1B" stroke-width="2" stroke-miterlimit="10"/>
<path d="M23.8933 51.6465L23.8933 61.9528L34.1996 61.9528L34.1996 51.6465L23.8933 51.6465Z" stroke="#1D1D1B" stroke-width="2" stroke-miterlimit="10"/>
<path d="M23.8933 26.4022L23.8933 36.7085L34.1996 36.7085L34.1996 26.4022L23.8933 26.4022Z" stroke="#1D1D1B" stroke-width="2" stroke-miterlimit="10"/>
<path d="M23.8933 1.15776L23.8933 11.464L34.1996 11.464L34.1996 1.15776L23.8933 1.15776Z" stroke="#1D1D1B" stroke-width="2" stroke-miterlimit="10"/>
</svg>
