<svg width="64" height="64" viewBox="0 0 64 64" fill="none" xmlns="http://www.w3.org/2000/svg">
<path d="M32 33C34.4712 33.0053 36.883 32.2427 38.902 30.8176C39.1188 30.6649 39.2661 30.4322 39.3114 30.1709C39.3568 29.9095 39.2964 29.6408 39.1436 29.424C38.9909 29.2072 38.7582 29.0599 38.4969 29.0146C38.2355 28.9692 37.9668 29.0296 37.75 29.1824C35.9177 30.4702 33.7061 31.1058 31.4697 30.9872C29.2332 30.8686 27.1012 30.0027 25.4154 28.5283C23.7296 27.0539 22.5875 25.0562 22.172 22.8555C21.7566 20.6547 22.0919 18.3782 23.1243 16.3907C24.1566 14.4032 25.8262 12.8197 27.8655 11.894C29.9049 10.9683 32.1959 10.7539 34.3716 11.2852C36.5473 11.8165 38.4817 13.0627 39.8649 14.8241C41.248 16.5856 41.9999 18.7604 42 21V23C42 23.5304 41.7893 24.0391 41.4142 24.4142C41.0391 24.7893 40.5304 25 40 25C39.4696 25 38.9609 24.7893 38.5858 24.4142C38.2107 24.0391 38 23.5304 38 23V16C38 15.7348 37.8946 15.4804 37.7071 15.2929C37.5196 15.1054 37.2652 15 37 15C36.7348 15 36.4804 15.1054 36.2929 15.2929C36.1054 15.4804 36 15.7348 36 16V16.5326C35.1142 15.7383 34.0122 15.2253 32.8341 15.0588C31.656 14.8923 30.455 15.0798 29.3838 15.5975C28.3125 16.1152 27.4194 16.9397 26.8178 17.9662C26.2163 18.9927 25.9335 20.1749 26.0054 21.3625C26.0774 22.5501 26.5008 23.6896 27.2218 24.636C27.9428 25.5824 28.929 26.293 30.0549 26.6777C31.1808 27.0623 32.3956 27.1035 33.545 26.796C34.6944 26.4885 35.7264 25.8463 36.5099 24.9509C36.9415 25.7237 37.6175 26.3315 38.4317 26.679C39.2459 27.0264 40.1524 27.0939 41.009 26.8707C41.8657 26.6476 42.6241 26.1465 43.1654 25.446C43.7067 24.7455 44.0002 23.8852 44 23V21C44 18.6266 43.2962 16.3065 41.9776 14.3332C40.6591 12.3598 38.7849 10.8217 36.5922 9.91345C34.3995 9.00519 31.9867 8.76755 29.6589 9.23058C27.3311 9.6936 25.1929 10.8365 23.5147 12.5147C21.8365 14.1929 20.6936 16.3311 20.2306 18.6589C19.7676 20.9867 20.0052 23.3995 20.9134 25.5922C21.8217 27.7849 23.3598 29.6591 25.3332 30.9776C27.3065 32.2962 29.6266 33 32 33ZM32 25C31.2089 25 30.4355 24.7654 29.7777 24.3259C29.1199 23.8864 28.6072 23.2616 28.3045 22.5307C28.0017 21.7998 27.9225 20.9956 28.0769 20.2196C28.2312 19.4437 28.6122 18.731 29.1716 18.1716C29.731 17.6122 30.4437 17.2312 31.2196 17.0769C31.9956 16.9225 32.7998 17.0017 33.5307 17.3045C34.2616 17.6072 34.8864 18.1199 35.3259 18.7777C35.7654 19.4355 36 20.2089 36 21C35.9988 22.0605 35.577 23.0772 34.8271 23.8271C34.0772 24.577 33.0605 24.9988 32 25ZM7 63H57C58.3256 62.9985 59.5965 62.4712 60.5339 61.5339C61.4712 60.5965 61.9985 59.3256 62 58V26C61.9982 25.1283 61.7693 24.2721 61.336 23.5157C60.9026 22.7594 60.2797 22.1289 59.5286 21.6865L54 18.4456V6C53.9985 4.67437 53.4712 3.40347 52.5339 2.46611C51.5965 1.52875 50.3256 1.00149 49 1H15C13.6744 1.00149 12.4035 1.52875 11.4661 2.46611C10.5288 3.40347 10.0015 4.67437 10 6V18.4456L4.47137 21.6865C3.7203 22.1289 3.09741 22.7594 2.66406 23.5157C2.23072 24.2721 2.00185 25.1283 2 26V58C2.00149 59.3256 2.52875 60.5965 3.46611 61.5339C4.40347 62.4712 5.67437 62.9985 7 63ZM60 58C59.9991 58.7954 59.6827 59.5579 59.1203 60.1203C58.5579 60.6827 57.7954 60.9991 57 61H7C6.20463 60.9991 5.44211 60.6827 4.8797 60.1203C4.31729 59.5579 4.00093 58.7954 4 58V27.7454L29.4714 42.6769C30.2384 43.126 31.1112 43.3627 32 43.3627C32.8888 43.3627 33.7616 43.126 34.5286 42.6769L60 27.7454V58ZM58.5171 23.4125C58.8881 23.6312 59.2078 23.927 59.4548 24.2798C59.7018 24.6326 59.8703 25.0342 59.9489 25.4576L54 28.9443V20.7639L58.5171 23.4125ZM15 3H49C49.7954 3.00093 50.5579 3.31729 51.1203 3.8797C51.6827 4.44211 51.9991 5.20463 52 6V30.1166L33.5171 40.9515C33.0569 41.2209 32.5333 41.3629 32 41.3629C31.4667 41.3629 30.9431 41.2209 30.4829 40.9515L12 30.1166V6C12.0009 5.20463 12.3173 4.44211 12.8797 3.8797C13.4421 3.31729 14.2046 3.00093 15 3ZM5.48287 23.4125L10 20.7639V28.9443L4.05113 25.4568C4.12984 25.0335 4.29837 24.632 4.54534 24.2794C4.79232 23.9268 5.11201 23.6311 5.48287 23.4125Z" fill="url(#paint0_linear_549_343)"/>
<defs>
<linearGradient id="paint0_linear_549_343" x1="62" y1="1" x2="2" y2="1" gradientUnits="userSpaceOnUse">
<stop stop-color="#FF8911"/>
<stop offset="1" stop-color="#F83600"/>
</linearGradient>
</defs>
</svg>
