<svg width="64" height="64" viewBox="0 0 64 64" fill="none" xmlns="http://www.w3.org/2000/svg">
<g clip-path="url(#clip0_546_335)">
<path d="M63.9998 29.0829C63.9998 29.4807 63.8418 29.8622 63.5604 30.1435C63.2791 30.4248 62.8976 30.5829 62.4998 30.5829C62.102 30.5829 61.7204 30.4248 61.4391 30.1435C61.1578 29.8622 60.9998 29.4807 60.9998 29.0829C60.9998 14.7931 49.3748 3.1675 35.0844 3.1675C34.6866 3.1675 34.3051 3.00947 34.0238 2.72816C33.7424 2.44686 33.5844 2.06533 33.5844 1.6675C33.5844 1.26968 33.7424 0.888148 34.0238 0.606843C34.3051 0.325539 34.6866 0.167503 35.0844 0.167503C42.7532 0.167503 50.108 3.21394 55.5307 8.63662C60.9534 14.0593 63.9998 21.414 63.9998 29.0829ZM35.0844 9.9985C45.6075 9.9985 54.1688 18.5598 54.1688 29.0829C54.1688 29.4807 54.3268 29.8622 54.6081 30.1435C54.8894 30.4248 55.271 30.5829 55.6688 30.5829C56.0666 30.5829 56.4481 30.4248 56.7294 30.1435C57.0107 29.8622 57.1688 29.4807 57.1688 29.0829C57.1688 16.9055 47.2618 6.9985 35.0844 6.9985C34.6866 6.9985 34.3051 7.15654 34.0238 7.43784C33.7424 7.71915 33.5844 8.10068 33.5844 8.4985C33.5844 8.89633 33.7424 9.27786 34.0238 9.55916C34.3051 9.84047 34.6866 9.9985 35.0844 9.9985ZM35.0844 16.8296C38.333 16.8334 41.4474 18.1256 43.7445 20.4227C46.0415 22.7198 47.3336 25.8343 47.3373 29.0829C47.3373 29.4807 47.4953 29.8622 47.7766 30.1435C48.0579 30.4248 48.4395 30.5829 48.8373 30.5829C49.2351 30.5829 49.6166 30.4248 49.8979 30.1435C50.1792 29.8622 50.3373 29.4807 50.3373 29.0829C50.3327 25.0389 48.7242 21.1619 45.8648 18.3024C43.0053 15.4429 39.1283 13.8343 35.0844 13.8296C34.6866 13.8296 34.3051 13.9877 34.0238 14.269C33.7424 14.5503 33.5844 14.9318 33.5844 15.3296C33.5844 15.7275 33.7424 16.109 34.0238 16.3903C34.3051 16.6716 34.6866 16.8296 35.0844 16.8296ZM35.0844 23.6606C36.522 23.6623 37.9002 24.234 38.9168 25.2506C39.9333 26.2671 40.5051 27.6453 40.5068 29.0829C40.5068 29.4807 40.6648 29.8622 40.9461 30.1435C41.2274 30.4248 41.609 30.5829 42.0068 30.5829C42.4046 30.5829 42.7861 30.4248 43.0674 30.1435C43.3488 29.8622 43.5068 29.4807 43.5068 29.0829C43.5042 26.8499 42.6161 24.7091 41.0371 23.1302C39.4582 21.5513 37.3174 20.6631 35.0844 20.6606C34.6866 20.6606 34.3051 20.8187 34.0238 21.1C33.7424 21.3813 33.5844 21.7628 33.5844 22.1606C33.5844 22.5585 33.7424 22.94 34.0238 23.2213C34.3051 23.5026 34.6866 23.6606 35.0844 23.6606ZM62.9948 48.6574C63.2299 50.2961 62.6774 52.075 61.5169 53.4156L54.894 61.0676C53.7274 62.4155 51.6514 63.8279 48.0779 63.828C47.0219 63.8209 45.9689 63.7135 44.9332 63.5074C38.0262 62.1801 28.4207 56.6324 19.2385 48.6675C10.0648 40.7095 3.21229 31.9898 0.906785 25.3421C-0.94459 20.0029 0.410535 16.8671 1.87328 15.1775L8.49616 7.52563C9.64216 6.20138 11.3692 5.37875 13.0034 5.37875C14.2937 5.37875 15.4379 5.88 16.2255 6.79L25.4169 17.4094C27.3373 19.6285 27.36 22.7018 25.4722 24.8829L22.1604 28.7093C21.9747 28.9239 21.7344 29.2983 21.7925 30.0676C21.9587 32.2699 24.4187 35.7551 27.9137 38.7393C32.328 42.5088 37.0197 44.3043 38.3725 42.7409L41.6844 38.9145C43.5778 36.727 46.6239 36.3094 49.092 37.8998L61.1399 45.6631C62.1528 46.3158 62.8115 47.3791 62.9948 48.6574ZM60.0248 49.0833C59.9652 48.6669 59.7935 48.3645 59.5145 48.1849L47.4667 40.4215C46.47 39.7791 44.9967 39.6715 43.9523 40.8778L40.6405 44.7043C39.5947 45.9126 37.5222 47.0626 33.5887 45.681C31.2155 44.8473 28.508 43.1921 25.9652 41.0208C24.3718 39.66 19.1455 34.865 18.8005 30.2934C18.6968 28.9174 19.0742 27.6906 19.8918 26.746L23.2035 22.9195C24.2447 21.7166 23.9259 20.2714 23.148 19.3726L13.957 8.75325C13.742 8.50475 13.4212 8.37825 13.0034 8.37825C12.2269 8.37825 11.3482 8.81413 10.7645 9.48838L4.14166 17.1409C2.76666 18.7301 2.63141 21.1589 3.74166 24.3594C5.88166 30.5325 12.4099 38.7725 21.2044 46.4014C30.0054 54.0359 39.0873 59.3294 45.4998 60.5613C48.8373 61.2028 51.2348 60.7124 52.6264 59.1043L59.2492 51.4523C59.8304 50.7801 60.1352 49.85 60.0248 49.0833Z" fill="url(#paint0_linear_546_335)"/>
</g>
<defs>
<linearGradient id="paint0_linear_546_335" x1="63.9998" y1="0.167503" x2="0.00830078" y2="0.167503" gradientUnits="userSpaceOnUse">
<stop stop-color="#FF8911"/>
<stop offset="1" stop-color="#F83600"/>
</linearGradient>
<clipPath id="clip0_546_335">
<rect width="64" height="64" fill="white"/>
</clipPath>
</defs>
</svg>
