<svg width="158" height="56" viewBox="0 0 158 56" fill="none" xmlns="http://www.w3.org/2000/svg">
<g clip-path="url(#clip0_54_3)">
<path d="M8.10034 46.2064L10.7844 18.8483L18.4502 14.1313L21.0377 15.8333V34.983L15.1676 39.8945L16.4614 18.4398L12.5801 20.4433L11.1802 43.8042L8.10034 46.2064Z" fill="url(#paint0_linear_54_3)"/>
<path d="M19.5026 18.644V4.30844L31.7448 0L35.9157 2.70372V28.7683L27.7091 37.8909L26.6375 36.8114V5.31018L21.0956 7.51789V18.9455L19.5026 18.644Z" fill="url(#paint1_linear_54_3)"/>
<path d="M34.2551 12.6336L40.8975 9.31714L46.9607 10.9705V47.5096H41.892V12.3321L34.2551 15.736V12.6336Z" fill="url(#paint2_linear_54_3)"/>
<path d="M45.1746 27.1636L50.9481 26.1619L54.8293 29.1671V50.719H50.5426V29.4686L45.5704 30.1688L45.1746 27.1636Z" fill="url(#paint3_linear_54_3)"/>
<path d="M58.9036 52.0222L37.6632 40.439L37.0163 43.2011L36.717 39.9235V27.6595H29.4566V35.9555L21.588 31.6762L0 52.0222L20.1977 40.1958L40.9941 50.3202V52.0222H58.9036Z" fill="#0C2D57"/>
<path d="M19.0971 45.5061H15.1194V49.513H19.0971V45.5061Z" fill="#0C2D57"/>
<path d="M23.9728 45.5061H19.995V49.513H23.9728V45.5061Z" fill="#0C2D57"/>
<path d="M19.0971 50.0188H15.1194V54.0257H19.0971V50.0188Z" fill="#0C2D57"/>
<path d="M23.9728 50.0188H19.995V54.0257H23.9728V50.0188Z" fill="#0C2D57"/>
<path d="M61.2787 39.8555V20.7933H70.0356C71.3486 20.7933 72.4589 21.017 73.3568 21.4644C74.2547 21.9118 74.9402 22.505 75.4133 23.2442C75.8863 23.9931 76.1181 24.8392 76.1181 25.802C76.1181 26.6384 75.9636 27.3484 75.6546 27.9222C75.3457 28.5057 74.9305 28.9628 74.3995 29.2935C73.8685 29.6339 73.2603 29.8673 72.5748 30.0132V30.2077C73.4051 30.3147 74.1195 30.5481 74.7085 30.8982C75.3071 31.2484 75.7608 31.7444 76.0891 32.3862C76.4174 33.0281 76.5718 33.8062 76.5718 34.7301C76.5718 35.7124 76.3305 36.5877 75.8381 37.3755C75.3457 38.1633 74.6409 38.7662 73.714 39.2039C72.7872 39.6415 71.6769 39.8555 70.3735 39.8555H61.2594H61.2787ZM72.4396 26.298C72.4396 25.5005 72.1789 24.8975 71.6672 24.4891C71.1555 24.0806 70.4507 23.8763 69.5432 23.8763H64.9185V28.7002H69.5432C70.4411 28.7002 71.1555 28.496 71.6672 28.0875C72.1789 27.6791 72.4396 27.0858 72.4396 26.3077V26.298ZM64.9282 36.7822H69.9004C70.8562 36.7822 71.59 36.578 72.121 36.1598C72.6423 35.7416 72.903 35.1191 72.903 34.2827C72.903 33.4463 72.623 32.7655 72.0534 32.3376C71.4838 31.9097 70.7307 31.6957 69.7942 31.6957H64.9282V36.7919V36.7822Z" fill="#0C2D57"/>
<path d="M91.3629 39.8554H88.1769L87.9355 38.4355C87.501 38.9412 86.9797 39.34 86.3521 39.622C85.7342 39.9041 85.068 40.0402 84.3632 40.0402C83.3205 40.0402 82.413 39.8165 81.6599 39.3594C80.9068 38.9023 80.3179 38.2507 79.9124 37.3851C79.5069 36.5195 79.3041 35.4595 79.3041 34.1854V26.2299H82.7605V33.7186C82.7605 34.7689 82.9633 35.5664 83.3688 36.1013C83.7743 36.6362 84.4115 36.9086 85.2708 36.9086C86.13 36.9086 86.7383 36.6363 87.1921 36.0916C87.6458 35.547 87.8679 34.7592 87.8679 33.7186V26.2299H91.3533V39.8457L91.3629 39.8554Z" fill="#0C2D57"/>
<path d="M96.8758 24.4988C96.2289 24.4988 95.6979 24.2945 95.2828 23.8763C94.8676 23.4581 94.6649 22.9621 94.6649 22.3786C94.6649 21.7951 94.8676 21.2796 95.2828 20.8711C95.6979 20.4627 96.2289 20.2584 96.8758 20.2584C97.484 20.2584 98.0054 20.4627 98.4302 20.8711C98.855 21.2796 99.0674 21.7853 99.0674 22.3786C99.0674 22.9719 98.855 23.4581 98.4302 23.8763C98.0054 24.2945 97.484 24.4988 96.8758 24.4988ZM95.1186 26.2397H98.604V39.8555H95.1186V26.2397Z" fill="#0C2D57"/>
<path d="M102.369 20.2487H105.826V39.8555H102.369V20.2487Z" fill="#0C2D57"/>
<path d="M118.966 28.282L118.531 28.3598V20.2487H121.988V39.8555H118.85L118.638 38.1632C118.222 38.6884 117.653 39.1358 116.938 39.4956C116.214 39.8555 115.394 40.0403 114.476 40.0403C113.289 40.0403 112.246 39.7485 111.339 39.1649C110.441 38.5814 109.736 37.7645 109.234 36.7141C108.732 35.6637 108.481 34.4383 108.481 33.0378C108.481 31.6373 108.732 30.3827 109.234 29.3324C109.736 28.282 110.441 27.4651 111.339 26.8912C112.236 26.3174 113.289 26.0354 114.476 26.0354C115.5 26.0354 116.407 26.2494 117.18 26.687C117.952 27.1247 118.551 27.6498 118.966 28.2626V28.282ZM112.179 33.0475C112.179 34.1757 112.468 35.0899 113.057 35.7999C113.646 36.5099 114.409 36.86 115.345 36.86C115.925 36.86 116.446 36.7141 116.929 36.4126C117.402 36.1111 117.798 35.6832 118.087 35.1191C118.387 34.555 118.531 33.8645 118.531 33.0475C118.531 32.2306 118.387 31.5401 118.087 30.976C117.788 30.4119 117.402 29.984 116.929 29.6825C116.446 29.381 115.925 29.2351 115.345 29.2351C114.409 29.2351 113.646 29.5852 113.057 30.2952C112.468 31.0052 112.179 31.9194 112.179 33.0475Z" fill="#0C2D57"/>
<path d="M125.396 20.7933H129.045V32.8044C129.045 33.7089 129.219 34.4675 129.576 35.0802C129.924 35.693 130.416 36.1403 131.034 36.4418C131.652 36.7433 132.376 36.8892 133.187 36.8892C133.998 36.8892 134.751 36.7433 135.389 36.4418C136.026 36.1403 136.528 35.693 136.875 35.0802C137.223 34.4773 137.406 33.7187 137.406 32.8044V20.7933H141.056V32.6391C141.056 33.8937 140.834 34.983 140.39 35.9069C139.946 36.8308 139.357 37.6089 138.623 38.2216C137.88 38.8343 137.049 39.3011 136.113 39.5929C135.176 39.8944 134.182 40.0403 133.139 40.0403C131.787 40.0403 130.523 39.768 129.345 39.2233C128.167 38.6787 127.211 37.8618 126.497 36.7628C125.772 35.6638 125.415 34.2925 125.415 32.6391V20.7933H125.396Z" fill="#0C2D57"/>
<path d="M147.515 37.8131L147.949 37.7353V45.3018H144.493V26.2396H147.631L147.872 27.9318C148.268 27.4067 148.818 26.9593 149.533 26.5994C150.247 26.2396 151.078 26.0548 152.033 26.0548C153.202 26.0548 154.235 26.3466 155.133 26.9301C156.021 27.5136 156.726 28.3209 157.237 29.3712C157.749 30.4119 158.01 31.647 158.01 33.0572C158.01 34.4675 157.749 35.6832 157.237 36.7432C156.726 37.8033 156.021 38.6203 155.133 39.1941C154.244 39.7679 153.211 40.0499 152.033 40.0499C150.971 40.0499 150.054 39.836 149.291 39.3983C148.529 38.9607 147.94 38.4355 147.525 37.8228L147.515 37.8131ZM154.273 33.0475C154.273 31.9193 153.984 31.0051 153.395 30.2952C152.806 29.5852 152.043 29.2351 151.107 29.2351C150.527 29.2351 150.006 29.381 149.523 29.6825C149.05 29.984 148.664 30.4119 148.374 30.976C148.085 31.54 147.94 32.2306 147.94 33.0475C147.94 33.8645 148.085 34.5355 148.374 35.0996C148.664 35.6734 149.05 36.1111 149.523 36.4028C149.996 36.7043 150.527 36.8502 151.107 36.8502C152.043 36.8502 152.806 36.5001 153.395 35.7901C153.984 35.0802 154.273 34.166 154.273 33.0378V33.0475Z" fill="#0C2D57"/>
<path d="M143.682 42.8997H115.056C111.467 42.8997 108.558 45.8301 108.558 49.445V49.4547C108.558 53.0696 111.467 56 115.056 56H143.682C147.271 56 150.18 53.0696 150.18 49.4547V49.445C150.18 45.8301 147.271 42.8997 143.682 42.8997Z" fill="url(#paint4_linear_54_3)"/>
<path d="M119.593 52.7906H118.445V49.8437H115.287V52.7906H114.138V45.9827H115.287V48.842H118.445V45.9827H119.593V52.7906Z" fill="white"/>
<path d="M123.446 52.9073C122.673 52.9073 122.055 52.6739 121.602 52.2071C121.148 51.7403 120.926 51.1178 120.926 50.3301C120.926 49.5034 121.167 48.8518 121.631 48.3849C122.094 47.9181 122.731 47.6847 123.542 47.6847C124.315 47.6847 124.923 47.9084 125.357 48.3752C125.792 48.842 126.014 49.4645 126.014 50.2522C126.014 51.04 125.782 51.7111 125.319 52.1876C124.855 52.6642 124.237 52.9073 123.446 52.9073ZM123.494 52.0126C123.938 52.0126 124.276 51.8667 124.508 51.5652C124.739 51.2734 124.855 50.8455 124.855 50.2814C124.855 49.7173 124.739 49.3089 124.508 49.0171C124.276 48.7253 123.938 48.5794 123.484 48.5794C123.031 48.5794 122.693 48.7351 122.442 49.0366C122.191 49.338 122.065 49.766 122.065 50.3106C122.065 50.8552 122.191 51.2734 122.442 51.5652C122.693 51.857 123.04 52.0029 123.494 52.0029V52.0126Z" fill="white"/>
<path d="M134.607 52.7906H133.487V49.941C133.487 49.4742 133.409 49.1338 133.255 48.9198C133.1 48.7059 132.859 48.5989 132.521 48.5989C132.222 48.5989 131.971 48.7351 131.768 48.9976C131.565 49.27 131.469 49.5909 131.469 49.9799V52.8004H130.349V49.8827C130.349 49.4547 130.272 49.1338 130.107 48.9198C129.943 48.7059 129.702 48.5989 129.383 48.5989C129.065 48.5989 128.823 48.7253 128.63 48.9782C128.437 49.2311 128.341 49.5715 128.341 49.9897V52.8004H127.211V47.8208H128.341V48.6086H128.36C128.524 48.3266 128.746 48.1029 129.016 47.9473C129.287 47.7917 129.586 47.7139 129.924 47.7139C130.262 47.7139 130.561 47.8014 130.803 47.9765C131.044 48.1515 131.227 48.3947 131.334 48.6962C131.517 48.3655 131.749 48.1223 132.029 47.957C132.309 47.7917 132.627 47.7139 132.985 47.7139C133.525 47.7139 133.931 47.8792 134.201 48.2196C134.471 48.56 134.607 49.056 134.607 49.7271V52.8101V52.7906Z" fill="white"/>
<path d="M140.206 50.5926H136.827C136.846 51.0691 136.982 51.4192 137.233 51.6721C137.484 51.925 137.831 52.0417 138.295 52.0417C138.478 52.0417 138.681 52.0028 138.922 51.925C139.164 51.8472 139.395 51.7305 139.627 51.5651L140.129 52.2751C139.82 52.4988 139.502 52.6544 139.183 52.7614C138.864 52.8684 138.517 52.917 138.14 52.917C137.377 52.917 136.779 52.6933 136.344 52.2459C135.91 51.7985 135.698 51.1761 135.698 50.3689C135.698 49.5714 135.92 48.9295 136.364 48.4335C136.808 47.9375 137.377 47.6943 138.063 47.6943C138.748 47.6943 139.25 47.9083 139.627 48.3265C140.004 48.7447 140.197 49.338 140.197 50.1063V50.5926H140.206ZM139.135 49.8145C139.135 49.3866 139.038 49.0656 138.855 48.842C138.671 48.6183 138.411 48.5113 138.063 48.5113C137.744 48.5113 137.474 48.628 137.252 48.8614C137.03 49.0948 136.895 49.4158 136.846 49.8048H139.144L139.135 49.8145Z" fill="white"/>
<path d="M140.882 52.4016L141.375 51.6041C141.568 51.7403 141.761 51.8472 141.983 51.9251C142.205 52.0029 142.437 52.0515 142.688 52.0515C142.968 52.0515 143.18 52.0029 143.334 51.8959C143.489 51.7889 143.566 51.643 143.566 51.4388C143.566 51.2734 143.499 51.1373 143.373 51.0303C143.248 50.9233 143.025 50.8358 142.726 50.758C142.108 50.6121 141.683 50.4176 141.432 50.1744C141.181 49.9313 141.066 49.6201 141.066 49.2213C141.066 48.7642 141.239 48.3947 141.597 48.1126C141.954 47.8306 142.408 47.6847 142.968 47.6847C143.248 47.6847 143.508 47.7236 143.759 47.7917C144.01 47.8598 144.252 47.9765 144.493 48.1321L144.049 48.9101C143.836 48.774 143.643 48.6864 143.47 48.6281C143.296 48.5697 143.112 48.5405 142.929 48.5405C142.659 48.5405 142.456 48.5892 142.301 48.6962C142.147 48.8031 142.079 48.9393 142.079 49.1144C142.079 49.2894 142.147 49.4353 142.292 49.5228C142.437 49.6104 142.688 49.6979 143.035 49.7854C143.576 49.9119 143.962 50.1064 144.213 50.3495C144.464 50.5926 144.59 50.9233 144.59 51.3318C144.59 51.8083 144.416 52.1974 144.068 52.4794C143.721 52.7615 143.248 52.9073 142.649 52.9073C142.321 52.9073 142.021 52.8684 141.722 52.7809C141.423 52.6934 141.152 52.5669 140.882 52.4016Z" fill="white"/>
</g>
<defs>
<linearGradient id="paint0_linear_54_3" x1="21.0377" y1="14.1313" x2="8.10034" y2="14.1313" gradientUnits="userSpaceOnUse">
<stop stop-color="#FF8911"/>
<stop offset="1" stop-color="#F83600"/>
</linearGradient>
<linearGradient id="paint1_linear_54_3" x1="35.9157" y1="0" x2="19.5026" y2="0" gradientUnits="userSpaceOnUse">
<stop stop-color="#FF8911"/>
<stop offset="1" stop-color="#F83600"/>
</linearGradient>
<linearGradient id="paint2_linear_54_3" x1="46.9607" y1="9.31714" x2="34.2551" y2="9.31714" gradientUnits="userSpaceOnUse">
<stop stop-color="#FF8911"/>
<stop offset="1" stop-color="#F83600"/>
</linearGradient>
<linearGradient id="paint3_linear_54_3" x1="54.8293" y1="26.1619" x2="45.1746" y2="26.1619" gradientUnits="userSpaceOnUse">
<stop stop-color="#FF8911"/>
<stop offset="1" stop-color="#F83600"/>
</linearGradient>
<linearGradient id="paint4_linear_54_3" x1="150.18" y1="42.8997" x2="108.558" y2="42.8997" gradientUnits="userSpaceOnUse">
<stop stop-color="#FF8911"/>
<stop offset="1" stop-color="#F83600"/>
</linearGradient>
<clipPath id="clip0_54_3">
<rect width="158" height="56" fill="white"/>
</clipPath>
</defs>
</svg>
