<svg width="158" height="56" viewBox="0 0 158 56" fill="none" xmlns="http://www.w3.org/2000/svg">
<g clip-path="url(#clip0_396_301)">
<path d="M8.10034 46.2064L10.7844 18.8483L18.4502 14.1313L21.0377 15.8333V34.983L15.1676 39.8945L16.4614 18.4398L12.5801 20.4433L11.1802 43.8042L8.10034 46.2064Z" fill="url(#paint0_linear_396_301)"/>
<path d="M19.5026 18.644V4.30844L31.7448 0L35.9157 2.70372V28.7683L27.7091 37.8909L26.6375 36.8114V5.31018L21.0956 7.51789V18.9455L19.5026 18.644Z" fill="url(#paint1_linear_396_301)"/>
<path d="M34.2551 12.6333L40.8975 9.31689L46.9607 10.9702V47.5093H41.892V12.3318L34.2551 15.7358V12.6333Z" fill="url(#paint2_linear_396_301)"/>
<path d="M45.1746 27.1634L50.9481 26.1616L54.8293 29.1668V50.7188H50.5426V29.4683L45.5704 30.1686L45.1746 27.1634Z" fill="url(#paint3_linear_396_301)"/>
<path d="M58.9036 52.0223L37.6632 40.4391L37.0163 43.2012L36.717 39.9236V27.6597H29.4566V35.9556L21.588 31.6763L0 52.0223L20.1977 40.196L40.9941 50.3203V52.0223H58.9036Z" fill="#F5F7F8"/>
<path d="M19.0971 45.5059H15.1194V49.5128H19.0971V45.5059Z" fill="#F5F7F8"/>
<path d="M23.9728 45.5059H19.995V49.5128H23.9728V45.5059Z" fill="#F5F7F8"/>
<path d="M19.0971 50.0186H15.1194V54.0255H19.0971V50.0186Z" fill="#F5F7F8"/>
<path d="M23.9728 50.0186H19.995V54.0255H23.9728V50.0186Z" fill="#F5F7F8"/>
<path d="M61.2787 39.8551V20.793H70.0356C71.3486 20.793 72.4589 21.0167 73.3568 21.464C74.2547 21.9114 74.9402 22.5047 75.4133 23.2438C75.8863 23.9927 76.1181 24.8388 76.1181 25.8017C76.1181 26.6381 75.9636 27.348 75.6546 27.9218C75.3457 28.5054 74.9305 28.9625 74.3995 29.2931C73.8685 29.6335 73.2603 29.867 72.5748 30.0128V30.2073C73.4051 30.3143 74.1195 30.5477 74.7085 30.8979C75.3071 31.248 75.7608 31.744 76.0891 32.3859C76.4174 33.0278 76.5718 33.8058 76.5718 34.7298C76.5718 35.712 76.3305 36.5873 75.8381 37.3751C75.3457 38.1629 74.6409 38.7659 73.714 39.2035C72.7872 39.6412 71.6769 39.8551 70.3735 39.8551H61.2594H61.2787ZM72.4396 26.2977C72.4396 25.5002 72.1789 24.8972 71.6672 24.4887C71.1555 24.0802 70.4507 23.876 69.5432 23.876H64.9185V28.6999H69.5432C70.4411 28.6999 71.1555 28.4956 71.6672 28.0872C72.1789 27.6787 72.4396 27.0854 72.4396 26.3074V26.2977ZM64.9282 36.7819H69.9004C70.8562 36.7819 71.59 36.5776 72.121 36.1594C72.6423 35.7412 72.903 35.1188 72.903 34.2824C72.903 33.446 72.623 32.7652 72.0534 32.3373C71.4838 31.9093 70.7307 31.6954 69.7942 31.6954H64.9282V36.7916V36.7819Z" fill="#F5F7F8"/>
<path d="M91.3629 39.8555H88.1769L87.9355 38.4356C87.501 38.9413 86.9797 39.3401 86.3521 39.6221C85.7342 39.9042 85.068 40.0403 84.3632 40.0403C83.3205 40.0403 82.413 39.8166 81.6599 39.3595C80.9068 38.9024 80.3179 38.2508 79.9124 37.3852C79.5069 36.5197 79.3041 35.4596 79.3041 34.1855V26.23H82.7605V33.7187C82.7605 34.7691 82.9633 35.5666 83.3688 36.1015C83.7743 36.6364 84.4115 36.9087 85.2708 36.9087C86.13 36.9087 86.7383 36.6364 87.1921 36.0917C87.6458 35.5471 87.8679 34.7593 87.8679 33.7187V26.23H91.3533V39.8458L91.3629 39.8555Z" fill="#F5F7F8"/>
<path d="M96.8758 24.4987C96.2289 24.4987 95.6979 24.2944 95.2828 23.8762C94.8676 23.458 94.6649 22.962 94.6649 22.3785C94.6649 21.7949 94.8676 21.2795 95.2828 20.871C95.6979 20.4625 96.2289 20.2583 96.8758 20.2583C97.484 20.2583 98.0054 20.4625 98.4302 20.871C98.855 21.2795 99.0674 21.7852 99.0674 22.3785C99.0674 22.9717 98.855 23.458 98.4302 23.8762C98.0054 24.2944 97.484 24.4987 96.8758 24.4987ZM95.1186 26.2395H98.604V39.8554H95.1186V26.2395Z" fill="#F5F7F8"/>
<path d="M102.369 20.2485H105.826V39.8553H102.369V20.2485Z" fill="#F5F7F8"/>
<path d="M118.966 28.2819L118.531 28.3597V20.2485H121.988V39.8553H118.85L118.638 38.1631C118.222 38.6883 117.653 39.1356 116.938 39.4955C116.214 39.8553 115.394 40.0401 114.476 40.0401C113.289 40.0401 112.246 39.7484 111.339 39.1648C110.441 38.5813 109.736 37.7643 109.234 36.714C108.732 35.6636 108.481 34.4382 108.481 33.0377C108.481 31.6372 108.732 30.3826 109.234 29.3322C109.736 28.2819 110.441 27.4649 111.339 26.8911C112.236 26.3173 113.289 26.0353 114.476 26.0353C115.5 26.0353 116.407 26.2492 117.18 26.6869C117.952 27.1245 118.551 27.6497 118.966 28.2624V28.2819ZM112.179 33.0474C112.179 34.1756 112.468 35.0898 113.057 35.7998C113.646 36.5097 114.409 36.8599 115.345 36.8599C115.925 36.8599 116.446 36.714 116.929 36.4125C117.402 36.111 117.798 35.6831 118.087 35.119C118.387 34.5549 118.531 33.8644 118.531 33.0474C118.531 32.2305 118.387 31.54 118.087 30.9759C117.788 30.4118 117.402 29.9839 116.929 29.6824C116.446 29.3809 115.925 29.235 115.345 29.235C114.409 29.235 113.646 29.5851 113.057 30.2951C112.468 31.005 112.179 31.9193 112.179 33.0474Z" fill="#F5F7F8"/>
<path d="M125.396 20.793H129.045V32.8041C129.045 33.7086 129.219 34.4672 129.576 35.0799C129.924 35.6926 130.416 36.14 131.034 36.4415C131.652 36.743 132.376 36.8888 133.187 36.8888C133.998 36.8888 134.751 36.743 135.389 36.4415C136.026 36.14 136.528 35.6926 136.875 35.0799C137.223 34.4769 137.406 33.7183 137.406 32.8041V20.793H141.056V32.6387C141.056 33.8934 140.834 34.9826 140.39 35.9065C139.946 36.8305 139.357 37.6085 138.623 38.2212C137.88 38.834 137.049 39.3008 136.113 39.5925C135.176 39.894 134.182 40.0399 133.139 40.0399C131.787 40.0399 130.523 39.7676 129.345 39.223C128.167 38.6783 127.211 37.8614 126.497 36.7624C125.772 35.6634 125.415 34.2921 125.415 32.6387V20.793H125.396Z" fill="#F5F7F8"/>
<path d="M147.515 37.8129L147.949 37.7351V45.3016H144.493V26.2395H147.631L147.872 27.9317C148.268 27.4065 148.818 26.9592 149.533 26.5993C150.247 26.2395 151.078 26.0547 152.033 26.0547C153.202 26.0547 154.235 26.3465 155.133 26.93C156.021 27.5135 156.726 28.3208 157.237 29.3711C157.749 30.4118 158.01 31.6469 158.01 33.0571C158.01 34.4673 157.749 35.683 157.237 36.7431C156.726 37.8032 156.021 38.6202 155.133 39.194C154.244 39.7678 153.211 40.0498 152.033 40.0498C150.971 40.0498 150.054 39.8359 149.291 39.3982C148.529 38.9606 147.94 38.4354 147.525 37.8227L147.515 37.8129ZM154.273 33.0474C154.273 31.9192 153.984 31.005 153.395 30.295C152.806 29.5851 152.043 29.235 151.107 29.235C150.527 29.235 150.006 29.3808 149.523 29.6823C149.05 29.9838 148.664 30.4118 148.374 30.9758C148.085 31.5399 147.94 32.2304 147.94 33.0474C147.94 33.8643 148.085 34.5354 148.374 35.0995C148.664 35.6733 149.05 36.111 149.523 36.4027C149.996 36.7042 150.527 36.8501 151.107 36.8501C152.043 36.8501 152.806 36.5 153.395 35.79C153.984 35.08 154.273 34.1658 154.273 33.0377V33.0474Z" fill="#F5F7F8"/>
<path d="M143.682 42.8994H115.056C111.467 42.8994 108.558 45.8299 108.558 49.4447V49.4545C108.558 53.0693 111.467 55.9998 115.056 55.9998H143.682C147.271 55.9998 150.18 53.0693 150.18 49.4545V49.4447C150.18 45.8299 147.271 42.8994 143.682 42.8994Z" fill="url(#paint4_linear_396_301)"/>
<path d="M119.593 52.7903H118.445V49.8435H115.287V52.7903H114.138V45.9824H115.287V48.8418H118.445V45.9824H119.593V52.7903Z" fill="white"/>
<path d="M123.446 52.9072C122.673 52.9072 122.055 52.6738 121.602 52.207C121.148 51.7401 120.926 51.1177 120.926 50.3299C120.926 49.5033 121.167 48.8516 121.631 48.3848C122.094 47.918 122.731 47.6846 123.542 47.6846C124.315 47.6846 124.923 47.9083 125.357 48.3751C125.792 48.8419 126.014 49.4644 126.014 50.2521C126.014 51.0399 125.782 51.711 125.319 52.1875C124.855 52.6641 124.237 52.9072 123.446 52.9072ZM123.494 52.0125C123.938 52.0125 124.276 51.8666 124.508 51.5651C124.739 51.2733 124.855 50.8454 124.855 50.2813C124.855 49.7172 124.739 49.3087 124.508 49.017C124.276 48.7252 123.938 48.5793 123.484 48.5793C123.031 48.5793 122.693 48.7349 122.442 49.0364C122.191 49.3379 122.065 49.7658 122.065 50.3105C122.065 50.8551 122.191 51.2733 122.442 51.5651C122.693 51.8569 123.04 52.0027 123.494 52.0027V52.0125Z" fill="white"/>
<path d="M134.607 52.7901H133.487V49.9405C133.487 49.4737 133.409 49.1333 133.255 48.9194C133.1 48.7054 132.859 48.5984 132.521 48.5984C132.222 48.5984 131.971 48.7346 131.768 48.9972C131.565 49.2695 131.469 49.5904 131.469 49.9794V52.7999H130.349V49.8822C130.349 49.4543 130.272 49.1333 130.107 48.9194C129.943 48.7054 129.702 48.5984 129.383 48.5984C129.065 48.5984 128.823 48.7248 128.63 48.9777C128.437 49.2306 128.341 49.571 128.341 49.9892V52.7999H127.211V47.8204H128.341V48.6081H128.36C128.524 48.3261 128.746 48.1024 129.016 47.9468C129.287 47.7912 129.586 47.7134 129.924 47.7134C130.262 47.7134 130.561 47.8009 130.803 47.976C131.044 48.151 131.227 48.3942 131.334 48.6957C131.517 48.365 131.749 48.1219 132.029 47.9565C132.309 47.7912 132.627 47.7134 132.985 47.7134C133.525 47.7134 133.931 47.8787 134.201 48.2191C134.471 48.5595 134.607 49.0555 134.607 49.7266V52.8096V52.7901Z" fill="white"/>
<path d="M140.206 50.5926H136.827C136.846 51.0691 136.982 51.4192 137.233 51.6721C137.484 51.925 137.831 52.0417 138.295 52.0417C138.478 52.0417 138.681 52.0028 138.922 51.925C139.164 51.8472 139.395 51.7305 139.627 51.5651L140.129 52.2751C139.82 52.4988 139.502 52.6544 139.183 52.7614C138.864 52.8684 138.517 52.917 138.14 52.917C137.377 52.917 136.779 52.6933 136.344 52.2459C135.91 51.7985 135.698 51.1761 135.698 50.3689C135.698 49.5714 135.92 48.9295 136.364 48.4335C136.808 47.9375 137.377 47.6943 138.063 47.6943C138.748 47.6943 139.25 47.9083 139.627 48.3265C140.004 48.7447 140.197 49.338 140.197 50.1063V50.5926H140.206ZM139.135 49.8145C139.135 49.3866 139.038 49.0656 138.855 48.842C138.671 48.6183 138.411 48.5113 138.063 48.5113C137.744 48.5113 137.474 48.628 137.252 48.8614C137.03 49.0948 136.895 49.4158 136.846 49.8048H139.144L139.135 49.8145Z" fill="white"/>
<path d="M140.882 52.4015L141.375 51.604C141.568 51.7401 141.761 51.8471 141.983 51.9249C142.205 52.0027 142.437 52.0514 142.688 52.0514C142.968 52.0514 143.18 52.0027 143.334 51.8958C143.489 51.7888 143.566 51.6429 143.566 51.4387C143.566 51.2733 143.499 51.1372 143.373 51.0302C143.248 50.9232 143.025 50.8357 142.726 50.7579C142.108 50.612 141.683 50.4175 141.432 50.1743C141.181 49.9312 141.066 49.62 141.066 49.2212C141.066 48.7641 141.239 48.3945 141.597 48.1125C141.954 47.8305 142.408 47.6846 142.968 47.6846C143.248 47.6846 143.508 47.7235 143.759 47.7916C144.01 47.8596 144.252 47.9763 144.493 48.132L144.049 48.91C143.836 48.7738 143.643 48.6863 143.47 48.628C143.296 48.5696 143.112 48.5404 142.929 48.5404C142.659 48.5404 142.456 48.5891 142.301 48.696C142.147 48.803 142.079 48.9392 142.079 49.1142C142.079 49.2893 142.147 49.4352 142.292 49.5227C142.437 49.6102 142.688 49.6978 143.035 49.7853C143.576 49.9117 143.962 50.1062 144.213 50.3494C144.464 50.5925 144.59 50.9232 144.59 51.3317C144.59 51.8082 144.416 52.1972 144.068 52.4793C143.721 52.7613 143.248 52.9072 142.649 52.9072C142.321 52.9072 142.021 52.8683 141.722 52.7808C141.423 52.6933 141.152 52.5668 140.882 52.4015Z" fill="white"/>
</g>
<defs>
<linearGradient id="paint0_linear_396_301" x1="21.0377" y1="14.1313" x2="8.10034" y2="14.1313" gradientUnits="userSpaceOnUse">
<stop stop-color="#FF8911"/>
<stop offset="1" stop-color="#F83600"/>
</linearGradient>
<linearGradient id="paint1_linear_396_301" x1="35.9157" y1="0" x2="19.5026" y2="0" gradientUnits="userSpaceOnUse">
<stop stop-color="#FF8911"/>
<stop offset="1" stop-color="#F83600"/>
</linearGradient>
<linearGradient id="paint2_linear_396_301" x1="46.9607" y1="9.31689" x2="34.2551" y2="9.31689" gradientUnits="userSpaceOnUse">
<stop stop-color="#FF8911"/>
<stop offset="1" stop-color="#F83600"/>
</linearGradient>
<linearGradient id="paint3_linear_396_301" x1="54.8293" y1="26.1616" x2="45.1746" y2="26.1616" gradientUnits="userSpaceOnUse">
<stop stop-color="#FF8911"/>
<stop offset="1" stop-color="#F83600"/>
</linearGradient>
<linearGradient id="paint4_linear_396_301" x1="150.18" y1="42.8994" x2="108.558" y2="42.8994" gradientUnits="userSpaceOnUse">
<stop stop-color="#FF8911"/>
<stop offset="1" stop-color="#F83600"/>
</linearGradient>
<clipPath id="clip0_396_301">
<rect width="158" height="56" fill="white"/>
</clipPath>
</defs>
</svg>
