<svg width="72" height="72" viewBox="0 0 72 72" fill="none" xmlns="http://www.w3.org/2000/svg">
<g clip-path="url(#clip0_889_262)">
<path d="M72 36C72 55.8823 55.8823 72 36 72C16.1177 72 0 55.8823 0 36C0 16.1177 16.1177 0 36 0C55.8823 0 72 16.1177 72 36Z" fill="url(#paint0_linear_889_262)"/>
<path d="M37.0049 50.1968C37.3274 50.6387 37.3236 51.2393 36.9953 51.6769L34.507 54.9948C34.0947 55.5445 33.3149 55.6559 32.7651 55.2436C32.2154 54.8312 32.104 54.0513 32.5162 53.5016L33.5644 52.104C22.8454 51.4855 14.7656 46.8208 14.7656 40.9769C14.7656 38.9007 15.8003 36.89 17.7578 35.1623C18.273 34.7077 19.0592 34.7566 19.514 35.2717L19.5141 35.2719C19.9688 35.787 19.9198 36.5732 19.4047 37.028L19.4046 37.0281C17.9776 38.2877 17.2541 39.6162 17.2541 40.9772C17.2541 43.1076 19.1368 45.2672 22.4196 46.9016C25.434 48.4026 29.2984 49.3394 33.4935 49.6068L32.5069 48.2551C32.1017 47.7 32.2232 46.9217 32.7783 46.5165C33.3333 46.1114 34.1117 46.2329 34.5167 46.7879L37.0049 50.1968ZM54.2422 35.1622C53.7269 34.7075 52.9407 34.7565 52.486 35.2716C52.0312 35.7867 52.0803 36.5731 52.5954 37.0277C54.0225 38.2873 54.746 39.6159 54.746 40.9767C54.746 43.1725 52.8727 44.8737 51.3013 45.9142C48.9167 47.4933 45.4919 48.6838 41.658 49.2669C40.9787 49.3701 40.5117 50.0046 40.615 50.6838V50.6839C40.7182 51.3633 41.3526 51.8302 42.032 51.727C46.2762 51.0816 49.9568 49.789 52.6752 47.989C55.6578 46.0141 57.2344 43.5893 57.2344 40.9769C57.2344 38.9007 56.1998 36.89 54.2422 35.1622ZM28.191 30.1936C28.9254 30.9423 29.3792 31.9676 29.3792 33.0968C29.3792 35.3837 27.5188 37.2441 25.2319 37.2441C23.1744 37.2441 21.4086 35.7092 21.1245 33.6737C21.098 33.4833 21.0845 33.2892 21.0845 33.0968C21.0845 32.4097 21.6415 31.8526 22.3287 31.8526C23.016 31.8526 23.573 32.4096 23.573 33.0968C23.573 33.1744 23.5785 33.2529 23.5891 33.3298C23.7025 34.1428 24.4088 34.7558 25.2319 34.7558C26.1467 34.7558 26.8909 34.0116 26.8909 33.0968C26.8909 32.1821 26.1467 31.4379 25.2319 31.4379C24.5448 31.4379 23.9877 30.8808 23.9877 30.1936C23.9877 29.5065 24.5447 28.9494 25.2319 28.9494C26.1467 28.9494 26.8909 28.2052 26.8909 27.2906C26.8909 26.3758 26.1467 25.6316 25.2319 25.6316C24.4408 25.6316 23.7562 26.1935 23.604 26.9677C23.4716 27.642 22.8175 28.0811 22.1434 27.9487C21.4692 27.8162 21.0299 27.1622 21.1624 26.488C21.5432 24.5499 23.2547 23.1432 25.2319 23.1432C27.5188 23.1432 29.3792 25.0037 29.3792 27.2906C29.3791 28.4198 28.9254 29.4451 28.191 30.1936ZM40.3154 32.6055C40.3154 35.1633 38.2345 37.2441 35.6767 37.2441C33.1189 37.2441 31.038 35.1633 31.038 32.6055C31.038 32.363 31.0569 32.125 31.0929 31.8925C31.7545 26.4211 35.589 23.5108 35.7525 23.3891C36.304 22.979 37.0832 23.0935 37.4934 23.6448C37.9025 24.195 37.7896 24.9721 37.2416 25.3828C37.2156 25.4027 36.0427 26.3114 35.0149 28.0148C35.2312 27.9837 35.4521 27.9668 35.6768 27.9668C38.2345 27.9668 40.3154 30.0476 40.3154 32.6055ZM37.827 32.6055C37.827 31.4197 36.8625 30.4552 35.6768 30.4552C34.4911 30.4552 33.5265 31.4197 33.5265 32.6055C33.5265 33.7912 34.4911 34.7558 35.6768 34.7558C36.8625 34.7558 37.827 33.7912 37.827 32.6055ZM50.9155 32.7737V27.614C50.9155 25.149 48.9101 23.1434 46.4451 23.1434C43.98 23.1434 41.9745 25.149 41.9745 27.614V32.7737C41.9745 35.2387 43.98 37.2443 46.4451 37.2443C48.9101 37.2443 50.9155 35.2387 50.9155 32.7737ZM48.4272 27.6138V32.7735C48.4272 33.8665 47.538 34.7558 46.4451 34.7558C45.3521 34.7558 44.4628 33.8665 44.4628 32.7735V27.6138C44.4628 26.5209 45.3521 25.6316 46.4451 25.6316C47.538 25.6317 48.4272 26.5209 48.4272 27.6138ZM57.2344 20.2402C57.2344 18.182 55.56 16.5076 53.5018 16.5076C51.4436 16.5076 49.7692 18.182 49.7692 20.2402C49.7692 22.2984 51.4436 23.9728 53.5018 23.9728C55.56 23.9728 57.2344 22.2984 57.2344 20.2402ZM54.746 20.2402C54.746 20.9263 54.1879 21.4844 53.5018 21.4844C52.8157 21.4844 52.2575 20.9263 52.2575 20.2402C52.2575 19.5541 52.8157 18.9959 53.5018 18.9959C54.1879 18.9959 54.746 19.5541 54.746 20.2402Z" fill="white"/>
</g>
<defs>
<linearGradient id="paint0_linear_889_262" x1="72" y1="0" x2="0" y2="0" gradientUnits="userSpaceOnUse">
<stop stop-color="#FF8911"/>
<stop offset="1" stop-color="#F83600"/>
</linearGradient>
<clipPath id="clip0_889_262">
<rect width="72" height="72" fill="white"/>
</clipPath>
</defs>
</svg>
