<svg width="56" height="56" viewBox="0 0 56 56" fill="none" xmlns="http://www.w3.org/2000/svg">
<path d="M15.75 14.875V16.625C15.75 16.8571 15.6578 17.0796 15.4937 17.2437C15.3296 17.4078 15.1071 17.5 14.875 17.5H13.125C12.8929 17.5 12.6704 17.4078 12.5063 17.2437C12.3422 17.0796 12.25 16.8571 12.25 16.625V14.875C12.25 14.6429 12.3422 14.4204 12.5063 14.2563C12.6704 14.0922 12.8929 14 13.125 14H14.875C15.1071 14 15.3296 14.0922 15.4937 14.2563C15.6578 14.4204 15.75 14.6429 15.75 14.875ZM18.375 17.5H28.875C29.1071 17.5 29.3296 17.4078 29.4937 17.2437C29.6578 17.0796 29.75 16.8571 29.75 16.625V14.875C29.75 14.6429 29.6578 14.4204 29.4937 14.2563C29.3296 14.0922 29.1071 14 28.875 14H18.375C18.1429 14 17.9204 14.0922 17.7563 14.2563C17.5922 14.4204 17.5 14.6429 17.5 14.875V16.625C17.5 16.8571 17.5922 17.0796 17.7563 17.2437C17.9204 17.4078 18.1429 17.5 18.375 17.5ZM14.875 21H13.125C12.8929 21 12.6704 21.0922 12.5063 21.2563C12.3422 21.4204 12.25 21.6429 12.25 21.875V23.625C12.25 23.8571 12.3422 24.0796 12.5063 24.2437C12.6704 24.4078 12.8929 24.5 13.125 24.5H14.875C15.1071 24.5 15.3296 24.4078 15.4937 24.2437C15.6578 24.0796 15.75 23.8571 15.75 23.625V21.875C15.75 21.6429 15.6578 21.4204 15.4937 21.2563C15.3296 21.0922 15.1071 21 14.875 21ZM18.375 24.5H28.875C29.1071 24.5 29.3296 24.4078 29.4937 24.2437C29.6578 24.0796 29.75 23.8571 29.75 23.625V21.875C29.75 21.6429 29.6578 21.4204 29.4937 21.2563C29.3296 21.0922 29.1071 21 28.875 21H18.375C18.1429 21 17.9204 21.0922 17.7563 21.2563C17.5922 21.4204 17.5 21.6429 17.5 21.875V23.625C17.5 23.8571 17.5922 24.0796 17.7563 24.2437C17.9204 24.4078 18.1429 24.5 18.375 24.5ZM14.875 28H13.125C12.8929 28 12.6704 28.0922 12.5063 28.2563C12.3422 28.4204 12.25 28.6429 12.25 28.875V30.625C12.25 30.8571 12.3422 31.0796 12.5063 31.2437C12.6704 31.4078 12.8929 31.5 13.125 31.5H14.875C15.1071 31.5 15.3296 31.4078 15.4937 31.2437C15.6578 31.0796 15.75 30.8571 15.75 30.625V28.875C15.75 28.6429 15.6578 28.4204 15.4937 28.2563C15.3296 28.0922 15.1071 28 14.875 28ZM21.875 28H18.375C18.1429 28 17.9204 28.0922 17.7563 28.2563C17.5922 28.4204 17.5 28.6429 17.5 28.875V30.625C17.5 30.8571 17.5922 31.0796 17.7563 31.2437C17.9204 31.4078 18.1429 31.5 18.375 31.5H21.875C22.1071 31.5 22.3296 31.4078 22.4937 31.2437C22.6578 31.0796 22.75 30.8571 22.75 30.625V28.875C22.75 28.6429 22.6578 28.4204 22.4937 28.2563C22.3296 28.0922 22.1071 28 21.875 28ZM49.6527 26.8328L48.3473 25.6672C48.2615 25.5907 48.1616 25.5318 48.0531 25.4939C47.9446 25.456 47.8297 25.4399 47.715 25.4464C47.6003 25.4529 47.4879 25.4819 47.3844 25.5318C47.2809 25.5817 47.1883 25.6515 47.1117 25.7372L43.5418 29.736C41.6895 27.9293 39.3112 26.7576 36.75 26.39V10.5C36.75 7.6055 34.3945 5.25 31.5 5.25H10.5C7.6055 5.25 5.25 7.6055 5.25 10.5V35C5.25 37.8945 7.6055 40.25 10.5 40.25H22.89C23.744 46.1755 28.8417 50.75 35 50.75C41.755 50.75 47.25 45.255 47.25 38.5C47.25 36.3475 46.6865 34.3245 45.7065 32.564L49.7228 28.0682C49.7993 27.9825 49.8582 27.8826 49.8961 27.7741C49.934 27.6656 49.9501 27.5507 49.9436 27.436C49.9371 27.3213 49.9081 27.209 49.8582 27.1054C49.8083 27.0019 49.7385 26.9093 49.6527 26.8328ZM8.75 35V10.5C8.75 10.0359 8.93437 9.59075 9.26256 9.26256C9.59075 8.93437 10.0359 8.75 10.5 8.75H31.5C31.9641 8.75 32.4093 8.93437 32.7374 9.26256C33.0656 9.59075 33.25 10.0359 33.25 10.5V26.39C30.6379 26.7712 28.2186 27.9854 26.352 29.852C24.4854 31.7186 23.2712 34.1379 22.89 36.75H10.5C10.0359 36.75 9.59075 36.5656 9.26256 36.2374C8.93437 35.9093 8.75 35.4641 8.75 35ZM43.75 38.5C43.75 43.3247 39.8247 47.25 35 47.25C30.1753 47.25 26.25 43.3247 26.25 38.5C26.25 33.6753 30.1753 29.75 35 29.75C37.4272 29.75 39.6235 30.7457 41.209 32.347L36.1095 38.059L33.418 34.6115C33.3472 34.5209 33.2593 34.4452 33.1593 34.3886C33.0592 34.332 32.949 34.2957 32.8349 34.2817C32.7208 34.2678 32.6051 34.2764 32.4944 34.3072C32.3836 34.3379 32.28 34.3902 32.1895 34.461L30.8105 35.5372C30.7199 35.608 30.6442 35.6959 30.5876 35.796C30.531 35.896 30.4947 36.0062 30.4807 36.1203C30.4668 36.2344 30.4754 36.3501 30.5062 36.4609C30.5369 36.5716 30.5892 36.6752 30.66 36.7658L34.6395 41.8635C34.7971 42.0654 34.9972 42.2302 35.2255 42.3463C35.4538 42.4624 35.7048 42.527 35.9608 42.5355H36.0185C36.5155 42.5355 36.9915 42.3255 37.324 41.9528L43.1603 35.4165C43.526 36.379 43.75 37.4115 43.75 38.5Z" fill="url(#paint0_linear_97_763)"/>
<defs>
<linearGradient id="paint0_linear_97_763" x1="49.945" y1="5.25" x2="5.25" y2="5.25" gradientUnits="userSpaceOnUse">
<stop stop-color="#FF8911"/>
<stop offset="1" stop-color="#F83600"/>
</linearGradient>
</defs>
</svg>