<svg width="24" height="24" viewBox="0 0 24 24" fill="none" xmlns="http://www.w3.org/2000/svg">
<g clip-path="url(#clip0_707_698)">
<path d="M18.5912 9.10896C18.5264 9.02786 18.448 9.0438 18.4069 9.06035C18.3724 9.07432 18.2935 9.11894 18.3044 9.23078C18.3175 9.36508 18.3249 9.502 18.3263 9.6378C18.3321 10.2011 18.1061 10.753 17.7063 11.152C17.309 11.5484 16.7864 11.7619 16.23 11.7558C15.47 11.746 14.8396 11.3496 14.407 10.6093C14.0493 9.99719 14.2065 9.20767 14.373 8.37175C14.4704 7.88247 14.5711 7.3765 14.5711 6.89496C14.5711 3.14547 12.0505 0.982284 10.5479 0.0265498C10.5169 0.00681543 10.4873 -0.00012207 10.4611 -0.00012207C10.4185 -0.00012207 10.3847 0.0182529 10.3681 0.0295029C10.3358 0.0513467 10.2842 0.101128 10.3008 0.189253C10.8751 3.23903 9.16212 5.0733 7.34852 7.01524C5.47915 9.01694 3.36035 11.2857 3.36035 15.3776C3.36035 20.132 7.22834 24 11.9828 24C15.8974 24 19.3489 21.2707 20.376 17.3629C21.0764 14.6984 20.3424 11.3043 18.5912 9.10896ZM12.1979 22.1595C11.0074 22.2138 9.87513 21.7868 9.01034 20.9599C8.15482 20.1419 7.66413 19.0002 7.66413 17.8277C7.66413 15.6273 8.50545 14.012 10.7683 11.8676C10.8053 11.8325 10.8432 11.8214 10.8763 11.8214C10.9062 11.8214 10.9322 11.8305 10.9501 11.8391C10.9877 11.8572 11.0496 11.9021 11.0412 11.9993C10.9603 12.9408 10.9617 13.7222 11.0454 14.322C11.2591 15.8541 12.3807 16.8836 13.8364 16.8836C14.5501 16.8836 15.2299 16.615 15.7507 16.1272C15.8111 16.0706 15.8786 16.0778 15.9045 16.0833C15.9387 16.0907 15.9846 16.1117 16.0087 16.1697C16.2246 16.691 16.3349 17.2443 16.3366 17.8143C16.3435 20.1077 14.4869 22.057 12.1979 22.1595Z" fill="white"/>
</g>
<defs>
<clipPath id="clip0_707_698">
<rect width="24" height="24" fill="white"/>
</clipPath>
</defs>
</svg>
