<svg width="32" height="32" viewBox="0 0 32 32" fill="none" xmlns="http://www.w3.org/2000/svg">
<g id="fi_17140216">
<path id="Vector" d="M18.1357 7.69354C18.7966 7.85776 19.4086 8.17723 19.921 8.62538C20.4333 9.07354 20.8311 9.63741 21.0812 10.2701L21.2928 10.8528C21.6423 11.3104 21.7873 10.5834 21.9105 10.27C22.1107 9.72993 22.4254 9.23944 22.8331 8.8322C23.2409 8.42495 23.7319 8.11058 24.2726 7.91063C24.528 7.78826 25.0249 7.72486 24.999 7.49362C25.0262 7.26228 24.4879 7.18674 24.2726 7.08224C23.6394 6.83315 23.0751 6.43598 22.6273 5.92405C22.1795 5.41212 21.8611 4.80037 21.6989 4.14013C21.6833 4.09894 21.6556 4.06346 21.6193 4.03843C21.583 4.0134 21.54 4 21.4959 4C21.4518 4 21.4087 4.01342 21.3725 4.03846C21.3362 4.0635 21.3084 4.09898 21.2928 4.14017C21.1306 4.80041 20.8123 5.41216 20.3644 5.92408C19.9166 6.436 19.3523 6.83316 18.7191 7.08223L18.1357 7.29364C18.0957 7.30958 18.0613 7.33715 18.0371 7.3728C18.0129 7.40845 18 7.45052 18 7.49359C18 7.53665 18.0129 7.57873 18.0371 7.61438C18.0613 7.65002 18.0957 7.6776 18.1357 7.69354Z" fill="url(#paint0_linear_1271_1234)"/>
<path id="Vector_2" d="M1.17762 17.2998C1.78692 17.494 2.3292 17.9167 2.72608 18.5069C2.95737 18.897 3.13134 19.3321 3.24041 19.7932C3.26154 19.8544 3.29724 19.9067 3.34301 19.9435C3.38878 19.9804 3.44256 20 3.49758 20C3.5526 20 3.60639 19.9804 3.65216 19.9435C3.69792 19.9067 3.73362 19.8544 3.75475 19.7932C3.85847 19.2742 4.06424 18.7929 4.3547 18.3899C4.64516 17.9869 5.01178 17.6741 5.42361 17.4779L5.81751 17.2998C6.13171 17.1245 6.00774 16.6884 5.69167 16.627C5.21996 16.4621 4.7926 16.1502 4.45259 15.723C4.11258 15.2957 3.87191 14.7679 3.75479 14.1929C3.73113 14.135 3.69451 14.0863 3.64905 14.0522C3.60359 14.0181 3.55113 14 3.49759 14C3.44405 14 3.39159 14.0181 3.34613 14.0522C3.30068 14.0863 3.26406 14.1351 3.24041 14.193L3.09815 14.6679C2.93575 15.1646 2.67639 15.6068 2.34206 15.9571C2.00773 16.3073 1.60829 16.5551 1.1776 16.6797C1.12539 16.7035 1.08043 16.7459 1.04871 16.8013C1.01699 16.8567 0.999998 16.9224 1 16.9897C1 17.057 1.017 17.1227 1.04872 17.1781C1.08045 17.2335 1.12541 17.2759 1.17762 17.2998Z" fill="url(#paint1_linear_1271_1234)"/>
<path id="Vector_3" d="M30.8619 21.2935C30.2255 21.125 29.6594 20.7576 29.2458 20.2447C29 19.9045 28.8135 19.5251 28.694 19.1227C28.6758 19.0858 28.6478 19.0548 28.6129 19.0332C28.5781 19.0115 28.5379 19 28.4969 19C28.4559 19 28.4157 19.0115 28.3809 19.0332C28.3461 19.0548 28.318 19.0858 28.2998 19.1227C28.189 19.5759 27.9711 19.9958 27.6644 20.3471C27.3576 20.6984 26.9711 20.9708 26.5374 21.1413L26.132 21.2935C26.0929 21.3096 26.0595 21.337 26.036 21.3721C26.0125 21.4072 26 21.4486 26 21.4908C26 21.5331 26.0125 21.5745 26.036 21.6096C26.0595 21.6447 26.0929 21.6721 26.132 21.6882C26.2349 21.7255 26.4362 21.8035 26.5374 21.8404C26.9704 22.0121 27.3563 22.2848 27.6628 22.636C27.9693 22.9871 28.1877 23.4064 28.2998 23.859C28.315 23.8995 28.3418 23.9344 28.3769 23.9595C28.412 23.9846 28.4538 23.9987 28.4969 24C28.5404 24.0003 28.5829 23.9868 28.6183 23.9615C28.6537 23.9362 28.6801 23.9003 28.694 23.859C28.8048 23.4058 29.0227 22.9859 29.3294 22.6346C29.6362 22.2833 30.0227 22.011 30.4564 21.8405L30.8618 21.6882C30.9023 21.6735 30.9373 21.6467 30.962 21.6114C30.9867 21.576 31 21.534 31 21.4909C31 21.4477 30.9867 21.4057 30.962 21.3703C30.9373 21.335 30.9023 21.3082 30.8619 21.2935Z" fill="url(#paint2_linear_1271_1234)"/>
<path id="Vector_4" d="M31.3743 18.3985L25.1857 15C24.4853 15.3886 17.879 19.0152 17 19.5031C17.8897 19.9966 24.4918 23.6096 25.1857 24L25.894 23.6116C25.5035 23.3725 24.9522 23.3156 24.6574 22.9197C24.5401 22.7814 24.4494 22.6207 24.3904 22.4464V21.4875C24.7424 20.3521 26.284 20.6459 26.608 19.4362C26.6565 19.1533 26.7723 18.8878 26.9448 18.664C27.1173 18.4402 27.3409 18.2654 27.595 18.1558L28.3671 18.1558C28.5904 18.1844 28.8013 18.279 28.975 18.4284C29.1488 18.5777 29.2782 18.7758 29.3482 18.9993C29.4453 19.3869 29.626 19.746 29.8765 20.0492C30.1889 20.425 30.732 20.4966 31.1247 20.735C31.3552 20.6641 31.5605 20.5236 31.7148 20.3312C31.8692 20.1388 31.9658 19.903 31.9925 19.6535C32.0191 19.4039 31.9747 19.1517 31.8647 18.9284C31.7548 18.7052 31.5842 18.5208 31.3743 18.3985Z" fill="url(#paint3_linear_1271_1234)"/>
<path id="Vector_5" d="M16.0057 19C16.8746 18.5007 23.3098 14.7744 24 14.3753L16.817 10.2244C16.5656 10.0771 16.285 10 16 10C15.715 10 15.4344 10.0771 15.183 10.2244L8 14.3691C8.63601 14.7257 15.1842 18.5313 16.0057 19Z" fill="url(#paint4_linear_1271_1234)"/>
<path id="Vector_6" d="M15 19.5061C14.1048 19.0082 7.51299 15.3881 6.81047 15L6.16042 15.3578C6.21944 15.3942 6.28163 15.4247 6.34615 15.4488C7.87757 15.7737 8.25484 17.7831 6.75817 18.4569L6.34615 18.6145C6.06876 18.7408 5.82467 18.9352 5.63468 19.1812C5.4447 19.4273 5.31444 19.7176 5.25502 20.0276C5.14721 20.313 4.95976 20.5578 4.71703 20.7303C4.47429 20.9029 4.1875 20.9951 3.89392 20.9951C3.60034 20.9951 3.31356 20.9028 3.07083 20.7303C2.82811 20.5577 2.64067 20.3129 2.53289 20.0275C2.47661 19.7171 2.34819 19.4259 2.15893 19.1795C1.96966 18.9332 1.72535 18.7392 1.44749 18.6146L1.02961 18.4569C0.940096 18.4223 0.854463 18.3775 0.774225 18.3235L0.623376 18.4023C0.434708 18.51 0.27726 18.6687 0.167569 18.8618C0.0578792 19.055 -4.15472e-06 19.2754 2.2367e-10 19.5C4.15517e-06 19.7246 0.0578956 19.9451 0.167593 20.1383C0.27729 20.3314 0.434745 20.4901 0.623417 20.5977L6.8163 24C7.51538 23.6109 14.1215 19.9929 15 19.5061Z" fill="url(#paint5_linear_1271_1234)"/>
<path id="Vector_7" d="M16.0057 20C15.1294 20.4485 8.69692 23.7574 8 24.114L15.183 27.8066C15.4357 27.9337 15.7158 28 16 28C16.2842 28 16.5643 27.9337 16.817 27.8066L24 24.114C23.3715 23.797 16.8224 20.4135 16.0057 20Z" fill="url(#paint6_linear_1271_1234)"/>
<path id="Vector_8" d="M11 11C11.5321 10.9964 12.0408 10.8367 12.4153 10.5558C12.7899 10.2749 13 9.89544 13 9.49998C13 9.10452 12.7899 8.72506 12.4153 8.44416C12.0407 8.16325 11.5321 8.00362 11 8C10.4679 8.00364 9.9592 8.16327 9.58466 8.44419C9.21012 8.7251 8.99999 9.10456 9 9.50002C9.00001 9.89548 9.21015 10.2749 9.5847 10.5558C9.95925 10.8367 10.4679 10.9964 11 11Z" fill="url(#paint7_linear_1271_1234)"/>
<path id="Vector_9" d="M4.50003 10C5.16538 9.99336 5.80119 9.72703 6.26931 9.25891C6.73742 8.79078 7.00001 8.15868 7 7.49997C6.99999 6.84126 6.73739 6.20917 6.26927 5.74105C5.80114 5.27294 5.16532 5.00663 4.49997 5C3.83462 5.00664 3.19881 5.27297 2.73069 5.74109C2.26258 6.20922 1.99999 6.84132 2 7.50003C2.00001 8.15874 2.26261 8.79083 2.73073 9.25895C3.19886 9.72706 3.83468 9.99337 4.50003 10Z" fill="url(#paint8_linear_1271_1234)"/>
</g>
<defs>
<linearGradient id="paint0_linear_1271_1234" x1="25" y1="4" x2="18" y2="4" gradientUnits="userSpaceOnUse">
<stop stop-color="#FF8911"/>
<stop offset="1" stop-color="#F83600"/>
</linearGradient>
<linearGradient id="paint1_linear_1271_1234" x1="6" y1="14" x2="1" y2="14" gradientUnits="userSpaceOnUse">
<stop stop-color="#FF8911"/>
<stop offset="1" stop-color="#F83600"/>
</linearGradient>
<linearGradient id="paint2_linear_1271_1234" x1="31" y1="19" x2="26" y2="19" gradientUnits="userSpaceOnUse">
<stop stop-color="#FF8911"/>
<stop offset="1" stop-color="#F83600"/>
</linearGradient>
<linearGradient id="paint3_linear_1271_1234" x1="32" y1="15" x2="17" y2="15" gradientUnits="userSpaceOnUse">
<stop stop-color="#FF8911"/>
<stop offset="1" stop-color="#F83600"/>
</linearGradient>
<linearGradient id="paint4_linear_1271_1234" x1="24" y1="10" x2="8" y2="10" gradientUnits="userSpaceOnUse">
<stop stop-color="#FF8911"/>
<stop offset="1" stop-color="#F83600"/>
</linearGradient>
<linearGradient id="paint5_linear_1271_1234" x1="15" y1="15" x2="0" y2="15" gradientUnits="userSpaceOnUse">
<stop stop-color="#FF8911"/>
<stop offset="1" stop-color="#F83600"/>
</linearGradient>
<linearGradient id="paint6_linear_1271_1234" x1="24" y1="20" x2="8" y2="20" gradientUnits="userSpaceOnUse">
<stop stop-color="#FF8911"/>
<stop offset="1" stop-color="#F83600"/>
</linearGradient>
<linearGradient id="paint7_linear_1271_1234" x1="13" y1="8" x2="9" y2="8" gradientUnits="userSpaceOnUse">
<stop stop-color="#FF8911"/>
<stop offset="1" stop-color="#F83600"/>
</linearGradient>
<linearGradient id="paint8_linear_1271_1234" x1="7" y1="5" x2="2" y2="5" gradientUnits="userSpaceOnUse">
<stop stop-color="#FF8911"/>
<stop offset="1" stop-color="#F83600"/>
</linearGradient>
</defs>
</svg>
