<svg width="32" height="32" viewBox="0 0 32 32" fill="none" xmlns="http://www.w3.org/2000/svg">
<g id="fi_12289865">
<g id="Layer 2">
<path id="Vector" d="M26.9579 6.17838C25.0569 3.98046 20.9606 2.66666 16.0022 2.66666H16.0009C11.0419 2.66666 6.94558 3.97916 5.04388 6.17838C1.88891 9.82811 1.88891 19.5052 5.04452 23.1562C5.67287 23.8433 6.41428 24.4176 7.23659 24.8542L7.67995 27.5195C7.75283 27.959 7.93472 28.3733 8.209 28.7243C8.48329 29.0754 8.84121 29.3521 9.25003 29.5292C9.65886 29.7063 10.1056 29.778 10.5493 29.7379C10.993 29.6977 11.4195 29.547 11.79 29.2995L15.4332 26.8698C15.6558 26.7263 15.9158 26.6516 16.1806 26.655C21.0621 26.6224 25.0907 25.3138 26.9579 23.155C30.1129 19.5052 30.1129 9.82811 26.9579 6.17838ZM16.0009 7.66666C16.3305 7.66666 16.6528 7.7644 16.9269 7.94754C17.2009 8.13068 17.4146 8.39097 17.5407 8.69552C17.6669 9.00006 17.6999 9.33517 17.6356 9.65847C17.5712 9.98178 17.4125 10.2787 17.1794 10.5118C16.9463 10.7449 16.6494 10.9037 16.3261 10.968C16.0028 11.0323 15.6676 10.9993 15.3631 10.8731C15.0586 10.747 14.7983 10.5334 14.6151 10.2593C14.432 9.98519 14.3342 9.66296 14.3342 9.33332C14.3342 9.11445 14.3773 8.89772 14.4611 8.6955C14.5448 8.49329 14.6676 8.30955 14.8224 8.15479C14.9771 8.00002 15.1609 7.87726 15.3631 7.7935C15.5653 7.70975 15.782 7.66665 16.0009 7.66666ZM17.3342 22H14.6676C14.314 22 13.9748 21.8595 13.7248 21.6095C13.4747 21.3594 13.3342 21.0203 13.3342 20.6667C13.3342 20.313 13.4747 19.9739 13.7248 19.7238C13.9748 19.4738 14.314 19.3333 14.6676 19.3333V15.3333C14.314 15.3333 13.9748 15.1928 13.7248 14.9428C13.4747 14.6927 13.3342 14.3536 13.3342 14C13.3342 13.6464 13.4747 13.3072 13.7248 13.0572C13.9748 12.8071 14.314 12.6667 14.6676 12.6667H16.0009C16.176 12.6666 16.3494 12.7011 16.5112 12.7681C16.673 12.835 16.82 12.9333 16.9438 13.0571C17.0676 13.1809 17.1659 13.3279 17.2328 13.4897C17.2998 13.6515 17.3343 13.8249 17.3342 14V19.3333C17.6879 19.3333 18.027 19.4738 18.2771 19.7238C18.5271 19.9739 18.6676 20.313 18.6676 20.6667C18.6676 21.0203 18.5271 21.3594 18.2771 21.6095C18.027 21.8595 17.6879 22 17.3342 22Z" fill="url(#paint0_linear_1197_544)"/>
</g>
</g>
<defs>
<linearGradient id="paint0_linear_1197_544" x1="29.3242" y1="2.66666" x2="2.67773" y2="2.66666" gradientUnits="userSpaceOnUse">
<stop stop-color="#FF8911"/>
<stop offset="1" stop-color="#F83600"/>
</linearGradient>
</defs>
</svg>
