<svg width="32" height="32" viewBox="0 0 32 32" fill="none" xmlns="http://www.w3.org/2000/svg">
<g id="location (1) 1">
<path id="Vector" d="M15.4545 31.885C15.8064 32.0381 16.2083 32.0381 16.5602 31.885C20.7227 30.0725 29.262 21.4275 29.262 13.2475C29.262 5.93125 23.3308 0 16.0145 0H15.9864C8.66953 0 2.73828 5.93125 2.73828 13.2475C2.73828 21.4281 11.2908 30.0731 15.4539 31.885H15.4545ZM16.0002 7.90812C18.8083 7.90812 21.0845 10.1844 21.0845 12.9925C21.0845 15.8006 18.8083 18.0769 16.0002 18.0769C13.192 18.0769 10.9158 15.8006 10.9158 12.9925C10.9158 10.1844 13.192 7.90812 16.0002 7.90812Z" fill="url(#paint0_linear_1212_585)"/>
</g>
<defs>
<linearGradient id="paint0_linear_1212_585" x1="29.262" y1="0" x2="2.73828" y2="0" gradientUnits="userSpaceOnUse">
<stop stop-color="#FF8911"/>
<stop offset="1" stop-color="#F83600"/>
</linearGradient>
</defs>
</svg>
