<svg width="16" height="17" viewBox="0 0 16 17" fill="none" xmlns="http://www.w3.org/2000/svg">
<g clip-path="url(#clip0_1263_553)">
<path d="M15.9994 8.50006C15.9994 7.36939 15.4261 6.37272 14.554 5.78472C14.7547 4.75272 14.4554 3.64272 13.656 2.84272C12.8567 2.04339 11.7467 1.74406 10.714 1.94472C10.126 1.07272 9.12938 0.49939 7.99871 0.49939C6.86805 0.49939 5.87138 1.07272 5.28338 1.94472C4.25138 1.74406 3.14071 2.04339 2.34138 2.84272C1.54205 3.64206 1.24271 4.75206 1.44338 5.78472C0.57138 6.37272 -0.00195312 7.36939 -0.00195312 8.50006C-0.00195312 9.63072 0.57138 10.6274 1.44338 11.2154C1.24271 12.2474 1.54205 13.3581 2.34138 14.1574C3.14071 14.9567 4.25071 15.2561 5.28338 15.0554C5.87138 15.9274 6.86805 16.5007 7.99871 16.5007C9.12938 16.5007 10.126 15.9274 10.714 15.0554C11.746 15.2561 12.8567 14.9567 13.656 14.1574C14.4554 13.3581 14.7547 12.2481 14.554 11.2154C15.4261 10.6274 15.9994 9.63072 15.9994 8.50006ZM5.33271 6.50006C5.33271 6.13206 5.63138 5.83339 5.99938 5.83339C6.36738 5.83339 6.66605 6.13206 6.66605 6.50006C6.66605 6.86806 6.36738 7.16672 5.99938 7.16672C5.63138 7.16672 5.33271 6.86806 5.33271 6.50006ZM7.17671 11.1667H5.62205L8.82205 5.83339H10.3767L7.17671 11.1667ZM9.99938 11.1667C9.63138 11.1667 9.33272 10.8681 9.33272 10.5001C9.33272 10.1321 9.63138 9.83339 9.99938 9.83339C10.3674 9.83339 10.666 10.1321 10.666 10.5001C10.666 10.8681 10.3674 11.1667 9.99938 11.1667Z" fill="white"/>
</g>
<defs>
<clipPath id="clip0_1263_553">
<rect width="16" height="16" fill="white" transform="translate(0 0.5)"/>
</clipPath>
</defs>
</svg>
