<svg width="76" height="11" viewBox="0 0 76 11" fill="none" xmlns="http://www.w3.org/2000/svg">
<path d="M74 9L68.5394 4.33255C67.0428 3.0534 64.838 3.05339 63.3415 4.33251L60.4794 6.7788C58.9829 8.05785 56.7783 8.05792 55.2817 6.77896L52.4185 4.33202C50.9221 3.05313 48.7176 3.05311 47.2211 4.33198L44.3574 6.77923C42.861 8.05807 40.6566 8.05808 39.1601 6.77927L36.2962 4.33187C34.7997 3.05306 32.5953 3.05308 31.0989 4.33191L28.235 6.77933C26.7386 8.05812 24.5343 8.05819 23.0378 6.77949L20.1729 4.33148C18.6766 3.05285 16.4724 3.05284 14.976 4.33144L12.226 6.68116C10.6799 8.00227 8.38855 7.95295 6.90068 6.56653L2 2" stroke="url(#paint0_linear_584_868)" stroke-width="4" stroke-miterlimit="10"/>
<defs>
<linearGradient id="paint0_linear_584_868" x1="74" y1="2" x2="2" y2="2" gradientUnits="userSpaceOnUse">
<stop stop-color="#FF8911"/>
<stop offset="1" stop-color="#F83600"/>
</linearGradient>
</defs>
</svg>
