<svg width="56" height="56" viewBox="0 0 56 56" fill="none" xmlns="http://www.w3.org/2000/svg">
<path d="M21.021 25.0833C19.0597 25.0833 17.1424 24.5017 15.5116 23.4121C13.8808 22.3224 12.6098 20.7737 11.8592 18.9616C11.1086 17.1496 10.9122 15.1557 11.2949 13.232C11.6775 11.3084 12.622 9.5414 14.0089 8.15453C15.3957 6.76766 17.1627 5.82319 19.0864 5.44055C21.01 5.05791 23.0039 5.2543 24.8159 6.00487C26.628 6.75543 28.1768 8.02648 29.2664 9.65727C30.3561 11.2881 30.9377 13.2053 30.9377 15.1667C30.9346 17.7958 29.8888 20.3163 28.0297 22.1754C26.1707 24.0345 23.6501 25.0803 21.021 25.0833ZM21.021 8.75C19.7519 8.75 18.5113 9.12634 17.4561 9.83141C16.4009 10.5365 15.5784 11.5386 15.0928 12.7111C14.6071 13.8836 14.48 15.1738 14.7276 16.4185C14.9752 17.6632 15.5863 18.8066 16.4837 19.7039C17.3811 20.6013 18.5245 21.2125 19.7692 21.46C21.0139 21.7076 22.3041 21.5806 23.4766 21.0949C24.649 20.6092 25.6512 19.7868 26.3563 18.7316C27.0613 17.6764 27.4377 16.4358 27.4377 15.1667C27.4364 13.4652 26.76 11.8339 25.5569 10.6308C24.3538 9.42768 22.7224 8.75124 21.021 8.75ZM30.3333 50.75H11.6667C6.02 50.75 2.90967 47.6583 2.90967 42.0443C2.90967 35.833 6.42367 28.5833 16.3263 28.5833H25.6597C35.5623 28.5833 39.0763 35.833 39.0763 42.0443C39.0833 47.6583 35.973 50.75 30.3333 50.75ZM16.3333 32.0833C15.001 31.9803 13.6621 32.1676 12.4092 32.6324C11.1563 33.0972 10.0192 33.8283 9.07632 34.7754C8.1335 35.7224 7.40742 36.8628 6.94824 38.1178C6.48905 39.3728 6.30769 40.7124 6.41667 42.0443C6.41667 45.6937 7.98933 47.25 11.6737 47.25H30.3333C34.0177 47.25 35.5903 45.6937 35.5903 42.0443C35.6995 40.7118 35.5179 39.3715 35.0583 38.116C34.5988 36.8605 33.872 35.7197 32.9284 34.7725C31.9848 33.8254 30.8468 33.0944 29.593 32.6301C28.3392 32.1658 26.9996 31.9792 25.6667 32.0833H16.3333ZM38.64 26.11C36.5473 26.1172 34.5358 25.3009 33.04 23.8373C32.7564 23.506 32.6067 23.0807 32.6203 22.6448C32.6338 22.2089 32.8097 21.7938 33.1134 21.4807C33.4171 21.1677 33.8267 20.9794 34.262 20.9526C34.6973 20.9258 35.1269 21.0625 35.4667 21.336C36.3125 22.1606 37.4494 22.6184 38.6307 22.61C39.2361 22.6166 39.8368 22.5021 40.3975 22.2735C40.9581 22.0448 41.4675 21.7064 41.8956 21.2783C42.3238 20.8501 42.6621 20.3408 42.8908 19.7801C43.1195 19.2195 43.2339 18.6188 43.2273 18.0133C43.2255 16.7948 42.7406 15.6267 41.879 14.765C41.0173 13.9034 39.8492 13.4185 38.6307 13.4167C37.9611 13.406 37.2987 13.5556 36.6987 13.853C36.285 14.0637 35.8045 14.1015 35.363 13.9579C34.9215 13.8144 34.5551 13.5014 34.3443 13.0877C34.1336 12.674 34.0959 12.1935 34.2394 11.752C34.3829 11.3105 34.696 10.9441 35.1097 10.7333C36.2041 10.1824 37.4148 9.90237 38.64 9.91667C40.7874 9.91667 42.8468 10.7697 44.3652 12.2881C45.8836 13.8066 46.7367 15.866 46.7367 18.0133C46.7367 20.1607 45.8836 22.2201 44.3652 23.7385C42.8468 25.257 40.7874 26.11 38.64 26.11ZM45.8733 46.0833H44.2867C43.8225 46.0833 43.3774 45.899 43.0492 45.5708C42.721 45.2426 42.5367 44.7975 42.5367 44.3333C42.5367 43.8692 42.721 43.4241 43.0492 43.0959C43.3774 42.7677 43.8225 42.5833 44.2867 42.5833H45.8733C48.545 42.5833 49.5833 41.5567 49.5833 38.92C49.6633 37.9365 49.5289 36.9474 49.1893 36.0209C48.8497 35.0945 48.3131 34.2527 47.6165 33.5539C46.9199 32.8551 46.0799 32.3158 45.1545 31.9732C44.2291 31.6307 43.2404 31.4931 42.2567 31.57H38.7333C38.2692 31.57 37.8241 31.3856 37.4959 31.0574C37.1677 30.7293 36.9833 30.2841 36.9833 29.82C36.9833 29.3559 37.1677 28.9108 37.4959 28.5826C37.8241 28.2544 38.2692 28.07 38.7333 28.07H42.2567C43.7051 27.9749 45.1571 28.1905 46.5154 28.7025C47.8736 29.2144 49.1067 30.0108 50.132 31.0383C51.1573 32.0658 51.951 33.3006 52.4601 34.66C52.9691 36.0193 53.1816 37.4718 53.0833 38.92C53.1831 39.8893 53.0647 40.8687 52.737 41.7864C52.4092 42.704 51.8803 43.5368 51.1891 44.2235C50.4978 44.9103 49.6617 45.4338 48.7419 45.7556C47.8221 46.0774 46.842 46.1894 45.8733 46.0833Z" fill="url(#paint0_linear_587_1049)"/>
<defs>
<linearGradient id="paint0_linear_587_1049" x1="53.1177" y1="5.25" x2="2.90967" y2="5.25" gradientUnits="userSpaceOnUse">
<stop stop-color="#FF8911"/>
<stop offset="1" stop-color="#F83600"/>
</linearGradient>
</defs>
</svg>
