<svg width="16" height="17" viewBox="0 0 16 17" fill="none" xmlns="http://www.w3.org/2000/svg">
<g clip-path="url(#clip0_396_281)">
<path d="M13.6939 8.21559C13.2755 7.03662 12.5574 5.98688 11.6103 5.16967C10.419 4.16002 9.64753 2.74196 9.4471 1.19328C9.42323 1.04628 9.35856 0.908949 9.26047 0.796904C9.16238 0.684858 9.03479 0.602606 8.89225 0.559511C8.7497 0.516416 8.59792 0.514209 8.45418 0.553143C8.31044 0.592076 8.18053 0.670585 8.07922 0.779731C7.53479 1.48432 7.17054 2.31113 7.01809 3.1884C6.86565 4.06568 6.9296 4.9669 7.20441 5.81385C7.58614 7.35669 7.29984 7.9452 7.15669 8.12811C7.08524 8.21812 6.99272 8.28914 6.88731 8.33492C6.78189 8.38069 6.66683 8.3998 6.55228 8.39055C5.27188 8.39055 5.20826 5.64684 5.20826 5.61503C5.20717 5.45389 5.15716 5.29689 5.06485 5.16481C4.97253 5.03273 4.84228 4.93181 4.69133 4.87542C4.53909 4.81771 4.3728 4.80812 4.21493 4.84794C4.05706 4.88777 3.91522 4.97508 3.80857 5.0981C3.04824 6.02688 2.50484 7.11368 2.21801 8.27921C1.29549 12.7566 3.6177 14.8641 4.65952 15.5481C5.57874 16.1488 6.65509 16.4642 7.75315 16.4547C9.36484 16.4561 10.9148 15.835 12.0795 14.721C12.9273 13.8943 13.5276 12.8474 13.8128 11.6981C14.098 10.5488 14.0568 9.34275 13.6939 8.21559Z" fill="white"/>
</g>
<defs>
<clipPath id="clip0_396_281">
<rect width="16" height="16" fill="white" transform="translate(0 0.5)"/>
</clipPath>
</defs>
</svg>