<svg width="40" height="40" viewBox="0 0 40 40" fill="none" xmlns="http://www.w3.org/2000/svg">
<g clip-path="url(#clip0_1189_358)">
<path d="M20 40C31.0457 40 40 31.0457 40 20C40 8.95431 31.0457 0 20 0C8.95431 0 0 8.95431 0 20C0 31.0457 8.95431 40 20 40Z" fill="url(#paint0_linear_1189_358)"/>
<path d="M24.2489 8.88867H15.76C11.9733 8.88867 8.89777 11.9642 8.89777 15.7509V24.2398C8.89777 28.0265 11.9733 31.102 15.76 31.102H24.2489C28.0355 31.102 31.1111 28.0265 31.1111 24.2398V15.7509C31.1111 11.9642 28.0355 8.88867 24.2489 8.88867ZM28.6311 24.2487C28.6311 26.6664 26.6667 28.6398 24.24 28.6398H15.7511C13.3333 28.6398 11.36 26.6753 11.36 24.2487V15.7598C11.36 13.342 13.3244 11.3687 15.7511 11.3687H24.24C26.6578 11.3687 28.6311 13.3331 28.6311 15.7598V24.2487Z" fill="white"/>
<path d="M20 14.3203C16.8711 14.3203 14.32 16.8714 14.32 20.0003C14.32 23.1292 16.8711 25.6803 20 25.6803C23.1289 25.6803 25.68 23.1292 25.68 20.0003C25.68 16.8714 23.1289 14.3203 20 14.3203ZM20 23.4492C18.0978 23.4492 16.5511 21.9025 16.5511 20.0003C16.5511 18.0981 18.0978 16.5514 20 16.5514C21.9022 16.5514 23.4489 18.0981 23.4489 20.0003C23.4489 21.9025 21.9022 23.4492 20 23.4492Z" fill="white"/>
<path d="M26.1126 14.9426C26.6359 14.8578 26.9914 14.3648 26.9065 13.8415C26.8217 13.3182 26.3287 12.9627 25.8054 13.0476C25.2821 13.1324 24.9266 13.6254 25.0115 14.1487C25.0963 14.672 25.5893 15.0274 26.1126 14.9426Z" fill="white"/>
</g>
<defs>
<linearGradient id="paint0_linear_1189_358" x1="4.77147" y1="35.2285" x2="33.1937" y2="6.80631" gradientUnits="userSpaceOnUse">
<stop stop-color="#FEE411"/>
<stop offset="0.0518459" stop-color="#FEDB16"/>
<stop offset="0.1381" stop-color="#FEC125"/>
<stop offset="0.2481" stop-color="#FE983D"/>
<stop offset="0.3762" stop-color="#FE5F5E"/>
<stop offset="0.5" stop-color="#FE2181"/>
<stop offset="1" stop-color="#9000DC"/>
</linearGradient>
<clipPath id="clip0_1189_358">
<rect width="40" height="40" fill="white"/>
</clipPath>
</defs>
</svg>
