<svg width="40" height="40" viewBox="0 0 40 40" fill="none" xmlns="http://www.w3.org/2000/svg">
<g clip-path="url(#clip0_1189_373)">
<path d="M20 40C31.0457 40 40 31.0457 40 20C40 8.95431 31.0457 0 20 0C8.95431 0 0 8.95431 0 20C0 31.0457 8.95431 40 20 40Z" fill="#0B69C7"/>
<path d="M15.5263 12.7289C15.5269 13.2694 15.367 13.7979 15.0671 14.2475C14.7671 14.6971 14.3405 15.0477 13.8413 15.2547C13.3421 15.4618 12.7926 15.5161 12.2625 15.4108C11.7324 15.3055 11.2454 15.0453 10.8632 14.6631C10.4811 14.2809 10.2208 13.794 10.1155 13.2638C10.0102 12.7337 10.0645 12.1843 10.2716 11.685C10.4787 11.1858 10.8292 10.7592 11.2788 10.4593C11.7284 10.1593 12.2569 9.99948 12.7974 10C13.5209 10.0007 14.2146 10.2884 14.7263 10.8001C15.2379 11.3117 15.5256 12.0054 15.5263 12.7289Z" fill="white"/>
<path d="M14.2342 16.5977H11.3606C10.987 16.5977 10.6842 16.9005 10.6842 17.274V29.324C10.6842 29.6975 10.987 30.0003 11.3606 30.0003H14.2342C14.6078 30.0003 14.9106 29.6975 14.9106 29.324V17.274C14.9106 16.9005 14.6078 16.5977 14.2342 16.5977Z" fill="white"/>
<path d="M29.9342 23.5451V29.3793C29.9342 29.5441 29.8688 29.702 29.7523 29.8185C29.6359 29.935 29.4779 30.0004 29.3132 30.0004H26.229C26.0643 30.0004 25.9063 29.935 25.7898 29.8185C25.6733 29.702 25.6079 29.5441 25.6079 29.3793V23.7267C25.6079 22.882 25.8527 20.0425 23.4027 20.0425C21.5027 20.0425 21.1158 21.9951 21.0342 22.8714V29.3925C21.0308 29.554 20.9646 29.7078 20.8496 29.8213C20.7347 29.9348 20.58 29.9991 20.4184 30.0004H17.4342C17.3526 30.0007 17.2717 29.9849 17.1962 29.9538C17.1206 29.9227 17.052 29.877 16.9943 29.8193C16.9366 29.7615 16.8908 29.6929 16.8597 29.6174C16.8287 29.5419 16.8128 29.461 16.8132 29.3793V17.2214C16.8128 17.1397 16.8286 17.0586 16.8597 16.983C16.8907 16.9073 16.9364 16.8385 16.9941 16.7806C17.0519 16.7226 17.1204 16.6767 17.196 16.6453C17.2715 16.6139 17.3525 16.5978 17.4342 16.5978H20.4184C20.5012 16.5964 20.5835 16.6115 20.6603 16.6422C20.7372 16.6729 20.8072 16.7186 20.8663 16.7767C20.9253 16.8347 20.9722 16.904 21.0042 16.9803C21.0362 17.0567 21.0527 17.1386 21.0527 17.2214V18.2741C21.7579 17.2214 22.8053 16.4004 25.0342 16.4004C29.9632 16.3978 29.9342 21.0109 29.9342 23.5451Z" fill="white"/>
</g>
<defs>
<clipPath id="clip0_1189_373">
<rect width="40" height="40" fill="white"/>
</clipPath>
</defs>
</svg>
