<svg width="632" height="37" viewBox="0 0 632 37" fill="none" xmlns="http://www.w3.org/2000/svg">
<rect width="56" height="36.0769" rx="4" fill="#1434CB"/>
<path d="M27.6576 12.1589L25.0456 24.3689H21.8871L24.4996 12.1589H27.6576ZM40.9466 20.0429L42.6095 15.4577L43.5663 20.0429H40.9466ZM44.4706 24.3689H47.3922L44.8428 12.1589H42.1461C41.5402 12.1589 41.0289 12.5114 40.8013 13.0547L36.0626 24.3689H39.3795L40.038 22.5456H44.0904L44.4706 24.3689ZM36.2272 20.3822C36.2408 17.1596 31.7707 16.9822 31.8016 15.5427C31.8109 15.1041 32.2286 14.6388 33.141 14.5194C33.5943 14.4602 34.8406 14.415 36.2558 15.0662L36.81 12.477C36.0498 12.201 35.0717 11.9355 33.8552 11.9355C30.7334 11.9355 28.5361 13.5954 28.5175 15.972C28.4978 17.7296 30.0861 18.7104 31.283 19.2948C32.5134 19.8934 32.9269 20.2767 32.9215 20.812C32.9134 21.6316 31.9399 21.9926 31.0318 22.0069C29.4434 22.032 28.5218 21.5783 27.7871 21.2359L27.2148 23.9113C27.9525 24.2502 29.3148 24.5447 30.728 24.5598C34.0457 24.5598 36.2164 22.9205 36.2272 20.3822ZM23.1443 12.1589L18.0269 24.3689H14.6875L12.1694 14.6245C12.0164 14.0243 11.8834 13.8048 11.4185 13.5517C10.6599 13.1401 9.4059 12.7533 8.30258 12.5137L8.37794 12.1589H13.7523C14.4371 12.1589 15.0535 12.6149 15.2089 13.4037L16.539 20.4696L19.8258 12.1589H23.1443Z" fill="white"/>
<rect x="64" width="56" height="36.0769" rx="4" fill="#000008"/>
<path d="M96.0227 10.8994H87.7775V25.7163H96.0227V10.8994Z" fill="#FF5F00"/>
<path d="M88.301 18.3078C88.2997 16.8809 88.6231 15.4723 89.2466 14.1888C89.8702 12.9053 90.7776 11.7804 91.9001 10.8994C90.51 9.80677 88.8405 9.12727 87.0825 8.93858C85.3245 8.74989 83.5489 9.05962 81.9585 9.83238C80.3682 10.6051 79.0274 11.8098 78.0894 13.3085C77.1513 14.8073 76.6538 16.5397 76.6538 18.3078C76.6538 20.076 77.1513 21.8084 78.0894 23.3072C79.0274 24.8059 80.3682 26.0105 81.9585 26.7833C83.5489 27.5561 85.3245 27.8658 87.0825 27.6771C88.8405 27.4884 90.51 26.8089 91.9001 25.7163C90.7776 24.8353 89.8702 23.7104 89.2467 22.4269C88.6231 21.1434 88.2998 19.7348 88.301 18.3078Z" fill="#EB001B"/>
<path d="M107.146 18.3078C107.146 20.0759 106.649 21.8084 105.711 23.3071C104.773 24.8059 103.432 26.0105 101.841 26.7833C100.251 27.5561 98.4756 27.8658 96.7176 27.6771C94.9596 27.4884 93.2902 26.8089 91.9001 25.7163C93.0216 24.8344 93.9283 23.7094 94.5518 22.426C95.1752 21.1427 95.4991 19.7346 95.4991 18.3078C95.4991 16.8811 95.1752 15.473 94.5518 14.1897C93.9283 12.9063 93.0216 11.7813 91.9001 10.8994C93.2902 9.80677 94.9596 9.12727 96.7176 8.93858C98.4756 8.74989 100.251 9.05964 101.841 9.8324C103.432 10.6052 104.773 11.8098 105.711 13.3085C106.649 14.8073 107.146 16.5397 107.146 18.3078Z" fill="#F79E1B"/>
<path d="M106.247 24.1469V23.8436H106.369V23.7818H106.058V23.8436H106.18V24.1469H106.247ZM106.852 24.1469V23.7812H106.756L106.646 24.0328L106.536 23.7812H106.441V24.1469H106.508V23.871L106.611 24.1089H106.681L106.784 23.8704V24.1469H106.852Z" fill="#F79E1B"/>
<rect x="128" width="56" height="36.0769" rx="4" fill="#006FCF"/>
<path fill-rule="evenodd" clip-rule="evenodd" d="M184.021 6.53145H179.386L176.963 13.4842L174.435 6.53145H169.695V17.3575L164.849 6.53145H160.951L156.105 17.5925H159.476L160.424 15.3804H165.481L166.429 17.5925H172.749V9.90233L175.594 17.5925H178.227L181.071 9.90233V17.5925H184.021V19.2779H180.123L176.963 22.7543L173.698 19.2779H160.319V30.3389H173.592L176.858 26.7573L180.123 30.3389H184.021V31.7081H179.386L176.858 28.9694L174.329 31.7081H158.634V19.0672H153.577L159.898 4.8457H166.007L168.22 9.69161V4.8457H175.804L177.068 8.53281L178.333 4.8457H184.021V6.53145ZM184.021 21.7007L181.177 24.7557L184.021 27.8106V30.3389L178.859 24.7557L184.021 19.2779V21.7007ZM169.695 30.3389V27.7054H163.374V26.02H169.589V23.4917H163.374V21.8062H169.695V19.2779L174.962 24.7557L169.695 30.3389ZM161.372 12.9573L162.847 9.37569L164.322 12.9573H161.372Z" fill="white"/>
<rect x="192" width="56" height="36.0769" rx="4" fill="url(#paint0_linear_273_147)"/>
<path d="M192.808 13.1794C192.808 6.34666 198.347 0.807617 205.179 0.807617H227.538C237.055 0.807617 244.769 8.5221 244.769 18.0384C244.769 27.5547 237.055 35.2692 227.538 35.2692H205.179C198.347 35.2692 192.808 29.7301 192.808 22.8974V13.1794Z" fill="white"/>
<path d="M209.728 18.0596C209.728 20.1782 211.392 21.8206 213.532 21.8206C214.137 21.8206 214.655 21.7013 215.294 21.4008V19.7462C214.732 20.308 214.234 20.5351 213.597 20.5351C212.181 20.5351 211.176 19.5087 211.176 18.0491C211.176 16.6658 212.214 15.5742 213.532 15.5742C214.202 15.5742 214.71 15.8129 215.294 16.3846V14.7306C214.677 14.4179 214.17 14.2881 213.565 14.2881C211.435 14.2881 209.728 15.9642 209.728 18.0596Z" fill="#251F1F"/>
<path d="M206.12 16.3095C206.12 16.6984 206.368 16.9045 207.211 17.2166C208.811 17.8017 209.285 18.3198 209.285 19.465C209.285 20.86 208.259 21.8311 206.799 21.8311C205.729 21.8311 204.951 21.4102 204.303 20.4594L205.211 19.585C205.535 20.2108 206.075 20.5462 206.746 20.5462C207.373 20.5462 207.837 20.1136 207.837 19.5296C207.837 19.2269 207.696 18.9667 207.416 18.7838C207.274 18.6971 206.994 18.5673 206.444 18.3734C205.124 17.8983 204.671 17.3901 204.671 16.3968C204.671 15.2173 205.643 14.3318 206.918 14.3318C207.709 14.3318 208.432 14.6019 209.037 15.1311L208.301 16.0941C207.934 15.6836 207.589 15.5101 207.167 15.5101C206.561 15.5101 206.12 15.8554 206.12 16.3095Z" fill="#251F1F"/>
<path fill-rule="evenodd" clip-rule="evenodd" d="M197.852 14.4511H195.789V21.6582H197.841C198.932 21.6582 199.721 21.4009 200.413 20.8262C201.235 20.1456 201.721 19.1198 201.721 18.0596C201.721 15.9328 200.132 14.4511 197.852 14.4511ZM199.494 19.8656C199.052 20.2638 198.479 20.4379 197.571 20.4379H197.193V15.6726H197.571C198.479 15.6726 199.03 15.8344 199.494 16.2554C199.981 16.6879 200.273 17.3586 200.273 18.0491C200.273 18.7408 199.981 19.433 199.494 19.8656Z" fill="#251F1F"/>
<path d="M203.774 14.4511H202.368V21.6582H203.774V14.4511Z" fill="#251F1F"/>
<path d="M224.518 14.4511L226.441 19.2915L228.388 14.4511H229.911L226.798 21.8433H226.041L222.983 14.4511H224.518Z" fill="#251F1F"/>
<path d="M230.547 21.6582H234.534V20.4379H231.952V18.4928H234.439V17.2719H231.952V15.6726H234.534V14.4511H230.547V21.6582Z" fill="#251F1F"/>
<path fill-rule="evenodd" clip-rule="evenodd" d="M237.549 14.4511C239.171 14.4511 240.101 15.2295 240.101 16.5785C240.101 17.6823 239.517 18.4066 238.458 18.622L240.727 21.6582H238.998L237.053 18.7629H236.869V21.6582H235.465V14.4511H237.549ZM236.869 17.7691H237.28C238.178 17.7691 238.654 17.379 238.654 16.6547C238.654 15.9532 238.178 15.5858 237.302 15.5858H236.869V17.7691Z" fill="#251F1F"/>
<path fill-rule="evenodd" clip-rule="evenodd" d="M241.221 14.829C241.221 14.702 241.133 14.6328 240.98 14.6328H240.776V15.2685H240.928V15.0223L241.105 15.2685H241.291L241.082 15.0065C241.171 14.9821 241.221 14.9169 241.221 14.829ZM240.953 14.9157H240.928V14.7492H240.955C241.03 14.7492 241.069 14.7766 241.069 14.8313C241.069 14.8872 241.03 14.9157 240.953 14.9157Z" fill="#251F1F"/>
<path fill-rule="evenodd" clip-rule="evenodd" d="M240.457 14.9495C240.457 14.6415 240.702 14.3952 241.01 14.3952C241.311 14.3952 241.558 14.6461 241.558 14.9495C241.558 15.2545 241.311 15.5037 241.01 15.5037C240.705 15.5037 240.457 15.2569 240.457 14.9495ZM240.567 14.95C240.567 15.2027 240.765 15.4047 241.008 15.4047C241.25 15.4047 241.447 15.2004 241.447 14.95C241.447 14.702 241.25 14.4948 241.008 14.4948C240.764 14.4948 240.567 14.6974 240.567 14.95Z" fill="#251F1F"/>
<g filter="url(#filter0_i_273_147)">
<path d="M219.555 21.8775C217.449 21.8775 215.74 20.1693 215.74 18.0629V18.0577C215.74 17.0097 216.165 16.0561 216.851 15.3697C216.851 15.3644 216.857 15.3644 216.857 15.3593C216.862 15.3593 216.862 15.3539 216.867 15.3539C217.553 14.6675 218.507 14.2432 219.555 14.2432H219.56C221.667 14.2432 223.375 15.9513 223.375 18.0577V18.0629C223.375 19.1109 222.95 20.0593 222.264 20.751C222.264 20.7562 222.259 20.7562 222.259 20.7615C222.254 20.7615 222.254 20.7667 222.248 20.7667C221.557 21.4531 220.608 21.8775 219.56 21.8775H219.555Z" fill="url(#paint1_linear_273_147)"/>
</g>
<rect x="256" width="56" height="36.0769" rx="4" fill="#000008"/>
<path d="M278.378 28.9577V27.5315C278.386 27.4118 278.369 27.2918 278.327 27.1793C278.286 27.0669 278.22 26.9647 278.136 26.8794C278.052 26.7942 277.95 26.7279 277.838 26.685C277.726 26.642 277.606 26.6235 277.487 26.6305C277.329 26.6202 277.172 26.6523 277.032 26.7234C276.891 26.7945 276.773 26.902 276.688 27.0346C276.611 26.9059 276.5 26.8005 276.368 26.7293C276.236 26.6582 276.087 26.6241 275.937 26.6305C275.806 26.6239 275.676 26.6516 275.559 26.7108C275.442 26.77 275.343 26.8587 275.271 26.9681V26.6876H274.777V28.9577H275.276V27.7002C275.265 27.6224 275.271 27.5432 275.294 27.4681C275.318 27.3931 275.358 27.3242 275.411 27.2664C275.464 27.2086 275.529 27.1634 275.602 27.134C275.675 27.1046 275.754 27.0918 275.832 27.0964C276.16 27.0964 276.327 27.3104 276.327 27.6955V28.9577H276.826V27.7002C276.816 27.6226 276.823 27.5437 276.846 27.469C276.87 27.3944 276.91 27.3259 276.963 27.2683C277.016 27.2107 277.081 27.1655 277.153 27.1358C277.226 27.1061 277.304 27.0926 277.382 27.0964C277.719 27.0964 277.881 27.3104 277.881 27.6955V28.9577H278.378ZM281.159 27.8238V26.69H280.66V26.9657C280.576 26.8575 280.468 26.7709 280.344 26.713C280.22 26.6551 280.084 26.6277 279.947 26.6329C279.632 26.6329 279.329 26.7581 279.106 26.981C278.883 27.2039 278.758 27.5062 278.758 27.8215C278.758 28.1367 278.883 28.439 279.106 28.6619C279.329 28.8848 279.632 29.01 279.947 29.01C280.084 29.0152 280.22 28.9878 280.344 28.9299C280.468 28.872 280.576 28.7854 280.66 28.6772V28.9529H281.154L281.159 27.8238ZM279.322 27.8238C279.33 27.6901 279.376 27.5615 279.456 27.454C279.536 27.3466 279.646 27.2648 279.772 27.2189C279.898 27.173 280.034 27.1648 280.165 27.1956C280.295 27.2263 280.414 27.2944 280.506 27.3917C280.598 27.489 280.66 27.611 280.684 27.7429C280.707 27.8748 280.692 28.0108 280.639 28.134C280.587 28.2572 280.499 28.3624 280.387 28.4365C280.276 28.5107 280.145 28.5505 280.011 28.5512C279.916 28.5534 279.822 28.5359 279.735 28.4997C279.647 28.4634 279.569 28.4094 279.503 28.3409C279.438 28.2724 279.388 28.1911 279.355 28.102C279.323 28.013 279.31 27.9182 279.317 27.8238H279.322ZM291.723 26.6353C291.886 26.6349 292.047 26.6655 292.198 26.7256C292.343 26.7834 292.474 26.8691 292.586 26.9776C292.696 27.0851 292.783 27.2137 292.842 27.3555C292.967 27.6603 292.967 28.0016 292.842 28.3064C292.783 28.4483 292.696 28.5768 292.586 28.6843C292.474 28.7929 292.343 28.8785 292.198 28.9363C291.885 29.0581 291.537 29.0581 291.224 28.9363C291.08 28.8785 290.949 28.7929 290.839 28.6843C290.73 28.5764 290.643 28.4479 290.584 28.3064C290.46 28.0015 290.46 27.6604 290.584 27.3555C290.643 27.214 290.73 27.0855 290.839 26.9776C290.949 26.869 291.08 26.7834 291.224 26.7256C291.38 26.6607 291.548 26.6275 291.718 26.6282L291.723 26.6353ZM291.723 27.1107C291.626 27.1094 291.53 27.1272 291.44 27.163C291.355 27.197 291.278 27.2479 291.214 27.3128C291.149 27.381 291.098 27.4619 291.064 27.5505C290.992 27.7403 290.992 27.9502 291.064 28.14C291.098 28.2286 291.149 28.3095 291.214 28.3777C291.278 28.4426 291.355 28.4935 291.44 28.5274C291.621 28.5984 291.822 28.5984 292.003 28.5274C292.092 28.4946 292.173 28.4436 292.241 28.3777C292.307 28.3096 292.358 28.2287 292.391 28.14C292.463 27.9502 292.463 27.7403 292.391 27.5505C292.358 27.4618 292.307 27.3809 292.241 27.3128C292.173 27.2468 292.092 27.1958 292.003 27.163C291.914 27.122 291.817 27.0993 291.718 27.0964L291.723 27.1107ZM283.845 27.8238C283.845 27.1107 283.403 26.6353 282.768 26.6353C282.453 26.6397 282.153 26.7692 281.933 26.9952C281.713 27.2212 281.592 27.5252 281.596 27.8405C281.601 28.1557 281.73 28.4562 281.956 28.676C282.182 28.8958 282.486 29.0168 282.802 29.0124C283.14 29.0239 283.471 28.9105 283.731 28.6938L283.493 28.3278C283.306 28.4783 283.073 28.5619 282.833 28.5655C282.669 28.5795 282.507 28.5293 282.38 28.4254C282.253 28.3215 282.171 28.1722 282.153 28.0092H283.838C283.845 27.9498 283.845 27.8904 283.845 27.8238ZM282.155 27.6242C282.164 27.4733 282.232 27.3318 282.343 27.2294C282.454 27.127 282.601 27.0717 282.752 27.0751C282.826 27.0735 282.899 27.0865 282.968 27.1134C283.037 27.1402 283.1 27.1804 283.154 27.2316C283.207 27.2828 283.25 27.3441 283.28 27.4118C283.309 27.4796 283.325 27.5525 283.327 27.6265L282.155 27.6242ZM285.925 27.2676C285.708 27.1426 285.463 27.0755 285.212 27.0727C284.941 27.0727 284.779 27.1725 284.779 27.3389C284.779 27.5053 284.951 27.5338 285.164 27.5623L285.402 27.5956C285.897 27.6669 286.196 27.8761 286.196 28.2755C286.196 28.6748 285.816 29.0171 285.162 29.0171C284.812 29.0264 284.468 28.9231 284.18 28.7224L284.418 28.3373C284.636 28.4991 284.902 28.5828 285.174 28.575C285.512 28.575 285.692 28.4751 285.692 28.2992C285.692 28.1709 285.564 28.0996 285.293 28.0615L285.055 28.0283C284.546 27.9569 284.271 27.7287 284.271 27.3579C284.271 26.9063 284.642 26.6305 285.222 26.6305C285.546 26.6197 285.867 26.7022 286.146 26.8682L285.925 27.2676ZM288.302 27.1392H287.496V28.1637C287.496 28.4015 287.577 28.5441 287.824 28.5441C287.979 28.539 288.129 28.4948 288.262 28.4157L288.404 28.8388C288.219 28.9545 288.005 29.0155 287.786 29.0147C287.202 29.0147 286.997 28.701 286.997 28.1733V27.1392H286.536V26.6876H286.997V25.9982H287.496V26.6876H288.302V27.1392ZM290.011 26.6305C290.131 26.631 290.25 26.6519 290.363 26.6923L290.211 27.1678C290.113 27.1286 290.008 27.1092 289.902 27.1107C289.579 27.1107 289.427 27.3199 289.427 27.6955V28.9672H288.932V26.6971H289.422V26.9728C289.482 26.8686 289.57 26.7827 289.676 26.7241C289.781 26.6655 289.9 26.6365 290.021 26.6401L290.011 26.6305ZM293.43 28.6273C293.46 28.6269 293.491 28.6326 293.52 28.6439C293.547 28.6551 293.572 28.6712 293.594 28.6915C293.614 28.712 293.631 28.7361 293.644 28.7628C293.656 28.7905 293.662 28.8205 293.662 28.8507C293.662 28.881 293.656 28.9109 293.644 28.9387C293.631 28.9653 293.614 28.9895 293.594 29.01C293.572 29.0303 293.547 29.0464 293.52 29.0575C293.491 29.0701 293.461 29.0766 293.43 29.0765C293.385 29.0762 293.34 29.0631 293.303 29.0387C293.265 29.0142 293.235 28.9796 293.216 28.9387C293.204 28.9109 293.198 28.881 293.198 28.8507C293.198 28.8205 293.204 28.7906 293.216 28.7628C293.228 28.7361 293.245 28.712 293.266 28.6915C293.287 28.6712 293.312 28.6551 293.339 28.6439C293.364 28.634 293.391 28.6283 293.418 28.6273H293.43ZM293.43 29.029C293.453 29.0292 293.477 29.0243 293.498 29.0147C293.519 29.0056 293.537 28.9927 293.553 28.9767C293.573 28.9564 293.588 28.9315 293.597 28.9041C293.605 28.8768 293.606 28.8478 293.601 28.8197C293.596 28.7916 293.584 28.7652 293.566 28.7429C293.548 28.7205 293.525 28.7029 293.498 28.6915C293.477 28.682 293.453 28.6771 293.43 28.6772C293.406 28.6773 293.382 28.6822 293.361 28.6915C293.339 28.7002 293.32 28.7131 293.304 28.7295C293.274 28.7619 293.257 28.8043 293.257 28.8483C293.257 28.8924 293.274 28.9348 293.304 28.9672C293.32 28.9839 293.34 28.9971 293.361 29.0061C293.383 29.015 293.406 29.0196 293.43 29.0195V29.029ZM293.444 28.7461C293.466 28.7451 293.488 28.7518 293.506 28.7651C293.513 28.7712 293.519 28.7788 293.522 28.7875C293.526 28.7962 293.528 28.8056 293.527 28.8151C293.527 28.823 293.526 28.8308 293.523 28.8382C293.52 28.8456 293.516 28.8523 293.51 28.8579C293.497 28.8704 293.479 28.8779 293.46 28.8792L293.529 28.9577H293.475L293.411 28.8792H293.389V28.9577H293.344V28.739L293.444 28.7461ZM293.392 28.7865V28.8436H293.444C293.453 28.8464 293.463 28.8464 293.472 28.8436C293.474 28.8403 293.475 28.8366 293.475 28.8329C293.475 28.8292 293.474 28.8255 293.472 28.8222C293.474 28.8189 293.475 28.8152 293.475 28.8115C293.475 28.8078 293.474 28.8041 293.472 28.8008C293.463 28.798 293.453 28.798 293.444 28.8008L293.392 28.7865Z" fill="white"/>
<path d="M287.589 9.36824H280.101V22.8248H287.589V9.36824Z" fill="#7673C0"/>
<path d="M280.577 16.0977C280.575 14.8016 280.869 13.5221 281.435 12.3562C282.001 11.1903 282.826 10.1685 283.845 9.36826C282.583 8.37612 281.067 7.75916 279.47 7.58791C277.874 7.41666 276.261 7.69801 274.817 8.39981C273.373 9.10162 272.155 10.1956 271.304 11.5566C270.452 12.9177 270 14.4909 270 16.0966C270 17.7022 270.452 19.2754 271.304 20.6365C272.155 21.9976 273.373 23.0915 274.817 23.7933C276.261 24.4951 277.874 24.7765 279.47 24.6052C281.067 24.434 282.583 23.817 283.845 22.8249C282.826 22.0248 282.002 21.0034 281.436 19.838C280.869 18.6725 280.576 17.3935 280.577 16.0977Z" fill="#EB001B"/>
<path d="M296.874 21.3986V21.1324H296.986V21.0753H296.703V21.1324H296.815V21.4081L296.874 21.3986ZM297.423 21.3986V21.0658H297.337L297.238 21.3035L297.138 21.0658H297.05V21.3986H297.112V21.149L297.204 21.3653H297.269L297.361 21.149V21.401L297.423 21.3986Z" fill="#00A1DF"/>
<path d="M297.689 16.0977C297.689 17.7031 297.237 19.2759 296.385 20.6366C295.533 21.9973 294.316 23.0909 292.872 23.7925C291.428 24.4942 289.816 24.7755 288.22 24.6044C286.623 24.4332 285.108 23.8166 283.845 22.8249C284.864 22.0241 285.688 21.0024 286.254 19.8369C286.821 18.6714 287.115 17.3924 287.115 16.0965C287.115 14.8007 286.821 13.5217 286.254 12.3562C285.688 11.1906 284.864 10.169 283.845 9.36826C285.108 8.37581 286.624 7.75854 288.22 7.58704C289.817 7.41554 291.429 7.69671 292.874 8.39842C294.318 9.10012 295.536 10.194 296.388 11.5551C297.24 12.9162 297.692 14.4896 297.692 16.0954L297.689 16.0977Z" fill="#00A1DF"/>
<rect x="320" width="56" height="36.0769" rx="4" fill="#0165B0"/>
<path d="M361.593 24.6135C361.593 26.9859 359.661 28.9178 357.289 28.9178H333.869V11.8698C333.869 9.49731 335.801 7.56543 338.173 7.56543H361.593V24.6135Z" fill="white"/>
<path d="M355.543 9.00586C353.849 9.00586 352.459 10.3785 352.459 12.0901V15.293H356.814C356.916 15.293 357.034 15.293 357.119 15.3099C358.102 15.3607 358.831 15.8691 358.831 16.7503C358.831 17.4451 358.339 18.0383 357.424 18.1569V18.1908C358.424 18.2586 359.187 18.8178 359.187 19.6821C359.187 20.6141 358.339 21.2242 357.221 21.2242H352.442V27.4943H356.967C358.661 27.4943 360.051 26.1217 360.051 24.4101V9.00586H355.543Z" fill="url(#paint2_linear_273_147)"/>
<path d="M353.967 20.2413H355.747C355.772 20.2413 355.814 20.2371 355.857 20.2328C355.899 20.2286 355.942 20.2243 355.967 20.2243C356.306 20.1566 356.594 19.8515 356.594 19.4279C356.594 19.0212 356.306 18.7161 355.967 18.6314C355.916 18.6144 355.814 18.6144 355.747 18.6144H353.967V20.2413Z" fill="url(#paint3_linear_273_147)"/>
<path d="M355.747 16.225C356.086 16.2759 356.374 16.547 356.374 16.9537C356.374 17.3604 356.086 17.6316 355.747 17.6824C355.73 17.6994 355.628 17.6994 355.577 17.6994H353.967V16.2081H355.577C355.605 16.2081 355.643 16.2132 355.678 16.2178C355.706 16.2216 355.731 16.225 355.747 16.225Z" fill="url(#paint4_linear_273_147)"/>
<path d="M338.495 9.00586C336.8 9.00586 335.411 10.3785 335.411 12.0901V19.699C336.275 20.1227 337.173 20.3938 338.071 20.3938C339.139 20.3938 339.715 19.7498 339.715 18.8686V15.276H342.359V18.8517C342.359 20.2413 341.495 21.3767 338.563 21.3767C336.783 21.3767 335.394 20.9869 335.394 20.9869V27.4774H339.919C341.613 27.4774 343.003 26.1047 343.003 24.3931V9.00586H338.495Z" fill="url(#paint5_linear_273_147)"/>
<path d="M347.019 9.00586C345.324 9.00586 343.935 10.3785 343.935 12.0901V16.1233C344.714 15.4624 346.07 15.0388 348.256 15.1404C349.425 15.1913 350.679 15.5133 350.679 15.5133V16.8181C350.052 16.4961 349.307 16.2081 348.341 16.1403C346.68 16.0216 345.68 16.8351 345.68 18.2586C345.68 19.699 346.68 20.5124 348.341 20.3769C349.307 20.3091 350.052 20.004 350.679 19.699V21.0039C350.679 21.0039 349.442 21.3258 348.256 21.3767C346.07 21.4784 344.714 21.0547 343.935 20.3938V27.5113H348.46C350.154 27.5113 351.544 26.1386 351.544 24.427V9.00586H347.019Z" fill="url(#paint6_linear_273_147)"/>
<rect x="384" width="56" height="36.0769" rx="4" fill="#253B80"/>
<path fill-rule="evenodd" clip-rule="evenodd" d="M395.981 12.7893H392.753C392.532 12.7893 392.344 12.9498 392.309 13.1678L391.003 21.446C390.977 21.6094 391.104 21.7566 391.27 21.7566H392.811C393.032 21.7566 393.22 21.5961 393.254 21.3776L393.607 19.1449C393.64 18.9262 393.829 18.7659 394.049 18.7659H395.071C397.198 18.7659 398.426 17.7368 398.746 15.6976C398.891 14.8055 398.752 14.1045 398.334 13.6134C397.876 13.0745 397.062 12.7893 395.981 12.7893ZM396.354 15.8128C396.177 16.9712 395.292 16.9712 394.436 16.9712H393.949L394.291 14.8077C394.311 14.6771 394.424 14.5807 394.556 14.5807H394.78C395.363 14.5807 395.913 14.5807 396.197 14.913C396.366 15.1113 396.418 15.4058 396.354 15.8128ZM405.632 15.7756H404.086C403.954 15.7756 403.841 15.872 403.82 16.0028L403.752 16.4351L403.644 16.2785C403.309 15.7927 402.563 15.6303 401.818 15.6303C400.109 15.6303 398.65 16.9242 398.366 18.7393C398.218 19.6445 398.428 20.5102 398.942 21.114C399.413 21.669 400.087 21.9004 400.889 21.9004C402.266 21.9004 403.029 21.0152 403.029 21.0152L402.96 21.4449C402.934 21.6092 403.061 21.7564 403.225 21.7564H404.618C404.84 21.7564 405.026 21.5959 405.061 21.3774L405.897 16.0862C405.923 15.9235 405.797 15.7756 405.632 15.7756ZM403.477 18.7845C403.328 19.6676 402.627 20.2605 401.733 20.2605C401.284 20.2605 400.925 20.1165 400.695 19.8437C400.466 19.5728 400.379 19.1871 400.452 18.7576C400.591 17.8819 401.304 17.2698 402.185 17.2698C402.623 17.2698 402.98 17.4155 403.216 17.6907C403.451 17.9688 403.545 18.3568 403.477 18.7845ZM412.313 15.7754H413.867C414.084 15.7754 414.211 16.0194 414.087 16.1979L408.92 23.656C408.836 23.7768 408.698 23.8487 408.551 23.8487H406.999C406.781 23.8487 406.653 23.6027 406.78 23.4238L408.389 21.1529L406.678 16.1312C406.618 15.9567 406.747 15.7754 406.933 15.7754H408.46C408.658 15.7754 408.833 15.9056 408.89 16.0954L409.798 19.1283L411.941 15.9722C412.025 15.849 412.165 15.7754 412.313 15.7754Z" fill="white"/>
<path fill-rule="evenodd" clip-rule="evenodd" d="M429.159 21.4453L430.484 13.0157C430.504 12.8849 430.618 12.7885 430.749 12.7881H432.241C432.406 12.7881 432.532 12.9358 432.506 13.0991L431.2 21.3769C431.165 21.5953 430.978 21.7559 430.756 21.7559H429.424C429.259 21.7559 429.133 21.6087 429.159 21.4453ZM419.011 12.7885H415.782C415.561 12.7885 415.374 12.9491 415.339 13.1671L414.033 21.4453C414.007 21.6087 414.134 21.7559 414.299 21.7559H415.956C416.11 21.7559 416.241 21.6436 416.265 21.4907L416.636 19.1442C416.67 18.9255 416.858 18.7652 417.079 18.7652H418.1C420.228 18.7652 421.455 17.7361 421.776 15.6969C421.92 14.8048 421.781 14.1038 421.364 13.6127C420.905 13.0738 420.092 12.7885 419.011 12.7885ZM419.384 15.812C419.208 16.9704 418.322 16.9704 417.466 16.9704H416.979L417.321 14.8069C417.342 14.6763 417.454 14.58 417.587 14.58H417.81C418.393 14.58 418.943 14.58 419.227 14.9122C419.397 15.1106 419.448 15.4051 419.384 15.812ZM428.661 15.7749H427.116C426.984 15.7749 426.871 15.8712 426.851 16.0021L426.783 16.4344L426.674 16.2777C426.339 15.7919 425.593 15.6296 424.848 15.6296C423.14 15.6296 421.681 16.9235 421.397 18.7385C421.25 19.6438 421.459 20.5094 421.972 21.1132C422.444 21.6683 423.118 21.8996 423.92 21.8996C425.296 21.8996 426.06 21.0145 426.06 21.0145L425.991 21.4442C425.965 21.6084 426.091 21.7557 426.257 21.7557H427.649C427.87 21.7557 428.058 21.5951 428.092 21.3767L428.928 16.0855C428.954 15.9228 428.827 15.7749 428.661 15.7749ZM426.506 18.7837C426.358 19.6669 425.656 20.2598 424.762 20.2598C424.314 20.2598 423.954 20.1158 423.724 19.843C423.495 19.5721 423.409 19.1863 423.481 18.7569C423.621 17.8811 424.333 17.269 425.214 17.269C425.653 17.269 426.01 17.4147 426.245 17.69C426.481 17.9681 426.575 18.356 426.506 18.7837Z" fill="white"/>
<rect x="448" width="56" height="36" rx="4" fill="#635BFF"/>
<path d="M477.627 11.962L474.782 12.5712V10.2698L477.627 9.67188V11.962Z" fill="white"/>
<path d="M466.067 10.9804L463.302 11.567L463.29 20.6025C463.29 22.2719 464.548 23.5015 466.226 23.5015C467.155 23.5015 467.835 23.3323 468.209 23.1292V20.8393C467.846 20.986 466.056 21.5049 466.056 19.8354V15.8309H468.209V13.4282H466.056L466.067 10.9804Z" fill="white"/>
<path fill-rule="evenodd" clip-rule="evenodd" d="M496.338 18.4027C496.338 15.5149 494.933 13.2363 492.247 13.2363C489.55 13.2363 487.918 15.5149 487.918 18.3801C487.918 21.7755 489.844 23.4901 492.61 23.4901C493.958 23.4901 494.978 23.1855 495.749 22.7569V20.5008C494.978 20.8843 494.094 21.1212 492.972 21.1212C491.873 21.1212 490.898 20.7377 490.774 19.4066H496.316C496.316 19.3445 496.32 19.2032 496.325 19.0405L496.325 19.0401L496.325 19.0398L496.325 19.0394C496.331 18.8186 496.338 18.5584 496.338 18.4027ZM490.74 17.3312C490.74 16.0564 491.522 15.5261 492.236 15.5261C492.927 15.5261 493.664 16.0564 493.664 17.3312H490.74Z" fill="white"/>
<path d="M459.369 15.6843C458.768 15.6843 458.406 15.8535 458.406 16.2935C458.406 16.7738 459.03 16.9851 459.804 17.2472C461.067 17.6746 462.728 18.237 462.735 20.3205C462.735 22.3397 461.114 23.5016 458.757 23.5016C457.782 23.5016 456.717 23.3098 455.663 22.8586V20.1739C456.615 20.6928 457.816 21.0763 458.757 21.0763C459.392 21.0763 459.845 20.9071 459.845 20.3882C459.845 19.8561 459.169 19.613 458.352 19.3194C457.108 18.8722 455.538 18.3082 455.538 16.4288C455.538 14.4322 457.068 13.2365 459.369 13.2365C460.31 13.2365 461.239 13.3832 462.18 13.7554V16.4063C461.318 15.9438 460.23 15.6843 459.369 15.6843Z" fill="white"/>
<path d="M471.734 14.2629L471.552 13.4282H469.104V23.2984H471.938V16.6092C472.606 15.7406 473.74 15.8985 474.091 16.0226V13.4282C473.728 13.2928 472.402 13.0446 471.734 14.2629Z" fill="white"/>
<path d="M474.782 13.4283H477.627V23.2985H474.782V13.4283Z" fill="white"/>
<path fill-rule="evenodd" clip-rule="evenodd" d="M481.322 14.1162C481.718 13.7552 482.432 13.2363 483.543 13.2363C485.526 13.2363 487.396 15.0186 487.408 18.2899C487.408 21.8657 485.56 23.4901 483.532 23.4901C482.534 23.4901 481.934 23.0727 481.526 22.7794L481.514 25.9717L478.681 26.5696V13.4168H481.174L481.322 14.1162ZM481.526 20.4788C481.798 20.7721 482.194 21.009 482.863 21.009C483.906 21.009 484.608 19.8808 484.608 18.3691C484.608 16.8912 483.894 15.7405 482.863 15.7405C482.217 15.7405 481.809 15.9662 481.514 16.2933L481.526 20.4788Z" fill="white"/>
<rect x="512" width="56" height="36.0769" rx="4" fill="#000008"/>
<path d="M529.844 13.3131C530.217 12.8458 530.471 12.2183 530.404 11.5771C529.857 11.6043 529.19 11.938 528.803 12.4056C528.456 12.8061 528.149 13.4599 528.229 14.0742C528.843 14.1274 529.456 13.7673 529.844 13.3131Z" fill="white"/>
<path d="M530.397 14.1941C529.505 14.141 528.747 14.7001 528.321 14.7001C527.895 14.7001 527.243 14.2209 526.538 14.2338C525.62 14.2473 524.769 14.7662 524.303 15.5916C523.345 17.2428 524.05 19.6921 524.982 21.0369C525.434 21.7023 525.979 22.4348 526.698 22.4085C527.377 22.3819 527.643 21.969 528.468 21.969C529.292 21.969 529.532 22.4085 530.251 22.3952C530.996 22.3819 531.462 21.7295 531.914 21.0636C532.433 20.3051 532.645 19.5728 532.659 19.5326C532.645 19.5193 531.222 18.9732 531.209 17.3357C531.195 15.9647 532.326 15.3125 532.38 15.272C531.741 14.3274 530.743 14.2209 530.397 14.1941Z" fill="white"/>
<path d="M538.16 12.3386C540.098 12.3386 541.447 13.6743 541.447 15.6191C541.447 17.5709 540.07 18.9136 538.111 18.9136H535.966V22.3256H534.416V12.3386L538.16 12.3386ZM535.966 17.6124H537.745C539.094 17.6124 539.862 16.8857 539.862 15.6261C539.862 14.3665 539.094 13.6467 537.752 13.6467H535.966V17.6124Z" fill="white"/>
<path d="M541.852 20.2563C541.852 18.9827 542.828 18.2007 544.559 18.1038L546.552 17.9861V17.4256C546.552 16.6158 546.005 16.1313 545.091 16.1313C544.226 16.1313 543.686 16.5465 543.555 17.1972H542.143C542.226 15.8821 543.347 14.9132 545.147 14.9132C546.912 14.9132 548.04 15.8475 548.04 17.3078V22.3256H546.607V21.1283H546.572C546.15 21.9381 545.23 22.4502 544.275 22.4502C542.849 22.4502 541.852 21.5643 541.852 20.2563ZM546.552 19.5988V19.0244L544.759 19.135C543.866 19.1974 543.361 19.5919 543.361 20.2148C543.361 20.8514 543.887 21.2667 544.69 21.2667C545.735 21.2667 546.552 20.5469 546.552 19.5988Z" fill="white"/>
<path d="M549.392 25.0041V23.7929C549.503 23.8205 549.752 23.8205 549.877 23.8205C550.569 23.8205 550.942 23.5299 551.171 22.7824C551.171 22.7686 551.302 22.3395 551.302 22.3326L548.672 15.0447H550.292L552.133 20.9691H552.16L554.002 15.0447H555.58L552.852 22.7062C552.23 24.4712 551.51 25.0387 550.001 25.0387C549.877 25.0387 549.503 25.0248 549.392 25.0041Z" fill="white"/>
<rect x="576" width="56" height="36.0769" rx="4" fill="#000008"/>
<path d="M602.783 22.3617H601.523V12.5608H604.862C605.709 12.5608 606.43 12.8428 607.021 13.407C607.624 13.9712 607.926 14.66 607.926 15.4735C607.926 16.3066 607.624 16.9954 607.021 17.5531C606.437 18.1107 605.715 18.3862 604.862 18.3862H602.783V22.3617ZM602.783 13.7678V17.1857H604.889C605.387 17.1857 605.807 17.0151 606.135 16.6806C606.469 16.346 606.64 15.9393 606.64 15.48C606.64 15.0274 606.469 14.6272 606.135 14.2926C605.807 13.945 605.394 13.7744 604.889 13.7744H602.783V13.7678Z" fill="white"/>
<path d="M611.219 15.4341C612.15 15.4341 612.885 15.6834 613.423 16.182C613.961 16.6806 614.23 17.3628 614.23 18.2288V22.3617H613.03V21.4301H612.977C612.459 22.1977 611.763 22.5782 610.897 22.5782C610.156 22.5782 609.54 22.3617 609.041 21.9221C608.542 21.4826 608.293 20.9381 608.293 20.2821C608.293 19.5867 608.555 19.0357 609.08 18.6289C609.605 18.2156 610.307 18.0123 611.18 18.0123C611.927 18.0123 612.544 18.15 613.023 18.4256V18.1369C613.023 17.6974 612.852 17.33 612.505 17.0217C612.157 16.7134 611.75 16.5625 611.285 16.5625C610.583 16.5625 610.025 16.8577 609.618 17.4547L608.51 16.7593C609.12 15.8736 610.025 15.4341 611.219 15.4341ZM609.592 20.3018C609.592 20.6298 609.73 20.9053 610.012 21.1218C610.287 21.3383 610.615 21.4498 610.989 21.4498C611.521 21.4498 611.993 21.253 612.406 20.8594C612.82 20.4658 613.03 20.0066 613.03 19.4752C612.636 19.1669 612.091 19.0094 611.389 19.0094C610.878 19.0094 610.451 19.1341 610.11 19.3768C609.763 19.6326 609.592 19.941 609.592 20.3018Z" fill="white"/>
<path d="M621.079 15.6507L616.88 25.3072H615.581L617.143 21.9288L614.374 15.6507H615.745L617.74 20.4658H617.766L619.708 15.6507H621.079Z" fill="white"/>
<path d="M597.773 17.5924C597.773 17.1818 597.736 16.7888 597.668 16.4109H592.388V18.5758L595.429 18.5764C595.305 19.2968 594.908 19.9108 594.3 20.3201V21.7247H596.11C597.167 20.7466 597.773 19.3007 597.773 17.5924Z" fill="#4285F4"/>
<path d="M594.301 20.3202C593.797 20.66 593.148 20.8588 592.389 20.8588C590.923 20.8588 589.679 19.8708 589.234 18.5391H587.367V19.9876C588.292 21.8231 590.193 23.0827 592.389 23.0827C593.907 23.0827 595.183 22.5835 596.111 21.7241L594.301 20.3202Z" fill="#34A853"/>
<path d="M589.058 17.4645C589.058 17.0906 589.12 16.7291 589.234 16.3893V14.9408H587.367C586.984 15.6998 586.769 16.5566 586.769 17.4645C586.769 18.3724 586.985 19.2292 587.367 19.9882L589.234 18.5397C589.12 18.1999 589.058 17.8384 589.058 17.4645Z" fill="#FABB05"/>
<path d="M592.389 14.0696C593.218 14.0696 593.96 14.355 594.546 14.9126L596.15 13.3099C595.175 12.4027 593.905 11.8457 592.389 11.8457C590.194 11.8457 588.292 13.1052 587.367 14.9408L589.234 16.3893C589.679 15.0576 590.923 14.0696 592.389 14.0696Z" fill="#E94235"/>
<defs>
<filter id="filter0_i_273_147" x="215.74" y="14.2432" width="8.67244" height="9.19174" filterUnits="userSpaceOnUse" color-interpolation-filters="sRGB">
<feFlood flood-opacity="0" result="BackgroundImageFix"/>
<feBlend mode="normal" in="SourceGraphic" in2="BackgroundImageFix" result="shape"/>
<feColorMatrix in="SourceAlpha" type="matrix" values="0 0 0 0 0 0 0 0 0 0 0 0 0 0 0 0 0 0 127 0" result="hardAlpha"/>
<feOffset dx="1.03798" dy="1.55697"/>
<feGaussianBlur stdDeviation="1.03798"/>
<feComposite in2="hardAlpha" operator="arithmetic" k2="-1" k3="1"/>
<feColorMatrix type="matrix" values="0 0 0 0 0 0 0 0 0 0 0 0 0 0 0 0 0 0 0.35 0"/>
<feBlend mode="normal" in2="shape" result="effect1_innerShadow_273_147"/>
</filter>
<linearGradient id="paint0_linear_273_147" x1="209.618" y1="-5.66038e-06" x2="231.209" y2="36.5377" gradientUnits="userSpaceOnUse">
<stop stop-color="#E05026"/>
<stop offset="1" stop-color="#F9A020"/>
</linearGradient>
<linearGradient id="paint1_linear_273_147" x1="217.557" y1="14.2432" x2="223.83" y2="19.5513" gradientUnits="userSpaceOnUse">
<stop stop-color="#EF3823"/>
<stop offset="0.489583" stop-color="#F04D22"/>
<stop offset="1" stop-color="#F7911D"/>
</linearGradient>
<linearGradient id="paint2_linear_273_147" x1="352.456" y1="16.9516" x2="360.072" y2="16.9516" gradientUnits="userSpaceOnUse">
<stop stop-color="#007940"/>
<stop offset="0.2285" stop-color="#00873F"/>
<stop offset="0.7433" stop-color="#40A737"/>
<stop offset="1" stop-color="#5CB531"/>
</linearGradient>
<linearGradient id="paint3_linear_273_147" x1="352.456" y1="16.9516" x2="360.072" y2="16.9516" gradientUnits="userSpaceOnUse">
<stop stop-color="#007940"/>
<stop offset="0.2285" stop-color="#00873F"/>
<stop offset="0.7433" stop-color="#40A737"/>
<stop offset="1" stop-color="#5CB531"/>
</linearGradient>
<linearGradient id="paint4_linear_273_147" x1="352.456" y1="16.9516" x2="360.072" y2="16.9516" gradientUnits="userSpaceOnUse">
<stop stop-color="#007940"/>
<stop offset="0.2285" stop-color="#00873F"/>
<stop offset="0.7433" stop-color="#40A737"/>
<stop offset="1" stop-color="#5CB531"/>
</linearGradient>
<linearGradient id="paint5_linear_273_147" x1="335.407" y1="18.2427" x2="343.14" y2="18.2427" gradientUnits="userSpaceOnUse">
<stop stop-color="#1F286F"/>
<stop offset="0.4751" stop-color="#004E94"/>
<stop offset="0.8261" stop-color="#0066B1"/>
<stop offset="1" stop-color="#006FBC"/>
</linearGradient>
<linearGradient id="paint6_linear_273_147" x1="343.891" y1="18.2427" x2="351.402" y2="18.2427" gradientUnits="userSpaceOnUse">
<stop stop-color="#6C2C2F"/>
<stop offset="0.1735" stop-color="#882730"/>
<stop offset="0.5731" stop-color="#BE1833"/>
<stop offset="0.8585" stop-color="#DC0436"/>
<stop offset="1" stop-color="#E60039"/>
</linearGradient>
</defs>
</svg>
