<svg width="48" height="48" viewBox="0 0 48 48" fill="none" xmlns="http://www.w3.org/2000/svg">
<path d="M31.9951 14.415C31.5694 14.415 31.1612 14.2459 30.8602 13.9449C30.5592 13.6439 30.3901 13.2357 30.3901 12.81V6.40498C30.3901 5.98189 30.2231 5.57591 29.9253 5.27534C29.6275 4.97478 29.2231 4.80393 28.8001 4.79998H19.2001C18.9893 4.79998 18.7806 4.84149 18.5859 4.92215C18.3911 5.00281 18.2142 5.12104 18.0652 5.27007C17.9161 5.41911 17.7979 5.59605 17.7173 5.79077C17.6366 5.9855 17.5951 6.19421 17.5951 6.40498V12.81C17.6167 13.0328 17.5915 13.2576 17.521 13.4701C17.4506 13.6826 17.3365 13.8779 17.186 14.0437C17.0356 14.2094 16.8521 14.3419 16.6475 14.4325C16.4428 14.5231 16.2214 14.57 15.9976 14.57C15.7737 14.57 15.5524 14.5231 15.3477 14.4325C15.143 14.3419 14.9596 14.2094 14.8091 14.0437C14.6587 13.8779 14.5446 13.6826 14.4741 13.4701C14.4037 13.2576 14.3785 13.0328 14.4001 12.81V6.40498C14.4001 5.13194 14.9058 3.91104 15.806 3.01087C16.7061 2.11069 17.927 1.60498 19.2001 1.60498H28.8001C30.0731 1.60498 31.294 2.11069 32.1942 3.01087C33.0944 3.91104 33.6001 5.13194 33.6001 6.40498V12.81C33.6001 13.2357 33.431 13.6439 33.13 13.9449C32.829 14.2459 32.4207 14.415 31.9951 14.415Z" fill="url(#paint0_linear_599_228)"/>
<path d="M40.005 11.205H7.995C3.57948 11.205 0 14.7844 0 19.2V38.4C0 42.8155 3.57948 46.395 7.995 46.395H40.005C44.4205 46.395 48 42.8155 48 38.4V19.2C48 14.7844 44.4205 11.205 40.005 11.205Z" fill="url(#paint1_linear_599_228)"/>
<path d="M23.9999 29.49C22.4475 29.4753 20.9151 29.1381 19.4999 28.5L8.99988 23.865C8.60205 23.6919 8.28927 23.3679 8.13033 22.9642C7.97139 22.5606 7.97932 22.1103 8.15238 21.7125C8.32543 21.3146 8.64943 21.0019 9.0531 20.8429C9.45677 20.684 9.90705 20.6919 10.3049 20.865L20.8049 25.53C21.8275 25.9835 22.9337 26.2178 24.0524 26.2178C25.171 26.2178 26.2773 25.9835 27.2999 25.53L37.7999 20.865C37.9969 20.7793 38.2088 20.7332 38.4236 20.7294C38.6383 20.7257 38.8518 20.7642 39.0516 20.8429C39.2515 20.9216 39.4339 21.0389 39.5885 21.1881C39.743 21.3373 39.8667 21.5155 39.9524 21.7125C40.0381 21.9094 40.0841 22.1214 40.0879 22.3362C40.0917 22.5509 40.0531 22.7644 39.9744 22.9642C39.8957 23.1641 39.7784 23.3465 39.6292 23.5011C39.48 23.6556 39.3019 23.7793 39.1049 23.865L28.4999 28.5C27.0847 29.1381 25.5523 29.4753 23.9999 29.49Z" fill="url(#paint2_linear_599_228)"/>
<defs>
<linearGradient id="paint0_linear_599_228" x1="24.0001" y1="1.60498" x2="24.0001" y2="14.415" gradientUnits="userSpaceOnUse">
<stop stop-color="#F6F0EA"/>
<stop offset="1" stop-color="#F1DFD1"/>
</linearGradient>
<linearGradient id="paint1_linear_599_228" x1="48" y1="11.205" x2="0" y2="11.205" gradientUnits="userSpaceOnUse">
<stop stop-color="#FF8911"/>
<stop offset="1" stop-color="#F83600"/>
</linearGradient>
<linearGradient id="paint2_linear_599_228" x1="-0.000124222" y1="29.49" x2="1.49988" y2="20.805" gradientUnits="userSpaceOnUse">
<stop stop-color="#F6F0EA"/>
<stop offset="1" stop-color="#F1DFD1"/>
</linearGradient>
</defs>
</svg>
