<svg width="48" height="48" viewBox="0 0 48 48" fill="none" xmlns="http://www.w3.org/2000/svg">
<g clip-path="url(#clip0_599_238)">
<path d="M17.8617 28.2355C17.2305 27.6136 16.436 27.2284 15.7891 27.2284C15.5942 27.2284 15.3259 27.2655 15.1524 27.4419L10.1652 32.5097C9.89142 32.7882 9.96011 33.295 10.0019 33.4982C10.1207 34.0756 10.4855 34.6975 11.0025 35.2061C11.6336 35.827 12.4281 36.2132 13.0751 36.2132C13.27 36.2132 13.5373 36.176 13.7118 35.9997L18.6989 30.9318C19.1407 30.4817 18.8762 29.2333 17.8617 28.2355ZM13.8789 25.0397C13.7601 24.4643 13.3962 23.8424 12.8792 23.3328C12.2388 22.7016 11.4433 22.3164 10.7964 22.3164C10.6015 22.3164 10.3342 22.3536 10.1606 22.5299L5.17348 27.5978C4.89966 27.8763 4.96742 28.383 5.01012 28.5863C5.12892 29.1636 5.49277 29.7855 6.0107 30.2942C6.65114 30.9253 7.44566 31.3105 8.09261 31.3105C8.28752 31.3105 8.55484 31.2734 8.72841 31.097L13.7155 26.0292C13.9893 25.7507 13.9216 25.2439 13.8789 25.0397ZM22.8442 33.1381C22.213 32.5172 21.4194 32.131 20.7725 32.131C20.5776 32.131 20.3093 32.1682 20.1358 32.3445L15.1486 37.4124C14.7068 37.8625 14.9704 39.111 15.9859 40.1097C16.617 40.7306 17.4115 41.1158 18.0585 41.1158C18.2534 41.1158 18.5207 41.0787 18.6943 40.9023L23.6814 35.8345C24.1232 35.3852 23.8587 34.1359 22.8442 33.1381ZM25.754 37.0337C25.5591 37.0337 25.2918 37.0708 25.1182 37.2472L20.1311 42.315C19.8573 42.5935 19.926 43.1003 19.9678 43.3045C20.0866 43.8799 20.4513 44.5018 20.9683 45.0123C21.6088 45.6426 22.4033 46.0278 23.0512 46.0278C23.2452 46.0278 23.5134 45.9906 23.687 45.8143L28.6741 40.7464C29.1159 40.2972 28.8504 39.0478 27.8369 38.05C27.1964 37.4189 26.401 37.0337 25.754 37.0337ZM44.145 6.5448C42.9273 5.31698 41.4775 4.34362 39.88 3.68137C38.2825 3.01912 36.5693 2.6812 34.84 2.68728C33.1094 2.68241 31.395 3.02085 29.796 3.68299C28.197 4.34514 26.7453 5.31784 25.5248 6.5448L18.6822 13.3976C18.6033 13.4752 18.5421 13.5689 18.5027 13.6723C18.4633 13.7758 18.4466 13.8865 18.4538 13.9969C18.461 14.1074 18.492 14.215 18.5445 14.3124C18.5971 14.4098 18.67 14.4948 18.7583 14.5615C20.068 15.5546 21.9142 15.6818 23.39 14.827L31.4354 10.0932C31.6653 9.96363 31.9368 9.92933 32.1916 9.99768C32.4465 10.066 32.6644 10.2316 32.7985 10.4588C32.9327 10.686 32.9724 10.9568 32.9091 11.213C32.8458 11.4691 32.6847 11.6903 32.4601 11.8289L31.7343 12.2559L32.6374 13.1599C32.6467 13.1683 32.6588 13.1702 32.6671 13.1785L43.1556 23.667C43.5825 24.0935 43.9202 24.6009 44.1487 25.1595C45.3736 23.9398 46.3446 22.4895 47.0056 20.8924C47.6666 19.2953 48.0045 17.583 47.9997 15.8545C48.0047 14.1249 47.6666 12.4115 47.005 10.8135C46.3433 9.21547 45.3712 7.76458 44.145 6.5448Z" fill="url(#paint0_linear_599_238)"/>
<path d="M31.2648 14.6265C31.2556 14.6182 31.2435 14.6163 31.2351 14.608L29.9403 13.3113L24.4065 16.5664C22.229 17.8287 19.4872 17.6412 17.5426 16.1673C17.2242 15.9272 16.9612 15.6214 16.7713 15.2708C16.5814 14.9201 16.4691 14.5327 16.442 14.1349C16.4149 13.737 16.4736 13.338 16.6142 12.9648C16.7548 12.5916 16.9739 12.253 17.2567 11.9719L22.9279 6.29145L22.6847 6.04548C20.058 3.41966 16.5931 1.97076 12.9296 1.97076C9.44331 1.97076 6.18539 3.3092 3.75727 5.73732C-1.37093 10.8748 -1.2317 19.3686 4.06914 24.6694L4.65297 25.2542L8.72397 21.1154C9.24932 20.5827 9.96588 20.2996 10.7966 20.2996C11.9884 20.2996 13.2591 20.8778 14.2828 21.8849C15.0996 22.6887 15.6528 23.6605 15.8533 24.6323C15.8951 24.8347 15.9035 25.0314 15.9127 25.2263C17.0683 25.2644 18.2861 25.8241 19.2755 26.7978C20.2965 27.803 20.8423 29.018 20.8971 30.1299C22.0526 30.168 23.2704 30.7277 24.2589 31.7004C25.2799 32.7056 25.8248 33.9206 25.8805 35.0326C27.0351 35.0706 28.252 35.6313 29.2405 36.604C30.0666 37.4152 30.5771 38.362 30.7813 39.2799C31.1321 39.1556 31.4449 38.9662 31.7039 38.7026C32.1771 38.2277 32.4437 37.5851 32.4456 36.9147C32.4475 36.2443 32.1846 35.6002 31.7141 35.1226L31.7113 35.1198L21.2182 24.6258C21.1246 24.5324 21.0503 24.4215 20.9996 24.2993C20.949 24.1771 20.923 24.0461 20.9231 23.9139C20.9224 23.7143 20.981 23.5191 21.0915 23.3529C21.202 23.1868 21.3594 23.0572 21.5437 22.9806C21.728 22.904 21.9308 22.8839 22.1265 22.9228C22.3223 22.9618 22.502 23.0579 22.643 23.1992L33.1333 33.6895L33.1416 33.6988C33.6176 34.17 34.2605 34.4339 34.9303 34.433C35.6 34.4322 36.2422 34.1666 36.717 33.6941C37.1959 33.2161 37.4595 32.5794 37.4595 31.9028C37.4595 31.2261 37.1959 30.5903 36.717 30.1114L26.2248 19.622C26.1312 19.5284 26.057 19.4172 26.0063 19.2949C25.9556 19.1726 25.9296 19.0415 25.9296 18.9091C25.9296 18.7768 25.9556 18.6457 26.0063 18.5234C26.057 18.401 26.1312 18.2899 26.2248 18.1963C26.3184 18.1027 26.4296 18.0284 26.5519 17.9778C26.6742 17.9271 26.8053 17.901 26.9377 17.901C27.0701 17.901 27.2011 17.9271 27.3235 17.9778C27.4458 18.0284 27.5569 18.1027 27.6505 18.1963L38.139 28.6847C39.0978 29.6445 40.7703 29.6454 41.7301 28.6847C42.21 28.2049 42.4736 27.5672 42.4736 26.8887C42.4736 26.2102 42.209 25.5726 41.7301 25.0927L31.2648 14.6265Z" fill="url(#paint1_linear_599_238)"/>
</g>
<defs>
<linearGradient id="paint0_linear_599_238" x1="47.9998" y1="2.68719" x2="4.97021" y2="2.68719" gradientUnits="userSpaceOnUse">
<stop stop-color="#FF8911"/>
<stop offset="1" stop-color="#F83600"/>
</linearGradient>
<linearGradient id="paint1_linear_599_238" x1="42.4736" y1="1.97076" x2="0.000488281" y2="1.97076" gradientUnits="userSpaceOnUse">
<stop stop-color="#FF8911"/>
<stop offset="1" stop-color="#F83600"/>
</linearGradient>
<clipPath id="clip0_599_238">
<rect width="48" height="48" fill="white"/>
</clipPath>
</defs>
</svg>
