<svg width="48" height="48" viewBox="0 0 48 48" fill="none" xmlns="http://www.w3.org/2000/svg">
<path d="M9.73522 34.0065C6.07522 31.6887 3.0371 28.5115 0.885218 24.7515C0.752529 24.5238 0.682617 24.265 0.682617 24.0015C0.682617 23.738 0.752529 23.4792 0.885218 23.2515C3.21586 19.173 6.57888 15.7797 10.6363 13.4127C14.6938 11.0456 19.3028 9.7881 24.0002 9.76652C26.9092 9.7676 29.7981 10.2491 32.5502 11.1915L27.6902 16.0515C26.5381 15.502 25.2767 15.22 24.0002 15.2265C21.6731 15.2269 19.4413 16.1516 17.7958 17.7971C16.1502 19.4426 15.2256 21.6744 15.2252 24.0015C15.2187 25.278 15.5007 26.5394 16.0502 27.6915L9.73522 34.0065ZM18.2252 24.0015C18.2265 24.4565 18.2818 24.9097 18.3902 25.3515L25.3502 18.3915C24.5013 18.1835 23.6162 18.1716 22.7619 18.3567C21.9077 18.5418 21.1069 18.919 20.4202 19.4597C19.7335 20.0004 19.1789 20.6904 18.7986 21.4773C18.4183 22.2643 18.2222 23.1275 18.2252 24.0015ZM47.1152 23.2515C44.9633 19.4916 41.9252 16.3144 38.2652 13.9965L31.9502 20.3115C32.4996 21.4637 32.7817 22.7251 32.7752 24.0015C32.7724 26.3279 31.847 28.5583 30.202 30.2033C28.557 31.8483 26.3266 32.7737 24.0002 32.7765C22.7238 32.7829 21.4624 32.5009 20.3102 31.9515L15.4502 36.8115C18.2023 37.754 21.0912 38.2354 24.0002 38.2365C28.6976 38.2148 33.3065 36.9572 37.364 34.5902C41.4214 32.2231 44.7845 28.8299 47.1152 24.7515C47.2479 24.5238 47.3178 24.265 47.3178 24.0015C47.3178 23.738 47.2479 23.4792 47.1152 23.2515ZM24.0002 29.7765C24.8741 29.7792 25.7372 29.583 26.524 29.2026C27.3108 28.8221 28.0007 28.2676 28.5413 27.581C29.082 26.8943 29.4592 26.0936 29.6444 25.2395C29.8296 24.3855 29.8179 23.5004 29.6102 22.6515L22.6502 29.6115C23.0921 29.7199 23.5453 29.7753 24.0002 29.7765ZM21.1202 29.0115L29.0102 21.1215L31.1702 18.9615L36.9452 13.1865L39.9152 10.2165C40.1977 9.93407 40.3564 9.55098 40.3564 9.15152C40.3564 8.75207 40.1977 8.36898 39.9152 8.08652C39.6328 7.80407 39.2497 7.64539 38.8502 7.64539C38.4508 7.64539 38.0677 7.80407 37.7852 8.08652L34.0952 11.7765L29.0402 16.8315L26.8802 18.9915L18.9902 26.8815L16.8302 29.0415L11.0552 34.8165L8.08522 37.7865C7.80419 38.0697 7.64649 38.4525 7.64649 38.8515C7.64649 39.2505 7.80419 39.6333 8.08522 39.9165C8.36956 40.1954 8.75195 40.3516 9.15022 40.3516C9.54849 40.3516 9.93087 40.1954 10.2152 39.9165L18.9602 31.1715L21.1202 29.0115Z" fill="url(#paint0_linear_599_275)"/>
<defs>
<linearGradient id="paint0_linear_599_275" x1="47.3178" y1="7.64539" x2="0.682617" y2="7.64539" gradientUnits="userSpaceOnUse">
<stop stop-color="#FF8911"/>
<stop offset="1" stop-color="#F83600"/>
</linearGradient>
</defs>
</svg>
