<svg width="32" height="32" viewBox="0 0 32 32" fill="none" xmlns="http://www.w3.org/2000/svg">
<g id="Frame">
<g id="Group">
<path id="Vector" d="M13.2522 18.7469C13.1322 18.6269 12.9694 18.5595 12.7997 18.5595C12.63 18.5595 12.4672 18.6269 12.3472 18.7469L8.31906 22.775V19.2C8.31906 19.0303 8.25163 18.8675 8.13161 18.7475C8.01159 18.6274 7.8488 18.56 7.67906 18.56C7.50932 18.56 7.34654 18.6274 7.22651 18.7475C7.10649 18.8675 7.03906 19.0303 7.03906 19.2V24.32C7.03906 24.4897 7.10649 24.6525 7.22651 24.7726C7.34654 24.8926 7.50932 24.96 7.67906 24.96H12.7991C12.9688 24.96 13.1316 24.8926 13.2516 24.7726C13.3716 24.6525 13.4391 24.4897 13.4391 24.32C13.4391 24.1503 13.3716 23.9875 13.2516 23.8675C13.1316 23.7474 12.9688 23.68 12.7991 23.68H9.22402L13.2509 19.6531C13.3106 19.5938 13.358 19.5232 13.3903 19.4455C13.4227 19.3678 13.4394 19.2845 13.4396 19.2003C13.4397 19.1161 13.4232 19.0327 13.391 18.9549C13.3589 18.8771 13.3117 18.8064 13.2522 18.7469ZM24.5635 7.08865C24.4858 7.0573 24.4029 7.0408 24.3191 7.04001H19.1991C19.0293 7.04001 18.8665 7.10744 18.7465 7.22746C18.6265 7.34748 18.5591 7.51027 18.5591 7.68001C18.5591 7.84975 18.6265 8.01253 18.7465 8.13256C18.8665 8.25258 19.0293 8.32001 19.1991 8.32001H22.7741L18.7472 12.3469C18.6877 12.4063 18.6405 12.4769 18.6083 12.5545C18.576 12.6322 18.5594 12.7155 18.5593 12.7996C18.5592 12.9694 18.6266 13.1323 18.7466 13.2525C18.8666 13.3727 19.0294 13.4402 19.1993 13.4404C19.3691 13.4405 19.532 13.3731 19.6522 13.2531L23.6791 9.22497V12.8C23.6791 12.9697 23.7465 13.1325 23.8665 13.2526C23.9865 13.3726 24.1493 13.44 24.3191 13.44C24.4888 13.44 24.6516 13.3726 24.7716 13.2526C24.8916 13.1325 24.9591 12.9697 24.9591 12.8V7.68001C24.9589 7.5534 24.9212 7.42969 24.8508 7.32445C24.7804 7.21921 24.6805 7.13717 24.5635 7.08865Z" fill="#0C2D57"/>
<path id="Vector_2" d="M25.5992 3.20001H6.39922C5.55084 3.20103 4.7375 3.5385 4.1376 4.13839C3.5377 4.73829 3.20023 5.55163 3.19922 6.40001V25.6C3.19922 27.3651 4.63538 28.8 6.39922 28.8H25.5992C27.3631 28.8 28.7992 27.3651 28.7992 25.6V6.40001C28.7992 4.63489 27.3631 3.20001 25.5992 3.20001ZM27.5192 25.6C27.5192 26.6586 26.6578 27.52 25.5992 27.52H6.39922C5.34066 27.52 4.47922 26.6586 4.47922 25.6V6.40001C4.47922 5.34145 5.34066 4.48001 6.39922 4.48001H25.5992C26.6578 4.48001 27.5192 5.34145 27.5192 6.40001V25.6Z" fill="#0C2D57"/>
</g>
</g>
</svg>
