<svg width="32" height="32" viewBox="0 0 32 32" fill="none" xmlns="http://www.w3.org/2000/svg">
<g id="Frame" clip-path="url(#clip0_1263_355)">
<g id="Group">
<path id="Vector" d="M31.455 2.80606C31.5995 2.80606 31.7381 2.74863 31.8404 2.64641C31.9426 2.54419 32 2.40555 32 2.261V0.545061C32 0.473481 31.9859 0.402599 31.9585 0.336466C31.9311 0.270332 31.891 0.210242 31.8404 0.159626C31.7898 0.109011 31.7297 0.0688626 31.6635 0.0414736C31.5974 0.0140846 31.5265 -8.20569e-06 31.455 3.58445e-09H6.78956C6.64501 1.65761e-05 6.50638 0.0574478 6.40416 0.159663C6.30195 0.261878 6.24452 0.400507 6.2445 0.545061V25.2103C6.24452 25.3549 6.30195 25.4935 6.40416 25.5957C6.50638 25.6979 6.64501 25.7554 6.78956 25.7554H31.4548C31.5994 25.7554 31.738 25.698 31.8402 25.5957C31.9425 25.4935 31.9999 25.3549 31.9999 25.2103V4.0778C31.9999 3.93325 31.9425 3.79461 31.8402 3.69239C31.738 3.59017 31.5994 3.53274 31.4548 3.53274C31.3103 3.53274 31.1716 3.59017 31.0694 3.69239C30.9672 3.79461 30.9098 3.93325 30.9098 4.0778V13.4163H28.7451C28.6006 13.4163 28.4619 13.4737 28.3597 13.5759C28.2575 13.6781 28.2001 13.8168 28.2001 13.9613C28.2001 14.1059 28.2575 14.2445 28.3597 14.3468C28.4619 14.449 28.6006 14.5064 28.7451 14.5064H30.9098V24.6653H15.337V22.028C15.3349 21.8849 15.2765 21.7484 15.1745 21.6479C15.0725 21.5475 14.9351 21.4911 14.792 21.4911C14.6488 21.4911 14.5114 21.5475 14.4095 21.6479C14.3075 21.7484 14.2491 21.8849 14.2469 22.028V24.6653H7.33462V1.09012H14.247V18.1037C14.2492 18.2468 14.3075 18.3834 14.4095 18.4838C14.5115 18.5843 14.6489 18.6406 14.792 18.6406C14.9352 18.6406 15.0726 18.5843 15.1746 18.4838C15.2766 18.3834 15.3349 18.2468 15.3371 18.1037V14.5064H25.0389C25.1835 14.5064 25.3221 14.449 25.4243 14.3468C25.5265 14.2445 25.584 14.1059 25.584 13.9613C25.584 13.8168 25.5265 13.6781 25.4243 13.5759C25.3221 13.4737 25.1835 13.4163 25.0389 13.4163H15.337V1.09012H30.9099V2.261C30.9099 2.33258 30.924 2.40346 30.9514 2.46959C30.9788 2.53572 31.0189 2.59582 31.0695 2.64643C31.1201 2.69705 31.1802 2.73719 31.2464 2.76458C31.3125 2.79197 31.3834 2.80607 31.455 2.80606ZM4.60494 3.14568L2.80638 0.256999C2.75741 0.178425 2.68924 0.113616 2.60829 0.0686818C2.52734 0.0237478 2.43628 0.000169378 2.3437 0.000169378C2.25111 0.000169378 2.16005 0.0237478 2.0791 0.0686818C1.99815 0.113616 1.92998 0.178425 1.88101 0.256999L0.0823888 3.14568C0.0309921 3.2282 0.00260503 3.32297 0.000170892 3.42016C-0.00226325 3.51735 0.0213442 3.61342 0.0685454 3.69841C0.115747 3.7834 0.184823 3.85422 0.268613 3.90352C0.352403 3.95283 0.447856 3.97882 0.545075 3.9788H1.79864V6.25805C1.8008 6.40118 1.85918 6.53771 1.96117 6.63816C2.06315 6.73861 2.20055 6.79492 2.3437 6.79492C2.48684 6.79492 2.62425 6.73861 2.72623 6.63816C2.82821 6.53771 2.88659 6.40118 2.88876 6.25805V3.9788H4.14232C4.23953 3.97881 4.33498 3.95281 4.41876 3.9035C4.50254 3.85419 4.57161 3.78337 4.6188 3.69838C4.66599 3.61339 4.6896 3.51733 4.68716 3.42014C4.68472 3.32296 4.65634 3.2282 4.60494 3.14568ZM1.52651 2.88868L2.34363 1.57631L3.16076 2.88868H1.52651ZM4.61875 22.0571C4.57155 21.9721 4.50247 21.9013 4.41869 21.852C4.33491 21.8027 4.23947 21.7767 4.14226 21.7767H2.8887V7.71148C2.88653 7.56835 2.82815 7.43182 2.72617 7.33137C2.62418 7.23092 2.48678 7.17462 2.34363 7.17462C2.20049 7.17462 2.06309 7.23092 1.9611 7.33137C1.85912 7.43182 1.80074 7.56835 1.79857 7.71148V21.7766H0.545075C0.447856 21.7766 0.352403 21.8026 0.268613 21.8519C0.184823 21.9012 0.115747 21.972 0.0685454 22.057C0.0213442 22.142 -0.00226325 22.2381 0.000170892 22.3353C0.00260503 22.4325 0.0309921 22.5272 0.0823888 22.6098L1.88095 25.4984C1.92989 25.5771 1.99806 25.6419 2.07901 25.6868C2.15997 25.7318 2.25104 25.7554 2.34363 25.7554C2.43623 25.7554 2.5273 25.7318 2.60826 25.6868C2.68921 25.6419 2.75737 25.5771 2.80632 25.4984L4.60488 22.6098C4.65632 22.5273 4.68473 22.4325 4.68717 22.3353C4.68961 22.2381 4.66599 22.1421 4.61875 22.0571ZM2.3437 24.1792L1.52651 22.8668H3.16076L2.3437 24.1792ZM31.743 29.1936L28.8543 27.3951C28.7718 27.3437 28.677 27.3154 28.5799 27.3129C28.4827 27.3105 28.3867 27.3341 28.3017 27.3813C28.2167 27.4285 28.1459 27.4976 28.0966 27.5814C28.0473 27.6651 28.0213 27.7606 28.0213 27.8578V29.1113H10.2233V27.8578C10.2233 27.7605 10.1973 27.6651 10.148 27.5813C10.0987 27.4975 10.0279 27.4285 9.94288 27.3813C9.8579 27.3341 9.76184 27.3105 9.66465 27.3129C9.56747 27.3153 9.47271 27.3437 9.39018 27.3951L6.5015 29.1936C6.4229 29.2426 6.35806 29.3107 6.3131 29.3917C6.26815 29.4726 6.24456 29.5637 6.24456 29.6563C6.24456 29.7489 6.26815 29.84 6.3131 29.9209C6.35806 30.0019 6.4229 30.0701 6.5015 30.119L9.39018 31.9176C9.4727 31.969 9.56747 31.9974 9.66468 31.9999C9.76188 32.0023 9.85797 31.9787 9.94298 31.9315C10.028 31.8843 10.0988 31.8152 10.1481 31.7314C10.1974 31.6476 10.2234 31.5521 10.2233 31.4549V30.2013H28.0212V31.4549C28.0212 31.5521 28.0472 31.6475 28.0965 31.7313C28.1458 31.8151 28.2166 31.8841 28.3016 31.9314C28.3866 31.9786 28.4826 32.0022 28.5798 31.9997C28.677 31.9973 28.7718 31.9689 28.8543 31.9176L31.743 30.119C31.8216 30.0701 31.8865 30.0019 31.9314 29.9209C31.9764 29.84 32 29.7489 32 29.6563C32 29.5637 31.9764 29.4726 31.9314 29.3917C31.8865 29.3107 31.8216 29.2426 31.743 29.1936ZM9.13318 30.4734L7.82081 29.6563L9.13318 28.8392V30.4734ZM29.1113 30.4734V28.8392L30.4238 29.6563L29.1113 30.4734Z" fill="#0C2D57"/>
</g>
</g>
<defs>
<clipPath id="clip0_1263_355">
<rect width="32" height="32" fill="white"/>
</clipPath>
</defs>
</svg>
