<svg width="172" height="61" viewBox="0 0 172 61" fill="none" xmlns="http://www.w3.org/2000/svg">
<path d="M6.6296 4.95399C6.97235 3.29479 5.90517 1.67188 4.24597 1.32913C2.58676 0.986376 0.963848 2.05358 0.621097 3.71278C0.278345 5.37198 1.34555 6.9949 3.00475 7.33765C4.66395 7.6804 6.28684 6.61319 6.6296 4.95399Z" fill="#CED5DD"/>
<path d="M6.6296 18.1445C6.97235 16.4853 5.90517 14.8624 4.24597 14.5196C2.58676 14.1769 0.963848 15.2441 0.621097 16.9033C0.278345 18.5625 1.34555 20.1854 3.00475 20.5281C4.66395 20.8709 6.28684 19.8037 6.6296 18.1445Z" fill="#CED5DD"/>
<path d="M6.62911 31.3349C6.97186 29.6757 5.90468 28.0528 4.24548 27.71C2.58628 27.3673 0.96336 28.4345 0.620609 30.0937C0.277857 31.7529 1.34506 33.3758 3.00426 33.7186C4.66346 34.0613 6.28636 32.9941 6.62911 31.3349Z" fill="#CED5DD"/>
<path d="M3.65419 46.9769C5.34846 46.9769 6.72195 45.6034 6.72195 43.9091C6.72195 42.2149 5.34846 40.8414 3.65419 40.8414C1.95992 40.8414 0.586426 42.2149 0.586426 43.9091C0.586426 45.6034 1.95992 46.9769 3.65419 46.9769Z" fill="#CED5DD"/>
<path d="M3.65419 60.1681C5.34846 60.1681 6.72195 58.7946 6.72195 57.1004C6.72195 55.4061 5.34846 54.0326 3.65419 54.0326C1.95992 54.0326 0.586426 55.4061 0.586426 57.1004C0.586426 58.7946 1.95992 60.1681 3.65419 60.1681Z" fill="#CED5DD"/>
<path d="M23.1853 4.33571C23.1853 6.02979 21.812 7.40345 20.1176 7.40345C18.4231 7.40345 17.0498 6.03018 17.0498 4.33571C17.0498 2.64162 18.4231 1.26794 20.1176 1.26794C21.812 1.26794 23.1853 2.64162 23.1853 4.33571Z" fill="#CED5DD"/>
<path d="M23.1853 17.527C23.1853 19.2211 21.812 20.5947 20.1176 20.5947C18.4231 20.5947 17.0498 19.2215 17.0498 17.527C17.0498 15.8325 18.4231 14.4592 20.1176 14.4592C21.812 14.4592 23.1853 15.8325 23.1853 17.527Z" fill="#CED5DD"/>
<path d="M23.1853 30.7178C23.1853 32.4119 21.812 33.7856 20.1176 33.7856C18.4231 33.7856 17.0498 32.4123 17.0498 30.7178C17.0498 29.0238 18.4231 27.6501 20.1176 27.6501C21.812 27.6501 23.1853 29.0238 23.1853 30.7178Z" fill="#CED5DD"/>
<path d="M23.1853 43.9091C23.1853 45.6032 21.812 46.9769 20.1176 46.9769C18.4231 46.9769 17.0498 45.6036 17.0498 43.9091C17.0498 42.2147 18.4231 40.8414 20.1176 40.8414C21.812 40.8414 23.1853 42.2147 23.1853 43.9091Z" fill="#CED5DD"/>
<path d="M23.1853 57.1004C23.1853 58.7944 21.812 60.1681 20.1176 60.1681C18.4231 60.1681 17.0498 58.7948 17.0498 57.1004C17.0498 55.4059 18.4231 54.0326 20.1176 54.0326C21.812 54.0326 23.1853 55.4059 23.1853 57.1004Z" fill="#CED5DD"/>
<path d="M39.1855 5.99057C40.0823 4.55315 39.6441 2.66091 38.2066 1.76413C36.7692 0.86735 34.877 1.30563 33.9802 2.74305C33.0834 4.18047 33.5217 6.07269 34.9591 6.96947C36.3966 7.86625 38.2888 7.428 39.1855 5.99057Z" fill="#CED5DD"/>
<path d="M39.1851 19.182C40.0818 17.7446 39.6436 15.8523 38.2062 14.9555C36.7687 14.0588 34.8765 14.497 33.9797 15.9345C33.0829 17.3719 33.5212 19.2641 34.9586 20.1609C36.3961 21.0577 38.2883 20.6194 39.1851 19.182Z" fill="#CED5DD"/>
<path d="M39.1836 32.3732C40.0804 30.9358 39.6421 29.0435 38.2047 28.1468C36.7673 27.25 34.875 27.6883 33.9782 29.1257C33.0815 30.5631 33.5198 32.4553 34.9572 33.3521C36.3946 34.2489 38.2868 33.8106 39.1836 32.3732Z" fill="#CED5DD"/>
<path d="M36.5804 46.9769C38.2747 46.9769 39.6482 45.6034 39.6482 43.9091C39.6482 42.2149 38.2747 40.8414 36.5804 40.8414C34.8861 40.8414 33.5127 42.2149 33.5127 43.9091C33.5127 45.6034 34.8861 46.9769 36.5804 46.9769Z" fill="#CED5DD"/>
<path d="M36.5804 60.1681C38.2747 60.1681 39.6482 58.7946 39.6482 57.1004C39.6482 55.4061 38.2747 54.0326 36.5804 54.0326C34.8861 54.0326 33.5127 55.4061 33.5127 57.1004C33.5127 58.7946 34.8861 60.1681 36.5804 60.1681Z" fill="#CED5DD"/>
<path d="M56.0849 4.82348C56.3563 3.15106 55.2206 1.57526 53.5482 1.30384C51.8758 1.03241 50.3 2.16815 50.0286 3.84057C49.7571 5.51299 50.8929 7.08875 52.5653 7.36017C54.2377 7.63159 55.8135 6.49589 56.0849 4.82348Z" fill="#CED5DD"/>
<path d="M56.0849 18.0148C56.3563 16.3424 55.2206 14.7666 53.5482 14.4952C51.8758 14.2238 50.3 15.3595 50.0286 17.0319C49.7571 18.7043 50.8929 20.2801 52.5653 20.5515C54.2377 20.8229 55.8135 19.6872 56.0849 18.0148Z" fill="#CED5DD"/>
<path d="M56.0849 31.2061C56.3563 29.5337 55.2206 27.9579 53.5482 27.6865C51.8758 27.415 50.3 28.5508 50.0286 30.2232C49.7571 31.8956 50.8929 33.4714 52.5653 33.7428C54.2377 34.0142 55.8135 32.8785 56.0849 31.2061Z" fill="#CED5DD"/>
<path d="M53.0438 46.9769C54.7381 46.9769 56.1116 45.6034 56.1116 43.9091C56.1116 42.2149 54.7381 40.8414 53.0438 40.8414C51.3495 40.8414 49.9761 42.2149 49.9761 43.9091C49.9761 45.6034 51.3495 46.9769 53.0438 46.9769Z" fill="#CED5DD"/>
<path d="M53.0438 60.1681C54.7381 60.1681 56.1116 58.7946 56.1116 57.1004C56.1116 55.4061 54.7381 54.0326 53.0438 54.0326C51.3495 54.0326 49.9761 55.4061 49.9761 57.1004C49.9761 58.7946 51.3495 60.1681 53.0438 60.1681Z" fill="#CED5DD"/>
<path d="M72.5105 5.07887C72.8999 3.43 71.8788 1.7777 70.23 1.38836C68.5811 0.999013 66.9288 2.02007 66.5394 3.66893C66.1501 5.3178 67.1712 6.97011 68.82 7.35945C70.4689 7.7488 72.1212 6.72774 72.5105 5.07887Z" fill="#CED5DD"/>
<path d="M72.51 18.2706C72.8994 16.6218 71.8783 14.9695 70.2295 14.5801C68.5806 14.1908 66.9283 15.2118 66.539 16.8607C66.1496 18.5096 67.1707 20.1619 68.8195 20.5512C70.4684 20.9406 72.1207 19.9195 72.51 18.2706Z" fill="#CED5DD"/>
<path d="M72.5095 31.4623C72.8989 29.8134 71.8779 28.1611 70.229 27.7718C68.5801 27.3824 66.9278 28.4035 66.5385 30.0524C66.1491 31.7012 67.1702 33.3535 68.819 33.7429C70.4679 34.1322 72.1202 33.1112 72.5095 31.4623Z" fill="#CED5DD"/>
<path d="M69.5072 46.9769C71.2015 46.9769 72.575 45.6034 72.575 43.9091C72.575 42.2149 71.2015 40.8414 69.5072 40.8414C67.8129 40.8414 66.4395 42.2149 66.4395 43.9091C66.4395 45.6034 67.8129 46.9769 69.5072 46.9769Z" fill="#CED5DD"/>
<path d="M69.5072 60.1681C71.2015 60.1681 72.575 58.7946 72.575 57.1004C72.575 55.4061 71.2015 54.0326 69.5072 54.0326C67.8129 54.0326 66.4395 55.4061 66.4395 57.1004C66.4395 58.7946 67.8129 60.1681 69.5072 60.1681Z" fill="#CED5DD"/>
<path d="M88.1346 6.50764C89.3326 5.30962 89.3326 3.36724 88.1346 2.16922C86.9366 0.971204 84.9942 0.971204 83.7962 2.16922C82.5981 3.36724 82.5981 5.30964 83.7962 6.50766C84.9942 7.70568 86.9366 7.70566 88.1346 6.50764Z" fill="#CED5DD"/>
<path d="M88.1346 19.6987C89.3326 18.5007 89.3326 16.5583 88.1346 15.3603C86.9366 14.1623 84.9942 14.1623 83.7962 15.3603C82.5981 16.5583 82.5981 18.5007 83.7962 19.6988C84.9942 20.8968 86.9366 20.8968 88.1346 19.6987Z" fill="#CED5DD"/>
<path d="M88.1341 32.8896C89.3321 31.6916 89.3321 29.7492 88.1341 28.5512C86.9361 27.3532 84.9937 27.3532 83.7957 28.5512C82.5977 29.7492 82.5977 31.6916 83.7957 32.8896C84.9937 34.0876 86.9361 34.0876 88.1341 32.8896Z" fill="#CED5DD"/>
<path d="M85.9711 46.9769C87.6654 46.9769 89.0388 45.6034 89.0388 43.9091C89.0388 42.2149 87.6654 40.8414 85.9711 40.8414C84.2768 40.8414 82.9033 42.2149 82.9033 43.9091C82.9033 45.6034 84.2768 46.9769 85.9711 46.9769Z" fill="#CED5DD"/>
<path d="M85.9711 60.1681C87.6654 60.1681 89.0388 58.7946 89.0388 57.1004C89.0388 55.4061 87.6654 54.0326 85.9711 54.0326C84.2768 54.0326 82.9033 55.4061 82.9033 57.1004C82.9033 58.7946 84.2768 60.1681 85.9711 60.1681Z" fill="#CED5DD"/>
<path d="M105.476 4.82252C105.747 3.1501 104.611 1.5743 102.939 1.30287C101.266 1.03145 99.6906 2.16719 99.4192 3.83961C99.1478 5.51203 100.284 7.08783 101.956 7.35925C103.628 7.63068 105.204 6.49493 105.476 4.82252Z" fill="#CED5DD"/>
<path d="M105.476 18.0138C105.747 16.3414 104.612 14.7656 102.939 14.4942C101.267 14.2227 99.6911 15.3585 99.4197 17.0309C99.1483 18.7033 100.284 20.2791 101.956 20.5505C103.629 20.822 105.205 19.6862 105.476 18.0138Z" fill="#CED5DD"/>
<path d="M105.476 31.2052C105.747 29.5328 104.612 27.957 102.939 27.6856C101.267 27.4141 99.6911 28.5499 99.4197 30.2223C99.1483 31.8947 100.284 33.4705 101.956 33.7419C103.629 34.0134 105.205 32.8776 105.476 31.2052Z" fill="#CED5DD"/>
<path d="M102.434 46.9769C104.129 46.9769 105.502 45.6034 105.502 43.9091C105.502 42.2149 104.129 40.8414 102.434 40.8414C100.74 40.8414 99.3667 42.2149 99.3667 43.9091C99.3667 45.6034 100.74 46.9769 102.434 46.9769Z" fill="#CED5DD"/>
<path d="M102.434 60.1681C104.129 60.1681 105.502 58.7946 105.502 57.1004C105.502 55.4061 104.129 54.0326 102.434 54.0326C100.74 54.0326 99.3667 55.4061 99.3667 57.1004C99.3667 58.7946 100.74 60.1681 102.434 60.1681Z" fill="#CED5DD"/>
<path d="M121.903 5.08136C122.292 3.43249 121.271 1.78019 119.623 1.39084C117.974 1.0015 116.321 2.02255 115.932 3.67142C115.543 5.32029 116.564 6.97255 118.213 7.36189C119.861 7.75124 121.514 6.73022 121.903 5.08136Z" fill="#CED5DD"/>
<path d="M121.902 18.2731C122.291 16.6243 121.27 14.972 119.622 14.5826C117.973 14.1933 116.32 15.2143 115.931 16.8632C115.542 18.5121 116.563 20.1643 118.212 20.5537C119.86 20.943 121.513 19.922 121.902 18.2731Z" fill="#CED5DD"/>
<path d="M121.901 31.4648C122.29 29.8159 121.269 28.1636 119.621 27.7743C117.972 27.3849 116.319 28.406 115.93 30.0548C115.541 31.7037 116.562 33.356 118.211 33.7453C119.86 34.1347 121.512 33.1136 121.901 31.4648Z" fill="#CED5DD"/>
<path d="M118.897 46.9769C120.592 46.9769 121.965 45.6034 121.965 43.9091C121.965 42.2149 120.592 40.8414 118.897 40.8414C117.203 40.8414 115.83 42.2149 115.83 43.9091C115.83 45.6034 117.203 46.9769 118.897 46.9769Z" fill="#CED5DD"/>
<path d="M118.897 60.1681C120.592 60.1681 121.965 58.7946 121.965 57.1004C121.965 55.4061 120.592 54.0326 118.897 54.0326C117.203 54.0326 115.83 55.4061 115.83 57.1004C115.83 58.7946 117.203 60.1681 118.897 60.1681Z" fill="#CED5DD"/>
<path d="M137.524 6.50801C138.722 5.30998 138.722 3.36764 137.524 2.16962C136.326 0.971603 134.384 0.97157 133.186 2.16959C131.988 3.36761 131.988 5.31 133.186 6.50802C134.384 7.70604 136.326 7.70603 137.524 6.50801Z" fill="#CED5DD"/>
<path d="M137.524 19.6992C138.722 18.5011 138.722 16.5588 137.524 15.3608C136.326 14.1628 134.384 14.1627 133.186 15.3608C131.988 16.5588 131.988 18.5012 133.186 19.6992C134.384 20.8972 136.326 20.8972 137.524 19.6992Z" fill="#CED5DD"/>
<path d="M137.524 32.89C138.722 31.6919 138.722 29.7496 137.524 28.5516C136.326 27.3536 134.383 27.3535 133.185 28.5515C131.987 29.7496 131.987 31.692 133.185 32.89C134.383 34.088 136.326 34.088 137.524 32.89Z" fill="#CED5DD"/>
<path d="M135.361 46.9769C137.055 46.9769 138.428 45.6034 138.428 43.9091C138.428 42.2149 137.055 40.8414 135.361 40.8414C133.666 40.8414 132.293 42.2149 132.293 43.9091C132.293 45.6034 133.666 46.9769 135.361 46.9769Z" fill="#CED5DD"/>
<path d="M135.361 60.1681C137.055 60.1681 138.428 58.7946 138.428 57.1004C138.428 55.4061 137.055 54.0326 135.361 54.0326C133.666 54.0326 132.293 55.4061 132.293 57.1004C132.293 58.7946 133.666 60.1681 135.361 60.1681Z" fill="#CED5DD"/>
<path d="M154.866 4.82197C155.138 3.14955 154.002 1.57379 152.329 1.30237C150.657 1.03095 149.081 2.16664 148.81 3.83906C148.538 5.51148 149.674 7.08728 151.347 7.3587C153.019 7.63013 154.595 6.49438 154.866 4.82197Z" fill="#CED5DD"/>
<path d="M154.867 18.0133C155.138 16.3409 154.002 14.7651 152.33 14.4937C150.658 14.2223 149.082 15.358 148.81 17.0304C148.539 18.7028 149.675 20.2786 151.347 20.55C153.019 20.8215 154.595 19.6857 154.867 18.0133Z" fill="#CED5DD"/>
<path d="M154.867 31.2046C155.138 29.5322 154.002 27.9564 152.33 27.685C150.658 27.4136 149.082 28.5493 148.81 30.2217C148.539 31.8941 149.675 33.4699 151.347 33.7413C153.019 34.0128 154.595 32.877 154.867 31.2046Z" fill="#CED5DD"/>
<path d="M151.824 46.9769C153.518 46.9769 154.891 45.6034 154.891 43.9091C154.891 42.2149 153.518 40.8414 151.824 40.8414C150.129 40.8414 148.756 42.2149 148.756 43.9091C148.756 45.6034 150.129 46.9769 151.824 46.9769Z" fill="#CED5DD"/>
<path d="M151.824 60.1681C153.518 60.1681 154.891 58.7946 154.891 57.1004C154.891 55.4061 153.518 54.0326 151.824 54.0326C150.129 54.0326 148.756 55.4061 148.756 57.1004C148.756 58.7946 150.129 60.1681 151.824 60.1681Z" fill="#CED5DD"/>
<path d="M171.295 5.08382C171.685 3.43495 170.663 1.78264 169.015 1.3933C167.366 1.00396 165.713 2.02501 165.324 3.67388C164.935 5.32274 165.956 6.97505 167.605 7.3644C169.254 7.75374 170.906 6.73268 171.295 5.08382Z" fill="#CED5DD"/>
<path d="M171.294 18.2756C171.684 16.6268 170.663 14.9745 169.014 14.5851C167.365 14.1958 165.712 15.2168 165.323 16.8657C164.934 18.5146 165.955 20.1669 167.604 20.5562C169.253 20.9456 170.905 19.9245 171.294 18.2756Z" fill="#CED5DD"/>
<path d="M171.294 31.4672C171.683 29.8184 170.662 28.1661 169.013 27.7767C167.364 27.3874 165.712 28.4084 165.323 30.0573C164.933 31.7062 165.954 33.3585 167.603 33.7478C169.252 34.1372 170.904 33.1161 171.294 31.4672Z" fill="#CED5DD"/>
<path d="M168.287 46.9769C169.982 46.9769 171.355 45.6034 171.355 43.9091C171.355 42.2149 169.982 40.8414 168.287 40.8414C166.593 40.8414 165.22 42.2149 165.22 43.9091C165.22 45.6034 166.593 46.9769 168.287 46.9769Z" fill="#CED5DD"/>
<path d="M168.287 60.1681C169.982 60.1681 171.355 58.7946 171.355 57.1004C171.355 55.4061 169.982 54.0326 168.287 54.0326C166.593 54.0326 165.22 55.4061 165.22 57.1004C165.22 58.7946 166.593 60.1681 168.287 60.1681Z" fill="#CED5DD"/>
</svg>
