<svg width="92" height="180" viewBox="0 0 92 180" fill="none" xmlns="http://www.w3.org/2000/svg">
<path d="M15 0L15 145L92 145L92 -3.36578e-06L15 0Z" fill="#FDD600"/>
<path d="M8.6334 173.755C7.85199 171.868 5.68925 170.972 3.80279 171.754C1.91632 172.535 1.02051 174.698 1.80192 176.584C2.58333 178.471 4.74608 179.367 6.63254 178.585C8.519 177.804 9.41482 175.641 8.6334 173.755Z" fill="#0C2D57"/>
<path d="M21.71 171.524C19.6944 171.197 17.7954 172.566 17.4683 174.581C17.1412 176.597 18.5099 178.496 20.5254 178.823C22.5409 179.15 24.44 177.781 24.7671 175.766C25.0942 173.75 23.7255 171.851 21.71 171.524Z" fill="#0C2D57"/>
<path d="M40.7155 175.193C40.7155 173.151 39.0602 171.496 37.0184 171.496C34.9765 171.496 33.3213 173.151 33.3213 175.193C33.3213 177.235 34.9765 178.89 37.0184 178.89C39.0602 178.89 40.7155 177.235 40.7155 175.193Z" fill="#0C2D57"/>
<path d="M56.3258 173.754C55.5444 171.867 53.3816 170.971 51.4952 171.753C49.6087 172.534 48.7129 174.697 49.4943 176.584C50.2757 178.47 52.4385 179.366 54.3249 178.584C56.2114 177.803 57.1072 175.64 56.3258 173.754Z" fill="#0C2D57"/>
<path d="M69.4014 171.523C67.3859 171.196 65.4868 172.565 65.1597 174.581C64.8326 176.596 66.2013 178.495 68.2168 178.822C70.2323 179.149 72.1314 177.781 72.4585 175.765C72.7856 173.75 71.4169 171.851 69.4014 171.523Z" fill="#0C2D57"/>
<path d="M7.84273 152.747C6.39894 151.303 4.05809 151.303 2.6143 152.747C1.17051 154.191 1.17051 156.531 2.6143 157.975C4.05809 159.419 6.39894 159.419 7.84273 157.975C9.28652 156.531 9.28652 154.191 7.84273 152.747Z" fill="#0C2D57"/>
<path d="M22.0318 151.733C20.0447 151.264 18.0535 152.494 17.5842 154.482C17.115 156.469 18.3455 158.46 20.3327 158.929C22.3198 159.398 24.311 158.168 24.7803 156.181C25.2495 154.194 24.019 152.202 22.0318 151.733Z" fill="#0C2D57"/>
<path d="M40.7155 155.353C40.7155 153.311 39.0602 151.656 37.0184 151.656C34.9765 151.656 33.3213 153.311 33.3213 155.353C33.3213 157.395 34.9765 159.05 37.0184 159.05C39.0602 159.05 40.7155 157.395 40.7155 155.353Z" fill="#0C2D57"/>
<path d="M55.5332 152.747C54.0894 151.303 51.7485 151.303 50.3047 152.747C48.8609 154.191 48.8609 156.532 50.3047 157.976C51.7485 159.419 54.0894 159.419 55.5332 157.976C56.9769 156.532 56.9769 154.191 55.5332 152.747Z" fill="#0C2D57"/>
<path d="M69.7242 151.736C67.7371 151.267 65.7458 152.497 65.2766 154.484C64.8074 156.471 66.0379 158.463 68.025 158.932C70.0122 159.401 72.0034 158.171 72.4726 156.183C72.9419 154.196 71.7113 152.205 69.7242 151.736Z" fill="#0C2D57"/>
<path d="M7.84273 132.907C6.39894 131.463 4.05809 131.463 2.6143 132.907C1.17051 134.35 1.17051 136.691 2.6143 138.135C4.05809 139.579 6.39894 139.579 7.84273 138.135C9.28652 136.691 9.28652 134.35 7.84273 132.907Z" fill="#0C2D57"/>
<path d="M22.0328 131.892C20.0457 131.423 18.0544 132.653 17.5852 134.641C17.116 136.628 18.3465 138.619 20.3336 139.088C22.3208 139.557 24.312 138.327 24.7812 136.34C25.2504 134.353 24.0199 132.361 22.0328 131.892Z" fill="#0C2D57"/>
<path d="M40.7155 135.512C40.7155 133.471 39.0602 131.815 37.0184 131.815C34.9765 131.815 33.3213 133.471 33.3213 135.512C33.3213 137.554 34.9765 139.209 37.0184 139.209C39.0602 139.209 40.7155 137.554 40.7155 135.512Z" fill="#0C2D57"/>
<path d="M55.5332 132.907C54.0894 131.463 51.7485 131.463 50.3047 132.907C48.8609 134.351 48.8609 136.692 50.3047 138.135C51.7485 139.579 54.0894 139.579 55.5332 138.135C56.9769 136.692 56.9769 134.351 55.5332 132.907Z" fill="#0C2D57"/>
<path d="M69.7252 131.895C67.7381 131.425 65.7468 132.656 65.2776 134.643C64.8084 136.63 66.0389 138.621 68.026 139.091C70.0131 139.56 72.0044 138.329 72.4736 136.342C72.9428 134.355 71.7123 132.364 69.7252 131.895Z" fill="#0C2D57"/>
<path d="M7.84273 113.066C6.39894 111.623 4.05809 111.623 2.6143 113.066C1.17051 114.51 1.17051 116.851 2.6143 118.295C4.05809 119.739 6.39894 119.739 7.84273 118.295C9.28652 116.851 9.28652 114.51 7.84273 113.066Z" fill="#0C2D57"/>
<path d="M22.0338 112.051C20.0467 111.582 18.0554 112.812 17.5862 114.799C17.117 116.786 18.3475 118.778 20.3346 119.247C22.3217 119.716 24.313 118.486 24.7822 116.498C25.2514 114.511 24.0209 112.52 22.0338 112.051Z" fill="#0C2D57"/>
<path d="M40.7155 115.672C40.7155 113.63 39.0602 111.975 37.0184 111.975C34.9765 111.975 33.3213 113.63 33.3213 115.672C33.3213 117.714 34.9765 119.369 37.0184 119.369C39.0602 119.369 40.7155 117.714 40.7155 115.672Z" fill="#0C2D57"/>
<path d="M55.5332 113.067C54.0894 111.623 51.7485 111.623 50.3047 113.067C48.8609 114.511 48.8609 116.851 50.3047 118.295C51.7485 119.739 54.0894 119.739 55.5332 118.295C56.9769 116.851 56.9769 114.511 55.5332 113.067Z" fill="#0C2D57"/>
<path d="M69.7262 112.053C67.739 111.584 65.7478 112.815 65.2786 114.802C64.8094 116.789 66.0399 118.78 68.027 119.249C70.0141 119.719 72.0054 118.488 72.4746 116.501C72.9438 114.514 71.7133 112.522 69.7262 112.053Z" fill="#0C2D57"/>
<path d="M7.84273 93.2262C6.39894 91.7824 4.05809 91.7824 2.6143 93.2262C1.17051 94.67 1.17051 97.0108 2.6143 98.4546C4.05809 99.8984 6.39894 99.8984 7.84273 98.4546C9.28652 97.0108 9.28652 94.67 7.84273 93.2262Z" fill="#0C2D57"/>
<path d="M22.0348 92.2095C20.0476 91.7403 18.0564 92.9708 17.5872 94.9579C17.118 96.9451 18.3485 98.9363 20.3356 99.4055C22.3227 99.8748 24.314 98.6442 24.7832 96.6571C25.2524 94.67 24.0219 92.6787 22.0348 92.2095Z" fill="#0C2D57"/>
<path d="M40.7155 95.8315C40.7155 93.7896 39.0602 92.1344 37.0184 92.1344C34.9765 92.1344 33.3213 93.7896 33.3213 95.8315C33.3213 97.8733 34.9765 99.5286 37.0184 99.5286C39.0602 99.5286 40.7155 97.8733 40.7155 95.8315Z" fill="#0C2D57"/>
<path d="M55.5332 93.2267C54.0894 91.7829 51.7485 91.7829 50.3047 93.2267C48.8609 94.6705 48.8609 97.0113 50.3047 98.4551C51.7485 99.8989 54.0894 99.8989 55.5332 98.4551C56.9769 97.0113 56.9769 94.6705 55.5332 93.2267Z" fill="#0C2D57"/>
<path d="M69.7272 92.212C67.74 91.7427 65.7488 92.9733 65.2796 94.9604C64.8103 96.9475 66.0408 98.9388 68.028 99.408C70.0151 99.8772 72.0064 98.6467 72.4756 96.6596C72.9448 94.6724 71.7143 92.6812 69.7272 92.212Z" fill="#0C2D57"/>
<path d="M7.84273 73.3859C6.39894 71.9421 4.05809 71.9421 2.6143 73.3859C1.17051 74.8297 1.17051 77.1705 2.6143 78.6143C4.05809 80.0581 6.39894 80.0581 7.84273 78.6143C9.28652 77.1705 9.28652 74.8297 7.84273 73.3859Z" fill="#0C2D57"/>
<path d="M22.0357 72.3682C20.0486 71.899 18.0574 73.1295 17.5881 75.1166C17.1189 77.1038 18.3494 79.095 20.3366 79.5642C22.3237 80.0334 24.3149 78.8029 24.7842 76.8158C25.2534 74.8287 24.0229 72.8374 22.0357 72.3682Z" fill="#0C2D57"/>
<path d="M40.7155 75.9914C40.7155 73.9495 39.0602 72.2943 37.0184 72.2943C34.9765 72.2943 33.3213 73.9495 33.3213 75.9914C33.3213 78.0332 34.9765 79.6885 37.0184 79.6885C39.0602 79.6885 40.7155 78.0332 40.7155 75.9914Z" fill="#0C2D57"/>
<path d="M55.5332 73.3866C54.0894 71.9428 51.7485 71.9428 50.3047 73.3866C48.8609 74.8304 48.8609 77.1712 50.3047 78.615C51.7485 80.0588 54.0894 80.0588 55.5332 78.615C56.9769 77.1712 56.9769 74.8304 55.5332 73.3866Z" fill="#0C2D57"/>
<path d="M69.7281 72.3707C67.741 71.9014 65.7497 73.1319 65.2805 75.1191C64.8113 77.1062 66.0418 79.0975 68.0289 79.5667C70.0161 80.0359 72.0073 78.8054 72.4765 76.8183C72.9458 74.8311 71.7153 72.8399 69.7281 72.3707Z" fill="#0C2D57"/>
<path d="M7.84273 53.5455C6.39894 52.1018 4.05809 52.1018 2.6143 53.5455C1.17051 54.9893 1.17051 57.3302 2.6143 58.774C4.05809 60.2178 6.39894 60.2178 7.84273 58.774C9.28652 57.3302 9.28652 54.9893 7.84273 53.5455Z" fill="#0C2D57"/>
<path d="M22.0367 52.5271C20.0496 52.0579 18.0583 53.2884 17.5891 55.2756C17.1199 57.2627 18.3504 59.2539 20.3375 59.7232C22.3247 60.1924 24.3159 58.9619 24.7851 56.9747C25.2544 54.9876 24.0238 52.9964 22.0367 52.5271Z" fill="#0C2D57"/>
<path d="M40.7155 56.1508C40.7155 54.109 39.0602 52.4537 37.0184 52.4537C34.9765 52.4537 33.3213 54.109 33.3213 56.1508C33.3213 58.1927 34.9765 59.8479 37.0184 59.8479C39.0602 59.8479 40.7155 58.1927 40.7155 56.1508Z" fill="#0C2D57"/>
<path d="M55.5332 53.546C54.0894 52.1022 51.7485 52.1022 50.3047 53.546C48.8609 54.9898 48.8609 57.3307 50.3047 58.7745C51.7485 60.2182 54.0894 60.2182 55.5332 58.7745C56.9769 57.3307 56.9769 54.9898 55.5332 53.546Z" fill="#0C2D57"/>
<path d="M69.7291 52.5296C67.742 52.0604 65.7507 53.2909 65.2815 55.278C64.8123 57.2651 66.0428 59.2564 68.0299 59.7256C70.017 60.1948 72.0083 58.9643 72.4775 56.9772C72.9467 54.9901 71.7162 52.9988 69.7291 52.5296Z" fill="#0C2D57"/>
<path d="M7.8437 33.7057C6.39991 32.2619 4.05907 32.2619 2.61528 33.7057C1.17149 35.1495 1.17149 37.4903 2.61528 38.9341C4.05907 40.3779 6.39992 40.3779 7.8437 38.9341C9.28749 37.4903 9.28749 35.1495 7.8437 33.7057Z" fill="#0C2D57"/>
<path d="M22.0377 32.6858C20.0506 32.2166 18.0593 33.4471 17.5901 35.4343C17.1209 37.4214 18.3514 39.4126 20.3385 39.8819C22.3256 40.3511 24.3169 39.1206 24.7861 37.1334C25.2553 35.1463 24.0248 33.1551 22.0377 32.6858Z" fill="#0C2D57"/>
<path d="M40.7155 36.311C40.7155 34.2691 39.0602 32.6139 37.0184 32.6139C34.9765 32.6139 33.3213 34.2691 33.3213 36.311C33.3213 38.3528 34.9765 40.0081 37.0184 40.0081C39.0602 40.0081 40.7155 38.3528 40.7155 36.311Z" fill="#0C2D57"/>
<path d="M55.5341 33.7062C54.0903 32.2624 51.7495 32.2624 50.3057 33.7062C48.8619 35.15 48.8619 37.4908 50.3057 38.9346C51.7495 40.3784 54.0903 40.3784 55.5341 38.9346C56.9779 37.4908 56.9779 35.15 55.5341 33.7062Z" fill="#0C2D57"/>
<path d="M69.7311 32.6885C67.7439 32.2193 65.7527 33.4498 65.2835 35.4369C64.8142 37.4241 66.0447 39.4153 68.0319 39.8845C70.019 40.3538 72.0103 39.1232 72.4795 37.1361C72.9487 35.149 71.7182 33.1577 69.7311 32.6885Z" fill="#0C2D57"/>
</svg>
