<svg width="89" height="36" viewBox="0 0 89 36" fill="none" xmlns="http://www.w3.org/2000/svg">
<path d="M12.6222 0L0 0L0 12.6223L12.6222 12.6223L12.6222 0Z" fill="#FDD600"/>
<path d="M37.8664 0L25.2441 0L25.2441 12.6223L37.8664 12.6223V0Z" fill="#FDD600"/>
<path d="M63.1116 0L50.4893 0V12.6223L63.1116 12.6223V0Z" fill="#FDD600"/>
<path d="M88.3547 0L75.7324 0V12.6223L88.3547 12.6223V0Z" fill="#FDD600"/>
<path d="M11.4645 23.8933H1.1582L1.1582 34.1996H11.4645L11.4645 23.8933Z" stroke="#1D1D1B" stroke-width="2" stroke-miterlimit="10"/>
<path d="M36.7086 23.8933H26.4023V34.1996H36.7086V23.8933Z" stroke="#1D1D1B" stroke-width="2" stroke-miterlimit="10"/>
<path d="M61.9528 23.8933H51.6465V34.1996H61.9528V23.8933Z" stroke="#1D1D1B" stroke-width="2" stroke-miterlimit="10"/>
<path d="M87.1978 23.8933H76.8916V34.1996H87.1978V23.8933Z" stroke="#1D1D1B" stroke-width="2" stroke-miterlimit="10"/>
</svg>
