<svg width="60" height="172" viewBox="0 0 60 172" fill="none" xmlns="http://www.w3.org/2000/svg">
<path d="M55.0599 6.61101C56.7144 6.9528 58.3328 5.88861 58.6746 4.23404C59.0164 2.57948 57.9522 0.961095 56.2976 0.619302C54.6431 0.277508 53.0247 1.34173 52.6829 2.99629C52.3411 4.65086 53.4053 6.26922 55.0599 6.61101Z" fill="#CED5DD"/>
<path d="M41.9066 6.61101C43.5611 6.9528 45.1795 5.88861 45.5213 4.23404C45.8631 2.57948 44.7989 0.961095 43.1443 0.619302C41.4897 0.277508 39.8714 1.34173 39.5296 2.99629C39.1878 4.65086 40.252 6.26922 41.9066 6.61101Z" fill="#CED5DD"/>
<path d="M28.7532 6.61058C30.4078 6.95238 32.0262 5.88818 32.368 4.23361C32.7098 2.57905 31.6455 0.960668 29.991 0.618874C28.3364 0.277081 26.718 1.3413 26.3762 2.99587C26.0344 4.65043 27.0987 6.26879 28.7532 6.61058Z" fill="#CED5DD"/>
<path d="M13.1541 3.64372C13.1541 5.33326 14.5237 6.70292 16.2133 6.70292C17.9028 6.70292 19.2725 5.33326 19.2725 3.64372C19.2725 1.95419 17.9028 0.584534 16.2133 0.584534C14.5237 0.584533 13.1541 1.95419 13.1541 3.64372Z" fill="#CED5DD"/>
<path d="M-0.000194683 3.64372C-0.000194757 5.33326 1.36943 6.70292 3.05897 6.70292C4.74851 6.70292 6.11816 5.33326 6.11816 3.64372C6.11816 1.95419 4.74851 0.584534 3.05897 0.584534C1.36943 0.584533 -0.000194609 1.95419 -0.000194683 3.64372Z" fill="#CED5DD"/>
<path d="M55.6762 23.1202C53.9868 23.1202 52.617 21.7507 52.617 20.061C52.617 18.3712 53.9864 17.0018 55.6762 17.0018C57.3655 17.0018 58.7354 18.3712 58.7354 20.061C58.7354 21.7507 57.3655 23.1202 55.6762 23.1202Z" fill="#CED5DD"/>
<path d="M42.5228 23.1202C40.8335 23.1202 39.4637 21.7507 39.4637 20.061C39.4637 18.3712 40.8331 17.0018 42.5228 17.0018C44.2126 17.0018 45.582 18.3712 45.582 20.061C45.582 21.7507 44.2126 23.1202 42.5228 23.1202Z" fill="#CED5DD"/>
<path d="M29.3676 23.1202C27.6782 23.1202 26.3084 21.7507 26.3084 20.061C26.3084 18.3712 27.6778 17.0018 29.3676 17.0018C31.0569 17.0018 32.4268 18.3712 32.4268 20.061C32.4268 21.7507 31.0569 23.1202 29.3676 23.1202Z" fill="#CED5DD"/>
<path d="M16.2133 23.1202C14.5239 23.1202 13.1541 21.7507 13.1541 20.061C13.1541 18.3712 14.5235 17.0018 16.2133 17.0018C17.903 17.0018 19.2725 18.3712 19.2725 20.061C19.2725 21.7507 17.903 23.1202 16.2133 23.1202Z" fill="#CED5DD"/>
<path d="M3.05897 23.1202C1.36962 23.1202 -0.000194757 21.7507 -0.000194683 20.061C-0.000194609 18.3712 1.36924 17.0018 3.05897 17.0018C4.74871 17.0018 6.11816 18.3712 6.11816 20.061C6.11816 21.7507 4.74871 23.1202 3.05897 23.1202Z" fill="#CED5DD"/>
<path d="M54.0259 39.0758C55.4593 39.97 57.3462 39.533 58.2405 38.0996C59.1348 36.6662 58.6977 34.7792 57.2643 33.885C55.8309 32.9907 53.944 33.4278 53.0497 34.8612C52.1554 36.2946 52.5925 38.1815 54.0259 39.0758Z" fill="#CED5DD"/>
<path d="M40.8716 39.0752C42.305 39.9695 44.1919 39.5325 45.0862 38.0991C45.9805 36.6656 45.5434 34.7787 44.11 33.8844C42.6766 32.9901 40.7897 33.4272 39.8954 34.8606C39.0011 36.294 39.4382 38.1809 40.8716 39.0752Z" fill="#CED5DD"/>
<path d="M27.7173 39.0745C29.1507 39.9688 31.0376 39.5317 31.9319 38.0983C32.8262 36.6649 32.3891 34.7779 30.9557 33.8837C29.5223 32.9894 27.6354 33.4265 26.7411 34.8599C25.8468 36.2933 26.2839 38.1802 27.7173 39.0745Z" fill="#CED5DD"/>
<path d="M13.1541 36.4783C13.1541 38.1678 14.5237 39.5375 16.2133 39.5375C17.9028 39.5375 19.2725 38.1678 19.2725 36.4783C19.2725 34.7887 17.9028 33.4191 16.2133 33.4191C14.5237 33.4191 13.1541 34.7887 13.1541 36.4783Z" fill="#CED5DD"/>
<path d="M-0.000194683 36.4783C-0.000194757 38.1678 1.36943 39.5375 3.05897 39.5375C4.74851 39.5375 6.11816 38.1678 6.11816 36.4783C6.11816 34.7887 4.74851 33.4191 3.05897 33.4191C1.36943 33.4191 -0.000194609 34.7887 -0.000194683 36.4783Z" fill="#CED5DD"/>
<path d="M55.1899 55.9279C56.8577 56.1986 58.4291 55.0661 58.6997 53.3983C58.9704 51.7306 57.8378 50.1592 56.1701 49.8885C54.5023 49.6178 52.931 50.7504 52.6603 52.4182C52.3896 54.0859 53.5222 55.6573 55.1899 55.9279Z" fill="#CED5DD"/>
<path d="M42.0356 55.9282C43.7034 56.1989 45.2748 55.0664 45.5454 53.3986C45.8161 51.7309 44.6835 50.1595 43.0158 49.8888C41.348 49.6182 39.7767 50.7507 39.506 52.4185C39.2353 54.0862 40.3679 55.6576 42.0356 55.9282Z" fill="#CED5DD"/>
<path d="M28.8813 55.9282C30.5491 56.1989 32.1205 55.0663 32.3911 53.3986C32.6618 51.7308 31.5292 50.1594 29.8615 49.8888C28.1937 49.6181 26.6224 50.7507 26.3517 52.4184C26.0811 54.0862 27.2136 55.6575 28.8813 55.9282Z" fill="#CED5DD"/>
<path d="M13.1541 52.8956C13.1541 54.5851 14.5237 55.9548 16.2133 55.9548C17.9028 55.9548 19.2725 54.5851 19.2725 52.8956C19.2725 51.206 17.9028 49.8364 16.2133 49.8364C14.5237 49.8364 13.1541 51.206 13.1541 52.8956Z" fill="#CED5DD"/>
<path d="M-0.000194683 52.8956C-0.000194757 54.5851 1.36943 55.9548 3.05897 55.9548C4.74851 55.9548 6.11816 54.5851 6.11816 52.8956C6.11816 51.206 4.74851 49.8364 3.05897 49.8364C1.36943 49.8364 -0.000194609 51.206 -0.000194683 52.8956Z" fill="#CED5DD"/>
<path d="M54.9355 72.308C56.5797 72.6962 58.2274 71.678 58.6157 70.0338C59.0039 68.3895 57.9857 66.7418 56.3415 66.3536C54.6972 65.9653 53.0495 66.9835 52.6613 68.6278C52.273 70.272 53.2912 71.9197 54.9355 72.308Z" fill="#CED5DD"/>
<path d="M41.7812 72.3075C43.4254 72.6957 45.0731 71.6776 45.4614 70.0333C45.8496 68.389 44.8314 66.7413 43.1872 66.3531C41.5429 65.9648 39.8952 66.983 39.507 68.6273C39.1187 70.2715 40.1369 71.9192 41.7812 72.3075Z" fill="#CED5DD"/>
<path d="M28.6259 72.3066C30.2702 72.6949 31.9178 71.6767 32.3061 70.0324C32.6944 68.3882 31.6762 66.7405 30.0319 66.3522C28.3876 65.964 26.7399 66.9822 26.3517 68.6264C25.9634 70.2707 26.9816 71.9184 28.6259 72.3066Z" fill="#CED5DD"/>
<path d="M13.1541 69.3133C13.1541 71.0028 14.5237 72.3725 16.2133 72.3725C17.9028 72.3725 19.2725 71.0028 19.2725 69.3133C19.2725 67.6237 17.9028 66.2541 16.2133 66.2541C14.5237 66.2541 13.1541 67.6237 13.1541 69.3133Z" fill="#CED5DD"/>
<path d="M-0.000194683 69.3133C-0.000194757 71.0028 1.36943 72.3725 3.05897 72.3725C4.74851 72.3725 6.11816 71.0028 6.11816 69.3133C6.11816 67.6237 4.74851 66.2541 3.05897 66.2541C1.36943 66.2541 -0.000194609 67.6237 -0.000194683 69.3133Z" fill="#CED5DD"/>
<path d="M53.5107 87.8881C54.7054 89.0828 56.6423 89.0828 57.837 87.8881C59.0317 86.6935 59.0317 84.7565 57.837 83.5618C56.6423 82.3672 54.7053 82.3672 53.5107 83.5618C52.316 84.7565 52.316 86.6935 53.5107 87.8881Z" fill="#CED5DD"/>
<path d="M40.3564 87.8881C41.5511 89.0828 43.488 89.0828 44.6827 87.8881C45.8774 86.6935 45.8774 84.7565 44.6827 83.5618C43.488 82.3672 41.551 82.3672 40.3564 83.5618C39.1617 84.7565 39.1617 86.6935 40.3564 87.8881Z" fill="#CED5DD"/>
<path d="M27.2021 87.8878C28.3968 89.0825 30.3337 89.0825 31.5284 87.8878C32.7231 86.6932 32.7231 84.7562 31.5284 83.5615C30.3337 82.3669 28.3968 82.3669 27.2021 83.5615C26.0074 84.7562 26.0074 86.6931 27.2021 87.8878Z" fill="#CED5DD"/>
<path d="M13.1541 85.7306C13.1541 87.4201 14.5237 88.7898 16.2133 88.7898C17.9028 88.7898 19.2725 87.4201 19.2725 85.7306C19.2725 84.041 17.9028 82.6714 16.2133 82.6714C14.5237 82.6714 13.1541 84.041 13.1541 85.7306Z" fill="#CED5DD"/>
<path d="M-0.000194683 85.7306C-0.000194757 87.4201 1.36943 88.7898 3.05897 88.7898C4.74851 88.7898 6.11816 87.4201 6.11816 85.7306C6.11816 84.041 4.74851 82.6714 3.05897 82.6714C1.36943 82.6714 -0.000194609 84.041 -0.000194683 85.7306Z" fill="#CED5DD"/>
<path d="M55.1909 105.181C56.8587 105.452 58.4301 104.319 58.7007 102.651C58.9714 100.984 57.8388 99.4121 56.1711 99.1414C54.5034 98.8708 52.9319 100.003 52.6613 101.671C52.3906 103.339 53.5232 104.91 55.1909 105.181Z" fill="#CED5DD"/>
<path d="M42.0366 105.181C43.7044 105.452 45.2758 104.319 45.5464 102.652C45.8171 100.984 44.6845 99.4124 43.0168 99.1417C41.3491 98.871 39.7777 100.004 39.507 101.671C39.2363 103.339 40.3689 104.91 42.0366 105.181Z" fill="#CED5DD"/>
<path d="M28.8823 105.181C30.5501 105.452 32.1215 104.319 32.3921 102.651C32.6628 100.984 31.5302 99.4123 29.8625 99.1416C28.1948 98.871 26.6234 100.004 26.3527 101.671C26.082 103.339 27.2146 104.91 28.8823 105.181Z" fill="#CED5DD"/>
<path d="M13.1541 102.148C13.1541 103.837 14.5237 105.207 16.2133 105.207C17.9028 105.207 19.2725 103.837 19.2725 102.148C19.2725 100.458 17.9028 99.0886 16.2133 99.0886C14.5237 99.0886 13.1541 100.458 13.1541 102.148Z" fill="#CED5DD"/>
<path d="M-0.000194683 102.148C-0.000194757 103.837 1.36943 105.207 3.05897 105.207C4.74851 105.207 6.11816 103.837 6.11816 102.148C6.11816 100.458 4.74851 99.0886 3.05897 99.0886C1.36943 99.0886 -0.000194609 100.458 -0.000194683 102.148Z" fill="#CED5DD"/>
<path d="M54.9335 121.562C56.5777 121.95 58.2254 120.932 58.6137 119.288C59.0019 117.644 57.9837 115.996 56.3395 115.608C54.6952 115.22 53.0476 116.238 52.6593 117.882C52.271 119.526 53.2892 121.174 54.9335 121.562Z" fill="#CED5DD"/>
<path d="M41.7782 121.562C43.4225 121.95 45.0701 120.932 45.4584 119.287C45.8466 117.643 44.8284 115.996 43.1842 115.607C41.5399 115.219 39.8923 116.237 39.504 117.882C39.1158 119.526 40.1339 121.173 41.7782 121.562Z" fill="#CED5DD"/>
<path d="M28.6229 121.561C30.2672 121.949 31.9149 120.931 32.3031 119.287C32.6914 117.642 31.6732 115.995 30.0289 115.606C28.3847 115.218 26.737 116.236 26.3488 117.881C25.9605 119.525 26.9787 121.173 28.6229 121.561Z" fill="#CED5DD"/>
<path d="M13.1541 118.565C13.1541 120.255 14.5237 121.624 16.2133 121.624C17.9028 121.624 19.2725 120.255 19.2725 118.565C19.2725 116.876 17.9028 115.506 16.2133 115.506C14.5237 115.506 13.1541 116.876 13.1541 118.565Z" fill="#CED5DD"/>
<path d="M-0.000194683 118.565C-0.000194757 120.255 1.36943 121.624 3.05897 121.624C4.74851 121.624 6.11816 120.255 6.11816 118.565C6.11816 116.876 4.74851 115.506 3.05897 115.506C1.36943 115.506 -0.000194609 116.876 -0.000194683 118.565Z" fill="#CED5DD"/>
<path d="M53.5097 137.14C54.7044 138.334 56.6413 138.334 57.836 137.14C59.0306 135.945 59.0307 134.008 57.836 132.813C56.6413 131.619 54.7044 131.619 53.5097 132.813C52.315 134.008 52.315 135.945 53.5097 137.14Z" fill="#CED5DD"/>
<path d="M40.3554 137.14C41.5501 138.334 43.487 138.334 44.6817 137.14C45.8763 135.945 45.8764 134.008 44.6817 132.813C43.487 131.619 41.5501 131.619 40.3554 132.813C39.1607 134.008 39.1607 135.945 40.3554 137.14Z" fill="#CED5DD"/>
<path d="M27.2021 137.139C28.3968 138.334 30.3337 138.334 31.5284 137.139C32.723 135.945 32.7231 134.008 31.5284 132.813C30.3337 131.619 28.3968 131.619 27.2021 132.813C26.0074 134.008 26.0074 135.945 27.2021 137.139Z" fill="#CED5DD"/>
<path d="M13.1541 134.982C13.1541 136.672 14.5237 138.042 16.2133 138.042C17.9028 138.042 19.2725 136.672 19.2725 134.982C19.2725 133.293 17.9028 131.923 16.2133 131.923C14.5237 131.923 13.1541 133.293 13.1541 134.982Z" fill="#CED5DD"/>
<path d="M-0.000194683 134.982C-0.000194757 136.672 1.36943 138.042 3.05897 138.042C4.74851 138.042 6.11816 136.672 6.11816 134.982C6.11816 133.293 4.74851 131.923 3.05897 131.923C1.36943 131.923 -0.000194609 133.293 -0.000194683 134.982Z" fill="#CED5DD"/>
<path d="M55.1919 154.434C56.8597 154.704 58.431 153.572 58.7017 151.904C58.9723 150.236 57.8398 148.665 56.1721 148.394C54.5043 148.124 52.9329 149.256 52.6623 150.924C52.3916 152.592 53.5242 154.163 55.1919 154.434Z" fill="#CED5DD"/>
<path d="M42.0376 154.434C43.7054 154.705 45.2767 153.572 45.5474 151.904C45.818 150.237 44.6855 148.665 43.0178 148.395C41.35 148.124 39.7786 149.256 39.508 150.924C39.2373 152.592 40.3699 154.163 42.0376 154.434Z" fill="#CED5DD"/>
<path d="M28.8833 154.434C30.5511 154.704 32.1224 153.572 32.3931 151.904C32.6637 150.236 31.5312 148.665 29.8635 148.394C28.1957 148.124 26.6243 149.256 26.3537 150.924C26.083 152.592 27.2156 154.163 28.8833 154.434Z" fill="#CED5DD"/>
<path d="M13.1541 151.4C13.1541 153.089 14.5237 154.459 16.2133 154.459C17.9028 154.459 19.2725 153.089 19.2725 151.4C19.2725 149.71 17.9028 148.341 16.2133 148.341C14.5237 148.341 13.1541 149.71 13.1541 151.4Z" fill="#CED5DD"/>
<path d="M-0.000194683 151.4C-0.000194757 153.089 1.36943 154.459 3.05897 154.459C4.74851 154.459 6.11816 153.089 6.11816 151.4C6.11816 149.71 4.74851 148.341 3.05897 148.341C1.36943 148.341 -0.000194609 149.71 -0.000194683 151.4Z" fill="#CED5DD"/>
<path d="M54.9306 170.816C56.5748 171.205 58.2225 170.186 58.6108 168.542C58.999 166.898 57.9808 165.25 56.3366 164.862C54.6923 164.474 53.0446 165.492 52.6564 167.136C52.2681 168.78 53.2863 170.428 54.9306 170.816Z" fill="#CED5DD"/>
<path d="M41.7753 170.816C43.4196 171.204 45.0673 170.186 45.4555 168.542C45.8438 166.897 44.8256 165.25 43.1813 164.861C41.537 164.473 39.8894 165.491 39.5011 167.136C39.1128 168.78 40.131 170.428 41.7753 170.816Z" fill="#CED5DD"/>
<path d="M28.621 170.815C30.2653 171.203 31.913 170.185 32.3012 168.541C32.6895 166.897 31.6713 165.249 30.027 164.861C28.3828 164.472 26.7351 165.491 26.3468 167.135C25.9585 168.779 26.9768 170.427 28.621 170.815Z" fill="#CED5DD"/>
<path d="M13.1541 167.817C13.1541 169.507 14.5237 170.876 16.2133 170.876C17.9028 170.876 19.2725 169.507 19.2725 167.817C19.2725 166.127 17.9028 164.758 16.2133 164.758C14.5237 164.758 13.1541 166.127 13.1541 167.817Z" fill="#CED5DD"/>
<path d="M-0.000194683 167.817C-0.000194757 169.507 1.36943 170.876 3.05897 170.876C4.74851 170.876 6.11816 169.507 6.11816 167.817C6.11816 166.127 4.74851 164.758 3.05897 164.758C1.36943 164.758 -0.000194609 166.127 -0.000194683 167.817Z" fill="#CED5DD"/>
</svg>
