<svg width="88" height="161" viewBox="0 0 88 161" fill="none" xmlns="http://www.w3.org/2000/svg">
<path d="M15.1201 7.62939e-05L15.1201 145.411L87.9996 145.411L87.9996 7.7163e-05L15.1201 7.62939e-05Z" fill="#FDD600"/>
<path d="M8.18753 154.134C7.44649 152.345 5.39549 151.495 3.60649 152.236C1.8175 152.977 0.967964 155.028 1.70901 156.817C2.45005 158.606 4.50105 159.456 6.29005 158.715C8.07904 157.974 8.92858 155.923 8.18753 154.134Z" fill="#0C2D57"/>
<path d="M20.5883 152.018C18.6769 151.708 16.876 153.006 16.5658 154.918C16.2556 156.829 17.5536 158.63 19.4649 158.94C21.3763 159.25 23.1773 157.952 23.4875 156.041C23.7977 154.129 22.4997 152.329 20.5883 152.018Z" fill="#0C2D57"/>
<path d="M38.6118 155.498C38.6118 153.562 37.042 151.992 35.1057 151.992C33.1693 151.992 31.5996 153.562 31.5996 155.498C31.5996 157.435 33.1693 159.005 35.1057 159.005C37.042 159.005 38.6118 157.435 38.6118 155.498Z" fill="#0C2D57"/>
<path d="M53.4151 154.133C52.674 152.344 50.623 151.495 48.834 152.236C47.045 152.977 46.1955 155.028 46.9365 156.817C47.6776 158.606 49.7286 159.455 51.5176 158.714C53.3066 157.973 54.1561 155.922 53.4151 154.133Z" fill="#0C2D57"/>
<path d="M65.8158 152.018C63.9044 151.708 62.1035 153.006 61.7933 154.917C61.4831 156.828 62.7811 158.629 64.6925 158.94C66.6038 159.25 68.4048 157.952 68.715 156.04C69.0252 154.129 67.7272 152.328 65.8158 152.018Z" fill="#0C2D57"/>
<path d="M7.43715 134.211C6.06796 132.842 3.84806 132.842 2.47886 134.211C1.10967 135.58 1.10967 137.8 2.47886 139.169C3.84806 140.538 6.06796 140.538 7.43715 139.169C8.80635 137.8 8.80635 135.58 7.43715 134.211Z" fill="#0C2D57"/>
<path d="M20.8936 133.25C19.0092 132.805 17.1208 133.972 16.6758 135.857C16.2308 137.741 17.3978 139.63 19.2822 140.075C21.1667 140.52 23.0551 139.353 23.5 137.468C23.945 135.584 22.7781 133.695 20.8936 133.25Z" fill="#0C2D57"/>
<path d="M38.6118 136.683C38.6118 134.746 37.042 133.177 35.1057 133.177C33.1693 133.177 31.5996 134.746 31.5996 136.683C31.5996 138.619 33.1693 140.189 35.1057 140.189C37.042 140.189 38.6118 138.619 38.6118 136.683Z" fill="#0C2D57"/>
<path d="M52.6637 134.211C51.2945 132.842 49.0746 132.842 47.7054 134.211C46.3362 135.581 46.3362 137.801 47.7054 139.17C49.0746 140.539 51.2945 140.539 52.6637 139.17C54.0329 137.801 54.0329 135.581 52.6637 134.211Z" fill="#0C2D57"/>
<path d="M66.1221 133.252C64.2377 132.807 62.3493 133.974 61.9043 135.859C61.4593 137.743 62.6263 139.631 64.5107 140.076C66.3952 140.521 68.2836 139.354 68.7285 137.47C69.1735 135.586 68.0066 133.697 66.1221 133.252Z" fill="#0C2D57"/>
<path d="M7.43813 115.396C6.06894 114.027 3.84903 114.027 2.47984 115.396C1.11064 116.765 1.11064 118.985 2.47984 120.354C3.84903 121.723 6.06894 121.723 7.43813 120.354C8.80733 118.985 8.80733 116.765 7.43813 115.396Z" fill="#0C2D57"/>
<path d="M20.8946 114.434C19.0101 113.989 17.1218 115.156 16.6768 117.041C16.2318 118.925 17.3987 120.813 19.2832 121.258C21.1677 121.703 23.056 120.536 23.501 118.652C23.946 116.768 22.779 114.879 20.8946 114.434Z" fill="#0C2D57"/>
<path d="M38.6118 117.867C38.6118 115.931 37.042 114.361 35.1057 114.361C33.1693 114.361 31.5996 115.931 31.5996 117.867C31.5996 119.803 33.1693 121.373 35.1057 121.373C37.042 121.373 38.6118 119.803 38.6118 117.867Z" fill="#0C2D57"/>
<path d="M52.6637 115.397C51.2945 114.027 49.0746 114.027 47.7054 115.397C46.3362 116.766 46.3362 118.986 47.7054 120.355C49.0746 121.724 51.2945 121.724 52.6637 120.355C54.0329 118.986 54.0329 116.766 52.6637 115.397Z" fill="#0C2D57"/>
<path d="M66.1231 114.436C64.2386 113.992 62.3503 115.158 61.9053 117.043C61.4603 118.927 62.6273 120.816 64.5117 121.261C66.3962 121.706 68.2846 120.539 68.7295 118.654C69.1745 116.77 68.0076 114.881 66.1231 114.436Z" fill="#0C2D57"/>
<path d="M7.43813 96.5805C6.06894 95.2113 3.84903 95.2113 2.47984 96.5805C1.11064 97.9497 1.11064 100.17 2.47984 101.539C3.84903 102.908 6.06894 102.908 7.43813 101.539C8.80733 100.17 8.80733 97.9497 7.43813 96.5805Z" fill="#0C2D57"/>
<path d="M20.8956 95.6169C19.0111 95.1719 17.1227 96.3389 16.6778 98.2233C16.2328 100.108 17.3997 101.996 19.2842 102.441C21.1686 102.886 23.057 101.719 23.502 99.8347C23.947 97.9503 22.78 96.0619 20.8956 95.6169Z" fill="#0C2D57"/>
<path d="M38.6118 99.0518C38.6118 97.1154 37.042 95.5457 35.1057 95.5457C33.1693 95.5457 31.5996 97.1154 31.5996 99.0518C31.5996 100.988 33.1693 102.558 35.1057 102.558C37.042 102.558 38.6118 100.988 38.6118 99.0518Z" fill="#0C2D57"/>
<path d="M52.6637 96.582C51.2945 95.2128 49.0746 95.2128 47.7054 96.582C46.3362 97.9512 46.3362 100.171 47.7054 101.54C49.0746 102.909 51.2945 102.909 52.6637 101.54C54.0329 100.171 54.0329 97.9512 52.6637 96.582Z" fill="#0C2D57"/>
<path d="M66.1241 95.6203C64.2396 95.1753 62.3512 96.3423 61.9063 98.2267C61.4613 100.111 62.6282 102 64.5127 102.445C66.3971 102.89 68.2855 101.723 68.7305 99.8381C69.1755 97.9537 68.0085 96.0653 66.1241 95.6203Z" fill="#0C2D57"/>
<path d="M7.43813 77.7663C6.06894 76.3971 3.84903 76.3971 2.47984 77.7663C1.11064 79.1355 1.11064 81.3554 2.47984 82.7246C3.84903 84.0938 6.06894 84.0938 7.43813 82.7246C8.80733 81.3554 8.80733 79.1355 7.43813 77.7663Z" fill="#0C2D57"/>
<path d="M20.8965 76.8022C19.0121 76.3572 17.1237 77.5242 16.6787 79.4086C16.2338 81.2931 17.4007 83.1815 19.2852 83.6264C21.1696 84.0714 23.058 82.9045 23.503 81.02C23.9479 79.1356 22.781 77.2472 20.8965 76.8022Z" fill="#0C2D57"/>
<path d="M38.6118 80.2366C38.6118 78.3002 37.042 76.7305 35.1057 76.7305C33.1693 76.7305 31.5996 78.3002 31.5996 80.2366C31.5996 82.173 33.1693 83.7427 35.1057 83.7427C37.042 83.7427 38.6118 82.173 38.6118 80.2366Z" fill="#0C2D57"/>
<path d="M52.6637 77.7663C51.2945 76.3971 49.0746 76.3971 47.7054 77.7663C46.3362 79.1355 46.3362 81.3554 47.7054 82.7246C49.0746 84.0938 51.2945 84.0938 52.6637 82.7246C54.0329 81.3554 54.0329 79.1355 52.6637 77.7663Z" fill="#0C2D57"/>
<path d="M66.1251 76.8042C64.2406 76.3592 62.3522 77.5261 61.9073 79.4106C61.4623 81.295 62.6292 83.1834 64.5137 83.6284C66.3981 84.0734 68.2865 82.9064 68.7315 81.022C69.1765 79.1375 68.0095 77.2491 66.1251 76.8042Z" fill="#0C2D57"/>
<path d="M7.43813 58.951C6.06894 57.5818 3.84903 57.5818 2.47984 58.951C1.11064 60.3202 1.11064 62.5401 2.47984 63.9093C3.84903 65.2785 6.06894 65.2785 7.43813 63.9093C8.80733 62.5401 8.80733 60.3202 7.43813 58.951Z" fill="#0C2D57"/>
<path d="M20.8975 57.986C19.0131 57.5411 17.1247 58.708 16.6797 60.5925C16.2347 62.4769 17.4017 64.3653 19.2861 64.8103C21.1706 65.2552 23.059 64.0883 23.5039 62.2039C23.9489 60.3194 22.782 58.431 20.8975 57.986Z" fill="#0C2D57"/>
<path d="M38.6118 61.4219C38.6118 59.4855 37.042 57.9158 35.1057 57.9158C33.1693 57.9158 31.5996 59.4855 31.5996 61.4219C31.5996 63.3583 33.1693 64.928 35.1057 64.928C37.042 64.928 38.6118 63.3583 38.6118 61.4219Z" fill="#0C2D57"/>
<path d="M52.6637 58.952C51.2945 57.5828 49.0746 57.5828 47.7054 58.952C46.3362 60.3212 46.3362 62.5411 47.7054 63.9103C49.0746 65.2795 51.2945 65.2795 52.6637 63.9103C54.0329 62.5411 54.0329 60.3212 52.6637 58.952Z" fill="#0C2D57"/>
<path d="M66.126 57.9885C64.2416 57.5435 62.3532 58.7104 61.9082 60.5949C61.4633 62.4794 62.6302 64.3677 64.5146 64.8127C66.3991 65.2577 68.2875 64.0908 68.7325 62.2063C69.1774 60.3218 68.0105 58.4335 66.126 57.9885Z" fill="#0C2D57"/>
<path d="M7.43813 40.1363C6.06894 38.7671 3.84903 38.7671 2.47984 40.1363C1.11064 41.5055 1.11064 43.7254 2.47984 45.0946C3.84903 46.4638 6.06894 46.4638 7.43813 45.0946C8.80733 43.7254 8.80733 41.5055 7.43813 40.1363Z" fill="#0C2D57"/>
<path d="M20.8975 39.1695C19.0131 38.7245 17.1247 39.8915 16.6797 41.7759C16.2347 43.6604 17.4017 45.5488 19.2861 45.9937C21.1706 46.4387 23.059 45.2718 23.5039 43.3873C23.9489 41.5029 22.782 39.6145 20.8975 39.1695Z" fill="#0C2D57"/>
<path d="M38.6118 42.6066C38.6118 40.6702 37.042 39.1005 35.1057 39.1005C33.1693 39.1005 31.5996 40.6702 31.5996 42.6066C31.5996 44.5429 33.1693 46.1127 35.1057 46.1127C37.042 46.1127 38.6118 44.5429 38.6118 42.6066Z" fill="#0C2D57"/>
<path d="M52.6637 40.1368C51.2945 38.7676 49.0746 38.7676 47.7054 40.1368C46.3362 41.506 46.3362 43.7259 47.7054 45.0951C49.0746 46.4643 51.2945 46.4643 52.6637 45.0951C54.0329 43.7259 54.0329 41.506 52.6637 40.1368Z" fill="#0C2D57"/>
<path d="M66.127 39.1727C64.2426 38.7277 62.3542 39.8946 61.9092 41.7791C61.4642 43.6636 62.6312 45.5519 64.5156 45.9969C66.4001 46.4419 68.2885 45.275 68.7334 43.3905C69.1784 41.506 68.0115 39.6177 66.127 39.1727Z" fill="#0C2D57"/>
<path d="M7.43813 21.3207C6.06894 19.9515 3.84903 19.9515 2.47984 21.3207C1.11064 22.6899 1.11064 24.9098 2.47984 26.279C3.84903 27.6482 6.06894 27.6482 7.43813 26.279C8.80733 24.9098 8.80733 22.6899 7.43813 21.3207Z" fill="#0C2D57"/>
<path d="M20.8985 20.3537C19.014 19.9087 17.1257 21.0757 16.6807 22.9601C16.2357 24.8446 17.4026 26.733 19.2871 27.1779C21.1716 27.6229 23.0599 26.456 23.5049 24.5715C23.9499 22.6871 22.783 20.7987 20.8985 20.3537Z" fill="#0C2D57"/>
<path d="M38.6118 23.7919C38.6118 21.8555 37.042 20.2858 35.1057 20.2858C33.1693 20.2858 31.5996 21.8555 31.5996 23.7919C31.5996 25.7282 33.1693 27.298 35.1057 27.298C37.042 27.298 38.6118 25.7282 38.6118 23.7919Z" fill="#0C2D57"/>
<path d="M52.6647 21.3215C51.2955 19.9523 49.0756 19.9523 47.7064 21.3215C46.3372 22.6907 46.3372 24.9106 47.7064 26.2798C49.0756 27.649 51.2955 27.649 52.6647 26.2798C54.0339 24.9106 54.0339 22.6907 52.6647 21.3215Z" fill="#0C2D57"/>
<path d="M66.127 20.3562C64.2426 19.9112 62.3542 21.0781 61.9092 22.9626C61.4642 24.847 62.6312 26.7354 64.5156 27.1804C66.4001 27.6254 68.2885 26.4584 68.7334 24.574C69.1784 22.6895 68.0115 20.8011 66.127 20.3562Z" fill="#0C2D57"/>
</svg>
