<svg width="110" height="32" viewBox="0 0 110 32" fill="none" xmlns="http://www.w3.org/2000/svg">
<g id="Group">
<path id="Vector" d="M1.65657 3.33323C2.57147 3.33323 3.31314 2.58706 3.31314 1.66662C3.31314 0.74617 2.57147 0 1.65657 0C0.74167 0 0 0.74617 0 1.66662C0 2.58706 0.74167 3.33323 1.65657 3.33323Z" fill="#E7EAEE"/>
<path id="Vector_2" d="M1.65657 10.4998C2.57147 10.4998 3.31314 9.75361 3.31314 8.83316C3.31314 7.91272 2.57147 7.16655 1.65657 7.16655C0.74167 7.16655 0 7.91272 0 8.83316C0 9.75361 0.74167 10.4998 1.65657 10.4998Z" fill="#E7EAEE"/>
<path id="Vector_3" d="M1.65657 17.6666C2.57147 17.6666 3.31314 16.9204 3.31314 16C3.31314 15.0795 2.57147 14.3334 1.65657 14.3334C0.74167 14.3334 0 15.0795 0 16C0 16.9204 0.74167 17.6666 1.65657 17.6666Z" fill="#E7EAEE"/>
<path id="Vector_4" d="M1.65657 24.8332C2.57147 24.8332 3.31314 24.087 3.31314 23.1666C3.31314 22.2461 2.57147 21.5 1.65657 21.5C0.74167 21.5 0 22.2461 0 23.1666C0 24.087 0.74167 24.8332 1.65657 24.8332Z" fill="#E7EAEE"/>
<path id="Vector_5" d="M1.65657 32C2.57147 32 3.31314 31.2538 3.31314 30.3334C3.31314 29.4129 2.57147 28.6668 1.65657 28.6668C0.74167 28.6668 0 29.4129 0 30.3334C0 31.2538 0.74167 32 1.65657 32Z" fill="#E7EAEE"/>
<path id="Vector_6" d="M10.5472 3.33323C11.4621 3.33323 12.2038 2.58706 12.2038 1.66662C12.2038 0.74617 11.4621 0 10.5472 0C9.6323 0 8.89062 0.74617 8.89062 1.66662C8.89062 2.58706 9.6323 3.33323 10.5472 3.33323Z" fill="#E7EAEE"/>
<path id="Vector_7" d="M10.5472 10.4998C11.4621 10.4998 12.2038 9.75363 12.2038 8.83318C12.2038 7.91274 11.4621 7.16656 10.5472 7.16656C9.6323 7.16656 8.89062 7.91274 8.89062 8.83318C8.89062 9.75363 9.6323 10.4998 10.5472 10.4998Z" fill="#E7EAEE"/>
<path id="Vector_8" d="M10.5472 17.6666C11.4621 17.6666 12.2038 16.9204 12.2038 16C12.2038 15.0795 11.4621 14.3334 10.5472 14.3334C9.6323 14.3334 8.89062 15.0795 8.89062 16C8.89062 16.9204 9.6323 17.6666 10.5472 17.6666Z" fill="#E7EAEE"/>
<path id="Vector_9" d="M10.5472 24.8332C11.4621 24.8332 12.2038 24.0871 12.2038 23.1666C12.2038 22.2462 11.4621 21.5 10.5472 21.5C9.6323 21.5 8.89062 22.2462 8.89062 23.1666C8.89062 24.0871 9.6323 24.8332 10.5472 24.8332Z" fill="#E7EAEE"/>
<path id="Vector_10" d="M10.5472 32C11.4621 32 12.2038 31.2539 12.2038 30.3334C12.2038 29.413 11.4621 28.6668 10.5472 28.6668C9.6323 28.6668 8.89062 29.413 8.89062 30.3334C8.89062 31.2539 9.6323 32 10.5472 32Z" fill="#E7EAEE"/>
<path id="Vector_11" d="M19.4378 3.33323C20.3527 3.33323 21.0944 2.58706 21.0944 1.66662C21.0944 0.74617 20.3527 0 19.4378 0C18.5229 0 17.7812 0.74617 17.7812 1.66662C17.7812 2.58706 18.5229 3.33323 19.4378 3.33323Z" fill="#E7EAEE"/>
<path id="Vector_12" d="M19.4378 10.4998C20.3527 10.4998 21.0944 9.75363 21.0944 8.83318C21.0944 7.91274 20.3527 7.16656 19.4378 7.16656C18.5229 7.16656 17.7812 7.91274 17.7812 8.83318C17.7812 9.75363 18.5229 10.4998 19.4378 10.4998Z" fill="#E7EAEE"/>
<path id="Vector_13" d="M19.4378 17.6666C20.3527 17.6666 21.0944 16.9204 21.0944 16C21.0944 15.0795 20.3527 14.3334 19.4378 14.3334C18.5229 14.3334 17.7812 15.0795 17.7812 16C17.7812 16.9204 18.5229 17.6666 19.4378 17.6666Z" fill="#E7EAEE"/>
<path id="Vector_14" d="M19.4378 24.8332C20.3527 24.8332 21.0944 24.0871 21.0944 23.1666C21.0944 22.2462 20.3527 21.5 19.4378 21.5C18.5229 21.5 17.7812 22.2462 17.7812 23.1666C17.7812 24.0871 18.5229 24.8332 19.4378 24.8332Z" fill="#E7EAEE"/>
<path id="Vector_15" d="M19.4378 32C20.3527 32 21.0944 31.2539 21.0944 30.3334C21.0944 29.413 20.3527 28.6668 19.4378 28.6668C18.5229 28.6668 17.7812 29.413 17.7812 30.3334C17.7812 31.2539 18.5229 32 19.4378 32Z" fill="#E7EAEE"/>
<path id="Vector_16" d="M28.3284 3.33323C29.2433 3.33323 29.985 2.58706 29.985 1.66662C29.985 0.74617 29.2433 0 28.3284 0C27.4135 0 26.6719 0.74617 26.6719 1.66662C26.6719 2.58706 27.4135 3.33323 28.3284 3.33323Z" fill="#E7EAEE"/>
<path id="Vector_17" d="M28.3284 10.4998C29.2433 10.4998 29.985 9.75363 29.985 8.83318C29.985 7.91274 29.2433 7.16656 28.3284 7.16656C27.4135 7.16656 26.6719 7.91274 26.6719 8.83318C26.6719 9.75363 27.4135 10.4998 28.3284 10.4998Z" fill="#E7EAEE"/>
<path id="Vector_18" d="M28.3284 17.6666C29.2433 17.6666 29.985 16.9204 29.985 16C29.985 15.0795 29.2433 14.3334 28.3284 14.3334C27.4135 14.3334 26.6719 15.0795 26.6719 16C26.6719 16.9204 27.4135 17.6666 28.3284 17.6666Z" fill="#E7EAEE"/>
<path id="Vector_19" d="M28.3284 24.8332C29.2433 24.8332 29.985 24.0871 29.985 23.1666C29.985 22.2462 29.2433 21.5 28.3284 21.5C27.4135 21.5 26.6719 22.2462 26.6719 23.1666C26.6719 24.0871 27.4135 24.8332 28.3284 24.8332Z" fill="#E7EAEE"/>
<path id="Vector_20" d="M28.3284 32C29.2433 32 29.985 31.2539 29.985 30.3334C29.985 29.413 29.2433 28.6668 28.3284 28.6668C27.4135 28.6668 26.6719 29.413 26.6719 30.3334C26.6719 31.2539 27.4135 32 28.3284 32Z" fill="#E7EAEE"/>
<path id="Vector_21" d="M37.2191 3.33323C38.134 3.33323 38.8756 2.58706 38.8756 1.66662C38.8756 0.74617 38.134 0 37.2191 0C36.3042 0 35.5625 0.74617 35.5625 1.66662C35.5625 2.58706 36.3042 3.33323 37.2191 3.33323Z" fill="#E7EAEE"/>
<path id="Vector_22" d="M37.2191 10.4998C38.134 10.4998 38.8756 9.75363 38.8756 8.83318C38.8756 7.91274 38.134 7.16656 37.2191 7.16656C36.3042 7.16656 35.5625 7.91274 35.5625 8.83318C35.5625 9.75363 36.3042 10.4998 37.2191 10.4998Z" fill="#E7EAEE"/>
<path id="Vector_23" d="M37.2191 17.6666C38.134 17.6666 38.8756 16.9204 38.8756 16C38.8756 15.0795 38.134 14.3334 37.2191 14.3334C36.3042 14.3334 35.5625 15.0795 35.5625 16C35.5625 16.9204 36.3042 17.6666 37.2191 17.6666Z" fill="#E7EAEE"/>
<path id="Vector_24" d="M37.2191 24.8332C38.134 24.8332 38.8756 24.0871 38.8756 23.1666C38.8756 22.2462 38.134 21.5 37.2191 21.5C36.3042 21.5 35.5625 22.2462 35.5625 23.1666C35.5625 24.0871 36.3042 24.8332 37.2191 24.8332Z" fill="#E7EAEE"/>
<path id="Vector_25" d="M37.2191 32C38.134 32 38.8756 31.2539 38.8756 30.3334C38.8756 29.413 38.134 28.6668 37.2191 28.6668C36.3042 28.6668 35.5625 29.413 35.5625 30.3334C35.5625 31.2539 36.3042 32 37.2191 32Z" fill="#E7EAEE"/>
<path id="Vector_26" d="M46.1097 3.33323C47.0246 3.33323 47.7663 2.58706 47.7663 1.66662C47.7663 0.74617 47.0246 0 46.1097 0C45.1948 0 44.4531 0.74617 44.4531 1.66662C44.4531 2.58706 45.1948 3.33323 46.1097 3.33323Z" fill="#E7EAEE"/>
<path id="Vector_27" d="M46.1097 10.4998C47.0246 10.4998 47.7663 9.75363 47.7663 8.83318C47.7663 7.91274 47.0246 7.16656 46.1097 7.16656C45.1948 7.16656 44.4531 7.91274 44.4531 8.83318C44.4531 9.75363 45.1948 10.4998 46.1097 10.4998Z" fill="#E7EAEE"/>
<path id="Vector_28" d="M46.1097 17.6666C47.0246 17.6666 47.7663 16.9204 47.7663 16C47.7663 15.0795 47.0246 14.3334 46.1097 14.3334C45.1948 14.3334 44.4531 15.0795 44.4531 16C44.4531 16.9204 45.1948 17.6666 46.1097 17.6666Z" fill="#E7EAEE"/>
<path id="Vector_29" d="M46.1097 24.8332C47.0246 24.8332 47.7663 24.0871 47.7663 23.1666C47.7663 22.2462 47.0246 21.5 46.1097 21.5C45.1948 21.5 44.4531 22.2462 44.4531 23.1666C44.4531 24.0871 45.1948 24.8332 46.1097 24.8332Z" fill="#E7EAEE"/>
<path id="Vector_30" d="M46.1097 32C47.0246 32 47.7663 31.2539 47.7663 30.3334C47.7663 29.413 47.0246 28.6668 46.1097 28.6668C45.1948 28.6668 44.4531 29.413 44.4531 30.3334C44.4531 31.2539 45.1948 32 46.1097 32Z" fill="#E7EAEE"/>
<path id="Vector_31" d="M55.0003 3.33323C55.9152 3.33323 56.6569 2.58706 56.6569 1.66662C56.6569 0.74617 55.9152 0 55.0003 0C54.0854 0 53.3438 0.74617 53.3438 1.66662C53.3438 2.58706 54.0854 3.33323 55.0003 3.33323Z" fill="#E7EAEE"/>
<path id="Vector_32" d="M55.0003 10.4998C55.9152 10.4998 56.6569 9.75363 56.6569 8.83318C56.6569 7.91274 55.9152 7.16656 55.0003 7.16656C54.0854 7.16656 53.3438 7.91274 53.3438 8.83318C53.3438 9.75363 54.0854 10.4998 55.0003 10.4998Z" fill="#E7EAEE"/>
<path id="Vector_33" d="M55.0003 17.6666C55.9152 17.6666 56.6569 16.9204 56.6569 16C56.6569 15.0795 55.9152 14.3334 55.0003 14.3334C54.0854 14.3334 53.3438 15.0795 53.3438 16C53.3438 16.9204 54.0854 17.6666 55.0003 17.6666Z" fill="#E7EAEE"/>
<path id="Vector_34" d="M55.0003 24.8332C55.9152 24.8332 56.6569 24.0871 56.6569 23.1666C56.6569 22.2462 55.9152 21.5 55.0003 21.5C54.0854 21.5 53.3438 22.2462 53.3438 23.1666C53.3438 24.0871 54.0854 24.8332 55.0003 24.8332Z" fill="#E7EAEE"/>
<path id="Vector_35" d="M55.0003 32C55.9152 32 56.6569 31.2539 56.6569 30.3334C56.6569 29.413 55.9152 28.6668 55.0003 28.6668C54.0854 28.6668 53.3438 29.413 53.3438 30.3334C53.3438 31.2539 54.0854 32 55.0003 32Z" fill="#E7EAEE"/>
<path id="Vector_36" d="M63.8909 3.33323C64.8058 3.33323 65.5475 2.58706 65.5475 1.66662C65.5475 0.74617 64.8058 0 63.8909 0C62.976 0 62.2344 0.74617 62.2344 1.66662C62.2344 2.58706 62.976 3.33323 63.8909 3.33323Z" fill="#E7EAEE"/>
<path id="Vector_37" d="M63.8909 10.4998C64.8058 10.4998 65.5475 9.75363 65.5475 8.83318C65.5475 7.91274 64.8058 7.16656 63.8909 7.16656C62.976 7.16656 62.2344 7.91274 62.2344 8.83318C62.2344 9.75363 62.976 10.4998 63.8909 10.4998Z" fill="#E7EAEE"/>
<path id="Vector_38" d="M63.8909 17.6666C64.8058 17.6666 65.5475 16.9204 65.5475 16C65.5475 15.0795 64.8058 14.3334 63.8909 14.3334C62.976 14.3334 62.2344 15.0795 62.2344 16C62.2344 16.9204 62.976 17.6666 63.8909 17.6666Z" fill="#E7EAEE"/>
<path id="Vector_39" d="M63.8909 24.8332C64.8058 24.8332 65.5475 24.0871 65.5475 23.1666C65.5475 22.2462 64.8058 21.5 63.8909 21.5C62.976 21.5 62.2344 22.2462 62.2344 23.1666C62.2344 24.0871 62.976 24.8332 63.8909 24.8332Z" fill="#E7EAEE"/>
<path id="Vector_40" d="M63.8909 32C64.8058 32 65.5475 31.2539 65.5475 30.3334C65.5475 29.413 64.8058 28.6668 63.8909 28.6668C62.976 28.6668 62.2344 29.413 62.2344 30.3334C62.2344 31.2539 62.976 32 63.8909 32Z" fill="#E7EAEE"/>
<path id="Vector_41" d="M72.7816 3.33323C73.6965 3.33323 74.4381 2.58706 74.4381 1.66662C74.4381 0.74617 73.6965 0 72.7816 0C71.8667 0 71.125 0.74617 71.125 1.66662C71.125 2.58706 71.8667 3.33323 72.7816 3.33323Z" fill="#E7EAEE"/>
<path id="Vector_42" d="M72.7816 10.4998C73.6965 10.4998 74.4381 9.75363 74.4381 8.83318C74.4381 7.91274 73.6965 7.16656 72.7816 7.16656C71.8667 7.16656 71.125 7.91274 71.125 8.83318C71.125 9.75363 71.8667 10.4998 72.7816 10.4998Z" fill="#E7EAEE"/>
<path id="Vector_43" d="M72.7816 17.6666C73.6965 17.6666 74.4381 16.9204 74.4381 16C74.4381 15.0795 73.6965 14.3334 72.7816 14.3334C71.8667 14.3334 71.125 15.0795 71.125 16C71.125 16.9204 71.8667 17.6666 72.7816 17.6666Z" fill="#E7EAEE"/>
<path id="Vector_44" d="M72.7816 24.8332C73.6965 24.8332 74.4381 24.0871 74.4381 23.1666C74.4381 22.2462 73.6965 21.5 72.7816 21.5C71.8667 21.5 71.125 22.2462 71.125 23.1666C71.125 24.0871 71.8667 24.8332 72.7816 24.8332Z" fill="#E7EAEE"/>
<path id="Vector_45" d="M72.7816 32C73.6965 32 74.4381 31.2539 74.4381 30.3334C74.4381 29.413 73.6965 28.6668 72.7816 28.6668C71.8667 28.6668 71.125 29.413 71.125 30.3334C71.125 31.2539 71.8667 32 72.7816 32Z" fill="#E7EAEE"/>
<path id="Vector_46" d="M81.6722 3.33323C82.5871 3.33323 83.3288 2.58706 83.3288 1.66662C83.3288 0.74617 82.5871 0 81.6722 0C80.7573 0 80.0156 0.74617 80.0156 1.66662C80.0156 2.58706 80.7573 3.33323 81.6722 3.33323Z" fill="#E7EAEE"/>
<path id="Vector_47" d="M81.6722 10.4998C82.5871 10.4998 83.3288 9.75363 83.3288 8.83318C83.3288 7.91274 82.5871 7.16656 81.6722 7.16656C80.7573 7.16656 80.0156 7.91274 80.0156 8.83318C80.0156 9.75363 80.7573 10.4998 81.6722 10.4998Z" fill="#E7EAEE"/>
<path id="Vector_48" d="M81.6722 17.6666C82.5871 17.6666 83.3288 16.9204 83.3288 16C83.3288 15.0795 82.5871 14.3334 81.6722 14.3334C80.7573 14.3334 80.0156 15.0795 80.0156 16C80.0156 16.9204 80.7573 17.6666 81.6722 17.6666Z" fill="#E7EAEE"/>
<path id="Vector_49" d="M81.6722 24.8332C82.5871 24.8332 83.3288 24.0871 83.3288 23.1666C83.3288 22.2462 82.5871 21.5 81.6722 21.5C80.7573 21.5 80.0156 22.2462 80.0156 23.1666C80.0156 24.0871 80.7573 24.8332 81.6722 24.8332Z" fill="#E7EAEE"/>
<path id="Vector_50" d="M81.6722 32C82.5871 32 83.3288 31.2539 83.3288 30.3334C83.3288 29.413 82.5871 28.6668 81.6722 28.6668C80.7573 28.6668 80.0156 29.413 80.0156 30.3334C80.0156 31.2539 80.7573 32 81.6722 32Z" fill="#E7EAEE"/>
<path id="Vector_51" d="M90.5628 3.33323C91.4777 3.33323 92.2194 2.58706 92.2194 1.66662C92.2194 0.74617 91.4777 0 90.5628 0C89.6479 0 88.9062 0.74617 88.9062 1.66662C88.9062 2.58706 89.6479 3.33323 90.5628 3.33323Z" fill="#E7EAEE"/>
<path id="Vector_52" d="M90.5628 10.4998C91.4777 10.4998 92.2194 9.75363 92.2194 8.83318C92.2194 7.91274 91.4777 7.16656 90.5628 7.16656C89.6479 7.16656 88.9062 7.91274 88.9062 8.83318C88.9062 9.75363 89.6479 10.4998 90.5628 10.4998Z" fill="#E7EAEE"/>
<path id="Vector_53" d="M90.5628 17.6666C91.4777 17.6666 92.2194 16.9204 92.2194 16C92.2194 15.0795 91.4777 14.3334 90.5628 14.3334C89.6479 14.3334 88.9062 15.0795 88.9062 16C88.9062 16.9204 89.6479 17.6666 90.5628 17.6666Z" fill="#E7EAEE"/>
<path id="Vector_54" d="M90.5628 24.8332C91.4777 24.8332 92.2194 24.0871 92.2194 23.1666C92.2194 22.2462 91.4777 21.5 90.5628 21.5C89.6479 21.5 88.9062 22.2462 88.9062 23.1666C88.9062 24.0871 89.6479 24.8332 90.5628 24.8332Z" fill="#E7EAEE"/>
<path id="Vector_55" d="M90.5628 32C91.4777 32 92.2194 31.2539 92.2194 30.3334C92.2194 29.413 91.4777 28.6668 90.5628 28.6668C89.6479 28.6668 88.9062 29.413 88.9062 30.3334C88.9062 31.2539 89.6479 32 90.5628 32Z" fill="#E7EAEE"/>
<path id="Vector_56" d="M99.4534 3.33323C100.368 3.33323 101.11 2.58706 101.11 1.66662C101.11 0.74617 100.368 0 99.4534 0C98.5385 0 97.7969 0.74617 97.7969 1.66662C97.7969 2.58706 98.5385 3.33323 99.4534 3.33323Z" fill="#E7EAEE"/>
<path id="Vector_57" d="M99.4534 10.4998C100.368 10.4998 101.11 9.75363 101.11 8.83318C101.11 7.91274 100.368 7.16656 99.4534 7.16656C98.5385 7.16656 97.7969 7.91274 97.7969 8.83318C97.7969 9.75363 98.5385 10.4998 99.4534 10.4998Z" fill="#E7EAEE"/>
<path id="Vector_58" d="M99.4534 17.6666C100.368 17.6666 101.11 16.9204 101.11 16C101.11 15.0795 100.368 14.3334 99.4534 14.3334C98.5385 14.3334 97.7969 15.0795 97.7969 16C97.7969 16.9204 98.5385 17.6666 99.4534 17.6666Z" fill="#E7EAEE"/>
<path id="Vector_59" d="M99.4534 24.8332C100.368 24.8332 101.11 24.0871 101.11 23.1666C101.11 22.2462 100.368 21.5 99.4534 21.5C98.5385 21.5 97.7969 22.2462 97.7969 23.1666C97.7969 24.0871 98.5385 24.8332 99.4534 24.8332Z" fill="#E7EAEE"/>
<path id="Vector_60" d="M99.4534 32C100.368 32 101.11 31.2539 101.11 30.3334C101.11 29.413 100.368 28.6668 99.4534 28.6668C98.5385 28.6668 97.7969 29.413 97.7969 30.3334C97.7969 31.2539 98.5385 32 99.4534 32Z" fill="#E7EAEE"/>
<path id="Vector_61" d="M108.344 3.33323C109.259 3.33323 110.001 2.58706 110.001 1.66662C110.001 0.74617 109.259 0 108.344 0C107.429 0 106.688 0.74617 106.688 1.66662C106.688 2.58706 107.429 3.33323 108.344 3.33323Z" fill="#E7EAEE"/>
<path id="Vector_62" d="M108.344 10.4998C109.259 10.4998 110.001 9.75363 110.001 8.83318C110.001 7.91274 109.259 7.16656 108.344 7.16656C107.429 7.16656 106.688 7.91274 106.688 8.83318C106.688 9.75363 107.429 10.4998 108.344 10.4998Z" fill="#E7EAEE"/>
<path id="Vector_63" d="M108.344 17.6666C109.259 17.6666 110.001 16.9204 110.001 16C110.001 15.0795 109.259 14.3334 108.344 14.3334C107.429 14.3334 106.688 15.0795 106.688 16C106.688 16.9204 107.429 17.6666 108.344 17.6666Z" fill="#E7EAEE"/>
<path id="Vector_64" d="M108.344 24.8332C109.259 24.8332 110.001 24.0871 110.001 23.1666C110.001 22.2462 109.259 21.5 108.344 21.5C107.429 21.5 106.688 22.2462 106.688 23.1666C106.688 24.0871 107.429 24.8332 108.344 24.8332Z" fill="#E7EAEE"/>
<path id="Vector_65" d="M108.344 32C109.259 32 110.001 31.2539 110.001 30.3334C110.001 29.413 109.259 28.6668 108.344 28.6668C107.429 28.6668 106.688 29.413 106.688 30.3334C106.688 31.2539 107.429 32 108.344 32Z" fill="#E7EAEE"/>
</g>
</svg>
