<svg width="64" height="64" viewBox="0 0 64 64" fill="none" xmlns="http://www.w3.org/2000/svg">
<circle opacity="0.2" cx="32" cy="32" r="32" fill="url(#paint0_linear_479_90)"/>
<circle cx="32" cy="31.9999" r="17.7778" fill="url(#paint1_linear_479_90)"/>
<path d="M37.0827 24.0437C36.1605 23.2886 35.0823 22.7476 33.9257 22.4597C32.7692 22.1718 31.5632 22.1442 30.3947 22.3788C28.8922 22.6868 27.5099 23.4202 26.4126 24.4917C25.3152 25.5632 24.5489 26.9275 24.2051 28.4222C23.8612 29.9168 23.9542 31.4789 24.4731 32.9222C24.9919 34.3654 25.9147 35.6292 27.1316 36.5628C28.5208 37.5796 29.7037 38.8518 30.6169 40.3112L31.2391 41.3459C31.3181 41.4773 31.4298 41.5861 31.5633 41.6616C31.6968 41.737 31.8475 41.7767 32.0009 41.7767C32.1542 41.7767 32.305 41.737 32.4385 41.6616C32.572 41.5861 32.6836 41.4773 32.7627 41.3459L33.3591 40.3521C34.1543 38.9542 35.2386 37.7421 36.5396 36.7966C37.5596 36.0947 38.4027 35.1654 39.0022 34.082C39.6016 32.9986 39.9411 31.7907 39.9939 30.5536C40.0466 29.3165 39.8112 28.0841 39.3061 26.9536C38.8011 25.823 38.0402 24.8254 37.0836 24.0392L37.0827 24.0437ZM32 33.7779C31.2968 33.7779 30.6093 33.5694 30.0246 33.1787C29.4399 32.788 28.9842 32.2327 28.7151 31.583C28.446 30.9333 28.3756 30.2184 28.5128 29.5287C28.65 28.839 28.9886 28.2054 29.4858 27.7082C29.9831 27.2109 30.6166 26.8723 31.3063 26.7351C31.9961 26.5979 32.711 26.6683 33.3607 26.9374C34.0103 27.2065 34.5656 27.6623 34.9563 28.247C35.347 28.8317 35.5556 29.5191 35.5556 30.2223C35.5556 31.1653 35.181 32.0697 34.5142 32.7365C33.8474 33.4033 32.943 33.7779 32 33.7779Z" fill="white"/>
<defs>
<linearGradient id="paint0_linear_479_90" x1="64" y1="0" x2="0" y2="0" gradientUnits="userSpaceOnUse">
<stop stop-color="#FF8911"/>
<stop offset="1" stop-color="#F83600"/>
</linearGradient>
<linearGradient id="paint1_linear_479_90" x1="49.7778" y1="14.2222" x2="14.2222" y2="14.2222" gradientUnits="userSpaceOnUse">
<stop stop-color="#FF8911"/>
<stop offset="1" stop-color="#F83600"/>
</linearGradient>
</defs>
</svg>
