<svg width="72" height="72" viewBox="0 0 72 72" fill="none" xmlns="http://www.w3.org/2000/svg">
<g clip-path="url(#clip0_155_28)">
<path d="M69.9737 46.6167H69.594V44.2663C69.594 43.1871 68.7159 42.309 67.6367 42.309H65.6502L57.0781 33.7369C57.0419 33.7014 57.0033 33.6684 56.9625 33.6383V21.9015H63.1492C63.3479 21.9015 63.5426 21.8458 63.7112 21.7406C63.8798 21.6354 64.0155 21.485 64.1028 21.3065C64.1901 21.128 64.2256 20.9286 64.2051 20.7309C64.1847 20.5332 64.1092 20.3453 63.9872 20.1884L59.7413 14.728C59.642 14.6004 59.5149 14.4971 59.3697 14.4261C59.2245 14.3551 59.0649 14.3181 58.9033 14.3181H56.6594L22.1366 0.614953C22.1028 0.601433 22.0684 0.58967 22.0334 0.579712C22.0222 0.576457 22.0109 0.574334 21.9996 0.571503C21.9785 0.566266 21.9574 0.560747 21.9359 0.556784C21.9155 0.552962 21.8951 0.550556 21.8748 0.548009C21.8622 0.546452 21.8497 0.544329 21.837 0.543197C21.8123 0.541103 21.7875 0.539923 21.7627 0.539658C21.7556 0.539517 21.7487 0.538668 21.7414 0.538668H19.1025C18.8369 0.538683 18.581 0.6382 18.3853 0.81759C18.1895 0.996979 18.0681 1.24322 18.0449 1.50773L16.9257 14.3183H9.76296C9.728 12.9471 8.6041 11.8418 7.2246 11.8418H2.54162C1.14017 11.8416 0 12.9818 0 14.3832V21.9883C0 23.3897 1.14017 24.5299 2.54162 24.5299H7.2246C8.62604 24.5299 9.76621 23.3897 9.76621 21.9883V21.9017H16.5017L15.2415 63.8304H14.273C12.178 63.8304 10.4737 65.5347 10.4737 67.6297V70.4C10.4737 70.6815 10.5856 70.9515 10.7846 71.1506C10.9837 71.3496 11.2537 71.4615 11.5352 71.4615H13.4409C13.7225 71.4615 13.9924 71.3496 14.1915 71.1506C14.3906 70.9515 14.5024 70.6815 14.5024 70.4C14.5024 70.1185 14.3906 69.8485 14.1915 69.6494C13.9924 69.4503 13.7225 69.3385 13.4409 69.3385H12.5967V67.6297C12.5967 66.7053 13.3486 65.9534 14.273 65.9534H27.7097C28.634 65.9534 29.386 66.7053 29.386 67.6297V69.3385H17.6867C17.4052 69.3385 17.1352 69.4503 16.9361 69.6494C16.7371 69.8485 16.6252 70.1185 16.6252 70.4C16.6252 70.6815 16.7371 70.9515 16.9361 71.1506C17.1352 71.3496 17.4052 71.4615 17.6867 71.4615H30.4474C30.729 71.4615 30.999 71.3496 31.198 71.1506C31.3971 70.9515 31.5089 70.6815 31.5089 70.4V67.6297C31.5089 65.5347 29.8046 63.8304 27.7097 63.8304H25.6072L24.347 21.9017H30.2172V27.1959C30.2172 28.7128 31.4513 29.947 32.9683 29.947H41.1124C42.6293 29.947 43.8635 28.7128 43.8635 27.1959V21.9017H54.8391V33.5497C54.7458 33.5991 54.6604 33.6622 54.5857 33.7369L46.0136 42.309H43.8817C42.8025 42.309 41.9245 43.1871 41.9245 44.2663V46.6167H40.9362C39.8188 46.6167 38.9099 47.5256 38.9099 48.643V50.6397C38.9099 51.7569 39.8188 52.6659 40.9362 52.6659H43.7844C44.0659 52.6659 44.3359 52.554 44.5349 52.355C44.734 52.1559 44.8458 51.8859 44.8458 51.6044C44.8458 51.3228 44.734 51.0529 44.5349 50.8538C44.3359 50.6547 44.0659 50.5429 43.7844 50.5429H41.0328V48.7396H69.8766V50.5429H48.0307C47.7492 50.5429 47.4792 50.6547 47.2801 50.8538C47.0811 51.0529 46.9692 51.3228 46.9692 51.6044C46.9692 51.8859 47.0811 52.1559 47.2801 52.355C47.4792 52.554 47.7492 52.6659 48.0307 52.6659H69.9737C71.0909 52.6659 72 51.7569 72 50.6397V48.643C72 47.5257 71.0909 46.6167 69.9737 46.6167ZM20.0752 2.66163H20.7687L21.7872 14.3183H19.0567L20.0752 2.66163ZM7.64325 21.9883C7.64313 22.0993 7.59899 22.2057 7.5205 22.2842C7.44202 22.3627 7.3356 22.4068 7.2246 22.4069H2.54162C2.43062 22.4068 2.3242 22.3627 2.24571 22.2842C2.16722 22.2057 2.12308 22.0993 2.12297 21.9883V14.3832C2.12308 14.2722 2.16722 14.1658 2.24571 14.0873C2.3242 14.0088 2.43062 13.9647 2.54162 13.9646H7.2246C7.3356 13.9647 7.44202 14.0088 7.5205 14.0873C7.59899 14.1658 7.64313 14.2722 7.64325 14.3832V20.8402V21.9883ZM9.76621 16.4412H31.2789C31.5605 16.4412 31.8305 16.3294 32.0295 16.1303C32.2286 15.9313 32.3404 15.6613 32.3404 15.3798C32.3404 15.0982 32.2286 14.8282 32.0295 14.6292C31.8305 14.4301 31.5605 14.3183 31.2789 14.3183H23.9181L22.9484 3.22125L50.9051 14.3183H35.5249C35.2434 14.3183 34.9734 14.4301 34.7743 14.6292C34.5752 14.8282 34.4634 15.0982 34.4634 15.3798C34.4634 15.6613 34.5752 15.9313 34.7743 16.1303C34.9734 16.3294 35.2434 16.4412 35.5249 16.4412H56.4501L56.4561 16.4415L56.4597 16.4412H58.3839L60.979 19.7787H9.76607L9.76621 16.4412ZM18.3714 30.362L21.5749 32.6812L18.16 37.3979L18.3714 30.362ZM18.5556 52.4708L22.9762 46.948L23.2442 55.8679L18.5556 52.4708ZM18.8844 40.0175L22.6131 34.8672L22.8543 42.8937L18.8844 40.0175ZM18.0213 42.0139L21.9361 44.8501L17.78 50.0422L18.0213 42.0139ZM21.9361 57.5416L17.3837 63.2289L17.6479 54.435L21.9361 57.5416ZM19.1862 28.331L22.293 24.2109L22.4887 30.722L19.1862 28.331ZM21.3752 21.9017L18.5116 25.6995L18.6256 21.9017H21.3752ZM19.6216 63.8303L23.3439 59.1801L23.4836 63.8303H19.6216ZM41.7409 27.1959C41.7407 27.3624 41.6745 27.5221 41.5567 27.6399C41.439 27.7576 41.2793 27.8238 41.1128 27.824H32.9687C32.8022 27.8238 32.6425 27.7576 32.5247 27.6399C32.407 27.5221 32.3408 27.3624 32.3406 27.1959V21.9017H41.7409V27.1959ZM62.6479 42.309H56.9625V36.6236L62.6479 42.309ZM54.8395 36.486V42.3092H49.0163L54.8395 36.486ZM44.0479 44.432H67.471V46.6167H44.0479V44.432Z" fill="url(#paint0_linear_155_28)"/>
</g>
<defs>
<linearGradient id="paint0_linear_155_28" x1="72" y1="0.538668" x2="0" y2="0.538668" gradientUnits="userSpaceOnUse">
<stop stop-color="#FF8911"/>
<stop offset="1" stop-color="#F83600"/>
</linearGradient>
<clipPath id="clip0_155_28">
<rect width="72" height="72" fill="white"/>
</clipPath>
</defs>
</svg>
