<svg width="72" height="72" viewBox="0 0 72 72" fill="none" xmlns="http://www.w3.org/2000/svg">
<path d="M62.9898 38.5537L57.4262 37.762L54 36.3682V33.7438C55.2475 32.8136 56.2871 31.6333 57.0523 30.2784C57.8175 28.9234 58.2914 27.4236 58.4438 25.875H58.5C59.5858 25.8743 60.6347 25.4809 61.4533 24.7676C62.2719 24.0543 62.805 23.069 62.9542 21.9935C63.1035 20.918 62.8588 19.8248 62.2654 18.9155C61.6719 18.0063 60.7697 17.3422 59.7251 17.0459C59.9532 16.1831 59.9183 15.2718 59.625 14.429V10.125C59.625 8.03642 58.7953 6.03338 57.3185 4.55653C55.8416 3.07969 53.8386 2.25 51.75 2.25H42.75C40.6614 2.25 38.6584 3.07969 37.1816 4.55653C35.7047 6.03338 34.875 8.03642 34.875 10.125V14.429C34.5817 15.2718 34.5469 16.1831 34.7749 17.0459C33.7303 17.3422 32.8281 18.0063 32.2347 18.9155C31.6413 19.8248 31.3966 20.918 31.5458 21.9935C31.6951 23.069 32.2281 24.0543 33.0467 24.7676C33.8653 25.4809 34.9142 25.8743 36 25.875H36.0563C36.2086 27.4237 36.6825 28.9236 37.4476 30.2787C38.2128 31.6338 39.2525 32.8143 40.5 33.7445V36.4164L37.0125 38.0898L30.968 39.378C29.3513 39.7367 27.8871 40.592 26.7805 41.824C25.6738 43.056 24.98 44.6032 24.7961 46.249C24.0915 45.6105 23.322 45.0475 22.5 44.5693V27.4323C25.1791 25.8908 27.2463 23.4745 28.3546 20.5892C29.4629 17.7038 29.5448 14.525 28.5867 11.5864C28.527 11.404 28.4217 11.2399 28.2807 11.1096C28.1397 10.9794 27.9677 10.8875 27.7812 10.8425C27.5946 10.7975 27.3996 10.801 27.2148 10.8526C27.0299 10.9043 26.8613 11.0023 26.7251 11.1375L19.4632 18.3431C19.1568 18.6437 18.7443 18.8114 18.315 18.8099C17.8955 18.8065 17.4941 18.6379 17.198 18.3406L13.1593 14.3016C12.8621 14.0056 12.6935 13.6044 12.69 13.185C12.6881 12.7584 12.8537 12.3482 13.1511 12.0424L20.3624 4.77492C20.4976 4.63865 20.5957 4.47004 20.6474 4.28514C20.699 4.10024 20.7025 3.90519 20.6575 3.71857C20.6124 3.53194 20.5204 3.35995 20.3901 3.21895C20.2598 3.07795 20.0956 2.97264 19.9131 2.91305C16.7415 1.88156 13.3003 2.06127 10.2535 3.41751C7.20662 4.77375 4.77005 7.21039 3.41389 10.2573C2.05774 13.3042 1.87812 16.7454 2.90969 19.9169C3.94126 23.0884 6.11092 25.7655 9.00002 27.4316V44.5677C6.32097 46.1092 4.25378 48.5255 3.14547 51.4108C2.03716 54.2962 1.9552 57.475 2.91335 60.4136C2.97302 60.596 3.07836 60.7602 3.21936 60.8904C3.36035 61.0206 3.53232 61.1125 3.71889 61.1575C3.90547 61.2025 4.10045 61.199 4.28529 61.1474C4.47014 61.0957 4.6387 60.9977 4.77494 60.8625L12.0368 53.6569C12.3432 53.3563 12.7558 53.1886 13.185 53.1901C13.6046 53.1935 14.0059 53.3621 14.302 53.6594L18.3408 57.698C18.6381 57.9941 18.8067 58.3955 18.81 58.8151C18.812 59.2417 18.6464 59.652 18.3489 59.9577L11.1375 67.2251C11.0023 67.3614 10.9042 67.5301 10.8526 67.715C10.801 67.8999 10.7976 68.095 10.8427 68.2817C10.8878 68.4683 10.9799 68.6403 11.1103 68.7812C11.2407 68.9222 11.405 69.0274 11.5875 69.087C16.2474 70.6092 21.5524 69.3553 25.0657 65.9782C25.4513 67.0792 26.1691 68.0334 27.1201 68.709C28.0712 69.3846 29.2084 69.7484 30.375 69.75H33.75C33.8281 69.75 46.125 67.1635 46.125 67.1635V69.75H48.375V67.1694L60.5183 69.726C60.5945 69.7419 60.6721 69.75 60.75 69.75H64.125C65.6163 69.7483 67.0461 69.1552 68.1006 68.1006C69.1552 67.0461 69.7483 65.6163 69.75 64.125V46.35C69.7389 44.4576 69.0514 42.6315 67.8116 41.2017C66.5718 39.7719 64.8615 38.8327 62.9898 38.5537ZM47.25 50.6512L45.6302 46.125H48.8645L47.25 50.6512ZM42.75 35.0558C44.1685 35.6786 45.7008 36.0002 47.25 36.0002C48.7992 36.0002 50.3315 35.6786 51.75 35.0558V36.9543L49.5917 43.875H44.9089L42.75 36.9536V35.0558ZM51.4828 45.3693L53.5849 38.6286L55.9474 39.5896L55.2759 47.6474L51.4892 45.4836L51.5252 45.3843L51.4828 45.3693ZM51.8738 17.6302C48.8125 17.1188 45.6876 17.1188 42.6263 17.6302L39.541 18.1443C39.2019 18.2004 38.8545 18.1794 38.5247 18.0829C38.1948 17.9864 37.8909 17.8169 37.6356 17.5869C37.3802 17.3569 37.1799 17.0723 37.0495 16.7543C36.9191 16.4363 36.862 16.0931 36.8824 15.75H57.6176C57.638 16.0931 57.5809 16.4363 57.4506 16.7543C57.3202 17.0723 57.1199 17.3569 56.8645 17.5869C56.6091 17.8169 56.3052 17.9864 55.9754 18.0829C55.6455 18.1794 55.2982 18.2004 54.9591 18.1443L51.8738 17.6302ZM50.625 13.5H43.875V11.25H50.625V13.5ZM60.75 21.375C60.7487 21.9713 60.5112 22.5429 60.0896 22.9646C59.6679 23.3862 59.0964 23.6237 58.5 23.625V19.1391C58.5045 19.1346 58.5093 19.1305 58.5141 19.1261C59.108 19.1304 59.6762 19.3691 60.095 19.7903C60.5138 20.2115 60.7492 20.7811 60.75 21.375ZM37.125 10.125C37.125 8.63316 37.7177 7.20242 38.7725 6.14752C39.8274 5.09263 41.2582 4.5 42.75 4.5H51.75C53.2419 4.5 54.6726 5.09263 55.7275 6.14752C56.7824 7.20242 57.375 8.63316 57.375 10.125V13.5H52.875V10.125C52.875 9.82663 52.7565 9.54048 52.5455 9.3295C52.3345 9.11853 52.0484 9 51.75 9H42.75C42.4517 9 42.1655 9.11853 41.9545 9.3295C41.7435 9.54048 41.625 9.82663 41.625 10.125V13.5H37.125V10.125ZM34.411 22.9641C34.0966 22.6505 33.8821 22.2509 33.7946 21.8156C33.7071 21.3803 33.7504 20.9289 33.9192 20.5182C34.088 20.1075 34.3746 19.756 34.7429 19.5081C35.1113 19.2601 35.5448 19.1268 35.9888 19.125L36 19.1365V23.625C35.404 23.6223 34.8331 23.3849 34.411 22.9641ZM38.25 24.75V20.3368C38.7974 20.447 39.3603 20.4561 39.9109 20.3638L40.5987 20.249C40.5 20.5256 40.4753 20.8232 40.5268 21.1124C40.5784 21.4015 40.7045 21.6722 40.8928 21.8976C41.081 22.1231 41.3248 22.2955 41.6001 22.3978C41.8754 22.5002 42.1727 22.5289 42.4625 22.4811C42.7523 22.4334 43.0246 22.3108 43.2525 22.1256C43.4804 21.9403 43.656 21.6988 43.762 21.4249C43.8679 21.1509 43.9006 20.8541 43.8566 20.5637C43.8127 20.2733 43.6937 19.9994 43.5115 19.7691C45.9906 19.4061 48.5094 19.4061 50.9885 19.7691C50.8059 19.9994 50.6866 20.2735 50.6425 20.5642C50.5983 20.8548 50.6308 21.1519 50.7367 21.4262C50.8427 21.7004 51.0184 21.9422 51.2464 22.1277C51.4745 22.3132 51.7471 22.4359 52.0372 22.4837C52.3272 22.5315 52.6247 22.5027 52.9003 22.4002C53.1758 22.2977 53.4198 22.1251 53.6081 21.8993C53.7964 21.6736 53.9226 21.4026 53.974 21.1131C54.0254 20.8237 54.0003 20.5258 53.9013 20.249L54.5891 20.3638C55.0723 20.4609 55.9591 20.3961 56.25 20.3373V24.75C56.25 27.1369 55.3018 29.4261 53.614 31.114C51.9262 32.8018 49.637 33.75 47.25 33.75C44.8631 33.75 42.5739 32.8018 40.8861 31.114C39.1982 29.4261 38.25 27.1369 38.25 24.75ZM40.9384 38.7023L43.0157 45.3632L42.9735 45.3784L43.0117 45.4836L39.2246 47.6474L38.5735 39.837L40.9384 38.7023ZM31.4419 41.5778L36.3732 40.5269L37.1288 49.5935C37.1445 49.782 37.2075 49.9634 37.3119 50.1211C37.4163 50.2788 37.5588 50.4076 37.7262 50.4956C37.8903 50.582 38.6355 50.5755 38.8082 50.4768L43.7842 47.6332L46.125 54.1946V56.7658L39.6471 56.2676L34.875 54.2225V49.5H32.625V53.2582L31.9431 52.966C31.8031 52.906 31.6524 52.875 31.5 52.875H27V47.0812C27.0071 45.7963 27.4505 44.5518 28.2576 43.5519C29.0646 42.552 30.1874 41.8559 31.4419 41.5778ZM17.1463 67.418C16.15 67.5393 15.1421 67.5282 14.1487 67.385L19.9518 61.5367C20.6646 60.8104 21.0628 59.8326 21.06 58.815C21.0603 58.3114 20.9608 57.8128 20.7671 57.348C20.5735 56.8832 20.2895 56.4614 19.9318 56.107L15.893 52.0682C15.5387 51.7105 15.1169 51.4265 14.652 51.2329C14.1872 51.0392 13.6886 50.9397 13.185 50.94C12.1644 50.9375 11.1841 51.3378 10.4569 52.0539L4.61519 57.8512C4.27994 55.5289 4.68047 53.1599 5.76055 51.0769C6.84062 48.994 8.546 47.3016 10.6372 46.2375C10.8216 46.1432 10.9764 45.9998 11.0846 45.8231C11.1927 45.6465 11.2499 45.4434 11.25 45.2362V26.7638C11.25 26.5567 11.1929 26.3536 11.0848 26.1769C10.9768 26.0002 10.8221 25.8567 10.6377 25.7624C8.68495 24.7624 7.06616 23.2147 5.97965 21.3087C4.89314 19.4027 4.38607 17.2212 4.52055 15.0314C4.84554 9.73687 9.07568 5.24391 14.3538 4.58198C15.35 4.46075 16.358 4.47187 17.3513 4.61503L11.5483 10.4633C10.8354 11.1896 10.4373 12.1674 10.44 13.185C10.4397 13.6886 10.5393 14.1872 10.7329 14.652C10.9266 15.1168 11.2105 15.5386 11.5683 15.893L15.607 19.9318C15.9614 20.2895 16.3832 20.5735 16.848 20.7671C17.3128 20.9608 17.8115 21.0603 18.315 21.06C19.3354 21.0623 20.3154 20.662 21.0424 19.9461L26.8849 14.1488C27.2201 16.4711 26.8196 18.8401 25.7395 20.9231C24.6594 23.006 22.9541 24.6984 20.8629 25.7625C20.6784 25.8568 20.5236 26.0002 20.4155 26.1769C20.3074 26.3535 20.2501 26.5566 20.25 26.7638V45.2362C20.25 45.4433 20.3072 45.6463 20.4151 45.823C20.5231 45.9997 20.6778 46.1431 20.862 46.2375C22.3887 47.0238 23.7178 48.1451 24.75 49.5176V62.9438C23.8481 64.1621 22.71 65.1861 21.4036 65.9549C20.0972 66.7236 18.6493 67.2212 17.1463 67.418ZM33.6326 67.5H30.375C29.4802 67.499 28.6224 67.1431 27.9896 66.5104C27.3569 65.8777 27.001 65.0198 27 64.125V63H31.0341L32.9545 64.9205C33.059 65.025 33.183 65.1078 33.3195 65.1644C33.456 65.2209 33.6023 65.25 33.75 65.25H39.2579L41.7796 65.7809L33.6326 67.5ZM67.5 64.125C67.499 65.0198 67.1431 65.8777 66.5104 66.5104C65.8777 67.1431 65.0198 67.499 64.125 67.5H60.8672L39.6068 63.024C39.5306 63.0082 34.2159 63 34.2159 63L32.2955 61.0795C32.1911 60.975 32.067 60.8922 31.9305 60.8356C31.7941 60.7791 31.6478 60.75 31.5 60.75H27V55.125H31.269C31.269 55.125 39.1658 58.4872 39.2888 58.4968L67.5 60.6667V64.125ZM67.5 58.4101L57.3837 57.6319L63.2316 55.125H67.5V58.4101ZM67.5 52.875H63C62.8472 52.875 61.875 53.2592 61.875 53.2592V49.5H59.625V52.875H50.625V55.125H57.523L54.8531 56.2676L48.375 56.7681V54.1946L50.7159 47.6331L55.6919 50.4766C55.8561 50.5705 56.0413 50.6214 56.2304 50.6247C56.4195 50.6281 56.6064 50.5836 56.7738 50.4956C56.9412 50.4075 57.0837 50.2787 57.1881 50.121C57.2925 49.9633 57.3555 49.7819 57.3712 49.5934L58.1587 40.1389L62.669 40.7812C64.0062 40.9805 65.2281 41.6513 66.114 42.6725C67 43.6937 67.4916 44.9981 67.5 46.35V52.875Z" fill="url(#paint0_linear_155_126)"/>
<path d="M41.625 51.75H43.875V54H41.625V51.75ZM50.9511 27.4359L50.2989 25.2825C48.9878 25.6776 47.6257 25.8773 46.2563 25.875H43.875V28.125H46.2563C47.8466 28.1273 49.4286 27.8951 50.9511 27.4359ZM14.625 25.875H16.875V46.125H14.625V25.875Z" fill="url(#paint1_linear_155_126)"/>
<defs>
<linearGradient id="paint0_linear_155_126" x1="69.75" y1="2.25" x2="2.24805" y2="2.25" gradientUnits="userSpaceOnUse">
<stop stop-color="#FF8911"/>
<stop offset="1" stop-color="#F83600"/>
</linearGradient>
<linearGradient id="paint1_linear_155_126" x1="50.9511" y1="25.2825" x2="14.625" y2="25.2825" gradientUnits="userSpaceOnUse">
<stop stop-color="#FF8911"/>
<stop offset="1" stop-color="#F83600"/>
</linearGradient>
</defs>
</svg>
