<svg width="72" height="72" viewBox="0 0 72 72" fill="none" xmlns="http://www.w3.org/2000/svg">
<path fill-rule="evenodd" clip-rule="evenodd" d="M25.102 21.6487C25.846 21.7689 26.6088 21.6763 27.3025 21.3815V37.1711C27.3025 38.7017 28.5477 39.9469 30.0783 39.9469H55.2193C56.7499 39.9469 57.995 38.7017 57.995 37.1711V21.3813C58.4876 21.5914 59.0176 21.6998 59.5531 21.6998C59.7683 21.6997 59.9831 21.6826 60.1956 21.6487C61.2562 21.4793 62.1874 20.9071 62.8177 20.0374C63.448 19.1676 63.7018 18.1045 63.5325 17.0439C63.3632 15.9833 62.791 15.0521 61.9224 14.4226L54.9469 9.35466V3.83836C54.9469 3.53999 54.8284 3.25384 54.6174 3.04286C54.4065 2.83189 54.1203 2.71336 53.8219 2.71336H50.0964C49.798 2.71336 49.5119 2.83189 49.3009 3.04286C49.0899 3.25384 48.9714 3.53999 48.9714 3.83836V5.01314L45.0682 2.1773C43.649 1.1077 41.7303 1.08956 40.2882 2.13455L23.3762 14.4218C22.5064 15.0519 21.9342 15.9833 21.7649 17.0439C21.5956 18.1045 21.8494 19.1678 22.4797 20.0374C23.1101 20.9071 24.0414 21.4793 25.102 21.6487ZM45.9087 37.6969H39.3892V28.8C39.3892 27.7448 40.2476 26.8864 41.3028 26.8864H43.9951C45.0503 26.8864 45.9087 27.7448 45.9087 28.8V37.6969ZM55.2195 37.6969H48.1587V28.8C48.1587 26.5042 46.2909 24.6364 43.9951 24.6364H41.3028C39.007 24.6364 37.1392 26.5042 37.1392 28.8V37.6969H30.0784C29.7934 37.6969 29.5526 37.4562 29.5526 37.1711V19.8752L42.649 10.3603L55.7453 19.8752V37.1711C55.7451 37.4562 55.5044 37.6969 55.2195 37.6969ZM51.2215 4.96336H52.6971V7.72003L51.2215 6.64791V4.96336ZM24.6978 16.2429L41.6098 3.95564C42.2361 3.50198 43.1034 3.51084 43.7187 3.97758L43.7373 3.99136L60.6012 16.2437C61.3919 16.8168 61.5691 17.9265 60.9962 18.7172C60.8602 18.906 60.6881 19.0659 60.4898 19.1878C60.2916 19.3096 60.0711 19.3909 59.8413 19.4269C59.6118 19.4644 59.3773 19.4559 59.1511 19.402C58.925 19.3481 58.7118 19.2499 58.5239 19.113L43.3101 8.0595C43.118 7.91973 42.8865 7.84444 42.6489 7.84444C42.4113 7.84444 42.1798 7.91973 41.9877 8.0595L26.7746 19.1125C26.5866 19.2494 26.3733 19.3477 26.1471 19.4017C25.9208 19.4556 25.6862 19.4641 25.4566 19.4268C25.2267 19.3907 25.0063 19.3095 24.808 19.1876C24.6098 19.0658 24.4377 18.9059 24.3017 18.717C23.7288 17.9263 23.9059 16.8168 24.6978 16.2429ZM69.2818 43.6514C68.6236 42.5526 65.9222 39.2889 58.7952 43.4396L46.2447 50.7496C45.6237 51.1111 44.9922 51.3678 44.3336 51.5225C44.5768 51.131 44.7678 50.6883 44.8989 50.1992C45.5419 47.7989 44.1156 45.2928 41.6511 44.4939C41.6029 44.4784 41.5537 44.466 41.5039 44.4569C37.8979 43.8065 34.3385 42.5198 31.4783 41.4858C30.4844 41.1263 29.5454 40.7869 28.747 40.528C25.5272 39.4833 22.6206 40.7755 20.2019 42.177L10.8762 47.5799L10.2068 46.3973C9.39977 44.9706 7.58248 44.4669 6.15527 45.2744L2.63388 47.2673C1.20724 48.0745 0.703384 49.8921 1.51099 51.3188L11.8638 69.6115C12.4101 70.5767 13.4188 71.1196 14.4561 71.1196C14.9518 71.1196 15.4541 70.9955 15.9154 70.7345L19.4367 68.7414C20.8634 67.9341 21.3671 66.1165 20.5596 64.6899L19.2909 62.448L21.4055 61.2271L37.4757 65.5332C38.3847 65.7768 39.2768 65.8984 40.1498 65.8984C41.8902 65.8984 43.5542 65.415 45.1201 64.451L67.8964 50.4264C69.9775 49.1448 70.638 45.9158 69.2818 43.6514ZM18.3285 66.7832L14.8071 68.7762C14.4664 68.9693 14.0151 68.8442 13.8219 68.5032L3.46906 50.2106C3.27612 49.8696 3.40127 49.4184 3.74215 49.2254L7.26354 47.2326C7.37 47.1726 7.49022 47.1412 7.61243 47.1416C7.86668 47.1416 8.11741 47.2736 8.24848 47.5057H8.24862L18.6014 65.7982C18.7945 66.139 18.6695 66.5902 18.3285 66.7832ZM66.7167 48.5103L43.9404 62.5348C42.1371 63.6449 40.1581 63.9225 38.0582 63.3597L21.5377 58.9331C21.395 58.8948 21.2462 58.885 21.0997 58.9043C20.9532 58.9236 20.812 58.9716 20.6841 59.0456L18.1826 60.4898L11.9845 49.5383L21.33 44.1239C23.4192 42.9133 25.6802 41.8984 28.0528 42.6684C28.8157 42.9158 29.6952 43.2338 30.7135 43.6018C33.6321 44.657 37.2594 45.9683 41.0232 46.6566C42.3287 47.113 43.0587 48.374 42.7254 49.6171C42.2928 51.2318 40.9276 51.4305 39.8414 51.3052C37.8845 50.9116 32.5527 49.3993 31.6461 49.1565C31.3596 49.0843 31.0562 49.1278 30.8015 49.2775C30.5467 49.4271 30.3611 49.671 30.2846 49.9564C30.2082 50.2417 30.247 50.5457 30.3928 50.8027C30.5386 51.0597 30.7796 51.249 31.0638 51.3298C31.9545 51.5685 37.3823 53.108 39.43 53.5178L39.4484 53.5215C39.9629 53.6241 40.4914 53.72 41.0382 53.8075C43.3748 54.181 45.4483 53.817 47.3768 52.6942L59.9275 45.3842C63.5344 43.2835 66.3097 43.0681 67.3516 44.8078C68.0695 46.006 67.749 47.8747 66.7167 48.5103ZM8.07284 50.39C8.09772 50.5538 8.08998 50.721 8.05005 50.8818C8.01012 51.0426 7.93879 51.1939 7.84016 51.3271C7.74154 51.4603 7.61756 51.5726 7.47537 51.6577C7.33317 51.7427 7.17556 51.7989 7.0116 51.8228C6.84764 51.8468 6.68056 51.8381 6.51997 51.7972C6.35938 51.7564 6.20846 51.6842 6.07587 51.5848C5.94328 51.4854 5.83165 51.3608 5.74739 51.2181C5.66313 51.0754 5.60791 50.9175 5.5849 50.7534C5.53877 50.4244 5.62472 50.0906 5.82396 49.8248C6.02319 49.559 6.31953 49.3828 6.64822 49.3348C6.97691 49.2868 7.31124 49.3709 7.57818 49.5686C7.84511 49.7663 8.02295 50.0616 8.07284 50.39Z" fill="url(#paint0_linear_155_130)"/>
<defs>
<linearGradient id="paint0_linear_155_130" x1="69.9904" y1="1.36279" x2="1.12579" y2="1.36279" gradientUnits="userSpaceOnUse">
<stop stop-color="#FF8911"/>
<stop offset="1" stop-color="#F83600"/>
</linearGradient>
</defs>
</svg>
