<svg width="72" height="72" viewBox="0 0 72 72" fill="none" xmlns="http://www.w3.org/2000/svg">
<g clip-path="url(#clip0_155_133)">
<path d="M6.6931 28.0274C6.22782 28.154 5.81445 28.4244 5.51201 28.7999C5.20958 29.1755 5.03355 29.637 5.00909 30.1185C4.99697 30.5777 4.99697 32.4144 5.00909 32.905C5.0409 33.3873 5.22443 33.8472 5.53343 34.2189C5.84243 34.5905 6.26107 34.855 6.72944 34.9743L11.6967 36.204C11.9309 37.4287 12.2548 38.6346 12.6659 39.8119L8.97802 43.3689C8.62634 43.7033 8.39307 44.143 8.31351 44.6217C8.23395 45.1004 8.31241 45.592 8.53703 46.0221C8.76237 46.4607 9.68071 48.0466 9.93028 48.4343C10.1915 48.8452 10.5788 49.1605 11.0341 49.333C11.4894 49.5055 11.9884 49.526 12.4563 49.3914L17.3799 47.9727C18.1962 48.9149 19.0788 49.7975 20.021 50.6138L18.5975 55.5544C18.3261 56.5006 18.7065 57.5122 19.5352 58.0453C19.7351 58.1785 20.7467 58.7225 21.6251 59.1901L16.5003 67.0444C16.1379 67.5981 15.9321 68.2397 15.9048 68.9009C15.8775 69.5621 16.0297 70.2184 16.3453 70.8001C16.6483 71.3728 17.1025 71.8516 17.6584 72.1843C18.2144 72.5171 18.8509 72.6912 19.4989 72.6877H53.4941C54.1419 72.6901 54.778 72.5149 55.3333 72.1813C55.8886 71.8477 56.3419 71.3683 56.644 70.7953C56.9586 70.2144 57.1104 69.5593 57.0833 68.8993C57.0562 68.2392 56.8513 67.5988 56.4902 67.0456L51.3703 59.1914C52.2474 58.7237 53.2518 58.1834 53.4299 58.0622C53.8414 57.8015 54.1571 57.4143 54.3297 56.9588C54.5023 56.5033 54.5224 56.0041 54.387 55.5362L52.9731 50.6126C53.9154 49.7963 54.798 48.9137 55.6143 47.9715L60.5548 49.395C61.0181 49.5269 61.5115 49.506 61.962 49.3353C62.4124 49.1647 62.7959 48.8534 63.0554 48.4476C63.3135 48.0466 64.2318 46.4607 64.445 46.0452C64.6755 45.6134 64.7584 45.1181 64.681 44.6349C64.6035 44.1516 64.37 43.707 64.0161 43.3689L60.3295 39.8119C60.7414 38.6355 61.0649 37.43 61.2987 36.2052L66.3023 34.9646C66.7678 34.8383 67.1814 34.568 67.4841 34.1924C67.7868 33.8169 67.963 33.3552 67.9875 32.8735C67.9996 32.4144 67.9996 30.5777 67.9875 30.087C67.9555 29.6051 67.772 29.1456 67.4633 28.7742C67.1546 28.4028 66.7363 28.1385 66.2684 28.019L61.3011 26.7893C61.0669 25.5645 60.743 24.3586 60.3319 23.1814L64.0149 19.6231C64.737 18.9362 64.9175 17.8543 64.4559 16.9699C64.0117 16.1544 63.5471 15.3501 63.0627 14.5578C62.8021 14.1461 62.415 13.8302 61.9594 13.6576C61.5038 13.485 61.0046 13.465 60.5367 13.6007L55.613 15.0194C54.7968 14.0771 53.9142 13.1945 52.9719 12.3782L54.3955 7.43767C54.5278 6.97442 54.507 6.48083 54.3364 6.0303C54.1657 5.57977 53.8541 5.19637 53.4481 4.93709C52.6589 4.45402 51.8578 3.99067 51.0456 3.54748C50.6139 3.31697 50.1186 3.23411 49.6353 3.31155C49.1521 3.38899 48.7074 3.62248 48.3694 3.97636L44.8123 7.66422C43.6356 7.25292 42.4301 6.92897 41.2057 6.69501L39.9651 1.69264C39.8385 1.22737 39.5681 0.813992 39.1926 0.511557C38.817 0.209122 38.3555 0.0330994 37.874 0.00863269C36.9452 -0.00287756 36.0163 -0.00287756 35.0875 0.00863269C34.6052 0.0404432 34.1453 0.223977 33.7736 0.532977C33.402 0.841977 33.1375 1.26061 33.0182 1.72899L31.7885 6.69622C30.5637 6.93044 29.3579 7.25438 28.1806 7.66544L24.6236 3.97757C24.2896 3.62536 23.8498 3.39174 23.3709 3.31215C22.8921 3.23256 22.4004 3.31136 21.9704 3.53658C21.5318 3.76192 19.9459 4.68025 19.5582 4.92982C19.1467 5.19051 18.831 5.5777 18.6584 6.03321C18.4858 6.48872 18.4657 6.98794 18.6011 7.45584L20.0198 12.3795C19.0776 13.1957 18.1949 14.0783 17.3787 15.0206L12.4381 13.597C11.9749 13.4645 11.4812 13.4851 11.0306 13.6559C10.5801 13.8266 10.1967 14.1382 9.93755 14.5444C9.67949 14.9455 8.76116 16.5313 8.54793 16.9469C8.31757 17.3787 8.23491 17.8741 8.31257 18.3574C8.39023 18.8406 8.62395 19.2852 8.97802 19.6231L12.6647 23.1802C12.2528 24.3565 11.9293 25.562 11.6955 26.7868L6.6931 28.0274ZM54.5178 69.6419C54.4211 69.83 54.2744 69.9877 54.0937 70.0975C53.9131 70.2074 53.7055 70.2653 53.4941 70.2646H19.4989C19.2874 70.2653 19.0799 70.2074 18.8992 70.0975C18.7186 69.9877 18.5718 69.83 18.4751 69.6419C18.3662 69.4457 18.3135 69.2234 18.3227 68.9992C18.3318 68.775 18.4026 68.5576 18.5272 68.371L31.4905 48.5021C32.3864 47.1262 32.8628 45.5196 32.8619 43.8777V36.3421H36.4965C36.8178 36.3421 37.1259 36.2145 37.3531 35.9873C37.5804 35.76 37.708 35.4519 37.708 35.1306C37.708 34.8093 37.5804 34.5011 37.3531 34.2739C37.1259 34.0467 36.8178 33.9191 36.4965 33.9191H30.4389C29.7962 33.9191 29.1799 33.6638 28.7255 33.2094C28.2711 32.755 28.0158 32.1386 28.0158 31.496C28.0158 30.8534 28.2711 30.2371 28.7255 29.7827C29.1799 29.3283 29.7962 29.073 30.4389 29.073H42.5541C43.1967 29.073 43.813 29.3283 44.2674 29.7827C44.7218 30.2371 44.9771 30.8534 44.9771 31.496C44.9771 32.1386 44.7218 32.755 44.2674 33.2094C43.813 33.6638 43.1967 33.9191 42.5541 33.9191H41.3426C41.0212 33.9191 40.7131 34.0467 40.4859 34.2739C40.2587 34.5011 40.131 34.8093 40.131 35.1306V43.8777C40.1309 45.5195 40.6074 47.1259 41.5025 48.5021L54.4657 68.371C54.7201 68.7514 54.7395 69.2421 54.5178 69.6419ZM43.4203 46.9756C42.8568 46.0403 42.5575 44.9697 42.5541 43.8777V36.3421C43.8393 36.3421 45.0719 35.8315 45.9808 34.9227C46.8896 34.0139 47.4002 32.7813 47.4002 31.496C47.4002 30.2108 46.8896 28.9781 45.9808 28.0693C45.0719 27.1605 43.8393 26.6499 42.5541 26.6499H30.4389C29.1536 26.6499 27.921 27.1605 27.0122 28.0693C26.1034 28.9781 25.5928 30.2108 25.5928 31.496C25.5928 32.7813 26.1034 34.0139 27.0122 34.9227C27.921 35.8315 29.1536 36.3421 30.4389 36.3421V43.8777C30.4356 44.9693 30.1362 46.0395 29.5726 46.9744C26.0273 45.389 23.1335 42.6351 21.3745 39.1726C19.6156 35.7101 19.0982 31.7489 19.9087 27.9508C20.7192 24.1527 22.8086 20.7478 25.8277 18.305C28.8469 15.8622 32.6129 14.5294 36.4965 14.5294C40.3801 14.5294 44.1461 15.8622 47.1652 18.305C50.1843 20.7478 52.2737 24.1527 53.0842 27.9508C53.8948 31.7489 53.3773 35.7101 51.6184 39.1726C49.8595 42.6351 46.9656 45.3903 43.4203 46.9756ZM14.0628 27.3211C14.2808 26.1532 14.5898 25.0035 14.9859 23.8828C15.2767 23.0517 15.0586 22.1286 14.4274 21.5143L10.7505 17.967C10.9928 17.5139 11.6349 16.4126 11.9087 15.9656L16.8311 17.3842C17.6792 17.6205 18.5878 17.3418 19.1572 16.6694C19.9278 15.7718 20.7654 14.9339 21.6626 14.1628C21.9942 13.8831 22.2385 13.5141 22.3663 13.0995C22.4941 12.685 22.5001 12.2424 22.3835 11.8246L20.966 6.90824C21.6263 6.51038 22.2935 6.12424 22.9674 5.75002L26.5269 9.44637C27.1448 10.0691 28.0655 10.2799 28.893 9.98671C30.0076 9.59296 31.1525 9.28524 32.3143 9.06837C32.7405 8.98754 33.1351 8.78794 33.4528 8.49256C33.7705 8.19719 33.9982 7.81807 34.1098 7.3989L35.3407 2.43167C35.8883 2.42561 37.158 2.42561 37.6511 2.43167L38.8929 7.44009C39.1291 8.27604 39.8185 8.90603 40.6714 9.06595C41.8393 9.28403 42.989 9.59296 44.1097 9.98913C44.9408 10.2799 45.8652 10.0618 46.4782 9.43062L50.0255 5.75366C50.4786 5.99596 51.5799 6.63807 52.0269 6.91187L50.6083 11.8306C50.372 12.6787 50.6519 13.5873 51.323 14.1568C52.2196 14.9273 53.0592 15.7644 53.8297 16.6622C54.3991 17.3418 55.3138 17.6265 56.1679 17.3891L61.0843 15.9716C61.3472 16.3969 61.9796 17.4933 62.2425 17.973L58.5461 21.5264C58.2407 21.8288 58.0277 22.2119 57.932 22.6309C57.8363 23.0499 57.8619 23.4875 58.0058 23.8925C58.3995 25.0071 58.7073 26.152 58.9241 27.3139C59.005 27.74 59.2046 28.1347 59.4999 28.4523C59.7953 28.77 60.1744 28.9978 60.5936 29.1093L65.5608 30.3402C65.5681 30.8854 65.5681 32.1575 65.5608 32.6506L60.5524 33.8924C59.7165 34.1287 59.0865 34.818 58.9265 35.6709C58.7085 36.8388 58.3995 37.9886 58.0034 39.1092C57.7126 39.9403 57.9307 40.8635 58.5619 41.4777L62.2388 45.0251C61.9965 45.4782 61.3544 46.5794 61.0806 47.0265L56.1582 45.6078C55.3102 45.3715 54.4015 45.6514 53.8321 46.3226C53.0615 47.2202 52.2239 48.0582 51.3267 48.8292C50.9951 49.1089 50.7508 49.478 50.623 49.8925C50.4952 50.3071 50.4893 50.7496 50.6058 51.1675L52.0221 56.0802C51.7447 56.2377 51.0299 56.6254 50.0376 57.1536L44.7445 49.0364C48.7318 47.1606 51.961 43.9823 53.8998 40.0254C55.8387 36.0684 56.3716 31.5689 55.4105 27.2685C54.4495 22.9681 52.052 19.1235 48.6131 16.3683C45.1743 13.6131 40.8993 12.1118 36.4928 12.1118C32.0864 12.1118 27.8114 13.6131 24.3726 16.3683C20.9337 19.1235 18.5362 22.9681 17.5752 27.2685C16.6141 31.5689 17.147 36.0684 19.0858 40.0254C21.0247 43.9823 24.2539 47.1606 28.2412 49.0364L22.9481 57.1536C21.9679 56.6314 21.2519 56.2449 20.9636 56.0802L22.3811 51.1614C22.6173 50.3133 22.3374 49.4047 21.6663 48.8353C20.7686 48.0647 19.9307 47.2271 19.1596 46.3299C18.8799 45.9984 18.5108 45.7542 18.0963 45.6264C17.6818 45.4986 17.2393 45.4926 16.8214 45.609L11.9051 47.0265C11.5072 46.3662 11.1211 45.699 10.7468 45.0251L14.4468 41.4656C15.0708 40.8477 15.2803 39.927 14.9872 39.0995C14.5932 37.9845 14.2862 36.8406 14.0688 35.6782C13.988 35.252 13.7884 34.8574 13.493 34.5397C13.1976 34.222 12.8185 33.9943 12.3994 33.8827L7.43213 32.6518C7.42486 32.1066 7.42486 30.8345 7.43213 30.3414L12.4405 29.0996C12.8495 28.9833 13.218 28.7552 13.5045 28.441C13.7911 28.1269 13.9844 27.7391 14.0628 27.3211Z" fill="url(#paint0_linear_155_133)"/>
<path d="M39.8197 50.7457C39.599 50.4143 39.2999 50.1425 38.9488 49.9546C38.5977 49.7667 38.2056 49.6685 37.8074 49.6687H37.8001L35.1784 49.676C34.3703 49.676 33.6155 50.0794 33.1685 50.7518L24.2602 64.0725C24.0167 64.437 23.8766 64.8607 23.8549 65.2985C23.8332 65.7363 23.9307 66.1718 24.1369 66.5586C24.3432 66.9454 24.6505 67.269 25.0262 67.4949C25.4018 67.7208 25.8317 67.8406 26.2701 67.8415H46.723C47.1613 67.8406 47.5912 67.7208 47.9669 67.4949C48.3425 67.269 48.6498 66.9454 48.8561 66.5586C49.0624 66.1718 49.1598 65.7363 49.1381 65.2985C49.1164 64.8607 48.9764 64.437 48.7329 64.0725L39.8149 50.7457H39.8197ZM46.723 65.4185H26.2701L28.7016 61.7839H32.862C33.1833 61.7839 33.4914 61.6563 33.7186 61.4291C33.9458 61.2019 34.0735 60.8937 34.0735 60.5724C34.0735 60.2511 33.9458 59.9429 33.7186 59.7157C33.4914 59.4885 33.1833 59.3609 32.862 59.3609H30.3238L31.9448 56.9378H35.285C35.6063 56.9378 35.9145 56.8102 36.1417 56.583C36.3689 56.3558 36.4965 56.0476 36.4965 55.7263C36.4965 55.405 36.3689 55.0968 36.1417 54.8696C35.9145 54.6424 35.6063 54.5148 35.285 54.5148H33.5659L35.182 52.1002L37.805 52.0917L46.723 65.4185Z" fill="url(#paint1_linear_155_133)"/>
</g>
<defs>
<linearGradient id="paint0_linear_155_133" x1="67.9966" y1="0" x2="5" y2="0" gradientUnits="userSpaceOnUse">
<stop stop-color="#FF8911"/>
<stop offset="1" stop-color="#F83600"/>
</linearGradient>
<linearGradient id="paint1_linear_155_133" x1="49.1411" y1="49.6687" x2="23.8519" y2="49.6687" gradientUnits="userSpaceOnUse">
<stop stop-color="#FF8911"/>
<stop offset="1" stop-color="#F83600"/>
</linearGradient>
<clipPath id="clip0_155_133">
<rect width="72" height="72" fill="white"/>
</clipPath>
</defs>
</svg>
