<svg width="200" height="70" viewBox="0 0 200 70" fill="none" xmlns="http://www.w3.org/2000/svg">
<path d="M7.70875 5.7497C8.1073 3.82398 6.86639 1.94038 4.93709 1.54257C3.00779 1.14476 1.12067 2.38339 0.722126 4.30911C0.323578 6.23483 1.56451 8.11843 3.49381 8.51624C5.42312 8.91405 7.3102 7.67542 7.70875 5.7497Z" fill="#CED5DD"/>
<path d="M7.70875 21.0589C8.1073 19.1332 6.86639 17.2496 4.93709 16.8518C3.00779 16.454 1.12067 17.6926 0.722126 19.6184C0.323578 21.5441 1.56451 23.4277 3.49381 23.8255C5.42312 24.2233 7.3102 22.9847 7.70875 21.0589Z" fill="#CED5DD"/>
<path d="M7.70826 36.3682C8.10681 34.4424 6.86591 32.5588 4.9366 32.161C3.0073 31.7632 1.12019 33.0018 0.721638 34.9276C0.32309 36.8533 1.56402 38.7369 3.49333 39.1347C5.42263 39.5325 7.30972 38.2939 7.70826 36.3682Z" fill="#CED5DD"/>
<path d="M4.24881 54.5227C6.21889 54.5227 7.81597 52.9286 7.81597 50.9622C7.81597 48.9958 6.21889 47.4017 4.24881 47.4017C2.27872 47.4017 0.681641 48.9958 0.681641 50.9622C0.681641 52.9286 2.27872 54.5227 4.24881 54.5227Z" fill="#CED5DD"/>
<path d="M4.24881 69.8329C6.21889 69.8329 7.81597 68.2388 7.81597 66.2724C7.81597 64.3059 6.21889 62.7118 4.24881 62.7118C2.27872 62.7118 0.681641 64.3059 0.681641 66.2724C0.681641 68.2388 2.27872 69.8329 4.24881 69.8329Z" fill="#CED5DD"/>
<path d="M26.9593 5.03216C26.9593 6.99836 25.3624 8.59267 23.3921 8.59267C21.4218 8.59267 19.825 6.99881 19.825 5.03216C19.825 3.06595 21.4218 1.47162 23.3921 1.47162C25.3624 1.47162 26.9593 3.06595 26.9593 5.03216Z" fill="#CED5DD"/>
<path d="M26.9593 20.3423C26.9593 22.3085 25.3624 23.9028 23.3921 23.9028C21.4218 23.9028 19.825 22.309 19.825 20.3423C19.825 18.3757 21.4218 16.7818 23.3921 16.7818C25.3624 16.7818 26.9593 18.3757 26.9593 20.3423Z" fill="#CED5DD"/>
<path d="M26.9593 35.652C26.9593 37.6182 25.3624 39.2125 23.3921 39.2125C21.4218 39.2125 19.825 37.6187 19.825 35.652C19.825 33.6858 21.4218 32.0915 23.3921 32.0915C25.3624 32.0915 26.9593 33.6858 26.9593 35.652Z" fill="#CED5DD"/>
<path d="M26.9593 50.9622C26.9593 52.9284 25.3624 54.5227 23.3921 54.5227C21.4218 54.5227 19.825 52.9289 19.825 50.9622C19.825 48.9956 21.4218 47.4017 23.3921 47.4017C25.3624 47.4017 26.9593 48.9956 26.9593 50.9622Z" fill="#CED5DD"/>
<path d="M26.9593 66.2724C26.9593 68.2386 25.3624 69.8329 23.3921 69.8329C21.4218 69.8329 19.825 68.239 19.825 66.2724C19.825 64.3057 21.4218 62.7118 23.3921 62.7118C25.3624 62.7118 26.9593 64.3057 26.9593 66.2724Z" fill="#CED5DD"/>
<path d="M45.5641 6.95283C46.6069 5.28452 46.0973 3.08832 44.4258 2.0475C42.7544 1.00667 40.5541 1.51535 39.5114 3.18366C38.4686 4.85198 38.9783 7.04814 40.6497 8.08897C42.3211 9.1298 44.5213 8.62115 45.5641 6.95283Z" fill="#CED5DD"/>
<path d="M45.5639 22.2632C46.6066 20.5949 46.097 18.3987 44.4256 17.3578C42.7542 16.317 40.5539 16.8257 39.5111 18.494C38.4684 20.1623 38.978 22.3585 40.6494 23.3993C42.3209 24.4401 44.5211 23.9315 45.5639 22.2632Z" fill="#CED5DD"/>
<path d="M45.5626 37.5733C46.6054 35.905 46.0958 33.7088 44.4244 32.668C42.753 31.6272 40.5527 32.1359 39.5099 33.8042C38.4671 35.4725 38.9768 37.6687 40.6482 38.7095C42.3196 39.7503 44.5199 39.2417 45.5626 37.5733Z" fill="#CED5DD"/>
<path d="M42.5356 54.5227C44.5057 54.5227 46.1028 52.9286 46.1028 50.9622C46.1028 48.9958 44.5057 47.4017 42.5356 47.4017C40.5655 47.4017 38.9685 48.9958 38.9685 50.9622C38.9685 52.9286 40.5655 54.5227 42.5356 54.5227Z" fill="#CED5DD"/>
<path d="M42.5356 69.8329C44.5057 69.8329 46.1028 68.2388 46.1028 66.2724C46.1028 64.3059 44.5057 62.7118 42.5356 62.7118C40.5655 62.7118 38.9685 64.3059 38.9685 66.2724C38.9685 68.2388 40.5655 69.8329 42.5356 69.8329Z" fill="#CED5DD"/>
<path d="M65.2148 5.59825C65.5304 3.6572 64.2098 1.82828 62.2651 1.51325C60.3205 1.19823 58.4881 2.51641 58.1725 4.45746C57.8569 6.39852 59.1776 8.22739 61.1222 8.54241C63.0669 8.85743 64.8992 7.53931 65.2148 5.59825Z" fill="#CED5DD"/>
<path d="M65.2153 20.9085C65.5309 18.9674 64.2103 17.1385 62.2656 16.8235C60.321 16.5085 58.4886 17.8266 58.173 19.7677C57.8574 21.7088 59.178 23.5376 61.1227 23.8527C63.0674 24.1677 64.8997 22.8496 65.2153 20.9085Z" fill="#CED5DD"/>
<path d="M65.215 36.2187C65.5307 34.2777 64.2101 32.4487 62.2654 32.1337C60.3207 31.8187 58.4884 33.1369 58.1728 35.0779C57.8572 37.019 59.1778 38.8478 61.1225 39.1629C63.0671 39.4779 64.8994 38.1598 65.215 36.2187Z" fill="#CED5DD"/>
<path d="M61.6787 54.5227C63.6488 54.5227 65.2459 52.9286 65.2459 50.9622C65.2459 48.9958 63.6488 47.4017 61.6787 47.4017C59.7086 47.4017 58.1116 48.9958 58.1116 50.9622C58.1116 52.9286 59.7086 54.5227 61.6787 54.5227Z" fill="#CED5DD"/>
<path d="M61.6787 69.8329C63.6488 69.8329 65.2459 68.2388 65.2459 66.2724C65.2459 64.3059 63.6488 62.7118 61.6787 62.7118C59.7086 62.7118 58.1116 64.3059 58.1116 66.2724C58.1116 68.2388 59.7086 69.8329 61.6787 69.8329Z" fill="#CED5DD"/>
<path d="M84.3148 5.89469C84.7676 3.98097 83.5803 2.06325 81.663 1.61137C79.7458 1.15949 77.8245 2.34455 77.3717 4.25827C76.919 6.172 78.1063 8.08972 80.0236 8.5416C81.9409 8.99348 83.8621 7.80841 84.3148 5.89469Z" fill="#CED5DD"/>
<path d="M84.3141 21.2054C84.7668 19.2917 83.5796 17.374 81.6623 16.9221C79.745 16.4702 77.8237 17.6553 77.371 19.569C76.9183 21.4827 78.1055 23.4004 80.0228 23.8523C81.9401 24.3042 83.8614 23.1191 84.3141 21.2054Z" fill="#CED5DD"/>
<path d="M84.3131 36.5161C84.7659 34.6023 83.5786 32.6846 81.6613 32.2327C79.744 31.7809 77.8228 32.9659 77.37 34.8796C76.9173 36.7934 78.1046 38.7111 80.0219 39.163C81.9391 39.6149 83.8604 38.4298 84.3131 36.5161Z" fill="#CED5DD"/>
<path d="M80.8225 54.5227C82.7926 54.5227 84.3897 52.9286 84.3897 50.9622C84.3897 48.9958 82.7926 47.4017 80.8225 47.4017C78.8525 47.4017 77.2554 48.9958 77.2554 50.9622C77.2554 52.9286 78.8525 54.5227 80.8225 54.5227Z" fill="#CED5DD"/>
<path d="M80.8225 69.8329C82.7926 69.8329 84.3897 68.2388 84.3897 66.2724C84.3897 64.3059 82.7926 62.7118 80.8225 62.7118C78.8525 62.7118 77.2554 64.3059 77.2554 66.2724C77.2554 68.2388 78.8525 69.8329 80.8225 69.8329Z" fill="#CED5DD"/>
<path d="M102.482 7.55295C103.875 6.16249 103.875 3.90811 102.482 2.51765C101.089 1.12719 98.8302 1.12719 97.4371 2.51765C96.0441 3.90811 96.0441 6.16251 97.4371 7.55296C98.8302 8.94342 101.089 8.9434 102.482 7.55295Z" fill="#CED5DD"/>
<path d="M102.482 22.8629C103.875 21.4725 103.875 19.2181 102.482 17.8277C101.089 16.4372 98.8302 16.4372 97.4371 17.8277C96.0441 19.2181 96.0441 21.4725 97.4371 22.863C98.8302 24.2534 101.089 24.2534 102.482 22.8629Z" fill="#CED5DD"/>
<path d="M102.482 38.1726C103.875 36.7821 103.875 34.5278 102.482 33.1373C101.089 31.7469 98.8299 31.7469 97.4369 33.1373C96.0438 34.5278 96.0438 36.7822 97.4369 38.1726C98.8299 39.5631 101.089 39.5631 102.482 38.1726Z" fill="#CED5DD"/>
<path d="M99.9658 54.5227C101.936 54.5227 103.533 52.9286 103.533 50.9622C103.533 48.9958 101.936 47.4017 99.9658 47.4017C97.9958 47.4017 96.3987 48.9958 96.3987 50.9622C96.3987 52.9286 97.9958 54.5227 99.9658 54.5227Z" fill="#CED5DD"/>
<path d="M99.9658 69.8329C101.936 69.8329 103.533 68.2388 103.533 66.2724C103.533 64.3059 101.936 62.7118 99.9658 62.7118C97.9958 62.7118 96.3987 64.3059 96.3987 66.2724C96.3987 68.2388 97.9958 69.8329 99.9658 69.8329Z" fill="#CED5DD"/>
<path d="M122.646 5.59718C122.962 3.65612 121.641 1.8272 119.697 1.51218C117.752 1.19716 115.92 2.51533 115.604 4.45639C115.288 6.39744 116.609 8.22637 118.554 8.54139C120.498 8.85641 122.331 7.53824 122.646 5.59718Z" fill="#CED5DD"/>
<path d="M122.646 20.9074C122.962 18.9663 121.641 17.1374 119.697 16.8224C117.752 16.5074 115.92 17.8255 115.604 19.7666C115.288 21.7076 116.609 23.5366 118.554 23.8516C120.498 24.1666 122.331 22.8484 122.646 20.9074Z" fill="#CED5DD"/>
<path d="M122.646 36.2176C122.962 34.2766 121.641 32.4477 119.697 32.1326C117.752 31.8176 115.92 33.1358 115.604 35.0769C115.288 37.0179 116.609 38.8468 118.554 39.1619C120.498 39.4769 122.331 38.1587 122.646 36.2176Z" fill="#CED5DD"/>
<path d="M119.109 54.5227C121.079 54.5227 122.677 52.9286 122.677 50.9622C122.677 48.9958 121.079 47.4017 119.109 47.4017C117.139 47.4017 115.542 48.9958 115.542 50.9622C115.542 52.9286 117.139 54.5227 119.109 54.5227Z" fill="#CED5DD"/>
<path d="M119.109 69.8329C121.079 69.8329 122.677 68.2388 122.677 66.2724C122.677 64.3059 121.079 62.7118 119.109 62.7118C117.139 62.7118 115.542 64.3059 115.542 66.2724C115.542 68.2388 117.139 69.8329 119.109 69.8329Z" fill="#CED5DD"/>
<path d="M141.747 5.89758C142.2 3.98386 141.013 2.06615 139.096 1.61426C137.178 1.16238 135.257 2.34744 134.804 4.26116C134.352 6.17489 135.539 8.09255 137.456 8.54444C139.373 8.99632 141.295 7.8113 141.747 5.89758Z" fill="#CED5DD"/>
<path d="M141.747 21.2083C142.2 19.2946 141.012 17.3769 139.095 16.925C137.178 16.4731 135.257 17.6582 134.804 19.5719C134.351 21.4856 135.538 23.4033 137.456 23.8552C139.373 24.3071 141.294 23.122 141.747 21.2083Z" fill="#CED5DD"/>
<path d="M141.746 36.5189C142.198 34.6052 141.011 32.6875 139.094 32.2356C137.177 31.7837 135.255 32.9688 134.803 34.8825C134.35 36.7963 135.537 38.7139 137.454 39.1658C139.372 39.6177 141.293 38.4327 141.746 36.5189Z" fill="#CED5DD"/>
<path d="M138.253 54.5227C140.223 54.5227 141.82 52.9286 141.82 50.9622C141.82 48.9958 140.223 47.4017 138.253 47.4017C136.283 47.4017 134.686 48.9958 134.686 50.9622C134.686 52.9286 136.283 54.5227 138.253 54.5227Z" fill="#CED5DD"/>
<path d="M138.253 69.8329C140.223 69.8329 141.82 68.2388 141.82 66.2724C141.82 64.3059 140.223 62.7118 138.253 62.7118C136.283 62.7118 134.686 64.3059 134.686 66.2724C134.686 68.2388 136.283 69.8329 138.253 69.8329Z" fill="#CED5DD"/>
<path d="M159.911 7.55336C161.305 6.1629 161.305 3.90856 159.911 2.5181C158.518 1.12765 156.26 1.12761 154.867 2.51807C153.474 3.90852 153.474 6.16292 154.867 7.55338C156.26 8.94383 158.518 8.94382 159.911 7.55336Z" fill="#CED5DD"/>
<path d="M159.911 22.8634C161.305 21.4729 161.305 19.2186 159.911 17.8281C158.518 16.4377 156.26 16.4377 154.867 17.8281C153.474 19.2186 153.474 21.473 154.867 22.8634C156.26 24.2539 158.518 24.2539 159.911 22.8634Z" fill="#CED5DD"/>
<path d="M159.911 38.1731C161.304 36.7826 161.304 34.5283 159.911 33.1378C158.518 31.7474 156.26 31.7473 154.867 33.1378C153.474 34.5282 153.474 36.7826 154.867 38.1731C156.26 39.5635 158.518 39.5635 159.911 38.1731Z" fill="#CED5DD"/>
<path d="M157.396 54.5227C159.366 54.5227 160.963 52.9286 160.963 50.9622C160.963 48.9958 159.366 47.4017 157.396 47.4017C155.426 47.4017 153.829 48.9958 153.829 50.9622C153.829 52.9286 155.426 54.5227 157.396 54.5227Z" fill="#CED5DD"/>
<path d="M157.396 69.8329C159.366 69.8329 160.963 68.2388 160.963 66.2724C160.963 64.3059 159.366 62.7118 157.396 62.7118C155.426 62.7118 153.829 64.3059 153.829 66.2724C153.829 68.2388 155.426 69.8329 157.396 69.8329Z" fill="#CED5DD"/>
<path d="M180.077 5.59651C180.393 3.65545 179.072 1.82658 177.128 1.51156C175.183 1.19654 173.351 2.51466 173.035 4.45572C172.719 6.39677 174.04 8.2257 175.985 8.54072C177.929 8.85574 179.762 7.53756 180.077 5.59651Z" fill="#CED5DD"/>
<path d="M180.078 20.9067C180.393 18.9657 179.073 17.1368 177.128 16.8218C175.183 16.5068 173.351 17.8249 173.035 19.7659C172.72 21.707 174.04 23.5359 175.985 23.8509C177.93 24.166 179.762 22.8478 180.078 20.9067Z" fill="#CED5DD"/>
<path d="M180.078 36.217C180.393 34.2759 179.073 32.4471 177.128 32.1321C175.183 31.817 173.351 33.1352 173.035 35.0762C172.72 37.0173 174.04 38.8462 175.985 39.1612C177.93 39.4762 179.762 38.1581 180.078 36.217Z" fill="#CED5DD"/>
<path d="M176.539 54.5227C178.509 54.5227 180.106 52.9286 180.106 50.9622C180.106 48.9958 178.509 47.4017 176.539 47.4017C174.569 47.4017 172.972 48.9958 172.972 50.9622C172.972 52.9286 174.569 54.5227 176.539 54.5227Z" fill="#CED5DD"/>
<path d="M176.539 69.8329C178.509 69.8329 180.106 68.2388 180.106 66.2724C180.106 64.3059 178.509 62.7118 176.539 62.7118C174.569 62.7118 172.972 64.3059 172.972 66.2724C172.972 68.2388 174.569 69.8329 176.539 69.8329Z" fill="#CED5DD"/>
<path d="M199.18 5.90046C199.633 3.98673 198.446 2.06902 196.529 1.61714C194.611 1.16525 192.69 2.35032 192.237 4.26404C191.784 6.17776 192.972 8.09548 194.889 8.54737C196.806 8.99925 198.728 7.81418 199.18 5.90046Z" fill="#CED5DD"/>
<path d="M199.18 21.2112C199.633 19.2975 198.445 17.3798 196.528 16.9279C194.611 16.476 192.689 17.6611 192.237 19.5748C191.784 21.4885 192.971 23.4062 194.889 23.8581C196.806 24.31 198.727 23.1249 199.18 21.2112Z" fill="#CED5DD"/>
<path d="M199.179 36.5219C199.632 34.6081 198.444 32.6904 196.527 32.2385C194.61 31.7867 192.688 32.9717 192.236 34.8854C191.783 36.7992 192.97 38.7169 194.888 39.1688C196.805 39.6207 198.726 38.4356 199.179 36.5219Z" fill="#CED5DD"/>
<path d="M195.683 54.5227C197.653 54.5227 199.25 52.9286 199.25 50.9622C199.25 48.9958 197.653 47.4017 195.683 47.4017C193.713 47.4017 192.116 48.9958 192.116 50.9622C192.116 52.9286 193.713 54.5227 195.683 54.5227Z" fill="#CED5DD"/>
<path d="M195.683 69.8329C197.653 69.8329 199.25 68.2388 199.25 66.2724C199.25 64.3059 197.653 62.7118 195.683 62.7118C193.713 62.7118 192.116 64.3059 192.116 66.2724C192.116 68.2388 193.713 69.8329 195.683 69.8329Z" fill="#CED5DD"/>
</svg>
