<svg width="48" height="48" viewBox="0 0 48 48" fill="none" xmlns="http://www.w3.org/2000/svg">
<path d="M31.9951 14.415C31.5694 14.415 31.1612 14.2459 30.8602 13.9449C30.5592 13.6439 30.3901 13.2357 30.3901 12.81V6.40501C30.3901 5.98192 30.2231 5.57594 29.9253 5.27538C29.6275 4.97481 29.2231 4.80397 28.8001 4.80001H19.2001C18.9893 4.80001 18.7806 4.84153 18.5859 4.92218C18.3911 5.00284 18.2142 5.12107 18.0652 5.2701C17.9161 5.41914 17.7979 5.59608 17.7173 5.7908C17.6366 5.98553 17.5951 6.19424 17.5951 6.40501V12.81C17.6167 13.0328 17.5915 13.2577 17.521 13.4701C17.4506 13.6826 17.3365 13.878 17.186 14.0437C17.0356 14.2095 16.8521 14.3419 16.6475 14.4325C16.4428 14.5232 16.2214 14.57 15.9976 14.57C15.7737 14.57 15.5524 14.5232 15.3477 14.4325C15.143 14.3419 14.9596 14.2095 14.8091 14.0437C14.6587 13.878 14.5446 13.6826 14.4741 13.4701C14.4037 13.2577 14.3785 13.0328 14.4001 12.81V6.40501C14.4001 5.13197 14.9058 3.91107 15.806 3.0109C16.7061 2.11072 17.927 1.60501 19.2001 1.60501H28.8001C30.0731 1.60501 31.294 2.11072 32.1942 3.0109C33.0944 3.91107 33.6001 5.13197 33.6001 6.40501V12.81C33.6001 13.2357 33.431 13.6439 33.13 13.9449C32.829 14.2459 32.4207 14.415 31.9951 14.415Z" fill="url(#paint0_linear_633_98)"/>
<path d="M40.005 11.205H7.995C3.57948 11.205 0 14.7845 0 19.2V38.4C0 42.8155 3.57948 46.395 7.995 46.395H40.005C44.4205 46.395 48 42.8155 48 38.4V19.2C48 14.7845 44.4205 11.205 40.005 11.205Z" fill="url(#paint1_linear_633_98)"/>
<path d="M23.9999 29.49C22.4475 29.4753 20.9151 29.1382 19.4999 28.5L8.99988 23.865C8.60205 23.692 8.28927 23.368 8.13033 22.9643C7.97139 22.5606 7.97932 22.1103 8.15238 21.7125C8.32543 21.3147 8.64943 21.0019 9.0531 20.843C9.45677 20.684 9.90705 20.692 10.3049 20.865L20.8049 25.53C21.8275 25.9836 22.9337 26.2179 24.0524 26.2179C25.171 26.2179 26.2773 25.9836 27.2999 25.53L37.7999 20.865C37.9969 20.7793 38.2088 20.7333 38.4236 20.7295C38.6383 20.7257 38.8518 20.7643 39.0516 20.843C39.2515 20.9217 39.4339 21.039 39.5885 21.1882C39.743 21.3374 39.8667 21.5155 39.9524 21.7125C40.0381 21.9095 40.0841 22.1214 40.0879 22.3362C40.0917 22.551 40.0531 22.7644 39.9744 22.9643C39.8957 23.1642 39.7784 23.3466 39.6292 23.5011C39.48 23.6557 39.3019 23.7793 39.1049 23.865L28.4999 28.5C27.0847 29.1382 25.5523 29.4753 23.9999 29.49Z" fill="url(#paint2_linear_633_98)"/>
<defs>
<linearGradient id="paint0_linear_633_98" x1="24.0001" y1="1.60501" x2="24.0001" y2="14.415" gradientUnits="userSpaceOnUse">
<stop stop-color="#F6F0EA"/>
<stop offset="1" stop-color="#F1DFD1"/>
</linearGradient>
<linearGradient id="paint1_linear_633_98" x1="48" y1="11.205" x2="0" y2="11.205" gradientUnits="userSpaceOnUse">
<stop stop-color="#FF8911"/>
<stop offset="1" stop-color="#F83600"/>
</linearGradient>
<linearGradient id="paint2_linear_633_98" x1="-0.000124222" y1="29.49" x2="1.49988" y2="20.805" gradientUnits="userSpaceOnUse">
<stop stop-color="#F6F0EA"/>
<stop offset="1" stop-color="#F1DFD1"/>
</linearGradient>
</defs>
</svg>
