<svg width="48" height="48" viewBox="0 0 48 48" fill="none" xmlns="http://www.w3.org/2000/svg">
<g clip-path="url(#clip0_633_176)">
<path d="M42.6876 5.4793C37.306 4.39733 32.1282 2.47487 27.3445 -0.217489C26.3301 -0.811771 25.1757 -1.12503 24 -1.12503C22.8244 -1.12503 21.6699 -0.811771 20.6555 -0.217489C15.8718 2.47487 10.6941 4.39733 5.31244 5.4793C3.81741 5.79423 2.47518 6.61129 1.50882 7.7947C0.542459 8.9781 0.010178 10.4566 0.000440913 11.9844V16.2146C-0.0292803 22.0707 1.44406 27.8365 4.27954 32.9604C7.11501 38.0844 11.2178 42.3951 16.1954 45.4802L20.4861 48.1423C21.5383 48.8002 22.7542 49.149 23.9952 49.149C25.2361 49.149 26.4521 48.8002 27.5042 48.1423L31.7926 45.4802C36.7724 42.3965 40.8776 38.0865 43.7152 32.9624C46.5529 27.8384 48.0281 22.0718 47.9996 16.2146V11.9844C47.9899 10.4566 47.4576 8.9781 46.4912 7.7947C45.5249 6.61129 44.1826 5.79423 42.6876 5.4793Z" fill="url(#paint0_linear_633_176)"/>
<path d="M26.4204 28.2326C26.182 28.2331 25.9459 28.1864 25.7257 28.095C25.5055 28.0036 25.3057 27.8694 25.1378 27.7001L20.2977 22.8601C19.9771 22.516 19.8025 22.0609 19.8108 21.5907C19.8191 21.1205 20.0096 20.6718 20.3422 20.3393C20.6747 20.0067 21.1233 19.8163 21.5936 19.808C22.0638 19.7997 22.5189 19.9742 22.8629 20.2948L26.4204 23.8499L37.238 13.0347C37.5821 12.7141 38.0371 12.5395 38.5074 12.5478C38.9776 12.5561 39.4262 12.7466 39.7588 13.0792C40.0913 13.4117 40.2818 13.8603 40.2901 14.3306C40.2984 14.8008 40.1239 15.2559 39.8032 15.5999L27.703 27.7001C27.5351 27.8694 27.3353 28.0036 27.1151 28.095C26.8949 28.1864 26.6588 28.2331 26.4204 28.2326Z" fill="#FCC400"/>
<path d="M24.0002 34.2826C22.1354 34.286 20.2979 33.8356 18.646 32.9704C16.9942 32.1052 15.5776 30.8512 14.5185 29.3164C13.4594 27.7816 12.7895 26.0122 12.5667 24.1609C12.3439 22.3095 12.5749 20.4317 13.2396 18.6895C13.9044 16.9473 14.983 15.3929 16.3825 14.1605C17.7819 12.9282 19.4601 12.0547 21.2724 11.6156C23.0847 11.1764 24.9766 11.1847 26.785 11.6398C28.5933 12.0949 30.2638 12.9831 31.6523 14.2277C31.847 14.3814 32.0081 14.5733 32.1258 14.7917C32.2434 15.0101 32.315 15.2502 32.3362 15.4974C32.3573 15.7445 32.3277 15.9933 32.2489 16.2285C32.1702 16.4637 32.0441 16.6803 31.8784 16.8648C31.7128 17.0494 31.511 17.1981 31.2856 17.3016C31.0603 17.4052 30.8161 17.4615 30.5681 17.467C30.3201 17.4725 30.0737 17.4271 29.8439 17.3337C29.6142 17.2402 29.406 17.1007 29.2323 16.9237C27.7967 15.6309 25.932 14.9176 24.0002 14.9223C21.9142 14.9223 19.9137 15.7509 18.4387 17.2259C16.9637 18.7009 16.135 20.7015 16.135 22.7874C16.135 24.8734 16.9637 26.8739 18.4387 28.3489C19.9137 29.8239 21.9142 30.6526 24.0002 30.6526C24.4135 30.6496 24.8261 30.6156 25.2344 30.5509C25.985 30.4323 26.7135 30.2014 27.3955 29.8661C29.006 29.1006 30.304 27.8043 31.0715 26.1949C31.2782 25.76 31.6491 25.4251 32.1028 25.2637C32.5564 25.1024 33.0555 25.1279 33.4904 25.3345C33.9252 25.5412 34.2601 25.9121 34.4215 26.3658C34.5828 26.8194 34.5574 27.3185 34.3507 27.7534C33.2261 30.1116 31.3262 32.0123 28.9685 33.138C27.9608 33.6302 26.8847 33.968 25.7765 34.1399C25.1887 34.2314 24.595 34.2792 24.0002 34.2826Z" fill="white"/>
</g>
<defs>
<linearGradient id="paint0_linear_633_176" x1="48" y1="-1.12503" x2="0" y2="-1.12503" gradientUnits="userSpaceOnUse">
<stop stop-color="#FF8911"/>
<stop offset="1" stop-color="#F83600"/>
</linearGradient>
<clipPath id="clip0_633_176">
<rect width="48" height="48" fill="white"/>
</clipPath>
</defs>
</svg>
