<svg width="48" height="48" viewBox="0 0 48 48" fill="none" xmlns="http://www.w3.org/2000/svg">
<path d="M2.41895 8.89847V36.2031C2.41895 40.0985 5.57587 43.2739 9.47125 43.2739H22.4682C20.9063 40.9079 20.0778 38.1334 20.0866 35.2985C20.0866 27.2492 26.6405 20.6954 34.6897 20.6954C35.8565 20.6954 36.1703 20.8246 36.3513 20.8246V8.89847C36.3513 5.00308 33.1759 1.8277 29.2989 1.8277H9.47125C5.57587 1.8277 2.41895 5.00308 2.41895 8.89847ZM14.862 34.3385H11.1143C10.0989 34.3385 9.26818 33.5077 9.26818 32.4923C9.26818 31.4585 10.0989 30.6462 11.1143 30.6462H14.862C15.8774 30.6462 16.7082 31.4585 16.7082 32.4923C16.7082 33.5077 15.8774 34.3385 14.862 34.3385ZM16.8189 24.3877H11.1143C10.0989 24.3877 9.26818 23.5754 9.26818 22.5415C9.26818 21.5262 10.0989 20.6954 11.1143 20.6954H16.8189C17.8343 20.6954 18.6651 21.5262 18.6651 22.5415C18.6651 23.5754 17.8343 24.3877 16.8189 24.3877ZM11.1143 10.7631H27.6374C28.6528 10.7631 29.4836 11.5939 29.4836 12.6092C29.4836 13.6431 28.6528 14.4554 27.6374 14.4554H11.1143C10.0989 14.4554 9.26818 13.6431 9.26818 12.6092C9.26818 11.5939 10.0989 10.7631 11.1143 10.7631Z" fill="url(#paint0_linear_633_181)"/>
<path d="M34.6901 24.3877C28.6531 24.3877 23.7793 29.2431 23.7793 35.2985C23.7793 41.5145 28.8802 46.1723 34.6901 46.1723C40.6901 46.1723 45.5824 41.2985 45.5824 35.2985C45.5824 29.1988 40.6162 24.3877 34.6901 24.3877ZM37.5701 38.3815C36.8316 39.12 35.687 39.12 34.9485 38.3815L33.1947 36.6277C33.0227 36.4559 32.8867 36.2514 32.7948 36.0263C32.7028 35.8012 32.6568 35.5601 32.6593 35.3169V31.5877C32.6593 30.5539 33.4716 29.7415 34.5055 29.7415C35.5208 29.7415 36.3516 30.5539 36.3516 31.5877V34.56L37.5701 35.7785C38.2901 36.4985 38.2901 37.6615 37.5701 38.3815Z" fill="url(#paint1_linear_633_181)"/>
<defs>
<linearGradient id="paint0_linear_633_181" x1="36.3513" y1="1.8277" x2="2.41895" y2="1.8277" gradientUnits="userSpaceOnUse">
<stop stop-color="#FF8911"/>
<stop offset="1" stop-color="#F83600"/>
</linearGradient>
<linearGradient id="paint1_linear_633_181" x1="45.5824" y1="24.3877" x2="23.7793" y2="24.3877" gradientUnits="userSpaceOnUse">
<stop stop-color="#FF8911"/>
<stop offset="1" stop-color="#F83600"/>
</linearGradient>
</defs>
</svg>
