<svg width="48" height="48" viewBox="0 0 48 48" fill="none" xmlns="http://www.w3.org/2000/svg">
<path d="M30.72 31.0545V24.6254C30.72 23.7382 30.9963 23.4618 31.8691 23.4618H41.0763C41.8618 23.4618 42.1818 23.7818 42.1818 24.5673V35.2582C42.1818 35.6218 42.24 35.7673 42.6472 35.7527C43.3891 35.7091 44.5381 35.7382 45.28 35.7382C45.5127 35.7382 45.7163 35.7673 45.8181 36C45.92 36.2327 45.8327 36.4073 45.6872 36.5818C43.6945 38.9236 38.9381 43.9127 36.9454 46.2545C36.64 46.6182 36.4072 46.6182 36.0872 46.24C34.1091 43.9127 29.4836 38.9382 27.5054 36.6109C27.3454 36.4218 27.2291 36.2327 27.36 35.9854C27.4909 35.7382 27.68 35.7382 27.9127 35.7382C28.6545 35.7382 29.5272 35.7091 30.2691 35.7527C30.6763 35.7673 30.7491 35.6218 30.7491 35.2582C30.72 33.0618 30.72 33.2509 30.72 31.0545ZM21.1927 33.4691C20.9891 33.3382 20.8872 33.0909 20.9163 32.8582C20.9309 32.2036 20.9163 31.5636 20.9309 30.9091C20.9309 30.7345 20.8727 30.6764 20.7127 30.6618C19.3454 30.4582 18.0509 29.92 16.9454 29.1054C16.6254 28.8873 16.3345 28.64 16.0727 28.3636C15.8691 28.1309 15.84 27.9418 16.0291 27.6945C16.4509 27.1273 16.8727 26.5745 17.3091 26.0218C17.5418 25.7309 17.7745 25.7018 18.0654 25.9491C18.9672 26.7636 20.0581 27.3309 21.2363 27.5927C22.2254 27.7964 23.1709 27.7382 24.0727 27.2C25.0181 26.6327 25.4836 25.1345 24.2472 24.1745C23.6072 23.68 22.8509 23.3891 22.0945 23.0691C21.1491 22.6764 20.1891 22.3273 19.2872 21.8473C18.3854 21.3673 17.5854 20.7854 16.9891 19.9418C16.3636 19.0545 16.1018 17.9782 16.2327 16.9018C16.4654 14.8073 17.7309 13.5273 19.5636 12.7127C19.9418 12.5527 20.3345 12.4364 20.7418 12.3636C20.9018 12.3345 20.9163 12.2618 20.9163 12.1309V10.0218C20.9163 9.64363 21.0763 9.48363 21.4545 9.48363H23.0836C23.4181 9.48363 23.5636 9.62908 23.5636 9.96363V12.0727C23.5636 12.2182 23.6072 12.2764 23.7527 12.2909C25.1345 12.4509 26.4436 13.0036 27.5345 13.8618C27.5927 13.9054 27.6509 13.9636 27.7091 14.0218C27.9563 14.2545 27.9854 14.3854 27.8109 14.6764C27.4763 15.2873 27.1418 15.8836 26.8072 16.4945C26.6181 16.8291 26.3563 16.8873 26.0363 16.64C25.6145 16.3054 25.1636 16.0145 24.6691 15.7818C23.6072 15.2873 22.5163 15.0691 21.3672 15.3745C20.5963 15.5782 19.9272 15.9418 19.6654 16.7709C19.4472 17.4545 19.6654 18.1091 20.2036 18.5745C20.9018 19.2 21.76 19.52 22.6181 19.8545C23.6509 20.2618 24.6836 20.6545 25.6727 21.1782C26.3709 21.5418 26.9818 22.0364 27.4763 22.6327C28.0145 23.2873 28.2618 24.0727 28.3345 24.9164C28.3345 25.0036 28.3491 25.1054 28.3491 25.1927C28.3927 25.28 28.3345 25.3964 28.3927 25.4836V25.6291C28.3345 25.9636 28.3636 26.3127 28.2763 26.6473C28.0581 27.4909 27.6509 28.2618 27.0545 28.9164C26.1963 29.8764 25.1054 30.4291 23.8691 30.7054C23.7236 30.7054 23.6218 30.8364 23.6218 30.9818V31.0109C23.6363 31.6509 23.6218 32.3054 23.6218 32.96C23.6218 33.2073 23.5345 33.3964 23.2727 33.4691H21.1927Z" fill="url(#paint0_linear_633_185)"/>
<path d="M23.5196 36.9164C23.0687 36.96 22.6033 36.9745 22.1378 36.9745C13.5851 36.9745 6.64689 30.0364 6.64689 21.4836C6.64689 12.9309 13.5851 5.99272 22.1378 5.99272C30.6905 5.99272 37.6287 12.9309 37.6287 21.4836H42.1378V21.4691C42.1233 10.5891 33.0178 1.48363 22.1523 1.48363C11.1123 1.46908 2.15234 10.4145 2.15234 21.4545V21.4836C2.15234 32.3636 11.2723 41.4691 22.1378 41.4691C23.9123 41.4691 25.6869 41.2364 27.4033 40.7709L23.5196 36.9164Z" fill="url(#paint1_linear_633_185)"/>
<defs>
<linearGradient id="paint0_linear_633_185" x1="45.8623" y1="9.48363" x2="15.9023" y2="9.48363" gradientUnits="userSpaceOnUse">
<stop stop-color="#FF8911"/>
<stop offset="1" stop-color="#F83600"/>
</linearGradient>
<linearGradient id="paint1_linear_633_185" x1="42.1378" y1="1.48361" x2="2.15234" y2="1.48361" gradientUnits="userSpaceOnUse">
<stop stop-color="#FF8911"/>
<stop offset="1" stop-color="#F83600"/>
</linearGradient>
</defs>
</svg>
