<svg width="48" height="48" viewBox="0 0 48 48" fill="none" xmlns="http://www.w3.org/2000/svg">
<g clip-path="url(#clip0_633_189)">
<path d="M3.6696 15.9832H1.41018C0.633542 15.9832 0.00390625 16.6129 0.00390625 17.3895C0.00390625 18.1662 0.633542 18.7958 1.41018 18.7958H3.6696C5.53235 18.7272 5.533 16.0522 3.6696 15.9832ZM46.5985 15.9832H44.3391C43.5624 15.9832 42.9328 16.6129 42.9328 17.3895C42.9328 18.1662 43.5624 18.7958 44.3391 18.7958H46.5985C48.4613 18.7272 48.4619 16.0522 46.5985 15.9832ZM8.63112 4.00498C9.99671 5.27362 11.889 3.38265 10.6199 2.01622L9.02244 0.418789C8.47334 -0.130314 7.58288 -0.130314 7.03369 0.418789C6.48449 0.967892 6.48449 1.85835 7.03369 2.40754L8.63112 4.00498ZM39.3776 30.7741C38.0119 29.5055 36.1199 31.3965 37.3889 32.7628L38.9863 34.3603C39.5353 34.9093 40.4257 34.9096 40.9751 34.3603C41.5243 33.8112 41.5243 32.9207 40.9751 32.3715L39.3776 30.7741ZM8.63112 30.7741L7.03369 32.3715C6.48449 32.9206 6.48449 33.8111 7.03369 34.3603C7.5827 34.9093 8.47305 34.9096 9.02244 34.3603L10.6199 32.7628C11.8886 31.3971 9.99736 29.5051 8.63112 30.7741ZM38.9863 0.418789L37.3889 2.01622C36.8397 2.56533 36.8397 3.45578 37.3889 4.00498C37.9379 4.55399 38.8282 4.55436 39.3776 4.00498L40.9751 2.40754C42.2438 1.04186 40.3526 -0.850046 38.9863 0.418789ZM30.6119 18.7958L27.9598 21.4479C29.4384 24.3078 27.2385 27.8767 24.0042 27.8335C21.5677 27.8335 19.5854 25.8513 19.5854 23.4147C19.5425 20.1807 23.1112 17.9803 25.9711 19.4592L29.035 16.3951C29.1656 16.2645 29.3206 16.1609 29.4912 16.0902C29.6618 16.0195 29.8447 15.9832 30.0294 15.9832H39.6565C37.4772 -2.97165 10.5243 -2.95777 8.35193 15.9832H17.3967L20.0489 13.331C18.5703 10.4712 20.7702 6.90228 24.0044 6.9455C26.4409 6.9455 28.4232 8.92778 28.4232 11.3643C28.4662 14.5983 24.8975 16.7986 22.0376 15.3197L18.9736 18.3838C18.843 18.5144 18.688 18.618 18.5174 18.6886C18.3468 18.7593 18.164 18.7957 17.9793 18.7957H8.35296C8.70743 22.7242 10.5353 26.3888 13.4925 29.0151C15.103 30.5038 16.1477 32.5042 16.4679 34.6515C16.4714 34.651 31.5355 34.651 31.5407 34.6515C31.8608 32.5046 32.9056 30.504 34.5162 29.0151C37.4734 26.3889 39.3014 22.7242 39.6558 18.7957H30.6119V18.7958ZM16.573 39.0702C16.573 42.687 19.1708 45.7069 22.5981 46.3663C22.4584 48.5452 25.551 48.5439 25.4107 46.3663C28.8381 45.7069 31.4358 42.687 31.4358 39.0702V37.4638H16.573V39.0702Z" fill="url(#paint0_linear_633_189)"/>
<path d="M25.6111 11.3645C25.6111 10.4788 24.8905 9.75814 24.0048 9.75814C21.8767 9.83895 21.8773 12.8903 24.0048 12.9708C24.8905 12.9707 25.6111 12.2502 25.6111 11.3645ZM22.3984 23.4147C22.3984 24.3003 23.1191 25.021 24.0048 25.021C26.1328 24.9402 26.1323 21.8889 24.0048 21.8084C23.1191 21.8084 22.3984 22.529 22.3984 23.4147Z" fill="url(#paint1_linear_633_189)"/>
</g>
<defs>
<linearGradient id="paint0_linear_633_189" x1="47.9958" y1="1.14441e-05" x2="0.00390625" y2="1.14441e-05" gradientUnits="userSpaceOnUse">
<stop stop-color="#FF8911"/>
<stop offset="1" stop-color="#F83600"/>
</linearGradient>
<linearGradient id="paint1_linear_633_189" x1="25.6111" y1="9.75814" x2="22.3984" y2="9.75814" gradientUnits="userSpaceOnUse">
<stop stop-color="#FF8911"/>
<stop offset="1" stop-color="#F83600"/>
</linearGradient>
<clipPath id="clip0_633_189">
<rect width="48" height="48" fill="white"/>
</clipPath>
</defs>
</svg>
