<svg width="48" height="48" viewBox="0 0 48 48" fill="none" xmlns="http://www.w3.org/2000/svg">
<path fill-rule="evenodd" clip-rule="evenodd" d="M15.6997 13.0863C20.6552 13.0863 22.9403 2.4375 15.6997 2.4375C8.45911 2.4375 10.7441 13.0863 15.6997 13.0863ZM30.8581 14.6351C34.0654 17.4458 38.1205 19.103 42.3783 19.343C43.079 28.5628 38.6522 36.276 30.8581 41.2506C23.064 36.276 18.6373 28.5627 19.3379 19.343C23.5957 19.103 27.6509 17.4458 30.8581 14.6351ZM29.6924 29.3583C28.4908 28.1561 27.2894 26.9537 26.0878 25.7515L23.9659 27.8722C25.8577 29.7651 27.7493 31.6581 29.6415 33.5503L39.728 23.94L37.6587 21.7681L29.6924 29.3583ZM19.3379 14.4698C17.2592 15.7309 14.1401 15.7309 12.0615 14.4698C7.49292 14.4698 5.54883 17.1078 5.54883 20.9076V27.6779C5.54883 30.0422 6.77508 31.9896 8.8838 32.5456V20.9075C8.8838 20.7086 8.96281 20.5178 9.10347 20.3771C9.24412 20.2365 9.43488 20.1575 9.6338 20.1575C9.83271 20.1575 10.0235 20.2365 10.1641 20.3771C10.3048 20.5178 10.3838 20.7086 10.3838 20.9075V45.5625H14.9502V32.6798C14.9502 32.4809 15.0292 32.2902 15.1698 32.1495C15.3105 32.0089 15.5013 31.9298 15.7002 31.9298C15.8991 31.9298 16.0898 32.0089 16.2305 32.1495C16.3712 32.2902 16.4502 32.4809 16.4502 32.6798V45.5625H21.7661V34.5278C18.2222 29.1965 17.4675 24.1609 17.9417 17.9192C20.3902 17.7812 22.3005 17.588 24.6492 16.6739C23.6158 15.29 21.8849 14.4698 19.3379 14.4698Z" fill="url(#paint0_linear_633_193)"/>
<defs>
<linearGradient id="paint0_linear_633_193" x1="42.4507" y1="2.4375" x2="5.54883" y2="2.4375" gradientUnits="userSpaceOnUse">
<stop stop-color="#FF8911"/>
<stop offset="1" stop-color="#F83600"/>
</linearGradient>
</defs>
</svg>
