<svg width="48" height="48" viewBox="0 0 48 48" fill="none" xmlns="http://www.w3.org/2000/svg">
<g clip-path="url(#clip0_633_196)">
<path d="M48 29.5618V18.4381H43.1241C42.7177 17.0384 42.1576 15.688 41.4539 14.4116L44.9034 10.9621L37.0378 3.09651L33.5883 6.5461C32.3119 5.84245 30.9615 5.28231 29.5618 4.87594V0H18.4381V4.87594C17.0384 5.28231 15.6881 5.84245 14.4117 6.5461L10.9622 3.09661L3.09661 10.9622L6.5461 14.4117C5.84246 15.6881 5.28236 17.0385 4.87603 18.4382H0V29.5619H4.87603C5.28234 30.9616 5.84244 32.3119 6.5461 33.5883L3.09661 37.0378L10.9622 44.9034L14.4117 41.4539C15.3115 41.9492 16.2485 42.3736 17.2143 42.7233V35.0649C13.4487 32.7248 11.1431 28.6148 11.1431 24.143C11.1431 18.9472 14.2393 14.2911 19.0312 12.2813L20.9804 11.4636V22.6641L24.0014 24.4798L27.0224 22.6641V11.4636L28.9716 12.2813C33.7635 14.2911 36.8597 18.9472 36.8597 24.143C36.8597 28.6101 34.5574 32.718 30.7975 35.0592V42.7201C31.7592 42.3709 32.6923 41.9476 33.5885 41.454L37.0379 44.9035L44.9035 37.0379L41.454 33.5884C42.1576 32.312 42.7177 30.9617 43.1241 29.562H48V29.5618Z" fill="url(#paint0_linear_633_196)"/>
<path d="M27.9861 33.4064L28.7291 33.0093C32.0102 31.2554 34.0485 27.858 34.0485 24.143C34.0485 20.8398 32.4468 17.8157 29.8334 15.9571V24.2544L24.0013 27.7597L18.1692 24.2544V15.9571C15.5558 17.8157 13.9541 20.8398 13.9541 24.143C13.9541 27.8619 15.9953 31.261 19.2813 33.0135L20.0254 33.4103V48H27.9862L27.9861 33.4064Z" fill="url(#paint1_linear_633_196)"/>
</g>
<defs>
<linearGradient id="paint0_linear_633_196" x1="48" y1="0" x2="0" y2="0" gradientUnits="userSpaceOnUse">
<stop stop-color="#FF8911"/>
<stop offset="1" stop-color="#F83600"/>
</linearGradient>
<linearGradient id="paint1_linear_633_196" x1="34.0485" y1="15.9571" x2="13.9541" y2="15.9571" gradientUnits="userSpaceOnUse">
<stop stop-color="#FF8911"/>
<stop offset="1" stop-color="#F83600"/>
</linearGradient>
<clipPath id="clip0_633_196">
<rect width="48" height="48" fill="white"/>
</clipPath>
</defs>
</svg>
