<svg width="48" height="48" viewBox="0 0 48 48" fill="none" xmlns="http://www.w3.org/2000/svg">
<g clip-path="url(#clip0_633_200)">
<path d="M24.1879 37.9622C24.1882 35.3912 24.9378 32.8761 26.3451 30.7245C27.7524 28.5729 29.7563 26.8781 32.1116 25.8475C34.467 24.8169 37.0717 24.4952 39.607 24.9216C42.1423 25.3481 44.4984 26.5043 46.387 28.2488C46.4495 23.7294 46.412 19.21 46.2745 14.6906C46.1995 11.5856 44.4463 8.46844 41.5091 6.92813C39.9998 6.13032 38.436 5.3625 36.8545 4.635C30.6051 6.65625 23.286 9.3225 15.9041 12.6234C15.1944 12.9372 14.5864 13.4429 14.1486 14.0836C13.7108 14.7242 13.4607 15.4745 13.4263 16.2497C13.311 19.8122 13.2754 23.4891 13.3223 27.1247C13.326 27.2313 13.2955 27.3363 13.2352 27.4243C13.1749 27.5123 13.0879 27.5787 12.9871 27.6136C12.8863 27.6485 12.777 27.6502 12.6751 27.6184C12.5733 27.5866 12.4843 27.523 12.4213 27.4369C11.6401 26.4369 10.877 25.4481 10.132 24.4706C10.077 24.3942 9.99522 24.3413 9.903 24.3224C9.81077 24.3034 9.7148 24.3199 9.63414 24.3684C9.05477 24.7134 8.4857 25.0538 7.92695 25.3894C7.61383 25.5769 7.22852 25.3266 7.22664 24.9413C7.20789 21.3197 7.29789 17.6888 7.49195 14.1694C7.57352 12.6853 8.50445 11.2875 9.88164 10.6069C16.9616 7.11 24.5151 4.25344 30.9604 2.13938C29.4604 1.5525 27.9688 1.01438 26.5129 0.50438C24.5498 -0.169693 22.4179 -0.169693 20.4548 0.50438C15.5966 2.18063 10.2913 4.36875 5.45758 6.92813C2.52133 8.46844 0.770078 11.5856 0.692266 14.6906C0.501016 20.8969 0.501016 27.1031 0.692266 33.3094C0.767266 36.4144 2.52133 39.5316 5.45758 41.0719C10.2913 43.6313 15.5966 45.8194 20.4576 47.4947C22.4207 48.1688 24.5526 48.1688 26.5157 47.4947C26.9401 47.3484 27.3685 47.1975 27.801 47.0419C25.4734 44.5928 24.1793 41.3409 24.1879 37.9622Z" fill="url(#paint0_linear_633_200)"/>
<path d="M37.4129 27.9253C35.4276 27.9255 33.4869 28.5144 31.8363 29.6175C30.1857 30.7206 28.8993 32.2885 28.1397 34.1227C27.3801 35.9569 27.1815 37.9752 27.569 39.9223C27.9565 41.8694 28.9127 43.6579 30.3166 45.0616C31.7206 46.4653 33.5093 47.4211 35.4564 47.8083C37.4036 48.1954 39.4219 47.9964 41.256 47.2365C43.0901 46.4766 44.6576 45.1899 45.7604 43.5391C46.8633 41.8883 47.4518 39.9475 47.4516 37.9622C47.4515 36.644 47.1917 35.3388 46.6872 34.121C46.1826 32.9032 45.4431 31.7967 44.5109 30.8647C43.5787 29.9327 42.4721 29.1934 41.2542 28.689C40.0363 28.1847 38.731 27.9252 37.4129 27.9253ZM43.1382 36.3009L37.1044 42.6366C36.9402 42.8093 36.7428 42.947 36.524 43.0414C36.3052 43.1358 36.0696 43.185 35.8313 43.1859H35.8229C35.586 43.1858 35.3515 43.1382 35.1333 43.046C34.9151 42.9537 34.7177 42.8186 34.5525 42.6488L31.351 39.3506C31.024 39.0137 30.8443 38.5607 30.8513 38.0913C30.8584 37.6219 31.0516 37.1745 31.3885 36.8475C31.7254 36.5206 32.1784 36.3408 32.6478 36.3478C33.1172 36.3549 33.5646 36.5481 33.8916 36.885L35.8125 38.8622L40.576 33.8597C40.9035 33.5388 41.3428 33.3575 41.8014 33.354C42.2599 33.3506 42.7019 33.5252 43.0343 33.8411C43.3666 34.1571 43.5634 34.5897 43.5831 35.0478C43.6028 35.5059 43.444 35.9539 43.14 36.2972L43.1382 36.3009Z" fill="url(#paint1_linear_633_200)"/>
</g>
<defs>
<linearGradient id="paint0_linear_633_200" x1="46.4163" y1="-0.00117493" x2="0.548828" y2="-0.00117493" gradientUnits="userSpaceOnUse">
<stop stop-color="#FF8911"/>
<stop offset="1" stop-color="#F83600"/>
</linearGradient>
<linearGradient id="paint1_linear_633_200" x1="47.4516" y1="27.9253" x2="27.376" y2="27.9253" gradientUnits="userSpaceOnUse">
<stop stop-color="#FF8911"/>
<stop offset="1" stop-color="#F83600"/>
</linearGradient>
<clipPath id="clip0_633_200">
<rect width="48" height="48" fill="white"/>
</clipPath>
</defs>
</svg>
