<svg width="57" height="57" viewBox="0 0 57 57" fill="none" xmlns="http://www.w3.org/2000/svg">
<path d="M21.6054 25.5798C19.644 25.5798 17.7267 24.9982 16.0959 23.9085C14.4652 22.8189 13.1941 21.2701 12.4435 19.4581C11.693 17.646 11.4966 15.6521 11.8792 13.7285C12.2619 11.8048 13.2063 10.0379 14.5932 8.65099C15.9801 7.26412 17.7471 6.31965 19.6707 5.93701C21.5944 5.55437 23.5883 5.75076 25.4003 6.50133C27.2123 7.25189 28.7611 8.52294 29.8508 10.1537C30.9404 11.7845 31.522 13.7018 31.522 15.6631C31.5189 18.2922 30.4732 20.8128 28.6141 22.6719C26.755 24.5309 24.2345 25.5767 21.6054 25.5798ZM21.6054 9.24646C20.3363 9.24646 19.0957 9.6228 18.0404 10.3279C16.9852 11.0329 16.1628 12.0351 15.6771 13.2076C15.1915 14.3801 15.0644 15.6702 15.312 16.915C15.5596 18.1597 16.1707 19.303 17.0681 20.2004C17.9655 21.0978 19.1088 21.7089 20.3535 21.9565C21.5982 22.2041 22.8884 22.077 24.0609 21.5914C25.2334 21.1057 26.2355 20.2833 26.9406 19.228C27.6457 18.1728 28.022 16.9322 28.022 15.6631C28.0208 13.9617 27.3443 12.3303 26.1413 11.1272C24.9382 9.92414 23.3068 9.2477 21.6054 9.24646ZM30.9177 51.2465H12.251C6.60435 51.2465 3.49402 48.1548 3.49402 42.5408C3.49402 36.3295 7.00802 29.0798 16.9107 29.0798H26.244C36.1467 29.0798 39.6607 36.3295 39.6607 42.5408C39.6677 48.1548 36.5574 51.2465 30.9177 51.2465ZM16.9177 32.5798C15.5853 32.4768 14.2465 32.6641 12.9935 33.1289C11.7406 33.5937 10.6035 34.3248 9.66068 35.2719C8.71785 36.2189 7.99177 37.3593 7.53259 38.6143C7.0734 39.8692 6.89204 41.2089 7.00102 42.5408C7.00102 46.1901 8.57369 47.7465 12.258 47.7465H30.9177C34.602 47.7465 36.1747 46.1901 36.1747 42.5408C36.2838 41.2083 36.1023 39.8679 35.6427 38.6124C35.1831 37.3569 34.4564 36.2162 33.5128 35.269C32.5692 34.3218 31.4311 33.5908 30.1774 33.1265C28.9236 32.6622 27.5839 32.4757 26.251 32.5798H16.9177ZM39.2244 26.6065C37.1317 26.6137 35.1202 25.7973 33.6244 24.3338C33.3407 24.0025 33.191 23.5772 33.2046 23.1413C33.2182 22.7054 33.394 22.2902 33.6977 21.9772C34.0014 21.6642 34.411 21.4758 34.8463 21.449C35.2816 21.4223 35.7113 21.559 36.051 21.8325C36.8969 22.6571 38.0338 23.1148 39.215 23.1065C39.8205 23.113 40.4212 22.9986 40.9818 22.7699C41.5425 22.5412 42.0518 22.2029 42.48 21.7748C42.9081 21.3466 43.2465 20.8373 43.4752 20.2766C43.7038 19.7159 43.8182 19.1153 43.8117 18.5098C43.8098 17.2913 43.325 16.1232 42.4633 15.2615C41.6017 14.3999 40.4336 13.915 39.215 13.9131C38.5454 13.9025 37.883 14.0521 37.283 14.3495C36.8693 14.5602 36.3889 14.5979 35.9473 14.4544C35.5058 14.3109 35.1394 13.9978 34.9287 13.5841C34.718 13.1704 34.6802 12.69 34.8238 12.2485C34.9673 11.8069 35.2803 11.4405 35.694 11.2298C36.7885 10.6789 37.9992 10.3988 39.2244 10.4131C41.3717 10.4131 43.4311 11.2662 44.9496 12.7846C46.468 14.303 47.321 16.3624 47.321 18.5098C47.321 20.6572 46.468 22.7166 44.9496 24.235C43.4311 25.7534 41.3717 26.6065 39.2244 26.6065ZM46.4577 46.5798H44.871C44.4069 46.5798 43.9618 46.3954 43.6336 46.0672C43.3054 45.7391 43.121 45.2939 43.121 44.8298C43.121 44.3657 43.3054 43.9206 43.6336 43.5924C43.9618 43.2642 44.4069 43.0798 44.871 43.0798H46.4577C49.1294 43.0798 50.1677 42.0531 50.1677 39.4165C50.2477 38.433 50.1132 37.4438 49.7737 36.5174C49.4341 35.5909 48.8975 34.7492 48.2008 34.0504C47.5042 33.3515 46.6642 32.8122 45.7388 32.4697C44.8135 32.1272 43.8248 31.9896 42.841 32.0665H39.3177C38.8536 32.0665 38.4084 31.8821 38.0802 31.5539C37.7521 31.2257 37.5677 30.7806 37.5677 30.3165C37.5677 29.8523 37.7521 29.4072 38.0802 29.079C38.4084 28.7508 38.8536 28.5665 39.3177 28.5665H42.841C44.2894 28.4713 45.7414 28.687 47.0997 29.1989C48.458 29.7109 49.6911 30.5073 50.7164 31.5348C51.7416 32.5623 52.5354 33.7971 53.0444 35.1564C53.5534 36.5158 53.7659 37.9683 53.6677 39.4165C53.7674 40.3858 53.6491 41.3652 53.3213 42.2828C52.9936 43.2005 52.4647 44.0332 51.7734 44.72C51.0821 45.4068 50.246 45.9303 49.3262 46.2521C48.4065 46.5739 47.4263 46.6858 46.4577 46.5798Z" fill="url(#paint0_linear_190_25)"/>
<defs>
<linearGradient id="paint0_linear_190_25" x1="53.702" y1="5.74646" x2="3.49402" y2="5.74646" gradientUnits="userSpaceOnUse">
<stop stop-color="#FF8911"/>
<stop offset="1" stop-color="#F83600"/>
</linearGradient>
</defs>
</svg>
