<svg width="56" height="56" viewBox="0 0 56 56" fill="none" xmlns="http://www.w3.org/2000/svg">
<g clip-path="url(#clip0_76_93)">
<path d="M29.3389 1.73094L40.9176 9.29305V54.427H29.3389V1.73094ZM41.8244 34.2613V54.1901H56.0009V38.7899L41.8244 34.2613ZM47.8098 49.8576L43.4782 48.5967V44.858L47.8098 46.43V49.8576ZM47.8098 43.3193L43.4782 42.0576V38.3207L47.8098 39.8946V43.3193ZM53.2442 51.4306L48.9108 50.1716V46.431L53.2442 48.0058V51.4306ZM53.2442 44.8933L48.9117 43.6334V39.8946L53.2461 41.4667V44.8933H53.2442ZM13.7045 10.71V40.6351L11.6577 41.9721V31.9775L10.3588 32.5146V22.5451L0.904964 26.7187V36.4308L0 36.8062V54.427H28.0167V1.57391L13.7045 10.71ZM1.77183 28.6206L4.96244 27.1443V30.9834L1.77183 32.4012V28.6206ZM2.00876 34.843L5.19843 33.3647V37.2066L2.00876 38.6226V34.843ZM5.29506 48.6348L2.10539 50.0545V46.2721L5.29506 44.7957V48.6348ZM5.29506 42.7851L2.10539 44.2057V40.4233L5.29506 38.9478V42.7851ZM5.7494 26.7698L8.94001 25.2935V29.1335L5.7494 30.5504V26.7698ZM5.98633 32.9912L9.176 31.5148V35.3549L5.98633 36.7737V32.9912ZM9.54951 46.8054L6.35891 48.2242V44.4436L9.54951 42.9653V46.8054ZM9.54951 40.9566L6.35891 42.3735V38.5948L9.54951 37.1175V40.9566ZM19.7689 41.6218L15.3565 44.3841V40.2885L19.7689 37.4343V41.6218ZM19.7689 34.7017L15.3565 37.4622V33.3647L19.7689 30.5105V34.7017ZM19.7689 27.7798L15.3565 30.543V26.4446L19.7689 23.5885V27.7798ZM19.7689 20.8588L15.3565 23.6182V19.5227L19.7689 16.6666V20.8588ZM19.7689 13.9359L15.3565 16.6972V12.6007L19.7689 9.74554V13.9359ZM26.3062 37.5318L21.1868 40.7354V36.5144L26.3062 33.2012V37.5318ZM26.3062 30.6099L21.1868 33.8144V29.5925L26.3062 26.2774V30.6099ZM26.3062 23.6879L21.1868 26.8925V22.6724L26.3062 19.3564V23.6879ZM26.3062 16.766L21.1868 19.9705V15.7495L26.3062 12.4344V16.766ZM26.3062 9.84309L21.1868 13.0476V8.82663L26.3062 5.51153V9.84309Z" fill="url(#paint0_linear_76_93)"/>
</g>
<defs>
<linearGradient id="paint0_linear_76_93" x1="56.0009" y1="1.57391" x2="0" y2="1.57391" gradientUnits="userSpaceOnUse">
<stop stop-color="#FF8911"/>
<stop offset="1" stop-color="#F83600"/>
</linearGradient>
<clipPath id="clip0_76_93">
<rect width="56" height="56" fill="white"/>
</clipPath>
</defs>
</svg>
