<svg width="32" height="32" viewBox="0 0 32 32" fill="none" xmlns="http://www.w3.org/2000/svg">
<path d="M31.6595 19.8708C31.0508 18.9763 29.8251 18.7396 28.9278 19.3426L24.8441 22.0756L24.8322 13.5687L26.2509 14.8977C26.5526 15.1803 26.946 15.3358 27.359 15.3358C27.3597 15.3358 27.3606 15.3358 27.3614 15.3358C27.8073 15.3352 28.2378 15.1483 28.5426 14.823C28.8386 14.5069 28.9939 14.0946 28.9798 13.6617C28.9657 13.2288 28.7838 12.8274 28.4678 12.5313L25.7781 10.0117C25.5939 9.83919 25.3049 9.84862 25.1324 10.0327C24.96 10.2169 24.9694 10.5059 25.1535 10.6784L27.8432 13.198C27.9812 13.3272 28.0606 13.5025 28.0667 13.6914C28.0729 13.8804 28.0051 14.0604 27.8758 14.1984C27.7408 14.3425 27.5577 14.422 27.3601 14.4222C27.3597 14.4222 27.3594 14.4222 27.359 14.4222C27.1788 14.4222 27.0071 14.3544 26.8754 14.231L26.8754 14.2309L16.1952 4.226C16.0192 4.06118 15.7454 4.06143 15.5698 4.22687L4.91744 14.2617C4.77988 14.3914 4.6 14.4592 4.411 14.454C4.222 14.4484 4.04656 14.3694 3.91694 14.2317C3.78731 14.0942 3.719 13.9143 3.72469 13.7254C3.73031 13.5364 3.80925 13.3609 3.94681 13.2313L15.3954 2.44644C15.6667 2.19075 16.0925 2.19012 16.3646 2.44512L23.0625 8.71962C23.2466 8.89206 23.5356 8.88269 23.7081 8.69856C23.8806 8.51444 23.8711 8.22544 23.6871 8.05294L16.9892 1.77844C16.3659 1.19444 15.3907 1.19575 14.769 1.7815L11.1041 5.234L11.1031 4.61819C11.1028 4.42406 11.0269 4.24169 10.8895 4.10469C10.7523 3.96787 10.5702 3.89256 10.3764 3.89256C10.3761 3.89256 10.3757 3.89256 10.3754 3.89256L7.75369 3.89625C7.55956 3.8965 7.37725 3.97237 7.24019 4.10981C7.10319 4.24725 7.02781 4.42981 7.02812 4.624L7.03538 9.06694L3.32044 12.5665C3.00519 12.8634 2.8245 13.2654 2.81156 13.6982C2.79862 14.1311 2.95506 14.5431 3.252 14.8582C3.54888 15.1735 3.95081 15.3542 4.38375 15.3672C4.40031 15.3677 4.41687 15.3679 4.43344 15.3679C4.84812 15.3679 5.24081 15.2123 5.54388 14.9267L6.95944 13.5932L6.96506 17.6114C6.50706 17.5447 6.04369 17.5097 5.57819 17.5097H4.79663V17.2358C4.79663 16.3164 4.04856 15.5683 3.12913 15.5683H1.6675C0.748062 15.5682 0 16.3162 0 17.2357V24.3931C0 24.6454 0.2045 24.8499 0.45675 24.8499C0.709 24.8499 0.9135 24.6454 0.9135 24.3931V17.2357C0.9135 16.82 1.25175 16.4817 1.6675 16.4817H3.12906C3.54481 16.4817 3.88306 16.82 3.88306 17.2357V17.9664V27.3286V28.0521C3.88306 28.4678 3.54481 28.8061 3.12906 28.8061H1.6675C1.25175 28.8061 0.9135 28.4678 0.9135 28.0521V27.2528C0.9135 27.0006 0.709 26.7961 0.45675 26.7961C0.2045 26.7961 0 27.0006 0 27.2528V28.0521C0 28.9715 0.748062 29.7196 1.6675 29.7196H3.12906C4.0485 29.7196 4.79656 28.9716 4.79656 28.0521V27.99L11.4856 30.523C11.4979 30.5277 11.5105 30.5318 11.5232 30.5354C11.8141 30.6175 12.1048 30.6587 12.3918 30.6587C12.547 30.6587 12.7012 30.6466 12.8538 30.6225L22.6839 29.2055C22.6862 29.2052 22.6884 29.2048 22.6908 29.2044C23.5265 29.071 24.3149 28.7177 24.9708 28.1828C24.9764 28.1782 24.9821 28.1734 24.9875 28.1684L31.3382 22.4567C32.0778 21.8001 32.2158 20.6884 31.6595 19.8708ZM10.1898 4.80637L10.1919 6.09325L7.94744 8.20762L7.94187 4.80943L10.1898 4.80637ZM15.8838 5.186L23.9174 12.7117L23.9314 22.6863L22.6382 23.5518L21.2687 23.475L21.2326 23.1112C21.1051 21.8301 20.1594 20.7996 18.9088 20.5536L18.9006 14.6196C18.8999 14.1642 18.5292 13.7941 18.0739 13.7941C18.0735 13.7941 18.0732 13.7941 18.0728 13.7941L13.7194 13.8002C13.4986 13.8006 13.2911 13.8868 13.1352 14.0432C12.9792 14.1995 12.8936 14.4072 12.8939 14.628L12.9011 19.8018C12.0388 19.6047 11.2154 19.2791 10.4456 18.8288C10.3496 18.7726 10.2526 18.7184 10.1547 18.6656C10.1166 18.6451 10.0779 18.6257 10.0394 18.6057C9.97994 18.5746 9.92056 18.5434 9.86044 18.5136C9.81256 18.4898 9.76412 18.4673 9.71587 18.4444C9.66469 18.4201 9.61356 18.3955 9.562 18.3721C9.5095 18.3482 9.45656 18.3256 9.40369 18.3027C9.35538 18.2818 9.30706 18.2608 9.25844 18.2407C9.20406 18.2183 9.14938 18.1967 9.09463 18.1753C9.04606 18.1563 8.99744 18.1374 8.94862 18.1192C8.89444 18.0989 8.84 18.0794 8.78544 18.0602C8.73425 18.0421 8.683 18.0245 8.6315 18.0073C8.57925 17.9899 8.52687 17.9728 8.47425 17.9562C8.41819 17.9386 8.36187 17.9217 8.3055 17.905C8.25706 17.8907 8.20869 17.8765 8.16 17.863C8.09644 17.8453 8.03256 17.8287 7.96863 17.8124C7.93869 17.8047 7.90894 17.796 7.87881 17.7886L7.87175 12.7337L15.8838 5.186ZM17.9952 20.4393L14.1749 19.9995L13.8149 19.9581L13.8076 14.7136L17.9872 14.7077L17.9952 20.4393ZM30.7296 21.7756L24.3851 27.4817C23.8564 27.9104 23.2222 28.194 22.5501 28.3019L12.7242 29.7182C12.7222 29.7186 12.7202 29.7189 12.7181 29.7192L12.7113 29.7202C12.4136 29.7674 12.1036 29.7475 11.7898 29.6614L4.79663 27.0131V18.4231H5.57819C6.2435 18.4231 6.90431 18.4999 7.54781 18.6491C7.57175 18.6547 7.59562 18.6604 7.6195 18.6661C7.69856 18.6852 7.77744 18.7048 7.85594 18.7261C7.86281 18.7279 7.86963 18.7299 7.8765 18.7318C7.95519 18.7533 8.03356 18.776 8.11169 18.7997C8.12569 18.8039 8.13975 18.8081 8.15369 18.8124C8.23681 18.8381 8.31956 18.8649 8.40187 18.8931C8.41037 18.896 8.41881 18.899 8.42731 18.9019C8.59875 18.9611 8.7685 19.0257 8.93612 19.0956C8.94525 19.0994 8.95438 19.1032 8.9635 19.1071C9.04706 19.1422 9.13012 19.1785 9.21262 19.2162C9.21481 19.2172 9.21706 19.2183 9.21925 19.2194C9.299 19.256 9.37819 19.294 9.45687 19.3331C9.46612 19.3376 9.47544 19.3421 9.48469 19.3467C9.56156 19.3852 9.63781 19.425 9.71362 19.4657C9.72794 19.4734 9.74219 19.4813 9.7565 19.4891C9.833 19.5307 9.90906 19.5732 9.98438 19.6173C11.0713 20.2531 12.2546 20.6649 13.5013 20.8414C13.5052 20.8419 13.5091 20.8424 13.5131 20.8429L18.6306 21.4321C18.6589 21.4361 18.6871 21.4408 18.715 21.4461C19.4684 21.5876 20.063 22.1442 20.2619 22.8692C20.2914 22.9766 20.3122 23.0877 20.3236 23.2016L20.3439 23.406L10.7526 22.5657C10.5015 22.5437 10.2797 22.7296 10.2577 22.9808C10.2357 23.2321 10.4216 23.4537 10.6729 23.4757L20.813 24.3641C20.8154 24.3643 20.8178 24.3642 20.8202 24.3644C20.8226 24.3646 20.8249 24.365 20.8273 24.3652L22.7396 24.4725C22.7482 24.473 22.7567 24.4732 22.7652 24.4732C22.7743 24.4732 22.7832 24.4717 22.7922 24.4712C22.8024 24.4706 22.8126 24.4702 22.8227 24.4689C22.8363 24.4672 22.8496 24.4642 22.863 24.4613C22.8726 24.4592 22.8822 24.4576 22.8916 24.4549C22.9062 24.4507 22.9202 24.445 22.9344 24.4393C22.9421 24.4362 22.9499 24.4339 22.9574 24.4304C22.9788 24.4206 22.9995 24.4092 23.0193 24.3959L24.6425 23.3096L24.6427 23.3094L29.4366 20.1012C29.9189 19.777 30.5773 19.9042 30.9042 20.3847C31.2031 20.8238 31.1289 21.421 30.7296 21.7756Z" fill="#0C2D57"/>
</svg>
