<svg width="32" height="32" viewBox="0 0 32 32" fill="none" xmlns="http://www.w3.org/2000/svg">
<path d="M25.8765 14.8036V7.74175C25.8765 6.06337 24.5021 4.67711 22.8236 4.67711H22.4434V4.1984C22.4434 3.00091 21.4726 2.03012 20.2751 2.03012C19.0776 2.03012 18.1068 3.00091 18.1068 4.1984V4.67711H10.1564V4.1984C10.1564 2.98428 9.17213 2 7.95801 2C6.74389 2 5.75961 2.98428 5.75961 4.1984V4.67711H5.43105C3.75262 4.67711 2.38672 6.06337 2.38672 7.74175V23.9572C2.38672 25.6356 3.75262 27.0225 5.43105 27.0225H14.9832C15.7612 27.9531 16.7336 28.7019 17.832 29.2163C18.9304 29.7307 20.1282 29.9982 21.3412 30C25.9006 30 29.6147 26.2852 29.6147 21.7256C29.6148 18.8357 28.105 16.2825 25.8765 14.8036ZM19.3114 4.1984C19.3021 3.6738 19.7198 3.24098 20.2444 3.23171C20.2529 3.23159 20.2613 3.23153 20.2697 3.23159C20.7993 3.22599 21.2332 3.65073 21.2388 4.18033C21.2388 4.18636 21.2388 4.19238 21.2388 4.1984V6.54425H19.3114V4.1984ZM6.96421 4.1984C6.96994 3.65868 7.41215 3.22581 7.95187 3.23153C7.95279 3.23152 7.95372 3.23154 7.95464 3.23159C8.49635 3.23159 8.95181 3.65675 8.95181 4.1984V6.54425H6.96421V4.1984ZM3.59132 7.74175C3.59132 6.72753 4.41684 5.88172 5.43105 5.88172H5.75961V7.17161C5.75961 7.5042 6.03739 7.74885 6.37004 7.74885H9.53936C9.87195 7.74885 10.1564 7.5042 10.1564 7.17161V5.88172H18.1068V7.17161C18.1046 7.24809 18.1181 7.32422 18.1463 7.39532C18.1746 7.46641 18.2172 7.53097 18.2713 7.58503C18.3255 7.63909 18.3901 7.68151 18.4612 7.70968C18.5324 7.73785 18.6085 7.75118 18.685 7.74885H21.8543C21.9314 7.75142 22.0081 7.73833 22.08 7.71038C22.1518 7.68243 22.2173 7.6402 22.2723 7.58624C22.3274 7.53228 22.3709 7.46772 22.4003 7.39645C22.4297 7.32518 22.4444 7.24869 22.4434 7.17161V5.88172H22.8236C23.8447 5.89202 24.668 6.72066 24.6719 7.74175V9.67622H3.59132V7.74175ZM5.43105 25.8179C4.41684 25.8179 3.59132 24.9714 3.59132 23.9572V10.8808H24.6719V14.1486C23.6234 13.6882 22.4908 13.4508 21.3457 13.4512C16.7863 13.4512 13.0745 17.1714 13.0745 21.731C13.0722 23.1634 13.4425 24.5718 14.149 25.8179H5.43105ZM21.3412 28.7847C17.4396 28.7847 14.2767 25.6218 14.2767 21.7202C14.2767 17.8186 17.4396 14.6558 21.3412 14.6558C25.2428 14.6558 28.4056 17.8186 28.4056 21.7202V21.7203C28.4012 25.62 25.241 28.7803 21.3412 28.7847Z" fill="#0C2D57"/>
<path d="M24.1783 21.7223H21.5396V18.0982C21.5396 17.7656 21.2699 17.4959 20.9373 17.4959C20.6046 17.4959 20.335 17.7656 20.335 18.0982V22.324C20.3375 22.4849 20.4033 22.6384 20.5181 22.7513C20.633 22.8641 20.7876 22.9272 20.9486 22.9269H24.1783C24.5109 22.9269 24.7806 22.6572 24.7806 22.3246C24.7806 21.9919 24.5109 21.7223 24.1783 21.7223Z" fill="#0C2D57"/>
</svg>
