<svg width="32" height="32" viewBox="0 0 32 32" fill="none" xmlns="http://www.w3.org/2000/svg">
<path d="M13.2532 18.7469C13.1331 18.6269 12.9704 18.5595 12.8007 18.5595C12.631 18.5595 12.4682 18.6269 12.3482 18.7469L8.32004 22.775V19.2C8.32004 19.0303 8.25261 18.8675 8.13259 18.7475C8.01256 18.6274 7.84978 18.56 7.68004 18.56C7.5103 18.56 7.34751 18.6274 7.22749 18.7475C7.10747 18.8675 7.04004 19.0303 7.04004 19.2V24.32C7.04004 24.4897 7.10747 24.6525 7.22749 24.7726C7.34751 24.8926 7.5103 24.96 7.68004 24.96H12.8C12.9698 24.96 13.1326 24.8926 13.2526 24.7726C13.3726 24.6525 13.44 24.4897 13.44 24.32C13.44 24.1503 13.3726 23.9875 13.2526 23.8675C13.1326 23.7474 12.9698 23.68 12.8 23.68H9.225L13.2519 19.6531C13.3116 19.5938 13.359 19.5232 13.3913 19.4455C13.4237 19.3678 13.4404 19.2845 13.4405 19.2003C13.4407 19.1161 13.4242 19.0327 13.392 18.9549C13.3599 18.8771 13.3127 18.8064 13.2532 18.7469ZM24.5645 7.08865C24.4868 7.0573 24.4039 7.0408 24.32 7.04001H19.2C19.0303 7.04001 18.8675 7.10744 18.7475 7.22746C18.6275 7.34748 18.56 7.51027 18.56 7.68001C18.56 7.84975 18.6275 8.01253 18.7475 8.13256C18.8675 8.25258 19.0303 8.32001 19.2 8.32001H22.7751L18.7482 12.3469C18.6887 12.4063 18.6415 12.4769 18.6092 12.5545C18.577 12.6322 18.5604 12.7155 18.5603 12.7996C18.5602 12.9694 18.6276 13.1323 18.7476 13.2525C18.8676 13.3727 19.0304 13.4402 19.2002 13.4404C19.3701 13.4405 19.533 13.3731 19.6532 13.2531L23.68 9.22497V12.8C23.68 12.9697 23.7475 13.1325 23.8675 13.2526C23.9875 13.3726 24.1503 13.44 24.32 13.44C24.4898 13.44 24.6526 13.3726 24.7726 13.2526C24.8926 13.1325 24.96 12.9697 24.96 12.8V7.68001C24.9598 7.5534 24.9222 7.42969 24.8518 7.32445C24.7814 7.21921 24.6815 7.13717 24.5645 7.08865Z" fill="#0C2D57"/>
<path d="M25.6002 3.20001H6.4002C5.55181 3.20103 4.73847 3.5385 4.13858 4.13839C3.53868 4.73829 3.20121 5.55163 3.2002 6.40001V25.6C3.2002 27.3651 4.63636 28.8 6.4002 28.8H25.6002C27.364 28.8 28.8002 27.3651 28.8002 25.6V6.40001C28.8002 4.63489 27.364 3.20001 25.6002 3.20001ZM27.5202 25.6C27.5202 26.6586 26.6588 27.52 25.6002 27.52H6.4002C5.34164 27.52 4.4802 26.6586 4.4802 25.6V6.40001C4.4802 5.34145 5.34164 4.48001 6.4002 4.48001H25.6002C26.6588 4.48001 27.5202 5.34145 27.5202 6.40001V25.6Z" fill="#0C2D57"/>
</svg>
