<svg width="32" height="32" viewBox="0 0 32 32" fill="none" xmlns="http://www.w3.org/2000/svg">
<g clip-path="url(#clip0_816_292)">
<path d="M30 14.6674H3.33331V3.42743C3.33331 2.66743 4.04 2.00075 4.84662 2.00075H7.63331C8.42 2.00075 9.05331 2.64075 9.06 3.42075C7.76 3.74743 6.66669 4.94743 6.66669 6.21406V8.00075C6.66669 8.36743 6.96669 8.66743 7.33337 8.66743H12C12.3667 8.66743 12.6667 8.36743 12.6667 8.00075V6.21412C12.6667 4.92743 11.6467 3.74743 10.3934 3.42743C10.3934 1.90743 9.16006 0.667435 7.63338 0.667435H4.84669C3.30669 0.667435 2 1.93412 2 3.42743V14.6674C0.9 14.6607 0.0066875 15.5541 0 16.6541C0 17.2274 0.24 17.7674 0.666687 18.1474V21.6407C0.666687 24.3541 1.87338 26.6807 3.82669 28.1941L2.73338 30.3674C2.56669 30.6941 2.70006 31.0941 3.03338 31.2607C3.36006 31.4274 3.76006 31.294 3.92669 30.9607L4.95337 28.914C6.30006 29.634 7.80669 30.0073 9.33337 29.994H22.6667C24.1934 30.0073 25.7 29.634 27.0467 28.914L28.0734 30.9607C28.2401 31.2874 28.6401 31.4207 28.9667 31.2607C29.2934 31.1007 29.4267 30.694 29.2667 30.3674L28.1734 28.1874C30.1267 26.6807 31.3334 24.3474 31.3334 21.6341V18.1407C31.7534 17.7741 32.0001 17.2341 32.0001 16.6674C32 15.5608 31.1067 14.6674 30 14.6674ZM9.72669 4.66743C10.52 4.66743 11.3334 5.44743 11.3334 6.21412V7.33412H8V6.21412C8 5.47412 8.9 4.66743 9.72669 4.66743ZM30 21.6408C30 25.6475 26.8467 28.6675 22.6667 28.6675H9.33331C5.15331 28.6674 2 25.6474 2 21.6408V18.6675H30V21.6408ZM30 17.3341H2.02C1.68669 17.3341 1.38669 17.0941 1.34 16.7674C1.28 16.3541 1.6 16.0007 2 16.0007H29.98C30.3133 16.0007 30.6133 16.2407 30.66 16.5674C30.72 16.9808 30.4 17.3341 30 17.3341Z" fill="#0C2D57"/>
</g>
<defs>
<clipPath id="clip0_816_292">
<rect width="32" height="32" fill="white"/>
</clipPath>
</defs>
</svg>
