<svg width="56" height="56" viewBox="0 0 56 56" fill="none" xmlns="http://www.w3.org/2000/svg">
<g clip-path="url(#clip0_97_759)">
<path d="M28 56C43.464 56 56 43.464 56 28C56 12.536 43.464 0 28 0C12.536 0 0 12.536 0 28C0 43.464 12.536 56 28 56Z" fill="url(#paint0_linear_97_759)"/>
<path d="M27.0285 30.9203V32.8672H28.9716V30.9203H27.0285ZM41.6011 19.2391H34.8005V14.3719C34.8005 13.8339 34.366 13.3984 33.829 13.3984H22.171C21.6339 13.3984 21.1995 13.8339 21.1995 14.3719V19.2391H14.3989C12.7917 19.2391 11.4844 20.549 11.4844 22.1594V24.4779C16.6012 27.0132 22.4541 28.9734 28 28.9734C33.5763 28.9734 39.4358 26.9986 44.5156 24.4778V22.1594C44.5156 20.549 43.2083 19.2391 41.6011 19.2391ZM32.8576 19.2391H23.1425V15.3453H32.8576V19.2391ZM30.9145 33.8406C30.9145 34.3786 30.48 34.8141 29.943 34.8141H26.0571C25.52 34.8141 25.0856 34.3786 25.0856 33.8406V30.7578C20.9777 30.3165 16.04 28.9132 11.4845 26.6549V39.6812C11.4845 41.2916 12.7918 42.6016 14.399 42.6016H41.6012C43.2084 42.6016 44.5157 41.2916 44.5157 39.6812V26.6549C39.9607 28.9131 35.023 30.3163 30.9146 30.7578V33.8406H30.9145Z" fill="url(#paint1_linear_97_759)"/>
</g>
<defs>
<linearGradient id="paint0_linear_97_759" x1="28" y1="56" x2="28" y2="0" gradientUnits="userSpaceOnUse">
<stop stop-color="#FFEBB3"/>
<stop offset="1" stop-color="#FFFFEA"/>
</linearGradient>
<linearGradient id="paint1_linear_97_759" x1="44.5157" y1="13.3984" x2="11.4844" y2="13.3984" gradientUnits="userSpaceOnUse">
<stop stop-color="#FF8911"/>
<stop offset="1" stop-color="#F83600"/>
</linearGradient>
<clipPath id="clip0_97_759">
<rect width="56" height="56" fill="white"/>
</clipPath>
</defs>
</svg>
